<svg width="475" height="346" viewBox="0 0 475 346" fill="none" xmlns="http://www.w3.org/2000/svg">
<g filter="url(#filter0_f_687_40)">
<path d="M425 177C425 208.561 405.246 238.829 370.083 261.146C334.919 283.463 287.228 296 237.5 296C187.772 296 140.081 283.463 104.917 261.146C69.7544 238.829 50 208.561 50 177L237.5 177H425Z" fill="url(#paint0_radial_687_40)"/>
</g>
<g filter="url(#filter1_f_687_40)">
<path d="M425 173C425 140.378 405.246 109.093 370.083 86.0259C334.919 62.9589 287.228 50 237.5 50C187.772 50 140.081 62.9589 104.917 86.0259C69.7544 109.093 50 140.378 50 173L237.5 173H425Z" fill="url(#paint1_radial_687_40)"/>
</g>
<defs>
<filter id="filter0_f_687_40" x="0" y="127" width="475" height="219" filterUnits="userSpaceOnUse" color-interpolation-filters="sRGB">
<feFlood flood-opacity="0" result="BackgroundImageFix"/>
<feBlend mode="normal" in="SourceGraphic" in2="BackgroundImageFix" result="shape"/>
<feGaussianBlur stdDeviation="25" result="effect1_foregroundBlur_687_40"/>
</filter>
<filter id="filter1_f_687_40" x="0" y="0" width="475" height="223" filterUnits="userSpaceOnUse" color-interpolation-filters="sRGB">
<feFlood flood-opacity="0" result="BackgroundImageFix"/>
<feBlend mode="normal" in="SourceGraphic" in2="BackgroundImageFix" result="shape"/>
<feGaussianBlur stdDeviation="25" result="effect1_foregroundBlur_687_40"/>
</filter>
<radialGradient id="paint0_radial_687_40" cx="0" cy="0" r="1" gradientUnits="userSpaceOnUse" gradientTransform="translate(50 273.115) rotate(0.573415) scale(406.52 305.76)">
<stop stop-color="#035C62"/>
<stop offset="0.445613" stop-color="#181B1C"/>
<stop offset="0.817206" stop-color="#075F65"/>
</radialGradient>
<radialGradient id="paint1_radial_687_40" cx="0" cy="0" r="1" gradientUnits="userSpaceOnUse" gradientTransform="translate(557.422 269.094) rotate(-163.736) scale(485.849 351.81)">
<stop stop-color="#040404"/>
<stop offset="1" stop-color="#009EA8"/>
</radialGradient>
</defs>
</svg>
