<svg width="129" height="129" viewBox="0 0 129 129" fill="none" xmlns="http://www.w3.org/2000/svg">
<g filter="url(#filter0_d_644_17)">
<path d="M113.171 79.3393C104.913 106.415 76.2702 121.67 49.1948 113.412C22.1194 105.154 6.86459 76.5109 15.1223 49.4355C23.38 22.3601 52.0232 7.10533 79.0986 15.363C106.174 23.6208 121.429 52.2639 113.171 79.3393Z" fill="url(#paint0_radial_644_17)"/>
</g>
<g filter="url(#filter1_d_644_17)">
<path fill-rule="evenodd" clip-rule="evenodd" d="M110.533 86.773C108.661 86.9863 106.757 87.0959 104.828 87.0959C77.053 87.0959 54.5372 64.3839 54.5372 36.3673C54.5372 28.0756 56.5094 20.2486 60.0063 13.3374C33.8623 15.5858 13.3379 37.7042 13.3379 64.6582C13.3379 93.1059 36.2 116.167 64.4019 116.167C84.7566 116.167 102.33 104.154 110.533 86.773Z" fill="#272637"/>
</g>
<g filter="url(#filter2_d_644_17)">
<path d="M77.4307 64.048C77.4307 71.4386 71.5971 77.4299 64.4009 77.4299C57.2047 77.4299 51.3711 71.4386 51.3711 64.048C51.3711 56.6573 57.2047 50.666 64.4009 50.666C71.5971 50.666 77.4307 56.6573 77.4307 64.048Z" fill="url(#paint1_radial_644_17)"/>
</g>
<g filter="url(#filter3_d_644_17)">
<path d="M35.5843 68.2906H33.5106L41.059 60.1123H44.5152V69.3926H41.059V63.0704L42.0958 63.5199L36.635 69.3926H32.4876L27.0129 63.5344L28.0636 63.0849V69.3926H24.6074V60.1123H28.0636L35.5843 68.2906Z" fill="white"/>
<path d="M54.6775 69.6827C52.6683 69.6827 51.0508 69.499 49.825 69.1316C48.5992 68.7546 47.7052 68.2036 47.143 67.4786C46.59 66.7439 46.3135 65.8352 46.3135 64.7525C46.3135 63.6698 46.59 62.7659 47.143 62.0409C47.7052 61.3062 48.5992 60.7551 49.825 60.3878C51.0508 60.0108 52.6683 59.8223 54.6775 59.8223C56.6867 59.8223 58.3042 60.0108 59.53 60.3878C60.7558 60.7551 61.6452 61.3062 62.1982 62.0409C62.7604 62.7659 63.0415 63.6698 63.0415 64.7525C63.0415 65.8352 62.7604 66.7439 62.1982 67.4786C61.6452 68.2036 60.7558 68.7546 59.53 69.1316C58.3042 69.499 56.6867 69.6827 54.6775 69.6827ZM54.6775 66.9275C55.6268 66.9275 56.4471 66.8695 57.1383 66.7535C57.8295 66.6279 58.3641 66.4104 58.742 66.101C59.1199 65.782 59.3088 65.3325 59.3088 64.7525C59.3088 64.1724 59.1199 63.7278 58.742 63.4184C58.3641 63.0994 57.8295 62.8819 57.1383 62.7659C56.4471 62.6402 55.6268 62.5774 54.6775 62.5774C53.7282 62.5774 52.8941 62.6402 52.1752 62.7659C51.4655 62.8819 50.9079 63.0994 50.5024 63.4184C50.1061 63.7278 49.9079 64.1724 49.9079 64.7525C49.9079 65.3325 50.1061 65.782 50.5024 66.101C50.9079 66.4104 51.4655 66.6279 52.1752 66.7535C52.8941 66.8695 53.7282 66.9275 54.6775 66.9275Z" fill="white"/>
<path d="M73.0656 69.6827C71.0564 69.6827 69.4389 69.499 68.2131 69.1316C66.9873 68.7546 66.0933 68.2036 65.531 67.4786C64.978 66.7439 64.7016 65.8352 64.7016 64.7525C64.7016 63.6698 64.978 62.7659 65.531 62.0409C66.0933 61.3062 66.9873 60.7551 68.2131 60.3878C69.4389 60.0108 71.0564 59.8223 73.0656 59.8223C75.0748 59.8223 76.6923 60.0108 77.9181 60.3878C79.1439 60.7551 80.0333 61.3062 80.5863 62.0409C81.1485 62.7659 81.4296 63.6698 81.4296 64.7525C81.4296 65.8352 81.1485 66.7439 80.5863 67.4786C80.0333 68.2036 79.1439 68.7546 77.9181 69.1316C76.6923 69.499 75.0748 69.6827 73.0656 69.6827ZM73.0656 66.9275C74.0149 66.9275 74.8351 66.8695 75.5264 66.7535C76.2176 66.6279 76.7522 66.4104 77.1301 66.101C77.5079 65.782 77.6969 65.3325 77.6969 64.7525C77.6969 64.1724 77.5079 63.7278 77.1301 63.4184C76.7522 63.0994 76.2176 62.8819 75.5264 62.7659C74.8351 62.6402 74.0149 62.5774 73.0656 62.5774C72.1163 62.5774 71.2822 62.6402 70.5633 62.7659C69.8536 62.8819 69.296 63.0994 68.8905 63.4184C68.4942 63.7278 68.296 64.1724 68.296 64.7525C68.296 65.3325 68.4942 65.782 68.8905 66.101C69.296 66.4104 69.8536 66.6279 70.5633 66.7535C71.2822 66.8695 72.1163 66.9275 73.0656 66.9275Z" fill="white"/>
<path d="M97.0942 66.5505L95.8085 67.3191V60.1123H99.2647V69.3926H95.8085L85.3984 63.0704L86.6841 62.2874V69.3926H83.2279V60.1123H86.6841L97.0942 66.5505Z" fill="white"/>
</g>
<defs>
<filter id="filter0_d_644_17" x="10.0617" y="13.1201" width="108.17" height="108.169" filterUnits="userSpaceOnUse" color-interpolation-filters="sRGB">
<feFlood flood-opacity="0" result="BackgroundImageFix"/>
<feColorMatrix in="SourceAlpha" type="matrix" values="0 0 0 0 0 0 0 0 0 0 0 0 0 0 0 0 0 0 127 0" result="hardAlpha"/>
<feOffset dy="2.81726"/>
<feGaussianBlur stdDeviation="1.40863"/>
<feComposite in2="hardAlpha" operator="out"/>
<feColorMatrix type="matrix" values="0 0 0 0 0 0 0 0 0 0 0 0 0 0 0 0 0 0 0.5 0"/>
<feBlend mode="normal" in2="BackgroundImageFix" result="effect1_dropShadow_644_17"/>
<feBlend mode="normal" in="SourceGraphic" in2="effect1_dropShadow_644_17" result="shape"/>
</filter>
<filter id="filter1_d_644_17" x="10.5206" y="13.3374" width="102.83" height="108.464" filterUnits="userSpaceOnUse" color-interpolation-filters="sRGB">
<feFlood flood-opacity="0" result="BackgroundImageFix"/>
<feColorMatrix in="SourceAlpha" type="matrix" values="0 0 0 0 0 0 0 0 0 0 0 0 0 0 0 0 0 0 127 0" result="hardAlpha"/>
<feOffset dy="2.81726"/>
<feGaussianBlur stdDeviation="1.40863"/>
<feComposite in2="hardAlpha" operator="out"/>
<feColorMatrix type="matrix" values="0 0 0 0 0 0 0 0 0 0 0 0 0 0 0 0 0 0 0.5 0"/>
<feBlend mode="normal" in2="BackgroundImageFix" result="effect1_dropShadow_644_17"/>
<feBlend mode="normal" in="SourceGraphic" in2="effect1_dropShadow_644_17" result="shape"/>
</filter>
<filter id="filter2_d_644_17" x="48.5538" y="50.666" width="31.6941" height="32.3987" filterUnits="userSpaceOnUse" color-interpolation-filters="sRGB">
<feFlood flood-opacity="0" result="BackgroundImageFix"/>
<feColorMatrix in="SourceAlpha" type="matrix" values="0 0 0 0 0 0 0 0 0 0 0 0 0 0 0 0 0 0 127 0" result="hardAlpha"/>
<feOffset dy="2.81726"/>
<feGaussianBlur stdDeviation="1.40863"/>
<feComposite in2="hardAlpha" operator="out"/>
<feColorMatrix type="matrix" values="0 0 0 0 0 0 0 0 0 0 0 0 0 0 0 0 0 0 0.5 0"/>
<feBlend mode="normal" in2="BackgroundImageFix" result="effect1_dropShadow_644_17"/>
<feBlend mode="normal" in="SourceGraphic" in2="effect1_dropShadow_644_17" result="shape"/>
</filter>
<filter id="filter3_d_644_17" x="21.7902" y="59.8223" width="80.2917" height="15.4949" filterUnits="userSpaceOnUse" color-interpolation-filters="sRGB">
<feFlood flood-opacity="0" result="BackgroundImageFix"/>
<feColorMatrix in="SourceAlpha" type="matrix" values="0 0 0 0 0 0 0 0 0 0 0 0 0 0 0 0 0 0 127 0" result="hardAlpha"/>
<feOffset dy="2.81726"/>
<feGaussianBlur stdDeviation="1.40863"/>
<feComposite in2="hardAlpha" operator="out"/>
<feColorMatrix type="matrix" values="0 0 0 0 0 0 0 0 0 0 0 0 0 0 0 0 0 0 0.5 0"/>
<feBlend mode="normal" in2="BackgroundImageFix" result="effect1_dropShadow_644_17"/>
<feBlend mode="normal" in="SourceGraphic" in2="effect1_dropShadow_644_17" result="shape"/>
</filter>
<radialGradient id="paint0_radial_644_17" cx="0" cy="0" r="1" gradientUnits="userSpaceOnUse" gradientTransform="translate(90.4609 75.6692) rotate(-146.939) scale(71.2991)">
<stop stop-color="#00ACB8"/>
<stop offset="1" stop-color="#D1D2D2"/>
</radialGradient>
<radialGradient id="paint1_radial_644_17" cx="0" cy="0" r="1" gradientUnits="userSpaceOnUse" gradientTransform="translate(86.633 74.5026) rotate(-155.452) scale(35.6324 36.2673)">
<stop stop-color="#040404"/>
<stop offset="1" stop-color="#D6D6D6"/>
</radialGradient>
</defs>
</svg>
