<svg width="122" height="70" viewBox="0 0 122 70" fill="none" xmlns="http://www.w3.org/2000/svg">
<g filter="url(#filter0_d_680_38)">
<path d="M27 51L38.547 31L15.453 31L27 51ZM25 11L25 33L29 33L29 11L25 11Z" fill="white"/>
</g>
<g filter="url(#filter1_d_680_38)">
<path d="M61 51L72.547 31L49.453 31L61 51ZM59 11L59 33L63 33L63 11L59 11Z" fill="white"/>
</g>
<g filter="url(#filter2_d_680_38)">
<path d="M95 51L106.547 31L83.453 31L95 51ZM93 11L93 33L97 33L97 11L93 11Z" fill="white"/>
</g>
<defs>
<filter id="filter0_d_680_38" x="0.453125" y="0" width="53.0938" height="70" filterUnits="userSpaceOnUse" color-interpolation-filters="sRGB">
<feFlood flood-opacity="0" result="BackgroundImageFix"/>
<feColorMatrix in="SourceAlpha" type="matrix" values="0 0 0 0 0 0 0 0 0 0 0 0 0 0 0 0 0 0 127 0" result="hardAlpha"/>
<feOffset dy="4"/>
<feGaussianBlur stdDeviation="7.5"/>
<feComposite in2="hardAlpha" operator="out"/>
<feColorMatrix type="matrix" values="0 0 0 0 1 0 0 0 0 0.917647 0 0 0 0 0.188235 0 0 0 1 0"/>
<feBlend mode="normal" in2="BackgroundImageFix" result="effect1_dropShadow_680_38"/>
<feBlend mode="normal" in="SourceGraphic" in2="effect1_dropShadow_680_38" result="shape"/>
</filter>
<filter id="filter1_d_680_38" x="34.4531" y="0" width="53.0938" height="70" filterUnits="userSpaceOnUse" color-interpolation-filters="sRGB">
<feFlood flood-opacity="0" result="BackgroundImageFix"/>
<feColorMatrix in="SourceAlpha" type="matrix" values="0 0 0 0 0 0 0 0 0 0 0 0 0 0 0 0 0 0 127 0" result="hardAlpha"/>
<feOffset dy="4"/>
<feGaussianBlur stdDeviation="7.5"/>
<feComposite in2="hardAlpha" operator="out"/>
<feColorMatrix type="matrix" values="0 0 0 0 1 0 0 0 0 0.917647 0 0 0 0 0.188235 0 0 0 1 0"/>
<feBlend mode="normal" in2="BackgroundImageFix" result="effect1_dropShadow_680_38"/>
<feBlend mode="normal" in="SourceGraphic" in2="effect1_dropShadow_680_38" result="shape"/>
</filter>
<filter id="filter2_d_680_38" x="68.4531" y="0" width="53.0938" height="70" filterUnits="userSpaceOnUse" color-interpolation-filters="sRGB">
<feFlood flood-opacity="0" result="BackgroundImageFix"/>
<feColorMatrix in="SourceAlpha" type="matrix" values="0 0 0 0 0 0 0 0 0 0 0 0 0 0 0 0 0 0 127 0" result="hardAlpha"/>
<feOffset dy="4"/>
<feGaussianBlur stdDeviation="7.5"/>
<feComposite in2="hardAlpha" operator="out"/>
<feColorMatrix type="matrix" values="0 0 0 0 1 0 0 0 0 0.917647 0 0 0 0 0.188235 0 0 0 1 0"/>
<feBlend mode="normal" in2="BackgroundImageFix" result="effect1_dropShadow_680_38"/>
<feBlend mode="normal" in="SourceGraphic" in2="effect1_dropShadow_680_38" result="shape"/>
</filter>
</defs>
</svg>
