<svg width="28" height="15" viewBox="0 0 28 15" fill="none" xmlns="http://www.w3.org/2000/svg">
<path d="M0.45948 13.2929C0.0689545 13.6834 0.0689545 14.3166 0.45948 14.7071C0.850004 15.0976 1.48317 15.0976 1.87369 14.7071L0.45948 13.2929ZM13.9999 1.16667L14.707 0.459559C14.5195 0.272023 14.2651 0.166666 13.9999 0.166666C13.7347 0.166666 13.4803 0.272023 13.2928 0.459559L13.9999 1.16667ZM26.1261 14.7071C26.5167 15.0976 27.1498 15.0976 27.5404 14.7071C27.9309 14.3166 27.9309 13.6834 27.5404 13.2929L26.1261 14.7071ZM1.87369 14.7071L14.707 1.87377L13.2928 0.459559L0.45948 13.2929L1.87369 14.7071ZM13.2928 1.87377L26.1261 14.7071L27.5404 13.2929L14.707 0.459559L13.2928 1.87377Z" fill="white"/>
</svg>
