<svg width="61" height="74" viewBox="0 0 61 74" fill="none" xmlns="http://www.w3.org/2000/svg">
<path d="M26.8832 70.4549L27.501 69.6686L27.501 69.6686L26.8832 70.4549ZM34.1174 70.4549L34.7353 71.2413L34.7353 71.2413L34.1174 70.4549ZM29.3815 71.9909L29.6423 71.0255L29.6423 71.0255L29.3815 71.9909ZM31.6179 71.9909L31.8787 72.9563L31.8787 72.9563L31.6179 71.9909ZM30.5 32.5417C26.4567 32.5417 23.25 29.4065 23.25 25.625H21.25C21.25 30.588 25.4306 34.5417 30.5 34.5417V32.5417ZM23.25 25.625C23.25 21.8435 26.4567 18.7083 30.5 18.7083V16.7083C25.4306 16.7083 21.25 20.662 21.25 25.625H23.25ZM30.5 18.7083C34.5433 18.7083 37.75 21.8435 37.75 25.625H39.75C39.75 20.662 35.5694 16.7083 30.5 16.7083V18.7083ZM37.75 25.625C37.75 29.4065 34.5433 32.5417 30.5 32.5417V34.5417C35.5694 34.5417 39.75 30.588 39.75 25.625H37.75ZM27.501 69.6686C23.6629 66.6529 17.4218 61.2217 12.1481 54.1857C6.86823 47.1414 2.625 38.5788 2.625 29.2789H0.625C0.625 39.1842 5.136 48.165 10.5478 55.3852C15.9657 62.6137 22.3538 68.1679 26.2653 71.2413L27.501 69.6686ZM2.625 29.2789C2.625 22.2936 5.54841 15.5829 10.7707 10.6267L9.3939 9.17601C3.78594 14.4982 0.625 21.7284 0.625 29.2789H2.625ZM10.7707 10.6267C15.9947 5.66882 23.0909 2.875 30.5002 2.875V0.875C22.5932 0.875 15.0001 3.85545 9.3939 9.17601L10.7707 10.6267ZM30.5002 2.875C37.9095 2.875 45.0053 5.66886 50.2293 10.6267L51.6061 9.17606C45.9999 3.85551 38.4071 0.875 30.5002 0.875V2.875ZM50.2293 10.6267C55.4516 15.5829 58.3748 22.2934 58.3748 29.2788H60.3748C60.3748 21.7283 57.2141 14.4983 51.6061 9.17606L50.2293 10.6267ZM58.3748 29.2788C58.3748 38.5786 54.1318 47.1414 48.8521 54.1856C43.5786 61.2216 37.3377 66.653 33.4996 69.6686L34.7353 71.2413C38.6468 68.1679 45.0347 62.6137 50.4525 55.3851C55.864 48.1649 60.3748 39.1841 60.3748 29.2788H58.3748ZM26.2653 71.2413C27.3374 72.0836 28.0574 72.669 29.1207 72.9563L29.6423 71.0255C29.0476 70.8649 28.6555 70.5758 27.501 69.6686L26.2653 71.2413ZM33.4996 69.6686C32.3457 70.5753 31.952 70.8648 31.357 71.0255L31.8787 72.9563C32.9418 72.6691 33.6626 72.084 34.7353 71.2413L33.4996 69.6686ZM29.1207 72.9563C29.9358 73.1765 31.0635 73.1765 31.8787 72.9563L31.357 71.0255C30.8835 71.1535 30.1158 71.1535 29.6423 71.0255L29.1207 72.9563Z" fill="white"/>
</svg>
