<svg width="76" height="53" viewBox="0 0 76 53" fill="none" xmlns="http://www.w3.org/2000/svg">
<path d="M2.14011 5.08365L3.00741 5.58143L2.14011 5.08365ZM5.70817 1.9152L6.1203 2.82633L5.70817 1.9152ZM5.70817 51.0847L6.1203 50.1736L6.1203 50.1736L5.70817 51.0847ZM2.14011 47.9166L1.27281 48.4144L1.27281 48.4144L2.14011 47.9166ZM73.8608 47.9166L72.9935 47.4188L73.8608 47.9166ZM70.2901 51.0847L69.878 50.1736L70.2901 51.0847ZM73.8608 5.08365L72.9935 5.58143L72.9935 5.58143L73.8608 5.08365ZM70.2901 1.9152L70.7023 1.00408L70.7023 1.00408L70.2901 1.9152ZM5.87674 3.91053C5.41311 3.61042 4.79398 3.74297 4.49386 4.20659C4.19375 4.67022 4.3263 5.28935 4.78993 5.58947L5.87674 3.91053ZM38.9333 26.5L38.3899 27.3395C38.7286 27.5587 39.1659 27.5529 39.4987 27.3248L38.9333 26.5ZM71.2318 5.57485C71.6873 5.26261 71.8035 4.6402 71.4913 4.18465C71.1791 3.72909 70.5566 3.61292 70.1011 3.92515L71.2318 5.57485ZM73.75 12.7248V40.2748H75.75V12.7248H73.75ZM61.6841 50.875H14.3175V52.875H61.6841V50.875ZM2.25 40.2748V12.7248H0.25V40.2748H2.25ZM14.3175 2.125H61.6841V0.125H14.3175V2.125ZM2.25 12.7248C2.25 10.6761 2.25099 9.20727 2.35706 8.05482C2.46168 6.91807 2.66239 6.18258 3.00741 5.58143L1.27281 4.58586C0.727728 5.53557 0.483377 6.59048 0.365473 7.87151C0.249015 9.13683 0.25 10.7132 0.25 12.7248H2.25ZM14.3175 0.125C12.0452 0.125 10.2872 0.124387 8.88044 0.226394C7.46507 0.329022 6.32304 0.539532 5.29604 1.00408L6.1203 2.82633C6.84025 2.50067 7.71598 2.31608 9.02508 2.22116C10.3427 2.12561 12.0159 2.125 14.3175 2.125V0.125ZM3.00741 5.58143C3.67825 4.41263 4.76065 3.44134 6.1203 2.82633L5.29604 1.00408C3.58238 1.77923 2.16791 3.02632 1.27281 4.58586L3.00741 5.58143ZM14.3175 50.875C12.0159 50.875 10.3428 50.8744 9.0251 50.7788C7.71601 50.6838 6.84026 50.4992 6.1203 50.1736L5.29604 51.9958C6.32302 52.4604 7.46504 52.6709 8.88042 52.7735C10.2872 52.8756 12.0452 52.875 14.3175 52.875V50.875ZM0.25 40.2748C0.25 42.2865 0.249015 43.863 0.365472 45.1284C0.483372 46.4096 0.727713 47.4647 1.27281 48.4144L3.00741 47.4188C2.6624 46.8177 2.46168 46.0821 2.35706 44.9451C2.25098 43.7925 2.25 42.3236 2.25 40.2748H0.25ZM6.1203 50.1736C4.76054 49.5585 3.67819 48.5875 3.00741 47.4188L1.27281 48.4144C2.16797 49.974 3.58249 51.2207 5.29604 51.9958L6.1203 50.1736ZM73.75 40.2748C73.75 42.3237 73.7492 43.7926 73.6434 44.9453C73.5389 46.0823 73.3384 46.8178 72.9935 47.4188L74.7281 48.4144C75.2732 47.4645 75.5173 46.4093 75.635 45.1282C75.7512 43.8629 75.75 42.2863 75.75 40.2748H73.75ZM61.6841 52.875C63.9564 52.875 65.7136 52.8756 67.1196 52.7735C68.5343 52.6709 69.6754 52.4603 70.7023 51.9958L69.878 50.1736C69.1579 50.4993 68.2829 50.6839 66.9748 50.7788C65.658 50.8744 63.9857 50.875 61.6841 50.875V52.875ZM72.9935 47.4188C72.323 48.5869 71.2385 49.5582 69.878 50.1736L70.7023 51.9958C72.4151 51.221 73.8326 49.9747 74.7281 48.4144L72.9935 47.4188ZM75.75 12.7248C75.75 10.7133 75.7512 9.13694 75.635 7.87169C75.5173 6.59072 75.2732 5.5357 74.7281 4.58586L72.9935 5.58143C73.3384 6.18246 73.5389 6.91784 73.6434 8.05464C73.7492 9.20717 73.75 10.676 73.75 12.7248H75.75ZM61.6841 2.125C63.9857 2.125 65.658 2.12561 66.9748 2.22115C68.283 2.31606 69.158 2.50062 69.878 2.82633L70.7023 1.00408C69.6754 0.539579 68.5342 0.329038 67.1196 0.226397C65.7135 0.124386 63.9563 0.125 61.6841 0.125V2.125ZM74.7281 4.58586C73.8326 3.0257 72.4152 1.77891 70.7023 1.00408L69.878 2.82633C71.2384 3.44166 72.323 4.41325 72.9935 5.58143L74.7281 4.58586ZM4.78993 5.58947L38.3899 27.3395L39.4767 25.6605L5.87674 3.91053L4.78993 5.58947ZM39.4987 27.3248L71.2318 5.57485L70.1011 3.92515L38.368 25.6752L39.4987 27.3248Z" fill="white"/>
</svg>
