<svg width="188" height="117" viewBox="0 0 188 117" fill="none" xmlns="http://www.w3.org/2000/svg">
<g clip-path="url(#clip0_1_1511)">
<path d="M180.48 0.914062H7.51994C3.88591 0.914062 0.939941 3.77874 0.939941 7.3125V109.688C0.939941 113.221 3.88591 116.086 7.51994 116.086H180.48C184.114 116.086 187.06 113.221 187.06 109.688V7.3125C187.06 3.77874 184.114 0.914062 180.48 0.914062Z" stroke="white" stroke-opacity="0.1" stroke-width="0.5"/>
<path opacity="0.2" d="M91.0924 84.5063C91.3481 84.7187 91.6248 84.9311 91.8967 85.1381C86.4973 88.6232 80.1598 90.4795 73.6795 90.4733C69.36 90.4766 65.0818 89.6521 61.0902 88.0466C57.099 86.4412 53.4721 84.0862 50.4171 81.1165C47.3621 78.1469 44.9391 74.6209 43.287 70.7397C41.6345 66.859 40.7851 62.6993 40.7874 58.499C40.7866 52.7141 42.3996 47.037 45.4543 42.0729C48.5093 37.1085 52.8912 33.043 58.1341 30.3089C63.3771 27.5749 69.2844 26.2747 75.2271 26.5469C81.1698 26.8191 86.9252 28.6535 91.8805 31.8548C91.6143 32.0775 91.3481 32.2795 91.1454 32.5074C87.3061 35.7313 84.2251 39.7216 82.1131 44.2063C80.0008 48.6915 78.9066 53.566 78.9047 58.499C78.9047 68.4699 83.3419 77.9488 91.0924 84.5063ZM114.322 26.5197C107.847 26.5074 101.514 28.3642 96.1259 31.8548C96.3868 32.0775 96.6534 32.2795 96.8557 32.5074C104.643 39.0492 109.102 48.5335 109.102 58.499C109.102 68.4648 104.654 77.9385 96.9144 84.5063C96.6534 84.7187 96.3763 84.9311 96.1101 85.1381C101.505 88.6243 107.839 90.4806 114.316 90.4733C118.67 90.5274 122.991 89.7406 127.03 88.1581C131.068 86.5757 134.743 84.2291 137.842 81.2548C140.94 78.28 143.401 74.7371 145.08 70.8308C146.759 66.9244 147.624 62.7329 147.624 58.499C147.625 54.2654 146.761 50.0735 145.082 46.1668C143.403 42.2605 140.944 38.7168 137.846 35.742C134.747 32.7671 131.073 30.42 127.035 28.8369C122.997 27.2538 118.675 26.4661 114.322 26.5197ZM94.0008 33.3776C90.0843 36.3635 86.9192 40.1775 84.7448 44.5303C82.5704 48.8827 81.4439 53.6599 81.451 58.499C81.4405 63.341 82.5655 68.1215 84.7403 72.4772C86.9147 76.8329 90.0817 80.6493 94.0008 83.6361C97.9183 80.6478 101.085 76.8314 103.26 72.4761C105.436 68.1208 106.563 63.341 106.555 58.499C106.563 53.6596 105.436 48.882 103.261 44.5288C101.085 40.1761 97.9183 36.3624 94.0008 33.3776Z" fill="white"/>
</g>
<defs>
<clipPath id="clip0_1_1511">
<rect width="188" height="117" fill="white"/>
</clipPath>
</defs>
</svg>
