<svg width="119" height="89" viewBox="0 0 119 89" fill="none" xmlns="http://www.w3.org/2000/svg">
<path d="M114.237 62.8542H114.989C115.662 62.8555 116.286 62.4533 116.623 61.7999C116.96 61.1471 116.96 60.3413 116.623 59.6885L109.265 45.4241C108.928 44.7713 108.305 44.3678 107.631 44.3678C106.957 44.3678 106.334 44.7713 105.997 45.4241L98.6382 59.6905C98.3008 60.3433 98.3019 61.1484 98.6388 61.8012C98.9763 62.4533 99.5985 62.8555 100.272 62.8542H101.024L96.5158 71.5984C96.1789 72.2485 96.1789 73.051 96.5175 73.6998C96.8556 74.3499 97.4784 74.7462 98.1498 74.7389H105.743V84.774H91.304L91.288 50.0802C91.288 50.0285 91.2845 49.9774 91.2809 49.9284C91.3076 49.3863 91.1471 48.8542 90.8328 48.442L66.4205 16.5791C66.0612 16.1129 65.5378 15.8446 64.9872 15.8457L47.938 15.8477V15.8797C47.4099 15.9168 46.915 16.1851 46.5611 16.6266L39.1097 26.5157L34.9613 18.4866H35.7134C36.3871 18.4876 37.0102 18.0853 37.3474 17.4323C37.6848 16.7793 37.6848 15.9736 37.3474 15.3206L29.99 1.0564C29.6527 0.403381 29.0297 0 28.355 0C27.6814 0 27.0583 0.403381 26.721 1.0564L19.3627 15.3216C19.0254 15.9746 19.0254 16.7793 19.3627 17.4323C19.7 18.0864 20.323 18.4876 20.9967 18.4866H21.7488L17.2392 27.2306C16.9028 27.8805 16.9037 28.6831 17.242 29.333C17.5793 29.9819 18.2023 30.3781 18.8742 30.3709H25.9956V43.9953L22.8538 48.1424C22.5902 48.3837 22.3985 48.7077 22.3027 49.0729C22.1911 49.3452 22.1322 49.6395 22.1303 49.9383C22.1303 49.9953 22.1303 50.051 22.1358 50.1067C22.1091 50.4731 22.0972 50.878 22.0861 51.3293C22.0612 52.3134 22.0419 53.7455 22.0308 55.5845C22.0123 58.6653 22.0123 62.9443 22.0308 68.3055C22.0345 69.2982 22.0391 70.2902 22.0428 71.2743L17.9737 63.3824H18.7258C19.3995 63.3837 20.0225 62.9814 20.3599 62.328C20.6972 61.6753 20.6972 60.8694 20.3599 60.2167L13.0025 45.9523C12.6651 45.2995 12.0421 44.8959 11.3675 44.8959C10.6937 44.8959 10.0707 45.2995 9.7334 45.9523L2.37506 60.2173C2.03774 60.8708 2.03774 61.6753 2.37506 62.328C2.71238 62.9821 3.3354 63.3837 4.00912 63.3824H4.76117L0.251609 72.1266C-0.0847887 72.7767 -0.0838669 73.5792 0.254373 74.2293C0.591692 74.8781 1.21472 75.2743 1.88659 75.2671H9.00809V84.774H6.13165C5.08928 84.774 4.24414 85.7203 4.24414 86.8867C4.24414 88.0537 5.08928 89 6.13165 89H112.776C113.818 89 114.664 88.0537 114.664 86.8867C114.664 85.7203 113.818 84.774 112.776 84.774H109.518V74.7389H117.112C117.784 74.7462 118.409 74.3479 118.747 73.6965C119.084 73.0457 119.084 72.2419 118.746 71.5911L114.237 62.8542ZM73.8128 51.939L87.5138 51.9317L87.5286 84.774H73.8276L73.8128 51.939ZM85.2972 47.7064L72.8755 47.7137L52.031 20.0712L64.1199 20.065L85.2972 47.7064ZM47.9915 21.2648L68.0001 47.7978L28.0067 47.8217L47.9915 21.2648ZM26.6528 15.3196C26.3155 14.6655 25.6925 14.2621 25.0178 14.2611H24.2667L28.355 6.33413L32.4443 14.2611H31.6932C31.0186 14.2621 30.3946 14.6655 30.0582 15.3196C29.7209 15.9684 29.7209 16.77 30.0582 17.4178L34.5669 26.1453H28.1514C28.0491 26.1453 27.9449 26.1144 27.838 26.1144C27.7311 26.1144 27.627 26.1453 27.5247 26.1453H22.1432L26.6519 17.4178C26.9892 16.77 26.9892 15.9684 26.6528 15.3196ZM29.7707 30.3709H36.1798L29.7707 38.9807V30.3709ZM9.66519 60.2154C9.32791 59.5613 8.70484 59.1584 8.03021 59.157H7.27909L11.3675 51.2299L15.4568 59.157H14.7057C14.031 59.1584 13.4071 59.5613 13.0707 60.2154C12.7333 60.8641 12.7333 61.666 13.0707 62.3141L17.5793 71.0411H11.1638C11.0615 71.0411 10.9573 71.0106 10.8504 71.0106C10.7435 71.0106 10.6375 71.0411 10.5371 71.0411H5.15563L9.6643 62.3141C10.0016 61.666 10.0016 60.8641 9.66519 60.2154ZM12.7831 75.2671H20.8493C21.2916 75.2717 21.7211 75.1007 22.0612 74.784C22.0852 78.9536 22.1101 82.6614 22.1267 84.774H12.7831V75.2671ZM47.938 60.4778C46.8956 60.4778 46.0505 61.4234 46.0505 62.5904V84.774H25.9017C25.8123 73.4181 25.7404 57.5798 25.8418 52.049L70.0379 52.0225L70.0527 84.774H49.8255V62.5904C49.8255 61.4234 48.9804 60.4778 47.938 60.4778ZM101.418 70.5129L105.927 61.7866C106.265 61.1345 106.265 60.33 105.927 59.6779C105.59 59.0258 104.966 58.6256 104.293 58.6289H103.542L107.631 50.7018L111.72 58.6289H110.969C110.294 58.6302 109.67 59.0331 109.333 59.6872C108.997 60.336 108.997 61.1378 109.333 61.7859L113.842 70.5129H101.418Z" fill="#B18C57"/>
</svg>
