<svg width="104" height="101" viewBox="0 0 104 101" fill="none" xmlns="http://www.w3.org/2000/svg">
<path d="M17.875 82.0622C20.3468 82.0622 22.7538 81.5411 24.9844 80.5385V97.055H8.73438C7.61273 97.055 6.70312 97.9379 6.70312 99.0275C6.70312 100.117 7.61273 101 8.73438 101H95.2653C96.3872 101 97.2965 100.117 97.2965 99.0275C97.2965 97.9379 96.3872 97.055 95.2653 97.055H79.0153V80.5385C81.2461 81.5411 83.653 82.0622 86.125 82.0622C95.8145 82.0622 104 74.3842 104 65.2948C104 58.0462 98.577 51.4044 91.1443 49.2497C90.7133 44.6884 87.9495 40.6113 83.852 38.4086C84.6859 36.2286 85.109 33.9342 85.109 31.5625C85.109 29.9355 84.9043 28.3187 84.4987 26.7565C84.225 25.7 83.12 25.059 82.0332 25.3252C80.9458 25.5911 80.2854 26.6632 80.5597 27.7197C80.8828 28.9673 81.0465 30.2599 81.0465 31.5625C81.0465 33.4525 80.7118 35.2796 80.0514 37.0149C79.0485 36.8005 78.0227 36.6914 76.984 36.6914C69.5773 36.6914 63.4757 42.2192 62.8231 49.2501C59.3307 50.2629 56.2822 52.2665 54.0312 54.8584V38.726L65.6701 33.3434C66.6828 32.8749 67.1132 31.6978 66.6309 30.7142C66.1486 29.7305 64.9363 29.3129 63.9236 29.7814L54.0312 34.3562V19.7266C54.0312 18.637 53.1219 17.7539 52 17.7539C50.8784 17.7539 49.9688 18.637 49.9688 19.7266V28.4382L40.0766 23.8634C39.0634 23.3953 37.8515 23.8125 37.3693 24.7963C36.8869 25.7799 37.3169 26.9572 38.3299 27.4254L49.9689 32.808V54.8584C47.7181 52.2665 44.6696 50.2629 41.1769 49.2501C40.5244 42.2192 34.4224 36.6914 27.0156 36.6914C25.9772 36.6914 24.9515 36.8005 23.9489 37.0149C23.2885 35.2798 22.9531 33.4525 22.9531 31.5625C22.9531 23.7504 28.7522 17.2184 36.7418 16.0308C37.597 15.9038 38.2754 15.2646 38.4323 14.4382C39.5484 8.55443 45.5081 3.94529 52 3.94529C58.4915 3.94529 64.4514 8.55443 65.5675 14.4382C65.7247 15.2644 66.4027 15.9038 67.2581 16.0308C68.0888 16.1542 68.9156 16.3417 69.7164 16.5875C70.7856 16.9165 71.927 16.3409 72.2657 15.3021C72.6043 14.2635 72.0115 13.1549 70.9423 12.8262C70.3846 12.655 69.8178 12.5065 69.2445 12.382C67.1989 5.23521 60.0333 0 52 0C43.9666 0 36.8008 5.23541 34.7555 12.382C25.5694 14.3828 18.8906 22.2717 18.8906 31.5625C18.8906 33.9342 19.3142 36.2286 20.148 38.4084C16.0505 40.6111 13.2862 44.6881 12.8558 49.2497C5.42282 51.4044 0 58.0462 0 65.2948C0 74.3842 8.18571 82.0622 17.875 82.0622ZM29.0469 80.5385C31.2774 81.5411 33.6844 82.0622 36.1562 82.0622C41.6502 82.0622 46.6597 79.5933 49.9688 75.7988V97.055H29.0469V80.5385ZM54.0312 97.055V75.7988C57.3404 79.5933 62.3499 82.0622 67.8438 82.0622C70.3157 82.0622 72.7226 81.5411 74.9528 80.5385V97.055H54.0312ZM65.2275 52.73C66.2103 52.5381 67.0072 51.6545 66.8285 50.4118C66.8779 45.0136 71.4148 40.6367 76.984 40.6367C82.5942 40.6367 87.0909 45.0497 87.1403 50.4118C86.9628 51.6458 87.7487 52.536 88.7412 52.73C95.1242 53.9748 99.9375 59.3766 99.9375 65.2948C99.9375 72.2451 93.6117 78.1171 86.125 78.1171C83.6056 78.1171 81.1674 77.4008 79.0153 76.039V69.4733L90.0803 64.1002C91.0839 63.6133 91.4901 62.428 90.9889 61.4535C90.4871 60.4789 89.2658 60.0836 88.2635 60.5712L79.0153 65.0621C79.0153 63.4012 79.0153 53.0303 79.0153 50.5C79.0153 49.4105 78.1059 48.5274 76.984 48.5274C75.8628 48.5274 74.9528 49.4105 74.9528 50.5V57.5733L72.3268 55.0229C71.5338 54.2531 70.2474 54.2531 69.4544 55.0229C68.6608 55.7935 68.6608 57.0423 69.4544 57.8128L74.9528 63.1531V76.039C72.8013 77.4008 70.3631 78.1171 67.8438 78.1171C60.357 78.1171 54.0312 72.2451 54.0312 65.2948C54.0312 59.3766 58.8445 53.9748 65.2275 52.73ZM15.2587 52.73C16.2404 52.5381 17.0385 51.6565 16.8598 50.4118C16.9094 45.0495 21.4009 40.6367 27.0156 40.6367C32.5853 40.6367 37.1223 45.0136 37.1715 50.4118C36.9939 51.6471 37.7823 52.5367 38.7725 52.73C45.1555 53.9748 49.9688 59.3766 49.9688 65.2948C49.9688 72.2451 43.6432 78.1171 36.1562 78.1171C33.6371 78.1171 31.1988 77.4008 29.0469 76.039V74.9888L34.5457 69.6492C35.3389 68.8787 35.3389 67.6299 34.5457 66.8593C33.7523 66.0888 32.4665 66.0888 31.6729 66.8593L29.0469 69.4091V56.4182C29.0469 55.3286 28.1373 54.445 27.0156 54.445C25.894 54.445 24.9844 55.3286 24.9844 56.4182V65.0621L15.7365 60.5719C14.733 60.0843 13.5131 60.4796 13.0114 61.4535C12.5096 62.428 12.9163 63.6133 13.9199 64.1002L24.9844 69.4733V76.0383C22.8325 77.4008 20.3941 78.1171 17.875 78.1171C10.388 78.1171 4.0625 72.2451 4.0625 65.2948C4.0625 59.3766 8.87575 53.9748 15.2587 52.73Z" fill="#B18C57"/>
</svg>
