<svg width="93" height="89" viewBox="0 0 93 89" fill="none" xmlns="http://www.w3.org/2000/svg">
<path d="M92.2019 42.6563L48.4266 0.763715C47.3627 -0.254572 45.6375 -0.254572 44.5734 0.763715L0.798097 42.6563C0.0188595 43.4021 -0.214185 44.5236 0.207402 45.4979C0.629353 46.472 1.62274 47.1074 2.72476 47.1074H11.6735V86.3926C11.6735 87.8326 12.8933 89 14.3981 89H78.6018C80.1065 89 81.3264 87.8326 81.3264 86.3926V47.1074H90.2754C91.3774 47.1074 92.3708 46.472 92.7926 45.4977C93.2142 44.5234 92.9811 43.4021 92.2019 42.6563ZM78.6021 41.8925C77.0974 41.8925 75.8775 43.06 75.8775 44.5V83.7851H17.1228V44.5C17.1228 43.06 15.9029 41.8925 14.3982 41.8925H9.3025L46.5001 6.29493L83.6977 41.8925H78.6021Z" fill="#B18C57"/>
<path d="M29.1834 55.6715V68.5556L24.1447 73.3776C23.0807 74.3959 23.0807 76.0468 24.1447 77.0651C25.2086 78.0833 26.9338 78.0833 27.9979 77.0651L33.0366 72.2431H46.4997C56.0479 72.2431 63.8161 64.8091 63.8161 55.6715V41.7073C63.8161 40.2673 62.5962 39.0999 61.0915 39.0999H46.4997C36.9516 39.0999 29.1834 46.5339 29.1834 55.6715ZM58.3669 55.6715C58.3669 61.9436 53.0537 67.0282 46.4997 67.0282L38.4858 67.0284L48.4264 57.5153C49.4905 56.497 49.4905 54.8461 48.4264 53.8279C47.3625 52.8096 45.6373 52.8096 44.5733 53.8279L34.6326 63.3408V55.6715C34.6326 49.3994 39.9458 44.3148 46.4997 44.3148H58.3669V55.6715Z" fill="#B18C57"/>
</svg>
