<svg width="104" height="78" viewBox="0 0 104 78" fill="none" xmlns="http://www.w3.org/2000/svg">
<path d="M44.3439 59.0169C40.1127 63.3616 40.1118 70.3948 44.3439 74.7401C51.1083 81.6865 62.8276 76.8155 62.8276 66.8784C62.8274 57.0721 51.194 51.9823 44.3439 59.0169ZM52.0001 71.1067C49.7246 71.1067 47.8823 69.2158 47.8823 66.8784C47.8823 63.0971 52.3425 61.2505 54.9116 63.8884C57.4801 66.5264 55.6843 71.1067 52.0001 71.1067ZM102.716 30.4894C101.259 31.6636 99.1498 31.403 98.0059 29.9061C74.5599 -0.771814 29.4551 -0.787088 5.99407 29.9061C4.85052 31.4023 2.74239 31.6646 1.28367 30.4894C-0.173804 29.3148 -0.428082 27.1491 0.715996 25.6526C26.8645 -8.55883 77.1489 -8.5429 103.284 25.6526C104.428 27.1491 104.174 29.315 102.716 30.4894ZM89.3811 35.643C90.552 37.1174 90.3378 39.2872 88.9019 40.4898C87.4663 41.6925 85.353 41.4723 84.1817 39.998C67.4605 18.949 36.1293 19.1149 19.6032 40.2714C18.445 41.7545 16.3339 41.9946 14.8871 40.8035C13.4417 39.613 13.2097 37.4447 14.3691 35.9607C33.6257 11.3076 69.9581 11.1953 89.3811 35.643ZM73.3944 44.91C74.7045 46.2552 74.7045 48.4364 73.3944 49.7817C72.0847 51.1267 69.9606 51.1273 68.6502 49.7817C59.4482 40.3325 44.5537 40.3312 35.3505 49.7817C34.0403 51.1269 31.9163 51.1269 30.6063 49.7817C29.2959 48.4364 29.2959 46.2552 30.6063 44.91C42.4297 32.7685 61.5687 32.7667 73.3944 44.91Z" fill="#B18C57"/>
</svg>
