<svg width="85" height="86" viewBox="0 0 85 86" fill="none" xmlns="http://www.w3.org/2000/svg">
<path d="M78.7489 25.9518H53.1883C52.0976 22.2539 49.8481 19.3161 46.9755 17.923C46.753 17.8151 46.5282 17.7172 46.301 17.629C46.0588 12.1871 43.369 7.31101 39.3905 5.38155C37.4266 4.42896 35.3117 4.2639 33.2992 4.88305C31.9095 1.89775 29.4087 0 26.6692 0C23.997 0 21.576 1.76317 20.1629 4.61976C19.6062 4.47797 19.0384 4.40654 18.4642 4.40654C13.5725 4.40654 9.59272 9.62713 9.59272 16.044C9.59272 16.3534 9.60205 16.6624 9.62064 16.9702C7.58362 18.1153 5.98108 20.3006 5.1938 23.0939C4.91108 24.0967 4.74544 25.1482 4.69958 26.2077C2.00067 27.1151 0 30.3328 0 34.1517V34.2035C0 38.0386 2.01729 41.2668 4.73283 42.1588V49.1014C4.73283 61.3237 10.3033 71.8714 18.2887 76.6049C18.1934 77.1591 18.1448 77.7281 18.1448 78.302C18.1448 82.5471 20.7773 86 24.0133 86C27.0009 86 29.4743 83.0564 29.8361 79.264H55.164C55.5263 83.0564 57.9995 86 60.987 86C64.2225 86 66.8554 82.5471 66.8554 78.302C66.8554 77.7281 66.8063 77.1591 66.7113 76.6049C74.6971 71.8714 80.2671 61.3237 80.2671 49.1014V42.1588C82.9831 41.2668 85 38.0386 85 34.2035V34.1517C85 29.6303 82.1962 25.9518 78.7489 25.9518ZM8.30782 24.6042C8.88587 22.5527 10.2062 21.0535 11.8393 20.5938C12.2829 20.469 12.6683 20.1114 12.9058 19.6042C13.1432 19.097 13.2121 18.4844 13.0962 17.9088C12.9745 17.3036 12.9128 16.6759 12.9128 16.0437C12.9128 12.0286 15.403 8.76188 18.4639 8.76188C19.1384 8.76188 19.7971 8.91846 20.4215 9.22707C21.2654 9.64459 22.209 9.10141 22.5465 8.00426C23.2284 5.78769 24.8465 4.3554 26.6689 4.3554C28.55 4.3554 30.2343 5.91747 30.8601 8.24272C31.0104 8.80069 31.3272 9.25446 31.7377 9.49971C32.1483 9.74469 32.6173 9.76017 33.0366 9.54263C34.7059 8.67604 36.5535 8.64908 38.239 9.46661C41.2891 10.9458 43.2368 14.9446 42.9751 19.1908C42.9049 20.3309 43.5192 21.3481 44.3814 21.5194C44.87 21.6165 45.3555 21.7809 45.8244 22.0082C47.3695 22.7579 48.6528 24.1586 49.4965 25.9516H8.05093C8.09877 25.4936 8.18458 25.0415 8.30782 24.6042ZM24.0133 81.6449C22.6083 81.6449 21.4651 80.1459 21.4651 78.3025C21.4651 78.246 21.4661 78.1894 21.4684 78.1333C23.0944 78.736 24.7656 79.099 26.4639 79.2197C26.1592 80.6183 25.1759 81.6449 24.0133 81.6449ZM60.987 81.6449C59.8245 81.6449 58.8415 80.6183 58.5365 79.2197C60.2347 79.099 61.906 78.736 63.5319 78.1333C63.5343 78.1894 63.5349 78.246 63.5349 78.3025C63.5349 80.1459 62.3916 81.6449 60.987 81.6449ZM57.7825 74.8998C57.7813 74.8998 57.7795 74.8998 57.7789 74.8998C57.7406 74.9014 57.7029 74.9025 57.6653 74.903C57.6581 74.9036 57.6503 74.9036 57.6431 74.9041C57.6115 74.9046 57.5798 74.9052 57.5487 74.9057C57.5373 74.9062 57.5259 74.9062 57.5146 74.9068C57.4859 74.9068 57.4566 74.9073 57.4279 74.9079C57.4159 74.9079 57.4052 74.9079 57.3932 74.9079C57.3537 74.9084 57.3137 74.9084 57.2742 74.9084H27.726C27.6864 74.9084 27.6468 74.9084 27.607 74.9079C27.5956 74.9079 27.5841 74.9079 27.5727 74.9079C27.5438 74.9073 27.5147 74.9068 27.4858 74.9068C27.4744 74.9062 27.4631 74.9062 27.4516 74.9057C27.4202 74.9052 27.3888 74.9046 27.3575 74.9041C27.3502 74.9036 27.3427 74.9036 27.3354 74.903C27.2976 74.9025 27.2597 74.9014 27.2219 74.8998C27.2206 74.8998 27.2192 74.8998 27.2181 74.8998C16.6043 74.5448 8.05332 63.1089 8.05332 49.1014V48.5751H56.0986C57.0159 48.5751 57.7586 47.5997 57.7586 46.397C57.7586 45.1943 57.0159 44.2195 56.0986 44.2195H8.05308V42.4033H76.9466V49.1014H76.9472C76.9472 63.1089 68.3957 74.5454 57.7825 74.8998ZM81.6801 34.2035C81.6801 36.3234 80.3652 38.0482 78.7489 38.0482H6.251C4.635 38.0482 3.32032 36.3234 3.32032 34.2035V34.1517C3.32032 32.0319 4.635 30.3073 6.251 30.3073H78.7489C80.3652 30.3073 81.6801 32.0319 81.6801 34.1517V34.2035Z" fill="#B18C57"/>
</svg>
