<svg width="188" height="117" viewBox="0 0 188 117" fill="none" xmlns="http://www.w3.org/2000/svg">
<g clip-path="url(#clip0_1_1514)">
<path d="M180.48 0.914062H7.51994C3.88591 0.914062 0.939941 3.77874 0.939941 7.3125V109.688C0.939941 113.221 3.88591 116.086 7.51994 116.086H180.48C184.114 116.086 187.06 113.221 187.06 109.688V7.3125C187.06 3.77874 184.114 0.914062 180.48 0.914062Z" stroke="white" stroke-opacity="0.1" stroke-width="0.5"/>
<path opacity="0.2" d="M126.706 38.7792C123.356 37.5921 119.815 36.9964 116.249 37.0202C104.718 37.0202 96.5749 42.6684 96.5174 50.7765C96.4452 56.7333 102.304 60.0901 106.736 62.0802C111.284 64.1266 112.804 65.4158 112.79 67.245C112.761 70.027 109.158 71.2884 105.806 71.2884C101.202 71.2884 98.6865 70.6647 94.8164 69.102L93.3823 68.4501L91.7463 77.7845C94.5498 78.9197 99.6017 79.8941 104.819 79.9782C117.078 79.9782 125.092 74.3648 125.186 65.7382C125.286 60.98 122.115 57.3848 115.442 54.4137C111.384 52.4865 108.869 51.197 108.869 49.242C108.869 47.5107 111.024 45.6607 115.528 45.6607C118.526 45.5901 121.505 46.1371 124.27 47.2658L125.351 47.7352L126.987 38.716L126.706 38.7792ZM156.628 37.7771H147.62C144.816 37.7771 142.705 38.527 141.48 41.2318L124.155 79.3965H136.413L138.864 73.1385L153.825 73.1524C154.178 74.6171 155.259 79.3965 155.259 79.3965H166.069L156.628 37.7771ZM79.9347 37.4268H91.6166L84.3091 79.0671H72.6414L79.9347 37.4125V37.4268ZM50.2792 60.3771L51.4899 66.1587L62.9053 37.7771H75.279L56.8949 79.3402H44.5501L34.4606 44.147C34.2972 43.5667 33.9135 43.0684 33.3869 42.7525C29.7504 40.9258 25.8973 39.5397 21.9138 38.6249L22.0724 37.7489H40.8747C43.4258 37.8473 45.4795 38.6249 46.1642 41.2739L50.272 60.3983V60.3771H50.2792ZM142.215 64.6238L146.87 52.9768C146.813 53.103 147.829 50.5732 148.42 49.0105L149.22 52.6057L151.922 64.6169H142.207V64.6238H142.215Z" fill="white"/>
</g>
<defs>
<clipPath id="clip0_1_1514">
<rect width="188" height="117" fill="white"/>
</clipPath>
</defs>
</svg>
