<svg width="53" height="237" viewBox="0 0 53 237" fill="none" xmlns="http://www.w3.org/2000/svg">
<mask id="mask0_14_316" style="mask-type:alpha" maskUnits="userSpaceOnUse" x="0" y="0" width="53" height="237">
<path d="M0 11.45L26.0441 0.230957L52.0883 11.45V226.214L26.0441 236.231L0 226.214V11.45Z" fill="#05030E"/>
</mask>
<g mask="url(#mask0_14_316)">
<path d="M0 109.689L26.0441 98.4697L52.0883 109.689V324.453L26.0441 334.47L0 324.453V109.689Z" fill="#D5AB32"/>
<g opacity="0.25">
<path d="M0 88.8535L26.0441 77.6345L52.0883 88.8535V303.618L26.0441 313.635L0 303.618V88.8535Z" fill="#DC9839" fill-opacity="0.6"/>
<mask id="mask1_14_316" style="mask-type:alpha" maskUnits="userSpaceOnUse" x="0" y="77" width="53" height="237">
<path d="M0 88.8535L26.0441 77.6345L52.0883 88.8535V303.618L26.0441 313.635L0 303.618V88.8535Z" fill="#7EE8A0"/>
</mask>
<g mask="url(#mask1_14_316)">
<path d="M-18.4313 81.6414L26.4448 98.8706V314.035L-11.219 299.611L-18.4313 81.6414Z" fill="#DC9839" fill-opacity="0.6"/>
</g>
</g>
<g opacity="0.5">
<path d="M0 97.6685L26.0441 86.4495L52.0883 97.6685V312.432L26.0441 322.449L0 312.432V97.6685Z" fill="#DC9839" fill-opacity="0.6"/>
<mask id="mask2_14_316" style="mask-type:alpha" maskUnits="userSpaceOnUse" x="0" y="86" width="53" height="237">
<path d="M0 97.6685L26.0441 86.4495L52.0883 97.6685V312.432L26.0441 322.449L0 312.432V97.6685Z" fill="#7EE8A0"/>
</mask>
<g mask="url(#mask2_14_316)">
<path d="M-18.4313 90.4563L26.4448 107.685V322.85L-11.219 308.426L-18.4313 90.4563Z" fill="#DC9839" fill-opacity="0.6"/>
</g>
</g>
</g>
<mask id="mask3_14_316" style="mask-type:alpha" maskUnits="userSpaceOnUse" x="0" y="0" width="53" height="237">
<path d="M0 11.45L26.0441 0.230957L52.0883 11.45V226.214L26.0441 236.231L0 226.214V11.45Z" fill="#7EE8A0"/>
</mask>
<g mask="url(#mask3_14_316)">
<path d="M-18.4312 104.808L26.4448 122.037V337.202L-11.219 322.778L-18.4312 104.808Z" fill="#BF8C44" fill-opacity="0.6"/>
</g>
</svg>
