<svg width="53" height="237" viewBox="0 0 53 237" fill="none" xmlns="http://www.w3.org/2000/svg">
<mask id="mask0_14_353" style="mask-type:alpha" maskUnits="userSpaceOnUse" x="0" y="0" width="53" height="237">
<path d="M0 11.45L26.0441 0.230957L52.0883 11.45V226.214L26.0441 236.231L0 226.214V11.45Z" fill="#05030E"/>
</mask>
<g mask="url(#mask0_14_353)">
<path d="M0 82.6887L26.0441 71.4697L52.0883 82.6887V297.453L26.0441 307.47L0 297.453V82.6887Z" fill="#D5AB32"/>
<g opacity="0.25">
<path d="M0 61.8535L26.0441 50.6345L52.0883 61.8535V276.618L26.0441 286.635L0 276.618V61.8535Z" fill="#DC9839" fill-opacity="0.6"/>
<mask id="mask1_14_353" style="mask-type:alpha" maskUnits="userSpaceOnUse" x="0" y="50" width="53" height="237">
<path d="M0 61.8535L26.0441 50.6345L52.0883 61.8535V276.618L26.0441 286.635L0 276.618V61.8535Z" fill="#7EE8A0"/>
</mask>
<g mask="url(#mask1_14_353)">
<path d="M-18.4313 54.6414L26.4448 71.8706V287.035L-11.219 272.611L-18.4313 54.6414Z" fill="#DC9839" fill-opacity="0.6"/>
</g>
</g>
<g opacity="0.5">
<path d="M0 70.6685L26.0441 59.4495L52.0883 70.6685V285.432L26.0441 295.449L0 285.432V70.6685Z" fill="#DC9839" fill-opacity="0.6"/>
<mask id="mask2_14_353" style="mask-type:alpha" maskUnits="userSpaceOnUse" x="0" y="59" width="53" height="237">
<path d="M0 70.6685L26.0441 59.4495L52.0883 70.6685V285.432L26.0441 295.449L0 285.432V70.6685Z" fill="#7EE8A0"/>
</mask>
<g mask="url(#mask2_14_353)">
<path d="M-18.4313 63.4563L26.4448 80.6855V295.85L-11.219 281.426L-18.4313 63.4563Z" fill="#DC9839" fill-opacity="0.6"/>
</g>
</g>
</g>
<mask id="mask3_14_353" style="mask-type:alpha" maskUnits="userSpaceOnUse" x="0" y="0" width="53" height="237">
<path d="M0 11.45L26.0441 0.230957L52.0883 11.45V226.214L26.0441 236.231L0 226.214V11.45Z" fill="#7EE8A0"/>
</mask>
<g mask="url(#mask3_14_353)">
<path d="M-18.4312 77.8081L26.4448 95.0373V310.202L-11.219 295.778L-18.4312 77.8081Z" fill="#BF8C44" fill-opacity="0.6"/>
</g>
</svg>
