<?xml version="1.0" standalone="no"?>
<!DOCTYPE svg PUBLIC "-//W3C//DTD SVG 20010904//EN"
 "http://www.w3.org/TR/2001/REC-SVG-20010904/DTD/svg10.dtd">
<svg version="1.0" xmlns="http://www.w3.org/2000/svg"
 width="1216.000000pt" height="1216.000000pt" viewBox="0 0 1216.000000 1216.000000"
 preserveAspectRatio="xMidYMid meet">
<metadata>
Created by potrace 1.14, written by Peter Selinger 2001-2017
</metadata>
<g transform="translate(0.000000,1216.000000) scale(0.100000,-0.100000)"
fill="#000000" stroke="none">
<path d="M5377 11399 l-757 -760 2106 -2107 c1159 -1159 2123 -2129 2144
-2157 69 -93 95 -178 93 -305 -1 -108 -22 -177 -79 -265 -19 -28 -964 -982
-2144 -2162 -1160 -1162 -2110 -2117 -2110 -2123 0 -5 340 -350 755 -765 l755
-755 1182 1183 c651 650 1208 1212 1238 1247 30 36 57 67 60 70 3 3 18 23 35
45 16 22 35 46 41 52 7 7 22 29 35 50 13 21 26 40 29 43 11 9 80 125 108 180
9 19 20 37 23 40 5 5 51 99 54 110 1 3 10 23 20 45 32 71 75 181 80 205 2 8 4
16 5 18 2 1 4 7 5 12 1 6 4 12 5 15 1 3 3 8 5 13 1 4 4 14 8 22 13 34 56 220
67 290 6 41 14 86 16 100 3 14 8 61 12 105 9 103 9 4379 0 4465 -4 36 -12 99
-18 140 -7 41 -14 89 -16 105 -2 17 -8 44 -14 60 -5 17 -11 41 -14 55 -3 14
-9 40 -15 58 -5 18 -11 36 -12 40 -1 4 -3 12 -5 17 -1 6 -8 28 -14 50 -26 89
-103 276 -156 380 -31 61 -62 120 -68 132 -6 13 -14 23 -18 23 -5 0 -8 4 -8 9
0 12 -81 135 -92 139 -4 2 -8 8 -8 14 0 9 -117 158 -179 228 -27 30 -2252
2259 -2358 2362 l-38 37 -758 -760z"/>
<path d="M3480 9500 l-761 -760 48 -48 c149 -151 398 -465 453 -571 7 -14 17
-30 22 -35 18 -23 68 -101 68 -109 0 -4 15 -31 33 -60 73 -115 201 -400 273
-607 31 -90 65 -201 66 -217 0 -5 5 -19 10 -33 5 -14 12 -34 14 -45 2 -11 6
-31 9 -45 11 -47 15 -65 19 -88 3 -13 8 -33 12 -44 6 -20 7 -28 18 -103 3 -22
11 -62 16 -90 6 -27 12 -77 15 -110 3 -33 8 -80 10 -105 3 -25 7 -73 8 -107 1
-35 5 -63 9 -63 4 0 3 -11 -2 -24 -5 -13 -6 -26 -3 -29 8 -8 7 -222 -1 -235
-3 -6 -2 -13 4 -17 6 -4 8 -11 4 -16 -3 -5 -7 -47 -10 -92 -2 -45 -6 -102 -10
-127 -3 -25 -7 -63 -9 -85 -7 -69 -15 -129 -20 -155 -3 -14 -7 -38 -10 -55 -6
-31 -21 -112 -31 -155 -3 -14 -7 -36 -10 -50 -3 -14 -8 -34 -11 -45 -4 -11 -8
-24 -9 -30 -10 -52 -91 -311 -115 -371 -7 -16 -13 -31 -13 -34 -2 -9 -28 -73
-53 -128 -12 -29 -23 -55 -23 -58 0 -8 -110 -227 -150 -299 -51 -93 -120 -207
-146 -242 -13 -17 -24 -36 -24 -41 0 -6 -3 -12 -8 -14 -4 -1 -42 -50 -84 -108
-42 -58 -87 -117 -101 -132 -14 -15 -31 -36 -39 -46 -16 -23 -150 -172 -196
-218 l-32 -32 755 -756 c415 -416 760 -756 767 -756 6 0 23 13 37 29 14 16 55
60 91 98 88 94 135 146 200 223 30 36 57 67 60 70 3 3 28 34 55 70 28 36 56
69 63 73 6 4 12 14 12 22 0 7 3 15 8 17 8 3 120 155 172 233 19 28 37 52 42
53 4 2 8 10 8 17 0 8 7 20 15 28 8 8 22 28 32 45 10 17 48 80 86 141 37 61 67
115 67 121 0 5 3 10 8 10 4 0 12 10 18 23 6 12 56 110 111 217 118 232 175
360 241 535 17 44 33 89 38 100 4 11 8 22 9 25 1 3 7 18 13 33 7 16 12 32 12
37 0 5 5 21 12 37 6 15 12 31 13 36 2 4 3 8 5 10 1 1 3 9 5 17 2 8 20 67 40
130 20 63 37 122 39 130 1 8 8 35 15 60 7 25 15 53 17 62 2 10 6 26 8 36 2 10
12 50 21 88 9 38 20 87 25 109 12 51 40 199 46 245 2 19 6 42 9 50 2 8 7 38
10 65 4 28 9 59 12 70 3 10 7 37 8 60 2 22 6 69 10 105 25 237 29 317 29 630
0 263 -6 439 -19 555 -2 17 -6 62 -10 100 -3 39 -8 81 -10 95 -11 68 -14 89
-20 135 -10 68 -12 85 -19 123 -3 17 -8 44 -11 60 -4 24 -28 142 -40 200 -3
12 -7 32 -10 45 -2 12 -8 38 -13 57 -8 30 -10 41 -13 53 0 1 -11 43 -25 92
-13 50 -26 97 -27 105 -7 33 -19 76 -27 95 -6 15 -78 238 -85 265 -1 3 -6 16
-12 30 -6 14 -20 52 -32 85 -12 33 -25 69 -30 80 -5 11 -37 88 -72 170 -83
200 -237 503 -347 685 -108 179 -313 484 -342 510 -3 3 -17 21 -30 40 -13 19
-27 37 -30 40 -3 3 -21 25 -40 50 -19 25 -38 47 -42 48 -4 2 -8 8 -8 13 0 6
-10 20 -22 33 -13 13 -36 39 -51 57 -85 101 -141 162 -274 303 l-62 65 -761
-759z"/>
</g>
</svg>
