<?xml version="1.0" standalone="no"?>
<!DOCTYPE svg PUBLIC "-//W3C//DTD SVG 20010904//EN"
 "http://www.w3.org/TR/2001/REC-SVG-20010904/DTD/svg10.dtd">
<svg version="1.0" xmlns="http://www.w3.org/2000/svg"
 width="173.000000pt" height="173.000000pt" viewBox="0 0 173.000000 173.000000"
 preserveAspectRatio="xMidYMid meet">
<metadata>
Created by potrace 1.14, written by Peter Selinger 2001-2017
</metadata>
<g transform="translate(0.000000,173.000000) scale(0.100000,-0.100000)"
fill="#000000" stroke="none">
<path d="M405 1129 c-248 -185 -280 -212 -280 -236 l0 -28 108 0 107 0 0 -226
0 -226 624 0 c589 -1 625 0 629 17 2 10 2 22 -2 27 -4 6 -238 10 -596 9 l-590
0 -2 205 c-1 112 -2 214 -2 227 -1 21 -4 22 -92 22 l-92 0 69 50 c38 27 74 53
79 57 6 5 53 40 105 78 52 38 100 74 106 80 6 6 36 28 66 49 l56 38 157 -117
c86 -64 159 -115 161 -112 2 2 4 46 5 98 1 96 7 110 40 102 17 -5 19 -15 18
-97 -2 -167 -9 -148 87 -221 48 -35 90 -62 95 -59 5 3 9 16 9 28 0 17 -17 36
-65 71 l-65 48 0 142 0 141 -90 1 -89 0 -3 -73 -3 -73 -128 94 c-70 52 -131
95 -135 94 -4 0 -133 -95 -287 -210z"/>
</g>
</svg>
