<svg width="14" height="23" fill="none" xmlns="http://www.w3.org/2000/svg"><path d="M13.3 5.678c.387 0 .7-.302.7-.674V.674A.687.687 0 0013.3 0H8.05C5.596 0 3.6 1.921 3.6 4.282v4.379H.7c-.387 0-.7.302-.7.674v4.33c0 .372.313.674.7.674h2.9v7.987c0 .372.313.674.7.674h4.5c.387 0 .7-.302.7-.674V14.34h2.9a.694.694 0 00.686-.542l.9-4.33a.655.655 0 00-.145-.56.711.711 0 00-.541-.246H9.5V5.678h3.8zm-4.5 4.33h3.646l-.62 2.983H8.8c-.387 0-.7.302-.7.674v7.987H5v-7.987a.687.687 0 00-.7-.674H1.4V10.01h2.9c.387 0 .7-.302.7-.674V4.282c0-1.618 1.368-2.934 3.05-2.934h4.55V4.33H8.8c-.387 0-.7.301-.7.673v4.33c0 .373.313.675.7.675z" fill="#000"/></svg>