<svg width="42" height="42" fill="none" xmlns="http://www.w3.org/2000/svg"><path fill-rule="evenodd" clip-rule="evenodd" d="M34.679.36a1.23 1.23 0 00-1.74 0l-4.91 4.91a3.697 3.697 0 00-4.201.721l-5.22 5.22a1.23 1.23 0 000 1.74l10.44 10.441a1.23 1.23 0 001.74 0l5.22-5.22a3.692 3.692 0 00.723-4.202l4.908-4.909a1.23 1.23 0 000-1.74L34.68.361zm-.41 16.072l-4.35 4.35-8.701-8.7 4.35-4.35c.48-.48 1.26-.48 1.74 0l6.96 6.96c.482.48.482 1.259 0 1.74zm.87-4.35l-5.22-5.22 3.89-3.891 5.22 5.22-3.89 3.89zM20.76.363a1.23 1.23 0 00-1.74-.006l-3.107 3.085v-.489a1.23 1.23 0 00-2.461 0V6.48c0 .68.55 1.231 1.23 1.231h3.446a1.23 1.23 0 000-2.461h-.543l3.169-3.146a1.23 1.23 0 00.006-1.74zm3.068 35.212a1.23 1.23 0 001.74-.002l3.142-3.149v.553a1.23 1.23 0 102.46 0v-3.528c0-.68-.55-1.23-1.23-1.23h-3.527a1.23 1.23 0 000 2.46h.56l-3.147 3.155a1.23 1.23 0 00.002 1.74zM9.06 41.64c-.48.48-1.26.48-1.74 0L.36 34.68a1.23 1.23 0 010-1.741l4.935-4.936a3.697 3.697 0 01.72-4.2l1.74-1.74a1.23 1.23 0 011.74 0l.87.87 3.02-3.02a1.23 1.23 0 011.741 0c.48.48 1.26.48 1.74 0l1.74-1.74a1.23 1.23 0 011.74 0l3.48 3.48a1.23 1.23 0 010 1.74l-1.74 1.74a1.23 1.23 0 000 1.74 1.23 1.23 0 010 1.74l-3.02 3.02.871.87c.48.48.48 1.26 0 1.74l-1.74 1.74a3.696 3.696 0 01-4.202.721L9.061 41.64zm9.546-19.988a3.698 3.698 0 01-4.2.721l-2.3 2.3 5.22 5.22 2.3-2.3a3.697 3.697 0 01.72-4.2l.87-.87-1.74-1.74-.87.87zm-9.98 3.02l-.87.87c-.48.48-.48 1.261 0 1.741l6.96 6.96c.48.48 1.26.48 1.74 0l.87-.87-8.7-8.7zm3.48 10.442l-5.22-5.22-3.916 3.915 5.22 5.22 3.916-3.915zm13.461-23.902a1.23 1.23 0 011.74 0l3.48 3.48a1.23 1.23 0 01-1.74 1.74l-3.48-3.48a1.23 1.23 0 010-1.74z" fill="url(#paint0_linear)"/><defs><linearGradient id="paint0_linear" x1="48.5" y1="46.25" x2="5" y2="3.75" gradientUnits="userSpaceOnUse"><stop stop-color="#610084"/><stop offset="1" stop-color="#237CBC"/></linearGradient></defs></svg>