<svg width="49" height="36" fill="none" xmlns="http://www.w3.org/2000/svg"><path d="M16.54 17.51c3.997 0 7.256-2.455 7.256-5.461 0-3.008-3.25-5.462-7.256-5.462S9.284 9.04 9.284 12.049c0 3.007 3.26 5.46 7.256 5.46zm0-8.983c2.91 0 5.316 1.61 5.316 3.521 0 1.911-2.435 3.522-5.316 3.522s-5.316-1.61-5.316-3.522c0-1.91 2.435-3.53 5.316-3.53v.009z" fill="url(#paint0_linear)"/><path d="M47.302 22.137H32.983V12.04C32.983 5.403 25.601 0 16.492 0 7.382 0 0 5.403 0 12.039V23.97c0 6.111 6.257 11.156 14.319 11.922h.165c.669.059 1.348.107 2.037.107H47.3a.97.97 0 00.97-.97V23.107a.97.97 0 00-.97-.97zM16.54 1.95c8.003 0 14.552 4.53 14.552 10.099 0 5.568-6.51 10.098-14.552 10.098S1.99 17.617 1.99 12.048C1.989 6.48 8.547 1.95 16.54 1.95zm14.552 15.754v4.433h-5.627a14.627 14.627 0 005.578-4.433h.049zm15.24 16.356h-1.94v-4.91a.97.97 0 00-1.94 0v4.92H38.57V31.4a.97.97 0 00-1.94 0v2.668h-3.88V31.4a.97.97 0 00-1.941 0v2.668h-3.88V29.15a.97.97 0 00-1.94 0v4.918h-3.716V31.4a.97.97 0 00-1.94 0v2.668h-3.88V31.4a.97.97 0 00-1.94 0v2.436c-6.548-.97-11.476-5.026-11.476-9.876v-6.257c2.775 3.793 8.236 6.373 14.552 6.373H46.33v9.983z" fill="url(#paint1_linear)"/><defs><linearGradient id="paint0_linear" x1="40.071" y1="35.357" x2="7.071" y2="4.5" gradientUnits="userSpaceOnUse"><stop stop-color="#610084"/><stop offset="1" stop-color="#237CBC"/></linearGradient><linearGradient id="paint1_linear" x1="58.929" y1="45.429" x2="-1.714" y2="0" gradientUnits="userSpaceOnUse"><stop stop-color="#610084"/><stop offset="1" stop-color="#237CBC"/></linearGradient></defs></svg>