<svg width="24" height="23" fill="none" xmlns="http://www.w3.org/2000/svg"><path d="M12.282 5.37c-3.33 0-6.04 2.71-6.04 6.04s2.71 6.04 6.04 6.04 6.04-2.71 6.04-6.04-2.71-6.04-6.04-6.04zm0 10.742A4.708 4.708 0 017.58 11.41a4.708 4.708 0 014.702-4.702 4.708 4.708 0 014.702 4.702 4.708 4.708 0 01-4.702 4.703z" fill="#000"/><path d="M21.393 2.3a7.774 7.774 0 00-5.53-2.3H8.7a7.774 7.774 0 00-5.53 2.3 7.774 7.774 0 00-2.3 5.53v7.16c0 2.084.817 4.048 2.3 5.531a7.774 7.774 0 005.53 2.3h7.162a7.774 7.774 0 005.53-2.3 7.774 7.774 0 002.3-5.53V7.83a7.774 7.774 0 00-2.3-5.53zm.962 12.69a6.5 6.5 0 01-6.492 6.493H8.7a6.5 6.5 0 01-6.492-6.492V7.83A6.5 6.5 0 018.7 1.337h7.162a6.5 6.5 0 016.492 6.493v7.16z" fill="#000"/><path d="M18.5 4.523a.674.674 0 00-.473.197.673.673 0 000 .945.673.673 0 001.142-.473.674.674 0 00-.669-.669z" fill="#000"/></svg>