<svg width="26" height="33" fill="none" xmlns="http://www.w3.org/2000/svg"><path d="M23.594 5.57C21.148 2.03 17.272 0 12.96 0S4.772 2.03 2.326 5.57C-.108 9.092-.67 13.551.82 17.49c.398 1.076 1.032 2.121 1.878 3.1l9.41 11.053a1.12 1.12 0 001.705 0l9.407-11.05c.85-.984 1.483-2.028 1.878-3.096 1.492-3.946.93-8.405-1.504-11.927zM23 16.713c-.305.823-.802 1.637-1.478 2.42l-.005.006-8.557 10.05-8.562-10.056c-.675-.782-1.172-1.596-1.48-2.427-1.232-3.258-.764-6.945 1.25-9.862C6.19 3.918 9.396 2.24 12.96 2.24c3.566 0 6.77 1.678 8.791 4.604 2.016 2.917 2.484 6.604 1.249 9.869z" fill="#000"/><path d="M12.96 6.647a6.28 6.28 0 00-6.273 6.273 6.28 6.28 0 006.273 6.273 6.28 6.28 0 006.273-6.273 6.28 6.28 0 00-6.273-6.273zm0 10.305a4.037 4.037 0 01-4.032-4.032 4.037 4.037 0 014.032-4.033 4.037 4.037 0 014.033 4.033 4.037 4.037 0 01-4.033 4.032z" fill="#000"/></svg>