<svg width="23" height="19" fill="none" xmlns="http://www.w3.org/2000/svg"><path d="M22.645.52C22.364.185 21.943 0 21.46 0c-.263 0-.541.054-.827.16L1.163 7.418C.132 7.802-.008 8.38 0 8.69c.01.31.182.88 1.236 1.207a.738.738 0 00.019.005l4.038 1.129 2.184 6.097c.298.832.966 1.348 1.745 1.348.49 0 .973-.2 1.396-.58l2.498-2.246 3.623 2.848v.001l.035.027.01.008c.403.305.842.466 1.272.466.839 0 1.507-.606 1.701-1.545l3.19-15.38c.128-.617.021-1.169-.302-1.555zm-16 10.296l7.79-3.886-4.851 5.033a.652.652 0 00-.164.293l-.935 3.7-1.84-5.14zm3.06 6.112a1.254 1.254 0 01-.098.078l.868-3.432 1.58 1.242-2.35 2.112zM21.626 1.814l-3.19 15.38c-.03.148-.128.49-.38.49-.125 0-.282-.066-.442-.187L13.51 14.27l-.002-.002-2.443-1.92 7.016-7.28a.646.646 0 00.048-.845.684.684 0 00-.845-.191L5.743 9.788 1.65 8.644 21.113 1.39a1.01 1.01 0 01.347-.074c.041 0 .114.005.142.037.035.043.081.189.024.461z" fill="#000"/></svg>