<?xml version="1.0" standalone="no"?>
<!DOCTYPE svg PUBLIC "-//W3C//DTD SVG 20010904//EN"
 "http://www.w3.org/TR/2001/REC-SVG-20010904/DTD/svg10.dtd">
<svg version="1.0" xmlns="http://www.w3.org/2000/svg"
 width="896.000000pt" height="896.000000pt" viewBox="0 0 896.000000 896.000000"
 preserveAspectRatio="xMidYMid meet">
<metadata>
Created by potrace 1.14, written by Peter Selinger 2001-2017
</metadata>
<g transform="translate(0.000000,896.000000) scale(0.100000,-0.100000)"
fill="#000000" stroke="none">
<path d="M802 4517 l3 -4372 505 0 505 0 2 3490 c1 1920 2 3501 2 3514 l1 24
20 -23 c11 -12 22 -31 25 -41 4 -11 9 -19 13 -19 4 0 18 -18 32 -40 14 -22 28
-40 32 -40 5 0 8 -6 8 -14 0 -8 4 -16 8 -18 5 -1 23 -25 42 -53 37 -54 37 -54
75 -101 14 -18 25 -36 25 -42 0 -6 4 -12 8 -14 4 -1 48 -59 97 -128 49 -69 92
-127 95 -130 14 -13 50 -70 50 -79 0 -5 4 -11 8 -13 7 -3 57 -66 92 -118 8
-12 42 -59 75 -105 33 -46 67 -93 75 -105 8 -13 25 -35 38 -50 12 -15 22 -33
22 -39 0 -6 4 -11 8 -11 4 0 21 -20 36 -45 16 -25 33 -45 37 -45 5 0 9 -4 9
-10 0 -11 131 -193 142 -198 5 -2 8 -8 8 -14 0 -6 10 -23 23 -38 12 -15 29
-37 37 -50 8 -12 26 -37 40 -55 14 -18 31 -41 38 -51 10 -15 181 -254 309
-433 10 -14 33 -44 51 -68 17 -24 32 -48 32 -53 0 -6 3 -10 8 -10 4 0 23 -25
42 -55 19 -30 38 -54 43 -55 4 0 7 -7 7 -15 0 -8 3 -15 8 -15 4 0 18 -17 32
-38 13 -20 36 -53 51 -72 30 -40 224 -310 284 -395 22 -32 46 -63 53 -71 6 -7
12 -17 12 -22 0 -6 3 -12 8 -14 4 -1 64 -82 134 -179 69 -97 166 -231 214
-299 49 -67 94 -129 99 -138 6 -10 12 -19 16 -22 3 -3 21 -27 40 -55 18 -27
39 -56 46 -65 7 -8 39 -53 72 -100 33 -47 64 -89 68 -95 5 -5 31 -41 58 -80
27 -38 52 -72 56 -75 3 -3 18 -23 32 -46 14 -22 31 -47 39 -55 7 -8 18 -22 23
-31 11 -18 35 -52 281 -391 98 -137 184 -256 189 -265 6 -9 12 -19 16 -22 3
-3 21 -27 40 -55 18 -27 36 -52 39 -55 3 -3 14 -18 23 -33 10 -16 25 -36 32
-45 8 -9 37 -48 64 -87 28 -38 54 -74 58 -80 15 -17 178 -246 188 -263 6 -10
12 -19 15 -22 3 -3 17 -21 30 -40 13 -19 27 -37 30 -40 3 -3 25 -34 50 -70 24
-36 48 -69 53 -75 4 -5 30 -41 58 -80 27 -38 56 -77 63 -86 7 -8 21 -30 32
-47 10 -18 22 -32 26 -32 4 0 8 -4 8 -10 0 -5 7 -18 15 -27 8 -10 48 -65 89
-123 41 -58 79 -109 83 -115 5 -5 24 -32 43 -60 19 -27 38 -54 43 -60 8 -10
168 -232 197 -275 14 -21 37 -50 60 -77 5 -7 10 -14 10 -17 0 -8 162 -226 169
-227 3 -1 232 -2 509 -3 497 -1 502 -1 503 19 1 25 1 8684 0 8707 -1 15 -39
17 -508 15 l-508 -2 -1 -3475 c-1 -1911 -2 -3479 -3 -3484 0 -5 -17 13 -36 40
-19 27 -40 56 -47 66 -7 9 -38 51 -68 93 -114 158 -175 240 -182 243 -5 2 -8
10 -8 18 0 8 -4 14 -10 14 -5 0 -10 7 -10 15 0 8 -4 15 -10 15 -5 0 -10 7 -10
15 0 8 -4 15 -9 15 -7 0 -59 70 -96 129 -5 9 -12 18 -15 21 -3 3 -23 30 -45
60 -22 30 -42 57 -45 60 -3 3 -21 28 -40 55 -19 28 -38 52 -42 53 -4 2 -8 8
-8 13 0 9 -59 91 -94 131 -8 9 -20 27 -27 40 -7 12 -17 28 -23 34 -6 6 -40 52
-76 103 -36 50 -87 122 -115 159 -27 37 -58 79 -67 92 -10 14 -39 54 -65 90
-27 36 -56 76 -65 90 -41 60 -80 114 -91 126 -7 7 -22 28 -35 46 -13 18 -41
58 -63 88 -22 30 -48 66 -57 79 -9 13 -40 56 -69 95 -57 78 -65 88 -207 286
-54 74 -106 146 -116 160 -84 113 -110 151 -110 159 0 5 -4 11 -9 13 -4 2 -47
57 -95 123 -48 66 -93 128 -101 138 -8 9 -15 20 -15 24 0 3 -7 13 -15 22 -9 9
-41 52 -72 96 -32 44 -61 85 -65 90 -14 17 -82 112 -98 135 -8 12 -26 37 -40
55 -14 18 -43 59 -65 90 -22 31 -46 64 -53 73 -11 14 -60 82 -155 215 -9 12
-39 53 -67 90 -27 37 -50 70 -50 72 0 4 -13 22 -45 59 -5 7 -14 19 -20 28 -11
18 -153 214 -172 238 -7 8 -46 62 -87 120 -41 58 -79 110 -83 115 -11 12 -146
200 -187 258 -16 23 -32 44 -37 45 -5 2 -9 8 -9 13 0 5 -35 56 -77 113 -43 58
-85 114 -93 126 -17 24 -76 106 -159 220 -30 41 -69 95 -87 120 -18 25 -92
126 -163 225 -72 99 -139 191 -148 204 -10 13 -50 69 -90 125 -40 55 -83 115
-97 131 -14 17 -26 36 -26 43 0 6 -4 12 -10 12 -5 0 -21 20 -36 45 -14 25 -29
45 -33 45 -4 0 -13 10 -18 23 -6 12 -18 31 -27 42 -16 21 -22 28 -163 225 -45
63 -87 120 -92 126 -4 6 -26 35 -47 65 -47 66 -48 66 -79 105 -14 18 -25 36
-25 42 0 6 -4 12 -8 14 -4 2 -23 24 -41 50 l-33 46 -509 1 -509 0 2 -4372z"/>
</g>
</svg>
