<svg width="451" height="134" viewBox="0 0 451 134" fill="none" xmlns="http://www.w3.org/2000/svg">
<path fill-rule="evenodd" clip-rule="evenodd" d="M323 134C360.003 134 390 104.003 390 67C390 59.0625 388.62 51.4474 386.086 44.3816C384.884 44.3855 383.676 44.3875 382.462 44.3875C331.815 44.3875 310.019 43.55 283.219 35.175C292.461 32.4311 301.109 30.5339 310.55 29.2257C300.06 29.0888 292.85 28.804 292.85 28.475C292.85 28.0125 307.099 27.6375 324.675 27.6375C325.104 27.6375 325.531 27.6377 325.956 27.6382C339.389 26.665 355.232 26.4211 376.291 26.386C369.388 17.3418 360.235 10.1069 349.667 5.51701C330.605 4.98206 318 4.05459 318 3.00004C318 2.25191 324.344 1.56774 334.837 1.04231C330.995 0.357402 327.039 0 323 0C285.997 0 256 29.9969 256 67C256 104.003 285.997 134 323 134Z" fill="url(#paint0_linear_349_2)"/>
<path d="M51.504 73.592L47.04 76.136V52.28H59.04V83H47.04L10.896 62.072L15.36 59.48V83H3.36V52.28H15.36L51.504 73.592ZM114.135 52.28V61.4H77.7506V65.48H107.511V73.64H77.7506V83H65.7506V52.28H114.135ZM117.971 52.28H167.891V61.4H117.971V52.28ZM136.931 60.776H148.931V83H136.931V60.776Z" fill="#92F8FF"/>
<path d="M225.644 79.352H218.444L244.652 52.28H256.652V83H244.652V62.072L248.252 63.56L229.292 83H214.892L195.884 63.608L199.532 62.12V83H187.532V52.28H199.532L225.644 79.352ZM291.936 83.96C284.96 83.96 279.344 83.352 275.088 82.136C270.832 80.888 267.728 79.064 265.776 76.664C263.856 74.232 262.896 71.224 262.896 67.64C262.896 64.056 263.856 61.064 265.776 58.664C267.728 56.232 270.832 54.408 275.088 53.192C279.344 51.944 284.96 51.32 291.936 51.32C298.912 51.32 304.528 51.944 308.784 53.192C313.04 54.408 316.128 56.232 318.048 58.664C320 61.064 320.976 64.056 320.976 67.64C320.976 71.224 320 74.232 318.048 76.664C316.128 79.064 313.04 80.888 308.784 82.136C304.528 83.352 298.912 83.96 291.936 83.96ZM291.936 74.84C295.232 74.84 298.08 74.648 300.48 74.264C302.88 73.848 304.736 73.128 306.048 72.104C307.36 71.048 308.016 69.56 308.016 67.64C308.016 65.72 307.36 64.248 306.048 63.224C304.736 62.168 302.88 61.448 300.48 61.064C298.08 60.648 295.232 60.44 291.936 60.44C288.64 60.44 285.744 60.648 283.248 61.064C280.784 61.448 278.848 62.168 277.44 63.224C276.064 64.248 275.376 65.72 275.376 67.64C275.376 69.56 276.064 71.048 277.44 72.104C278.848 73.128 280.784 73.848 283.248 74.264C285.744 74.648 288.64 74.84 291.936 74.84ZM355.779 83.96C348.803 83.96 343.187 83.352 338.931 82.136C334.675 80.888 331.571 79.064 329.619 76.664C327.699 74.232 326.739 71.224 326.739 67.64C326.739 64.056 327.699 61.064 329.619 58.664C331.571 56.232 334.675 54.408 338.931 53.192C343.187 51.944 348.803 51.32 355.779 51.32C362.755 51.32 368.371 51.944 372.627 53.192C376.883 54.408 379.971 56.232 381.891 58.664C383.843 61.064 384.819 64.056 384.819 67.64C384.819 71.224 383.843 74.232 381.891 76.664C379.971 79.064 376.883 80.888 372.627 82.136C368.371 83.352 362.755 83.96 355.779 83.96ZM355.779 74.84C359.075 74.84 361.923 74.648 364.323 74.264C366.723 73.848 368.579 73.128 369.891 72.104C371.203 71.048 371.859 69.56 371.859 67.64C371.859 65.72 371.203 64.248 369.891 63.224C368.579 62.168 366.723 61.448 364.323 61.064C361.923 60.648 359.075 60.44 355.779 60.44C352.483 60.44 349.587 60.648 347.091 61.064C344.627 61.448 342.691 62.168 341.283 63.224C339.907 64.248 339.219 65.72 339.219 67.64C339.219 69.56 339.907 71.048 341.283 72.104C342.691 73.128 344.627 73.848 347.091 74.264C349.587 74.648 352.483 74.84 355.779 74.84ZM439.207 73.592L434.743 76.136V52.28H446.743V83H434.743L398.599 62.072L403.063 59.48V83H391.063V52.28H403.063L439.207 73.592Z" fill="white"/>
<path d="M10.816 107H15.424V94.616H21.64V91.208H4.6V94.616H10.816V107ZM23.6024 107H28.2104V100.568H38.3384V107H42.9464V91.208H38.3384V97.16H28.2104V91.208H23.6024V107ZM45.6805 107H60.8485V103.592H50.2885V100.4H58.2085V97.712H50.2885V94.616H60.6085V91.208H45.6805V107ZM70.243 107H74.707V94.352H74.755L79.771 107H84.067L89.059 94.352H89.107V107H93.715V91.208H86.371L82.195 102.2H82.171L77.899 91.208H70.243V107ZM96.4461 107H111.614V103.592H101.054V100.4H108.974V97.712H101.054V94.616H111.374V91.208H96.4461V107ZM119.261 107H123.869V94.616H130.085V91.208H113.045V94.616H119.261V107ZM144.386 107H149.738L141.146 91.208H135.674L127.082 107H131.834L133.466 103.784H142.754L144.386 107ZM134.81 101.096L138.074 94.664H138.098L141.386 101.096H134.81ZM155.311 107H160.831L169.279 91.208H164.575L158.407 103.304H158.383L152.119 91.208H146.863L155.311 107ZM171.118 107H186.286V103.592H175.726V100.4H183.646V97.712H175.726V94.616H186.046V91.208H171.118V107ZM188.485 107H193.093V101.312H198.805C200.773 101.312 201.397 102.056 201.397 103.688V107H206.005V103.688C206.005 102.032 205.741 100.28 203.245 99.704V99.656C205.429 99.008 206.101 97.472 206.101 95.888C206.101 93.056 204.277 91.208 198.421 91.208H188.485V107ZM193.093 98.624V94.616H198.229C200.893 94.616 201.733 95.432 201.733 96.56C201.733 97.784 200.917 98.624 198.637 98.624H193.093ZM217.518 107.288C225.654 107.288 226.998 104.336 226.998 101.84C226.998 100.328 226.134 99.08 224.622 98.456C223.278 97.904 221.31 97.712 219.006 97.568C217.23 97.448 214.854 97.352 213.99 97.088C213.318 96.872 212.982 96.512 212.982 95.912C212.982 94.784 214.302 94.088 217.47 94.088C220.734 94.088 222.15 94.928 222.15 96.368H226.278C226.278 93.512 224.982 90.92 217.47 90.92C211.206 90.92 208.374 93.32 208.374 96.248C208.374 97.784 209.142 98.912 210.294 99.512C211.59 100.184 213.894 100.448 215.982 100.568C217.734 100.664 220.158 100.76 221.142 100.976C221.982 101.168 222.39 101.552 222.39 102.2C222.39 103.28 221.694 104.12 217.518 104.12C213.558 104.12 212.598 103.04 212.598 101.696H208.47C208.47 103.808 209.31 107.288 217.518 107.288ZM229.337 107H244.505V103.592H233.945V100.4H241.865V97.712H233.945V94.616H244.265V91.208H229.337V107ZM253.899 107H264.291C270.099 107 271.443 104.936 271.443 102.368C271.443 100.952 270.603 99.224 267.939 98.768V98.744C270.051 98.192 270.651 96.656 270.651 95.384C270.651 93.536 269.763 91.208 263.931 91.208H253.899V107ZM258.507 97.616V94.376H263.763C265.899 94.376 266.643 95.072 266.643 95.984C266.643 96.992 265.971 97.616 264.051 97.616H258.507ZM258.507 103.856V100.304H264.171C266.307 100.304 267.075 101.096 267.075 101.96C267.075 103.112 266.403 103.856 264.075 103.856H258.507ZM273.657 107H287.625V103.352H278.265V91.208H273.657V107ZM298.474 107.288C305.842 107.288 308.842 103.52 308.842 99.032C308.842 94.664 305.602 90.92 298.474 90.92C291.346 90.92 288.106 94.664 288.106 99.032C288.106 103.76 291.322 107.288 298.474 107.288ZM298.474 103.88C294.706 103.88 292.954 101.888 292.954 99.056C292.954 96.488 294.73 94.328 298.474 94.328C302.218 94.328 303.994 96.488 303.994 99.056C303.994 101.768 302.338 103.88 298.474 103.88ZM320.472 107.288C327.216 107.288 329.712 103.904 329.712 100.832C329.712 100.784 329.712 100.616 329.688 100.496H325.584V100.64C325.584 102.392 323.928 103.88 320.664 103.88C316.848 103.88 315.36 101.648 315.36 99.128C315.36 96.416 317.184 94.328 320.64 94.328C324.048 94.328 325.512 96.176 325.512 97.64V97.736H329.616C329.64 97.592 329.64 97.4 329.64 97.352C329.64 94.712 327.384 90.92 320.424 90.92C313.848 90.92 310.512 94.448 310.512 99.128C310.512 103.208 312.984 107.288 320.472 107.288ZM331.923 107H336.531V103.496L339.963 100.832L346.443 107H352.899L343.371 98.168L352.323 91.208H346.515L336.579 99.104H336.531V91.208H331.923V107ZM362.519 107.288C369.263 107.288 371.759 103.904 371.759 100.832C371.759 100.784 371.759 100.616 371.735 100.496H367.631V100.64C367.631 102.392 365.975 103.88 362.711 103.88C358.895 103.88 357.407 101.648 357.407 99.128C357.407 96.416 359.231 94.328 362.687 94.328C366.095 94.328 367.559 96.176 367.559 97.64V97.736H371.663C371.687 97.592 371.687 97.4 371.687 97.352C371.687 94.712 369.431 90.92 362.471 90.92C355.895 90.92 352.559 94.448 352.559 99.128C352.559 103.208 355.031 107.288 362.519 107.288ZM373.97 107H378.578V100.568H388.706V107H393.314V91.208H388.706V97.16H378.578V91.208H373.97V107ZM412.464 107H417.816L409.224 91.208H403.752L395.16 107H399.912L401.544 103.784H410.832L412.464 107ZM402.888 101.096L406.152 94.664H406.176L409.464 101.096H402.888ZM419.793 107H424.401V91.208H419.793V107ZM427.266 107H431.73V95.384H431.754L442.05 107H446.61V91.208H442.146V100.712H442.122L433.698 91.208H427.266V107Z" fill="white"/>
<path d="M128 27.9111L94.1168 40.7427C89.075 42.652 83.7475 43.6983 78.358 43.8377L23 45.269L78.5 40.769L13 43.6272L40.5 39.2692L13 27.9112L63 39.2692L33 27.9111L66.1504 35.2351C72.6513 36.6713 79.3736 36.7948 85.9228 35.5983L128 27.9111Z" fill="#48AFB6"/>
<path d="M120 23.911L139 19.9109L145.5 14.9115L159.5 14.9113L151.75 18.4112L135 29.9111L140 23.9111L136 25.4111L120 23.911Z" fill="#F2DA00"/>
<defs>
<linearGradient id="paint0_linear_349_2" x1="421.5" y1="154.5" x2="198.5" y2="-43.5" gradientUnits="userSpaceOnUse">
<stop/>
<stop offset="0.240707" stop-color="#2A4D4A"/>
<stop offset="1" stop-color="white"/>
</linearGradient>
</defs>
</svg>
