<svg width="339" height="313" viewBox="0 0 339 313" fill="none" xmlns="http://www.w3.org/2000/svg">
<path fill-rule="evenodd" clip-rule="evenodd" d="M0.0724734 110.255C0.0724734 98.9368 0.0723422 110.255 0.0734151 95L339 95.4921C339 109.14 339 95.4921 339 109.14H304.031C302.624 109.14 301.483 110.181 301.483 111.464C301.483 112.747 302.624 113.787 304.031 113.787H339C339 120.176 339 113.787 339 120.176H298.438C297.031 120.176 295.89 121.216 295.89 122.499C295.89 123.782 297.031 124.822 298.438 124.822L339 125.018C339 128.463 339 128.436 339 130.146V131.499L288.284 131.211L274.012 108.375C273.288 107.216 271.82 106.7 270.478 107.039L270.472 107.039H16.8619C15.9443 106.602 14.809 106.594 13.8443 107.108C12.3408 107.91 11.821 109.679 12.6834 111.059L26.5917 133.313L13.9409 153.555C13.9007 153.619 13.8635 153.684 13.8293 153.75C12.9567 154.268 12.3798 155.165 12.3798 156.185C12.3798 157.789 13.8059 159.089 15.5651 159.089H272.622C272.85 159.089 273.073 159.067 273.288 159.026C274.526 159.199 275.804 158.676 276.465 157.62L289.23 137.194C289.266 137.136 289.3 137.078 289.331 137.019L339 137.307V252.63C339 260.47 336.907 266.536 328.308 266.536H323.642C312.328 266.536 303.156 274.898 303.156 285.213V294.323C303.156 304.638 293.984 313 282.67 313H20.606C9.2917 313 0.119703 304.638 0.119703 294.323V173.41C0.119703 163.095 0.119703 173.41 0.119703 148.147C0.11921 101.639 -0.114462 156.762 0.0724734 110.255ZM21.3714 153.281H271.916L283.382 134.936C283.301 134.837 283.226 134.733 283.157 134.624L269.185 112.268H20.6991L32.7182 131.499C33.3429 132.499 33.2423 133.702 32.568 134.595C32.5689 135.084 32.4348 135.579 32.1515 136.032L21.3714 153.281Z" fill="#C4C4C4"/>
<g filter="url(#filter0_d_678_32)">
<path d="M65.5147 138.628C63.8624 140.179 61.6815 140.955 58.9718 140.955C56.2621 140.955 54.0893 140.179 52.4536 138.628C50.8179 137.062 50 135.062 50 132.631C50 130.199 50.8179 128.2 52.4536 126.634C54.0893 125.067 56.2621 124.284 58.9718 124.284C61.6815 124.284 63.8624 125.067 65.5147 126.634C67.167 128.2 67.9931 130.199 67.9931 132.631C67.9931 135.062 67.167 137.062 65.5147 138.628ZM56.2207 135.943C56.8651 136.793 57.7904 137.218 58.9965 137.218C60.2027 137.218 61.128 136.793 61.7723 135.943C62.4167 135.092 62.7389 133.988 62.7389 132.631C62.7389 131.273 62.4167 130.169 61.7723 129.319C61.128 128.454 60.2027 128.021 58.9965 128.021C57.7904 128.021 56.8651 128.454 56.2207 129.319C55.5764 130.169 55.2542 131.273 55.2542 132.631C55.2542 133.988 55.5764 135.092 56.2207 135.943Z" fill="#272637"/>
<path d="M69.4271 140.575V124.575H74.6069L80.4063 133.571H80.4559V124.575H85.4622V140.575H80.1089L74.483 131.512H74.4334V140.575H69.4271Z" fill="#272637"/>
<path d="M87.6035 140.575V124.575H92.7833V136.569H100.367V140.575H87.6035Z" fill="#272637"/>
<path d="M104.226 140.575V134.958L98.1541 124.575H103.78L105.664 128.133C105.862 128.491 106.06 128.886 106.258 129.319C106.457 129.752 106.605 130.087 106.704 130.326L106.853 130.706H106.903C107.283 129.796 107.688 128.938 108.117 128.133L110.001 124.575H115.503L109.406 134.958V140.575H104.226Z" fill="#272637"/>
<path d="M123.99 140.575V129.999H119.87V126.358C121.341 126.305 122.568 125.924 123.549 125.215C124.549 124.489 125.197 123.488 125.491 122.213H129.876V140.575H123.99Z" fill="#272637"/>
<path d="M136.291 140.575V124.575H141.471V140.575H136.291Z" fill="#272637"/>
<path d="M143.6 140.575V124.575H148.78L154.579 133.571H154.629V124.575H159.635V140.575H154.282L148.656 131.512H148.606V140.575H143.6Z" fill="#272637"/>
<path d="M169.241 140.575V129.999H165.12V126.358C166.592 126.305 167.818 125.924 168.799 125.215C169.8 124.489 170.447 123.488 170.742 122.213H175.127V140.575H169.241Z" fill="#272637"/>
<path d="M186.661 141C183.954 141 181.707 140.132 179.922 138.396C178.156 136.66 177.273 134.366 177.273 131.513C177.273 128.661 178.146 126.367 179.892 124.631C181.658 122.877 183.914 122 186.661 122C189.487 122 191.763 122.868 193.489 124.604C195.236 126.34 196.109 128.643 196.109 131.513C196.109 134.366 195.226 136.66 193.46 138.396C191.694 140.132 189.428 141 186.661 141ZM183.306 131.513C183.306 135.216 184.434 137.067 186.691 137.067C188.947 137.067 190.075 135.216 190.075 131.513C190.075 129.777 189.801 128.404 189.251 127.394C188.702 126.385 187.848 125.88 186.691 125.88C185.533 125.88 184.68 126.385 184.13 127.394C183.581 128.404 183.306 129.777 183.306 131.513Z" fill="#272637"/>
<path d="M210.89 141C208.182 141 205.936 140.132 204.15 138.396C202.385 136.66 201.502 134.366 201.502 131.513C201.502 128.661 202.375 126.367 204.121 124.631C205.887 122.877 208.143 122 210.89 122C213.715 122 215.991 122.868 217.718 124.604C219.464 126.34 220.337 128.643 220.337 131.513C220.337 134.366 219.454 136.66 217.689 138.396C215.923 140.132 213.657 141 210.89 141ZM207.535 131.513C207.535 135.216 208.663 137.067 210.919 137.067C213.176 137.067 214.304 135.216 214.304 131.513C214.304 129.777 214.029 128.404 213.48 127.394C212.931 126.385 212.077 125.88 210.919 125.88C209.762 125.88 208.908 126.385 208.359 127.394C207.81 128.404 207.535 129.777 207.535 131.513Z" fill="#272637"/>
<path d="M230.721 141C228.014 141 225.767 140.132 223.982 138.396C222.216 136.66 221.333 134.366 221.333 131.513C221.333 128.661 222.206 126.367 223.952 124.631C225.718 122.877 227.975 122 230.721 122C233.547 122 235.823 122.868 237.549 124.604C239.296 126.34 240.169 128.643 240.169 131.513C240.169 134.366 239.286 136.66 237.52 138.396C235.754 140.132 233.488 141 230.721 141ZM227.366 131.513C227.366 135.216 228.494 137.067 230.751 137.067C233.007 137.067 234.135 135.216 234.135 131.513C234.135 129.777 233.861 128.404 233.311 127.394C232.762 126.385 231.908 125.88 230.751 125.88C229.593 125.88 228.74 126.385 228.19 127.394C227.641 128.404 227.366 129.777 227.366 131.513Z" fill="#272637"/>
<path d="M250.553 141C247.845 141 245.598 140.132 243.813 138.396C242.047 136.66 241.164 134.366 241.164 131.513C241.164 128.661 242.037 126.367 243.784 124.631C245.549 122.877 247.806 122 250.553 122C253.378 122 255.654 122.868 257.381 124.604C259.127 126.34 260 128.643 260 131.513C260 134.366 259.117 136.66 257.351 138.396C255.585 140.132 253.319 141 250.553 141ZM247.198 131.513C247.198 135.216 248.326 137.067 250.582 137.067C252.838 137.067 253.967 135.216 253.967 131.513C253.967 129.777 253.692 128.404 253.143 127.394C252.593 126.385 251.74 125.88 250.582 125.88C249.425 125.88 248.571 126.385 248.022 127.394C247.472 128.404 247.198 129.777 247.198 131.513Z" fill="#272637"/>
</g>
<path fill-rule="evenodd" clip-rule="evenodd" d="M57.8982 12.1124C58.9931 11.8948 60.2852 11.7426 61.7747 11.6557C62.7648 11.598 63.8422 11.5691 65.0067 11.5691C65.657 11.5691 66.2722 11.5792 66.8522 11.5994C68.4871 11.6562 69.8427 11.7933 70.919 12.0105C72.3772 12.3048 73.4708 12.6897 74.1999 13.1651C74.929 13.6178 75.4302 14.0932 75.7036 14.5912H84.5892C84.5167 13.3528 84.1631 12.2243 83.5282 11.2057C83.1651 10.6231 82.7099 10.0764 82.1627 9.56563C82.1424 9.54633 82.1219 9.52709 82.1013 9.5079C80.5997 8.10979 78.4329 7.03109 75.6011 6.27182C72.7531 5.50213 69.2217 5.11729 65.0067 5.11729C61.7942 5.11729 58.8779 5.30971 56.2578 5.69456C53.6605 6.0794 51.4163 6.72458 49.5253 7.63009C47.657 8.51297 46.2217 9.71278 45.2192 11.2295C44.2167 12.7236 43.7155 14.5912 43.7155 16.8324C43.7155 19.0735 44.2053 20.9298 45.185 22.4013C46.1875 23.8728 47.5887 25.0386 49.3886 25.8989C51.2113 26.7365 53.3529 27.325 55.8135 27.6646C58.2969 28.0268 61.0196 28.2079 63.9814 28.2079C67.6271 28.2079 70.7414 27.6714 73.3245 26.5983C73.6301 26.4714 73.9282 26.3369 74.219 26.1949C74.2813 26.1645 74.3433 26.1337 74.4049 26.1026C75.0973 25.753 75.7473 25.3647 76.3548 24.9379C76.4287 24.886 76.5019 24.8335 76.5745 24.7805C76.733 24.6647 76.8885 24.5462 77.0411 24.425C77.0465 24.4207 77.0519 24.4164 77.0572 24.4121C77.5225 24.0413 77.9598 23.6451 78.3693 23.2235C78.6086 22.9771 78.8385 22.722 79.0588 22.4582C79.0598 22.457 79.0608 22.4558 79.0618 22.4546C79.0644 22.4515 79.0669 22.4485 79.0695 22.4454C79.2327 22.2496 79.3907 22.0489 79.5434 21.8435C79.481 22.0415 79.4182 22.2422 79.3548 22.4454C79.3452 22.4759 79.3357 22.5065 79.3262 22.5371C79.0825 23.3644 78.875 24.1646 78.7038 24.9379C78.6995 24.9569 78.6954 24.9759 78.6912 24.9949C78.6747 25.0701 78.6585 25.145 78.6427 25.2197C78.4604 26.08 78.3693 26.8496 78.3693 27.5288H85.0676V16.2891H66.8522V19.8545H77.9487C77.2603 20.1194 76.5689 20.3571 75.8745 20.5676C75.4356 20.703 74.9791 20.8271 74.505 20.9399C73.89 21.0863 73.2454 21.2138 72.5712 21.3224C72.4648 21.3396 72.3577 21.3562 72.2499 21.3724C71.9817 21.4127 71.709 21.45 71.4317 21.4845C70.1045 21.6331 68.578 21.7207 66.8522 21.7474C66.4744 21.7532 66.0871 21.7561 65.6902 21.7561C64.2572 21.7561 62.9521 21.7185 61.7747 21.6433C60.3687 21.5534 59.1449 21.4099 58.1033 21.2128C56.1895 20.8506 54.7997 20.3073 53.9339 19.5829C53.0681 18.8585 52.6352 17.9416 52.6352 16.8324C52.6352 15.5647 53.0567 14.546 53.8997 13.7763C54.7427 13.0066 56.0755 12.452 57.8982 12.1124ZM89.8469 27.5288H124.364V21.077H98.3907V18.3604H119.579V14.9648H98.3907V12.2482H124.296V5.79643H89.8469V27.5288ZM138.715 0.713092L141.739 2.48446L142.416 2.88141L154.817 10.1466V0.713092H212.742V2.63568C214.194 1.8825 215.782 1.35415 217.404 0.981083C220.305 0.296755 223.707 0 227.509 0C233.09 0 238.082 0.782855 241.928 2.89159C242.534 3.21853 243.12 3.58223 243.677 3.9859V0.713092H262.376V3.07971C264.033 2.0844 265.909 1.42354 267.833 0.981083C270.734 0.296755 274.136 0 277.937 0C283.519 0 288.51 0.782856 292.357 2.89159C294.325 3.9532 296.078 5.4024 297.33 7.34938C298.604 9.33241 299.18 11.5556 299.18 13.8442V16.7755C299.753 18.0738 300 19.4467 300 20.8053C300 23.7094 299.028 26.4688 296.859 28.624C294.794 30.676 291.992 31.7734 289.176 32.3921C286.305 33.0228 282.801 33.2912 278.792 33.2912C276.437 33.2912 274.21 33.156 272.125 32.871L272.116 32.8699C270.068 32.5865 268.144 32.1617 266.374 31.5661L266.34 31.5546L266.306 31.5425C264.911 31.0507 263.587 30.4453 262.376 29.698V32.6121H243.677V30.6413C242.145 31.4696 240.449 32.0182 238.747 32.3921C235.877 33.0228 232.373 33.2912 228.363 33.2912C226.008 33.2912 223.782 33.156 221.696 32.871L221.687 32.8699C219.639 32.5865 217.715 32.1617 215.946 31.5661L215.911 31.5546L215.877 31.5425C214.807 31.1652 213.779 30.721 212.811 30.1971V32.6121H158.539L155.621 30.933L154.817 30.4705L142.416 23.3362V32.6121H73.2918V32.0093C70.4393 32.8976 67.3078 33.2912 63.9814 33.2912C60.8242 33.2912 57.8596 33.0989 55.1007 32.6976C52.2671 32.305 49.6324 31.6042 47.2704 30.5187L47.2356 30.5028L47.2011 30.4863C44.692 29.2871 42.5572 27.5655 40.9903 25.2656L40.975 25.2432L40.96 25.2207C39.2927 22.7165 38.6379 19.8095 38.6379 16.8324C38.6379 13.836 39.3128 10.9236 40.9943 8.40991C42.5734 6.02696 44.7661 4.26016 47.346 3.03878C49.7903 1.87005 52.5408 1.1066 55.5144 0.665997L55.5208 0.66506C58.4298 0.237776 61.5975 0.0339567 65.0067 0.0339567C69.4923 0.0339567 73.5002 0.439427 76.9191 1.36275C79.8617 2.15217 82.5772 3.33333 84.7693 5.10129V0.713092H138.715ZM137.339 14.5521L159.894 27.5288H168.438V5.79643H159.894V19.0112L137.339 5.79643H128.795V27.5288H137.339V14.5521ZM173.216 27.5288H207.733V21.077H181.76V18.3604H202.949V14.9648H181.76V12.2482H207.665V5.79643H173.216V27.5288ZM212.742 8.96167C211.987 9.8788 211.571 10.9743 211.494 12.2482C211.485 12.3931 211.48 12.5402 211.48 12.6897C211.48 13.3394 211.587 13.9314 211.8 14.4656C211.914 14.7503 212.058 15.0185 212.232 15.2704C212.379 15.4756 212.549 15.6712 212.742 15.8571C213.21 16.3068 213.815 16.6998 214.556 17.0361C215.266 17.3363 216.101 17.5867 217.061 17.7874C217.42 17.8624 217.797 17.9305 218.191 17.9916C218.333 18.0136 218.477 18.0346 218.623 18.0548C219.15 18.1194 219.709 18.1738 220.298 18.2179C220.73 18.2502 221.178 18.2771 221.643 18.2984C221.683 18.3002 221.723 18.302 221.764 18.3038C222.066 18.317 222.376 18.3279 222.693 18.3365C222.716 18.3371 222.74 18.3377 222.763 18.3383C223.114 18.3474 223.474 18.3537 223.842 18.3572C224.07 18.3594 224.301 18.3604 224.535 18.3604C224.756 18.3604 224.973 18.3607 225.187 18.3612C225.207 18.3612 225.228 18.3612 225.248 18.3613C225.339 18.3615 225.43 18.3618 225.52 18.3621C226.983 18.3671 228.273 18.3837 229.388 18.4117C229.738 18.4205 230.071 18.4304 230.387 18.4415C230.634 18.4501 230.871 18.4595 231.097 18.4696C231.197 18.474 231.295 18.4786 231.391 18.4833C231.477 18.4875 231.561 18.4918 231.644 18.4963C232.174 18.5247 232.653 18.561 233.081 18.6051C233.102 18.6072 233.123 18.6094 233.144 18.6116C233.45 18.644 233.73 18.6805 233.983 18.7211C234.032 18.729 234.08 18.737 234.127 18.7452C234.39 18.7908 234.621 18.8411 234.822 18.8962C234.86 18.9065 234.896 18.9169 234.931 18.9275C235.015 18.9526 235.092 18.9787 235.164 19.0056C235.825 19.232 236.155 19.5602 236.155 19.9904C236.155 20.1009 236.143 20.206 236.118 20.3057C236.043 20.6146 235.85 20.8716 235.54 21.077C235.265 21.2439 234.857 21.3803 234.316 21.4862C234.286 21.4921 234.256 21.4978 234.225 21.5035C233.982 21.5483 233.714 21.5872 233.421 21.6203C232.881 21.6702 232.231 21.7063 231.471 21.7287C231.462 21.729 231.453 21.7292 231.444 21.7295C230.83 21.7472 230.145 21.7561 229.388 21.7561C227.657 21.7561 226.13 21.6769 224.809 21.5184C224.716 21.5055 224.625 21.4923 224.535 21.4787C223.364 21.3015 222.418 21.0657 221.699 20.7714C220.924 20.4318 220.457 20.0243 220.298 19.5489H210.968C210.968 20.0393 211.019 20.5113 211.121 20.9648C211.129 21.0023 211.138 21.0397 211.147 21.077C211.273 21.5874 211.463 22.0741 211.72 22.5371C212.012 23.0301 212.376 23.4985 212.811 23.9421C213.043 24.1792 213.296 24.4093 213.569 24.6323C213.7 24.7392 213.835 24.8444 213.975 24.9481C214.955 25.6498 216.151 26.2497 217.564 26.7478C218.976 27.2232 220.582 27.5854 222.382 27.8344C224.205 28.0834 226.199 28.2079 228.363 28.2079C232.191 28.2079 235.289 27.9476 237.659 27.4269C240.028 26.9062 241.76 26.1026 242.853 25.016C243.175 24.6962 243.45 24.3491 243.677 23.9745C244.221 23.0759 244.494 22.0196 244.494 20.8053C244.494 20.114 244.379 19.488 244.148 18.9275C244.046 18.6805 243.923 18.4462 243.776 18.2246C243.744 18.1749 243.711 18.1259 243.677 18.0774C243.676 18.0759 243.675 18.0744 243.674 18.073C243.19 17.3944 242.45 16.8338 241.452 16.3909C240.863 16.1236 240.169 15.8956 239.371 15.707C238.749 15.5603 238.065 15.4374 237.317 15.3383C237.078 15.3035 236.832 15.2711 236.579 15.2412C236.538 15.2364 236.497 15.2316 236.456 15.2268C235.94 15.168 235.396 15.119 234.822 15.08C233.911 15.018 232.926 14.981 231.869 14.9691C231.857 14.9689 231.845 14.9688 231.833 14.9687C231.829 14.9686 231.824 14.9686 231.82 14.9685C231.583 14.966 231.342 14.9648 231.097 14.9648C230.675 14.9648 230.267 14.9639 229.873 14.9623C229.868 14.9623 229.862 14.9622 229.856 14.9622C228.871 14.958 227.975 14.9486 227.167 14.9341C226.613 14.9241 226.1 14.9117 225.629 14.8968C225.389 14.8893 225.158 14.8808 224.936 14.8713C224.799 14.8655 224.665 14.8593 224.535 14.8527C224.375 14.8446 224.22 14.836 224.07 14.8268C223.473 14.7904 222.958 14.7453 222.524 14.6915C222.519 14.6909 222.515 14.6904 222.511 14.6898C222.431 14.6799 222.354 14.6697 222.28 14.6592C221.948 14.6009 221.657 14.5364 221.409 14.4656C221.078 14.3714 220.822 14.2661 220.639 14.1498C220.32 13.9461 220.161 13.6744 220.161 13.3348C220.161 13.2567 220.169 13.1812 220.185 13.1085C220.305 12.5705 220.866 12.1819 221.87 11.9426C221.936 11.9271 222.005 11.912 222.075 11.8974C222.264 11.8579 222.468 11.8217 222.686 11.7887C222.719 11.7838 222.751 11.779 222.785 11.7742C223.373 11.6894 224.062 11.6272 224.851 11.5875C225.133 11.5733 225.427 11.562 225.734 11.5536C226.184 11.5413 226.662 11.5351 227.167 11.5351C228.702 11.5351 230.012 11.619 231.097 11.7869C231.703 11.8805 232.238 12.0004 232.703 12.1463C233.919 12.5066 234.616 13.0256 234.793 13.7034C234.805 13.7496 234.815 13.7965 234.822 13.8442H243.674C243.674 13.1867 243.599 12.5652 243.449 11.9798C243.443 11.9597 243.438 11.9396 243.433 11.9195C243.411 11.8387 243.388 11.7585 243.364 11.679C243.023 10.5716 242.403 9.59885 241.502 8.76085C240.944 8.24167 240.278 7.7742 239.504 7.35844C236.747 5.8417 232.749 5.08333 227.509 5.08333C223.932 5.08333 220.947 5.36631 218.555 5.93225C216.185 6.47556 214.408 7.31316 213.223 8.44506C213.05 8.61047 212.89 8.78267 212.742 8.96167ZM248.754 27.5288H257.298V5.79643H248.754V27.5288ZM262.376 10.2647C262.065 10.9912 261.909 11.7996 261.909 12.6897C261.909 13.3394 262.016 13.9314 262.229 14.4656C262.273 14.5764 262.322 14.6848 262.376 14.7907C262.459 14.9567 262.555 15.1166 262.661 15.2704C263.162 15.9721 263.937 16.5607 264.985 17.0361C265.695 17.3363 266.53 17.5867 267.49 17.7874C267.849 17.8624 268.226 17.9305 268.62 17.9916C268.762 18.0136 268.905 18.0346 269.052 18.0548C269.579 18.1194 270.137 18.1738 270.726 18.2179C271.158 18.2502 271.607 18.2771 272.072 18.2984C272.112 18.3002 272.152 18.302 272.192 18.3038C272.495 18.317 272.805 18.3279 273.121 18.3365C273.145 18.3371 273.168 18.3377 273.192 18.3383C273.543 18.3474 273.902 18.3537 274.271 18.3572C274.498 18.3594 274.73 18.3604 274.964 18.3604C275.185 18.3604 275.402 18.3607 275.615 18.3612C275.636 18.3612 275.656 18.3612 275.677 18.3613C275.768 18.3615 275.859 18.3618 275.949 18.3621C277.412 18.3671 278.701 18.3837 279.817 18.4117C280.167 18.4205 280.5 18.4304 280.816 18.4415C281.063 18.4502 281.299 18.4595 281.526 18.4696C281.626 18.474 281.724 18.4786 281.82 18.4833C281.906 18.4875 281.99 18.4918 282.073 18.4963C282.602 18.5247 283.081 18.561 283.51 18.6051C283.531 18.6072 283.552 18.6094 283.572 18.6116C283.878 18.644 284.158 18.6805 284.412 18.7211C284.461 18.729 284.509 18.737 284.556 18.7452C284.818 18.7908 285.05 18.8411 285.251 18.8962C285.288 18.9065 285.325 18.9169 285.36 18.9275C285.444 18.9526 285.521 18.9787 285.593 19.0056C286.253 19.232 286.584 19.5602 286.584 19.9904C286.584 20.1009 286.571 20.206 286.547 20.3057C286.471 20.6146 286.279 20.8716 285.969 21.077C285.694 21.2439 285.286 21.3803 284.745 21.4862C284.715 21.4921 284.684 21.4979 284.653 21.5035C284.411 21.5483 284.143 21.5872 283.85 21.6203C283.31 21.6702 282.66 21.7063 281.899 21.7287C281.89 21.729 281.881 21.7292 281.872 21.7295C281.259 21.7472 280.574 21.7561 279.817 21.7561C278.085 21.7561 276.559 21.6769 275.237 21.5184C275.145 21.5055 275.054 21.4923 274.964 21.4787C273.793 21.3015 272.847 21.0657 272.128 20.7714C271.353 20.4318 270.886 20.0243 270.726 19.5489H261.396C261.396 20.0393 261.448 20.5113 261.55 20.9648C261.674 21.5162 261.873 22.0403 262.148 22.5371C262.22 22.6576 262.296 22.7766 262.376 22.8942C262.798 23.5147 263.339 24.094 263.997 24.6323C264.128 24.7392 264.264 24.8444 264.404 24.9481C265.384 25.6498 266.58 26.2497 267.992 26.7478C269.405 27.2232 271.011 27.5854 272.811 27.8344C274.634 28.0834 276.627 28.2079 278.792 28.2079C282.619 28.2079 285.718 27.9476 288.087 27.4269C290.457 26.9062 292.188 26.1026 293.282 25.016C294.376 23.9294 294.922 22.5258 294.922 20.8053C294.922 20.114 294.807 19.488 294.577 18.9275C294.475 18.6805 294.351 18.4462 294.205 18.2246C294.172 18.1734 294.138 18.1229 294.102 18.073C293.619 17.3944 292.878 16.8338 291.881 16.3909C291.291 16.1236 290.598 15.8956 289.799 15.707C289.178 15.5603 288.493 15.4374 287.746 15.3383C287.507 15.3035 287.261 15.2711 287.008 15.2412C286.967 15.2364 286.926 15.2316 286.884 15.2268C286.369 15.168 285.824 15.119 285.251 15.08C284.34 15.018 283.355 14.981 282.297 14.9691C282.285 14.9689 282.274 14.9688 282.262 14.9687C282.257 14.9686 282.253 14.9686 282.249 14.9685C282.011 14.966 281.77 14.9648 281.526 14.9648C281.104 14.9648 280.696 14.9639 280.302 14.9623C280.296 14.9623 280.291 14.9622 280.285 14.9622C279.3 14.958 278.403 14.9487 277.596 14.9341C277.041 14.9241 276.529 14.9117 276.058 14.8968C275.818 14.8893 275.587 14.8808 275.365 14.8713C275.228 14.8655 275.094 14.8593 274.964 14.8527C274.804 14.8446 274.649 14.836 274.498 14.8268C273.902 14.7904 273.386 14.7453 272.952 14.6915C272.948 14.6909 272.944 14.6904 272.939 14.6898C272.86 14.6799 272.783 14.6697 272.709 14.6592C272.376 14.6009 272.086 14.5364 271.837 14.4656C271.507 14.3714 271.25 14.2661 271.068 14.1498C270.749 13.9461 270.59 13.6744 270.59 13.3348C270.59 13.2567 270.598 13.1812 270.614 13.1085C270.733 12.5705 271.295 12.1819 272.298 11.9426C272.365 11.9271 272.433 11.912 272.504 11.8974C272.693 11.8579 272.897 11.8217 273.115 11.7887C273.147 11.7838 273.18 11.779 273.213 11.7742C273.802 11.6894 274.491 11.6272 275.28 11.5875C275.562 11.5733 275.856 11.562 276.163 11.5536C276.613 11.5413 277.091 11.5351 277.596 11.5351C279.131 11.5351 280.441 11.619 281.526 11.7869C282.131 11.8805 282.667 12.0004 283.132 12.1463C284.348 12.5066 285.044 13.0256 285.222 13.7034C285.234 13.7496 285.244 13.7965 285.251 13.8442H294.102C294.102 13.1867 294.027 12.5652 293.877 11.9798C293.872 11.9597 293.867 11.9396 293.861 11.9195C293.84 11.8387 293.817 11.7585 293.792 11.679C293.452 10.5716 292.831 9.59885 291.93 8.76085C291.372 8.24167 290.706 7.7742 289.933 7.35844C287.176 5.8417 283.178 5.08333 277.937 5.08333C274.36 5.08333 271.376 5.36631 268.983 5.93225C266.614 6.47556 264.837 7.31316 263.652 8.44506C263.091 8.98043 262.666 9.58699 262.376 10.2647ZM47.6554 59.9135L47.6386 59.9086C44.9803 59.1341 42.3979 57.8248 40.5629 55.5831L40.5394 55.5545L40.5164 55.5255C38.753 53.3061 38 50.6745 38 47.9632C38 45.2537 38.7526 42.6148 40.537 40.3987L40.5421 40.3923C42.3811 38.1158 44.9781 36.7988 47.6555 36.0364C50.3859 35.2434 53.6683 34.9265 57.321 34.9265C59.7516 34.9265 62.0181 35.0668 64.0671 35.3943H81.7698L84.4731 40.6863L85.1001 39.372L85.8707 37.7569L86.9978 35.3943H100.511L101.639 37.7569L102.409 39.372L103.036 40.6863L105.739 35.3943H124.768L126.429 36.3672L128.469 37.5626L133.852 40.7166V35.3943H193.137C194.93 35.3943 196.684 35.5976 198.348 36.0749C199.661 36.4373 200.933 37.0175 202.063 37.8734C203.617 36.7046 205.438 36.0268 207.205 35.62C209.362 35.1118 211.834 34.9031 214.524 34.9031C217.847 34.9031 221.025 35.2899 223.729 36.386V35.3943H239.77V40.564H244.682V35.3943H285.126C286.532 35.3943 287.901 35.4956 289.221 35.7149C290.719 35.9447 292.196 36.3908 293.565 37.1405C295.157 38.0121 296.44 39.2721 297.342 40.8419C298.358 42.6073 298.679 44.5437 298.679 46.3258C298.679 48.0758 298.369 50.0827 297.244 51.8798C296.259 53.4532 294.869 54.6438 293.196 55.3901C291.842 55.9943 290.402 56.3277 288.958 56.4802C287.736 56.6109 286.456 56.6724 285.126 56.6724H279.75V60.5322H244.682V55.1753H239.77V60.5322H223.729V60.0598C223.351 60.1686 222.975 60.2624 222.604 60.3438C220.471 60.8126 217.931 61 215.112 61C213.43 61 211.824 60.9035 210.306 60.696L210.297 60.6948C208.809 60.4889 207.385 60.1768 206.055 59.7292L206.02 59.7176L205.986 59.7055C205.732 59.616 205.48 59.5209 205.23 59.42V60.5322H189.189V56.3215H185.901V60.5322H137.575L135.98 59.6144L133.852 58.3905L128.469 55.2934V60.5322H112.428V56.2412L111.367 58.1478L110.523 59.6644L110.039 60.5322H96.0051L95.3948 59.348H93.7546H92.1144L91.5041 60.5322H77.4861L76.9975 59.6642L76.1431 58.1465L74.4277 55.0996C74.3161 55.253 74.1999 55.4046 74.079 55.5543C72.2526 57.821 69.6595 59.1347 67.0035 59.9086L66.9867 59.9135L66.9698 59.9183C64.25 60.6904 60.9746 61 57.321 61C53.6675 61 50.3921 60.6904 47.6723 59.9183L47.6554 59.9135ZM70.1285 52.361C70.7497 51.592 71.1694 50.7047 71.3875 49.6993C71.5056 49.1552 71.5646 48.5765 71.5646 47.9632C71.5646 46.2166 71.0859 44.7585 70.1285 43.5888C69.7575 43.1219 69.2975 42.701 68.7487 42.326C68.1509 41.9176 67.4477 41.5638 66.6389 41.2645C66.6096 41.2536 66.5802 41.2429 66.5507 41.2322C66.2436 41.1211 65.9216 41.0177 65.5847 40.9221C64.6248 40.6424 63.5239 40.4271 62.2819 40.276C62.2626 40.2736 62.2432 40.2713 62.2238 40.269C60.7791 40.0962 59.1448 40.0098 57.321 40.0098C55.4757 40.0098 53.8244 40.0982 52.3671 40.2751C52.3514 40.2771 52.3357 40.279 52.32 40.2809C51.0945 40.4317 50.0069 40.6454 49.0574 40.9221C48.5625 41.0626 48.0993 41.2198 47.6678 41.3936C46.2797 41.9529 45.2205 42.6847 44.4901 43.5888C43.5484 44.7585 43.0775 46.2166 43.0775 47.9632C43.0775 49.7099 43.5484 51.1758 44.4901 52.361C45.2172 53.2493 46.2702 53.9756 47.6491 54.5401C48.0859 54.7189 48.5553 54.8814 49.0574 55.0278C50.0052 55.2968 51.0905 55.5048 52.3133 55.6517C52.3349 55.6543 52.3566 55.6569 52.3783 55.6594C53.8329 55.8309 55.4804 55.9167 57.321 55.9167C59.1437 55.9167 60.7771 55.8326 62.2212 55.6644C62.2405 55.6622 62.2599 55.6599 62.2791 55.6576C63.5222 55.5104 64.6241 55.3004 65.5847 55.0278C65.921 54.9298 66.2424 54.8245 66.549 54.7119C68.1453 54.1258 69.3385 53.3422 70.1285 52.361ZM64.1777 50.1879C64.1877 50.1805 64.1977 50.1731 64.2075 50.1657C64.2193 50.1567 64.2311 50.1477 64.2427 50.1387C64.2522 50.1311 64.2617 50.1234 64.2711 50.1157C64.8957 49.6025 65.208 48.885 65.208 47.9632C65.208 47.0412 64.8955 46.3311 64.2706 45.8331C64.2614 45.8257 64.2521 45.8184 64.2427 45.8111C64.2311 45.8019 64.2195 45.7927 64.2077 45.7835C64.1979 45.7759 64.188 45.7683 64.1781 45.7607C63.5388 45.2735 62.65 44.9394 61.5117 44.7585C60.3346 44.5557 58.9377 44.4544 57.321 44.4544C55.7044 44.4544 54.284 44.5557 53.0598 44.7585C51.9763 44.9262 51.1009 45.2256 50.4337 45.6566C50.4238 45.6631 50.4138 45.6695 50.404 45.6761C50.3376 45.7197 50.2733 45.7648 50.2111 45.8111C50.1601 45.8488 50.1111 45.8877 50.064 45.9278C49.4872 46.4197 49.1987 47.0981 49.1987 47.9632C49.1987 48.8277 49.4867 49.5124 50.0627 50.0175C50.1102 50.0591 50.1597 50.0995 50.2111 50.1387C50.2735 50.1839 50.3381 50.2278 50.4049 50.2705C50.4148 50.2769 50.4248 50.2832 50.4348 50.2895C51.1019 50.7091 51.9768 51.0097 53.0598 51.1914C54.284 51.3785 55.7044 51.4721 57.321 51.4721C58.9377 51.4721 60.3346 51.3785 61.5117 51.1914C62.6498 50.9954 63.5385 50.6609 64.1777 50.1879ZM80.4528 55.4488H88.4103L93.7546 45.0787L99.0989 55.4488H107.056L115.391 40.4776H108.846L102.881 52.1548L97.3096 40.4776H90.1996L84.6286 52.1548L78.6635 40.4776H72.0244L80.4528 55.4488ZM117.506 55.4488H123.391V46.5094L138.93 55.4488H144.816V40.4776H138.93V49.5811L123.391 40.4776H117.506V55.4488ZM148.107 55.4488H171.885V51.0042H153.993V49.1329H168.589V46.7936H153.993V44.9222H171.838V40.4776H148.107V55.4488ZM174.938 55.4488H180.824V51.2382H190.029C191.081 51.2382 191.902 51.271 192.491 51.3367C192.598 51.3487 192.697 51.3616 192.789 51.3757C192.795 51.3767 192.801 51.3776 192.807 51.3785C192.91 51.3943 193.007 51.4124 193.098 51.4326C193.111 51.4355 193.124 51.4384 193.137 51.4414C193.562 51.5412 193.845 51.6918 193.984 51.8932C194.082 52.0143 194.154 52.1669 194.201 52.3509C194.245 52.522 194.267 52.7203 194.267 52.9458V55.4488H200.152V52.244C200.152 51.5579 199.948 51.0354 199.54 50.6768C199.42 50.562 199.27 50.4582 199.091 50.3655C199.015 50.3261 198.933 50.2886 198.846 50.2532C198.74 50.2099 198.626 50.1695 198.504 50.1321C198.364 50.0891 198.213 50.0501 198.051 50.0149C197.857 49.9725 197.647 49.9358 197.421 49.9048C197.309 49.8891 197.191 49.8742 197.068 49.8601C197.025 49.8551 196.981 49.8503 196.937 49.8455C196.84 49.8351 196.739 49.8251 196.636 49.8156C196.773 49.7928 196.91 49.7679 197.045 49.7411C197.065 49.7371 197.085 49.733 197.105 49.7288C197.224 49.7041 197.342 49.6769 197.457 49.6471C197.662 49.5941 197.86 49.533 198.051 49.4641C198.164 49.4233 198.274 49.3797 198.382 49.3333C198.572 49.2517 198.754 49.1615 198.928 49.0627C199.031 49.0041 199.13 48.9411 199.225 48.8737C199.266 48.8448 199.306 48.815 199.345 48.7844C199.701 48.5072 199.993 48.1633 200.223 47.7527C200.537 47.1913 200.694 46.4817 200.694 45.624C200.694 45.5885 200.694 45.5531 200.693 45.518C200.692 45.4192 200.688 45.3219 200.683 45.2263C200.676 45.1043 200.665 44.985 200.652 44.8683C200.543 43.9255 200.219 43.1559 199.681 42.5596C199.475 42.3247 199.244 42.1114 198.989 41.9196C198.432 41.4998 197.76 41.1829 196.974 40.9689C196.876 40.9403 196.776 40.913 196.675 40.887C196.637 40.8771 196.599 40.8674 196.56 40.8579C196.464 40.8341 196.366 40.8114 196.268 40.7898C195.319 40.5817 194.275 40.4776 193.137 40.4776H174.938V55.4488ZM180.824 47.3316H193.137C193.211 47.3316 193.284 47.3297 193.354 47.3258C193.378 47.3244 193.402 47.3229 193.426 47.3211C193.431 47.3207 193.437 47.3202 193.442 47.3198C193.46 47.3184 193.478 47.3168 193.496 47.3151C193.518 47.3129 193.54 47.3105 193.562 47.3079C193.849 47.2741 194.1 47.204 194.314 47.0977C194.489 47.0149 194.617 46.8924 194.699 46.7304C194.718 46.6931 194.735 46.6537 194.749 46.6122C194.788 46.4946 194.808 46.3601 194.808 46.2088C194.808 45.9864 194.758 45.8039 194.659 45.6613C194.658 45.6597 194.657 45.658 194.656 45.6564C194.575 45.5413 194.46 45.4526 194.314 45.3901C194.203 45.3351 194.083 45.2898 193.953 45.2543C193.785 45.2084 193.601 45.1786 193.401 45.1649C193.386 45.1638 193.37 45.1629 193.354 45.162C193.288 45.1583 193.22 45.1564 193.151 45.1562C193.146 45.1561 193.141 45.1561 193.137 45.1561H180.824V47.3316ZM204.683 42.3022C203.964 42.988 203.568 43.8434 203.494 44.8683C203.486 44.9854 203.482 45.1047 203.482 45.2263C203.482 45.3626 203.489 45.4951 203.502 45.624C203.557 46.1441 203.723 46.6042 204 47.0041C204.196 47.2793 204.454 47.5292 204.772 47.7539C204.98 47.9 205.213 48.0355 205.472 48.1602C205.514 48.1806 205.557 48.2007 205.601 48.2205C206.273 48.5046 207.107 48.724 208.105 48.8787C208.202 48.8939 208.302 48.9084 208.402 48.9223C208.766 48.9668 209.15 49.0043 209.556 49.0346C209.853 49.0569 210.162 49.0754 210.483 49.0901C210.51 49.0914 210.538 49.0926 210.566 49.0938C210.774 49.1029 210.988 49.1104 211.206 49.1163C211.222 49.1168 211.238 49.1172 211.254 49.1176C211.391 49.1211 211.529 49.1241 211.669 49.1264C211.676 49.1265 211.682 49.1266 211.689 49.1267C211.791 49.1283 211.894 49.1296 211.997 49.1306C212.154 49.1321 212.314 49.1329 212.475 49.1329C212.597 49.1329 212.717 49.1329 212.835 49.1332C212.865 49.1332 212.894 49.1333 212.924 49.1333C212.938 49.1334 212.952 49.1334 212.966 49.1334C213.029 49.1336 213.092 49.1338 213.154 49.134C213.55 49.1353 213.928 49.1379 214.288 49.1418C214.499 49.144 214.704 49.1467 214.902 49.1498C215.126 49.1532 215.342 49.1573 215.549 49.1618C215.633 49.1637 215.716 49.1656 215.797 49.1676C215.804 49.1678 215.811 49.168 215.818 49.1682C216.148 49.1765 216.456 49.1862 216.742 49.1974C216.767 49.1984 216.792 49.1994 216.816 49.2004C216.877 49.2029 216.937 49.2054 216.996 49.208C217.126 49.2138 217.252 49.2199 217.372 49.2264C217.737 49.246 218.067 49.271 218.362 49.3014C218.377 49.3029 218.391 49.3044 218.405 49.3059C218.616 49.3282 218.809 49.3534 218.984 49.3813C219.017 49.3868 219.051 49.3923 219.083 49.3979C219.264 49.4293 219.423 49.464 219.562 49.5019C219.649 49.5258 219.727 49.5509 219.797 49.5773C220.252 49.7333 220.48 49.9594 220.48 50.2557C220.48 50.3069 220.476 50.3565 220.468 50.4043C220.463 50.4379 220.456 50.4707 220.447 50.5026C220.39 50.7022 220.26 50.8694 220.056 51.0042C219.997 51.0398 219.93 51.0734 219.854 51.105C219.684 51.1754 219.47 51.2358 219.213 51.2861C219.192 51.2902 219.171 51.2942 219.15 51.2981C218.983 51.3289 218.798 51.3557 218.596 51.3785C218.225 51.4129 217.777 51.4378 217.253 51.4532C217.169 51.4557 217.083 51.4579 216.996 51.4599C216.636 51.468 216.244 51.4721 215.818 51.4721C215.734 51.4721 215.65 51.4718 215.567 51.4713C215.413 51.4703 215.261 51.4683 215.112 51.4654C214.377 51.4511 213.701 51.4139 213.084 51.3539C212.94 51.3399 212.8 51.3248 212.664 51.3084C212.6 51.2995 212.537 51.2903 212.475 51.281C212.167 51.2343 211.881 51.1818 211.618 51.1234C211.616 51.1228 211.613 51.1222 211.611 51.1217C211.189 51.0276 210.826 50.9183 210.521 50.7937C210.457 50.7655 210.396 50.7366 210.337 50.7071C210.294 50.6849 210.252 50.6624 210.212 50.6395C209.988 50.5115 209.818 50.3717 209.701 50.22C209.636 50.1343 209.587 50.0448 209.556 49.9516H203.129C203.129 50.616 203.265 51.2313 203.537 51.7974C203.571 51.8691 203.608 51.94 203.647 52.0101C203.691 52.0844 203.737 52.1579 203.786 52.2305C203.789 52.235 203.792 52.2395 203.795 52.244C203.817 52.2766 203.84 52.309 203.862 52.3412C204.108 52.6858 204.407 53.0117 204.761 53.3188C204.899 53.4391 205.046 53.5565 205.2 53.671C205.21 53.678 205.22 53.685 205.23 53.6919C205.778 54.0802 206.422 54.4228 207.164 54.7197C207.329 54.7857 207.498 54.8494 207.673 54.9108C207.799 54.9535 207.929 54.9949 208.06 55.0349C208.236 55.0885 208.415 55.1396 208.599 55.1884C208.638 55.1986 208.676 55.2087 208.715 55.2187C209.416 55.3994 210.175 55.5463 210.992 55.6593C211.333 55.706 211.683 55.7462 212.041 55.7802C212.07 55.7829 212.099 55.7856 212.128 55.7882C213.064 55.8738 214.059 55.9167 215.112 55.9167C215.352 55.9167 215.587 55.9152 215.818 55.9122C216.984 55.8973 218.045 55.8447 219 55.7546C219.03 55.7518 219.059 55.749 219.088 55.7461C219.993 55.6578 220.803 55.5354 221.516 55.3786C221.88 55.2986 222.223 55.2088 222.543 55.1093C222.606 55.0898 222.668 55.0698 222.73 55.0495C223.003 54.9589 223.26 54.8608 223.5 54.7552C223.578 54.7209 223.654 54.6858 223.729 54.6499C224.282 54.3829 224.738 54.0722 225.094 53.7178C225.786 53.0308 226.16 52.1598 226.217 51.105C226.222 51.0105 226.224 50.9145 226.224 50.8171C226.224 50.1309 226.06 49.5383 225.73 49.0393C225.707 49.004 225.684 48.9692 225.659 48.9348C225.558 48.7928 225.441 48.6583 225.307 48.5314C225 48.2402 224.608 47.9885 224.129 47.7761C224.003 47.7187 223.869 47.664 223.729 47.6119C223.067 47.3665 222.251 47.1796 221.28 47.0509C221.116 47.027 220.947 47.0047 220.772 46.984C220.744 46.9807 220.716 46.9774 220.687 46.9741C220.332 46.9336 219.957 46.8999 219.562 46.873C219.124 46.8432 218.662 46.8218 218.175 46.8088C218.144 46.808 218.113 46.8072 218.081 46.8064C217.9 46.802 217.715 46.7987 217.527 46.7966C217.52 46.7965 217.514 46.7964 217.507 46.7963L217.502 46.7963C217.499 46.7963 217.496 46.7962 217.493 46.7962C217.421 46.7954 217.348 46.7948 217.274 46.7944C217.253 46.7943 217.232 46.7942 217.211 46.7941C217.14 46.7938 217.068 46.7936 216.996 46.7936C216.584 46.7936 216.191 46.7925 215.818 46.7902C215.391 46.7876 214.99 46.7834 214.614 46.7778C214.541 46.7767 214.469 46.7756 214.397 46.7744C214.361 46.7738 214.324 46.7731 214.288 46.7725C214.135 46.7697 213.986 46.7667 213.843 46.7634C213.691 46.7599 213.545 46.7562 213.404 46.7521C213.368 46.7511 213.333 46.75 213.298 46.749C213.275 46.7483 213.252 46.7475 213.229 46.7468C213.222 46.7466 213.216 46.7464 213.209 46.7462C212.949 46.7379 212.705 46.728 212.475 46.7164C212.419 46.7136 212.363 46.7106 212.308 46.7076C212.269 46.7054 212.23 46.7031 212.192 46.7009C211.765 46.6753 211.398 46.6435 211.089 46.6053C211.086 46.605 211.083 46.6046 211.08 46.6042C211.025 46.5974 210.973 46.5903 210.921 46.5831C210.388 46.4895 210.011 46.3725 209.791 46.2322C209.689 46.1668 209.611 46.0914 209.556 46.0058C209.493 45.9075 209.462 45.7958 209.462 45.6708C209.462 45.6221 209.466 45.5749 209.475 45.5293C209.478 45.5189 209.48 45.5085 209.482 45.4982C209.488 45.4757 209.495 45.4537 209.503 45.432C209.517 45.3931 209.534 45.3553 209.556 45.3188C209.662 45.1383 209.858 44.9881 210.144 44.8683C210.287 44.8085 210.452 44.7563 210.639 44.7117C210.685 44.701 210.732 44.6906 210.78 44.6805C210.911 44.6533 211.051 44.6284 211.201 44.6057C211.224 44.6023 211.246 44.599 211.269 44.5957C211.62 44.5452 212.022 44.5063 212.475 44.479C212.734 44.4635 213.009 44.4517 213.301 44.4437C213.611 44.4352 213.94 44.431 214.288 44.431C214.313 44.431 214.337 44.431 214.362 44.4311C214.416 44.4312 214.47 44.4315 214.524 44.4319C215.48 44.44 216.304 44.4974 216.996 44.6044C217.215 44.6383 217.421 44.6772 217.614 44.7212C217.787 44.7607 217.95 44.8044 218.102 44.852C218.753 45.0449 219.188 45.3038 219.407 45.6288C219.489 45.7505 219.54 45.8814 219.562 46.0216H225.659C225.659 45.5687 225.608 45.1406 225.504 44.7374C225.501 44.7235 225.497 44.7096 225.493 44.6958C225.257 43.8085 224.768 43.0425 224.027 42.3977C223.932 42.3147 223.832 42.2337 223.729 42.1547C223.446 41.9394 223.132 41.7391 222.787 41.5537C222.569 41.4336 222.339 41.3204 222.098 41.2142C221.877 41.1164 221.646 41.0244 221.405 40.9383C220.823 40.7301 220.185 40.556 219.491 40.4161C219.466 40.4113 219.442 40.4064 219.418 40.4016C218.013 40.1248 216.382 39.9864 214.524 39.9864C214.445 39.9864 214.366 39.9866 214.288 39.987C212.515 39.9961 210.957 40.1083 209.615 40.3237C209.609 40.3247 209.602 40.3258 209.596 40.3269C209.159 40.3974 208.746 40.4788 208.355 40.5712C207.7 40.7214 207.111 40.9042 206.588 41.1196C206.027 41.3503 205.542 41.6183 205.132 41.9237C204.971 42.0441 204.821 42.1703 204.683 42.3022ZM228.806 55.4488H234.692V50.0919H249.76V55.4488H255.645V40.4776H249.76V45.6474H234.692V40.4776H228.806V55.4488ZM95.3948 59.348L93.7546 56.1653L93.0644 57.5046L92.1144 59.348H95.3948ZM192.041 56.4036C192.05 56.4052 192.048 56.4052 192.035 56.4028L192.041 56.4036ZM274.673 55.4488V51.5891H285.126C285.437 51.5891 285.743 51.5852 286.044 51.5776C286.879 51.5563 287.672 51.5056 288.422 51.4253C288.631 51.4033 288.834 51.3765 289.032 51.345C289.065 51.3398 289.098 51.3344 289.13 51.3289C289.798 51.2163 290.402 51.0487 290.944 50.8261C291.007 50.8004 291.068 50.774 291.129 50.7469C291.898 50.4038 292.503 49.8814 292.942 49.1796C293.381 48.4779 293.601 47.5266 293.601 46.3258C293.601 45.1249 293.381 44.1425 292.942 43.3783C292.503 42.6142 291.898 42.0215 291.129 41.6005C290.797 41.4184 290.439 41.2611 290.057 41.1287C289.79 41.0361 289.511 40.9557 289.219 40.8874C289.191 40.8806 289.162 40.874 289.133 40.8675C288.903 40.8159 288.666 40.7717 288.422 40.735C287.672 40.6088 286.879 40.529 286.044 40.4957C285.743 40.4836 285.437 40.4776 285.126 40.4776H268.787V55.4488H274.673ZM274.673 47.4954H286.044C286.123 47.4954 286.2 47.4934 286.274 47.4895C286.29 47.4886 286.305 47.4877 286.32 47.4867C286.671 47.4641 286.971 47.3968 287.221 47.2848C287.536 47.1357 287.701 46.8367 287.715 46.388C287.715 46.3676 287.715 46.3468 287.715 46.3258C287.715 46.0974 287.681 45.9066 287.612 45.7533C287.604 45.7366 287.596 45.7202 287.588 45.7044C287.506 45.5483 287.383 45.4358 287.221 45.3667C286.96 45.2498 286.644 45.1816 286.274 45.162C286.255 45.1611 286.237 45.1602 286.218 45.1595C286.161 45.1572 286.103 45.1561 286.044 45.1561H274.673V47.4954ZM259.301 40.4776V55.4488H265.187V40.4776H259.301Z" fill="url(#paint0_linear_678_32)"/>
<path d="M0 89.2742C0 87.4659 0.897512 86 2.00465 86H336.995C338.103 86 339 87.4659 339 89.2742V96.7258C339 98.5341 338.103 100 336.995 100H2.00465C0.897518 100 0 98.5341 0 96.7258V89.2742Z" fill="url(#paint1_linear_678_32)"/>
<path d="M0 78C0 76.8954 0.67356 76 1.50444 76H337.496C338.326 76 339 76.8954 339 78C339 79.1046 338.326 80 337.496 80H1.50444C0.673558 80 0 79.1046 0 78Z" fill="url(#paint2_linear_678_32)"/>
<path d="M28 191.136C28 177.806 38.9611 167 52.4824 167H252.518C266.039 167 277 177.806 277 191.136V271.864C277 285.194 266.039 296 252.518 296H52.4824C38.9612 296 28 285.194 28 271.864V191.136Z" fill="white"/>
<path d="M53.483 205.871V196.49H50V194H59.9633V196.49H56.4468V205.871H53.483Z" fill="#272637"/>
<path d="M60.8994 205.871V194H63.6289V198.416H63.6791C64.3377 197.553 65.1861 197.121 66.2243 197.121C67.1509 197.121 67.8765 197.42 68.4012 198.018C68.937 198.604 69.2049 199.379 69.2049 200.342V205.871H66.4755V200.89C66.4755 200.425 66.3583 200.06 66.1239 199.794C65.9006 199.518 65.5713 199.379 65.1359 199.379C64.6894 199.379 64.3266 199.545 64.0475 199.877C63.7684 200.209 63.6289 200.641 63.6289 201.172V205.871H60.8994Z" fill="#272637"/>
<path d="M70.4493 205.871V197.37H73.1787V205.871H70.4493ZM70.4493 196.192V194H73.1787V196.192H70.4493Z" fill="#272637"/>
<path d="M78.1388 206.136C76.8885 206.136 75.8894 205.871 75.1414 205.34C74.4047 204.797 74.0139 204.056 73.9693 203.115H76.548C76.6485 203.956 77.1732 204.377 78.122 204.377C78.5351 204.377 78.8588 204.305 79.0933 204.161C79.3388 204.006 79.4616 203.795 79.4616 203.53C79.4616 203.441 79.4505 203.364 79.4282 203.297C79.4058 203.231 79.3668 203.17 79.3109 203.115C79.2551 203.059 79.1993 203.01 79.1435 202.965C79.0988 202.921 79.0263 202.882 78.9258 202.849C78.8253 202.805 78.736 202.772 78.6579 202.75C78.5909 202.727 78.4849 202.705 78.3397 202.683C78.2058 202.65 78.0997 202.628 78.0216 202.617C77.9434 202.595 77.8206 202.572 77.6532 202.55C77.4857 202.517 77.3629 202.495 77.2848 202.484C76.9276 202.429 76.6262 202.373 76.3806 202.318C76.135 202.251 75.8615 202.152 75.5601 202.019C75.2698 201.886 75.0298 201.737 74.84 201.571C74.6614 201.394 74.5107 201.161 74.3879 200.873C74.2651 200.575 74.2037 200.231 74.2037 199.844C74.2037 198.981 74.5554 198.311 75.2587 197.835C75.9619 197.359 76.8438 197.121 77.9044 197.121C79.0988 197.121 80.0254 197.365 80.684 197.852C81.3427 198.328 81.7055 198.992 81.7725 199.844H79.2607C79.1714 199.18 78.7137 198.848 77.8876 198.848C77.5304 198.848 77.2401 198.914 77.0169 199.047C76.8048 199.18 76.6987 199.374 76.6987 199.628C76.6987 199.695 76.7099 199.756 76.7322 199.811C76.7545 199.866 76.788 199.916 76.8327 199.96C76.8885 200.005 76.9387 200.043 76.9834 200.077C77.0392 200.11 77.1118 200.143 77.2011 200.176C77.2904 200.209 77.3685 200.237 77.4355 200.259C77.5136 200.281 77.6141 200.303 77.7369 200.326C77.8709 200.348 77.9769 200.37 78.0551 200.392C78.1444 200.403 78.2616 200.425 78.4067 200.458C78.5518 200.481 78.6691 200.497 78.7584 200.508C79.1379 200.575 79.4505 200.635 79.6961 200.691C79.9417 200.746 80.2263 200.846 80.5501 200.99C80.885 201.122 81.1473 201.283 81.3371 201.471C81.5269 201.648 81.6887 201.897 81.8227 202.218C81.9678 202.528 82.0404 202.893 82.0404 203.314C82.0404 204.222 81.6776 204.919 80.952 205.406C80.2375 205.893 79.2998 206.136 78.1388 206.136Z" fill="#272637"/>
<path d="M85.5263 205.871V197.37H88.2558V205.871H85.5263ZM85.5263 196.192V194H88.2558V196.192H85.5263Z" fill="#272637"/>
<path d="M93.2158 206.136C91.9655 206.136 90.9664 205.871 90.2185 205.34C89.4817 204.797 89.091 204.056 89.0463 203.115H91.6251C91.7255 203.956 92.2502 204.377 93.1991 204.377C93.6121 204.377 93.9359 204.305 94.1703 204.161C94.4159 204.006 94.5387 203.795 94.5387 203.53C94.5387 203.441 94.5275 203.364 94.5052 203.297C94.4829 203.231 94.4438 203.17 94.388 203.115C94.3322 203.059 94.2763 203.01 94.2205 202.965C94.1759 202.921 94.1033 202.882 94.0028 202.849C93.9024 202.805 93.8131 202.772 93.7349 202.75C93.6679 202.727 93.5619 202.705 93.4168 202.683C93.2828 202.65 93.1768 202.628 93.0986 202.617C93.0205 202.595 92.8977 202.572 92.7302 202.55C92.5628 202.517 92.44 202.495 92.3618 202.484C92.0046 202.429 91.7032 202.373 91.4576 202.318C91.212 202.251 90.9385 202.152 90.6371 202.019C90.3469 201.886 90.1068 201.737 89.9171 201.571C89.7385 201.394 89.5877 201.161 89.465 200.873C89.3422 200.575 89.2808 200.231 89.2808 199.844C89.2808 198.981 89.6324 198.311 90.3357 197.835C91.039 197.359 91.9209 197.121 92.9814 197.121C94.1759 197.121 95.1024 197.365 95.7611 197.852C96.4197 198.328 96.7825 198.992 96.8495 199.844H94.3377C94.2484 199.18 93.7907 198.848 92.9647 198.848C92.6074 198.848 92.3172 198.914 92.0939 199.047C91.8818 199.18 91.7758 199.374 91.7758 199.628C91.7758 199.695 91.7869 199.756 91.8093 199.811C91.8316 199.866 91.8651 199.916 91.9097 199.96C91.9655 200.005 92.0158 200.043 92.0604 200.077C92.1162 200.11 92.1888 200.143 92.2781 200.176C92.3674 200.209 92.4456 200.237 92.5125 200.259C92.5907 200.281 92.6912 200.303 92.814 200.326C92.9479 200.348 93.054 200.37 93.1321 200.392C93.2214 200.403 93.3386 200.425 93.4837 200.458C93.6289 200.481 93.7461 200.497 93.8354 200.508C94.215 200.575 94.5275 200.635 94.7731 200.691C95.0187 200.746 95.3034 200.846 95.6271 200.99C95.962 201.122 96.2243 201.283 96.4141 201.471C96.6039 201.648 96.7658 201.897 96.8997 202.218C97.0449 202.528 97.1174 202.893 97.1174 203.314C97.1174 204.222 96.7546 204.919 96.029 205.406C95.3145 205.893 94.3768 206.136 93.2158 206.136Z" fill="#272637"/>
<path d="M104.003 205.97C103.132 205.97 102.457 205.799 101.976 205.456C101.508 205.102 101.273 204.493 101.273 203.629V199.064H100.135V197.37H101.273V194.681H103.936V197.37H105.493V199.064H103.936V203.048C103.936 203.358 104.014 203.574 104.17 203.696C104.338 203.818 104.578 203.879 104.89 203.879C104.979 203.879 105.097 203.879 105.242 203.879C105.387 203.867 105.471 203.862 105.493 203.862V205.838C105.18 205.926 104.684 205.97 104.003 205.97Z" fill="#272637"/>
<path d="M106.474 205.871V194H109.203V198.416H109.254C109.912 197.553 110.761 197.121 111.799 197.121C112.725 197.121 113.451 197.42 113.976 198.018C114.512 198.604 114.779 199.379 114.779 200.342V205.871H112.05V200.89C112.05 200.425 111.933 200.06 111.698 199.794C111.475 199.518 111.146 199.379 110.71 199.379C110.264 199.379 109.901 199.545 109.622 199.877C109.343 200.209 109.203 200.641 109.203 201.172V205.871H106.474Z" fill="#272637"/>
<path d="M120.21 206.12C118.826 206.12 117.715 205.699 116.878 204.858C116.052 204.006 115.639 202.921 115.639 201.604C115.639 200.32 116.046 199.252 116.861 198.4C117.687 197.547 118.748 197.121 120.043 197.121C121.215 197.121 122.192 197.475 122.973 198.184C124 199.114 124.502 200.492 124.48 202.318H118.318C118.407 202.904 118.614 203.364 118.937 203.696C119.261 204.017 119.697 204.177 120.244 204.177C120.947 204.177 121.421 203.895 121.667 203.331H124.329C124.128 204.15 123.648 204.819 122.889 205.34C122.141 205.86 121.248 206.12 120.21 206.12ZM118.335 200.707H121.717C121.672 200.198 121.499 199.794 121.198 199.495C120.908 199.197 120.539 199.047 120.093 199.047C119.122 199.047 118.536 199.601 118.335 200.707Z" fill="#272637"/>
<path d="M127.994 205.871V197.37H130.606V198.582H130.656C131.248 197.608 132.113 197.121 133.252 197.121C134.379 197.121 135.183 197.619 135.663 198.616H135.697C136.344 197.619 137.243 197.121 138.393 197.121C139.341 197.121 140.061 197.415 140.553 198.001C141.055 198.577 141.306 199.357 141.306 200.342V205.871H138.577V200.824C138.577 199.861 138.175 199.379 137.371 199.379C136.947 199.379 136.612 199.54 136.366 199.861C136.132 200.171 136.015 200.586 136.015 201.106V205.871H133.285V200.824C133.285 199.861 132.883 199.379 132.08 199.379C131.655 199.379 131.321 199.54 131.075 199.861C130.841 200.171 130.723 200.586 130.723 201.106V205.871H127.994Z" fill="#272637"/>
<path d="M145.394 203.513C145.707 203.978 146.153 204.211 146.734 204.211C147.314 204.211 147.761 203.978 148.073 203.513C148.397 203.048 148.559 202.423 148.559 201.637C148.559 200.851 148.397 200.226 148.073 199.761C147.761 199.285 147.314 199.047 146.734 199.047C146.153 199.047 145.707 199.28 145.394 199.744C145.082 200.209 144.925 200.84 144.925 201.637C144.925 202.423 145.082 203.048 145.394 203.513ZM150.049 204.858C149.212 205.71 148.113 206.136 146.751 206.136C145.389 206.136 144.284 205.71 143.435 204.858C142.587 204.006 142.163 202.932 142.163 201.637C142.163 200.342 142.587 199.269 143.435 198.416C144.284 197.564 145.389 197.138 146.751 197.138C148.113 197.138 149.212 197.564 150.049 198.416C150.898 199.269 151.322 200.342 151.322 201.637C151.322 202.932 150.898 204.006 150.049 204.858Z" fill="#272637"/>
<path d="M155.895 206.136C154.645 206.136 153.646 205.871 152.898 205.34C152.161 204.797 151.77 204.056 151.726 203.115H154.304C154.405 203.956 154.929 204.377 155.878 204.377C156.291 204.377 156.615 204.305 156.85 204.161C157.095 204.006 157.218 203.795 157.218 203.53C157.218 203.441 157.207 203.364 157.184 203.297C157.162 203.231 157.123 203.17 157.067 203.115C157.011 203.059 156.956 203.01 156.9 202.965C156.855 202.921 156.783 202.882 156.682 202.849C156.582 202.805 156.492 202.772 156.414 202.75C156.347 202.727 156.241 202.705 156.096 202.683C155.962 202.65 155.856 202.628 155.778 202.617C155.7 202.595 155.577 202.572 155.41 202.55C155.242 202.517 155.119 202.495 155.041 202.484C154.684 202.429 154.382 202.373 154.137 202.318C153.891 202.251 153.618 202.152 153.316 202.019C153.026 201.886 152.786 201.737 152.596 201.571C152.418 201.394 152.267 201.161 152.144 200.873C152.021 200.575 151.96 200.231 151.96 199.844C151.96 198.981 152.312 198.311 153.015 197.835C153.718 197.359 154.6 197.121 155.661 197.121C156.855 197.121 157.782 197.365 158.44 197.852C159.099 198.328 159.462 198.992 159.529 199.844H157.017C156.928 199.18 156.47 198.848 155.644 198.848C155.287 198.848 154.996 198.914 154.773 199.047C154.561 199.18 154.455 199.374 154.455 199.628C154.455 199.695 154.466 199.756 154.489 199.811C154.511 199.866 154.544 199.916 154.589 199.96C154.645 200.005 154.695 200.043 154.74 200.077C154.796 200.11 154.868 200.143 154.957 200.176C155.047 200.209 155.125 200.237 155.192 200.259C155.27 200.281 155.37 200.303 155.493 200.326C155.627 200.348 155.733 200.37 155.811 200.392C155.901 200.403 156.018 200.425 156.163 200.458C156.308 200.481 156.425 200.497 156.515 200.508C156.894 200.575 157.207 200.635 157.452 200.691C157.698 200.746 157.983 200.846 158.306 200.99C158.641 201.122 158.904 201.283 159.093 201.471C159.283 201.648 159.445 201.897 159.579 202.218C159.724 202.528 159.797 202.893 159.797 203.314C159.797 204.222 159.434 204.919 158.708 205.406C157.994 205.893 157.056 206.136 155.895 206.136Z" fill="#272637"/>
<path d="M163.837 205.97C162.966 205.97 162.29 205.799 161.81 205.456C161.342 205.102 161.107 204.493 161.107 203.629V199.064H159.968V197.37H161.107V194.681H163.77V197.37H165.327V199.064H163.77V203.048C163.77 203.358 163.848 203.574 164.004 203.696C164.171 203.818 164.411 203.879 164.724 203.879C164.813 203.879 164.931 203.879 165.076 203.879C165.221 203.867 165.305 203.862 165.327 203.862V205.838C165.014 205.926 164.518 205.97 163.837 205.97Z" fill="#272637"/>
<path d="M171.855 206.12C170.884 206.12 170.136 205.838 169.611 205.273C169.098 204.698 168.841 203.923 168.841 202.949V197.37H171.554V202.384C171.554 203.347 171.983 203.829 172.843 203.829C173.312 203.829 173.68 203.674 173.948 203.364C174.216 203.043 174.35 202.628 174.35 202.119V197.37H177.079V205.871H174.467V204.825H174.417C173.77 205.688 172.916 206.12 171.855 206.12Z" fill="#272637"/>
<path d="M178.392 205.871V197.37H181.021V198.532H181.072C181.73 197.592 182.612 197.121 183.717 197.121C184.644 197.121 185.369 197.42 185.894 198.018C186.43 198.604 186.698 199.379 186.698 200.342V205.871H183.968V200.89C183.968 200.425 183.851 200.06 183.617 199.794C183.394 199.518 183.064 199.379 182.629 199.379C182.182 199.379 181.82 199.545 181.54 199.877C181.261 200.209 181.122 200.641 181.122 201.172V205.871H178.392Z" fill="#272637"/>
<path d="M187.942 205.871V197.37H190.672V205.871H187.942ZM187.942 196.192V194H190.672V196.192H187.942Z" fill="#272637"/>
<path d="M197.809 208.677V204.974H197.758C197.223 205.749 196.43 206.136 195.381 206.136C194.287 206.136 193.394 205.727 192.701 204.908C192.009 204.078 191.663 202.982 191.663 201.621C191.663 200.303 191.998 199.224 192.668 198.383C193.338 197.542 194.259 197.121 195.431 197.121C196.491 197.121 197.306 197.564 197.876 198.449H197.926V197.37H200.521V208.677H197.809ZM196.117 203.995C196.664 203.995 197.094 203.784 197.407 203.364C197.73 202.943 197.892 202.384 197.892 201.687C197.892 200.968 197.736 200.381 197.423 199.927C197.122 199.473 196.687 199.246 196.117 199.246C195.548 199.246 195.124 199.468 194.845 199.911C194.566 200.342 194.426 200.934 194.426 201.687C194.426 202.417 194.571 202.988 194.862 203.397C195.163 203.795 195.582 203.995 196.117 203.995Z" fill="#272637"/>
<path d="M204.773 206.12C203.801 206.12 203.054 205.838 202.529 205.273C202.015 204.698 201.759 203.923 201.759 202.949V197.37H204.471V202.384C204.471 203.347 204.901 203.829 205.761 203.829C206.23 203.829 206.598 203.674 206.866 203.364C207.134 203.043 207.268 202.628 207.268 202.119V197.37H209.997V205.871H207.385V204.825H207.335C206.687 205.688 205.833 206.12 204.773 206.12Z" fill="#272637"/>
<path d="M215.496 206.12C214.112 206.12 213.001 205.699 212.164 204.858C211.338 204.006 210.925 202.921 210.925 201.604C210.925 200.32 211.332 199.252 212.147 198.4C212.973 197.547 214.034 197.121 215.329 197.121C216.501 197.121 217.478 197.475 218.259 198.184C219.286 199.114 219.789 200.492 219.766 202.318H213.604C213.693 202.904 213.9 203.364 214.224 203.696C214.547 204.017 214.983 204.177 215.53 204.177C216.233 204.177 216.708 203.895 216.953 203.331H219.616C219.415 204.15 218.935 204.819 218.176 205.34C217.428 205.86 216.535 206.12 215.496 206.12ZM213.621 200.707H217.003C216.959 200.198 216.786 199.794 216.484 199.495C216.194 199.197 215.826 199.047 215.379 199.047C214.408 199.047 213.822 199.601 213.621 200.707Z" fill="#272637"/>
<path d="M223.448 205.871V194H226.428L229.978 199.96L230.799 201.471H230.832C230.81 200.519 230.799 199.905 230.799 199.628V194H233.696V205.871H230.715L227.198 199.994L226.344 198.4H226.311C226.333 199.418 226.344 200.065 226.344 200.342V205.871H223.448Z" fill="#272637"/>
<path d="M235.336 205.871V194H244.244V196.474H238.3V198.881H243.273V201.255H238.3V205.871H235.336Z" fill="#272637"/>
<path d="M248.52 205.871V196.49H245.037V194H255V196.49H251.484V205.871H248.52Z" fill="#272637"/>
<path d="M70.5944 225.592C69.7236 225.592 69.0483 225.42 68.5682 225.077C68.0994 224.723 67.865 224.114 67.865 223.251V218.685H66.7263V216.991H67.865V214.302H70.5274V216.991H72.0847V218.685H70.5274V222.67C70.5274 222.979 70.6055 223.195 70.7618 223.317C70.9293 223.439 71.1693 223.5 71.4819 223.5C71.5712 223.5 71.6884 223.5 71.8335 223.5C71.9786 223.489 72.0624 223.483 72.0847 223.483V225.459C71.7721 225.547 71.2753 225.592 70.5944 225.592Z" fill="#272637"/>
<path d="M75.8306 223.134C76.1432 223.599 76.5897 223.832 77.1702 223.832C77.7507 223.832 78.1972 223.599 78.5098 223.134C78.8335 222.67 78.9954 222.044 78.9954 221.258C78.9954 220.472 78.8335 219.847 78.5098 219.382C78.1972 218.906 77.7507 218.668 77.1702 218.668C76.5897 218.668 76.1432 218.901 75.8306 219.366C75.518 219.831 75.3617 220.461 75.3617 221.258C75.3617 222.044 75.518 222.67 75.8306 223.134ZM80.4857 224.479C79.6485 225.332 78.5489 225.758 77.1869 225.758C75.825 225.758 74.7198 225.332 73.8714 224.479C73.023 223.627 72.5988 222.553 72.5988 221.258C72.5988 219.963 73.023 218.89 73.8714 218.037C74.7198 217.185 75.825 216.759 77.1869 216.759C78.5489 216.759 79.6485 217.185 80.4857 218.037C81.3341 218.89 81.7583 219.963 81.7583 221.258C81.7583 222.553 81.3341 223.627 80.4857 224.479Z" fill="#272637"/>
<path d="M82.681 225.492V213.621H85.3769V219.864L87.9222 216.991H91.0702L88.0561 220.179L91.4219 225.492H88.2571L86.1974 222.022L85.3769 222.885V225.492H82.681Z" fill="#272637"/>
<path d="M95.5668 225.741C94.1826 225.741 93.0718 225.32 92.2346 224.479C91.4085 223.627 90.9954 222.542 90.9954 221.225C90.9954 219.941 91.4029 218.873 92.2178 218.021C93.0439 217.169 94.1044 216.742 95.3994 216.742C96.5715 216.742 97.5483 217.097 98.3297 217.805C99.3568 218.735 99.8591 220.113 99.8368 221.939H93.6746C93.7639 222.526 93.9704 222.985 94.2942 223.317C94.6179 223.638 95.0533 223.799 95.6003 223.799C96.3036 223.799 96.778 223.516 97.0236 222.952H99.6861C99.4851 223.771 99.0051 224.441 98.246 224.961C97.4981 225.481 96.605 225.741 95.5668 225.741ZM93.6914 220.329H97.0739C97.0292 219.819 96.8562 219.415 96.5548 219.117C96.2645 218.818 95.8961 218.668 95.4496 218.668C94.4784 218.668 93.8923 219.222 93.6914 220.329Z" fill="#272637"/>
<path d="M100.751 225.492V216.991H103.38V218.154H103.43C104.088 217.213 104.97 216.742 106.075 216.742C107.002 216.742 107.728 217.041 108.252 217.639C108.788 218.226 109.056 219 109.056 219.963V225.492H106.327V220.511C106.327 220.046 106.209 219.681 105.975 219.415C105.752 219.139 105.422 219 104.987 219C104.541 219 104.178 219.166 103.899 219.498C103.62 219.831 103.48 220.262 103.48 220.793V225.492H100.751Z" fill="#272637"/>
<path d="M110.183 225.492V222.703H113.047V225.492H110.183Z" fill="#272637"/>
<path d="M117.026 225.492V213.621H119.99V225.492H117.026Z" fill="#272637"/>
<path d="M124.868 225.592C123.998 225.592 123.322 225.42 122.842 225.077C122.373 224.723 122.139 224.114 122.139 223.251V218.685H121V216.991H122.139V214.302H124.801V216.991H126.359V218.685H124.801V222.67C124.801 222.979 124.88 223.195 125.036 223.317C125.203 223.439 125.443 223.5 125.756 223.5C125.845 223.5 125.962 223.5 126.108 223.5C126.253 223.489 126.336 223.483 126.359 223.483V225.459C126.046 225.547 125.549 225.592 124.868 225.592Z" fill="#272637"/>
<path d="M127.386 218.552V217.589C127.732 217.49 128.017 217.307 128.24 217.041C128.463 216.765 128.575 216.449 128.575 216.095H127.436V213.621H129.931V215.796C129.931 216.582 129.691 217.224 129.211 217.722C128.742 218.198 128.134 218.475 127.386 218.552Z" fill="#272637"/>
<path d="M134.13 225.758C132.88 225.758 131.88 225.492 131.133 224.961C130.396 224.418 130.005 223.677 129.96 222.736H132.539C132.64 223.577 133.164 223.998 134.113 223.998C134.526 223.998 134.85 223.926 135.084 223.782C135.33 223.627 135.453 223.417 135.453 223.151C135.453 223.062 135.442 222.985 135.419 222.919C135.397 222.852 135.358 222.791 135.302 222.736C135.246 222.681 135.19 222.631 135.135 222.587C135.09 222.542 135.017 222.504 134.917 222.47C134.816 222.426 134.727 222.393 134.649 222.371C134.582 222.349 134.476 222.326 134.331 222.304C134.197 222.271 134.091 222.249 134.013 222.238C133.935 222.216 133.812 222.194 133.644 222.171C133.477 222.138 133.354 222.116 133.276 222.105C132.919 222.05 132.617 221.994 132.372 221.939C132.126 221.873 131.853 221.773 131.551 221.64C131.261 221.507 131.021 221.358 130.831 221.192C130.653 221.015 130.502 220.782 130.379 220.495C130.256 220.196 130.195 219.853 130.195 219.465C130.195 218.602 130.546 217.932 131.25 217.456C131.953 216.98 132.835 216.742 133.895 216.742C135.09 216.742 136.016 216.986 136.675 217.473C137.334 217.949 137.697 218.613 137.764 219.465H135.252C135.162 218.801 134.705 218.469 133.879 218.469C133.521 218.469 133.231 218.536 133.008 218.668C132.796 218.801 132.69 218.995 132.69 219.249C132.69 219.316 132.701 219.377 132.723 219.432C132.746 219.487 132.779 219.537 132.824 219.581C132.88 219.626 132.93 219.665 132.974 219.698C133.03 219.731 133.103 219.764 133.192 219.797C133.281 219.831 133.36 219.858 133.427 219.88C133.505 219.902 133.605 219.925 133.728 219.947C133.862 219.969 133.968 219.991 134.046 220.013C134.135 220.024 134.253 220.046 134.398 220.08C134.543 220.102 134.66 220.118 134.749 220.129C135.129 220.196 135.442 220.257 135.687 220.312C135.933 220.367 136.217 220.467 136.541 220.611C136.876 220.744 137.138 220.904 137.328 221.092C137.518 221.269 137.68 221.518 137.814 221.839C137.959 222.149 138.031 222.515 138.031 222.935C138.031 223.843 137.669 224.54 136.943 225.027C136.229 225.514 135.291 225.758 134.13 225.758Z" fill="#272637"/>
<path d="M144.364 223.134C144.677 223.599 145.123 223.832 145.704 223.832C146.284 223.832 146.731 223.599 147.043 223.134C147.367 222.67 147.529 222.044 147.529 221.258C147.529 220.472 147.367 219.847 147.043 219.382C146.731 218.906 146.284 218.668 145.704 218.668C145.123 218.668 144.677 218.901 144.364 219.366C144.052 219.831 143.895 220.461 143.895 221.258C143.895 222.044 144.052 222.67 144.364 223.134ZM149.019 224.479C148.182 225.332 147.082 225.758 145.72 225.758C144.359 225.758 143.253 225.332 142.405 224.479C141.557 223.627 141.132 222.553 141.132 221.258C141.132 219.963 141.557 218.89 142.405 218.037C143.253 217.185 144.359 216.759 145.72 216.759C147.082 216.759 148.182 217.185 149.019 218.037C149.868 218.89 150.292 219.963 150.292 221.258C150.292 222.553 149.868 223.627 149.019 224.479Z" fill="#272637"/>
<path d="M151.215 225.492V216.991H153.843V218.154H153.894C154.552 217.213 155.434 216.742 156.539 216.742C157.466 216.742 158.192 217.041 158.716 217.639C159.252 218.226 159.52 219 159.52 219.963V225.492H156.791V220.511C156.791 220.046 156.673 219.681 156.439 219.415C156.216 219.139 155.886 219 155.451 219C155.004 219 154.642 219.166 154.363 219.498C154.083 219.831 153.944 220.262 153.944 220.793V225.492H151.215Z" fill="#272637"/>
<path d="M164.951 225.741C163.566 225.741 162.456 225.32 161.618 224.479C160.792 223.627 160.379 222.542 160.379 221.225C160.379 219.941 160.787 218.873 161.602 218.021C162.428 217.169 163.488 216.742 164.783 216.742C165.955 216.742 166.932 217.097 167.714 217.805C168.741 218.735 169.243 220.113 169.221 221.939H163.058C163.148 222.526 163.354 222.985 163.678 223.317C164.002 223.638 164.437 223.799 164.984 223.799C165.687 223.799 166.162 223.516 166.407 222.952H169.07C168.869 223.771 168.389 224.441 167.63 224.961C166.882 225.481 165.989 225.741 164.951 225.741ZM163.075 220.329H166.458C166.413 219.819 166.24 219.415 165.939 219.117C165.648 218.818 165.28 218.668 164.833 218.668C163.862 218.668 163.276 219.222 163.075 220.329Z" fill="#272637"/>
<path d="M175.581 223.134C175.894 223.599 176.34 223.832 176.921 223.832C177.501 223.832 177.948 223.599 178.26 223.134C178.584 222.67 178.746 222.044 178.746 221.258C178.746 220.472 178.584 219.847 178.26 219.382C177.948 218.906 177.501 218.668 176.921 218.668C176.34 218.668 175.894 218.901 175.581 219.366C175.269 219.831 175.112 220.461 175.112 221.258C175.112 222.044 175.269 222.67 175.581 223.134ZM180.236 224.479C179.399 225.332 178.299 225.758 176.937 225.758C175.576 225.758 174.47 225.332 173.622 224.479C172.773 223.627 172.349 222.553 172.349 221.258C172.349 219.963 172.773 218.89 173.622 218.037C174.47 217.185 175.576 216.759 176.937 216.759C178.299 216.759 179.399 217.185 180.236 218.037C181.085 218.89 181.509 219.963 181.509 221.258C181.509 222.553 181.085 223.627 180.236 224.479Z" fill="#272637"/>
<path d="M182.904 225.492V218.718H181.799V216.991H182.904V216.377C182.904 215.525 183.139 214.866 183.608 214.402C184.288 213.737 185.5 213.494 187.241 213.671V215.58C186.661 215.558 186.248 215.608 186.002 215.73C185.757 215.851 185.634 216.134 185.634 216.576V216.991H187.241V218.718H185.634V225.492H182.904Z" fill="#272637"/>
<path d="M193.234 225.708C192.352 225.708 191.644 225.481 191.108 225.027C190.572 224.573 190.304 223.937 190.304 223.118C190.304 222.255 190.594 221.629 191.175 221.242C191.755 220.843 192.559 220.578 193.586 220.445C194.423 220.345 194.993 220.235 195.294 220.113C195.607 219.98 195.763 219.775 195.763 219.498C195.763 218.89 195.372 218.585 194.591 218.585C193.753 218.585 193.29 218.951 193.201 219.681H190.689C190.723 218.84 191.069 218.143 191.727 217.589C192.397 217.036 193.346 216.759 194.574 216.759C195.802 216.759 196.728 216.991 197.354 217.456C198.079 217.977 198.442 218.785 198.442 219.88V224.164C198.442 224.839 198.543 225.243 198.743 225.376V225.492H196.098C195.986 225.337 195.891 225.022 195.813 224.546H195.78C195.233 225.32 194.384 225.708 193.234 225.708ZM194.105 223.981C194.619 223.981 195.032 223.843 195.344 223.566C195.668 223.278 195.83 222.908 195.83 222.454V221.441C195.562 221.574 195.093 221.723 194.423 221.889C193.876 222.011 193.491 222.155 193.268 222.321C193.045 222.487 192.933 222.725 192.933 223.035C192.933 223.666 193.324 223.981 194.105 223.981Z" fill="#272637"/>
<path d="M202.365 225.492V213.621H205.061V219.864L207.606 216.991H210.754L207.74 220.179L211.106 225.492H207.941L205.882 222.022L205.061 222.885V225.492H202.365Z" fill="#272637"/>
<path d="M211.735 225.492V216.991H214.465V225.492H211.735ZM211.735 215.813V213.621H214.465V215.813H211.735Z" fill="#272637"/>
<path d="M215.774 225.492V216.991H218.403V218.154H218.454C219.112 217.213 219.994 216.742 221.099 216.742C222.026 216.742 222.751 217.041 223.276 217.639C223.812 218.226 224.08 219 224.08 219.963V225.492H221.35V220.511C221.35 220.046 221.233 219.681 220.999 219.415C220.775 219.139 220.446 219 220.011 219C219.564 219 219.201 219.166 218.922 219.498C218.643 219.831 218.504 220.262 218.504 220.793V225.492H215.774Z" fill="#272637"/>
<path d="M228.69 225.758C227.574 225.758 226.669 225.354 225.977 224.546C225.285 223.738 224.939 222.636 224.939 221.242C224.939 219.914 225.285 218.834 225.977 218.004C226.681 217.163 227.585 216.742 228.69 216.742C229.717 216.742 230.515 217.146 231.084 217.954H231.135V213.621H233.864V225.492H231.252V224.346H231.218C230.66 225.287 229.817 225.758 228.69 225.758ZM229.393 223.616C229.951 223.616 230.392 223.4 230.716 222.968C231.04 222.526 231.202 221.95 231.202 221.242C231.202 220.5 231.051 219.908 230.75 219.465C230.448 219.011 230.007 218.785 229.427 218.785C228.891 218.785 228.467 219.006 228.154 219.449C227.853 219.891 227.702 220.478 227.702 221.209C227.702 221.95 227.853 222.537 228.154 222.968C228.456 223.4 228.869 223.616 229.393 223.616Z" fill="#272637"/>
<path d="M235.051 225.492V222.703H237.915V225.492H235.051Z" fill="#272637"/>
<path d="M69.9663 245.113V235.733H66.4834V233.242H76.4466V235.733H72.9302V245.113H69.9663Z" fill="#272637"/>
<path d="M77.3828 245.113V233.242H80.1122V237.659H80.1625C80.8211 236.795 81.6695 236.364 82.7077 236.364C83.6343 236.364 84.3599 236.662 84.8845 237.26C85.4204 237.847 85.6883 238.622 85.6883 239.585V245.113H82.9589V240.132C82.9589 239.668 82.8417 239.302 82.6072 239.037C82.384 238.76 82.0546 238.622 81.6193 238.622C81.1727 238.622 80.8099 238.788 80.5308 239.12C80.2518 239.452 80.1122 239.883 80.1122 240.415V245.113H77.3828Z" fill="#272637"/>
<path d="M91.1189 245.362C89.7347 245.362 88.6239 244.942 87.7867 244.1C86.9606 243.248 86.5475 242.163 86.5475 240.846C86.5475 239.562 86.955 238.494 87.7699 237.642C88.596 236.79 89.6565 236.364 90.9515 236.364C92.1236 236.364 93.1004 236.718 93.8818 237.426C94.9089 238.356 95.4112 239.734 95.3889 241.56H89.2267C89.316 242.147 89.5226 242.606 89.8463 242.938C90.17 243.259 90.6054 243.42 91.1524 243.42C91.8557 243.42 92.3301 243.137 92.5757 242.573H95.2382C95.0372 243.392 94.5572 244.062 93.7981 244.582C93.0502 245.102 92.1571 245.362 91.1189 245.362ZM89.2435 239.95H92.626C92.5813 239.441 92.4083 239.037 92.1069 238.738C91.8166 238.439 91.4482 238.29 91.0017 238.29C90.0305 238.29 89.4444 238.843 89.2435 239.95Z" fill="#272637"/>
<path d="M101.431 245.329C100.549 245.329 99.8404 245.102 99.3046 244.648C98.7688 244.195 98.5008 243.558 98.5008 242.739C98.5008 241.876 98.7911 241.25 99.3716 240.863C99.9521 240.464 100.756 240.199 101.783 240.066C102.62 239.966 103.189 239.856 103.491 239.734C103.803 239.601 103.96 239.396 103.96 239.12C103.96 238.511 103.569 238.207 102.788 238.207C101.95 238.207 101.487 238.572 101.398 239.302H98.886C98.9195 238.461 99.2655 237.764 99.9242 237.21C100.594 236.657 101.543 236.38 102.771 236.38C103.999 236.38 104.925 236.613 105.55 237.078C106.276 237.598 106.639 238.406 106.639 239.502V243.785C106.639 244.46 106.739 244.864 106.94 244.997V245.113H104.295C104.183 244.958 104.088 244.643 104.01 244.167H103.976C103.429 244.942 102.581 245.329 101.431 245.329ZM102.302 243.602C102.815 243.602 103.229 243.464 103.541 243.187C103.865 242.9 104.027 242.529 104.027 242.075V241.062C103.759 241.195 103.29 241.344 102.62 241.51C102.073 241.632 101.688 241.776 101.465 241.942C101.241 242.108 101.13 242.346 101.13 242.656C101.13 243.287 101.521 243.602 102.302 243.602Z" fill="#272637"/>
<path d="M110.909 245.362C109.938 245.362 109.19 245.08 108.665 244.515C108.152 243.94 107.895 243.165 107.895 242.191V236.613H110.608V241.627C110.608 242.59 111.038 243.071 111.897 243.071C112.366 243.071 112.734 242.916 113.002 242.606C113.27 242.285 113.404 241.87 113.404 241.361V236.613H116.134V245.113H113.521V244.067H113.471C112.824 244.931 111.97 245.362 110.909 245.362Z" fill="#272637"/>
<path d="M121.616 245.379C120.254 245.379 119.154 244.953 118.317 244.1C117.48 243.248 117.061 242.175 117.061 240.88C117.061 239.585 117.474 238.511 118.3 237.659C119.127 236.806 120.209 236.38 121.549 236.38C122.688 236.38 123.62 236.679 124.345 237.277C125.071 237.874 125.495 238.66 125.618 239.634H122.989C122.799 238.793 122.33 238.373 121.583 238.373C121.002 238.373 120.561 238.594 120.26 239.037C119.969 239.479 119.824 240.094 119.824 240.88C119.824 241.654 119.975 242.263 120.276 242.706C120.578 243.137 121.013 243.353 121.583 243.353C122.453 243.353 122.95 242.866 123.073 241.892H125.685C125.652 242.9 125.261 243.735 124.513 244.399C123.776 245.052 122.81 245.379 121.616 245.379Z" fill="#272637"/>
<path d="M129.954 245.213C129.083 245.213 128.408 245.041 127.928 244.698C127.459 244.344 127.225 243.735 127.225 242.872V238.306H126.086V236.613H127.225V233.923H129.887V236.613H131.444V238.306H129.887V242.291C129.887 242.601 129.965 242.816 130.122 242.938C130.289 243.06 130.529 243.121 130.842 243.121C130.931 243.121 131.048 243.121 131.193 243.121C131.338 243.11 131.422 243.104 131.444 243.104V245.08C131.132 245.169 130.635 245.213 129.954 245.213Z" fill="#272637"/>
<path d="M132.425 245.113V236.613H135.155V245.113H132.425ZM132.425 235.434V233.242H135.155V235.434H132.425Z" fill="#272637"/>
<path d="M139.311 242.756C139.624 243.22 140.07 243.453 140.651 243.453C141.231 243.453 141.678 243.22 141.99 242.756C142.314 242.291 142.476 241.665 142.476 240.88C142.476 240.094 142.314 239.468 141.99 239.003C141.678 238.528 141.231 238.29 140.651 238.29C140.07 238.29 139.624 238.522 139.311 238.987C138.999 239.452 138.842 240.083 138.842 240.88C138.842 241.665 138.999 242.291 139.311 242.756ZM143.966 244.1C143.129 244.953 142.029 245.379 140.667 245.379C139.306 245.379 138.2 244.953 137.352 244.1C136.504 243.248 136.079 242.175 136.079 240.88C136.079 239.585 136.504 238.511 137.352 237.659C138.2 236.806 139.306 236.38 140.667 236.38C142.029 236.38 143.129 236.806 143.966 237.659C144.815 238.511 145.239 239.585 145.239 240.88C145.239 242.175 144.815 243.248 143.966 244.1Z" fill="#272637"/>
<path d="M146.162 245.113V236.613H148.791V237.775H148.841C149.499 236.834 150.381 236.364 151.486 236.364C152.413 236.364 153.139 236.662 153.663 237.26C154.199 237.847 154.467 238.622 154.467 239.585V245.113H151.738V240.132C151.738 239.668 151.62 239.302 151.386 239.037C151.163 238.76 150.833 238.622 150.398 238.622C149.951 238.622 149.589 238.788 149.31 239.12C149.031 239.452 148.891 239.883 148.891 240.415V245.113H146.162Z" fill="#272637"/>
<path d="M158.948 245.113V238.339H157.843V236.613H158.948V235.998C158.948 235.146 159.182 234.488 159.651 234.023C160.332 233.359 161.543 233.115 163.285 233.292V235.201C162.704 235.179 162.291 235.229 162.046 235.351C161.8 235.473 161.677 235.755 161.677 236.198V236.613H163.285V238.339H161.677V245.113H158.948Z" fill="#272637"/>
<path d="M166.751 242.756C167.063 243.22 167.51 243.453 168.09 243.453C168.671 243.453 169.117 243.22 169.43 242.756C169.754 242.291 169.916 241.665 169.916 240.88C169.916 240.094 169.754 239.468 169.43 239.003C169.117 238.528 168.671 238.29 168.09 238.29C167.51 238.29 167.063 238.522 166.751 238.987C166.438 239.452 166.282 240.083 166.282 240.88C166.282 241.665 166.438 242.291 166.751 242.756ZM171.406 244.1C170.569 244.953 169.469 245.379 168.107 245.379C166.745 245.379 165.64 244.953 164.792 244.1C163.943 243.248 163.519 242.175 163.519 240.88C163.519 239.585 163.943 238.511 164.792 237.659C165.64 236.806 166.745 236.38 168.107 236.38C169.469 236.38 170.569 236.806 171.406 237.659C172.254 238.511 172.678 239.585 172.678 240.88C172.678 242.175 172.254 243.248 171.406 244.1Z" fill="#272637"/>
<path d="M173.601 245.113V236.613H176.213V237.941H176.264C176.844 236.967 177.626 236.48 178.608 236.48C178.865 236.48 179.043 236.502 179.144 236.546V238.871H179.077C178.228 238.749 177.559 238.898 177.067 239.319C176.576 239.728 176.331 240.387 176.331 241.295V245.113H173.601Z" fill="#272637"/>
<path d="M182.611 245.113V236.613H185.341V245.113H182.611ZM182.611 235.434V233.242H185.341V235.434H182.611Z" fill="#272637"/>
<path d="M190.05 245.213C189.179 245.213 188.504 245.041 188.024 244.698C187.555 244.344 187.32 243.735 187.32 242.872V238.306H186.182V236.613H187.32V233.923H189.983V236.613H191.54V238.306H189.983V242.291C189.983 242.601 190.061 242.816 190.217 242.938C190.385 243.06 190.625 243.121 190.937 243.121C191.026 243.121 191.144 243.121 191.289 243.121C191.434 243.11 191.518 243.104 191.54 243.104V245.08C191.227 245.169 190.731 245.213 190.05 245.213Z" fill="#272637"/>
<path d="M198.771 245.379C197.521 245.379 196.522 245.113 195.774 244.582C195.037 244.04 194.647 243.298 194.602 242.357H197.181C197.281 243.198 197.806 243.619 198.755 243.619C199.168 243.619 199.492 243.547 199.726 243.403C199.972 243.248 200.094 243.038 200.094 242.772C200.094 242.684 200.083 242.606 200.061 242.54C200.038 242.473 199.999 242.413 199.944 242.357C199.888 242.302 199.832 242.252 199.776 242.208C199.732 242.163 199.659 242.125 199.558 242.092C199.458 242.047 199.369 242.014 199.291 241.992C199.224 241.97 199.118 241.948 198.972 241.925C198.838 241.892 198.732 241.87 198.654 241.859C198.576 241.837 198.453 241.815 198.286 241.793C198.118 241.759 197.996 241.737 197.917 241.726C197.56 241.671 197.259 241.616 197.013 241.56C196.768 241.494 196.494 241.394 196.193 241.261C195.902 241.129 195.662 240.979 195.473 240.813C195.294 240.636 195.143 240.404 195.021 240.116C194.898 239.817 194.836 239.474 194.836 239.086C194.836 238.223 195.188 237.553 195.891 237.078C196.595 236.602 197.477 236.364 198.537 236.364C199.731 236.364 200.658 236.607 201.317 237.094C201.975 237.57 202.338 238.234 202.405 239.086H199.893C199.804 238.422 199.346 238.09 198.52 238.09C198.163 238.09 197.873 238.157 197.65 238.29C197.437 238.422 197.331 238.616 197.331 238.871C197.331 238.937 197.343 238.998 197.365 239.053C197.387 239.109 197.421 239.158 197.465 239.203C197.521 239.247 197.571 239.286 197.616 239.319C197.672 239.352 197.744 239.385 197.834 239.419C197.923 239.452 198.001 239.479 198.068 239.502C198.146 239.524 198.247 239.546 198.37 239.568C198.504 239.59 198.61 239.612 198.688 239.634C198.777 239.645 198.894 239.668 199.039 239.701C199.184 239.723 199.302 239.739 199.391 239.751C199.771 239.817 200.083 239.878 200.329 239.933C200.574 239.989 200.859 240.088 201.183 240.232C201.518 240.365 201.78 240.525 201.97 240.714C202.16 240.891 202.321 241.14 202.455 241.461C202.6 241.771 202.673 242.136 202.673 242.556C202.673 243.464 202.31 244.161 201.585 244.648C200.87 245.135 199.932 245.379 198.771 245.379Z" fill="#272637"/>
<path d="M206.713 245.213C205.842 245.213 205.167 245.041 204.687 244.698C204.218 244.344 203.983 243.735 203.983 242.872V238.306H202.845V236.613H203.983V233.923H206.646V236.613H208.203V238.306H206.646V242.291C206.646 242.601 206.724 242.816 206.88 242.938C207.048 243.06 207.288 243.121 207.6 243.121C207.69 243.121 207.807 243.121 207.952 243.121C208.097 243.11 208.181 243.104 208.203 243.104V245.08C207.891 245.169 207.394 245.213 206.713 245.213Z" fill="#272637"/>
<path d="M211.876 245.329C210.994 245.329 210.285 245.102 209.75 244.648C209.214 244.195 208.946 243.558 208.946 242.739C208.946 241.876 209.236 241.25 209.817 240.863C210.397 240.464 211.201 240.199 212.228 240.066C213.065 239.966 213.634 239.856 213.936 239.734C214.248 239.601 214.405 239.396 214.405 239.12C214.405 238.511 214.014 238.207 213.233 238.207C212.395 238.207 211.932 238.572 211.843 239.302H209.331C209.365 238.461 209.711 237.764 210.369 237.21C211.039 236.657 211.988 236.38 213.216 236.38C214.444 236.38 215.37 236.613 215.996 237.078C216.721 237.598 217.084 238.406 217.084 239.502V243.785C217.084 244.46 217.184 244.864 217.385 244.997V245.113H214.74C214.628 244.958 214.533 244.643 214.455 244.167H214.421C213.874 244.942 213.026 245.329 211.876 245.329ZM212.747 243.602C213.261 243.602 213.674 243.464 213.986 243.187C214.31 242.9 214.472 242.529 214.472 242.075V241.062C214.204 241.195 213.735 241.344 213.065 241.51C212.518 241.632 212.133 241.776 211.91 241.942C211.686 242.108 211.575 242.346 211.575 242.656C211.575 243.287 211.966 243.602 212.747 243.602Z" fill="#272637"/>
<path d="M218.407 245.113V236.613H221.019V237.941H221.07C221.65 236.967 222.431 236.48 223.414 236.48C223.671 236.48 223.849 236.502 223.95 236.546V238.871H223.883C223.034 238.749 222.364 238.898 221.873 239.319C221.382 239.728 221.137 240.387 221.137 241.295V245.113H218.407Z" fill="#272637"/>
<path d="M228.38 245.213C227.509 245.213 226.834 245.041 226.354 244.698C225.885 244.344 225.651 243.735 225.651 242.872V238.306H224.512V236.613H225.651V233.923H228.313V236.613H229.87V238.306H228.313V242.291C228.313 242.601 228.391 242.816 228.547 242.938C228.715 243.06 228.955 243.121 229.268 243.121C229.357 243.121 229.474 243.121 229.619 243.121C229.764 243.11 229.848 243.104 229.87 243.104V245.08C229.558 245.169 229.061 245.213 228.38 245.213Z" fill="#272637"/>
<path d="M234.665 245.379C233.415 245.379 232.416 245.113 231.668 244.582C230.931 244.04 230.54 243.298 230.496 242.357H233.075C233.175 243.198 233.7 243.619 234.649 243.619C235.062 243.619 235.385 243.547 235.62 243.403C235.865 243.248 235.988 243.038 235.988 242.772C235.988 242.684 235.977 242.606 235.955 242.54C235.932 242.473 235.893 242.413 235.837 242.357C235.782 242.302 235.726 242.252 235.67 242.208C235.625 242.163 235.553 242.125 235.452 242.092C235.352 242.047 235.263 242.014 235.184 241.992C235.117 241.97 235.011 241.948 234.866 241.925C234.732 241.892 234.626 241.87 234.548 241.859C234.47 241.837 234.347 241.815 234.18 241.793C234.012 241.759 233.889 241.737 233.811 241.726C233.454 241.671 233.153 241.616 232.907 241.56C232.661 241.494 232.388 241.394 232.087 241.261C231.796 241.129 231.556 240.979 231.367 240.813C231.188 240.636 231.037 240.404 230.914 240.116C230.792 239.817 230.73 239.474 230.73 239.086C230.73 238.223 231.082 237.553 231.785 237.078C232.488 236.602 233.37 236.364 234.431 236.364C235.625 236.364 236.552 236.607 237.211 237.094C237.869 237.57 238.232 238.234 238.299 239.086H235.787C235.698 238.422 235.24 238.09 234.414 238.09C234.057 238.09 233.767 238.157 233.543 238.29C233.331 238.422 233.225 238.616 233.225 238.871C233.225 238.937 233.236 238.998 233.259 239.053C233.281 239.109 233.315 239.158 233.359 239.203C233.415 239.247 233.465 239.286 233.51 239.319C233.566 239.352 233.638 239.385 233.728 239.419C233.817 239.452 233.895 239.479 233.962 239.502C234.04 239.524 234.141 239.546 234.263 239.568C234.397 239.59 234.503 239.612 234.582 239.634C234.671 239.645 234.788 239.668 234.933 239.701C235.078 239.723 235.196 239.739 235.285 239.751C235.664 239.817 235.977 239.878 236.223 239.933C236.468 239.989 236.753 240.088 237.077 240.232C237.411 240.365 237.674 240.525 237.864 240.714C238.053 240.891 238.215 241.14 238.349 241.461C238.494 241.771 238.567 242.136 238.567 242.556C238.567 243.464 238.204 244.161 237.478 244.648C236.764 245.135 235.826 245.379 234.665 245.379Z" fill="#272637"/>
<path d="M112.539 264.734V257.961H111.434V256.234H112.539V255.62C112.539 254.767 112.774 254.109 113.243 253.644C113.924 252.98 115.135 252.736 116.876 252.913V254.823C116.296 254.801 115.883 254.85 115.637 254.972C115.392 255.094 115.269 255.376 115.269 255.819V256.234H116.876V257.961H115.269V264.734H112.539Z" fill="#272637"/>
<path d="M117.741 264.734V256.234H120.353V257.562H120.403C120.984 256.588 121.765 256.101 122.748 256.101C123.004 256.101 123.183 256.123 123.283 256.167V258.492H123.216C122.368 258.37 121.698 258.519 121.207 258.94C120.716 259.35 120.47 260.008 120.47 260.916V264.734H117.741Z" fill="#272637"/>
<path d="M126.834 262.377C127.147 262.842 127.593 263.074 128.174 263.074C128.754 263.074 129.201 262.842 129.513 262.377C129.837 261.912 129.999 261.287 129.999 260.501C129.999 259.715 129.837 259.09 129.513 258.625C129.201 258.149 128.754 257.911 128.174 257.911C127.593 257.911 127.147 258.143 126.834 258.608C126.522 259.073 126.365 259.704 126.365 260.501C126.365 261.287 126.522 261.912 126.834 262.377ZM131.489 263.722C130.652 264.574 129.552 265 128.191 265C126.829 265 125.723 264.574 124.875 263.722C124.027 262.869 123.602 261.796 123.602 260.501C123.602 259.206 124.027 258.132 124.875 257.28C125.723 256.428 126.829 256.001 128.191 256.001C129.552 256.001 130.652 256.428 131.489 257.28C132.338 258.132 132.762 259.206 132.762 260.501C132.762 261.796 132.338 262.869 131.489 263.722Z" fill="#272637"/>
<path d="M133.685 264.734V256.234H136.297V257.446H136.347C136.939 256.472 137.804 255.985 138.943 255.985C140.07 255.985 140.874 256.483 141.354 257.479H141.387C142.035 256.483 142.933 255.985 144.083 255.985C145.032 255.985 145.752 256.278 146.243 256.865C146.746 257.44 146.997 258.221 146.997 259.206V264.734H144.267V259.687C144.267 258.724 143.866 258.243 143.062 258.243C142.638 258.243 142.303 258.403 142.057 258.724C141.823 259.034 141.705 259.449 141.705 259.969V264.734H138.976V259.687C138.976 258.724 138.574 258.243 137.77 258.243C137.346 258.243 137.011 258.403 136.766 258.724C136.531 259.034 136.414 259.449 136.414 259.969V264.734H133.685Z" fill="#272637"/>
<path d="M153.082 264.734V257.462H150.621V255.57C151.424 255.548 152.1 255.343 152.647 254.955C153.194 254.568 153.534 254.004 153.668 253.262H155.912V264.734H153.082Z" fill="#272637"/>
<path d="M160.409 264.734V252.864H169.484V255.288H163.372V257.413H168.614V259.704H163.372V262.244H169.585V264.734H160.409Z" fill="#272637"/>
<path d="M173.87 264.734V255.354H170.387V252.864H180.351V255.354H176.834V264.734H173.87Z" fill="#272637"/>
<path d="M181.454 264.734V252.864H184.418V257.363H188.621V252.864H191.585V264.734H188.621V259.787H184.418V264.734H181.454Z" fill="#272637"/>
<path d="M192.943 264.734V261.945H195.807V264.734H192.943Z" fill="#272637"/>
<defs>
<filter id="filter0_d_678_32" x="46" y="122" width="218" height="27" filterUnits="userSpaceOnUse" color-interpolation-filters="sRGB">
<feFlood flood-opacity="0" result="BackgroundImageFix"/>
<feColorMatrix in="SourceAlpha" type="matrix" values="0 0 0 0 0 0 0 0 0 0 0 0 0 0 0 0 0 0 127 0" result="hardAlpha"/>
<feOffset dy="4"/>
<feGaussianBlur stdDeviation="2"/>
<feComposite in2="hardAlpha" operator="out"/>
<feColorMatrix type="matrix" values="0 0 0 0 0 0 0 0 0 0 0 0 0 0 0 0 0 0 0.25 0"/>
<feBlend mode="normal" in2="BackgroundImageFix" result="effect1_dropShadow_678_32"/>
<feBlend mode="normal" in="SourceGraphic" in2="effect1_dropShadow_678_32" result="shape"/>
</filter>
<linearGradient id="paint0_linear_678_32" x1="43.0775" y1="30.5" x2="294.922" y2="30.5" gradientUnits="userSpaceOnUse">
<stop stop-color="#01C8C8"/>
<stop offset="1" stop-color="#E032CE"/>
</linearGradient>
<linearGradient id="paint1_linear_678_32" x1="84.9719" y1="93.0248" x2="250.596" y2="93.0248" gradientUnits="userSpaceOnUse">
<stop stop-color="#00C8C8"/>
<stop offset="1" stop-color="#DF31CE"/>
</linearGradient>
<linearGradient id="paint2_linear_678_32" x1="84.9719" y1="78.0071" x2="250.596" y2="78.007" gradientUnits="userSpaceOnUse">
<stop stop-color="#00C8C8"/>
<stop offset="1" stop-color="#DF31CE"/>
</linearGradient>
</defs>
</svg>
