<svg width="339" height="302" viewBox="0 0 339 302" fill="none" xmlns="http://www.w3.org/2000/svg">
<path fill-rule="evenodd" clip-rule="evenodd" d="M0.0724734 99.2551C0.0724734 87.9368 0.0723422 99.2551 0.0734151 84L339 84.4921C339 98.1405 339 84.4921 339 98.1405H304.031C302.624 98.1405 301.483 99.1806 301.483 100.464C301.483 101.747 302.624 102.787 304.031 102.787H339C339 109.176 339 102.787 339 109.176H298.438C297.031 109.176 295.89 110.216 295.89 111.499C295.89 112.782 297.031 113.822 298.438 113.822L339 114.018C339 117.463 339 117.436 339 119.146V120.499L288.284 120.211L274.012 97.3746C273.288 96.2164 271.82 95.7003 270.478 96.0387L270.472 96.0387H16.8619C15.9443 95.6021 14.809 95.5936 13.8443 96.1081C12.3408 96.9101 11.821 98.6787 12.6834 100.059L26.5917 122.313L13.9409 142.555C13.9007 142.619 13.8635 142.684 13.8293 142.75C12.9567 143.268 12.3798 144.165 12.3798 145.185C12.3798 146.789 13.8059 148.089 15.5651 148.089H272.622C272.85 148.089 273.073 148.067 273.288 148.026C274.526 148.199 275.804 147.676 276.465 146.62L289.23 126.194C289.266 126.136 289.3 126.078 289.331 126.019L339 126.307V241.63C339 249.47 336.907 255.536 328.308 255.536H323.642C312.328 255.536 303.156 263.898 303.156 274.213V283.323C303.156 293.638 293.984 302 282.67 302H20.606C9.2917 302 0.119703 293.638 0.119703 283.323V162.41C0.119703 152.095 0.119703 162.41 0.119703 137.147C0.11921 90.6393 -0.114462 145.762 0.0724734 99.2551ZM21.3714 142.281H271.916L283.382 123.936C283.301 123.837 283.226 123.733 283.157 123.624L269.185 101.268H20.6991L32.7182 120.499C33.3429 121.499 33.2423 122.702 32.568 123.595C32.5689 124.084 32.4348 124.579 32.1515 125.032L21.3714 142.281Z" fill="#C4C4C4"/>
<path d="M28 181.136C28 167.806 38.9611 157 52.4824 157H252.518C266.039 157 277 167.806 277 181.136V261.864C277 275.194 266.039 286 252.518 286H52.4824C38.9612 286 28 275.194 28 261.864V181.136Z" fill="white"/>
<path d="M52.5447 16.5358V20.1111H88.1949V28.6024H40.8177V0H88.1011V8.49134H52.5447V12.0666H81.6278V16.5358H52.5447Z" fill="#272637"/>
<path d="M116.089 0V20.1111H143.436V28.6024H104.362V0H116.089Z" fill="#272637"/>
<path d="M159.402 0H171.129V28.6024H159.402V0Z" fill="#272637"/>
<path d="M186.605 0H235.389V8.49134H186.605V0ZM205.134 7.91036H216.861V28.6024H205.134V7.91036Z" fill="#272637"/>
<path d="M261.874 16.5358V20.1111H297.524V28.6024H250.147V0H297.43V8.49134H261.874V12.0666H290.957V16.5358H261.874Z" fill="#272637"/>
<path d="M53.7809 57C50.2303 57 47.3718 56.7052 45.2056 56.1155C43.0393 55.5103 41.4594 54.6258 40.4659 53.4619C39.4886 52.2826 39 50.8239 39 49.0859C39 47.3479 39.4886 45.897 40.4659 44.7332C41.4594 43.5538 43.0393 42.6693 45.2056 42.0796C47.3718 41.4744 50.2303 41.1718 53.7809 41.1718C57.3316 41.1718 60.1901 41.4744 62.3563 42.0796C64.5226 42.6693 66.0943 43.5538 67.0716 44.7332C68.0651 45.897 68.5619 47.3479 68.5619 49.0859C68.5619 50.8239 68.0651 52.2826 67.0716 53.4619C66.0943 54.6258 64.5226 55.5103 62.3563 56.1155C60.1901 56.7052 57.3316 57 53.7809 57ZM53.7809 52.5774C55.4586 52.5774 56.9082 52.4843 58.1297 52.2981C59.3513 52.0964 60.296 51.7472 60.9638 51.2507C61.6315 50.7386 61.9654 50.017 61.9654 49.0859C61.9654 48.1549 61.6315 47.441 60.9638 46.9445C60.296 46.4324 59.3513 46.0832 58.1297 45.897C56.9082 45.6953 55.4586 45.5944 53.7809 45.5944C52.1033 45.5944 50.6293 45.6953 49.3589 45.897C48.1047 46.0832 47.1193 46.4324 46.4027 46.9445C45.7023 47.441 45.3521 48.1549 45.3521 49.0859C45.3521 50.017 45.7023 50.7386 46.4027 51.2507C47.1193 51.7472 48.1047 52.0964 49.3589 52.2981C50.6293 52.4843 52.1033 52.5774 53.7809 52.5774Z" fill="#272637"/>
<path d="M77.8093 56.5345L69.0629 41.6374H75.9526L83.3308 55.487L81.0098 55.5336L87.9239 41.6374H95.3022L102.216 55.5336L99.8953 55.487L107.274 41.6374H114.065L105.417 56.5345H97.1589L90.4159 43.9883H92.8102L86.0671 56.5345H77.8093Z" fill="#272637"/>
<path d="M140.765 51.9722L138.493 53.2059V41.6374H144.601V56.5345H138.493L120.096 46.3858L122.368 45.1289V56.5345H116.26V41.6374H122.368L140.765 51.9722Z" fill="#272637"/>
<path d="M154.124 50.2498V52.1119H172.692V56.5345H148.016V41.6374H172.643V46.06H154.124V47.9221H169.271V50.2498H154.124Z" fill="#272637"/>
<path d="M175.859 56.5345V41.6374H194.745C196.227 41.6374 197.554 41.8003 198.727 42.1262C199.916 42.4365 200.853 42.9641 201.537 43.709C202.237 44.4539 202.587 45.4703 202.587 46.7582C202.587 47.6117 202.424 48.3178 202.099 48.8764C201.773 49.4351 201.325 49.8696 200.755 50.1799C200.185 50.4903 199.533 50.7153 198.8 50.8549C198.067 50.9946 197.302 51.08 196.504 51.111L194.72 50.7851C196.658 50.8006 198.149 50.8782 199.191 51.0179C200.25 51.1575 200.983 51.4136 201.39 51.786C201.813 52.1429 202.025 52.6628 202.025 53.3456V56.5345H195.917V54.0439C195.917 53.5783 195.82 53.2292 195.624 52.9964C195.445 52.7481 195.038 52.5774 194.403 52.4843C193.784 52.3912 192.823 52.3447 191.52 52.3447H181.967V56.5345H175.859ZM181.967 48.4574H194.745C195.233 48.4574 195.641 48.3799 195.966 48.2247C196.308 48.0695 196.479 47.7747 196.479 47.3402C196.479 46.9367 196.308 46.6651 195.966 46.5255C195.641 46.3703 195.233 46.2927 194.745 46.2927H181.967V48.4574Z" fill="#272637"/>
<path d="M205.114 51.0644H211.784C211.898 51.3903 212.232 51.6696 212.785 51.9024C213.339 52.1197 214.08 52.2903 215.009 52.4145C215.953 52.5231 217.045 52.5774 218.282 52.5774C219.504 52.5774 220.465 52.5464 221.165 52.4843C221.882 52.4067 222.387 52.2826 222.68 52.1119C222.973 51.9257 223.12 51.6774 223.12 51.367C223.12 51.0722 222.884 50.8472 222.411 50.692C221.939 50.5213 221.1 50.4049 219.895 50.3429C218.69 50.2808 216.996 50.2498 214.813 50.2498C213.184 50.2498 211.775 50.1799 210.587 50.0403C209.414 49.8851 208.445 49.6523 207.679 49.342C206.93 49.0161 206.376 48.6126 206.018 48.1316C205.66 47.635 205.48 47.0453 205.48 46.3625C205.48 45.1832 205.896 44.2133 206.726 43.453C207.573 42.6771 208.844 42.1029 210.538 41.7305C212.248 41.3425 214.382 41.1486 216.939 41.1486C220.685 41.1486 223.543 41.6684 225.514 42.7081C227.501 43.7323 228.495 45.2142 228.495 47.154H222.167C222.086 46.6419 221.581 46.2539 220.652 45.9901C219.724 45.7108 218.405 45.5711 216.694 45.5711C215 45.5711 213.738 45.6642 212.907 45.8505C212.093 46.0367 211.686 46.3548 211.686 46.8048C211.686 47.0376 211.8 47.2238 212.028 47.3634C212.256 47.5031 212.647 47.6195 213.201 47.7126C213.771 47.7902 214.569 47.8445 215.595 47.8755C216.621 47.9066 217.924 47.9221 219.504 47.9221C221.247 47.9221 222.729 48.0074 223.95 48.1781C225.172 48.3333 226.157 48.5738 226.907 48.8997C227.672 49.2256 228.226 49.6446 228.568 50.1566C228.91 50.6532 229.081 51.2429 229.081 51.9257C229.081 53.105 228.69 54.0671 227.908 54.812C227.126 55.5568 225.889 56.1077 224.195 56.4646C222.501 56.8215 220.286 57 217.549 57C216.002 57 214.577 56.9146 213.274 56.744C211.987 56.5733 210.839 56.325 209.829 55.9991C208.819 55.6577 207.964 55.2465 207.264 54.7654C206.563 54.2689 206.026 53.718 205.651 53.1128C205.293 52.4921 205.114 51.8093 205.114 51.0644Z" fill="#272637"/>
<path d="M236.989 46.7815H254.188V51.2041H236.989V46.7815ZM253.504 41.6374H259.612V56.5345H253.504V41.6374ZM231.76 41.6374H237.868V56.5345H231.76V41.6374Z" fill="#272637"/>
<path d="M263.405 41.6374H269.513V56.5345H263.405V41.6374Z" fill="#272637"/>
<path d="M278.966 52.6938V48.6204H291.158C291.646 48.6204 292.053 48.5506 292.379 48.4109C292.721 48.2557 292.892 47.9376 292.892 47.4566C292.892 46.96 292.721 46.6419 292.379 46.5022C292.053 46.3625 291.646 46.2927 291.158 46.2927H279.357V56.5345H273.249V41.6374H290.205C291.426 41.6374 292.566 41.7227 293.625 41.8934C294.7 42.0486 295.637 42.3357 296.435 42.7547C297.233 43.1736 297.86 43.7633 298.316 44.5237C298.772 45.2841 299 46.2617 299 47.4566C299 48.6514 298.772 49.598 298.316 50.2963C297.86 50.9946 297.233 51.5145 296.435 51.8558C295.637 52.1972 294.7 52.4222 293.625 52.5309C292.566 52.6395 291.426 52.6938 290.205 52.6938H278.966Z" fill="#272637"/>
<path d="M0 81C0 78.7909 1.91881 77 4.28579 77H334.714C337.081 77 339 78.7909 339 81C339 83.2091 337.081 85 334.714 85H4.28581C1.91883 85 0 83.2091 0 81Z" fill="#FF7777"/>
<path d="M60.8648 195.519V185.626H57.1635V183H67.7512V185.626H64.0144V195.519H60.8648Z" fill="#272637"/>
<path d="M68.7461 195.519V183H71.6466V187.657H71.6999C72.3999 186.747 73.3014 186.292 74.4047 186.292C75.3893 186.292 76.1604 186.607 76.718 187.237C77.2874 187.856 77.5721 188.673 77.5721 189.689V195.519H74.6716V190.266C74.6716 189.776 74.5471 189.391 74.2979 189.111C74.0607 188.819 73.7107 188.673 73.2481 188.673C72.7735 188.673 72.388 188.848 72.0914 189.198C71.7948 189.548 71.6466 190.004 71.6466 190.564V195.519H68.7461Z" fill="#272637"/>
<path d="M83.3431 195.782C81.8721 195.782 80.6917 195.338 79.802 194.451C78.9241 193.552 78.4852 192.408 78.4852 191.019C78.4852 189.665 78.9182 188.539 79.7842 187.64C80.6621 186.741 81.789 186.292 83.1651 186.292C84.4108 186.292 85.4488 186.665 86.2792 187.412C87.3706 188.393 87.9044 189.846 87.8807 191.772H81.3323C81.4272 192.391 81.6467 192.875 81.9907 193.225C82.3347 193.564 82.7974 193.733 83.3787 193.733C84.126 193.733 84.6302 193.436 84.8912 192.84H87.7205C87.507 193.704 86.9969 194.41 86.1902 194.959C85.3954 195.507 84.4463 195.782 83.3431 195.782ZM81.3501 190.074H84.9446C84.8971 189.537 84.7133 189.111 84.393 188.796C84.0845 188.48 83.693 188.323 83.2185 188.323C82.1864 188.323 81.5636 188.906 81.3501 190.074Z" fill="#272637"/>
<path d="M88.8517 195.519V186.554H91.6277V187.955H91.681C92.2979 186.928 93.1283 186.414 94.1723 186.414C94.4451 186.414 94.6349 186.438 94.7417 186.484V188.936H94.6705C93.7689 188.807 93.0571 188.965 92.5352 189.408C92.0132 189.84 91.7522 190.535 91.7522 191.492V195.519H88.8517Z" fill="#272637"/>
<path d="M99.9385 195.782C98.4675 195.782 97.2871 195.338 96.3974 194.451C95.5196 193.552 95.0806 192.408 95.0806 191.019C95.0806 189.665 95.5136 188.539 96.3796 187.64C97.2575 186.741 98.3845 186.292 99.7606 186.292C101.006 186.292 102.044 186.665 102.875 187.412C103.966 188.393 104.5 189.846 104.476 191.772H97.9277C98.0226 192.391 98.2421 192.875 98.5861 193.225C98.9302 193.564 99.3928 193.733 99.9741 193.733C100.721 193.733 101.226 193.436 101.487 192.84H104.316C104.102 193.704 103.592 194.41 102.786 194.959C101.991 195.507 101.042 195.782 99.9385 195.782ZM97.9455 190.074H101.54C101.493 189.537 101.309 189.111 100.988 188.796C100.68 188.48 100.288 188.323 99.8139 188.323C98.7819 188.323 98.1591 188.906 97.9455 190.074Z" fill="#272637"/>
<path d="M110.274 195.519L107.481 186.554H110.434L111.431 190.266L111.84 192H111.876C112.018 191.311 112.155 190.716 112.285 190.214L113.246 186.554H115.702L116.698 190.214L117.125 192.017H117.161C117.315 191.329 117.457 190.745 117.588 190.266L118.602 186.554H121.467L118.673 195.519H115.951L114.883 191.457L114.492 189.846H114.456C114.314 190.453 114.177 190.99 114.047 191.457L112.961 195.519H110.274Z" fill="#272637"/>
<path d="M122.147 195.519V186.554H125.047V195.519H122.147ZM122.147 185.311V183H125.047V185.311H122.147Z" fill="#272637"/>
<path d="M126.457 195.519V183H129.393V195.519H126.457Z" fill="#272637"/>
<path d="M130.819 195.519V183H133.755V195.519H130.819Z" fill="#272637"/>
<path d="M143.495 195.799C142.238 195.799 141.318 195.327 140.737 194.381H140.701V195.519H137.926V183H140.826V187.57H140.879C141.508 186.718 142.374 186.292 143.477 186.292C144.64 186.292 145.577 186.741 146.289 187.64C147.013 188.539 147.374 189.671 147.374 191.037C147.374 192.519 147.024 193.687 146.325 194.539C145.625 195.379 144.681 195.799 143.495 195.799ZM142.677 193.541C143.234 193.541 143.667 193.319 143.976 192.875C144.284 192.432 144.438 191.813 144.438 191.019C144.438 190.237 144.284 189.619 143.976 189.163C143.667 188.696 143.222 188.463 142.641 188.463C142.024 188.463 141.55 188.702 141.217 189.181C140.897 189.648 140.737 190.266 140.737 191.037C140.737 191.784 140.909 192.391 141.253 192.858C141.609 193.313 142.084 193.541 142.677 193.541Z" fill="#272637"/>
<path d="M152.801 195.782C151.33 195.782 150.149 195.338 149.26 194.451C148.382 193.552 147.943 192.408 147.943 191.019C147.943 189.665 148.376 188.539 149.242 187.64C150.12 186.741 151.247 186.292 152.623 186.292C153.868 186.292 154.906 186.665 155.737 187.412C156.828 188.393 157.362 189.846 157.338 191.772H150.79C150.885 192.391 151.104 192.875 151.448 193.225C151.792 193.564 152.255 193.733 152.836 193.733C153.584 193.733 154.088 193.436 154.349 192.84H157.178C156.965 193.704 156.454 194.41 155.648 194.959C154.853 195.507 153.904 195.782 152.801 195.782ZM150.808 190.074H154.402C154.355 189.537 154.171 189.111 153.85 188.796C153.542 188.48 153.151 188.323 152.676 188.323C151.644 188.323 151.021 188.906 150.808 190.074Z" fill="#272637"/>
<path d="M165.823 195.799C164.139 195.799 162.858 195.414 161.98 194.644C161.078 193.862 160.627 192.77 160.627 191.369H163.457C163.54 192.817 164.287 193.541 165.699 193.541C166.304 193.541 166.772 193.395 167.105 193.103C167.437 192.799 167.603 192.391 167.603 191.877C167.603 190.827 166.909 190.301 165.521 190.301H164.791V188.253H165.45C166.031 188.253 166.488 188.13 166.82 187.885C167.164 187.64 167.336 187.296 167.336 186.852C167.336 186.432 167.194 186.099 166.909 185.854C166.624 185.609 166.233 185.486 165.734 185.486C165.118 185.486 164.649 185.656 164.329 185.994C164.008 186.333 163.83 186.776 163.795 187.325H161.001C161.025 186.111 161.452 185.136 162.282 184.401C163.125 183.654 164.287 183.28 165.77 183.28C167.134 183.28 168.226 183.584 169.044 184.191C169.875 184.786 170.29 185.609 170.29 186.659C170.29 187.78 169.673 188.58 168.439 189.058V189.093C169.91 189.537 170.646 190.517 170.646 192.035C170.646 193.26 170.183 194.194 169.258 194.836C168.344 195.478 167.199 195.799 165.823 195.799Z" fill="#272637"/>
<path d="M176.849 193.488C178.38 193.488 179.145 192.169 179.145 189.531C179.145 188.305 178.955 187.336 178.575 186.624C178.208 185.912 177.632 185.556 176.849 185.556C176.066 185.556 175.485 185.912 175.106 186.624C174.726 187.325 174.536 188.294 174.536 189.531C174.536 190.768 174.726 191.737 175.106 192.438C175.485 193.138 176.066 193.488 176.849 193.488ZM176.832 195.799C175.23 195.799 173.931 195.227 172.935 194.083C171.95 192.939 171.458 191.422 171.458 189.531C171.458 187.628 171.95 186.111 172.935 184.979C173.931 183.835 175.236 183.263 176.849 183.263C178.486 183.263 179.791 183.835 180.764 184.979C181.749 186.111 182.241 187.628 182.241 189.531C182.241 191.434 181.743 192.957 180.746 194.101C179.762 195.233 178.457 195.799 176.832 195.799Z" fill="#272637"/>
<path d="M188.475 193.488C190.005 193.488 190.77 192.169 190.77 189.531C190.77 188.305 190.581 187.336 190.201 186.624C189.833 185.912 189.258 185.556 188.475 185.556C187.692 185.556 187.111 185.912 186.731 186.624C186.351 187.325 186.162 188.294 186.162 189.531C186.162 190.768 186.351 191.737 186.731 192.438C187.111 193.138 187.692 193.488 188.475 193.488ZM188.457 195.799C186.856 195.799 185.557 195.227 184.56 194.083C183.575 192.939 183.083 191.422 183.083 189.531C183.083 187.628 183.575 186.111 184.56 184.979C185.557 183.835 186.862 183.263 188.475 183.263C190.112 183.263 191.417 183.835 192.39 184.979C193.374 186.111 193.867 187.628 193.867 189.531C193.867 191.434 193.368 192.957 192.372 194.101C191.387 195.233 190.082 195.799 188.457 195.799Z" fill="#272637"/>
<path d="M200.1 193.488C201.631 193.488 202.396 192.169 202.396 189.531C202.396 188.305 202.206 187.336 201.826 186.624C201.459 185.912 200.883 185.556 200.1 185.556C199.317 185.556 198.736 185.912 198.357 186.624C197.977 187.325 197.787 188.294 197.787 189.531C197.787 190.768 197.977 191.737 198.357 192.438C198.736 193.138 199.317 193.488 200.1 193.488ZM200.083 195.799C198.481 195.799 197.182 195.227 196.186 194.083C195.201 192.939 194.709 191.422 194.709 189.531C194.709 187.628 195.201 186.111 196.186 184.979C197.182 183.835 198.487 183.263 200.1 183.263C201.737 183.263 203.042 183.835 204.015 184.979C205 186.111 205.492 187.628 205.492 189.531C205.492 191.434 204.994 192.957 203.997 194.101C203.013 195.233 201.708 195.799 200.083 195.799Z" fill="#272637"/>
<path d="M213.243 195.799C211.915 195.799 210.853 195.519 210.058 194.959C209.275 194.387 208.86 193.605 208.812 192.613H211.553C211.66 193.5 212.217 193.943 213.225 193.943C213.664 193.943 214.008 193.867 214.258 193.716C214.519 193.552 214.649 193.33 214.649 193.05C214.649 192.957 214.637 192.875 214.613 192.805C214.59 192.735 214.548 192.671 214.489 192.613C214.43 192.554 214.37 192.502 214.311 192.455C214.263 192.408 214.186 192.367 214.08 192.332C213.973 192.286 213.878 192.251 213.795 192.227C213.724 192.204 213.611 192.181 213.457 192.157C213.314 192.122 213.202 192.099 213.119 192.087C213.036 192.064 212.905 192.041 212.727 192.017C212.549 191.982 212.419 191.959 212.336 191.947C211.956 191.889 211.636 191.831 211.375 191.772C211.114 191.702 210.823 191.597 210.503 191.457C210.194 191.317 209.939 191.159 209.738 190.984C209.548 190.797 209.388 190.552 209.257 190.249C209.127 189.934 209.062 189.572 209.062 189.163C209.062 188.253 209.435 187.547 210.183 187.045C210.93 186.543 211.867 186.292 212.994 186.292C214.263 186.292 215.248 186.549 215.948 187.062C216.648 187.564 217.033 188.264 217.105 189.163H214.435C214.341 188.463 213.854 188.113 212.976 188.113C212.597 188.113 212.288 188.183 212.051 188.323C211.826 188.463 211.713 188.667 211.713 188.936C211.713 189.006 211.725 189.07 211.749 189.128C211.772 189.187 211.808 189.239 211.855 189.286C211.915 189.333 211.968 189.373 212.015 189.408C212.075 189.443 212.152 189.478 212.247 189.513C212.342 189.548 212.425 189.578 212.496 189.601C212.579 189.624 212.686 189.648 212.816 189.671C212.959 189.694 213.071 189.718 213.154 189.741C213.249 189.753 213.374 189.776 213.528 189.811C213.682 189.834 213.807 189.852 213.902 189.864C214.305 189.934 214.637 189.998 214.898 190.056C215.159 190.115 215.462 190.22 215.806 190.371C216.162 190.511 216.44 190.681 216.642 190.879C216.844 191.066 217.016 191.329 217.158 191.667C217.312 191.994 217.389 192.379 217.389 192.823C217.389 193.78 217.004 194.515 216.233 195.029C215.473 195.542 214.477 195.799 213.243 195.799Z" fill="#272637"/>
<path d="M221.463 195.782C220.431 195.782 219.636 195.484 219.078 194.889C218.532 194.282 218.26 193.465 218.26 192.438V186.554H221.142V191.842C221.142 192.858 221.599 193.365 222.513 193.365C223.011 193.365 223.402 193.202 223.687 192.875C223.972 192.537 224.114 192.099 224.114 191.562V186.554H227.015V195.519H224.239V194.416H224.185C223.497 195.327 222.59 195.782 221.463 195.782Z" fill="#272637"/>
<path d="M232.841 195.799C231.393 195.799 230.225 195.35 229.335 194.451C228.445 193.552 228 192.42 228 191.054C228 189.689 228.439 188.556 229.317 187.657C230.195 186.759 231.346 186.309 232.769 186.309C233.979 186.309 234.97 186.624 235.741 187.255C236.512 187.885 236.963 188.714 237.093 189.741H234.3C234.098 188.854 233.6 188.41 232.805 188.41C232.188 188.41 231.719 188.644 231.399 189.111C231.091 189.578 230.937 190.225 230.937 191.054C230.937 191.871 231.097 192.513 231.417 192.98C231.737 193.436 232.2 193.663 232.805 193.663C233.73 193.663 234.258 193.15 234.389 192.122H237.165C237.129 193.185 236.714 194.066 235.919 194.766C235.136 195.455 234.11 195.799 232.841 195.799Z" fill="#272637"/>
<path d="M238.089 195.519V183H240.989V187.657H241.043C241.743 186.747 242.644 186.292 243.748 186.292C244.732 186.292 245.503 186.607 246.061 187.237C246.63 187.856 246.915 188.673 246.915 189.689V195.519H244.014V190.266C244.014 189.776 243.89 189.391 243.641 189.111C243.404 188.819 243.054 188.673 242.591 188.673C242.116 188.673 241.731 188.848 241.434 189.198C241.138 189.548 240.989 190.004 240.989 190.564V195.519H238.089Z" fill="#272637"/>
<path d="M50 216.919V204.4H53.1674L56.9398 210.686L57.8118 212.279H57.8474C57.8236 211.276 57.8118 210.628 57.8118 210.336V204.4H60.8902V216.919H57.7228L53.986 210.721L53.0784 209.04H53.0429C53.0666 210.114 53.0784 210.797 53.0784 211.089V216.919H50Z" fill="#272637"/>
<path d="M62.6334 216.919V204.4H72.1V207.009H65.783V209.548H71.068V212.052H65.783V216.919H62.6334Z" fill="#272637"/>
<path d="M76.6435 216.919V207.027H72.9422V204.4H83.5299V207.027H79.7931V216.919H76.6435Z" fill="#272637"/>
<path d="M90.9 217.024C89.9747 217.024 89.257 216.843 88.7469 216.482C88.2487 216.108 87.9995 215.466 87.9995 214.556V209.741H86.7895V207.955H87.9995V205.118H90.8289V207.955H92.4837V209.741H90.8289V213.943C90.8289 214.27 90.9119 214.497 91.078 214.626C91.2559 214.754 91.511 214.818 91.8431 214.818C91.938 214.818 92.0626 214.818 92.2168 214.818C92.371 214.807 92.46 214.801 92.4837 214.801V216.884C92.1516 216.978 91.6237 217.024 90.9 217.024Z" fill="#272637"/>
<path d="M96.4644 214.433C96.7966 214.923 97.2711 215.168 97.888 215.168C98.5049 215.168 98.9794 214.923 99.3115 214.433C99.6556 213.943 99.8276 213.283 99.8276 212.455C99.8276 211.626 99.6556 210.966 99.3115 210.476C98.9794 209.974 98.5049 209.723 97.888 209.723C97.2711 209.723 96.7966 209.968 96.4644 210.458C96.1323 210.949 95.9662 211.614 95.9662 212.455C95.9662 213.283 96.1323 213.943 96.4644 214.433ZM101.411 215.851C100.522 216.75 99.3531 217.2 97.9058 217.2C96.4585 217.2 95.284 216.75 94.3825 215.851C93.4809 214.953 93.0301 213.82 93.0301 212.455C93.0301 211.089 93.4809 209.957 94.3825 209.058C95.284 208.159 96.4585 207.709 97.9058 207.709C99.3531 207.709 100.522 208.159 101.411 209.058C102.313 209.957 102.764 211.089 102.764 212.455C102.764 213.82 102.313 214.953 101.411 215.851Z" fill="#272637"/>
<path d="M103.744 216.919V204.4H106.609V210.984L109.314 207.955H112.659L109.456 211.316L113.033 216.919H109.67L107.481 213.26L106.609 214.17V216.919H103.744Z" fill="#272637"/>
<path d="M117.438 217.182C115.967 217.182 114.786 216.738 113.896 215.851C113.019 214.953 112.58 213.809 112.58 212.419C112.58 211.065 113.013 209.939 113.879 209.04C114.757 208.141 115.884 207.692 117.26 207.692C118.505 207.692 119.543 208.066 120.374 208.813C121.465 209.793 121.999 211.246 121.975 213.172H115.427C115.522 213.791 115.741 214.275 116.085 214.626C116.429 214.964 116.892 215.133 117.473 215.133C118.221 215.133 118.725 214.836 118.986 214.24H121.815C121.601 215.104 121.091 215.81 120.285 216.359C119.49 216.908 118.541 217.182 117.438 217.182ZM115.445 211.474H119.039C118.992 210.937 118.808 210.511 118.487 210.196C118.179 209.881 117.788 209.723 117.313 209.723C116.281 209.723 115.658 210.307 115.445 211.474Z" fill="#272637"/>
<path d="M122.946 216.919V207.955H125.74V209.18H125.793C126.493 208.188 127.43 207.692 128.605 207.692C129.589 207.692 130.361 208.007 130.918 208.637C131.488 209.256 131.772 210.073 131.772 211.089V216.919H128.872V211.667C128.872 211.176 128.747 210.791 128.498 210.511C128.261 210.219 127.911 210.073 127.448 210.073C126.974 210.073 126.588 210.248 126.292 210.599C125.995 210.949 125.847 211.404 125.847 211.964V216.919H122.946Z" fill="#272637"/>
<path d="M136.974 217.2C135.645 217.2 134.583 216.919 133.789 216.359C133.006 215.787 132.59 215.005 132.543 214.013H135.283C135.39 214.9 135.948 215.344 136.956 215.344C137.395 215.344 137.739 215.268 137.988 215.116C138.249 214.952 138.38 214.731 138.38 214.451C138.38 214.357 138.368 214.275 138.344 214.205C138.32 214.135 138.279 214.071 138.219 214.013C138.16 213.954 138.101 213.902 138.041 213.855C137.994 213.809 137.917 213.768 137.81 213.733C137.703 213.686 137.608 213.651 137.525 213.628C137.454 213.604 137.342 213.581 137.187 213.558C137.045 213.523 136.932 213.499 136.849 213.488C136.766 213.464 136.636 213.441 136.458 213.418C136.28 213.382 136.149 213.359 136.066 213.347C135.687 213.289 135.366 213.231 135.105 213.172C134.844 213.102 134.554 212.997 134.233 212.857C133.925 212.717 133.67 212.56 133.468 212.384C133.278 212.198 133.118 211.953 132.988 211.649C132.857 211.334 132.792 210.972 132.792 210.564C132.792 209.653 133.166 208.947 133.913 208.445C134.661 207.943 135.598 207.692 136.725 207.692C137.994 207.692 138.979 207.949 139.679 208.462C140.378 208.964 140.764 209.665 140.835 210.564H138.166C138.071 209.863 137.585 209.513 136.707 209.513C136.327 209.513 136.019 209.583 135.782 209.723C135.556 209.863 135.443 210.067 135.443 210.336C135.443 210.406 135.455 210.47 135.479 210.528C135.503 210.587 135.538 210.639 135.586 210.686C135.645 210.733 135.699 210.774 135.746 210.809C135.805 210.844 135.882 210.879 135.977 210.914C136.072 210.949 136.155 210.978 136.226 211.001C136.309 211.025 136.416 211.048 136.547 211.071C136.689 211.095 136.802 211.118 136.885 211.141C136.98 211.153 137.104 211.176 137.259 211.211C137.413 211.235 137.537 211.252 137.632 211.264C138.036 211.334 138.368 211.398 138.629 211.456C138.89 211.515 139.192 211.62 139.536 211.772C139.892 211.912 140.171 212.081 140.373 212.279C140.574 212.466 140.746 212.729 140.889 213.067C141.043 213.394 141.12 213.779 141.12 214.223C141.12 215.18 140.734 215.916 139.963 216.429C139.204 216.943 138.208 217.2 136.974 217.2Z" fill="#272637"/>
<path d="M144.824 216.919V207.955H147.725V216.919H144.824ZM144.824 206.711V204.4H147.725V206.711H144.824Z" fill="#272637"/>
<path d="M149.117 216.919V207.955H151.91V209.18H151.964C152.664 208.188 153.601 207.692 154.775 207.692C155.76 207.692 156.531 208.007 157.089 208.637C157.658 209.256 157.943 210.073 157.943 211.089V216.919H155.042V211.667C155.042 211.176 154.918 210.791 154.668 210.511C154.431 210.219 154.081 210.073 153.619 210.073C153.144 210.073 152.759 210.248 152.462 210.599C152.165 210.949 152.017 211.404 152.017 211.964V216.919H149.117Z" fill="#272637"/>
<path d="M165.64 217.024C164.715 217.024 163.997 216.843 163.487 216.482C162.989 216.108 162.74 215.466 162.74 214.556V209.741H161.53V207.955H162.74V205.118H165.569V207.955H167.224V209.741H165.569V213.943C165.569 214.27 165.652 214.497 165.818 214.626C165.996 214.754 166.251 214.818 166.583 214.818C166.678 214.818 166.803 214.818 166.957 214.818C167.111 214.807 167.2 214.801 167.224 214.801V216.884C166.892 216.978 166.364 217.024 165.64 217.024Z" fill="#272637"/>
<path d="M171.205 214.433C171.537 214.923 172.011 215.168 172.628 215.168C173.245 215.168 173.72 214.923 174.052 214.433C174.396 213.943 174.568 213.283 174.568 212.455C174.568 211.626 174.396 210.966 174.052 210.476C173.72 209.974 173.245 209.723 172.628 209.723C172.011 209.723 171.537 209.968 171.205 210.458C170.872 210.949 170.706 211.614 170.706 212.455C170.706 213.283 170.872 213.943 171.205 214.433ZM176.152 215.851C175.262 216.75 174.093 217.2 172.646 217.2C171.199 217.2 170.024 216.75 169.123 215.851C168.221 214.953 167.77 213.82 167.77 212.455C167.77 211.089 168.221 209.957 169.123 209.058C170.024 208.159 171.199 207.709 172.646 207.709C174.093 207.709 175.262 208.159 176.152 209.058C177.053 209.957 177.504 211.089 177.504 212.455C177.504 213.82 177.053 214.953 176.152 215.851Z" fill="#272637"/>
<path d="M181.923 217.024C180.998 217.024 180.28 216.843 179.77 216.482C179.272 216.108 179.022 215.466 179.022 214.556V209.741H177.812V207.955H179.022V205.118H181.852V207.955H183.507V209.741H181.852V213.943C181.852 214.27 181.935 214.497 182.101 214.626C182.279 214.754 182.534 214.818 182.866 214.818C182.961 214.818 183.085 214.818 183.24 214.818C183.394 214.807 183.483 214.801 183.507 214.801V216.884C183.174 216.978 182.647 217.024 181.923 217.024Z" fill="#272637"/>
<path d="M187.41 217.147C186.473 217.147 185.719 216.908 185.15 216.429C184.581 215.951 184.296 215.279 184.296 214.416C184.296 213.505 184.604 212.846 185.221 212.437C185.838 212.017 186.692 211.737 187.784 211.597C188.673 211.491 189.278 211.375 189.599 211.246C189.931 211.106 190.097 210.89 190.097 210.599C190.097 209.957 189.682 209.636 188.851 209.636C187.962 209.636 187.469 210.021 187.374 210.791H184.705C184.741 209.904 185.108 209.169 185.808 208.585C186.52 208.001 187.529 207.709 188.833 207.709C190.138 207.709 191.123 207.955 191.787 208.445C192.558 208.994 192.944 209.846 192.944 211.001V215.519C192.944 216.231 193.051 216.657 193.264 216.797V216.919H190.453C190.334 216.756 190.233 216.423 190.15 215.921H190.115C189.533 216.738 188.632 217.147 187.41 217.147ZM188.335 215.326C188.881 215.326 189.32 215.18 189.652 214.888C189.996 214.585 190.168 214.194 190.168 213.715V212.647C189.883 212.787 189.385 212.945 188.673 213.12C188.092 213.248 187.683 213.4 187.445 213.575C187.208 213.75 187.09 214.001 187.09 214.328C187.09 214.993 187.505 215.326 188.335 215.326Z" fill="#272637"/>
<path d="M194.368 216.919V204.4H197.304V216.919H194.368Z" fill="#272637"/>
<path d="M198.587 216.919V213.978H201.63V216.919H198.587Z" fill="#272637"/>
<path d="M208.972 216.919V207.027H205.271V204.4H215.859V207.027H212.122V216.919H208.972Z" fill="#272637"/>
<path d="M216.854 216.919V204.4H219.754V209.058H219.808C220.508 208.147 221.409 207.692 222.512 207.692C223.497 207.692 224.268 208.007 224.826 208.637C225.395 209.256 225.68 210.073 225.68 211.089V216.919H222.779V211.667C222.779 211.176 222.655 210.791 222.406 210.511C222.168 210.219 221.818 210.073 221.356 210.073C220.881 210.073 220.496 210.248 220.199 210.599C219.903 210.949 219.754 211.404 219.754 211.964V216.919H216.854Z" fill="#272637"/>
<path d="M231.451 217.182C229.98 217.182 228.799 216.738 227.91 215.851C227.032 214.953 226.593 213.809 226.593 212.419C226.593 211.065 227.026 209.939 227.892 209.04C228.77 208.141 229.897 207.692 231.273 207.692C232.518 207.692 233.556 208.066 234.387 208.813C235.478 209.793 236.012 211.246 235.988 213.172H229.44C229.535 213.791 229.754 214.275 230.098 214.626C230.442 214.964 230.905 215.133 231.486 215.133C232.234 215.133 232.738 214.836 232.999 214.24H235.828C235.615 215.104 235.105 215.81 234.298 216.359C233.503 216.908 232.554 217.182 231.451 217.182ZM229.458 211.474H233.052C233.005 210.937 232.821 210.511 232.501 210.196C232.192 209.881 231.801 209.723 231.326 209.723C230.294 209.723 229.671 210.307 229.458 211.474Z" fill="#272637"/>
<path d="M240.839 217.2C239.51 217.2 238.448 216.919 237.653 216.359C236.87 215.787 236.455 215.005 236.408 214.013H239.148C239.255 214.9 239.812 215.344 240.821 215.344C241.26 215.344 241.604 215.268 241.853 215.116C242.114 214.952 242.244 214.731 242.244 214.451C242.244 214.357 242.232 214.275 242.209 214.205C242.185 214.135 242.144 214.071 242.084 214.013C242.025 213.954 241.966 213.902 241.906 213.855C241.859 213.809 241.782 213.768 241.675 213.733C241.568 213.686 241.473 213.651 241.39 213.628C241.319 213.604 241.206 213.581 241.052 213.558C240.91 213.523 240.797 213.499 240.714 213.488C240.631 213.464 240.501 213.441 240.323 213.418C240.145 213.382 240.014 213.359 239.931 213.347C239.551 213.289 239.231 213.231 238.97 213.172C238.709 213.102 238.419 212.997 238.098 212.857C237.79 212.717 237.535 212.56 237.333 212.384C237.143 212.198 236.983 211.953 236.853 211.649C236.722 211.334 236.657 210.972 236.657 210.564C236.657 209.653 237.031 208.947 237.778 208.445C238.525 207.943 239.462 207.692 240.589 207.692C241.859 207.692 242.843 207.949 243.543 208.462C244.243 208.964 244.629 209.665 244.7 210.564H242.031C241.936 209.863 241.45 209.513 240.572 209.513C240.192 209.513 239.884 209.583 239.646 209.723C239.421 209.863 239.308 210.067 239.308 210.336C239.308 210.406 239.32 210.47 239.344 210.528C239.368 210.587 239.403 210.639 239.451 210.686C239.51 210.733 239.563 210.774 239.611 210.809C239.67 210.844 239.747 210.879 239.842 210.914C239.937 210.949 240.02 210.978 240.091 211.001C240.174 211.025 240.281 211.048 240.412 211.071C240.554 211.095 240.667 211.118 240.75 211.141C240.845 211.153 240.969 211.176 241.123 211.211C241.278 211.235 241.402 211.252 241.497 211.264C241.9 211.334 242.232 211.398 242.493 211.456C242.754 211.515 243.057 211.62 243.401 211.772C243.757 211.912 244.036 212.081 244.237 212.279C244.439 212.466 244.611 212.729 244.753 213.067C244.908 213.394 244.985 213.779 244.985 214.223C244.985 215.18 244.599 215.916 243.828 216.429C243.069 216.943 242.072 217.2 240.839 217.2Z" fill="#272637"/>
<path d="M250.462 217.182C248.991 217.182 247.81 216.738 246.921 215.851C246.043 214.953 245.604 213.809 245.604 212.419C245.604 211.065 246.037 209.939 246.903 209.04C247.781 208.141 248.908 207.692 250.284 207.692C251.529 207.692 252.567 208.066 253.398 208.813C254.489 209.793 255.023 211.246 254.999 213.172H248.451C248.546 213.791 248.765 214.275 249.109 214.626C249.453 214.964 249.916 215.133 250.497 215.133C251.245 215.133 251.749 214.836 252.01 214.24H254.839C254.626 215.104 254.115 215.81 253.309 216.359C252.514 216.908 251.565 217.182 250.462 217.182ZM248.469 211.474H252.063C252.016 210.937 251.832 210.511 251.512 210.196C251.203 209.881 250.812 209.723 250.337 209.723C249.305 209.723 248.682 210.307 248.469 211.474Z" fill="#272637"/>
<path d="M55.1373 238.425C54.212 238.425 53.4943 238.244 52.9842 237.882C52.4859 237.508 52.2368 236.866 52.2368 235.956V231.141H51.0268V229.355H52.2368V226.518H55.0661V229.355H56.721V231.141H55.0661V235.343C55.0661 235.67 55.1492 235.897 55.3153 236.026C55.4932 236.154 55.7483 236.218 56.0804 236.218C56.1753 236.218 56.2999 236.218 56.4541 236.218C56.6083 236.207 56.6973 236.201 56.721 236.201V238.285C56.3889 238.378 55.861 238.425 55.1373 238.425Z" fill="#272637"/>
<path d="M60.7017 235.833C61.0339 236.324 61.5084 236.569 62.1253 236.569C62.7421 236.569 63.2167 236.324 63.5488 235.833C63.8928 235.343 64.0649 234.684 64.0649 233.855C64.0649 233.026 63.8928 232.366 63.5488 231.876C63.2167 231.374 62.7421 231.123 62.1253 231.123C61.5084 231.123 61.0339 231.368 60.7017 231.859C60.3695 232.349 60.2035 233.014 60.2035 233.855C60.2035 234.684 60.3695 235.343 60.7017 235.833ZM65.6486 237.252C64.7588 238.15 63.5903 238.6 62.1431 238.6C60.6958 238.6 59.5213 238.15 58.6198 237.252C57.7182 236.353 57.2674 235.22 57.2674 233.855C57.2674 232.489 57.7182 231.357 58.6198 230.458C59.5213 229.559 60.6958 229.11 62.1431 229.11C63.5903 229.11 64.7588 229.559 65.6486 230.458C66.5502 231.357 67.0009 232.489 67.0009 233.855C67.0009 235.22 66.5502 236.353 65.6486 237.252Z" fill="#272637"/>
<path d="M67.9815 238.32V225.8H70.8464V232.384L73.5511 229.355H76.8965L73.6935 232.717L77.2702 238.32H73.907L71.7183 234.66L70.8464 235.571V238.32H67.9815Z" fill="#272637"/>
<path d="M81.6749 238.582C80.2038 238.582 79.0235 238.139 78.1338 237.252C77.2559 236.353 76.817 235.209 76.817 233.82C76.817 232.466 77.25 231.339 78.116 230.44C78.9938 229.542 80.1208 229.092 81.4969 229.092C82.7425 229.092 83.7805 229.466 84.6109 230.213C85.7023 231.193 86.2362 232.647 86.2124 234.573H79.6641C79.759 235.191 79.9784 235.676 80.3225 236.026C80.6665 236.364 81.1292 236.534 81.7104 236.534C82.4578 236.534 82.962 236.236 83.223 235.641H86.0523C85.8388 236.504 85.3287 237.211 84.522 237.759C83.7271 238.308 82.7781 238.582 81.6749 238.582ZM79.6819 232.874H83.2764C83.2289 232.337 83.045 231.911 82.7247 231.596C82.4163 231.281 82.0248 231.123 81.5503 231.123C80.5182 231.123 79.8954 231.707 79.6819 232.874Z" fill="#272637"/>
<path d="M87.1835 238.32V229.355H89.9772V230.581H90.0306C90.7305 229.588 91.6677 229.092 92.8421 229.092C93.8268 229.092 94.5979 229.407 95.1554 230.038C95.7248 230.656 96.0095 231.473 96.0095 232.489V238.32H93.109V233.067C93.109 232.577 92.9845 232.191 92.7354 231.911C92.4981 231.619 92.1481 231.473 91.6855 231.473C91.211 231.473 90.8254 231.649 90.5288 231.999C90.2323 232.349 90.084 232.804 90.084 233.364V238.32H87.1835Z" fill="#272637"/>
<path d="M101.211 238.6C99.8824 238.6 98.8207 238.32 98.0259 237.759C97.2429 237.187 96.8277 236.405 96.7803 235.413H99.5206C99.6274 236.3 100.185 236.744 101.193 236.744C101.632 236.744 101.976 236.668 102.225 236.516C102.486 236.353 102.617 236.131 102.617 235.851C102.617 235.757 102.605 235.676 102.581 235.606C102.558 235.536 102.516 235.471 102.457 235.413C102.397 235.355 102.338 235.302 102.279 235.255C102.231 235.209 102.154 235.168 102.047 235.133C101.941 235.086 101.846 235.051 101.763 235.028C101.692 235.005 101.579 234.981 101.425 234.958C101.282 234.923 101.17 234.899 101.087 234.888C101.003 234.864 100.873 234.841 100.695 234.818C100.517 234.783 100.387 234.759 100.304 234.748C99.924 234.689 99.6037 234.631 99.3427 234.573C99.0817 234.503 98.791 234.398 98.4707 234.257C98.1623 234.117 97.9073 233.96 97.7056 233.785C97.5158 233.598 97.3556 233.353 97.2251 233.049C97.0946 232.734 97.0294 232.372 97.0294 231.964C97.0294 231.053 97.4031 230.347 98.1504 229.845C98.8978 229.343 99.835 229.092 100.962 229.092C102.231 229.092 103.216 229.349 103.916 229.863C104.616 230.365 105.001 231.065 105.072 231.964H102.403C102.308 231.263 101.822 230.913 100.944 230.913C100.565 230.913 100.256 230.983 100.019 231.123C99.7935 231.263 99.6808 231.468 99.6808 231.736C99.6808 231.806 99.6926 231.87 99.7164 231.929C99.7401 231.987 99.7757 232.04 99.8231 232.086C99.8824 232.133 99.9358 232.174 99.9833 232.209C100.043 232.244 100.12 232.279 100.215 232.314C100.31 232.349 100.393 232.378 100.464 232.401C100.547 232.425 100.654 232.448 100.784 232.472C100.926 232.495 101.039 232.518 101.122 232.542C101.217 232.553 101.342 232.577 101.496 232.612C101.65 232.635 101.775 232.652 101.869 232.664C102.273 232.734 102.605 232.798 102.866 232.857C103.127 232.915 103.429 233.02 103.773 233.172C104.129 233.312 104.408 233.481 104.61 233.68C104.812 233.866 104.984 234.129 105.126 234.468C105.28 234.794 105.357 235.18 105.357 235.623C105.357 236.58 104.972 237.316 104.201 237.829C103.441 238.343 102.445 238.6 101.211 238.6Z" fill="#272637"/>
<path d="M113.297 241.419C112.027 241.419 111.001 241.168 110.218 240.666C109.447 240.176 108.99 239.464 108.848 238.53H111.66C111.861 239.113 112.395 239.405 113.261 239.405C114.424 239.405 115.005 238.833 115.005 237.689V236.796H114.934C114.317 237.485 113.54 237.829 112.603 237.829C111.511 237.829 110.58 237.45 109.809 236.691C109.038 235.933 108.652 234.894 108.652 233.575C108.652 232.256 109.008 231.182 109.72 230.353C110.432 229.512 111.351 229.092 112.478 229.092C113.605 229.092 114.459 229.501 115.041 230.318H115.076V229.355H117.852V237.444C117.852 238.716 117.449 239.709 116.642 240.421C115.883 241.086 114.768 241.419 113.297 241.419ZM113.279 235.711C113.884 235.711 114.341 235.506 114.649 235.098C114.969 234.678 115.13 234.135 115.13 233.47C115.13 232.839 114.963 232.314 114.631 231.894C114.311 231.462 113.86 231.246 113.279 231.246C112.733 231.246 112.294 231.45 111.962 231.859C111.642 232.267 111.482 232.81 111.482 233.487C111.482 234.164 111.642 234.707 111.962 235.115C112.294 235.512 112.733 235.711 113.279 235.711Z" fill="#272637"/>
<path d="M119.245 238.32V229.355H122.145V238.32H119.245ZM119.245 228.112V225.8H122.145V228.112H119.245Z" fill="#272637"/>
<path d="M125.939 238.32L122.79 229.355H125.779L127.025 233.4L127.523 235.203H127.559C127.713 234.596 127.879 233.995 128.057 233.4L129.32 229.355H132.221L129.071 238.32H125.939Z" fill="#272637"/>
<path d="M136.97 238.582C135.499 238.582 134.318 238.139 133.429 237.252C132.551 236.353 132.112 235.209 132.112 233.82C132.112 232.466 132.545 231.339 133.411 230.44C134.289 229.542 135.416 229.092 136.792 229.092C138.037 229.092 139.075 229.466 139.906 230.213C140.997 231.193 141.531 232.647 141.507 234.573H134.959C135.054 235.191 135.273 235.676 135.617 236.026C135.961 236.364 136.424 236.534 137.005 236.534C137.753 236.534 138.257 236.236 138.518 235.641H141.347C141.134 236.504 140.624 237.211 139.817 237.759C139.022 238.308 138.073 238.582 136.97 238.582ZM134.977 232.874H138.571C138.524 232.337 138.34 231.911 138.02 231.596C137.711 231.281 137.32 231.123 136.845 231.123C135.813 231.123 135.19 231.707 134.977 232.874Z" fill="#272637"/>
<path d="M148.854 238.425C147.928 238.425 147.211 238.244 146.701 237.882C146.202 237.508 145.953 236.866 145.953 235.956V231.141H144.743V229.355H145.953V226.518H148.783V229.355H150.437V231.141H148.783V235.343C148.783 235.67 148.866 235.897 149.032 236.026C149.21 236.154 149.465 236.218 149.797 236.218C149.892 236.218 150.016 236.218 150.17 236.218C150.325 236.207 150.414 236.201 150.437 236.201V238.285C150.105 238.378 149.577 238.425 148.854 238.425Z" fill="#272637"/>
<path d="M151.48 238.32V225.8H154.38V230.458H154.434C155.134 229.547 156.035 229.092 157.139 229.092C158.123 229.092 158.894 229.407 159.452 230.038C160.021 230.656 160.306 231.473 160.306 232.489V238.32H157.405V233.067C157.405 232.577 157.281 232.191 157.032 231.911C156.795 231.619 156.445 231.473 155.982 231.473C155.507 231.473 155.122 231.649 154.825 231.999C154.529 232.349 154.38 232.804 154.38 233.364V238.32H151.48Z" fill="#272637"/>
<path d="M166.077 238.582C164.606 238.582 163.426 238.139 162.536 237.252C161.658 236.353 161.219 235.209 161.219 233.82C161.219 232.466 161.652 231.339 162.518 230.44C163.396 229.542 164.523 229.092 165.899 229.092C167.145 229.092 168.183 229.466 169.013 230.213C170.104 231.193 170.638 232.647 170.615 234.573H164.066C164.161 235.191 164.381 235.676 164.725 236.026C165.069 236.364 165.531 236.534 166.113 236.534C166.86 236.534 167.364 236.236 167.625 235.641H170.454C170.241 236.504 169.731 237.211 168.924 237.759C168.129 238.308 167.18 238.582 166.077 238.582ZM164.084 232.874H167.678C167.631 232.337 167.447 231.911 167.127 231.596C166.818 231.281 166.427 231.123 165.952 231.123C164.92 231.123 164.298 231.707 164.084 232.874Z" fill="#272637"/>
<path d="M177.374 235.833C177.706 236.324 178.18 236.569 178.797 236.569C179.414 236.569 179.889 236.324 180.221 235.833C180.565 235.343 180.737 234.684 180.737 233.855C180.737 233.026 180.565 232.366 180.221 231.876C179.889 231.374 179.414 231.123 178.797 231.123C178.18 231.123 177.706 231.368 177.374 231.859C177.041 232.349 176.875 233.014 176.875 233.855C176.875 234.684 177.041 235.343 177.374 235.833ZM182.321 237.252C181.431 238.15 180.262 238.6 178.815 238.6C177.368 238.6 176.193 238.15 175.292 237.252C174.39 236.353 173.939 235.22 173.939 233.855C173.939 232.489 174.39 231.357 175.292 230.458C176.193 229.559 177.368 229.11 178.815 229.11C180.262 229.11 181.431 229.559 182.321 230.458C183.222 231.357 183.673 232.489 183.673 233.855C183.673 235.22 183.222 236.353 182.321 237.252Z" fill="#272637"/>
<path d="M186.37 238.32L183.576 229.355H186.53L187.527 233.067L187.936 234.8H187.972C188.114 234.112 188.25 233.516 188.381 233.014L189.342 229.355H191.797L192.794 233.014L193.221 234.818H193.256C193.411 234.129 193.553 233.545 193.684 233.067L194.698 229.355H197.563L194.769 238.32H192.046L190.979 234.257L190.587 232.647H190.552C190.409 233.254 190.273 233.791 190.142 234.257L189.057 238.32H186.37Z" fill="#272637"/>
<path d="M198.243 238.32V229.355H201.036V230.581H201.09C201.79 229.588 202.727 229.092 203.901 229.092C204.886 229.092 205.657 229.407 206.214 230.038C206.784 230.656 207.069 231.473 207.069 232.489V238.32H204.168V233.067C204.168 232.577 204.044 232.191 203.794 231.911C203.557 231.619 203.207 231.473 202.745 231.473C202.27 231.473 201.884 231.649 201.588 231.999C201.291 232.349 201.143 232.804 201.143 233.364V238.32H198.243Z" fill="#272637"/>
<path d="M212.84 238.582C211.369 238.582 210.188 238.139 209.298 237.252C208.421 236.353 207.982 235.209 207.982 233.82C207.982 232.466 208.415 231.339 209.281 230.44C210.159 229.542 211.285 229.092 212.662 229.092C213.907 229.092 214.945 229.466 215.776 230.213C216.867 231.193 217.401 232.647 217.377 234.573H210.829C210.924 235.191 211.143 235.676 211.487 236.026C211.831 236.364 212.294 236.534 212.875 236.534C213.623 236.534 214.127 236.236 214.388 235.641H217.217C217.003 236.504 216.493 237.211 215.687 237.759C214.892 238.308 213.943 238.582 212.84 238.582ZM210.847 232.874H214.441C214.394 232.337 214.21 231.911 213.889 231.596C213.581 231.281 213.19 231.123 212.715 231.123C211.683 231.123 211.06 231.707 210.847 232.874Z" fill="#272637"/>
<path d="M218.348 238.32V229.355H221.124V230.756H221.178C221.794 229.728 222.625 229.215 223.669 229.215C223.942 229.215 224.131 229.238 224.238 229.285V231.736H224.167C223.265 231.608 222.554 231.765 222.032 232.209C221.51 232.641 221.249 233.335 221.249 234.292V238.32H218.348Z" fill="#272637"/>
<path d="M231.535 238.425C230.61 238.425 229.892 238.244 229.382 237.882C228.884 237.508 228.635 236.866 228.635 235.956V231.141H227.425V229.355H228.635V226.518H231.464V229.355H233.119V231.141H231.464V235.343C231.464 235.67 231.547 235.897 231.713 236.026C231.891 236.154 232.146 236.218 232.479 236.218C232.573 236.218 232.698 236.218 232.852 236.218C233.006 236.207 233.095 236.201 233.119 236.201V238.285C232.787 238.378 232.259 238.425 231.535 238.425Z" fill="#272637"/>
<path d="M234.162 238.32V225.8H237.062V230.458H237.116C237.815 229.547 238.717 229.092 239.82 229.092C240.805 229.092 241.576 229.407 242.134 230.038C242.703 230.656 242.988 231.473 242.988 232.489V238.32H240.087V233.067C240.087 232.577 239.963 232.191 239.714 231.911C239.476 231.619 239.126 231.473 238.664 231.473C238.189 231.473 237.804 231.649 237.507 231.999C237.21 232.349 237.062 232.804 237.062 233.364V238.32H234.162Z" fill="#272637"/>
<path d="M248.759 238.582C247.288 238.582 246.107 238.139 245.218 237.252C244.34 236.353 243.901 235.209 243.901 233.82C243.901 232.466 244.334 231.339 245.2 230.44C246.078 229.542 247.205 229.092 248.581 229.092C249.826 229.092 250.864 229.466 251.695 230.213C252.786 231.193 253.32 232.647 253.296 234.573H246.748C246.843 235.191 247.062 235.676 247.406 236.026C247.75 236.364 248.213 236.534 248.794 236.534C249.542 236.534 250.046 236.236 250.307 235.641H253.136C252.923 236.504 252.412 237.211 251.606 237.759C250.811 238.308 249.862 238.582 248.759 238.582ZM246.766 232.874H250.36C250.313 232.337 250.129 231.911 249.809 231.596C249.5 231.281 249.109 231.123 248.634 231.123C247.602 231.123 246.979 231.707 246.766 232.874Z" fill="#272637"/>
<path d="M74.6497 260C73.3211 260 72.2593 259.72 71.4645 259.16C70.6816 258.588 70.2663 257.806 70.2189 256.813H72.9592C73.066 257.7 73.6236 258.144 74.6319 258.144C75.0709 258.144 75.4149 258.068 75.664 257.916C75.925 257.753 76.0555 257.531 76.0555 257.251C76.0555 257.158 76.0436 257.076 76.0199 257.006C75.9962 256.936 75.9546 256.872 75.8953 256.813C75.836 256.755 75.7767 256.702 75.7174 256.656C75.6699 256.609 75.5928 256.568 75.4861 256.533C75.3793 256.486 75.2844 256.451 75.2014 256.428C75.1302 256.405 75.0175 256.381 74.8633 256.358C74.7209 256.323 74.6082 256.3 74.5252 256.288C74.4421 256.265 74.3116 256.241 74.1337 256.218C73.9557 256.183 73.8252 256.16 73.7422 256.148C73.3626 256.09 73.0423 256.031 72.7813 255.973C72.5203 255.903 72.2297 255.798 71.9094 255.658C71.6009 255.518 71.3459 255.36 71.1442 255.185C70.9544 254.998 70.7943 254.753 70.6638 254.45C70.5333 254.134 70.468 253.773 70.468 253.364C70.468 252.453 70.8417 251.747 71.5891 251.245C72.3364 250.743 73.2736 250.492 74.4006 250.492C75.6699 250.492 76.6546 250.749 77.3545 251.263C78.0544 251.765 78.4399 252.465 78.5111 253.364H75.842C75.747 252.664 75.2607 252.313 74.3828 252.313C74.0032 252.313 73.6948 252.383 73.4575 252.524C73.2321 252.664 73.1194 252.868 73.1194 253.136C73.1194 253.206 73.1313 253.271 73.155 253.329C73.1787 253.387 73.2143 253.44 73.2618 253.487C73.3211 253.533 73.3744 253.574 73.4219 253.609C73.4812 253.644 73.5583 253.679 73.6532 253.714C73.7481 253.749 73.8312 253.778 73.9024 253.802C73.9854 253.825 74.0922 253.848 74.2227 253.872C74.365 253.895 74.4777 253.918 74.5607 253.942C74.6557 253.953 74.7802 253.977 74.9344 254.012C75.0887 254.035 75.2132 254.053 75.3081 254.064C75.7115 254.134 76.0436 254.199 76.3046 254.257C76.5656 254.315 76.8681 254.42 77.2121 254.572C77.568 254.712 77.8468 254.881 78.0485 255.08C78.2501 255.267 78.4221 255.529 78.5645 255.868C78.7187 256.195 78.7958 256.58 78.7958 257.023C78.7958 257.981 78.4103 258.716 77.6392 259.23C76.88 259.743 75.8835 260 74.6497 260Z" fill="#272637"/>
<path d="M83.0889 259.825C82.1636 259.825 81.4459 259.644 80.9358 259.282C80.4375 258.909 80.1884 258.267 80.1884 257.356V252.541H78.9784V250.755H80.1884V247.919H83.0177V250.755H84.6726V252.541H83.0177V256.743C83.0177 257.07 83.1007 257.298 83.2668 257.426C83.4448 257.555 83.6998 257.619 84.032 257.619C84.1269 257.619 84.2515 257.619 84.4057 257.619C84.5599 257.607 84.6489 257.601 84.6726 257.601V259.685C84.3404 259.778 83.8125 259.825 83.0889 259.825Z" fill="#272637"/>
<path d="M88.5758 259.947C87.6387 259.947 86.8854 259.708 86.3159 259.23C85.7465 258.751 85.4618 258.08 85.4618 257.216C85.4618 256.306 85.7702 255.646 86.3871 255.237C87.004 254.817 87.8581 254.537 88.9495 254.397C89.8392 254.292 90.4443 254.175 90.7646 254.047C91.0967 253.907 91.2628 253.691 91.2628 253.399C91.2628 252.757 90.8476 252.436 90.0172 252.436C89.1275 252.436 88.6352 252.821 88.5402 253.592H85.8711C85.9067 252.704 86.2744 251.969 86.9743 251.385C87.6861 250.802 88.6945 250.51 89.9994 250.51C91.3043 250.51 92.2889 250.755 92.9533 251.245C93.7244 251.794 94.1099 252.646 94.1099 253.802V258.319C94.1099 259.031 94.2167 259.457 94.4302 259.597V259.72H91.6187C91.5001 259.556 91.3992 259.224 91.3162 258.722H91.2806C90.6993 259.539 89.7977 259.947 88.5758 259.947ZM89.5011 258.127C90.0468 258.127 90.4858 257.981 90.8179 257.689C91.162 257.385 91.334 256.994 91.334 256.516V255.448C91.0493 255.588 90.551 255.745 89.8392 255.92C89.258 256.049 88.8487 256.2 88.6114 256.376C88.3742 256.551 88.2555 256.802 88.2555 257.128C88.2555 257.794 88.6707 258.127 89.5011 258.127Z" fill="#272637"/>
<path d="M98.9545 259.825C98.0292 259.825 97.3114 259.644 96.8013 259.282C96.3031 258.909 96.054 258.267 96.054 257.356V252.541H94.8439V250.755H96.054V247.919H98.8833V250.755H100.538V252.541H98.8833V256.743C98.8833 257.07 98.9663 257.298 99.1324 257.426C99.3104 257.555 99.5654 257.619 99.8976 257.619C99.9925 257.619 100.117 257.619 100.271 257.619C100.425 257.607 100.514 257.601 100.538 257.601V259.685C100.206 259.778 99.6781 259.825 98.9545 259.825Z" fill="#272637"/>
<path d="M104.713 259.982C103.68 259.982 102.886 259.685 102.328 259.09C101.782 258.483 101.509 257.665 101.509 256.638V250.755H104.392V256.043C104.392 257.058 104.849 257.566 105.762 257.566C106.261 257.566 106.652 257.403 106.937 257.076C107.222 256.737 107.364 256.3 107.364 255.763V250.755H110.264V259.72H107.488V258.617H107.435C106.747 259.527 105.839 259.982 104.713 259.982Z" fill="#272637"/>
<path d="M115.539 260C114.21 260 113.148 259.72 112.354 259.16C111.571 258.588 111.155 257.806 111.108 256.813H113.848C113.955 257.7 114.513 258.144 115.521 258.144C115.96 258.144 116.304 258.068 116.553 257.916C116.814 257.753 116.945 257.531 116.945 257.251C116.945 257.158 116.933 257.076 116.909 257.006C116.885 256.936 116.844 256.872 116.784 256.813C116.725 256.755 116.666 256.702 116.606 256.656C116.559 256.609 116.482 256.568 116.375 256.533C116.268 256.486 116.173 256.451 116.09 256.428C116.019 256.405 115.907 256.381 115.752 256.358C115.61 256.323 115.497 256.3 115.414 256.288C115.331 256.265 115.201 256.241 115.023 256.218C114.845 256.183 114.714 256.16 114.631 256.148C114.252 256.09 113.931 256.031 113.67 255.973C113.409 255.903 113.119 255.798 112.798 255.658C112.49 255.518 112.235 255.36 112.033 255.185C111.843 254.998 111.683 254.753 111.553 254.45C111.422 254.134 111.357 253.773 111.357 253.364C111.357 252.453 111.731 251.747 112.478 251.245C113.225 250.743 114.163 250.492 115.29 250.492C116.559 250.492 117.544 250.749 118.244 251.263C118.943 251.765 119.329 252.465 119.4 253.364H116.731C116.636 252.664 116.15 252.313 115.272 252.313C114.892 252.313 114.584 252.383 114.347 252.524C114.121 252.664 114.008 252.868 114.008 253.136C114.008 253.206 114.02 253.271 114.044 253.329C114.068 253.387 114.103 253.44 114.151 253.487C114.21 253.533 114.263 253.574 114.311 253.609C114.37 253.644 114.447 253.679 114.542 253.714C114.637 253.749 114.72 253.778 114.791 253.802C114.874 253.825 114.981 253.848 115.112 253.872C115.254 253.895 115.367 253.918 115.45 253.942C115.545 253.953 115.669 253.977 115.823 254.012C115.978 254.035 116.102 254.053 116.197 254.064C116.601 254.134 116.933 254.199 117.194 254.257C117.455 254.315 117.757 254.42 118.101 254.572C118.457 254.712 118.736 254.881 118.938 255.08C119.139 255.267 119.311 255.529 119.454 255.868C119.608 256.195 119.685 256.58 119.685 257.023C119.685 257.981 119.299 258.716 118.528 259.23C117.769 259.743 116.773 260 115.539 260Z" fill="#272637"/>
<path d="M126.414 257.234C126.747 257.724 127.221 257.969 127.838 257.969C128.455 257.969 128.929 257.724 129.261 257.234C129.606 256.743 129.778 256.084 129.778 255.255C129.778 254.426 129.606 253.767 129.261 253.276C128.929 252.774 128.455 252.524 127.838 252.524C127.221 252.524 126.747 252.769 126.414 253.259C126.082 253.749 125.916 254.415 125.916 255.255C125.916 256.084 126.082 256.743 126.414 257.234ZM131.361 258.652C130.472 259.551 129.303 260 127.856 260C126.408 260 125.234 259.551 124.332 258.652C123.431 257.753 122.98 256.621 122.98 255.255C122.98 253.889 123.431 252.757 124.332 251.858C125.234 250.959 126.408 250.51 127.856 250.51C129.303 250.51 130.472 250.959 131.361 251.858C132.263 252.757 132.714 253.889 132.714 255.255C132.714 256.621 132.263 257.753 131.361 258.652Z" fill="#272637"/>
<path d="M134.197 259.72V252.576H133.022V250.755H134.197V250.107C134.197 249.208 134.446 248.514 134.944 248.024C135.668 247.323 136.955 247.066 138.805 247.253V249.267C138.188 249.243 137.75 249.296 137.489 249.424C137.228 249.553 137.097 249.85 137.097 250.317V250.755H138.805V252.576H137.097V259.72H134.197Z" fill="#272637"/>
<path d="M142.665 259.72V247.201H152.31V249.757H145.815V251.998H151.384V254.415H145.815V257.093H152.416V259.72H142.665Z" fill="#272637"/>
<path d="M153.679 259.72V247.201H156.615V259.72H153.679Z" fill="#272637"/>
<path d="M158.023 259.72V250.755H160.923V259.72H158.023ZM158.023 249.512V247.201H160.923V249.512H158.023Z" fill="#272637"/>
<path d="M165.927 259.825C165.002 259.825 164.284 259.644 163.774 259.282C163.276 258.909 163.027 258.267 163.027 257.356V252.541H161.816V250.755H163.027V247.919H165.856V250.755H167.511V252.541H165.856V256.743C165.856 257.07 165.939 257.298 166.105 257.426C166.283 257.555 166.538 257.619 166.87 257.619C166.965 257.619 167.09 257.619 167.244 257.619C167.398 257.607 167.487 257.601 167.511 257.601V259.685C167.179 259.778 166.651 259.825 165.927 259.825Z" fill="#272637"/>
<path d="M172.915 259.982C171.444 259.982 170.264 259.539 169.374 258.652C168.496 257.753 168.057 256.609 168.057 255.22C168.057 253.866 168.49 252.739 169.356 251.841C170.234 250.942 171.361 250.492 172.737 250.492C173.983 250.492 175.021 250.866 175.851 251.613C176.942 252.594 177.476 254.047 177.453 255.973H170.904C170.999 256.592 171.219 257.076 171.563 257.426C171.907 257.765 172.369 257.934 172.951 257.934C173.698 257.934 174.202 257.636 174.463 257.041H177.292C177.079 257.905 176.569 258.611 175.762 259.16C174.967 259.708 174.018 259.982 172.915 259.982ZM170.922 254.274H174.516C174.469 253.738 174.285 253.311 173.965 252.996C173.656 252.681 173.265 252.524 172.79 252.524C171.758 252.524 171.136 253.107 170.922 254.274Z" fill="#272637"/>
<path d="M184.212 257.234C184.544 257.724 185.018 257.969 185.635 257.969C186.252 257.969 186.727 257.724 187.059 257.234C187.403 256.743 187.575 256.084 187.575 255.255C187.575 254.426 187.403 253.767 187.059 253.276C186.727 252.774 186.252 252.524 185.635 252.524C185.018 252.524 184.544 252.769 184.212 253.259C183.879 253.749 183.713 254.415 183.713 255.255C183.713 256.084 183.879 256.743 184.212 257.234ZM189.159 258.652C188.269 259.551 187.1 260 185.653 260C184.206 260 183.031 259.551 182.13 258.652C181.228 257.753 180.777 256.621 180.777 255.255C180.777 253.889 181.228 252.757 182.13 251.858C183.031 250.959 184.206 250.51 185.653 250.51C187.1 250.51 188.269 250.959 189.159 251.858C190.06 252.757 190.511 253.889 190.511 255.255C190.511 256.621 190.06 257.753 189.159 258.652Z" fill="#272637"/>
<path d="M193.208 259.72L190.414 250.755H193.368L194.365 254.467L194.774 256.2H194.81C194.952 255.512 195.088 254.916 195.219 254.415L196.18 250.755H198.635L199.632 254.415L200.059 256.218H200.094C200.249 255.529 200.391 254.946 200.522 254.467L201.536 250.755H204.401L201.607 259.72H198.884L197.817 255.658L197.425 254.047H197.39C197.247 254.654 197.111 255.191 196.98 255.658L195.895 259.72H193.208Z" fill="#272637"/>
<path d="M205.081 259.72V250.755H207.874V251.981H207.928C208.628 250.989 209.565 250.492 210.739 250.492C211.724 250.492 212.495 250.808 213.052 251.438C213.622 252.057 213.907 252.874 213.907 253.889V259.72H211.006V254.467C211.006 253.977 210.882 253.592 210.632 253.311C210.395 253.02 210.045 252.874 209.583 252.874C209.108 252.874 208.722 253.049 208.426 253.399C208.129 253.749 207.981 254.204 207.981 254.765V259.72H205.081Z" fill="#272637"/>
<path d="M219.678 259.982C218.207 259.982 217.026 259.539 216.136 258.652C215.259 257.753 214.82 256.609 214.82 255.22C214.82 253.866 215.253 252.739 216.119 251.841C216.997 250.942 218.124 250.492 219.5 250.492C220.745 250.492 221.783 250.866 222.614 251.613C223.705 252.594 224.239 254.047 224.215 255.973H217.667C217.762 256.592 217.981 257.076 218.325 257.426C218.669 257.765 219.132 257.934 219.713 257.934C220.461 257.934 220.965 257.636 221.226 257.041H224.055C223.841 257.905 223.331 258.611 222.525 259.16C221.73 259.708 220.781 259.982 219.678 259.982ZM217.685 254.274H221.279C221.232 253.738 221.048 253.311 220.727 252.996C220.419 252.681 220.028 252.524 219.553 252.524C218.521 252.524 217.898 253.107 217.685 254.274Z" fill="#272637"/>
<path d="M225.186 259.72V250.755H227.962V252.156H228.016C228.632 251.129 229.463 250.615 230.507 250.615C230.78 250.615 230.969 250.638 231.076 250.685V253.136H231.005C230.103 253.008 229.392 253.166 228.87 253.609C228.348 254.041 228.087 254.736 228.087 255.693V259.72H225.186Z" fill="#272637"/>
<path d="M230.709 259.72V256.778H233.752V259.72H230.709Z" fill="#272637"/>
<g filter="url(#filter0_d_678_36)">
<path d="M52.7179 128.698C51.3635 130.192 49.5757 130.939 47.3545 130.939C45.1332 130.939 43.3522 130.192 42.0113 128.698C40.6704 127.19 40 125.265 40 122.923C40 120.581 40.6704 118.656 42.0113 117.148C43.3522 115.64 45.1332 114.885 47.3545 114.885C49.5757 114.885 51.3635 115.64 52.7179 117.148C54.0724 118.656 54.7496 120.581 54.7496 122.923C54.7496 125.265 54.0724 127.19 52.7179 128.698ZM45.0994 126.112C45.6276 126.931 46.3861 127.34 47.3748 127.34C48.3635 127.34 49.122 126.931 49.6502 126.112C50.1784 125.293 50.4425 124.23 50.4425 122.923C50.4425 121.616 50.1784 120.553 49.6502 119.734C49.122 118.901 48.3635 118.484 47.3748 118.484C46.3861 118.484 45.6276 118.901 45.0994 119.734C44.5711 120.553 44.307 121.616 44.307 122.923C44.307 124.23 44.5711 125.293 45.0994 126.112Z" fill="#272637"/>
<path d="M55.925 130.573V115.166H60.1711L64.9251 123.828H64.9658V115.166H69.0696V130.573H64.6813L60.0695 121.846H60.0289V130.573H55.925Z" fill="#272637"/>
<path d="M70.8249 130.573V115.166H75.071V126.715H81.2878V130.573H70.8249Z" fill="#272637"/>
<path d="M84.4511 130.573V125.164L79.4736 115.166H84.0854L85.6294 118.592C85.7919 118.937 85.9545 119.317 86.117 119.734C86.2795 120.15 86.4014 120.474 86.4827 120.704L86.6046 121.07H86.6452C86.9567 120.194 87.2885 119.368 87.6407 118.592L89.1847 115.166H93.6949L88.6971 125.164V130.573H84.4511Z" fill="#272637"/>
<path d="M104.929 131C102.527 131 100.717 130.48 99.5007 129.441C98.1576 128.302 97.486 126.668 97.486 124.539H101.966C101.997 125.377 102.242 126.039 102.701 126.525C103.159 127.011 103.83 127.254 104.715 127.254C105.426 127.254 105.971 127.07 106.351 126.701C106.746 126.332 106.943 125.863 106.943 125.293C106.943 124.036 106.09 123.408 104.383 123.408H103.435V120.14H104.241C105.853 120.14 106.659 119.553 106.659 118.38C106.659 117.877 106.485 117.475 106.137 117.173C105.79 116.872 105.308 116.721 104.692 116.721C103.285 116.721 102.503 117.458 102.345 118.933H97.9838C97.9838 117.19 98.5842 115.765 99.7852 114.659C101.002 113.553 102.661 113 104.763 113C106.706 113 108.271 113.453 109.456 114.358C110.657 115.246 111.257 116.478 111.257 118.053C111.257 119.511 110.53 120.601 109.076 121.321V121.372C110.815 122.126 111.684 123.508 111.684 125.52C111.684 127.313 111.028 128.679 109.716 129.617C108.421 130.539 106.825 131 104.929 131Z" fill="#272637"/>
<path d="M120.095 130.975C117.915 130.975 116.105 130.154 114.667 128.511C113.245 126.869 112.534 124.698 112.534 122C112.534 119.302 113.237 117.131 114.644 115.489C116.066 113.83 117.883 113 120.095 113C122.371 113 124.204 113.821 125.594 115.464C127 117.106 127.704 119.285 127.704 122C127.704 124.698 126.993 126.869 125.57 128.511C124.148 130.154 122.323 130.975 120.095 130.975ZM117.393 122C117.393 125.503 118.302 127.254 120.119 127.254C121.936 127.254 122.845 125.503 122.845 122C122.845 120.358 122.623 119.059 122.181 118.103C121.739 117.148 121.051 116.67 120.119 116.67C119.187 116.67 118.499 117.148 118.057 118.103C117.614 119.059 117.393 120.358 117.393 122Z" fill="#272637"/>
<path d="M136.066 130.975C133.886 130.975 132.077 130.154 130.639 128.511C129.216 126.869 128.505 124.698 128.505 122C128.505 119.302 129.209 117.131 130.615 115.489C132.037 113.83 133.854 113 136.066 113C138.342 113 140.175 113.821 141.565 115.464C142.972 117.106 143.675 119.285 143.675 122C143.675 124.698 142.964 126.869 141.542 128.511C140.12 130.154 138.294 130.975 136.066 130.975ZM133.364 122C133.364 125.503 134.273 127.254 136.09 127.254C137.907 127.254 138.816 125.503 138.816 122C138.816 120.358 138.595 119.059 138.152 118.103C137.71 117.148 137.022 116.67 136.09 116.67C135.158 116.67 134.47 117.148 134.028 118.103C133.586 119.059 133.364 120.358 133.364 122Z" fill="#272637"/>
<path d="M152.038 130.975C149.857 130.975 148.048 130.154 146.61 128.511C145.188 126.869 144.477 124.698 144.477 122C144.477 119.302 145.18 117.131 146.586 115.489C148.008 113.83 149.825 113 152.038 113C154.313 113 156.146 113.821 157.537 115.464C158.943 117.106 159.646 119.285 159.646 122C159.646 124.698 158.935 126.869 157.513 128.511C156.091 130.154 154.266 130.975 152.038 130.975ZM149.336 122C149.336 125.503 150.244 127.254 152.061 127.254C153.879 127.254 154.787 125.503 154.787 122C154.787 120.358 154.566 119.059 154.123 118.103C153.681 117.148 152.994 116.67 152.061 116.67C151.129 116.67 150.442 117.148 149.999 118.103C149.557 119.059 149.336 120.358 149.336 122Z" fill="#272637"/>
<path d="M164.46 130.573V115.166H168.706V130.573H164.46Z" fill="#272637"/>
<path d="M170.452 130.573V115.166H174.698L179.452 123.828H179.492V115.166H183.596V130.573H179.208L174.596 121.846H174.556V130.573H170.452Z" fill="#272637"/>
<path d="M191.907 130.573V120.567H188.588V117.123C189.773 117.073 190.761 116.712 191.551 116.042C192.357 115.355 192.878 114.408 193.115 113.201H196.647V130.573H191.907Z" fill="#272637"/>
<path d="M205.936 130.975C203.756 130.975 201.947 130.154 200.509 128.511C199.086 126.869 198.375 124.698 198.375 122C198.375 119.302 199.079 117.131 200.485 115.489C201.907 113.83 203.724 113 205.936 113C208.212 113 210.045 113.821 211.435 115.464C212.842 117.106 213.545 119.285 213.545 122C213.545 124.698 212.834 126.869 211.412 128.511C209.99 130.154 208.164 130.975 205.936 130.975ZM203.234 122C203.234 125.503 204.143 127.254 205.96 127.254C207.777 127.254 208.686 125.503 208.686 122C208.686 120.358 208.465 119.059 208.022 118.103C207.58 117.148 206.892 116.67 205.96 116.67C205.028 116.67 204.34 117.148 203.898 118.103C203.456 119.059 203.234 120.358 203.234 122Z" fill="#272637"/>
<path d="M225.449 130.975C223.269 130.975 221.459 130.154 220.021 128.511C218.599 126.869 217.888 124.698 217.888 122C217.888 119.302 218.591 117.131 219.998 115.489C221.42 113.83 223.237 113 225.449 113C227.725 113 229.558 113.821 230.948 115.464C232.354 117.106 233.058 119.285 233.058 122C233.058 124.698 232.346 126.869 230.924 128.511C229.502 130.154 227.677 130.975 225.449 130.975ZM222.747 122C222.747 125.503 223.656 127.254 225.473 127.254C227.29 127.254 228.199 125.503 228.199 122C228.199 120.358 227.977 119.059 227.535 118.103C227.092 117.148 226.405 116.67 225.473 116.67C224.541 116.67 223.853 117.148 223.411 118.103C222.968 119.059 222.747 120.358 222.747 122Z" fill="#272637"/>
<path d="M241.42 130.975C239.24 130.975 237.43 130.154 235.993 128.511C234.57 126.869 233.859 124.698 233.859 122C233.859 119.302 234.562 117.131 235.969 115.489C237.391 113.83 239.208 113 241.42 113C243.696 113 245.529 113.821 246.919 115.464C248.326 117.106 249.029 119.285 249.029 122C249.029 124.698 248.318 126.869 246.896 128.511C245.473 130.154 243.648 130.975 241.42 130.975ZM238.718 122C238.718 125.503 239.627 127.254 241.444 127.254C243.261 127.254 244.17 125.503 244.17 122C244.17 120.358 243.949 119.059 243.506 118.103C243.064 117.148 242.376 116.67 241.444 116.67C240.512 116.67 239.824 117.148 239.382 118.103C238.94 119.059 238.718 120.358 238.718 122Z" fill="#272637"/>
<path d="M257.392 130.975C255.211 130.975 253.402 130.154 251.964 128.511C250.542 126.869 249.831 124.698 249.831 122C249.831 119.302 250.534 117.131 251.94 115.489C253.362 113.83 255.179 113 257.392 113C259.667 113 261.5 113.821 262.891 115.464C264.297 117.106 265 119.285 265 122C265 124.698 264.289 126.869 262.867 128.511C261.445 130.154 259.62 130.975 257.392 130.975ZM254.69 122C254.69 125.503 255.598 127.254 257.415 127.254C259.232 127.254 260.141 125.503 260.141 122C260.141 120.358 259.92 119.059 259.477 118.103C259.035 117.148 258.348 116.67 257.415 116.67C256.483 116.67 255.796 117.148 255.353 118.103C254.911 119.059 254.69 120.358 254.69 122Z" fill="#272637"/>
</g>
<defs>
<filter id="filter0_d_678_36" x="36" y="113" width="233" height="26" filterUnits="userSpaceOnUse" color-interpolation-filters="sRGB">
<feFlood flood-opacity="0" result="BackgroundImageFix"/>
<feColorMatrix in="SourceAlpha" type="matrix" values="0 0 0 0 0 0 0 0 0 0 0 0 0 0 0 0 0 0 127 0" result="hardAlpha"/>
<feOffset dy="4"/>
<feGaussianBlur stdDeviation="2"/>
<feComposite in2="hardAlpha" operator="out"/>
<feColorMatrix type="matrix" values="0 0 0 0 0 0 0 0 0 0 0 0 0 0 0 0 0 0 0.25 0"/>
<feBlend mode="normal" in2="BackgroundImageFix" result="effect1_dropShadow_678_36"/>
<feBlend mode="normal" in="SourceGraphic" in2="effect1_dropShadow_678_36" result="shape"/>
</filter>
</defs>
</svg>
