<svg width="339" height="289" viewBox="0 0 339 289" fill="none" xmlns="http://www.w3.org/2000/svg">
<path fill-rule="evenodd" clip-rule="evenodd" d="M0.0724734 86.2551C0.0724734 74.9368 0.0723422 86.2551 0.0734151 71L339 71.4921C339 85.1405 339 71.4921 339 85.1405H304.031C302.624 85.1405 301.483 86.1806 301.483 87.4637C301.483 88.7467 302.624 89.7869 304.031 89.7869H339C339 96.176 339 89.7869 339 96.176H298.438C297.031 96.176 295.89 97.2162 295.89 98.4992C295.89 99.7823 297.031 100.822 298.438 100.822L339 101.018C339 104.463 339 104.436 339 106.146V107.499L288.284 107.211L274.012 84.3746C273.288 83.2164 271.82 82.7003 270.478 83.0387L270.472 83.0387H16.8619C15.9443 82.6021 14.809 82.5936 13.8443 83.1081C12.3408 83.9101 11.821 85.6787 12.6834 87.0585L26.5917 109.313L13.9409 129.555C13.9007 129.619 13.8635 129.684 13.8293 129.75C12.9567 130.268 12.3798 131.165 12.3798 132.185C12.3798 133.789 13.8059 135.089 15.5651 135.089H272.622C272.85 135.089 273.073 135.067 273.288 135.026C274.526 135.199 275.804 134.676 276.465 133.62L289.23 113.194C289.266 113.136 289.3 113.078 289.331 113.019L339 113.307V228.63C339 236.47 336.907 242.536 328.308 242.536H323.642C312.328 242.536 303.156 250.898 303.156 261.213V270.323C303.156 280.638 293.984 289 282.67 289H20.606C9.2917 289 0.119703 280.638 0.119703 270.323V149.41C0.119703 139.095 0.119703 149.41 0.119703 124.147C0.11921 77.6393 -0.114462 132.762 0.0724734 86.2551ZM21.3714 129.281H271.916L283.382 110.936C283.301 110.837 283.226 110.733 283.157 110.624L269.185 88.2682H20.6991L32.7182 107.499C33.3429 108.499 33.2423 109.702 32.568 110.595C32.5689 111.084 32.4348 111.579 32.1515 112.032L21.3714 129.281Z" fill="#C4C4C4"/>
<path d="M28 167.136C28 153.806 38.9611 143 52.4824 143H252.518C266.039 143 277 153.806 277 167.136V247.864C277 261.194 266.039 272 252.518 272H52.4824C38.9612 272 28 261.194 28 247.864V167.136Z" fill="white"/>
<path d="M0 67C0 64.7909 1.91881 63 4.28579 63H334.714C337.081 63 339 64.7909 339 67C339 69.2091 337.081 71 334.714 71H4.28581C1.91883 71 0 69.2091 0 67Z" fill="url(#paint0_linear_678_33)"/>
<g filter="url(#filter0_d_678_33)">
<path d="M56.6912 114.725C55.1266 116.199 53.0614 116.936 50.4955 116.936C47.9297 116.936 45.8723 116.199 44.3234 114.725C42.7745 113.237 42 111.338 42 109.028C42 106.718 42.7745 104.819 44.3234 103.331C45.8723 101.843 47.9297 101.098 50.4955 101.098C53.0614 101.098 55.1266 101.843 56.6912 103.331C58.2557 104.819 59.038 106.718 59.038 109.028C59.038 111.338 58.2557 113.237 56.6912 114.725ZM47.8906 112.174C48.5007 112.982 49.3769 113.386 50.519 113.386C51.6611 113.386 52.5373 112.982 53.1475 112.174C53.7576 111.366 54.0627 110.318 54.0627 109.028C54.0627 107.738 53.7576 106.69 53.1475 105.882C52.5373 105.06 51.6611 104.649 50.519 104.649C49.3769 104.649 48.5007 105.06 47.8906 105.882C47.2804 106.69 46.9753 107.738 46.9753 109.028C46.9753 110.318 47.2804 111.366 47.8906 112.174Z" fill="#272637"/>
<path d="M60.3959 116.575V101.375H65.3008L70.7923 109.921H70.8393V101.375H75.5799V116.575H70.5107L65.1834 107.965H65.1365V116.575H60.3959Z" fill="#272637"/>
<path d="M77.6075 116.575V101.375H82.5124V112.77H89.6937V116.575H77.6075Z" fill="#272637"/>
<path d="M93.3478 116.575V111.239L87.5981 101.375H92.9254L94.709 104.755C94.8967 105.095 95.0845 105.471 95.2722 105.882C95.4599 106.293 95.6008 106.612 95.6946 106.838L95.8354 107.2H95.8824C96.2422 106.335 96.6255 105.52 97.0323 104.755L98.8159 101.375H104.026L98.2527 111.239V116.575H93.3478Z" fill="#272637"/>
<path d="M112.303 116.575V105.999H108.196V102.358C109.663 102.305 110.885 101.924 111.863 101.215C112.861 100.489 113.506 99.4881 113.799 98.2126H118.17V116.575H112.303Z" fill="#272637"/>
<path d="M129.668 117C126.969 117 124.729 116.132 122.95 114.396C121.19 112.66 120.31 110.366 120.31 107.513C120.31 104.661 121.18 102.367 122.92 100.631C124.681 98.8769 126.93 98 129.668 98C132.484 98 134.752 98.8681 136.473 100.604C138.214 102.34 139.084 104.643 139.084 107.513C139.084 110.366 138.204 112.66 136.444 114.396C134.684 116.132 132.425 117 129.668 117ZM126.323 107.513C126.323 111.216 127.448 113.067 129.697 113.067C131.946 113.067 133.07 111.216 133.07 107.513C133.07 105.777 132.797 104.404 132.249 103.394C131.701 102.385 130.851 101.88 129.697 101.88C128.543 101.88 127.692 102.385 127.145 103.394C126.597 104.404 126.323 105.777 126.323 107.513Z" fill="#272637"/>
<path d="M144.093 116.575V101.375H148.998V116.575H144.093Z" fill="#272637"/>
<path d="M151.015 116.575V101.375H155.92L161.411 109.921H161.458V101.375H166.199V116.575H161.13L155.802 107.965H155.755V116.575H151.015Z" fill="#272637"/>
<path d="M175.535 116.575V105.999H171.428V102.358C172.895 102.305 174.117 101.924 175.095 101.215C176.092 100.489 176.738 99.4881 177.031 98.2126H181.402V116.575H175.535Z" fill="#272637"/>
<path d="M192.899 117C190.2 117 187.961 116.132 186.181 114.396C184.421 112.66 183.541 110.366 183.541 107.513C183.541 104.661 184.411 102.367 186.152 100.631C187.912 98.8769 190.161 98 192.899 98C195.715 98 197.984 98.8681 199.705 100.604C201.445 102.34 202.316 104.643 202.316 107.513C202.316 110.366 201.436 112.66 199.676 114.396C197.915 116.132 195.657 117 192.899 117ZM189.555 107.513C189.555 111.216 190.679 113.067 192.928 113.067C195.177 113.067 196.302 111.216 196.302 107.513C196.302 105.777 196.028 104.404 195.481 103.394C194.933 102.385 194.082 101.88 192.928 101.88C191.775 101.88 190.924 102.385 190.376 103.394C189.829 104.404 189.555 105.777 189.555 107.513Z" fill="#272637"/>
<path d="M217.049 117C214.35 117 212.111 116.132 210.331 114.396C208.571 112.66 207.691 110.366 207.691 107.513C207.691 104.661 208.562 102.367 210.302 100.631C212.062 98.8769 214.311 98 217.049 98C219.865 98 222.134 98.8681 223.855 100.604C225.596 102.34 226.466 104.643 226.466 107.513C226.466 110.366 225.586 112.66 223.826 114.396C222.066 116.132 219.807 117 217.049 117ZM213.705 107.513C213.705 111.216 214.83 113.067 217.079 113.067C219.328 113.067 220.452 111.216 220.452 107.513C220.452 105.777 220.178 104.404 219.631 103.394C219.083 102.385 218.232 101.88 217.079 101.88C215.925 101.88 215.074 102.385 214.526 103.394C213.979 104.404 213.705 105.777 213.705 107.513Z" fill="#272637"/>
<path d="M236.816 117C234.117 117 231.878 116.132 230.098 114.396C228.338 112.66 227.458 110.366 227.458 107.513C227.458 104.661 228.329 102.367 230.069 100.631C231.829 98.8769 234.078 98 236.816 98C239.632 98 241.901 98.8681 243.622 100.604C245.363 102.34 246.233 104.643 246.233 107.513C246.233 110.366 245.353 112.66 243.593 114.396C241.833 116.132 239.574 117 236.816 117ZM233.472 107.513C233.472 111.216 234.597 113.067 236.846 113.067C239.095 113.067 240.219 111.216 240.219 107.513C240.219 105.777 239.945 104.404 239.398 103.394C238.85 102.385 237.999 101.88 236.846 101.88C235.692 101.88 234.841 102.385 234.293 103.394C233.746 104.404 233.472 105.777 233.472 107.513Z" fill="#272637"/>
<path d="M256.583 117C253.884 117 251.645 116.132 249.866 114.396C248.105 112.66 247.225 110.366 247.225 107.513C247.225 104.661 248.096 102.367 249.836 100.631C251.596 98.8769 253.845 98 256.583 98C259.4 98 261.668 98.8681 263.389 100.604C265.13 102.34 266 104.643 266 107.513C266 110.366 265.12 112.66 263.36 114.396C261.6 116.132 259.341 117 256.583 117ZM253.239 107.513C253.239 111.216 254.364 113.067 256.613 113.067C258.862 113.067 259.986 111.216 259.986 107.513C259.986 105.777 259.712 104.404 259.165 103.394C258.617 102.385 257.767 101.88 256.613 101.88C255.459 101.88 254.608 102.385 254.06 103.394C253.513 104.404 253.239 105.777 253.239 107.513Z" fill="#272637"/>
</g>
<path d="M57.7738 181.519V171.626H54.1478V169H64.5202V171.626H60.8593V181.519H57.7738Z" fill="#272637"/>
<path d="M65.4948 181.519V169H68.3363V173.657H68.3886C69.0742 172.747 69.9575 172.292 71.0383 172.292C72.0029 172.292 72.7583 172.607 73.3045 173.237C73.8624 173.856 74.1413 174.673 74.1413 175.689V181.519H71.2998V176.266C71.2998 175.776 71.1778 175.391 70.9337 175.111C70.7013 174.819 70.3584 174.673 69.9052 174.673C69.4403 174.673 69.0626 174.848 68.7721 175.198C68.4815 175.548 68.3363 176.004 68.3363 176.564V181.519H65.4948Z" fill="#272637"/>
<path d="M79.7949 181.782C78.3538 181.782 77.1974 181.338 76.3258 180.451C75.4658 179.552 75.0358 178.408 75.0358 177.019C75.0358 175.665 75.46 174.539 76.3084 173.64C77.1684 172.741 78.2725 172.292 79.6206 172.292C80.8408 172.292 81.8577 172.665 82.6713 173.412C83.7405 174.393 84.2634 175.846 84.2402 177.772H77.825C77.918 178.391 78.133 178.875 78.47 179.225C78.807 179.564 79.2603 179.733 79.8298 179.733C80.5619 179.733 81.0559 179.436 81.3115 178.84H84.0833C83.8741 179.704 83.3744 180.41 82.5841 180.959C81.8055 181.507 80.8757 181.782 79.7949 181.782ZM77.8424 176.074H81.3638C81.3173 175.537 81.1372 175.111 80.8234 174.796C80.5213 174.48 80.1377 174.323 79.6729 174.323C78.6618 174.323 78.0516 174.906 77.8424 176.074Z" fill="#272637"/>
<path d="M85.1915 181.519V172.554H87.911V173.955H87.9633C88.5676 172.928 89.3811 172.414 90.4038 172.414C90.6711 172.414 90.8571 172.438 90.9617 172.484V174.936H90.8919C90.0087 174.807 89.3114 174.965 88.8 175.408C88.2887 175.84 88.033 176.535 88.033 177.492V181.519H85.1915Z" fill="#272637"/>
<path d="M96.0528 181.782C94.6117 181.782 93.4553 181.338 92.5837 180.451C91.7237 179.552 91.2937 178.408 91.2937 177.019C91.2937 175.665 91.7179 174.539 92.5663 173.64C93.4263 172.741 94.5303 172.292 95.8785 172.292C97.0987 172.292 98.1156 172.665 98.9292 173.412C99.9984 174.393 100.521 175.846 100.498 177.772H94.0829C94.1759 178.391 94.3909 178.875 94.7279 179.225C95.065 179.564 95.5182 179.733 96.0877 179.733C96.8198 179.733 97.3138 179.436 97.5694 178.84H100.341C100.132 179.704 99.6323 180.41 98.842 180.959C98.0634 181.507 97.1336 181.782 96.0528 181.782ZM94.1003 176.074H97.6217C97.5752 175.537 97.3951 175.111 97.0813 174.796C96.7792 174.48 96.3956 174.323 95.9308 174.323C94.9197 174.323 94.3095 174.906 94.1003 176.074Z" fill="#272637"/>
<path d="M106.178 181.519L103.441 172.554H106.335L107.312 176.266L107.712 178H107.747C107.887 177.311 108.02 176.716 108.148 176.214L109.09 172.554H111.495L112.472 176.214L112.89 178.017H112.925C113.076 177.329 113.215 176.745 113.343 176.266L114.337 172.554H117.143L114.407 181.519H111.739L110.693 177.457L110.31 175.846H110.275C110.136 176.453 110.002 176.99 109.874 177.457L108.811 181.519H106.178Z" fill="#272637"/>
<path d="M117.809 181.519V172.554H120.651V181.519H117.809ZM117.809 171.311V169H120.651V171.311H117.809Z" fill="#272637"/>
<path d="M122.032 181.519V169H124.908V181.519H122.032Z" fill="#272637"/>
<path d="M126.305 181.519V169H129.181V181.519H126.305Z" fill="#272637"/>
<path d="M138.724 181.799C137.492 181.799 136.591 181.327 136.022 180.381H135.987V181.519H133.267V169H136.109V173.57H136.161C136.777 172.718 137.625 172.292 138.706 172.292C139.845 172.292 140.763 172.741 141.461 173.64C142.169 174.539 142.524 175.671 142.524 177.037C142.524 178.519 142.181 179.687 141.495 180.539C140.81 181.379 139.886 181.799 138.724 181.799ZM137.922 179.541C138.468 179.541 138.892 179.319 139.194 178.875C139.496 178.432 139.648 177.813 139.648 177.019C139.648 176.237 139.496 175.619 139.194 175.163C138.892 174.696 138.456 174.463 137.887 174.463C137.283 174.463 136.818 174.702 136.492 175.181C136.178 175.648 136.022 176.266 136.022 177.037C136.022 177.784 136.19 178.391 136.527 178.858C136.876 179.313 137.341 179.541 137.922 179.541Z" fill="#272637"/>
<path d="M147.84 181.782C146.399 181.782 145.242 181.338 144.371 180.451C143.511 179.552 143.081 178.408 143.081 177.019C143.081 175.665 143.505 174.539 144.353 173.64C145.213 172.741 146.317 172.292 147.665 172.292C148.886 172.292 149.903 172.665 150.716 173.412C151.785 174.393 152.308 175.846 152.285 177.772H145.87C145.963 178.391 146.178 178.875 146.515 179.225C146.852 179.564 147.305 179.733 147.875 179.733C148.607 179.733 149.101 179.436 149.356 178.84H152.128C151.919 179.704 151.419 180.41 150.629 180.959C149.85 181.507 148.921 181.782 147.84 181.782ZM145.887 176.074H149.409C149.362 175.537 149.182 175.111 148.868 174.796C148.566 174.48 148.183 174.323 147.718 174.323C146.707 174.323 146.096 174.906 145.887 176.074Z" fill="#272637"/>
<path d="M158.279 181.519V173.85H155.717V171.854C156.553 171.831 157.256 171.615 157.826 171.206C158.395 170.798 158.75 170.202 158.889 169.42H161.225V181.519H158.279Z" fill="#272637"/>
<path d="M168.046 179.488C169.545 179.488 170.295 178.169 170.295 175.531C170.295 174.305 170.109 173.336 169.737 172.624C169.376 171.912 168.813 171.556 168.046 171.556C167.279 171.556 166.709 171.912 166.337 172.624C165.965 173.325 165.779 174.294 165.779 175.531C165.779 176.768 165.965 177.737 166.337 178.438C166.709 179.138 167.279 179.488 168.046 179.488ZM168.028 181.799C166.459 181.799 165.187 181.227 164.211 180.083C163.246 178.939 162.764 177.422 162.764 175.531C162.764 173.628 163.246 172.111 164.211 170.979C165.187 169.835 166.465 169.263 168.046 169.263C169.65 169.263 170.928 169.835 171.881 170.979C172.845 172.111 173.328 173.628 173.328 175.531C173.328 177.434 172.84 178.957 171.863 180.101C170.899 181.233 169.62 181.799 168.028 181.799Z" fill="#272637"/>
<path d="M180.921 181.799C179.62 181.799 178.58 181.519 177.801 180.959C177.034 180.387 176.627 179.605 176.581 178.613H179.265C179.37 179.5 179.916 179.943 180.904 179.943C181.334 179.943 181.671 179.867 181.915 179.716C182.171 179.552 182.298 179.33 182.298 179.05C182.298 178.957 182.287 178.875 182.264 178.805C182.24 178.735 182.2 178.671 182.142 178.613C182.083 178.554 182.025 178.502 181.967 178.455C181.921 178.408 181.845 178.367 181.741 178.332C181.636 178.286 181.543 178.251 181.462 178.227C181.392 178.204 181.282 178.181 181.13 178.157C180.991 178.122 180.881 178.099 180.799 178.087C180.718 178.064 180.59 178.041 180.416 178.017C180.241 177.982 180.114 177.959 180.032 177.947C179.66 177.889 179.347 177.831 179.091 177.772C178.835 177.702 178.55 177.597 178.237 177.457C177.935 177.317 177.685 177.159 177.487 176.984C177.301 176.797 177.144 176.552 177.016 176.249C176.889 175.934 176.825 175.572 176.825 175.163C176.825 174.253 177.191 173.547 177.923 173.045C178.655 172.543 179.573 172.292 180.677 172.292C181.921 172.292 182.885 172.549 183.571 173.062C184.257 173.564 184.634 174.264 184.704 175.163H182.089C181.996 174.463 181.52 174.113 180.66 174.113C180.288 174.113 179.986 174.183 179.753 174.323C179.532 174.463 179.422 174.667 179.422 174.936C179.422 175.006 179.434 175.07 179.457 175.128C179.48 175.187 179.515 175.239 179.562 175.286C179.62 175.333 179.672 175.373 179.718 175.408C179.777 175.443 179.852 175.478 179.945 175.513C180.038 175.548 180.119 175.578 180.189 175.601C180.27 175.624 180.375 175.648 180.503 175.671C180.642 175.694 180.753 175.718 180.834 175.741C180.927 175.753 181.049 175.776 181.2 175.811C181.351 175.834 181.473 175.852 181.566 175.864C181.961 175.934 182.287 175.998 182.543 176.056C182.798 176.115 183.095 176.22 183.432 176.371C183.78 176.511 184.053 176.681 184.251 176.879C184.448 177.066 184.617 177.329 184.756 177.667C184.908 177.994 184.983 178.379 184.983 178.823C184.983 179.78 184.605 180.515 183.85 181.029C183.106 181.542 182.13 181.799 180.921 181.799Z" fill="#272637"/>
<path d="M188.973 181.782C187.962 181.782 187.184 181.484 186.638 180.889C186.103 180.282 185.836 179.465 185.836 178.438V172.554H188.66V177.842C188.66 178.858 189.107 179.365 190.002 179.365C190.49 179.365 190.874 179.202 191.153 178.875C191.431 178.537 191.571 178.099 191.571 177.562V172.554H194.412V181.519H191.693V180.416H191.641C190.967 181.327 190.078 181.782 188.973 181.782Z" fill="#272637"/>
<path d="M200.12 181.799C198.702 181.799 197.557 181.35 196.686 180.451C195.814 179.552 195.378 178.42 195.378 177.054C195.378 175.689 195.808 174.556 196.668 173.657C197.528 172.759 198.656 172.309 200.05 172.309C201.236 172.309 202.206 172.624 202.961 173.255C203.717 173.885 204.159 174.714 204.286 175.741H201.549C201.352 174.854 200.864 174.41 200.085 174.41C199.481 174.41 199.022 174.644 198.708 175.111C198.406 175.578 198.255 176.225 198.255 177.054C198.255 177.871 198.412 178.513 198.725 178.98C199.039 179.436 199.492 179.663 200.085 179.663C200.992 179.663 201.509 179.15 201.637 178.122H204.356C204.321 179.185 203.914 180.066 203.136 180.766C202.369 181.455 201.364 181.799 200.12 181.799Z" fill="#272637"/>
<path d="M205.262 181.519V169H208.103V173.657H208.155C208.841 172.747 209.724 172.292 210.805 172.292C211.77 172.292 212.525 172.607 213.071 173.237C213.629 173.856 213.908 174.673 213.908 175.689V181.519H211.067V176.266C211.067 175.776 210.945 175.391 210.701 175.111C210.468 174.819 210.125 174.673 209.672 174.673C209.207 174.673 208.829 174.848 208.539 175.198C208.248 175.548 208.103 176.004 208.103 176.564V181.519H205.262Z" fill="#272637"/>
<path d="M218.085 181.519V169H221.188L224.883 175.286L225.738 176.879H225.773C225.749 175.875 225.738 175.227 225.738 174.936V169H228.754V181.519H225.651L221.99 175.321L221.101 173.64H221.066C221.089 174.714 221.101 175.397 221.101 175.689V181.519H218.085Z" fill="#272637"/>
<path d="M230.461 181.519V169H239.735V171.609H233.547V174.148H238.724V176.652H233.547V181.519H230.461Z" fill="#272637"/>
<path d="M244.186 181.519V171.626H240.56V169H250.933V171.626H247.272V181.519H244.186Z" fill="#272637"/>
<path d="M54.0269 203.024C53.1204 203.024 52.4173 202.843 51.9176 202.482C51.4295 202.108 51.1854 201.466 51.1854 200.556V195.741H50V193.955H51.1854V191.118H53.9572V193.955H55.5784V195.741H53.9572V199.943C53.9572 200.27 54.0385 200.497 54.2012 200.626C54.3756 200.754 54.6254 200.818 54.9508 200.818C55.0438 200.818 55.1658 200.818 55.3169 200.818C55.468 200.807 55.5552 200.801 55.5784 200.801V202.884C55.253 202.978 54.7358 203.024 54.0269 203.024Z" fill="#272637"/>
<path d="M59.4781 200.433C59.8035 200.923 60.2684 201.168 60.8727 201.168C61.4771 201.168 61.9419 200.923 62.2673 200.433C62.6044 199.943 62.7729 199.283 62.7729 198.455C62.7729 197.626 62.6044 196.966 62.2673 196.476C61.9419 195.974 61.4771 195.723 60.8727 195.723C60.2684 195.723 59.8035 195.968 59.4781 196.458C59.1527 196.949 58.99 197.614 58.99 198.455C58.99 199.283 59.1527 199.943 59.4781 200.433ZM64.3244 201.851C63.4528 202.75 62.308 203.2 60.8902 203.2C59.4723 203.2 58.3218 202.75 57.4385 201.851C56.5553 200.952 56.1137 199.82 56.1137 198.455C56.1137 197.089 56.5553 195.957 57.4385 195.058C58.3218 194.159 59.4723 193.709 60.8902 193.709C62.308 193.709 63.4528 194.159 64.3244 195.058C65.2076 195.957 65.6493 197.089 65.6493 198.455C65.6493 199.82 65.2076 200.952 64.3244 201.851Z" fill="#272637"/>
<path d="M66.6098 202.919V190.4H69.4165V196.984L72.0662 193.955H75.3435L72.2057 197.316L75.7096 202.919H72.4149L70.2707 199.26L69.4165 200.17V202.919H66.6098Z" fill="#272637"/>
<path d="M80.0247 203.182C78.5836 203.182 77.4273 202.738 76.5556 201.851C75.6956 200.952 75.2656 199.809 75.2656 198.419C75.2656 197.065 75.6898 195.939 76.5382 195.04C77.3982 194.141 78.5023 193.692 79.8504 193.692C81.0707 193.692 82.0876 194.066 82.9011 194.813C83.9703 195.793 84.4933 197.246 84.47 199.172H78.0548C78.1478 199.791 78.3628 200.275 78.6998 200.626C79.0369 200.964 79.4901 201.133 80.0596 201.133C80.7917 201.133 81.2857 200.836 81.5413 200.24H84.3131C84.1039 201.104 83.6042 201.81 82.8139 202.359C82.0353 202.908 81.1055 203.182 80.0247 203.182ZM78.0723 197.474H81.5936C81.5472 196.937 81.367 196.511 81.0532 196.196C80.7511 195.881 80.3676 195.723 79.9027 195.723C78.8916 195.723 78.2815 196.307 78.0723 197.474Z" fill="#272637"/>
<path d="M85.4213 202.919V193.955H88.1582V195.18H88.2105C88.8962 194.188 89.8143 193.692 90.9649 193.692C91.9295 193.692 92.6849 194.007 93.2311 194.637C93.7889 195.256 94.0679 196.073 94.0679 197.089V202.919H91.2264V197.667C91.2264 197.176 91.1043 196.791 90.8603 196.511C90.6278 196.219 90.285 196.073 89.8318 196.073C89.3669 196.073 88.9892 196.248 88.6986 196.599C88.4081 196.949 88.2628 197.404 88.2628 197.964V202.919H85.4213Z" fill="#272637"/>
<path d="M99.1636 203.2C97.862 203.2 96.8218 202.919 96.0432 202.359C95.2762 201.787 94.8694 201.005 94.8229 200.013H97.5075C97.6121 200.9 98.1583 201.344 99.1462 201.344C99.5762 201.344 99.9132 201.268 100.157 201.116C100.413 200.952 100.541 200.731 100.541 200.451C100.541 200.357 100.529 200.275 100.506 200.205C100.483 200.135 100.442 200.071 100.384 200.013C100.326 199.954 100.268 199.902 100.21 199.855C100.163 199.809 100.088 199.768 99.983 199.733C99.8784 199.686 99.7854 199.651 99.704 199.628C99.6343 199.604 99.5239 199.581 99.3728 199.558C99.2333 199.523 99.1229 199.499 99.0416 199.488C98.9602 199.464 98.8324 199.441 98.6581 199.418C98.4837 199.382 98.3559 199.359 98.2746 199.347C97.9027 199.289 97.5889 199.231 97.3332 199.172C97.0775 199.102 96.7928 198.997 96.479 198.857C96.1768 198.717 95.927 198.56 95.7294 198.384C95.5435 198.198 95.3866 197.953 95.2587 197.649C95.1309 197.334 95.067 196.972 95.067 196.564C95.067 195.653 95.4331 194.947 96.1652 194.445C96.8974 193.943 97.8155 193.692 98.9196 193.692C100.163 193.692 101.128 193.949 101.813 194.462C102.499 194.964 102.877 195.665 102.946 196.564H100.332C100.239 195.863 99.7621 195.513 98.9021 195.513C98.5302 195.513 98.2281 195.583 97.9956 195.723C97.7748 195.863 97.6644 196.067 97.6644 196.336C97.6644 196.406 97.676 196.47 97.6993 196.528C97.7225 196.587 97.7574 196.639 97.8039 196.686C97.862 196.733 97.9143 196.774 97.9608 196.809C98.0189 196.844 98.0944 196.879 98.1874 196.914C98.2804 196.949 98.3617 196.978 98.4315 197.001C98.5128 197.025 98.6174 197.048 98.7452 197.071C98.8847 197.095 98.9951 197.118 99.0765 197.141C99.1694 197.153 99.2915 197.176 99.4426 197.211C99.5936 197.235 99.7157 197.252 99.8086 197.264C100.204 197.334 100.529 197.398 100.785 197.456C101.041 197.515 101.337 197.62 101.674 197.772C102.023 197.912 102.296 198.081 102.493 198.279C102.691 198.466 102.859 198.729 102.999 199.067C103.15 199.394 103.225 199.779 103.225 200.223C103.225 201.18 102.848 201.916 102.092 202.429C101.349 202.943 100.372 203.2 99.1636 203.2Z" fill="#272637"/>
<path d="M106.855 202.919V193.955H109.696V202.919H106.855ZM106.855 192.711V190.4H109.696V192.711H106.855Z" fill="#272637"/>
<path d="M111.059 202.919V193.955H113.796V195.18H113.849C114.534 194.188 115.452 193.692 116.603 193.692C117.568 193.692 118.323 194.007 118.869 194.637C119.427 195.256 119.706 196.073 119.706 197.089V202.919H116.864V197.667C116.864 197.176 116.742 196.791 116.498 196.511C116.266 196.219 115.923 196.073 115.47 196.073C115.005 196.073 114.627 196.248 114.337 196.599C114.046 196.949 113.901 197.404 113.901 197.964V202.919H111.059Z" fill="#272637"/>
<path d="M127.247 203.024C126.341 203.024 125.637 202.843 125.138 202.482C124.65 202.108 124.406 201.466 124.406 200.556V195.741H123.22V193.955H124.406V191.118H127.177V193.955H128.799V195.741H127.177V199.943C127.177 200.27 127.259 200.497 127.421 200.626C127.596 200.754 127.846 200.818 128.171 200.818C128.264 200.818 128.386 200.818 128.537 200.818C128.688 200.807 128.775 200.801 128.799 200.801V202.884C128.473 202.978 127.956 203.024 127.247 203.024Z" fill="#272637"/>
<path d="M132.698 200.433C133.024 200.923 133.489 201.168 134.093 201.168C134.697 201.168 135.162 200.923 135.487 200.433C135.825 199.943 135.993 199.283 135.993 198.455C135.993 197.626 135.825 196.966 135.487 196.476C135.162 195.974 134.697 195.723 134.093 195.723C133.489 195.723 133.024 195.968 132.698 196.458C132.373 196.949 132.21 197.614 132.21 198.455C132.21 199.283 132.373 199.943 132.698 200.433ZM137.545 201.851C136.673 202.75 135.528 203.2 134.11 203.2C132.692 203.2 131.542 202.75 130.659 201.851C129.775 200.952 129.334 199.82 129.334 198.455C129.334 197.089 129.775 195.957 130.659 195.058C131.542 194.159 132.692 193.709 134.11 193.709C135.528 193.709 136.673 194.159 137.545 195.058C138.428 195.957 138.869 197.089 138.869 198.455C138.869 199.82 138.428 200.952 137.545 201.851Z" fill="#272637"/>
<path d="M143.199 203.024C142.292 203.024 141.589 202.843 141.089 202.482C140.601 202.108 140.357 201.466 140.357 200.556V195.741H139.172V193.955H140.357V191.118H143.129V193.955H144.75V195.741H143.129V199.943C143.129 200.27 143.21 200.497 143.373 200.626C143.547 200.754 143.797 200.818 144.122 200.818C144.215 200.818 144.337 200.818 144.489 200.818C144.64 200.807 144.727 200.801 144.75 200.801V202.884C144.425 202.978 143.907 203.024 143.199 203.024Z" fill="#272637"/>
<path d="M148.574 203.147C147.656 203.147 146.918 202.908 146.36 202.429C145.802 201.951 145.523 201.279 145.523 200.416C145.523 199.505 145.825 198.846 146.43 198.437C147.034 198.017 147.871 197.737 148.94 197.597C149.812 197.491 150.404 197.375 150.718 197.246C151.044 197.106 151.206 196.89 151.206 196.599C151.206 195.957 150.799 195.636 149.986 195.636C149.114 195.636 148.632 196.021 148.539 196.791H145.924C145.959 195.904 146.319 195.169 147.005 194.585C147.702 194.001 148.69 193.709 149.968 193.709C151.247 193.709 152.211 193.955 152.862 194.445C153.618 194.994 153.995 195.846 153.995 197.001V201.519C153.995 202.231 154.1 202.657 154.309 202.797V202.919H151.555C151.439 202.756 151.34 202.423 151.259 201.921H151.224C150.654 202.738 149.771 203.147 148.574 203.147ZM149.48 201.326C150.015 201.326 150.445 201.18 150.77 200.888C151.107 200.585 151.276 200.194 151.276 199.715V198.647C150.997 198.787 150.509 198.945 149.812 199.12C149.242 199.248 148.841 199.4 148.609 199.575C148.376 199.75 148.26 200.001 148.26 200.328C148.26 200.993 148.667 201.326 149.48 201.326Z" fill="#272637"/>
<path d="M155.39 202.919V190.4H158.267V202.919H155.39Z" fill="#272637"/>
<path d="M159.524 202.919V199.978H162.505V202.919H159.524Z" fill="#272637"/>
<path d="M171.598 203.217C169.913 203.217 168.571 202.855 167.571 202.131C166.583 201.396 166.072 200.346 166.037 198.98H169.14C169.268 200.17 170.081 200.766 171.581 200.766C172.138 200.766 172.609 200.661 172.993 200.451C173.388 200.229 173.585 199.896 173.585 199.453C173.585 199.149 173.463 198.898 173.219 198.7C172.975 198.49 172.725 198.344 172.47 198.262C172.226 198.18 171.755 198.052 171.058 197.877C171.023 197.865 171 197.859 170.988 197.859C170.976 197.848 170.959 197.842 170.936 197.842C170.912 197.83 170.889 197.824 170.866 197.824C170.331 197.696 169.89 197.585 169.541 197.491C169.204 197.386 168.815 197.235 168.373 197.036C167.943 196.826 167.6 196.599 167.345 196.353C167.089 196.108 166.868 195.787 166.682 195.39C166.508 194.982 166.421 194.527 166.421 194.025C166.421 192.741 166.874 191.778 167.78 191.136C168.698 190.494 169.896 190.173 171.371 190.173C172.789 190.173 173.946 190.499 174.841 191.153C175.747 191.807 176.229 192.764 176.287 194.025H173.272C173.214 193.546 173.01 193.178 172.661 192.922C172.313 192.653 171.848 192.519 171.267 192.519C170.732 192.519 170.296 192.63 169.959 192.852C169.634 193.062 169.471 193.342 169.471 193.692C169.471 194.089 169.669 194.381 170.064 194.567C170.459 194.743 171.203 194.953 172.295 195.198C172.981 195.361 173.545 195.525 173.986 195.688C174.428 195.84 174.875 196.062 175.329 196.353C175.794 196.645 176.136 197.025 176.357 197.491C176.59 197.947 176.706 198.495 176.706 199.137C176.706 200.41 176.224 201.408 175.259 202.131C174.306 202.855 173.086 203.217 171.598 203.217Z" fill="#272637"/>
<path d="M177.793 202.919V193.955H180.635V202.919H177.793ZM177.793 192.711V190.4H180.635V192.711H177.793Z" fill="#272637"/>
<path d="M181.998 202.919V193.955H184.735V195.18H184.788C185.473 194.188 186.391 193.692 187.542 193.692C188.507 193.692 189.262 194.007 189.808 194.637C190.366 195.256 190.645 196.073 190.645 197.089V202.919H187.803V197.667C187.803 197.176 187.681 196.791 187.437 196.511C187.205 196.219 186.862 196.073 186.409 196.073C185.944 196.073 185.566 196.248 185.276 196.599C184.985 196.949 184.84 197.404 184.84 197.964V202.919H181.998Z" fill="#272637"/>
<path d="M196.281 203.2C194.863 203.2 193.719 202.75 192.847 201.851C191.975 200.952 191.539 199.82 191.539 198.455C191.539 197.089 191.969 195.957 192.829 195.058C193.689 194.159 194.817 193.709 196.211 193.709C197.397 193.709 198.367 194.025 199.123 194.655C199.878 195.285 200.32 196.114 200.447 197.141H197.711C197.513 196.254 197.025 195.811 196.246 195.811C195.642 195.811 195.183 196.044 194.869 196.511C194.567 196.978 194.416 197.626 194.416 198.455C194.416 199.272 194.573 199.914 194.886 200.381C195.2 200.836 195.654 201.063 196.246 201.063C197.153 201.063 197.67 200.55 197.798 199.523H200.517C200.482 200.585 200.076 201.466 199.297 202.166C198.53 202.855 197.525 203.2 196.281 203.2Z" fill="#272637"/>
<path d="M205.781 203.182C204.34 203.182 203.183 202.738 202.312 201.851C201.452 200.952 201.022 199.809 201.022 198.419C201.022 197.065 201.446 195.939 202.294 195.04C203.154 194.141 204.258 193.692 205.607 193.692C206.827 193.692 207.844 194.066 208.657 194.813C209.726 195.793 210.249 197.246 210.226 199.172H203.811C203.904 199.791 204.119 200.275 204.456 200.626C204.793 200.964 205.246 201.133 205.816 201.133C206.548 201.133 207.042 200.836 207.298 200.24H210.069C209.86 201.104 209.36 201.81 208.57 202.359C207.791 202.908 206.862 203.182 205.781 203.182ZM203.828 197.474H207.35C207.303 196.937 207.123 196.511 206.809 196.196C206.507 195.881 206.124 195.723 205.659 195.723C204.648 195.723 204.038 196.307 203.828 197.474Z" fill="#272637"/>
<path d="M217.423 203.024C216.517 203.024 215.813 202.843 215.314 202.482C214.826 202.108 214.582 201.466 214.582 200.556V195.741H213.396V193.955H214.582V191.118H217.353V193.955H218.975V195.741H217.353V199.943C217.353 200.27 217.435 200.497 217.597 200.626C217.772 200.754 218.022 200.818 218.347 200.818C218.44 200.818 218.562 200.818 218.713 200.818C218.864 200.807 218.951 200.801 218.975 200.801V202.884C218.649 202.978 218.132 203.024 217.423 203.024Z" fill="#272637"/>
<path d="M219.996 202.919V190.4H222.837V195.058H222.89C223.575 194.147 224.459 193.692 225.539 193.692C226.504 193.692 227.259 194.007 227.806 194.637C228.364 195.256 228.642 196.073 228.642 197.089V202.919H225.801V197.667C225.801 197.176 225.679 196.791 225.435 196.511C225.202 196.219 224.86 196.073 224.406 196.073C223.941 196.073 223.564 196.248 223.273 196.599C222.983 196.949 222.837 197.404 222.837 197.964V202.919H219.996Z" fill="#272637"/>
<path d="M234.296 203.182C232.855 203.182 231.699 202.738 230.827 201.851C229.967 200.952 229.537 199.809 229.537 198.419C229.537 197.065 229.961 195.939 230.81 195.04C231.67 194.141 232.774 193.692 234.122 193.692C235.342 193.692 236.359 194.066 237.172 194.813C238.242 195.793 238.765 197.246 238.741 199.172H232.326C232.419 199.791 232.634 200.275 232.971 200.626C233.308 200.964 233.761 201.133 234.331 201.133C235.063 201.133 235.557 200.836 235.813 200.24H238.584C238.375 201.104 237.876 201.81 237.085 202.359C236.307 202.908 235.377 203.182 234.296 203.182ZM232.344 197.474H235.865C235.818 196.937 235.638 196.511 235.325 196.196C235.022 195.881 234.639 195.723 234.174 195.723C233.163 195.723 232.553 196.307 232.344 197.474Z" fill="#272637"/>
<path d="M239.693 202.919V193.955H242.412V195.355H242.464C243.069 194.328 243.882 193.815 244.905 193.815C245.172 193.815 245.358 193.838 245.463 193.885V196.336H245.393C244.51 196.207 243.813 196.365 243.301 196.809C242.79 197.241 242.534 197.935 242.534 198.892V202.919H239.693Z" fill="#272637"/>
<path d="M250.554 203.182C249.113 203.182 247.956 202.738 247.085 201.851C246.225 200.952 245.795 199.809 245.795 198.419C245.795 197.065 246.219 195.939 247.067 195.04C247.927 194.141 249.032 193.692 250.38 193.692C251.6 193.692 252.617 194.066 253.43 194.813C254.5 195.793 255.023 197.246 254.999 199.172H248.584C248.677 199.791 248.892 200.275 249.229 200.626C249.566 200.964 250.019 201.133 250.589 201.133C251.321 201.133 251.815 200.836 252.071 200.24H254.842C254.633 201.104 254.133 201.81 253.343 202.359C252.565 202.908 251.635 203.182 250.554 203.182ZM248.602 197.474H252.123C252.076 196.937 251.896 196.511 251.582 196.196C251.28 195.881 250.897 195.723 250.432 195.723C249.421 195.723 248.811 196.307 248.602 197.474Z" fill="#272637"/>
<path d="M68.8108 224.32L66.0738 215.355H68.9676L69.9439 219.067L70.3448 220.8H70.3797C70.5191 220.112 70.6528 219.516 70.7806 219.014L71.722 215.355H74.1277L75.1039 219.014L75.5223 220.818H75.5572C75.7082 220.129 75.8477 219.545 75.9755 219.067L76.9692 215.355H79.7758L77.0389 224.32H74.3717L73.3258 220.257L72.9423 218.647H72.9074C72.7679 219.254 72.6343 219.791 72.5065 220.257L71.4431 224.32H68.8108Z" fill="#272637"/>
<path d="M80.4418 224.32V215.355H83.2833V224.32H80.4418ZM80.4418 214.112V211.8H83.2833V214.112H80.4418Z" fill="#272637"/>
<path d="M84.6642 224.32V211.8H87.5405V224.32H84.6642Z" fill="#272637"/>
<path d="M88.9372 224.32V211.8H91.8135V224.32H88.9372Z" fill="#272637"/>
<path d="M101.356 224.6C100.124 224.6 99.2234 224.127 98.6539 223.182H98.6191V224.32H95.8996V211.8H98.7411V216.37H98.7934C99.4093 215.518 100.258 215.092 101.339 215.092C102.477 215.092 103.396 215.542 104.093 216.44C104.802 217.339 105.156 218.472 105.156 219.837C105.156 221.32 104.813 222.487 104.128 223.339C103.442 224.18 102.518 224.6 101.356 224.6ZM100.554 222.341C101.1 222.341 101.524 222.119 101.827 221.676C102.129 221.232 102.28 220.613 102.28 219.82C102.28 219.038 102.129 218.419 101.827 217.964C101.524 217.497 101.089 217.263 100.519 217.263C99.9149 217.263 99.45 217.503 99.1246 217.981C98.8108 218.448 98.6539 219.067 98.6539 219.837C98.6539 220.584 98.8224 221.191 99.1595 221.658C99.5081 222.113 99.973 222.341 100.554 222.341Z" fill="#272637"/>
<path d="M110.472 224.582C109.031 224.582 107.875 224.139 107.003 223.252C106.143 222.353 105.713 221.209 105.713 219.82C105.713 218.466 106.137 217.339 106.986 216.44C107.846 215.542 108.95 215.092 110.298 215.092C111.518 215.092 112.535 215.466 113.348 216.213C114.418 217.193 114.941 218.647 114.917 220.573H108.502C108.595 221.191 108.81 221.676 109.147 222.026C109.484 222.364 109.938 222.534 110.507 222.534C111.239 222.534 111.733 222.236 111.989 221.641H114.761C114.551 222.504 114.052 223.211 113.261 223.759C112.483 224.308 111.553 224.582 110.472 224.582ZM108.52 218.874H112.041C111.995 218.337 111.814 217.911 111.501 217.596C111.198 217.281 110.815 217.123 110.35 217.123C109.339 217.123 108.729 217.707 108.52 218.874Z" fill="#272637"/>
<path d="M120.911 224.32V216.651H118.349V214.654C119.186 214.631 119.889 214.415 120.458 214.007C121.028 213.598 121.382 213.003 121.522 212.221H123.858V224.32H120.911Z" fill="#272637"/>
<path d="M130.678 222.289C132.177 222.289 132.927 220.97 132.927 218.331C132.927 217.106 132.741 216.137 132.369 215.425C132.009 214.713 131.445 214.357 130.678 214.357C129.911 214.357 129.342 214.713 128.97 215.425C128.598 216.125 128.412 217.094 128.412 218.331C128.412 219.569 128.598 220.538 128.97 221.238C129.342 221.938 129.911 222.289 130.678 222.289ZM130.661 224.6C129.092 224.6 127.819 224.028 126.843 222.884C125.878 221.74 125.396 220.222 125.396 218.331C125.396 216.429 125.878 214.911 126.843 213.779C127.819 212.635 129.098 212.063 130.678 212.063C132.282 212.063 133.56 212.635 134.513 213.779C135.478 214.911 135.96 216.429 135.96 218.331C135.96 220.234 135.472 221.757 134.496 222.901C133.531 224.034 132.253 224.6 130.661 224.6Z" fill="#272637"/>
<path d="M143.554 224.6C142.252 224.6 141.212 224.32 140.433 223.759C139.666 223.187 139.259 222.405 139.213 221.413H141.898C142.002 222.3 142.548 222.744 143.536 222.744C143.966 222.744 144.303 222.668 144.547 222.516C144.803 222.353 144.931 222.131 144.931 221.851C144.931 221.757 144.919 221.676 144.896 221.606C144.873 221.536 144.832 221.471 144.774 221.413C144.716 221.355 144.658 221.302 144.6 221.255C144.553 221.209 144.478 221.168 144.373 221.133C144.268 221.086 144.175 221.051 144.094 221.028C144.024 221.005 143.914 220.981 143.763 220.958C143.623 220.923 143.513 220.899 143.432 220.888C143.35 220.864 143.222 220.841 143.048 220.818C142.874 220.783 142.746 220.759 142.665 220.748C142.293 220.689 141.979 220.631 141.723 220.573C141.468 220.503 141.183 220.398 140.869 220.257C140.567 220.117 140.317 219.96 140.119 219.785C139.934 219.598 139.777 219.353 139.649 219.049C139.521 218.734 139.457 218.372 139.457 217.964C139.457 217.053 139.823 216.347 140.555 215.845C141.287 215.343 142.206 215.092 143.31 215.092C144.553 215.092 145.518 215.349 146.203 215.863C146.889 216.365 147.267 217.065 147.337 217.964H144.722C144.629 217.263 144.152 216.913 143.292 216.913C142.92 216.913 142.618 216.983 142.386 217.123C142.165 217.263 142.054 217.468 142.054 217.736C142.054 217.806 142.066 217.87 142.089 217.929C142.113 217.987 142.147 218.04 142.194 218.086C142.252 218.133 142.304 218.174 142.351 218.209C142.409 218.244 142.484 218.279 142.577 218.314C142.67 218.349 142.752 218.378 142.821 218.401C142.903 218.425 143.007 218.448 143.135 218.472C143.275 218.495 143.385 218.518 143.466 218.542C143.559 218.553 143.681 218.577 143.833 218.612C143.984 218.635 144.106 218.652 144.199 218.664C144.594 218.734 144.919 218.798 145.175 218.857C145.431 218.915 145.727 219.02 146.064 219.172C146.413 219.312 146.686 219.481 146.883 219.68C147.081 219.866 147.249 220.129 147.389 220.468C147.54 220.794 147.615 221.18 147.615 221.623C147.615 222.58 147.238 223.316 146.482 223.829C145.739 224.343 144.762 224.6 143.554 224.6Z" fill="#272637"/>
<path d="M151.821 224.425C150.915 224.425 150.212 224.244 149.712 223.882C149.224 223.508 148.98 222.866 148.98 221.956V217.141H147.794V215.355H148.98V212.518H151.751V215.355H153.373V217.141H151.751V221.343C151.751 221.67 151.833 221.897 151.996 222.026C152.17 222.154 152.42 222.218 152.745 222.218C152.838 222.218 152.96 222.218 153.111 222.218C153.262 222.207 153.349 222.201 153.373 222.201V224.285C153.047 224.378 152.53 224.425 151.821 224.425Z" fill="#272637"/>
<path d="M157.197 224.547C156.278 224.547 155.54 224.308 154.983 223.829C154.425 223.351 154.146 222.68 154.146 221.816C154.146 220.905 154.448 220.246 155.052 219.837C155.657 219.417 156.493 219.137 157.563 218.997C158.434 218.892 159.027 218.775 159.341 218.647C159.666 218.507 159.829 218.291 159.829 217.999C159.829 217.357 159.422 217.036 158.609 217.036C157.737 217.036 157.255 217.421 157.162 218.191H154.547C154.582 217.304 154.942 216.569 155.628 215.985C156.325 215.402 157.313 215.11 158.591 215.11C159.87 215.11 160.834 215.355 161.485 215.845C162.24 216.394 162.618 217.246 162.618 218.401V222.919C162.618 223.631 162.723 224.057 162.932 224.197V224.32H160.178C160.061 224.156 159.963 223.824 159.881 223.322H159.846C159.277 224.139 158.394 224.547 157.197 224.547ZM158.103 222.726C158.638 222.726 159.068 222.58 159.393 222.289C159.73 221.985 159.899 221.594 159.899 221.115V220.047C159.62 220.187 159.132 220.345 158.434 220.52C157.865 220.648 157.464 220.8 157.231 220.975C156.999 221.15 156.883 221.401 156.883 221.728C156.883 222.394 157.29 222.726 158.103 222.726Z" fill="#272637"/>
<path d="M167.364 224.425C166.458 224.425 165.754 224.244 165.255 223.882C164.767 223.508 164.523 222.866 164.523 221.956V217.141H163.337V215.355H164.523V212.518H167.294V215.355H168.916V217.141H167.294V221.343C167.294 221.67 167.376 221.897 167.538 222.026C167.713 222.154 167.963 222.218 168.288 222.218C168.381 222.218 168.503 222.218 168.654 222.218C168.805 222.207 168.892 222.201 168.916 222.201V224.285C168.59 224.378 168.073 224.425 167.364 224.425Z" fill="#272637"/>
<path d="M174.21 224.582C172.769 224.582 171.612 224.139 170.741 223.252C169.881 222.353 169.451 221.209 169.451 219.82C169.451 218.466 169.875 217.339 170.723 216.44C171.583 215.542 172.687 215.092 174.036 215.092C175.256 215.092 176.273 215.466 177.086 216.213C178.155 217.193 178.678 218.647 178.655 220.573H172.24C172.333 221.191 172.548 221.676 172.885 222.026C173.222 222.364 173.675 222.534 174.245 222.534C174.977 222.534 175.471 222.236 175.727 221.641H178.498C178.289 222.504 177.789 223.211 176.999 223.759C176.22 224.308 175.291 224.582 174.21 224.582ZM172.257 218.874H175.779C175.732 218.337 175.552 217.911 175.238 217.596C174.936 217.281 174.553 217.123 174.088 217.123C173.077 217.123 172.467 217.707 172.257 218.874Z" fill="#272637"/>
<path d="M183.407 224.6C182.105 224.6 181.065 224.32 180.286 223.759C179.519 223.187 179.113 222.405 179.066 221.413H181.751C181.855 222.3 182.402 222.744 183.389 222.744C183.819 222.744 184.156 222.668 184.4 222.516C184.656 222.353 184.784 222.131 184.784 221.851C184.784 221.757 184.772 221.676 184.749 221.606C184.726 221.536 184.685 221.471 184.627 221.413C184.569 221.355 184.511 221.302 184.453 221.255C184.406 221.209 184.331 221.168 184.226 221.133C184.122 221.086 184.029 221.051 183.947 221.028C183.877 221.005 183.767 220.981 183.616 220.958C183.477 220.923 183.366 220.899 183.285 220.888C183.203 220.864 183.076 220.841 182.901 220.818C182.727 220.783 182.599 220.759 182.518 220.748C182.146 220.689 181.832 220.631 181.576 220.573C181.321 220.503 181.036 220.398 180.722 220.257C180.42 220.117 180.17 219.96 179.973 219.785C179.787 219.598 179.63 219.353 179.502 219.049C179.374 218.734 179.31 218.372 179.31 217.964C179.31 217.053 179.676 216.347 180.408 215.845C181.141 215.343 182.059 215.092 183.163 215.092C184.406 215.092 185.371 215.349 186.057 215.863C186.742 216.365 187.12 217.065 187.19 217.964H184.575C184.482 217.263 184.005 216.913 183.145 216.913C182.773 216.913 182.471 216.983 182.239 217.123C182.018 217.263 181.908 217.468 181.908 217.736C181.908 217.806 181.919 217.87 181.942 217.929C181.966 217.987 182.001 218.04 182.047 218.086C182.105 218.133 182.157 218.174 182.204 218.209C182.262 218.244 182.338 218.279 182.431 218.314C182.524 218.349 182.605 218.378 182.675 218.401C182.756 218.425 182.861 218.448 182.988 218.472C183.128 218.495 183.238 218.518 183.32 218.542C183.413 218.553 183.535 218.577 183.686 218.612C183.837 218.635 183.959 218.652 184.052 218.664C184.447 218.734 184.772 218.798 185.028 218.857C185.284 218.915 185.58 219.02 185.917 219.172C186.266 219.312 186.539 219.481 186.736 219.68C186.934 219.866 187.103 220.129 187.242 220.468C187.393 220.794 187.469 221.18 187.469 221.623C187.469 222.58 187.091 223.316 186.335 223.829C185.592 224.343 184.615 224.6 183.407 224.6Z" fill="#272637"/>
<path d="M194.061 221.833C194.387 222.324 194.851 222.569 195.456 222.569C196.06 222.569 196.525 222.324 196.85 221.833C197.187 221.343 197.356 220.684 197.356 219.855C197.356 219.026 197.187 218.366 196.85 217.876C196.525 217.374 196.06 217.123 195.456 217.123C194.851 217.123 194.387 217.368 194.061 217.859C193.736 218.349 193.573 219.014 193.573 219.855C193.573 220.684 193.736 221.343 194.061 221.833ZM198.907 223.252C198.036 224.15 196.891 224.6 195.473 224.6C194.055 224.6 192.905 224.15 192.022 223.252C191.138 222.353 190.697 221.22 190.697 219.855C190.697 218.489 191.138 217.357 192.022 216.458C192.905 215.559 194.055 215.11 195.473 215.11C196.891 215.11 198.036 215.559 198.907 216.458C199.791 217.357 200.232 218.489 200.232 219.855C200.232 221.22 199.791 222.353 198.907 223.252Z" fill="#272637"/>
<path d="M201.193 224.32V215.355H203.93V216.581H203.982C204.668 215.588 205.586 215.092 206.736 215.092C207.701 215.092 208.456 215.407 209.003 216.038C209.561 216.656 209.839 217.473 209.839 218.489V224.32H206.998V219.067C206.998 218.577 206.876 218.191 206.632 217.911C206.399 217.619 206.057 217.473 205.603 217.473C205.138 217.473 204.761 217.649 204.47 217.999C204.18 218.349 204.034 218.804 204.034 219.364V224.32H201.193Z" fill="#272637"/>
<path d="M217.381 224.425C216.474 224.425 215.771 224.244 215.271 223.882C214.783 223.508 214.539 222.866 214.539 221.956V217.141H213.354V215.355H214.539V212.518H217.311V215.355H218.932V217.141H217.311V221.343C217.311 221.67 217.392 221.897 217.555 222.026C217.729 222.154 217.979 222.218 218.304 222.218C218.397 222.218 218.519 222.218 218.671 222.218C218.822 222.207 218.909 222.201 218.932 222.201V224.285C218.607 224.378 218.089 224.425 217.381 224.425Z" fill="#272637"/>
<path d="M219.953 224.32V211.8H222.795V216.458H222.847C223.533 215.547 224.416 215.092 225.497 215.092C226.461 215.092 227.217 215.407 227.763 216.038C228.321 216.656 228.6 217.473 228.6 218.489V224.32H225.758V219.067C225.758 218.577 225.636 218.191 225.392 217.911C225.16 217.619 224.817 217.473 224.364 217.473C223.899 217.473 223.521 217.649 223.231 217.999C222.94 218.349 222.795 218.804 222.795 219.364V224.32H219.953Z" fill="#272637"/>
<path d="M234.253 224.582C232.812 224.582 231.656 224.139 230.784 223.252C229.924 222.353 229.494 221.209 229.494 219.82C229.494 218.466 229.919 217.339 230.767 216.44C231.627 215.542 232.731 215.092 234.079 215.092C235.299 215.092 236.316 215.466 237.13 216.213C238.199 217.193 238.722 218.647 238.699 220.573H232.284C232.377 221.191 232.592 221.676 232.929 222.026C233.266 222.364 233.719 222.534 234.288 222.534C235.021 222.534 235.514 222.236 235.77 221.641H238.542C238.333 222.504 237.833 223.211 237.043 223.759C236.264 224.308 235.334 224.582 234.253 224.582ZM232.301 218.874H235.822C235.776 218.337 235.596 217.911 235.282 217.596C234.98 217.281 234.596 217.123 234.131 217.123C233.12 217.123 232.51 217.707 232.301 218.874Z" fill="#272637"/>
<path d="M128.526 245.72V236.755H131.246V238.033H131.298C131.914 237.006 132.814 236.492 134 236.492C135.174 236.492 136.01 237.018 136.51 238.068H136.545C137.219 237.018 138.155 236.492 139.352 236.492C140.34 236.492 141.089 236.802 141.6 237.42C142.123 238.027 142.385 238.85 142.385 239.889V245.72H139.543V240.397C139.543 239.381 139.125 238.874 138.288 238.874C137.847 238.874 137.498 239.043 137.242 239.381C136.998 239.708 136.876 240.146 136.876 240.695V245.72H134.035V240.397C134.035 239.381 133.616 238.874 132.78 238.874C132.338 238.874 131.989 239.043 131.734 239.381C131.49 239.708 131.368 240.146 131.368 240.695V245.72H128.526Z" fill="#272637"/>
<path d="M146.641 243.234C146.966 243.724 147.431 243.969 148.036 243.969C148.64 243.969 149.105 243.724 149.43 243.234C149.767 242.743 149.936 242.084 149.936 241.255C149.936 240.426 149.767 239.767 149.43 239.276C149.105 238.774 148.64 238.524 148.036 238.524C147.431 238.524 146.966 238.769 146.641 239.259C146.316 239.749 146.153 240.415 146.153 241.255C146.153 242.084 146.316 242.743 146.641 243.234ZM151.487 244.652C150.616 245.551 149.471 246 148.053 246C146.635 246 145.485 245.551 144.601 244.652C143.718 243.753 143.276 242.621 143.276 241.255C143.276 239.889 143.718 238.757 144.601 237.858C145.485 236.959 146.635 236.51 148.053 236.51C149.471 236.51 150.616 236.959 151.487 237.858C152.37 238.757 152.812 239.889 152.812 241.255C152.812 242.621 152.37 243.753 151.487 244.652Z" fill="#272637"/>
<path d="M156.736 243.234C157.062 243.724 157.526 243.969 158.131 243.969C158.735 243.969 159.2 243.724 159.525 243.234C159.862 242.743 160.031 242.084 160.031 241.255C160.031 240.426 159.862 239.767 159.525 239.276C159.2 238.774 158.735 238.524 158.131 238.524C157.526 238.524 157.062 238.769 156.736 239.259C156.411 239.749 156.248 240.415 156.248 241.255C156.248 242.084 156.411 242.743 156.736 243.234ZM161.582 244.652C160.711 245.551 159.566 246 158.148 246C156.73 246 155.58 245.551 154.697 244.652C153.813 243.753 153.372 242.621 153.372 241.255C153.372 239.889 153.813 238.757 154.697 237.858C155.58 236.959 156.73 236.51 158.148 236.51C159.566 236.51 160.711 236.959 161.582 237.858C162.466 238.757 162.907 239.889 162.907 241.255C162.907 242.621 162.466 243.753 161.582 244.652Z" fill="#272637"/>
<path d="M163.868 245.72V236.755H166.605V237.981H166.657C167.343 236.989 168.261 236.492 169.411 236.492C170.376 236.492 171.131 236.808 171.678 237.438C172.235 238.057 172.514 238.874 172.514 239.889V245.72H169.673V240.467C169.673 239.977 169.551 239.592 169.307 239.311C169.074 239.02 168.732 238.874 168.278 238.874C167.813 238.874 167.436 239.049 167.145 239.399C166.855 239.749 166.709 240.204 166.709 240.765V245.72H163.868Z" fill="#272637"/>
<path d="M173.688 245.72V242.778H176.669V245.72H173.688Z" fill="#272637"/>
<path d="M34.7797 14.0994V9.12482H49.2374C49.8169 9.12482 50.2998 9.03955 50.6861 8.86899C51.0917 8.67948 51.2945 8.29099 51.2945 7.70351C51.2945 7.09709 51.0917 6.70859 50.6861 6.53804C50.2998 6.36748 49.8169 6.2822 49.2374 6.2822H35.2433V18.7897H28V0.59695H48.1074C49.5561 0.59695 50.9082 0.70118 52.1637 0.909639C53.4385 1.09915 54.5492 1.44974 55.4956 1.96141C56.4421 2.47308 57.1857 3.19321 57.7266 4.1218C58.2674 5.0504 58.5378 6.2443 58.5378 7.70351C58.5378 9.16273 58.2674 10.3187 57.7266 11.1715C57.1857 12.0243 56.4421 12.6592 55.4956 13.0761C54.5492 13.493 53.4385 13.7678 52.1637 13.9004C50.9082 14.0331 49.5561 14.0994 48.1074 14.0994H34.7797Z" fill="#272637"/>
<path d="M62.1525 18.7897V0.59695H84.5488C86.3065 0.59695 87.8807 0.795934 89.2714 1.1939C90.6815 1.57292 91.7921 2.21725 92.6034 3.12689C93.4339 4.03653 93.8492 5.27781 93.8492 6.85072C93.8492 7.89302 93.6561 8.75528 93.2698 9.43751C92.8834 10.1197 92.3523 10.6504 91.6762 11.0294C91.0002 11.4084 90.2276 11.6832 89.3584 11.8537C88.4892 12.0243 87.5813 12.1285 86.6349 12.1664L84.5198 11.7685C86.8184 11.7874 88.5857 11.8822 89.8219 12.0527C91.0774 12.2233 91.9466 12.536 92.4295 12.9908C92.9317 13.4267 93.1828 14.0615 93.1828 14.8954V18.7897H85.9395V15.7481C85.9395 15.1796 85.8236 14.7532 85.5918 14.469C85.3794 14.1657 84.8965 13.9573 84.1432 13.8436C83.4092 13.7299 82.2696 13.673 80.7243 13.673H69.3958V18.7897H62.1525ZM69.3958 8.92584H84.5488C85.1283 8.92584 85.6111 8.83109 85.9975 8.64158C86.4031 8.45207 86.6059 8.092 86.6059 7.56138C86.6059 7.06866 86.4031 6.73702 85.9975 6.56646C85.6111 6.37695 85.1283 6.2822 84.5488 6.2822H69.3958V8.92584Z" fill="#272637"/>
<path d="M105.103 11.1147V13.3888H127.123V18.7897H97.8597V0.59695H127.065V5.99794H105.103V8.27204H123.066V11.1147H105.103Z" fill="#272637"/>
<path d="M129.865 12.1096H137.775C137.91 12.5075 138.306 12.8487 138.963 13.1329C139.619 13.3982 140.498 13.6067 141.599 13.7583C142.719 13.891 144.014 13.9573 145.482 13.9573C146.93 13.9573 148.07 13.9194 148.9 13.8436C149.75 13.7488 150.349 13.5972 150.697 13.3888C151.044 13.1614 151.218 12.8581 151.218 12.4791C151.218 12.1191 150.938 11.8443 150.378 11.6548C149.818 11.4463 148.823 11.3042 147.394 11.2284C145.965 11.1526 143.956 11.1147 141.367 11.1147C139.436 11.1147 137.765 11.0294 136.355 10.8588C134.964 10.6693 133.815 10.3851 132.907 10.006C132.019 9.60807 131.362 9.11535 130.937 8.52787C130.512 7.92145 130.3 7.20132 130.3 6.36748C130.3 4.92722 130.792 3.74279 131.777 2.8142C132.782 1.86666 134.288 1.16547 136.297 0.710655C138.325 0.236885 140.856 0 143.888 0C148.331 0 151.721 0.634852 154.058 1.90456C156.414 3.15531 157.592 4.96512 157.592 7.33397H150.088C149.992 6.70859 149.393 6.23482 148.292 5.91266C147.191 5.57154 145.626 5.40099 143.598 5.40099C141.59 5.40099 140.093 5.51469 139.107 5.7421C138.142 5.96951 137.659 6.358 137.659 6.90758C137.659 7.19184 137.794 7.41925 138.064 7.58981C138.335 7.76036 138.798 7.9025 139.455 8.0162C140.131 8.11095 141.078 8.17728 142.295 8.21519C143.511 8.25309 145.057 8.27204 146.93 8.27204C148.997 8.27204 150.755 8.37627 152.203 8.58472C153.652 8.77423 154.821 9.06797 155.709 9.46594C156.617 9.86391 157.274 10.3756 157.679 11.001C158.085 11.6074 158.288 12.3275 158.288 13.1614C158.288 14.6016 157.824 15.7766 156.897 16.6862C155.97 17.5958 154.502 18.2686 152.493 18.7045C150.484 19.1403 147.857 19.3583 144.612 19.3583C142.777 19.3583 141.087 19.254 139.542 19.0456C138.016 18.8371 136.654 18.5339 135.457 18.1359C134.259 17.719 133.245 17.2168 132.415 16.6294C131.584 16.0229 130.947 15.3502 130.502 14.6111C130.077 13.8531 129.865 13.0192 129.865 12.1096Z" fill="#272637"/>
<path d="M161.9 0.59695H169.143V18.7897H161.9V0.59695Z" fill="#272637"/>
<path d="M194.492 0.59695C197.1 0.59695 199.254 0.843311 200.953 1.33603C202.653 1.82876 203.986 2.50151 204.952 3.3543C205.917 4.20708 206.594 5.18305 206.98 6.2822C207.385 7.3624 207.588 8.49945 207.588 9.69335C207.588 10.8873 207.366 12.0338 206.922 13.1329C206.478 14.2131 205.744 15.1796 204.72 16.0324C203.716 16.8852 202.373 17.5579 200.693 18.0507C199.032 18.5434 196.965 18.7897 194.492 18.7897H173.632V0.59695H194.492ZM180.875 13.1045H194.203C195.284 13.1045 196.202 13.0382 196.955 12.9055C197.708 12.7539 198.307 12.536 198.751 12.2517C199.215 11.9674 199.543 11.6169 199.737 11.1999C199.949 10.7641 200.055 10.2619 200.055 9.69335C200.055 9.12482 199.949 8.6321 199.737 8.21519C199.543 7.77932 199.215 7.41925 198.751 7.13499C198.307 6.85072 197.708 6.64227 196.955 6.50961C196.202 6.358 195.284 6.2822 194.203 6.2822H180.875V13.1045Z" fill="#272637"/>
<path d="M218.591 11.1147V13.3888H240.611V18.7897H211.348V0.59695H240.553V5.99794H218.591V8.27204H236.555V11.1147H218.591Z" fill="#272637"/>
<path d="M273.427 13.2182L270.733 14.7248V0.59695H277.976V18.7897H270.733L248.916 6.3959L251.61 4.86089V18.7897H244.367V0.59695H251.61L273.427 13.2182Z" fill="#272637"/>
<path d="M280.868 0.59695H311V5.99794H280.868V0.59695ZM292.312 5.6284H299.556V18.7897H292.312V5.6284Z" fill="#272637"/>
<path d="M57.8124 44C54.4166 44 51.6828 43.7096 49.6111 43.1289C47.5393 42.5328 46.0283 41.6617 45.0781 40.5155C44.1435 39.354 43.6762 37.9174 43.6762 36.2057C43.6762 34.494 44.1435 33.0651 45.0781 31.9188C46.0283 30.7573 47.5393 29.8862 49.6111 29.3055C51.6828 28.7094 54.4166 28.4114 57.8124 28.4114C61.2082 28.4114 63.9419 28.7094 66.0137 29.3055C68.0854 29.8862 69.5886 30.7573 70.5232 31.9188C71.4734 33.0651 71.9485 34.494 71.9485 36.2057C71.9485 37.9174 71.4734 39.354 70.5232 40.5155C69.5886 41.6617 68.0854 42.5328 66.0137 43.1289C63.9419 43.7096 61.2082 44 57.8124 44ZM57.8124 39.6444C59.4168 39.6444 60.8032 39.5527 61.9714 39.3693C63.1397 39.1706 64.0432 38.8267 64.6818 38.3377C65.3205 37.8333 65.6398 37.1227 65.6398 36.2057C65.6398 35.2887 65.3205 34.5857 64.6818 34.0967C64.0432 33.5923 63.1397 33.2485 61.9714 33.0651C60.8032 32.8664 59.4168 32.767 57.8124 32.767C56.2079 32.767 54.7982 32.8664 53.5832 33.0651C52.3838 33.2485 51.4414 33.5923 50.756 34.0967C50.0862 34.5857 49.7513 35.2887 49.7513 36.2057C49.7513 37.1227 50.0862 37.8333 50.756 38.3377C51.4414 38.8267 52.3838 39.1706 53.5832 39.3693C54.7982 39.5527 56.2079 39.6444 57.8124 39.6444Z" fill="#272637"/>
<path d="M80.7697 43.5415L72.4049 28.8699H78.994L86.0504 42.5099L83.8306 42.5558L90.4431 28.8699H97.4995L104.112 42.5558L101.892 42.5099L108.949 28.8699H115.444L107.173 43.5415H99.2752L92.8264 31.1853H95.1162L88.6673 43.5415H80.7697Z" fill="#272637"/>
<path d="M140.979 39.0483L138.806 40.2633V28.8699H144.647V43.5415H138.806L121.212 33.5465L123.385 32.3086V43.5415H117.543V28.8699H123.385L140.979 39.0483Z" fill="#272637"/>
<path d="M153.755 37.3519V39.1859H171.513V43.5415H147.914V28.8699H171.466V33.2255H153.755V35.0595H168.242V37.3519H153.755Z" fill="#272637"/>
<path d="M174.542 43.5415V28.8699H192.604C194.021 28.8699 195.291 29.0304 196.413 29.3513C197.55 29.657 198.445 30.1766 199.1 30.9102C199.769 31.6438 200.104 32.6448 200.104 33.9133C200.104 34.7538 199.949 35.4492 199.637 35.9994C199.325 36.5496 198.897 36.9775 198.352 37.2832C197.807 37.5888 197.184 37.8104 196.483 37.948C195.782 38.0855 195.05 38.1696 194.286 38.2001L192.581 37.8792C194.434 37.8945 195.86 37.9709 196.856 38.1084C197.869 38.246 198.57 38.4982 198.959 38.8649C199.364 39.2164 199.567 39.7284 199.567 40.4009V43.5415H193.725V41.0886C193.725 40.6301 193.632 40.2862 193.445 40.057C193.274 39.8125 192.884 39.6444 192.277 39.5527C191.685 39.461 190.766 39.4151 189.52 39.4151H180.384V43.5415H174.542ZM180.384 35.5867H192.604C193.071 35.5867 193.461 35.5103 193.772 35.3575C194.099 35.2047 194.263 34.9143 194.263 34.4864C194.263 34.089 194.099 33.8216 193.772 33.684C193.461 33.5312 193.071 33.4548 192.604 33.4548H180.384V35.5867Z" fill="#272637"/>
<path d="M202.521 38.1543H208.9C209.009 38.4752 209.328 38.7503 209.858 38.9796C210.387 39.1935 211.096 39.3616 211.984 39.4839C212.887 39.5909 213.931 39.6444 215.115 39.6444C216.283 39.6444 217.202 39.6138 217.872 39.5527C218.557 39.4763 219.04 39.354 219.321 39.1859C219.601 39.0025 219.741 38.758 219.741 38.4523C219.741 38.1619 219.515 37.9403 219.064 37.7875C218.612 37.6194 217.81 37.5048 216.657 37.4436C215.504 37.3825 213.884 37.3519 211.797 37.3519C210.239 37.3519 208.892 37.2832 207.755 37.1456C206.633 36.9928 205.706 36.7635 204.974 36.4579C204.258 36.1369 203.728 35.7396 203.385 35.2658C203.043 34.7768 202.871 34.196 202.871 33.5236C202.871 32.362 203.268 31.4069 204.063 30.658C204.873 29.8939 206.088 29.3284 207.708 28.9616C209.344 28.5795 211.384 28.3885 213.83 28.3885C217.412 28.3885 220.146 28.9005 222.031 29.9244C223.931 30.9331 224.882 32.3926 224.882 34.303H218.83C218.752 33.7986 218.269 33.4166 217.381 33.1568C216.493 32.8817 215.232 32.7441 213.596 32.7441C211.976 32.7441 210.769 32.8358 209.974 33.0192C209.196 33.2026 208.806 33.5159 208.806 33.9591C208.806 34.1884 208.915 34.3718 209.133 34.5093C209.351 34.6468 209.725 34.7615 210.255 34.8532C210.8 34.9296 211.563 34.9831 212.545 35.0136C213.526 35.0442 214.772 35.0595 216.283 35.0595C217.95 35.0595 219.367 35.1435 220.536 35.3117C221.704 35.4645 222.646 35.7014 223.363 36.0223C224.095 36.3433 224.625 36.7559 224.952 37.2602C225.279 37.7493 225.442 38.33 225.442 39.0025C225.442 40.164 225.069 41.1115 224.321 41.8451C223.573 42.5787 222.389 43.1212 220.769 43.4727C219.149 43.8242 217.031 44 214.414 44C212.934 44 211.571 43.9159 210.325 43.7478C209.094 43.5797 207.996 43.3352 207.03 43.0142C206.065 42.678 205.247 42.273 204.577 41.7993C203.907 41.3102 203.393 40.7677 203.035 40.1716C202.692 39.5603 202.521 38.8879 202.521 38.1543Z" fill="#272637"/>
<path d="M233.005 33.9362H249.454V38.2918H233.005V33.9362ZM248.8 28.8699H254.641V43.5415H248.8V28.8699ZM228.005 28.8699H233.846V43.5415H228.005V28.8699Z" fill="#272637"/>
<path d="M258.27 28.8699H264.111V43.5415H258.27V28.8699Z" fill="#272637"/>
<path d="M273.152 39.759V35.7472H284.811C285.278 35.7472 285.668 35.6784 285.979 35.5409C286.306 35.3881 286.47 35.0748 286.47 34.601C286.47 34.1119 286.306 33.7986 285.979 33.6611C285.668 33.5236 285.278 33.4548 284.811 33.4548H273.525V43.5415H267.684V28.8699H283.9C285.068 28.8699 286.158 28.954 287.171 29.1221C288.199 29.2749 289.095 29.5576 289.858 29.9703C290.621 30.3829 291.221 30.9637 291.657 31.7125C292.093 32.4614 292.311 33.4242 292.311 34.601C292.311 35.7778 292.093 36.71 291.657 37.3978C291.221 38.0855 290.621 38.5975 289.858 38.9337C289.095 39.2699 288.199 39.4915 287.171 39.5985C286.158 39.7055 285.068 39.759 283.9 39.759H273.152Z" fill="#272637"/>
<defs>
<filter id="filter0_d_678_33" x="38" y="98" width="232" height="27" filterUnits="userSpaceOnUse" color-interpolation-filters="sRGB">
<feFlood flood-opacity="0" result="BackgroundImageFix"/>
<feColorMatrix in="SourceAlpha" type="matrix" values="0 0 0 0 0 0 0 0 0 0 0 0 0 0 0 0 0 0 127 0" result="hardAlpha"/>
<feOffset dy="4"/>
<feGaussianBlur stdDeviation="2"/>
<feComposite in2="hardAlpha" operator="out"/>
<feColorMatrix type="matrix" values="0 0 0 0 0 0 0 0 0 0 0 0 0 0 0 0 0 0 0.25 0"/>
<feBlend mode="normal" in2="BackgroundImageFix" result="effect1_dropShadow_678_33"/>
<feBlend mode="normal" in="SourceGraphic" in2="effect1_dropShadow_678_33" result="shape"/>
</filter>
<linearGradient id="paint0_linear_678_33" x1="84.9719" y1="67.0142" x2="250.596" y2="67.0141" gradientUnits="userSpaceOnUse">
<stop stop-color="#DF31CE"/>
<stop offset="0.9999" stop-color="#E7AD19"/>
<stop offset="1" stop-color="#E7AD19"/>
</linearGradient>
</defs>
</svg>
