<svg width="339" height="295" viewBox="0 0 339 295" fill="none" xmlns="http://www.w3.org/2000/svg">
<path fill-rule="evenodd" clip-rule="evenodd" d="M0.0724734 92.2551C0.0724734 80.9368 0.0723422 92.2551 0.0734151 77L339 77.4921C339 91.1405 339 77.4921 339 91.1405H304.031C302.624 91.1405 301.483 92.1806 301.483 93.4637C301.483 94.7467 302.624 95.7869 304.031 95.7869H339C339 102.176 339 95.7869 339 102.176H298.438C297.031 102.176 295.89 103.216 295.89 104.499C295.89 105.782 297.031 106.822 298.438 106.822L339 107.018C339 110.463 339 110.436 339 112.146V113.499L288.284 113.211L274.012 90.3746C273.288 89.2164 271.82 88.7003 270.478 89.0387L270.472 89.0387H16.8619C15.9443 88.6021 14.809 88.5936 13.8443 89.1081C12.3408 89.9101 11.821 91.6787 12.6834 93.0585L26.5917 115.313L13.9409 135.555C13.9007 135.619 13.8635 135.684 13.8293 135.75C12.9567 136.268 12.3798 137.165 12.3798 138.185C12.3798 139.789 13.8059 141.089 15.5651 141.089H272.622C272.85 141.089 273.073 141.067 273.288 141.026C274.526 141.199 275.804 140.676 276.465 139.62L289.23 119.194C289.266 119.136 289.3 119.078 289.331 119.019L339 119.307V234.63C339 242.47 336.907 248.536 328.308 248.536H323.642C312.328 248.536 303.156 256.898 303.156 267.213V276.323C303.156 286.638 293.984 295 282.67 295H20.606C9.2917 295 0.119703 286.638 0.119703 276.323V155.41C0.119703 145.095 0.119703 155.41 0.119703 130.147C0.11921 83.6393 -0.114462 138.762 0.0724734 92.2551ZM21.3714 135.281H271.916L283.382 116.936C283.301 116.837 283.226 116.733 283.157 116.624L269.185 94.2682H20.6991L32.7182 113.499C33.3429 114.499 33.2423 115.702 32.568 116.595C32.5689 117.084 32.4348 117.579 32.1515 118.032L21.3714 135.281Z" fill="#C4C4C4"/>
<path d="M28 173.136C28 159.806 38.9611 149 52.4824 149H252.518C266.039 149 277 159.806 277 173.136V253.864C277 267.194 266.039 278 252.518 278H52.4824C38.9612 278 28 267.194 28 253.864V173.136Z" fill="white"/>
<path d="M37.675 15.2806V9.88923H54.0417C54.6977 9.88923 55.2443 9.79681 55.6816 9.61196C56.1408 9.40658 56.3704 8.98554 56.3704 8.34885C56.3704 7.69162 56.1408 7.27059 55.6816 7.08574C55.2443 6.9009 54.6977 6.80847 54.0417 6.80847H38.1998V20.3638H30V0.646959H52.7625C54.4025 0.646959 55.9331 0.75992 57.3544 0.985842C58.7975 1.19123 60.0548 1.57119 61.1263 2.12572C62.1977 2.68026 63.0395 3.46072 63.6518 4.4671C64.264 5.47348 64.5702 6.7674 64.5702 8.34885C64.5702 9.93031 64.264 11.1831 63.6518 12.1074C63.0395 13.0316 62.1977 13.7196 61.1263 14.1715C60.0548 14.6233 58.7975 14.9211 57.3544 15.0649C55.9331 15.2087 54.4025 15.2806 52.7625 15.2806H37.675Z" fill="#272637"/>
<path d="M68.6621 20.3638V0.646959H94.0157C96.0055 0.646959 97.7876 0.862612 99.362 1.29392C100.958 1.70469 102.215 2.40299 103.134 3.38883C104.074 4.37467 104.544 5.71994 104.544 7.42462C104.544 8.55424 104.326 9.48873 103.888 10.2281C103.451 10.9675 102.85 11.5426 102.084 11.9533C101.319 12.3641 100.444 12.6619 99.4604 12.8468C98.4764 13.0316 97.4487 13.1446 96.3772 13.1856L93.9829 12.7543C96.585 12.7749 98.5857 12.8776 99.9851 13.0624C101.406 13.2473 102.39 13.5861 102.937 14.0791C103.506 14.5514 103.79 15.2395 103.79 16.1432V20.3638H95.5901V17.0674C95.5901 16.4512 95.4589 15.9891 95.1965 15.6811C94.9559 15.3524 94.4093 15.1265 93.5565 15.0033C92.7256 14.8801 91.4355 14.8184 89.6862 14.8184H76.8618V20.3638H68.6621ZM76.8618 9.67358H94.0157C94.6717 9.67358 95.2183 9.57089 95.6557 9.3655C96.1148 9.16012 96.3444 8.76989 96.3444 8.19481C96.3444 7.66082 96.1148 7.30139 95.6557 7.11655C95.2183 6.91116 94.6717 6.80847 94.0157 6.80847H76.8618V9.67358Z" fill="#272637"/>
<path d="M117.284 12.0458V14.5104H142.211V20.3638H109.084V0.646959H142.146V6.5004H117.284V8.965H137.619V12.0458H117.284Z" fill="#272637"/>
<path d="M145.316 13.124H154.27C154.423 13.5553 154.871 13.925 155.615 14.2331C156.358 14.5206 157.353 14.7466 158.599 14.9109C159.867 15.0546 161.333 15.1265 162.994 15.1265C164.634 15.1265 165.924 15.0854 166.865 15.0033C167.827 14.9006 168.505 14.7363 168.898 14.5104C169.292 14.2639 169.489 13.9353 169.489 13.5245C169.489 13.1343 169.171 12.8365 168.537 12.6311C167.903 12.4052 166.777 12.2511 165.159 12.169C163.541 12.0868 161.267 12.0458 158.337 12.0458C156.15 12.0458 154.259 11.9533 152.663 11.7685C151.088 11.5631 149.787 11.255 148.76 10.8443C147.754 10.413 147.01 9.87896 146.529 9.24227C146.048 8.58504 145.808 7.80458 145.808 6.9009C145.808 5.33998 146.365 4.05633 147.48 3.04995C148.617 2.02303 150.323 1.26311 152.597 0.770189C154.893 0.25673 157.757 0 161.19 0C166.22 0 170.057 0.688036 172.703 2.06411C175.37 3.41964 176.704 5.38106 176.704 7.94835H168.209C168.1 7.27059 167.422 6.75713 166.176 6.40797C164.929 6.03828 163.158 5.85344 160.862 5.85344C158.588 5.85344 156.894 5.97667 155.779 6.22313C154.685 6.46959 154.139 6.89063 154.139 7.48624C154.139 7.79432 154.292 8.04078 154.598 8.22562C154.904 8.41047 155.429 8.56451 156.172 8.68774C156.937 8.79043 158.009 8.86231 159.386 8.90339C160.764 8.94446 162.513 8.965 164.634 8.965C166.974 8.965 168.964 9.07796 170.604 9.30389C172.244 9.50927 173.567 9.82761 174.572 10.2589C175.6 10.6902 176.344 11.2448 176.803 11.9225C177.262 12.5798 177.491 13.3602 177.491 14.2639C177.491 15.8248 176.967 17.0982 175.917 18.084C174.868 19.0699 173.206 19.799 170.932 20.2714C168.658 20.7438 165.684 20.98 162.01 20.98C159.933 20.98 158.02 20.867 156.271 20.6411C154.543 20.4151 153.002 20.0865 151.646 19.6552C150.29 19.2034 149.142 18.6591 148.202 18.0224C147.262 17.3652 146.54 16.6361 146.037 15.8351C145.556 15.0136 145.316 14.1099 145.316 13.124Z" fill="#272637"/>
<path d="M179.776 0.646959H213.887V6.5004H179.776V0.646959ZM192.732 6.0999H200.932V20.3638H192.732V6.0999Z" fill="#272637"/>
<path d="M217.646 0.646959H225.846V20.3638H217.646V0.646959Z" fill="#272637"/>
<path d="M250.049 20.98C247.207 20.98 244.594 20.8156 242.21 20.487C239.849 20.179 237.793 19.645 236.044 18.885C234.317 18.1046 232.972 17.0469 232.01 15.7119C231.07 14.3769 230.599 12.6927 230.599 10.6594C230.599 8.62612 231.081 6.9317 232.043 5.57617C233.005 4.2001 234.382 3.11156 236.175 2.31057C237.99 1.48903 240.144 0.903688 242.637 0.554537C245.151 0.205384 247.95 0.0308079 251.033 0.0308079C255.078 0.0308079 258.468 0.37996 261.201 1.07826C263.956 1.77657 266.055 2.77268 267.498 4.0666C268.942 5.33998 269.718 6.85982 269.827 8.62612H261.299C261.037 8.17428 260.556 7.74297 259.856 7.3322C259.156 6.9009 258.107 6.55174 256.708 6.28474C255.308 6.01775 253.417 5.88425 251.033 5.88425C248.234 5.88425 245.96 6.04855 244.211 6.37717C242.462 6.68524 241.183 7.18843 240.374 7.88674C239.565 8.58504 239.16 9.50927 239.16 10.6594C239.16 11.6658 239.575 12.4976 240.406 13.1548C241.237 13.8121 242.571 14.305 244.408 14.6336C246.245 14.9622 248.672 15.1265 251.689 15.1265C253.81 15.1265 255.647 15.0444 257.199 14.8801C258.774 14.6952 260.195 14.4179 261.463 14.0483C262.753 13.6786 264.033 13.2164 265.301 12.6619L266.088 13.5553C264.732 15.9583 262.721 17.7965 260.053 19.0699C257.385 20.3433 254.051 20.98 250.049 20.98ZM263.858 20.3638C263.858 19.7477 263.945 19.0493 264.12 18.2689C264.295 17.4884 264.514 16.6772 264.776 15.8351C265.06 14.9725 265.334 14.1612 265.596 13.4013H252.804V10.1665H270.286V20.3638H263.858Z" fill="#272637"/>
<path d="M283.073 12.0458V14.5104H308V20.3638H274.873V0.646959H307.934V6.5004H283.073V8.965H303.408V12.0458H283.073Z" fill="#272637"/>
<path d="M53.8429 48C50.3379 48 47.5162 47.7131 45.3778 47.1392C43.2395 46.5502 41.6799 45.6894 40.6991 44.5568C39.7345 43.4091 39.2521 41.9895 39.2521 40.2981C39.2521 38.6067 39.7345 37.1947 40.6991 36.0621C41.6799 34.9143 43.2395 34.0535 45.3778 33.4797C47.5162 32.8907 50.3379 32.5962 53.8429 32.5962C57.3478 32.5962 60.1695 32.8907 62.3079 33.4797C64.4463 34.0535 65.9978 34.9143 66.9625 36.0621C67.9432 37.1947 68.4336 38.6067 68.4336 40.2981C68.4336 41.9895 67.9432 43.4091 66.9625 44.5568C65.9978 45.6894 64.4463 46.5502 62.3079 47.1392C60.1695 47.7131 57.3478 48 53.8429 48ZM53.8429 43.696C55.4989 43.696 56.9298 43.6054 58.1357 43.4242C59.3415 43.2279 60.274 42.8881 60.9332 42.4048C61.5924 41.9065 61.922 41.2042 61.922 40.2981C61.922 39.392 61.5924 38.6973 60.9332 38.2141C60.274 37.7157 59.3415 37.3759 58.1357 37.1947C56.9298 36.9984 55.4989 36.9002 53.8429 36.9002C52.1868 36.9002 50.7318 36.9984 49.4777 37.1947C48.2397 37.3759 47.267 37.7157 46.5595 38.2141C45.8682 38.6973 45.5225 39.392 45.5225 40.2981C45.5225 41.2042 45.8682 41.9065 46.5595 42.4048C47.267 42.8881 48.2397 43.2279 49.4777 43.4242C50.7318 43.6054 52.1868 43.696 53.8429 43.696Z" fill="#272637"/>
<path d="M77.5385 47.5469L68.9046 33.0493H75.7056L82.9889 46.5276L80.6978 46.5729L87.5229 33.0493H94.8062L101.631 46.5729L99.3402 46.5276L106.623 33.0493H113.328L104.791 47.5469H96.6391L89.9828 35.3372H92.3463L85.69 47.5469H77.5385Z" fill="#272637"/>
<path d="M139.684 43.107L137.441 44.3076V33.0493H143.47V47.5469H137.441L119.281 37.6704L121.524 36.4472V47.5469H115.495V33.0493H121.524L139.684 43.107Z" fill="#272637"/>
<path d="M152.871 41.4307V43.243H171.2V47.5469H146.842V33.0493H171.152V37.3533H152.871V39.1655H167.824V41.4307H152.871Z" fill="#272637"/>
<path d="M174.327 47.5469V33.0493H192.969C194.432 33.0493 195.742 33.2078 196.9 33.525C198.074 33.827 198.998 34.3405 199.673 35.0654C200.365 35.7902 200.711 36.7794 200.711 38.0328C200.711 38.8634 200.55 39.5506 200.228 40.0942C199.907 40.6379 199.464 41.0607 198.902 41.3628C198.339 41.6648 197.696 41.8838 196.972 42.0197C196.249 42.1556 195.493 42.2387 194.705 42.2689L192.945 41.9518C194.858 41.9669 196.329 42.0424 197.358 42.1783C198.403 42.3142 199.127 42.5634 199.529 42.9258C199.947 43.2732 200.156 43.7791 200.156 44.4435V47.5469H194.127V45.1231C194.127 44.6701 194.03 44.3303 193.837 44.1038C193.66 43.8621 193.258 43.696 192.631 43.6054C192.02 43.5148 191.072 43.4695 189.786 43.4695H180.356V47.5469H174.327ZM180.356 39.6865H192.969C193.451 39.6865 193.853 39.611 194.175 39.46C194.512 39.3089 194.681 39.022 194.681 38.5992C194.681 38.2065 194.512 37.9422 194.175 37.8063C193.853 37.6553 193.451 37.5798 192.969 37.5798H180.356V39.6865Z" fill="#272637"/>
<path d="M203.205 42.2236H209.789C209.901 42.5407 210.231 42.8126 210.777 43.0391C211.324 43.2505 212.056 43.4166 212.972 43.5374C213.905 43.6432 214.982 43.696 216.204 43.696C217.41 43.696 218.358 43.6658 219.05 43.6054C219.757 43.5299 220.255 43.4091 220.545 43.243C220.834 43.0617 220.979 42.8201 220.979 42.5181C220.979 42.2311 220.746 42.0122 220.28 41.8611C219.813 41.695 218.985 41.5818 217.795 41.5214C216.606 41.4609 214.934 41.4307 212.779 41.4307C211.171 41.4307 209.781 41.3628 208.607 41.2269C207.449 41.0759 206.493 40.8493 205.737 40.5473C204.997 40.2302 204.451 39.8375 204.097 39.3694C203.743 38.8861 203.566 38.3122 203.566 37.6478C203.566 36.5 203.976 35.5562 204.796 34.8162C205.633 34.0611 206.887 33.5023 208.559 33.1399C210.247 32.7623 212.353 32.5736 214.877 32.5736C218.575 32.5736 221.397 33.0795 223.342 34.0913C225.304 35.088 226.285 36.5302 226.285 38.4179H220.038C219.958 37.9196 219.46 37.542 218.543 37.2853C217.627 37.0135 216.324 36.8776 214.636 36.8776C212.964 36.8776 211.718 36.9682 210.898 37.1494C210.094 37.3306 209.692 37.6402 209.692 38.0782C209.692 38.3047 209.805 38.4859 210.03 38.6218C210.255 38.7577 210.641 38.871 211.187 38.9616C211.75 39.0371 212.538 39.09 213.551 39.1202C214.564 39.1504 215.85 39.1655 217.41 39.1655C219.13 39.1655 220.593 39.2485 221.799 39.4147C223.005 39.5657 223.977 39.7998 224.717 40.1169C225.473 40.434 226.019 40.8418 226.357 41.3401C226.695 41.8234 226.863 42.3973 226.863 43.0617C226.863 44.2095 226.478 45.1458 225.706 45.8707C224.934 46.5955 223.712 47.1317 222.04 47.479C220.368 47.8263 218.181 48 215.48 48C213.953 48 212.546 47.9169 211.26 47.7508C209.99 47.5847 208.856 47.3431 207.859 47.0259C206.862 46.6937 206.018 46.2935 205.327 45.8253C204.636 45.3421 204.105 44.806 203.735 44.217C203.382 43.613 203.205 42.9485 203.205 42.2236Z" fill="#272637"/>
<path d="M234.669 38.0555H251.648V42.3595H234.669V38.0555ZM250.972 33.0493H257.001V47.5469H250.972V33.0493ZM229.508 33.0493H235.537V47.5469H229.508V33.0493Z" fill="#272637"/>
<path d="M260.746 33.0493H266.775V47.5469H260.746V33.0493Z" fill="#272637"/>
<path d="M276.107 43.8093V39.8451H288.141C288.623 39.8451 289.025 39.7771 289.347 39.6412C289.685 39.4902 289.853 39.1806 289.853 38.7124C289.853 38.2292 289.685 37.9196 289.347 37.7837C289.025 37.6478 288.623 37.5798 288.141 37.5798H276.493V47.5469H270.463V33.0493H287.201C288.406 33.0493 289.532 33.1323 290.577 33.2985C291.638 33.4495 292.563 33.7289 293.35 34.1366C294.138 34.5443 294.757 35.1182 295.207 35.8582C295.658 36.5982 295.883 37.5496 295.883 38.7124C295.883 39.8753 295.658 40.7965 295.207 41.476C294.757 42.1556 294.138 42.6615 293.35 42.9938C292.563 43.326 291.638 43.545 290.577 43.6507C289.532 43.7564 288.406 43.8093 287.201 43.8093H276.107Z" fill="#272637"/>
<path d="M0 74C0 71.7909 1.91881 70 4.28579 70H334.714C337.081 70 339 71.7909 339 74C339 76.2091 337.081 78 334.714 78H4.28581C1.91883 78 0 76.2091 0 74Z" fill="url(#paint0_linear_678_34)"/>
<g filter="url(#filter0_d_678_34)">
<path d="M57.4999 120.725C56.0622 122.199 54.1644 122.936 51.8066 122.936C49.4488 122.936 47.5583 122.199 46.135 120.725C44.7117 119.237 44 117.338 44 115.028C44 112.718 44.7117 110.819 46.135 109.331C47.5583 107.843 49.4488 107.098 51.8066 107.098C54.1644 107.098 56.0622 107.843 57.4999 109.331C58.9376 110.819 59.6564 112.718 59.6564 115.028C59.6564 117.338 58.9376 119.237 57.4999 120.725ZM49.4129 118.174C49.9736 118.982 50.7787 119.386 51.8282 119.386C52.8777 119.386 53.6828 118.982 54.2435 118.174C54.8042 117.366 55.0846 116.318 55.0846 115.028C55.0846 113.738 54.8042 112.69 54.2435 111.882C53.6828 111.06 52.8777 110.649 51.8282 110.649C50.7787 110.649 49.9736 111.06 49.4129 111.882C48.8522 112.69 48.5718 113.738 48.5718 115.028C48.5718 116.318 48.8522 117.366 49.4129 118.174Z" fill="#272637"/>
<path d="M60.9042 122.575V107.375H65.4113L70.4576 115.921H70.5007V107.375H74.8569V122.575H70.1988L65.3035 113.965H65.2603V122.575H60.9042Z" fill="#272637"/>
<path d="M76.7201 122.575V107.375H81.2273V118.77H87.8262V122.575H76.7201Z" fill="#272637"/>
<path d="M91.184 122.575V117.239L85.9005 107.375H90.7958L92.4348 110.755C92.6073 111.095 92.7799 111.471 92.9524 111.882C93.1249 112.293 93.2543 112.612 93.3405 112.838L93.4699 113.2H93.5131C93.8437 112.335 94.196 111.52 94.5698 110.755L96.2087 107.375H100.996L95.6912 117.239V122.575H91.184Z" fill="#272637"/>
<path d="M108.602 122.575V111.999H104.828V108.358C106.176 108.305 107.299 107.924 108.198 107.215C109.115 106.489 109.708 105.488 109.977 104.213H113.994V122.575H108.602Z" fill="#272637"/>
<path d="M124.559 123C122.079 123 120.021 122.132 118.386 120.396C116.768 118.66 115.959 116.366 115.959 113.513C115.959 110.661 116.759 108.367 118.359 106.631C119.976 104.877 122.043 104 124.559 104C127.146 104 129.231 104.868 130.813 106.604C132.412 108.34 133.212 110.643 133.212 113.513C133.212 116.366 132.403 118.66 130.786 120.396C129.168 122.132 127.092 123 124.559 123ZM121.486 113.513C121.486 117.216 122.519 119.067 124.586 119.067C126.652 119.067 127.686 117.216 127.686 113.513C127.686 111.777 127.434 110.404 126.931 109.394C126.428 108.385 125.646 107.88 124.586 107.88C123.525 107.88 122.743 108.385 122.24 109.394C121.737 110.404 121.486 111.777 121.486 113.513Z" fill="#272637"/>
<path d="M142.723 123C140.243 123 138.185 122.132 136.55 120.396C134.932 118.66 134.124 116.366 134.124 113.513C134.124 110.661 134.923 108.367 136.523 106.631C138.14 104.877 140.207 104 142.723 104C145.311 104 147.395 104.868 148.977 106.604C150.576 108.34 151.376 110.643 151.376 113.513C151.376 116.366 150.567 118.66 148.95 120.396C147.332 122.132 145.257 123 142.723 123ZM139.65 113.513C139.65 117.216 140.683 119.067 142.75 119.067C144.816 119.067 145.85 117.216 145.85 113.513C145.85 111.777 145.598 110.404 145.095 109.394C144.592 108.385 143.81 107.88 142.75 107.88C141.689 107.88 140.908 108.385 140.404 109.394C139.901 110.404 139.65 111.777 139.65 113.513Z" fill="#272637"/>
<path d="M155.979 122.575V107.375H160.486V122.575H155.979Z" fill="#272637"/>
<path d="M162.339 122.575V107.375H166.846L171.892 115.921H171.936V107.375H176.292V122.575H171.634L166.738 113.965H166.695V122.575H162.339Z" fill="#272637"/>
<path d="M184.871 122.575V111.999H181.097V108.358C182.445 108.305 183.568 107.924 184.466 107.215C185.383 106.489 185.976 105.488 186.245 104.213H190.262V122.575H184.871Z" fill="#272637"/>
<path d="M200.827 123C198.347 123 196.289 122.132 194.654 120.396C193.036 118.66 192.228 116.366 192.228 113.513C192.228 110.661 193.027 108.367 194.627 106.631C196.244 104.877 198.311 104 200.827 104C203.415 104 205.499 104.868 207.081 106.604C208.68 108.34 209.48 110.643 209.48 113.513C209.48 116.366 208.671 118.66 207.054 120.396C205.436 122.132 203.361 123 200.827 123ZM197.754 113.513C197.754 117.216 198.787 119.067 200.854 119.067C202.92 119.067 203.954 117.216 203.954 113.513C203.954 111.777 203.702 110.404 203.199 109.394C202.696 108.385 201.914 107.88 200.854 107.88C199.794 107.88 199.012 108.385 198.509 109.394C198.005 110.404 197.754 111.777 197.754 113.513Z" fill="#272637"/>
<path d="M223.019 123C220.539 123 218.481 122.132 216.846 120.396C215.228 118.66 214.42 116.366 214.42 113.513C214.42 110.661 215.219 108.367 216.819 106.631C218.436 104.877 220.503 104 223.019 104C225.607 104 227.691 104.868 229.273 106.604C230.872 108.34 231.672 110.643 231.672 113.513C231.672 116.366 230.863 118.66 229.246 120.396C227.628 122.132 225.553 123 223.019 123ZM219.946 113.513C219.946 117.216 220.979 119.067 223.046 119.067C225.112 119.067 226.146 117.216 226.146 113.513C226.146 111.777 225.894 110.404 225.391 109.394C224.888 108.385 224.106 107.88 223.046 107.88C221.985 107.88 221.204 108.385 220.7 109.394C220.197 110.404 219.946 111.777 219.946 113.513Z" fill="#272637"/>
<path d="M241.183 123C238.703 123 236.645 122.132 235.01 120.396C233.392 118.66 232.584 116.366 232.584 113.513C232.584 110.661 233.383 108.367 234.983 106.631C236.6 104.877 238.667 104 241.183 104C243.771 104 245.855 104.868 247.437 106.604C249.036 108.34 249.836 110.643 249.836 113.513C249.836 116.366 249.027 118.66 247.41 120.396C245.792 122.132 243.717 123 241.183 123ZM238.11 113.513C238.11 117.216 239.143 119.067 241.21 119.067C243.276 119.067 244.31 117.216 244.31 113.513C244.31 111.777 244.058 110.404 243.555 109.394C243.052 108.385 242.27 107.88 241.21 107.88C240.149 107.88 239.368 108.385 238.865 109.394C238.361 110.404 238.11 111.777 238.11 113.513Z" fill="#272637"/>
<path d="M259.347 123C256.867 123 254.809 122.132 253.174 120.396C251.556 118.66 250.748 116.366 250.748 113.513C250.748 110.661 251.547 108.367 253.147 106.631C254.764 104.877 256.831 104 259.347 104C261.935 104 264.019 104.868 265.601 106.604C267.2 108.34 268 110.643 268 113.513C268 116.366 267.191 118.66 265.574 120.396C263.956 122.132 261.881 123 259.347 123ZM256.274 113.513C256.274 117.216 257.307 119.067 259.374 119.067C261.441 119.067 262.474 117.216 262.474 113.513C262.474 111.777 262.222 110.404 261.719 109.394C261.216 108.385 260.434 107.88 259.374 107.88C258.314 107.88 257.532 108.385 257.029 109.394C256.525 110.404 256.274 111.777 256.274 113.513Z" fill="#272637"/>
</g>
<path d="M53.483 188.519V178.626H50V176H59.9633V178.626H56.4468V188.519H53.483Z" fill="#272637"/>
<path d="M60.8994 188.519V176H63.6289V180.657H63.6791C64.3377 179.747 65.1861 179.292 66.2243 179.292C67.1509 179.292 67.8765 179.607 68.4012 180.237C68.937 180.856 69.2049 181.673 69.2049 182.689V188.519H66.4755V183.266C66.4755 182.776 66.3583 182.391 66.1239 182.111C65.9006 181.819 65.5713 181.673 65.1359 181.673C64.6894 181.673 64.3266 181.848 64.0475 182.198C63.7684 182.548 63.6289 183.004 63.6289 183.564V188.519H60.8994Z" fill="#272637"/>
<path d="M70.4493 188.519V179.554H73.1787V188.519H70.4493ZM70.4493 178.311V176H73.1787V178.311H70.4493Z" fill="#272637"/>
<path d="M78.1388 188.799C76.8885 188.799 75.8894 188.519 75.1414 187.959C74.4047 187.387 74.0139 186.605 73.9693 185.613H76.548C76.6485 186.5 77.1732 186.943 78.1221 186.943C78.5351 186.943 78.8588 186.867 79.0933 186.716C79.3389 186.552 79.4616 186.33 79.4616 186.05C79.4616 185.957 79.4505 185.875 79.4282 185.805C79.4058 185.735 79.3668 185.671 79.3109 185.613C79.2551 185.554 79.1993 185.502 79.1435 185.455C79.0988 185.408 79.0263 185.367 78.9258 185.332C78.8253 185.286 78.736 185.251 78.6579 185.227C78.5909 185.204 78.4849 185.181 78.3397 185.157C78.2058 185.122 78.0997 185.099 78.0216 185.087C77.9434 185.064 77.8206 185.041 77.6532 185.017C77.4857 184.982 77.3629 184.959 77.2848 184.947C76.9276 184.889 76.6262 184.831 76.3806 184.772C76.135 184.702 75.8615 184.597 75.5601 184.457C75.2698 184.317 75.0298 184.159 74.84 183.984C74.6614 183.797 74.5107 183.552 74.3879 183.249C74.2651 182.934 74.2037 182.572 74.2037 182.163C74.2037 181.253 74.5554 180.547 75.2587 180.045C75.9619 179.543 76.8438 179.292 77.9044 179.292C79.0988 179.292 80.0254 179.549 80.684 180.062C81.3427 180.564 81.7055 181.264 81.7725 182.163H79.2607C79.1714 181.463 78.7137 181.113 77.8876 181.113C77.5304 181.113 77.2401 181.183 77.0169 181.323C76.8048 181.463 76.6987 181.667 76.6987 181.936C76.6987 182.006 76.7099 182.07 76.7322 182.128C76.7545 182.187 76.788 182.239 76.8327 182.286C76.8885 182.333 76.9387 182.373 76.9834 182.408C77.0392 182.443 77.1118 182.478 77.2011 182.513C77.2904 182.548 77.3685 182.578 77.4355 182.601C77.5136 182.624 77.6141 182.648 77.7369 182.671C77.8709 182.694 77.9769 182.718 78.0551 182.741C78.1444 182.753 78.2616 182.776 78.4067 182.811C78.5518 182.834 78.6691 182.852 78.7584 182.864C79.1379 182.934 79.4505 182.998 79.6961 183.056C79.9417 183.115 80.2263 183.22 80.5501 183.371C80.885 183.511 81.1473 183.681 81.3371 183.879C81.5269 184.066 81.6887 184.329 81.8227 184.667C81.9678 184.994 82.0404 185.379 82.0404 185.823C82.0404 186.78 81.6776 187.515 80.952 188.029C80.2375 188.542 79.2998 188.799 78.1388 188.799Z" fill="#272637"/>
<path d="M85.5264 188.519V179.554H88.2558V188.519H85.5264ZM85.5264 178.311V176H88.2558V178.311H85.5264Z" fill="#272637"/>
<path d="M93.2158 188.799C91.9655 188.799 90.9664 188.519 90.2185 187.959C89.4817 187.387 89.091 186.605 89.0463 185.613H91.6251C91.7255 186.5 92.2502 186.943 93.1991 186.943C93.6121 186.943 93.9359 186.867 94.1703 186.716C94.4159 186.552 94.5387 186.33 94.5387 186.05C94.5387 185.957 94.5275 185.875 94.5052 185.805C94.4829 185.735 94.4438 185.671 94.388 185.613C94.3322 185.554 94.2764 185.502 94.2205 185.455C94.1759 185.408 94.1033 185.367 94.0028 185.332C93.9024 185.286 93.8131 185.251 93.7349 185.227C93.6679 185.204 93.5619 185.181 93.4168 185.157C93.2828 185.122 93.1768 185.099 93.0986 185.087C93.0205 185.064 92.8977 185.041 92.7302 185.017C92.5628 184.982 92.44 184.959 92.3618 184.947C92.0046 184.889 91.7032 184.831 91.4576 184.772C91.212 184.702 90.9385 184.597 90.6371 184.457C90.3469 184.317 90.1068 184.159 89.9171 183.984C89.7385 183.797 89.5878 183.552 89.465 183.249C89.3422 182.934 89.2808 182.572 89.2808 182.163C89.2808 181.253 89.6324 180.547 90.3357 180.045C91.039 179.543 91.9209 179.292 92.9814 179.292C94.1759 179.292 95.1024 179.549 95.7611 180.062C96.4197 180.564 96.7825 181.264 96.8495 182.163H94.3377C94.2484 181.463 93.7907 181.113 92.9647 181.113C92.6074 181.113 92.3172 181.183 92.0939 181.323C91.8818 181.463 91.7758 181.667 91.7758 181.936C91.7758 182.006 91.7869 182.07 91.8092 182.128C91.8316 182.187 91.8651 182.239 91.9097 182.286C91.9655 182.333 92.0158 182.373 92.0604 182.408C92.1162 182.443 92.1888 182.478 92.2781 182.513C92.3674 182.548 92.4456 182.578 92.5125 182.601C92.5907 182.624 92.6912 182.648 92.814 182.671C92.9479 182.694 93.054 182.718 93.1321 182.741C93.2214 182.753 93.3386 182.776 93.4838 182.811C93.6289 182.834 93.7461 182.852 93.8354 182.864C94.215 182.934 94.5275 182.998 94.7731 183.056C95.0187 183.115 95.3034 183.22 95.6271 183.371C95.962 183.511 96.2244 183.681 96.4141 183.879C96.6039 184.066 96.7658 184.329 96.8997 184.667C97.0449 184.994 97.1174 185.379 97.1174 185.823C97.1174 186.78 96.7546 187.515 96.029 188.029C95.3145 188.542 94.3768 188.799 93.2158 188.799Z" fill="#272637"/>
<path d="M104.003 188.624C103.132 188.624 102.457 188.443 101.976 188.081C101.508 187.708 101.273 187.066 101.273 186.155V181.34H100.135V179.554H101.273V176.718H103.936V179.554H105.493V181.34H103.936V185.543C103.936 185.869 104.014 186.097 104.17 186.225C104.338 186.354 104.578 186.418 104.89 186.418C104.979 186.418 105.097 186.418 105.242 186.418C105.387 186.406 105.471 186.401 105.493 186.401V188.484C105.18 188.578 104.684 188.624 104.003 188.624Z" fill="#272637"/>
<path d="M106.474 188.519V176H109.203V180.657H109.254C109.912 179.747 110.761 179.292 111.799 179.292C112.725 179.292 113.451 179.607 113.976 180.237C114.512 180.856 114.779 181.673 114.779 182.689V188.519H112.05V183.266C112.05 182.776 111.933 182.391 111.698 182.111C111.475 181.819 111.146 181.673 110.71 181.673C110.264 181.673 109.901 181.848 109.622 182.198C109.343 182.548 109.203 183.004 109.203 183.564V188.519H106.474Z" fill="#272637"/>
<path d="M120.21 188.782C118.826 188.782 117.715 188.338 116.878 187.451C116.052 186.552 115.639 185.408 115.639 184.019C115.639 182.665 116.046 181.539 116.861 180.64C117.687 179.741 118.748 179.292 120.043 179.292C121.215 179.292 122.192 179.665 122.973 180.412C124 181.393 124.502 182.846 124.48 184.772H118.318C118.407 185.391 118.614 185.875 118.937 186.225C119.261 186.564 119.697 186.733 120.244 186.733C120.947 186.733 121.421 186.436 121.667 185.84H124.329C124.128 186.704 123.648 187.41 122.889 187.959C122.141 188.507 121.248 188.782 120.21 188.782ZM118.335 183.074H121.717C121.672 182.537 121.499 182.111 121.198 181.796C120.908 181.48 120.539 181.323 120.093 181.323C119.122 181.323 118.536 181.906 118.335 183.074Z" fill="#272637"/>
<path d="M127.994 188.519V179.554H130.606V180.833H130.656C131.248 179.805 132.113 179.292 133.252 179.292C134.379 179.292 135.183 179.817 135.663 180.868H135.697C136.344 179.817 137.243 179.292 138.393 179.292C139.341 179.292 140.061 179.601 140.553 180.22C141.055 180.827 141.306 181.65 141.306 182.689V188.519H138.577V183.196C138.577 182.181 138.175 181.673 137.371 181.673C136.947 181.673 136.612 181.842 136.366 182.181C136.132 182.508 136.015 182.945 136.015 183.494V188.519H133.285V183.196C133.285 182.181 132.883 181.673 132.08 181.673C131.655 181.673 131.321 181.842 131.075 182.181C130.841 182.508 130.723 182.945 130.723 183.494V188.519H127.994Z" fill="#272637"/>
<path d="M145.394 186.033C145.707 186.523 146.153 186.768 146.734 186.768C147.314 186.768 147.761 186.523 148.073 186.033C148.397 185.543 148.559 184.883 148.559 184.054C148.559 183.225 148.397 182.566 148.073 182.076C147.761 181.574 147.314 181.323 146.734 181.323C146.153 181.323 145.707 181.568 145.394 182.058C145.082 182.548 144.925 183.214 144.925 184.054C144.925 184.883 145.082 185.543 145.394 186.033ZM150.049 187.451C149.212 188.35 148.113 188.799 146.751 188.799C145.389 188.799 144.284 188.35 143.435 187.451C142.587 186.552 142.163 185.42 142.163 184.054C142.163 182.689 142.587 181.556 143.435 180.657C144.284 179.759 145.389 179.309 146.751 179.309C148.113 179.309 149.212 179.759 150.049 180.657C150.898 181.556 151.322 182.689 151.322 184.054C151.322 185.42 150.898 186.552 150.049 187.451Z" fill="#272637"/>
<path d="M155.895 188.799C154.645 188.799 153.646 188.519 152.898 187.959C152.161 187.387 151.77 186.605 151.726 185.613H154.304C154.405 186.5 154.929 186.943 155.878 186.943C156.291 186.943 156.615 186.867 156.85 186.716C157.095 186.552 157.218 186.33 157.218 186.05C157.218 185.957 157.207 185.875 157.184 185.805C157.162 185.735 157.123 185.671 157.067 185.613C157.011 185.554 156.956 185.502 156.9 185.455C156.855 185.408 156.783 185.367 156.682 185.332C156.582 185.286 156.492 185.251 156.414 185.227C156.347 185.204 156.241 185.181 156.096 185.157C155.962 185.122 155.856 185.099 155.778 185.087C155.7 185.064 155.577 185.041 155.41 185.017C155.242 184.982 155.119 184.959 155.041 184.947C154.684 184.889 154.382 184.831 154.137 184.772C153.891 184.702 153.618 184.597 153.316 184.457C153.026 184.317 152.786 184.159 152.596 183.984C152.418 183.797 152.267 183.552 152.144 183.249C152.021 182.934 151.96 182.572 151.96 182.163C151.96 181.253 152.312 180.547 153.015 180.045C153.718 179.543 154.6 179.292 155.661 179.292C156.855 179.292 157.782 179.549 158.44 180.062C159.099 180.564 159.462 181.264 159.529 182.163H157.017C156.928 181.463 156.47 181.113 155.644 181.113C155.287 181.113 154.996 181.183 154.773 181.323C154.561 181.463 154.455 181.667 154.455 181.936C154.455 182.006 154.466 182.07 154.489 182.128C154.511 182.187 154.544 182.239 154.589 182.286C154.645 182.333 154.695 182.373 154.74 182.408C154.796 182.443 154.868 182.478 154.957 182.513C155.047 182.548 155.125 182.578 155.192 182.601C155.27 182.624 155.37 182.648 155.493 182.671C155.627 182.694 155.733 182.718 155.811 182.741C155.901 182.753 156.018 182.776 156.163 182.811C156.308 182.834 156.425 182.852 156.515 182.864C156.894 182.934 157.207 182.998 157.452 183.056C157.698 183.115 157.983 183.22 158.306 183.371C158.641 183.511 158.904 183.681 159.093 183.879C159.283 184.066 159.445 184.329 159.579 184.667C159.724 184.994 159.797 185.379 159.797 185.823C159.797 186.78 159.434 187.515 158.708 188.029C157.994 188.542 157.056 188.799 155.895 188.799Z" fill="#272637"/>
<path d="M163.837 188.624C162.966 188.624 162.29 188.443 161.81 188.081C161.342 187.708 161.107 187.066 161.107 186.155V181.34H159.968V179.554H161.107V176.718H163.77V179.554H165.327V181.34H163.77V185.543C163.77 185.869 163.848 186.097 164.004 186.225C164.171 186.354 164.411 186.418 164.724 186.418C164.813 186.418 164.931 186.418 165.076 186.418C165.221 186.406 165.305 186.401 165.327 186.401V188.484C165.014 188.578 164.518 188.624 163.837 188.624Z" fill="#272637"/>
<path d="M171.855 188.782C170.884 188.782 170.136 188.484 169.611 187.889C169.098 187.282 168.841 186.465 168.841 185.438V179.554H171.554V184.842C171.554 185.858 171.983 186.365 172.843 186.365C173.312 186.365 173.68 186.202 173.948 185.875C174.216 185.537 174.35 185.099 174.35 184.562V179.554H177.079V188.519H174.467V187.416H174.417C173.77 188.327 172.916 188.782 171.855 188.782Z" fill="#272637"/>
<path d="M178.392 188.519V179.554H181.021V180.78H181.072C181.73 179.788 182.612 179.292 183.717 179.292C184.644 179.292 185.369 179.607 185.894 180.237C186.43 180.856 186.698 181.673 186.698 182.689V188.519H183.968V183.266C183.968 182.776 183.851 182.391 183.617 182.111C183.394 181.819 183.064 181.673 182.629 181.673C182.182 181.673 181.82 181.848 181.54 182.198C181.261 182.548 181.122 183.004 181.122 183.564V188.519H178.392Z" fill="#272637"/>
<path d="M187.942 188.519V179.554H190.672V188.519H187.942ZM187.942 178.311V176H190.672V178.311H187.942Z" fill="#272637"/>
<path d="M197.809 191.478V187.574H197.758C197.223 188.391 196.43 188.799 195.381 188.799C194.287 188.799 193.394 188.367 192.701 187.504C192.009 186.628 191.663 185.473 191.663 184.037C191.663 182.648 191.998 181.51 192.668 180.622C193.338 179.735 194.259 179.292 195.431 179.292C196.491 179.292 197.306 179.759 197.876 180.692H197.926V179.554H200.521V191.478H197.809ZM196.117 186.541C196.664 186.541 197.094 186.319 197.407 185.875C197.73 185.432 197.892 184.842 197.892 184.107C197.892 183.348 197.736 182.729 197.423 182.251C197.122 181.772 196.687 181.533 196.117 181.533C195.548 181.533 195.124 181.766 194.845 182.233C194.566 182.689 194.426 183.313 194.426 184.107C194.426 184.877 194.571 185.478 194.862 185.91C195.163 186.33 195.582 186.541 196.117 186.541Z" fill="#272637"/>
<path d="M204.773 188.782C203.801 188.782 203.054 188.484 202.529 187.889C202.015 187.282 201.759 186.465 201.759 185.438V179.554H204.471V184.842C204.471 185.858 204.901 186.365 205.761 186.365C206.23 186.365 206.598 186.202 206.866 185.875C207.134 185.537 207.268 185.099 207.268 184.562V179.554H209.997V188.519H207.385V187.416H207.335C206.687 188.327 205.833 188.782 204.773 188.782Z" fill="#272637"/>
<path d="M215.496 188.782C214.112 188.782 213.001 188.338 212.164 187.451C211.338 186.552 210.925 185.408 210.925 184.019C210.925 182.665 211.332 181.539 212.147 180.64C212.973 179.741 214.034 179.292 215.329 179.292C216.501 179.292 217.478 179.665 218.259 180.412C219.286 181.393 219.789 182.846 219.766 184.772H213.604C213.693 185.391 213.9 185.875 214.224 186.225C214.547 186.564 214.983 186.733 215.53 186.733C216.233 186.733 216.708 186.436 216.953 185.84H219.616C219.415 186.704 218.935 187.41 218.176 187.959C217.428 188.507 216.535 188.782 215.496 188.782ZM213.621 183.074H217.003C216.959 182.537 216.786 182.111 216.484 181.796C216.194 181.48 215.826 181.323 215.379 181.323C214.408 181.323 213.822 181.906 213.621 183.074Z" fill="#272637"/>
<path d="M223.448 188.519V176H226.428L229.978 182.286L230.799 183.879H230.832C230.81 182.875 230.799 182.227 230.799 181.936V176H233.696V188.519H230.715L227.198 182.321L226.344 180.64H226.311C226.333 181.714 226.344 182.397 226.344 182.689V188.519H223.448Z" fill="#272637"/>
<path d="M235.336 188.519V176H244.244V178.609H238.3V181.148H243.273V183.652H238.3V188.519H235.336Z" fill="#272637"/>
<path d="M248.52 188.519V178.626H245.037V176H255V178.626H251.484V188.519H248.52Z" fill="#272637"/>
<path d="M70.5944 210.024C69.7236 210.024 69.0483 209.843 68.5682 209.482C68.0994 209.108 67.865 208.466 67.865 207.556V202.741H66.7263V200.955H67.865V198.118H70.5274V200.955H72.0847V202.741H70.5274V206.943C70.5274 207.27 70.6055 207.497 70.7618 207.626C70.9293 207.754 71.1693 207.818 71.4819 207.818C71.5712 207.818 71.6884 207.818 71.8335 207.818C71.9786 207.807 72.0624 207.801 72.0847 207.801V209.884C71.7721 209.978 71.2753 210.024 70.5944 210.024Z" fill="#272637"/>
<path d="M75.8306 207.433C76.1432 207.923 76.5897 208.168 77.1702 208.168C77.7507 208.168 78.1972 207.923 78.5098 207.433C78.8335 206.943 78.9954 206.283 78.9954 205.455C78.9954 204.626 78.8335 203.966 78.5098 203.476C78.1972 202.974 77.7507 202.723 77.1702 202.723C76.5897 202.723 76.1432 202.968 75.8306 203.458C75.518 203.949 75.3617 204.614 75.3617 205.455C75.3617 206.283 75.518 206.943 75.8306 207.433ZM80.4857 208.851C79.6485 209.75 78.5489 210.2 77.1869 210.2C75.825 210.2 74.7198 209.75 73.8714 208.851C73.023 207.953 72.5988 206.82 72.5988 205.455C72.5988 204.089 73.023 202.957 73.8714 202.058C74.7198 201.159 75.825 200.709 77.1869 200.709C78.5489 200.709 79.6485 201.159 80.4857 202.058C81.3341 202.957 81.7583 204.089 81.7583 205.455C81.7583 206.82 81.3341 207.953 80.4857 208.851Z" fill="#272637"/>
<path d="M82.681 209.919V197.4H85.3769V203.984L87.9222 200.955H91.0702L88.0562 204.316L91.4219 209.919H88.2571L86.1975 206.26L85.3769 207.17V209.919H82.681Z" fill="#272637"/>
<path d="M95.5668 210.182C94.1826 210.182 93.0718 209.738 92.2346 208.851C91.4085 207.953 90.9954 206.809 90.9954 205.419C90.9954 204.065 91.4029 202.939 92.2178 202.04C93.0439 201.141 94.1044 200.692 95.3994 200.692C96.5715 200.692 97.5483 201.066 98.3297 201.813C99.3568 202.793 99.8591 204.246 99.8368 206.172H93.6746C93.7639 206.791 93.9704 207.275 94.2942 207.626C94.6179 207.964 95.0533 208.133 95.6003 208.133C96.3036 208.133 96.778 207.836 97.0236 207.24H99.6861C99.4851 208.104 99.0051 208.81 98.246 209.359C97.4981 209.908 96.605 210.182 95.5668 210.182ZM93.6914 204.474H97.0739C97.0292 203.937 96.8562 203.511 96.5548 203.196C96.2645 202.881 95.8961 202.723 95.4496 202.723C94.4784 202.723 93.8923 203.307 93.6914 204.474Z" fill="#272637"/>
<path d="M100.751 209.919V200.955H103.38V202.18H103.43C104.088 201.188 104.97 200.692 106.075 200.692C107.002 200.692 107.728 201.007 108.252 201.637C108.788 202.256 109.056 203.073 109.056 204.089V209.919H106.327V204.667C106.327 204.176 106.209 203.791 105.975 203.511C105.752 203.219 105.422 203.073 104.987 203.073C104.541 203.073 104.178 203.248 103.899 203.599C103.62 203.949 103.48 204.404 103.48 204.964V209.919H100.751Z" fill="#272637"/>
<path d="M110.183 209.919V206.978H113.047V209.919H110.183Z" fill="#272637"/>
<path d="M117.026 209.919V197.4H119.99V209.919H117.026Z" fill="#272637"/>
<path d="M124.868 210.024C123.998 210.024 123.322 209.843 122.842 209.482C122.373 209.108 122.139 208.466 122.139 207.556V202.741H121V200.955H122.139V198.118H124.801V200.955H126.359V202.741H124.801V206.943C124.801 207.27 124.88 207.497 125.036 207.626C125.203 207.754 125.443 207.818 125.756 207.818C125.845 207.818 125.962 207.818 126.108 207.818C126.253 207.807 126.336 207.801 126.359 207.801V209.884C126.046 209.978 125.549 210.024 124.868 210.024Z" fill="#272637"/>
<path d="M127.386 202.6V201.585C127.732 201.48 128.017 201.287 128.24 201.007C128.463 200.715 128.575 200.383 128.575 200.009H127.436V197.4H129.931V199.694C129.931 200.523 129.691 201.2 129.211 201.725C128.742 202.227 128.134 202.519 127.386 202.6Z" fill="#272637"/>
<path d="M134.13 210.2C132.88 210.2 131.88 209.919 131.133 209.359C130.396 208.787 130.005 208.005 129.96 207.013H132.539C132.64 207.9 133.164 208.344 134.113 208.344C134.526 208.344 134.85 208.268 135.084 208.116C135.33 207.952 135.453 207.731 135.453 207.451C135.453 207.357 135.442 207.275 135.419 207.205C135.397 207.135 135.358 207.071 135.302 207.013C135.246 206.954 135.19 206.902 135.135 206.855C135.09 206.809 135.017 206.768 134.917 206.733C134.816 206.686 134.727 206.651 134.649 206.628C134.582 206.604 134.476 206.581 134.331 206.558C134.197 206.523 134.091 206.499 134.013 206.488C133.935 206.464 133.812 206.441 133.644 206.418C133.477 206.382 133.354 206.359 133.276 206.347C132.919 206.289 132.617 206.231 132.372 206.172C132.126 206.102 131.853 205.997 131.551 205.857C131.261 205.717 131.021 205.56 130.831 205.384C130.653 205.198 130.502 204.953 130.379 204.649C130.256 204.334 130.195 203.972 130.195 203.564C130.195 202.653 130.546 201.947 131.25 201.445C131.953 200.943 132.835 200.692 133.895 200.692C135.09 200.692 136.016 200.949 136.675 201.462C137.334 201.964 137.697 202.665 137.764 203.564H135.252C135.162 202.863 134.705 202.513 133.879 202.513C133.521 202.513 133.231 202.583 133.008 202.723C132.796 202.863 132.69 203.067 132.69 203.336C132.69 203.406 132.701 203.47 132.723 203.528C132.746 203.587 132.779 203.639 132.824 203.686C132.88 203.733 132.93 203.774 132.974 203.809C133.03 203.844 133.103 203.879 133.192 203.914C133.281 203.949 133.36 203.978 133.427 204.001C133.505 204.025 133.605 204.048 133.728 204.071C133.862 204.095 133.968 204.118 134.046 204.141C134.135 204.153 134.253 204.176 134.398 204.211C134.543 204.235 134.66 204.252 134.749 204.264C135.129 204.334 135.442 204.398 135.687 204.456C135.933 204.515 136.217 204.62 136.541 204.772C136.876 204.912 137.138 205.081 137.328 205.279C137.518 205.466 137.68 205.729 137.814 206.067C137.959 206.394 138.031 206.779 138.031 207.223C138.031 208.18 137.669 208.916 136.943 209.429C136.229 209.943 135.291 210.2 134.13 210.2Z" fill="#272637"/>
<path d="M144.364 207.433C144.677 207.923 145.123 208.168 145.704 208.168C146.284 208.168 146.731 207.923 147.043 207.433C147.367 206.943 147.529 206.283 147.529 205.455C147.529 204.626 147.367 203.966 147.043 203.476C146.731 202.974 146.284 202.723 145.704 202.723C145.123 202.723 144.677 202.968 144.364 203.458C144.052 203.949 143.895 204.614 143.895 205.455C143.895 206.283 144.052 206.943 144.364 207.433ZM149.019 208.851C148.182 209.75 147.082 210.2 145.72 210.2C144.359 210.2 143.253 209.75 142.405 208.851C141.557 207.953 141.132 206.82 141.132 205.455C141.132 204.089 141.557 202.957 142.405 202.058C143.253 201.159 144.359 200.709 145.72 200.709C147.082 200.709 148.182 201.159 149.019 202.058C149.868 202.957 150.292 204.089 150.292 205.455C150.292 206.82 149.868 207.953 149.019 208.851Z" fill="#272637"/>
<path d="M151.214 209.919V200.955H153.843V202.18H153.894C154.552 201.188 155.434 200.692 156.539 200.692C157.466 200.692 158.192 201.007 158.716 201.637C159.252 202.256 159.52 203.073 159.52 204.089V209.919H156.791V204.667C156.791 204.176 156.673 203.791 156.439 203.511C156.216 203.219 155.886 203.073 155.451 203.073C155.004 203.073 154.642 203.248 154.363 203.599C154.083 203.949 153.944 204.404 153.944 204.964V209.919H151.214Z" fill="#272637"/>
<path d="M164.951 210.182C163.566 210.182 162.456 209.738 161.618 208.851C160.792 207.953 160.379 206.809 160.379 205.419C160.379 204.065 160.787 202.939 161.602 202.04C162.428 201.141 163.488 200.692 164.783 200.692C165.955 200.692 166.932 201.066 167.714 201.813C168.741 202.793 169.243 204.246 169.221 206.172H163.058C163.148 206.791 163.354 207.275 163.678 207.626C164.002 207.964 164.437 208.133 164.984 208.133C165.687 208.133 166.162 207.836 166.407 207.24H169.07C168.869 208.104 168.389 208.81 167.63 209.359C166.882 209.908 165.989 210.182 164.951 210.182ZM163.075 204.474H166.458C166.413 203.937 166.24 203.511 165.939 203.196C165.648 202.881 165.28 202.723 164.833 202.723C163.862 202.723 163.276 203.307 163.075 204.474Z" fill="#272637"/>
<path d="M175.581 207.433C175.894 207.923 176.34 208.168 176.921 208.168C177.501 208.168 177.948 207.923 178.26 207.433C178.584 206.943 178.746 206.283 178.746 205.455C178.746 204.626 178.584 203.966 178.26 203.476C177.948 202.974 177.501 202.723 176.921 202.723C176.34 202.723 175.894 202.968 175.581 203.458C175.269 203.949 175.112 204.614 175.112 205.455C175.112 206.283 175.269 206.943 175.581 207.433ZM180.236 208.851C179.399 209.75 178.299 210.2 176.937 210.2C175.576 210.2 174.47 209.75 173.622 208.851C172.774 207.953 172.349 206.82 172.349 205.455C172.349 204.089 172.774 202.957 173.622 202.058C174.47 201.159 175.576 200.709 176.937 200.709C178.299 200.709 179.399 201.159 180.236 202.058C181.085 202.957 181.509 204.089 181.509 205.455C181.509 206.82 181.085 207.953 180.236 208.851Z" fill="#272637"/>
<path d="M182.904 209.919V202.776H181.799V200.955H182.904V200.307C182.904 199.408 183.139 198.713 183.608 198.223C184.289 197.523 185.5 197.266 187.241 197.453V199.466C186.661 199.443 186.248 199.496 186.002 199.624C185.757 199.752 185.634 200.05 185.634 200.517V200.955H187.241V202.776H185.634V209.919H182.904Z" fill="#272637"/>
<path d="M193.234 210.147C192.352 210.147 191.644 209.908 191.108 209.429C190.572 208.951 190.304 208.279 190.304 207.416C190.304 206.505 190.594 205.846 191.175 205.437C191.755 205.017 192.559 204.737 193.586 204.597C194.423 204.491 194.993 204.375 195.294 204.246C195.607 204.106 195.763 203.89 195.763 203.599C195.763 202.957 195.372 202.636 194.591 202.636C193.753 202.636 193.29 203.021 193.201 203.791H190.689C190.723 202.904 191.069 202.169 191.727 201.585C192.397 201.001 193.346 200.709 194.574 200.709C195.802 200.709 196.728 200.955 197.354 201.445C198.079 201.994 198.442 202.846 198.442 204.001V208.519C198.442 209.231 198.543 209.657 198.743 209.797V209.919H196.098C195.986 209.756 195.891 209.423 195.813 208.921H195.78C195.233 209.738 194.384 210.147 193.234 210.147ZM194.105 208.326C194.619 208.326 195.032 208.18 195.344 207.888C195.668 207.585 195.83 207.194 195.83 206.715V205.647C195.562 205.787 195.093 205.945 194.423 206.12C193.876 206.248 193.491 206.4 193.268 206.575C193.045 206.75 192.933 207.001 192.933 207.328C192.933 207.993 193.324 208.326 194.105 208.326Z" fill="#272637"/>
<path d="M202.365 209.919V197.4H205.061V203.984L207.606 200.955H210.754L207.74 204.316L211.106 209.919H207.941L205.882 206.26L205.061 207.17V209.919H202.365Z" fill="#272637"/>
<path d="M211.735 209.919V200.955H214.465V209.919H211.735ZM211.735 199.711V197.4H214.465V199.711H211.735Z" fill="#272637"/>
<path d="M215.774 209.919V200.955H218.403V202.18H218.454C219.112 201.188 219.994 200.692 221.099 200.692C222.026 200.692 222.751 201.007 223.276 201.637C223.812 202.256 224.08 203.073 224.08 204.089V209.919H221.35V204.667C221.35 204.176 221.233 203.791 220.999 203.511C220.775 203.219 220.446 203.073 220.011 203.073C219.564 203.073 219.201 203.248 218.922 203.599C218.643 203.949 218.504 204.404 218.504 204.964V209.919H215.774Z" fill="#272637"/>
<path d="M228.69 210.2C227.574 210.2 226.669 209.773 225.977 208.921C225.285 208.069 224.939 206.908 224.939 205.437C224.939 204.036 225.285 202.898 225.977 202.023C226.681 201.136 227.585 200.692 228.69 200.692C229.717 200.692 230.515 201.118 231.084 201.97H231.135V197.4H233.864V209.919H231.252V208.711H231.218C230.66 209.703 229.817 210.2 228.69 210.2ZM229.393 207.941C229.951 207.941 230.392 207.713 230.716 207.258C231.04 206.791 231.202 206.184 231.202 205.437C231.202 204.655 231.051 204.03 230.75 203.564C230.448 203.085 230.007 202.846 229.427 202.846C228.891 202.846 228.467 203.079 228.154 203.546C227.853 204.013 227.702 204.632 227.702 205.402C227.702 206.184 227.853 206.803 228.154 207.258C228.456 207.713 228.869 207.941 229.393 207.941Z" fill="#272637"/>
<path d="M235.051 209.919V206.978H237.915V209.919H235.051Z" fill="#272637"/>
<path d="M69.9663 231.32V221.427H66.4834V218.8H76.4466V221.427H72.9302V231.32H69.9663Z" fill="#272637"/>
<path d="M77.3828 231.32V218.8H80.1122V223.458H80.1625C80.8211 222.547 81.6695 222.092 82.7077 222.092C83.6342 222.092 84.3599 222.407 84.8845 223.038C85.4204 223.656 85.6883 224.473 85.6883 225.489V231.32H82.9589V226.067C82.9589 225.577 82.8417 225.191 82.6072 224.911C82.384 224.619 82.0546 224.473 81.6193 224.473C81.1727 224.473 80.8099 224.649 80.5308 224.999C80.2518 225.349 80.1122 225.804 80.1122 226.364V231.32H77.3828Z" fill="#272637"/>
<path d="M91.1189 231.582C89.7347 231.582 88.6239 231.139 87.7867 230.252C86.9606 229.353 86.5475 228.209 86.5475 226.82C86.5475 225.466 86.955 224.339 87.7699 223.44C88.596 222.542 89.6565 222.092 90.9515 222.092C92.1236 222.092 93.1004 222.466 93.8818 223.213C94.9089 224.193 95.4112 225.647 95.3889 227.573H89.2267C89.316 228.191 89.5226 228.676 89.8463 229.026C90.17 229.364 90.6054 229.534 91.1524 229.534C91.8557 229.534 92.3301 229.236 92.5757 228.641H95.2382C95.0372 229.504 94.5572 230.211 93.7981 230.759C93.0502 231.308 92.1571 231.582 91.1189 231.582ZM89.2435 225.874H92.626C92.5813 225.337 92.4083 224.911 92.1069 224.596C91.8166 224.281 91.4482 224.123 91.0017 224.123C90.0305 224.123 89.4444 224.707 89.2435 225.874Z" fill="#272637"/>
<path d="M101.431 231.547C100.549 231.547 99.8404 231.308 99.3046 230.829C98.7688 230.351 98.5008 229.68 98.5008 228.816C98.5008 227.905 98.7911 227.246 99.3716 226.837C99.9521 226.417 100.756 226.137 101.783 225.997C102.62 225.892 103.189 225.775 103.491 225.647C103.803 225.507 103.96 225.291 103.96 224.999C103.96 224.357 103.569 224.036 102.788 224.036C101.95 224.036 101.487 224.421 101.398 225.191H98.886C98.9195 224.304 99.2655 223.569 99.9242 222.985C100.594 222.402 101.543 222.11 102.771 222.11C103.999 222.11 104.925 222.355 105.55 222.845C106.276 223.394 106.639 224.246 106.639 225.401V229.919C106.639 230.631 106.739 231.057 106.94 231.197V231.32H104.295C104.183 231.156 104.088 230.824 104.01 230.322H103.976C103.429 231.139 102.581 231.547 101.431 231.547ZM102.302 229.726C102.815 229.726 103.229 229.58 103.541 229.289C103.865 228.985 104.027 228.594 104.027 228.115V227.047C103.759 227.187 103.29 227.345 102.62 227.52C102.073 227.648 101.688 227.8 101.465 227.975C101.241 228.15 101.13 228.401 101.13 228.728C101.13 229.394 101.521 229.726 102.302 229.726Z" fill="#272637"/>
<path d="M110.909 231.582C109.938 231.582 109.19 231.285 108.665 230.689C108.152 230.082 107.895 229.265 107.895 228.238V222.355H110.608V227.643C110.608 228.658 111.038 229.166 111.897 229.166C112.366 229.166 112.734 229.003 113.002 228.676C113.27 228.337 113.404 227.899 113.404 227.363V222.355H116.134V231.32H113.521V230.217H113.471C112.824 231.127 111.97 231.582 110.909 231.582Z" fill="#272637"/>
<path d="M121.616 231.6C120.254 231.6 119.154 231.15 118.317 230.252C117.48 229.353 117.061 228.22 117.061 226.855C117.061 225.489 117.474 224.357 118.3 223.458C119.127 222.559 120.209 222.11 121.549 222.11C122.688 222.11 123.62 222.425 124.345 223.055C125.071 223.686 125.495 224.514 125.618 225.542H122.989C122.799 224.654 122.33 224.211 121.583 224.211C121.002 224.211 120.561 224.444 120.26 224.911C119.969 225.378 119.824 226.026 119.824 226.855C119.824 227.672 119.975 228.314 120.276 228.781C120.578 229.236 121.013 229.464 121.583 229.464C122.453 229.464 122.95 228.95 123.073 227.923H125.685C125.652 228.985 125.261 229.866 124.513 230.567C123.776 231.255 122.81 231.6 121.616 231.6Z" fill="#272637"/>
<path d="M129.954 231.425C129.083 231.425 128.408 231.244 127.928 230.882C127.459 230.508 127.225 229.866 127.225 228.956V224.141H126.086V222.355H127.225V219.518H129.887V222.355H131.444V224.141H129.887V228.343C129.887 228.67 129.965 228.897 130.122 229.026C130.289 229.154 130.529 229.218 130.842 229.218C130.931 229.218 131.048 229.218 131.193 229.218C131.338 229.207 131.422 229.201 131.444 229.201V231.285C131.132 231.378 130.635 231.425 129.954 231.425Z" fill="#272637"/>
<path d="M132.425 231.32V222.355H135.155V231.32H132.425ZM132.425 221.112V218.8H135.155V221.112H132.425Z" fill="#272637"/>
<path d="M139.311 228.833C139.624 229.324 140.07 229.569 140.651 229.569C141.231 229.569 141.678 229.324 141.99 228.833C142.314 228.343 142.476 227.684 142.476 226.855C142.476 226.026 142.314 225.366 141.99 224.876C141.678 224.374 141.231 224.123 140.651 224.123C140.07 224.123 139.624 224.368 139.311 224.859C138.999 225.349 138.842 226.014 138.842 226.855C138.842 227.684 138.999 228.343 139.311 228.833ZM143.966 230.252C143.129 231.15 142.029 231.6 140.668 231.6C139.306 231.6 138.2 231.15 137.352 230.252C136.504 229.353 136.079 228.22 136.079 226.855C136.079 225.489 136.504 224.357 137.352 223.458C138.2 222.559 139.306 222.11 140.668 222.11C142.029 222.11 143.129 222.559 143.966 223.458C144.815 224.357 145.239 225.489 145.239 226.855C145.239 228.22 144.815 229.353 143.966 230.252Z" fill="#272637"/>
<path d="M146.162 231.32V222.355H148.791V223.581H148.841C149.499 222.588 150.381 222.092 151.486 222.092C152.413 222.092 153.139 222.407 153.663 223.038C154.199 223.656 154.467 224.473 154.467 225.489V231.32H151.738V226.067C151.738 225.577 151.62 225.191 151.386 224.911C151.163 224.619 150.833 224.473 150.398 224.473C149.951 224.473 149.589 224.649 149.31 224.999C149.031 225.349 148.891 225.804 148.891 226.364V231.32H146.162Z" fill="#272637"/>
<path d="M158.948 231.32V224.176H157.843V222.355H158.948V221.707C158.948 220.808 159.182 220.114 159.651 219.623C160.332 218.923 161.543 218.666 163.285 218.853V220.867C162.704 220.843 162.291 220.896 162.046 221.024C161.8 221.153 161.677 221.45 161.677 221.917V222.355H163.285V224.176H161.677V231.32H158.948Z" fill="#272637"/>
<path d="M166.751 228.833C167.063 229.324 167.51 229.569 168.09 229.569C168.671 229.569 169.117 229.324 169.43 228.833C169.754 228.343 169.916 227.684 169.916 226.855C169.916 226.026 169.754 225.366 169.43 224.876C169.117 224.374 168.671 224.123 168.09 224.123C167.51 224.123 167.063 224.368 166.751 224.859C166.438 225.349 166.282 226.014 166.282 226.855C166.282 227.684 166.438 228.343 166.751 228.833ZM171.406 230.252C170.569 231.15 169.469 231.6 168.107 231.6C166.745 231.6 165.64 231.15 164.792 230.252C163.943 229.353 163.519 228.22 163.519 226.855C163.519 225.489 163.943 224.357 164.792 223.458C165.64 222.559 166.745 222.11 168.107 222.11C169.469 222.11 170.569 222.559 171.406 223.458C172.254 224.357 172.678 225.489 172.678 226.855C172.678 228.22 172.254 229.353 171.406 230.252Z" fill="#272637"/>
<path d="M173.601 231.32V222.355H176.213V223.756H176.264C176.844 222.728 177.625 222.215 178.608 222.215C178.865 222.215 179.043 222.238 179.144 222.285V224.736H179.077C178.228 224.608 177.559 224.765 177.067 225.209C176.576 225.641 176.331 226.335 176.331 227.292V231.32H173.601Z" fill="#272637"/>
<path d="M182.611 231.32V222.355H185.341V231.32H182.611ZM182.611 221.112V218.8H185.341V221.112H182.611Z" fill="#272637"/>
<path d="M190.05 231.425C189.179 231.425 188.504 231.244 188.024 230.882C187.555 230.508 187.32 229.866 187.32 228.956V224.141H186.182V222.355H187.32V219.518H189.983V222.355H191.54V224.141H189.983V228.343C189.983 228.67 190.061 228.897 190.217 229.026C190.385 229.154 190.625 229.218 190.937 229.218C191.026 229.218 191.144 229.218 191.289 229.218C191.434 229.207 191.518 229.201 191.54 229.201V231.285C191.227 231.378 190.731 231.425 190.05 231.425Z" fill="#272637"/>
<path d="M198.771 231.6C197.521 231.6 196.522 231.32 195.774 230.759C195.037 230.187 194.647 229.405 194.602 228.413H197.181C197.281 229.3 197.806 229.744 198.755 229.744C199.168 229.744 199.492 229.668 199.726 229.516C199.972 229.353 200.094 229.131 200.094 228.851C200.094 228.757 200.083 228.676 200.061 228.606C200.038 228.536 199.999 228.471 199.944 228.413C199.888 228.355 199.832 228.302 199.776 228.255C199.732 228.209 199.659 228.168 199.558 228.133C199.458 228.086 199.369 228.051 199.291 228.028C199.224 228.005 199.118 227.981 198.972 227.958C198.838 227.923 198.732 227.899 198.654 227.888C198.576 227.864 198.453 227.841 198.286 227.818C198.118 227.783 197.996 227.759 197.917 227.748C197.56 227.689 197.259 227.631 197.013 227.573C196.768 227.503 196.494 227.398 196.193 227.257C195.902 227.117 195.662 226.96 195.473 226.785C195.294 226.598 195.143 226.353 195.021 226.049C194.898 225.734 194.836 225.372 194.836 224.964C194.836 224.053 195.188 223.347 195.891 222.845C196.595 222.343 197.477 222.092 198.537 222.092C199.732 222.092 200.658 222.349 201.317 222.863C201.975 223.365 202.338 224.065 202.405 224.964H199.893C199.804 224.263 199.346 223.913 198.52 223.913C198.163 223.913 197.873 223.983 197.65 224.123C197.437 224.263 197.331 224.468 197.331 224.736C197.331 224.806 197.343 224.87 197.365 224.929C197.387 224.987 197.421 225.04 197.465 225.086C197.521 225.133 197.571 225.174 197.616 225.209C197.672 225.244 197.744 225.279 197.834 225.314C197.923 225.349 198.001 225.378 198.068 225.401C198.146 225.425 198.247 225.448 198.37 225.472C198.504 225.495 198.61 225.518 198.688 225.542C198.777 225.553 198.894 225.577 199.039 225.612C199.185 225.635 199.302 225.652 199.391 225.664C199.771 225.734 200.083 225.798 200.329 225.857C200.574 225.915 200.859 226.02 201.183 226.172C201.518 226.312 201.78 226.481 201.97 226.68C202.16 226.866 202.321 227.129 202.455 227.468C202.6 227.794 202.673 228.18 202.673 228.623C202.673 229.58 202.31 230.316 201.585 230.829C200.87 231.343 199.932 231.6 198.771 231.6Z" fill="#272637"/>
<path d="M206.713 231.425C205.842 231.425 205.167 231.244 204.687 230.882C204.218 230.508 203.983 229.866 203.983 228.956V224.141H202.845V222.355H203.983V219.518H206.646V222.355H208.203V224.141H206.646V228.343C206.646 228.67 206.724 228.897 206.88 229.026C207.048 229.154 207.288 229.218 207.6 229.218C207.69 229.218 207.807 229.218 207.952 229.218C208.097 229.207 208.181 229.201 208.203 229.201V231.285C207.891 231.378 207.394 231.425 206.713 231.425Z" fill="#272637"/>
<path d="M211.876 231.547C210.994 231.547 210.285 231.308 209.75 230.829C209.214 230.351 208.946 229.68 208.946 228.816C208.946 227.905 209.236 227.246 209.817 226.837C210.397 226.417 211.201 226.137 212.228 225.997C213.065 225.892 213.634 225.775 213.936 225.647C214.248 225.507 214.405 225.291 214.405 224.999C214.405 224.357 214.014 224.036 213.233 224.036C212.395 224.036 211.932 224.421 211.843 225.191H209.331C209.365 224.304 209.711 223.569 210.369 222.985C211.039 222.402 211.988 222.11 213.216 222.11C214.444 222.11 215.37 222.355 215.996 222.845C216.721 223.394 217.084 224.246 217.084 225.401V229.919C217.084 230.631 217.184 231.057 217.385 231.197V231.32H214.74C214.628 231.156 214.533 230.824 214.455 230.322H214.422C213.875 231.139 213.026 231.547 211.876 231.547ZM212.747 229.726C213.261 229.726 213.674 229.58 213.986 229.289C214.31 228.985 214.472 228.594 214.472 228.115V227.047C214.204 227.187 213.735 227.345 213.065 227.52C212.518 227.648 212.133 227.8 211.91 227.975C211.686 228.15 211.575 228.401 211.575 228.728C211.575 229.394 211.966 229.726 212.747 229.726Z" fill="#272637"/>
<path d="M218.407 231.32V222.355H221.019V223.756H221.07C221.65 222.728 222.431 222.215 223.414 222.215C223.671 222.215 223.849 222.238 223.95 222.285V224.736H223.883C223.034 224.608 222.364 224.765 221.873 225.209C221.382 225.641 221.137 226.335 221.137 227.292V231.32H218.407Z" fill="#272637"/>
<path d="M228.38 231.425C227.509 231.425 226.834 231.244 226.354 230.882C225.885 230.508 225.651 229.866 225.651 228.956V224.141H224.512V222.355H225.651V219.518H228.313V222.355H229.87V224.141H228.313V228.343C228.313 228.67 228.391 228.897 228.547 229.026C228.715 229.154 228.955 229.218 229.268 229.218C229.357 229.218 229.474 229.218 229.619 229.218C229.764 229.207 229.848 229.201 229.87 229.201V231.285C229.558 231.378 229.061 231.425 228.38 231.425Z" fill="#272637"/>
<path d="M234.665 231.6C233.415 231.6 232.416 231.32 231.668 230.759C230.931 230.187 230.54 229.405 230.496 228.413H233.075C233.175 229.3 233.7 229.744 234.649 229.744C235.062 229.744 235.385 229.668 235.62 229.516C235.865 229.353 235.988 229.131 235.988 228.851C235.988 228.757 235.977 228.676 235.955 228.606C235.932 228.536 235.893 228.471 235.837 228.413C235.782 228.355 235.726 228.302 235.67 228.255C235.625 228.209 235.553 228.168 235.452 228.133C235.352 228.086 235.263 228.051 235.184 228.028C235.117 228.005 235.011 227.981 234.866 227.958C234.732 227.923 234.626 227.899 234.548 227.888C234.47 227.864 234.347 227.841 234.18 227.818C234.012 227.783 233.889 227.759 233.811 227.748C233.454 227.689 233.153 227.631 232.907 227.573C232.661 227.503 232.388 227.398 232.087 227.257C231.796 227.117 231.556 226.96 231.367 226.785C231.188 226.598 231.037 226.353 230.914 226.049C230.792 225.734 230.73 225.372 230.73 224.964C230.73 224.053 231.082 223.347 231.785 222.845C232.488 222.343 233.37 222.092 234.431 222.092C235.625 222.092 236.552 222.349 237.211 222.863C237.869 223.365 238.232 224.065 238.299 224.964H235.787C235.698 224.263 235.24 223.913 234.414 223.913C234.057 223.913 233.767 223.983 233.543 224.123C233.331 224.263 233.225 224.468 233.225 224.736C233.225 224.806 233.236 224.87 233.259 224.929C233.281 224.987 233.315 225.04 233.359 225.086C233.415 225.133 233.465 225.174 233.51 225.209C233.566 225.244 233.638 225.279 233.728 225.314C233.817 225.349 233.895 225.378 233.962 225.401C234.04 225.425 234.141 225.448 234.263 225.472C234.397 225.495 234.503 225.518 234.582 225.542C234.671 225.553 234.788 225.577 234.933 225.612C235.078 225.635 235.196 225.652 235.285 225.664C235.664 225.734 235.977 225.798 236.223 225.857C236.468 225.915 236.753 226.02 237.077 226.172C237.411 226.312 237.674 226.481 237.864 226.68C238.053 226.866 238.215 227.129 238.349 227.468C238.494 227.794 238.567 228.18 238.567 228.623C238.567 229.58 238.204 230.316 237.478 230.829C236.764 231.343 235.826 231.6 234.665 231.6Z" fill="#272637"/>
<path d="M112.539 252.72V245.576H111.434V243.755H112.539V243.107C112.539 242.208 112.774 241.514 113.243 241.024C113.924 240.323 115.135 240.066 116.876 240.253V242.267C116.296 242.243 115.883 242.296 115.637 242.424C115.392 242.553 115.269 242.85 115.269 243.317V243.755H116.876V245.576H115.269V252.72H112.539Z" fill="#272637"/>
<path d="M117.741 252.72V243.755H120.353V245.156H120.403C120.984 244.129 121.765 243.615 122.748 243.615C123.004 243.615 123.183 243.638 123.283 243.685V246.136H123.216C122.368 246.008 121.698 246.166 121.207 246.609C120.716 247.041 120.47 247.736 120.47 248.693V252.72H117.741Z" fill="#272637"/>
<path d="M126.834 250.234C127.147 250.724 127.593 250.969 128.174 250.969C128.754 250.969 129.201 250.724 129.513 250.234C129.837 249.743 129.999 249.084 129.999 248.255C129.999 247.426 129.837 246.767 129.513 246.276C129.201 245.774 128.754 245.524 128.174 245.524C127.593 245.524 127.147 245.769 126.834 246.259C126.522 246.749 126.365 247.415 126.365 248.255C126.365 249.084 126.522 249.743 126.834 250.234ZM131.489 251.652C130.652 252.551 129.552 253 128.191 253C126.829 253 125.723 252.551 124.875 251.652C124.027 250.753 123.602 249.621 123.602 248.255C123.602 246.889 124.027 245.757 124.875 244.858C125.723 243.959 126.829 243.51 128.191 243.51C129.552 243.51 130.652 243.959 131.489 244.858C132.338 245.757 132.762 246.889 132.762 248.255C132.762 249.621 132.338 250.753 131.489 251.652Z" fill="#272637"/>
<path d="M133.685 252.72V243.755H136.297V245.033H136.347C136.939 244.006 137.804 243.492 138.943 243.492C140.07 243.492 140.874 244.018 141.354 245.068H141.387C142.035 244.018 142.933 243.492 144.083 243.492C145.032 243.492 145.752 243.802 146.243 244.42C146.746 245.027 146.997 245.85 146.997 246.889V252.72H144.267V247.397C144.267 246.381 143.866 245.874 143.062 245.874C142.638 245.874 142.303 246.043 142.057 246.381C141.823 246.708 141.705 247.146 141.705 247.695V252.72H138.976V247.397C138.976 246.381 138.574 245.874 137.77 245.874C137.346 245.874 137.011 246.043 136.766 246.381C136.531 246.708 136.414 247.146 136.414 247.695V252.72H133.685Z" fill="#272637"/>
<path d="M153.082 252.72V245.051H150.621V243.055C151.424 243.031 152.1 242.815 152.647 242.407C153.194 241.998 153.534 241.403 153.668 240.621H155.912V252.72H153.082Z" fill="#272637"/>
<path d="M160.409 252.72V240.201H169.484V242.757H163.372V244.998H168.614V247.415H163.372V250.093H169.585V252.72H160.409Z" fill="#272637"/>
<path d="M173.87 252.72V242.827H170.387V240.201H180.351V242.827H176.834V252.72H173.87Z" fill="#272637"/>
<path d="M181.454 252.72V240.201H184.418V244.946H188.621V240.201H191.585V252.72H188.621V247.502H184.418V252.72H181.454Z" fill="#272637"/>
<path d="M192.943 252.72V249.778H195.807V252.72H192.943Z" fill="#272637"/>
<defs>
<filter id="filter0_d_678_34" x="40" y="104" width="232" height="27" filterUnits="userSpaceOnUse" color-interpolation-filters="sRGB">
<feFlood flood-opacity="0" result="BackgroundImageFix"/>
<feColorMatrix in="SourceAlpha" type="matrix" values="0 0 0 0 0 0 0 0 0 0 0 0 0 0 0 0 0 0 127 0" result="hardAlpha"/>
<feOffset dy="4"/>
<feGaussianBlur stdDeviation="2"/>
<feComposite in2="hardAlpha" operator="out"/>
<feColorMatrix type="matrix" values="0 0 0 0 0 0 0 0 0 0 0 0 0 0 0 0 0 0 0.25 0"/>
<feBlend mode="normal" in2="BackgroundImageFix" result="effect1_dropShadow_678_34"/>
<feBlend mode="normal" in="SourceGraphic" in2="effect1_dropShadow_678_34" result="shape"/>
</filter>
<linearGradient id="paint0_linear_678_34" x1="84.9719" y1="74.0142" x2="250.596" y2="74.0141" gradientUnits="userSpaceOnUse">
<stop stop-color="#FFD600"/>
<stop offset="1" stop-color="#0AE2D5"/>
</linearGradient>
</defs>
</svg>
