<svg width="339" height="293" viewBox="0 0 339 293" fill="none" xmlns="http://www.w3.org/2000/svg">
<path fill-rule="evenodd" clip-rule="evenodd" d="M0.0724734 90.2551C0.0724734 78.9368 0.0723422 90.2551 0.0734151 75L339 75.4921C339 89.1405 339 75.4921 339 89.1405H304.031C302.624 89.1405 301.483 90.1806 301.483 91.4637C301.483 92.7467 302.624 93.7869 304.031 93.7869H339C339 100.176 339 93.7869 339 100.176H298.438C297.031 100.176 295.89 101.216 295.89 102.499C295.89 103.782 297.031 104.822 298.438 104.822L339 105.018C339 108.463 339 108.436 339 110.146V111.499L288.284 111.211L274.012 88.3746C273.288 87.2164 271.82 86.7003 270.478 87.0387L270.472 87.0387H16.8619C15.9443 86.6021 14.809 86.5936 13.8443 87.1081C12.3408 87.9101 11.821 89.6787 12.6834 91.0585L26.5917 113.313L13.9409 133.555C13.9007 133.619 13.8635 133.684 13.8293 133.75C12.9567 134.268 12.3798 135.165 12.3798 136.185C12.3798 137.789 13.8059 139.089 15.5651 139.089H272.622C272.85 139.089 273.073 139.067 273.288 139.026C274.526 139.199 275.804 138.676 276.465 137.62L289.23 117.194C289.266 117.136 289.3 117.078 289.331 117.019L339 117.307V232.63C339 240.47 336.907 246.536 328.308 246.536H323.642C312.328 246.536 303.156 254.898 303.156 265.213V274.323C303.156 284.638 293.984 293 282.67 293H20.606C9.2917 293 0.119703 284.638 0.119703 274.323V153.41C0.119703 143.095 0.119703 153.41 0.119703 128.147C0.11921 81.6393 -0.114462 136.762 0.0724734 90.2551ZM21.3714 133.281H271.916L283.382 114.936C283.301 114.837 283.226 114.733 283.157 114.624L269.185 92.2682H20.6991L32.7182 111.499C33.3429 112.499 33.2423 113.702 32.568 114.595C32.5689 115.084 32.4348 115.579 32.1515 116.032L21.3714 133.281Z" fill="#C4C4C4"/>
<path d="M28 171.136C28 157.806 38.9611 147 52.4824 147H252.518C266.039 147 277 157.806 277 171.136V251.864C277 265.194 266.039 276 252.518 276H52.4824C38.9612 276 28 265.194 28 251.864V171.136Z" fill="white"/>
<path d="M50.3842 185.013L55.1697 172.007H58.5586L63.3627 185.013H59.8993L59.1172 182.666H54.4621L53.6986 185.013H50.3842ZM55.2255 180.356H58.3538L57.3483 177.209L56.8269 175.372H56.7897C56.5786 176.148 56.3986 176.76 56.2497 177.209L55.2255 180.356Z" fill="#272637"/>
<path d="M70.7837 185.122C69.8155 185.122 69.0644 184.934 68.5306 184.558C68.0093 184.17 67.7486 183.503 67.7486 182.557V177.555H66.4824V175.699H67.7486V172.752H70.7093V175.699H72.441V177.555H70.7093V181.92C70.7093 182.26 70.7961 182.496 70.9699 182.63C71.1561 182.763 71.423 182.83 71.7706 182.83C71.8699 182.83 72.0003 182.83 72.1617 182.83C72.323 182.818 72.4161 182.812 72.441 182.812V184.976C72.0934 185.073 71.541 185.122 70.7837 185.122Z" fill="#272637"/>
<path d="M76.6064 182.43C76.954 182.939 77.4506 183.194 78.0961 183.194C78.7416 183.194 79.2382 182.939 79.5857 182.43C79.9457 181.92 80.1257 181.235 80.1257 180.374C80.1257 179.513 79.9457 178.828 79.5857 178.319C79.2382 177.797 78.7416 177.536 78.0961 177.536C77.4506 177.536 76.954 177.791 76.6064 178.3C76.2589 178.81 76.0851 179.501 76.0851 180.374C76.0851 181.235 76.2589 181.92 76.6064 182.43ZM81.783 183.903C80.8519 184.837 79.6292 185.304 78.1147 185.304C76.6002 185.304 75.3713 184.837 74.4278 183.903C73.4844 182.969 73.0127 181.793 73.0127 180.374C73.0127 178.955 73.4844 177.779 74.4278 176.845C75.3713 175.911 76.6002 175.445 78.1147 175.445C79.6292 175.445 80.8519 175.911 81.783 176.845C82.7264 177.779 83.1981 178.955 83.1981 180.374C83.1981 181.793 82.7264 182.969 81.783 183.903Z" fill="#272637"/>
<path d="M87.8223 185.122C86.854 185.122 86.103 184.934 85.5692 184.558C85.0478 184.17 84.7871 183.503 84.7871 182.557V177.555H83.5209V175.699H84.7871V172.752H87.7478V175.699H89.4795V177.555H87.7478V181.92C87.7478 182.26 87.8347 182.496 88.0085 182.63C88.1947 182.763 88.4616 182.83 88.8092 182.83C88.9085 182.83 89.0388 182.83 89.2002 182.83C89.3616 182.818 89.4547 182.812 89.4795 182.812V184.976C89.1319 185.073 88.5795 185.122 87.8223 185.122Z" fill="#272637"/>
<path d="M93.564 185.249C92.5833 185.249 91.795 185 91.1991 184.503C90.6033 184.006 90.3054 183.309 90.3054 182.411C90.3054 181.465 90.6281 180.78 91.2736 180.356C91.9191 179.919 92.8129 179.628 93.955 179.483C94.886 179.374 95.5191 179.252 95.8543 179.119C96.2019 178.973 96.3757 178.749 96.3757 178.446C96.3757 177.779 95.9412 177.445 95.0722 177.445C94.1412 177.445 93.626 177.846 93.5267 178.646H90.7336C90.7709 177.724 91.1557 176.96 91.8881 176.354C92.6329 175.748 93.6881 175.445 95.0536 175.445C96.4191 175.445 97.4494 175.699 98.1446 176.209C98.9515 176.779 99.3549 177.664 99.3549 178.864V183.557C99.3549 184.297 99.4667 184.74 99.6901 184.885V185.013H96.7481C96.6239 184.843 96.5184 184.497 96.4315 183.976H96.3943C95.786 184.825 94.8426 185.249 93.564 185.249ZM94.5322 183.357C95.1033 183.357 95.5626 183.206 95.9101 182.902C96.2701 182.587 96.4501 182.181 96.4501 181.684V180.574C96.1522 180.72 95.6308 180.883 94.886 181.065C94.2777 181.199 93.8495 181.356 93.6012 181.538C93.3529 181.72 93.2288 181.981 93.2288 182.32C93.2288 183.012 93.6633 183.357 94.5322 183.357Z" fill="#272637"/>
<path d="M100.845 185.013V172.007H103.917V185.013H100.845Z" fill="#272637"/>
<path d="M111.447 182.43C111.795 182.939 112.291 183.194 112.937 183.194C113.582 183.194 114.079 182.939 114.427 182.43C114.787 181.92 114.967 181.235 114.967 180.374C114.967 179.513 114.787 178.828 114.427 178.319C114.079 177.797 113.582 177.536 112.937 177.536C112.291 177.536 111.795 177.791 111.447 178.3C111.1 178.81 110.926 179.501 110.926 180.374C110.926 181.235 111.1 181.92 111.447 182.43ZM116.624 183.903C115.693 184.837 114.47 185.304 112.956 185.304C111.441 185.304 110.212 184.837 109.269 183.903C108.325 182.969 107.853 181.793 107.853 180.374C107.853 178.955 108.325 177.779 109.269 176.845C110.212 175.911 111.441 175.445 112.956 175.445C114.47 175.445 115.693 175.911 116.624 176.845C117.567 177.779 118.039 178.955 118.039 180.374C118.039 181.793 117.567 182.969 116.624 183.903Z" fill="#272637"/>
<path d="M119.591 185.013V177.591H118.362V175.699H119.591V175.026C119.591 174.092 119.851 173.371 120.373 172.862C121.13 172.134 122.477 171.867 124.413 172.061V174.153C123.768 174.129 123.309 174.183 123.036 174.317C122.762 174.45 122.626 174.759 122.626 175.245V175.699H124.413V177.591H122.626V185.013H119.591Z" fill="#272637"/>
<path d="M133.182 185.304C131.68 185.304 130.439 184.958 129.458 184.267C128.49 183.576 127.931 182.581 127.782 181.284H130.854C130.954 181.793 131.208 182.187 131.618 182.466C132.027 182.733 132.524 182.866 133.107 182.866C133.741 182.866 134.243 182.672 134.616 182.284C134.988 181.884 135.174 181.368 135.174 180.738C135.174 180.107 134.982 179.61 134.597 179.246C134.212 178.87 133.71 178.682 133.089 178.682C132.282 178.682 131.674 178.937 131.264 179.446H128.322L129.625 172.552H137.539V175.008H131.879L131.432 177.227H131.469C132.027 176.73 132.853 176.481 133.945 176.481C135.199 176.481 136.242 176.876 137.074 177.664C137.918 178.44 138.34 179.471 138.34 180.756C138.34 182.126 137.862 183.23 136.906 184.067C135.963 184.891 134.721 185.304 133.182 185.304Z" fill="#272637"/>
<path d="M139.393 188.269V187.013C139.84 186.892 140.193 186.656 140.454 186.304C140.715 185.952 140.845 185.522 140.845 185.013H139.355V181.957H142.54V184.776C142.54 185.831 142.248 186.662 141.664 187.268C141.081 187.874 140.324 188.208 139.393 188.269Z" fill="#272637"/>
<path d="M148.84 185.304C147.238 185.304 145.947 184.958 144.967 184.267C143.986 183.563 143.496 182.624 143.496 181.447C143.496 180.744 143.688 180.125 144.073 179.592C144.47 179.046 145.016 178.628 145.712 178.337V178.282C144.582 177.749 144.017 176.912 144.017 175.772C144.017 174.729 144.452 173.892 145.321 173.262C146.189 172.619 147.356 172.298 148.821 172.298C150.298 172.298 151.465 172.607 152.322 173.225C153.178 173.832 153.607 174.662 153.607 175.717C153.607 176.797 153.048 177.627 151.931 178.209V178.264C152.638 178.531 153.185 178.937 153.569 179.483C153.954 180.028 154.147 180.659 154.147 181.375C154.147 182.575 153.656 183.533 152.676 184.249C151.707 184.952 150.429 185.304 148.84 185.304ZM148.821 183.03C149.479 183.03 150.007 182.866 150.404 182.539C150.814 182.211 151.018 181.781 151.018 181.247C151.018 180.689 150.82 180.241 150.423 179.901C150.038 179.562 149.51 179.392 148.84 179.392C148.182 179.392 147.642 179.562 147.22 179.901C146.81 180.241 146.605 180.689 146.605 181.247C146.605 181.793 146.804 182.229 147.201 182.557C147.611 182.872 148.151 183.03 148.821 183.03ZM147.425 177.027C147.76 177.306 148.219 177.445 148.803 177.445C149.386 177.445 149.845 177.306 150.18 177.027C150.528 176.736 150.702 176.366 150.702 175.918C150.702 175.469 150.528 175.105 150.18 174.826C149.845 174.547 149.386 174.408 148.803 174.408C148.219 174.408 147.76 174.547 147.425 174.826C147.089 175.105 146.922 175.469 146.922 175.918C146.922 176.366 147.089 176.736 147.425 177.027Z" fill="#272637"/>
<path d="M160.369 185.304C158.767 185.304 157.476 184.958 156.495 184.267C155.515 183.563 155.024 182.624 155.024 181.447C155.024 180.744 155.217 180.125 155.602 179.592C155.999 179.046 156.545 178.628 157.24 178.337V178.282C156.111 177.749 155.546 176.912 155.546 175.772C155.546 174.729 155.98 173.892 156.849 173.262C157.718 172.619 158.885 172.298 160.35 172.298C161.827 172.298 162.994 172.607 163.851 173.225C164.707 173.832 165.135 174.662 165.135 175.717C165.135 176.797 164.577 177.627 163.46 178.209V178.264C164.167 178.531 164.713 178.937 165.098 179.483C165.483 180.028 165.675 180.659 165.675 181.375C165.675 182.575 165.185 183.533 164.204 184.249C163.236 184.952 161.958 185.304 160.369 185.304ZM160.35 183.03C161.008 183.03 161.535 182.866 161.933 182.539C162.342 182.211 162.547 181.781 162.547 181.247C162.547 180.689 162.349 180.241 161.951 179.901C161.566 179.562 161.039 179.392 160.369 179.392C159.711 179.392 159.171 179.562 158.749 179.901C158.339 180.241 158.134 180.689 158.134 181.247C158.134 181.793 158.333 182.229 158.73 182.557C159.14 182.872 159.68 183.03 160.35 183.03ZM158.953 177.027C159.289 177.306 159.748 177.445 160.331 177.445C160.915 177.445 161.374 177.306 161.709 177.027C162.057 176.736 162.231 176.366 162.231 175.918C162.231 175.469 162.057 175.105 161.709 174.826C161.374 174.547 160.915 174.408 160.331 174.408C159.748 174.408 159.289 174.547 158.953 174.826C158.618 175.105 158.451 175.469 158.451 175.918C158.451 176.366 158.618 176.736 158.953 177.027Z" fill="#272637"/>
<path d="M171.55 185.304C170.197 185.304 169.098 185 168.254 184.394C167.41 183.776 166.895 182.951 166.709 181.92H169.688C169.924 182.708 170.52 183.103 171.476 183.103C172.208 183.103 172.76 182.866 173.133 182.393C173.58 181.872 173.822 181.047 173.859 179.919H173.822C173.052 180.732 172.102 181.138 170.973 181.138C169.657 181.138 168.552 180.732 167.658 179.919C166.765 179.107 166.318 178.046 166.318 176.736C166.318 175.414 166.796 174.347 167.751 173.535C168.72 172.71 169.955 172.298 171.457 172.298C173.083 172.298 174.362 172.765 175.293 173.698C176.41 174.753 176.969 176.421 176.969 178.701C176.969 180.799 176.528 182.411 175.647 183.539C174.716 184.715 173.35 185.304 171.55 185.304ZM171.531 178.882C172.189 178.882 172.729 178.682 173.151 178.282C173.586 177.882 173.803 177.367 173.803 176.736C173.803 176.106 173.586 175.59 173.151 175.19C172.729 174.778 172.189 174.571 171.531 174.571C170.874 174.571 170.334 174.778 169.911 175.19C169.502 175.59 169.297 176.099 169.297 176.718C169.297 177.348 169.496 177.87 169.893 178.282C170.302 178.682 170.849 178.882 171.531 178.882Z" fill="#272637"/>
<path d="M181.223 185.013V172.007H184.537L188.485 178.537L189.397 180.192H189.434C189.41 179.149 189.397 178.476 189.397 178.173V172.007H192.618V185.013H189.304L185.394 178.573L184.444 176.827H184.407C184.432 177.943 184.444 178.652 184.444 178.955V185.013H181.223Z" fill="#272637"/>
<path d="M194.443 185.013V172.007H204.349V174.717H197.738V177.355H203.269V179.956H197.738V185.013H194.443Z" fill="#272637"/>
<path d="M209.103 185.013V174.735H205.23V172.007H216.309V174.735H212.399V185.013H209.103Z" fill="#272637"/>
<path d="M219.555 185.304C218.164 185.304 217.053 185.013 216.222 184.43C215.402 183.836 214.968 183.024 214.918 181.993H217.786C217.898 182.915 218.481 183.375 219.536 183.375C219.995 183.375 220.355 183.297 220.616 183.139C220.889 182.969 221.026 182.739 221.026 182.448C221.026 182.351 221.013 182.266 220.989 182.193C220.964 182.12 220.92 182.054 220.858 181.993C220.796 181.932 220.734 181.878 220.672 181.829C220.622 181.781 220.542 181.738 220.43 181.702C220.318 181.653 220.219 181.617 220.132 181.593C220.058 181.569 219.94 181.544 219.778 181.52C219.629 181.484 219.511 181.459 219.424 181.447C219.338 181.423 219.201 181.399 219.015 181.375C218.829 181.338 218.692 181.314 218.605 181.302C218.208 181.241 217.873 181.18 217.6 181.12C217.327 181.047 217.022 180.938 216.687 180.792C216.364 180.647 216.098 180.483 215.887 180.301C215.688 180.107 215.52 179.853 215.384 179.537C215.247 179.21 215.179 178.834 215.179 178.41C215.179 177.464 215.57 176.73 216.352 176.209C217.134 175.687 218.115 175.426 219.294 175.426C220.622 175.426 221.653 175.693 222.385 176.227C223.117 176.748 223.521 177.476 223.595 178.41H220.802C220.703 177.682 220.194 177.318 219.275 177.318C218.878 177.318 218.555 177.391 218.307 177.536C218.071 177.682 217.953 177.894 217.953 178.173C217.953 178.246 217.966 178.313 217.991 178.373C218.015 178.434 218.053 178.488 218.102 178.537C218.164 178.585 218.22 178.628 218.27 178.664C218.332 178.701 218.413 178.737 218.512 178.773C218.611 178.81 218.698 178.84 218.773 178.864C218.86 178.889 218.971 178.913 219.108 178.937C219.257 178.961 219.375 178.986 219.462 179.01C219.561 179.022 219.691 179.046 219.853 179.083C220.014 179.107 220.144 179.125 220.244 179.137C220.666 179.21 221.013 179.277 221.286 179.337C221.56 179.398 221.876 179.507 222.236 179.665C222.609 179.81 222.9 179.986 223.111 180.192C223.322 180.386 223.502 180.659 223.651 181.011C223.813 181.35 223.893 181.75 223.893 182.211C223.893 183.206 223.49 183.97 222.683 184.503C221.889 185.037 220.846 185.304 219.555 185.304Z" fill="#272637"/>
<path d="M230.935 182.43C231.283 182.939 231.779 183.194 232.425 183.194C233.07 183.194 233.567 182.939 233.915 182.43C234.275 181.92 234.455 181.235 234.455 180.374C234.455 179.513 234.275 178.828 233.915 178.319C233.567 177.797 233.07 177.536 232.425 177.536C231.779 177.536 231.283 177.791 230.935 178.3C230.588 178.81 230.414 179.501 230.414 180.374C230.414 181.235 230.588 181.92 230.935 182.43ZM236.112 183.903C235.181 184.837 233.958 185.304 232.444 185.304C230.929 185.304 229.7 184.837 228.757 183.903C227.813 182.969 227.341 181.793 227.341 180.374C227.341 178.955 227.813 177.779 228.757 176.845C229.7 175.911 230.929 175.445 232.444 175.445C233.958 175.445 235.181 175.911 236.112 176.845C237.055 177.779 237.527 178.955 237.527 180.374C237.527 181.793 237.055 182.969 236.112 183.903Z" fill="#272637"/>
<path d="M241.83 185.285C240.75 185.285 239.918 184.976 239.335 184.358C238.764 183.727 238.478 182.878 238.478 181.811V175.699H241.495V181.193C241.495 182.248 241.973 182.775 242.929 182.775C243.45 182.775 243.86 182.605 244.158 182.266C244.456 181.914 244.605 181.459 244.605 180.902V175.699H247.64V185.013H244.735V183.867H244.679C243.959 184.812 243.009 185.285 241.83 185.285Z" fill="#272637"/>
<path d="M252.88 185.122C251.911 185.122 251.16 184.934 250.627 184.558C250.105 184.17 249.845 183.503 249.845 182.557V177.555H248.578V175.699H249.845V172.752H252.805V175.699H254.537V177.555H252.805V181.92C252.805 182.26 252.892 182.496 253.066 182.63C253.252 182.763 253.519 182.83 253.867 182.83C253.966 182.83 254.096 182.83 254.258 182.83C254.419 182.818 254.512 182.812 254.537 182.812V184.976C254.189 185.073 253.637 185.122 252.88 185.122Z" fill="#272637"/>
<path d="M48.5938 204.662C48.9414 205.171 49.4379 205.426 50.0834 205.426C50.7289 205.426 51.2255 205.171 51.5731 204.662C51.9331 204.152 52.1131 203.467 52.1131 202.606C52.1131 201.745 51.9331 201.06 51.5731 200.551C51.2255 200.029 50.7289 199.769 50.0834 199.769C49.4379 199.769 48.9414 200.023 48.5938 200.533C48.2462 201.042 48.0724 201.733 48.0724 202.606C48.0724 203.467 48.2462 204.152 48.5938 204.662ZM53.7703 206.135C52.8393 207.069 51.6165 207.536 50.102 207.536C48.5876 207.536 47.3586 207.069 46.4152 206.135C45.4717 205.201 45 204.025 45 202.606C45 201.187 45.4717 200.011 46.4152 199.077C47.3586 198.144 48.5876 197.677 50.102 197.677C51.6165 197.677 52.8393 198.144 53.7703 199.077C54.7137 200.011 55.1854 201.187 55.1854 202.606C55.1854 204.025 54.7137 205.201 53.7703 206.135Z" fill="#272637"/>
<path d="M56.7372 207.245V199.823H55.5083V197.931H56.7372V197.258C56.7372 196.325 56.9979 195.603 57.5193 195.094C58.2765 194.366 59.6234 194.099 61.5599 194.293V196.385C60.9144 196.361 60.4551 196.416 60.182 196.549C59.9089 196.682 59.7724 196.992 59.7724 197.477V197.931H61.5599V199.823H59.7724V207.245H56.7372Z" fill="#272637"/>
<path d="M67.9078 207.245V199.277H65.1706V197.204C66.0644 197.18 66.8154 196.955 67.4237 196.531C68.0319 196.106 68.4106 195.488 68.5595 194.675H71.0547V207.245H67.9078Z" fill="#272637"/>
<path d="M78.34 205.135C79.9413 205.135 80.742 203.764 80.742 201.024C80.742 199.75 80.5434 198.744 80.1462 198.004C79.7613 197.264 79.1593 196.895 78.34 196.895C77.5207 196.895 76.9124 197.264 76.5152 198.004C76.1179 198.732 75.9193 199.738 75.9193 201.024C75.9193 202.309 76.1179 203.316 76.5152 204.043C76.9124 204.771 77.5207 205.135 78.34 205.135ZM78.3214 207.536C76.6455 207.536 75.2862 206.941 74.2434 205.753C73.2131 204.565 72.6979 202.988 72.6979 201.024C72.6979 199.047 73.2131 197.471 74.2434 196.294C75.2862 195.106 76.6517 194.512 78.34 194.512C80.0531 194.512 81.4186 195.106 82.4365 196.294C83.4668 197.471 83.982 199.047 83.982 201.024C83.982 203 83.4606 204.583 82.4179 205.771C81.3875 206.948 80.022 207.536 78.3214 207.536Z" fill="#272637"/>
<path d="M84.7766 210.501V209.246C85.2235 209.124 85.5773 208.888 85.8379 208.536C86.0986 208.184 86.229 207.754 86.229 207.245H84.7393V204.189H87.9234V207.008C87.9234 208.063 87.6317 208.894 87.0483 209.5C86.4648 210.107 85.7076 210.44 84.7766 210.501Z" fill="#272637"/>
<path d="M94.342 205.135C95.9434 205.135 96.7441 203.764 96.7441 201.024C96.7441 199.75 96.5455 198.744 96.1482 198.004C95.7634 197.264 95.1613 196.895 94.342 196.895C93.5227 196.895 92.9144 197.264 92.5172 198.004C92.12 198.732 91.9213 199.738 91.9213 201.024C91.9213 202.309 92.12 203.316 92.5172 204.043C92.9144 204.771 93.5227 205.135 94.342 205.135ZM94.3234 207.536C92.6475 207.536 91.2882 206.941 90.2455 205.753C89.2152 204.565 88.7 202.988 88.7 201.024C88.7 199.047 89.2152 197.471 90.2455 196.294C91.2882 195.106 92.6538 194.512 94.342 194.512C96.0551 194.512 97.4206 195.106 98.4385 196.294C99.4689 197.471 99.9841 199.047 99.9841 201.024C99.9841 203 99.4627 204.583 98.4199 205.771C97.3896 206.948 96.0241 207.536 94.3234 207.536Z" fill="#272637"/>
<path d="M106.507 205.135C108.109 205.135 108.909 203.764 108.909 201.024C108.909 199.75 108.711 198.744 108.313 198.004C107.929 197.264 107.327 196.895 106.507 196.895C105.688 196.895 105.08 197.264 104.682 198.004C104.285 198.732 104.087 199.738 104.087 201.024C104.087 202.309 104.285 203.316 104.682 204.043C105.08 204.771 105.688 205.135 106.507 205.135ZM106.489 207.536C104.813 207.536 103.453 206.941 102.411 205.753C101.38 204.565 100.865 202.988 100.865 201.024C100.865 199.047 101.38 197.471 102.411 196.294C103.453 195.106 104.819 194.512 106.507 194.512C108.22 194.512 109.586 195.106 110.604 196.294C111.634 197.471 112.149 199.047 112.149 201.024C112.149 203 111.628 204.583 110.585 205.771C109.555 206.948 108.189 207.536 106.489 207.536Z" fill="#272637"/>
<path d="M118.672 205.135C120.274 205.135 121.074 203.764 121.074 201.024C121.074 199.75 120.876 198.744 120.479 198.004C120.094 197.264 119.492 196.895 118.672 196.895C117.853 196.895 117.245 197.264 116.848 198.004C116.45 198.732 116.252 199.738 116.252 201.024C116.252 202.309 116.45 203.316 116.848 204.043C117.245 204.771 117.853 205.135 118.672 205.135ZM118.654 207.536C116.978 207.536 115.619 206.941 114.576 205.753C113.546 204.565 113.03 202.988 113.03 201.024C113.03 199.047 113.546 197.471 114.576 196.294C115.619 195.106 116.984 194.512 118.672 194.512C120.385 194.512 121.751 195.106 122.769 196.294C123.799 197.471 124.314 199.047 124.314 201.024C124.314 203 123.793 204.583 122.75 205.771C121.72 206.948 120.354 207.536 118.654 207.536Z" fill="#272637"/>
<path d="M130.526 207.245L127.603 197.931H130.694L131.736 201.788L132.165 203.588H132.202C132.351 202.873 132.494 202.255 132.63 201.733L133.636 197.931H136.205L137.248 201.733L137.695 203.607H137.732C137.894 202.891 138.043 202.285 138.179 201.788L139.241 197.931H142.238L139.315 207.245H136.466L135.349 203.025L134.939 201.351H134.902C134.753 201.982 134.61 202.54 134.474 203.025L133.338 207.245H130.526Z" fill="#272637"/>
<path d="M142.95 207.245V197.931H145.985V207.245H142.95ZM142.95 196.64V194.239H145.985V196.64H142.95Z" fill="#272637"/>
<path d="M147.46 207.245V194.239H150.532V207.245H147.46Z" fill="#272637"/>
<path d="M152.024 207.245V194.239H155.097V207.245H152.024Z" fill="#272637"/>
<path d="M165.289 207.536C163.973 207.536 163.011 207.045 162.403 206.062H162.366V207.245H159.461V194.239H162.496V198.986H162.552C163.21 198.101 164.116 197.659 165.271 197.659C166.487 197.659 167.468 198.125 168.213 199.059C168.97 199.993 169.349 201.169 169.349 202.588C169.349 204.128 168.982 205.341 168.25 206.226C167.518 207.099 166.531 207.536 165.289 207.536ZM164.433 205.189C165.016 205.189 165.469 204.959 165.792 204.498C166.115 204.037 166.276 203.394 166.276 202.57C166.276 201.757 166.115 201.115 165.792 200.642C165.469 200.157 165.004 199.914 164.395 199.914C163.75 199.914 163.253 200.163 162.906 200.66C162.571 201.145 162.403 201.788 162.403 202.588C162.403 203.364 162.583 203.995 162.943 204.48C163.315 204.953 163.812 205.189 164.433 205.189Z" fill="#272637"/>
<path d="M175.027 207.518C173.487 207.518 172.252 207.057 171.321 206.135C170.403 205.201 169.943 204.013 169.943 202.57C169.943 201.163 170.396 199.993 171.303 199.059C172.221 198.125 173.4 197.659 174.84 197.659C176.144 197.659 177.23 198.047 178.099 198.823C179.241 199.841 179.8 201.351 179.775 203.352H172.923C173.022 203.995 173.251 204.498 173.611 204.862C173.971 205.213 174.456 205.389 175.064 205.389C175.846 205.389 176.374 205.08 176.647 204.462H179.607C179.384 205.359 178.85 206.093 178.006 206.663C177.174 207.233 176.181 207.518 175.027 207.518ZM172.941 201.588H176.703C176.653 201.03 176.46 200.587 176.125 200.26C175.803 199.932 175.393 199.769 174.896 199.769C173.816 199.769 173.165 200.375 172.941 201.588Z" fill="#272637"/>
<path d="M183.682 207.245V197.931H186.587V199.387H186.643C187.288 198.319 188.157 197.786 189.25 197.786C189.535 197.786 189.734 197.81 189.846 197.859V200.405H189.771C188.828 200.272 188.083 200.436 187.537 200.896C186.991 201.345 186.717 202.067 186.717 203.061V207.245H183.682Z" fill="#272637"/>
<path d="M195.284 207.518C193.744 207.518 192.509 207.057 191.578 206.135C190.66 205.201 190.2 204.013 190.2 202.57C190.2 201.163 190.653 199.993 191.56 199.059C192.478 198.125 193.658 197.659 195.098 197.659C196.401 197.659 197.487 198.047 198.356 198.823C199.498 199.841 200.057 201.351 200.032 203.352H193.18C193.279 203.995 193.509 204.498 193.869 204.862C194.229 205.213 194.713 205.389 195.321 205.389C196.103 205.389 196.631 205.08 196.904 204.462H199.864C199.641 205.359 199.107 206.093 198.263 206.663C197.431 207.233 196.438 207.518 195.284 207.518ZM193.198 201.588H196.96C196.91 201.03 196.718 200.587 196.382 200.26C196.06 199.932 195.65 199.769 195.153 199.769C194.073 199.769 193.422 200.375 193.198 201.588Z" fill="#272637"/>
<path d="M201.067 207.245V194.239H204.139V207.245H201.067Z" fill="#272637"/>
<path d="M210.268 207.518C208.728 207.518 207.493 207.057 206.562 206.135C205.643 205.201 205.184 204.013 205.184 202.57C205.184 201.163 205.637 199.993 206.543 199.059C207.462 198.125 208.641 197.659 210.081 197.659C211.385 197.659 212.471 198.047 213.34 198.823C214.482 199.841 215.041 201.351 215.016 203.352H208.163C208.263 203.995 208.492 204.498 208.852 204.862C209.212 205.213 209.697 205.389 210.305 205.389C211.087 205.389 211.614 205.08 211.888 204.462H214.848C214.625 205.359 214.091 206.093 213.247 206.663C212.415 207.233 211.422 207.518 210.268 207.518ZM208.182 201.588H211.943C211.894 201.03 211.701 200.587 211.366 200.26C211.043 199.932 210.634 199.769 210.137 199.769C209.057 199.769 208.405 200.375 208.182 201.588Z" fill="#272637"/>
<path d="M218.844 207.481C217.863 207.481 217.075 207.233 216.479 206.735C215.883 206.238 215.585 205.541 215.585 204.643C215.585 203.698 215.908 203.012 216.553 202.588C217.199 202.151 218.093 201.86 219.235 201.715C220.166 201.606 220.799 201.485 221.134 201.351C221.482 201.206 221.655 200.981 221.655 200.678C221.655 200.011 221.221 199.678 220.352 199.678C219.421 199.678 218.906 200.078 218.806 200.878H216.013C216.051 199.957 216.435 199.193 217.168 198.586C217.913 197.98 218.968 197.677 220.333 197.677C221.699 197.677 222.729 197.931 223.424 198.441C224.231 199.011 224.635 199.896 224.635 201.096V205.789C224.635 206.529 224.746 206.972 224.97 207.117V207.245H222.028C221.904 207.075 221.798 206.729 221.711 206.208H221.674C221.066 207.057 220.122 207.481 218.844 207.481ZM219.812 205.589C220.383 205.589 220.842 205.438 221.19 205.135C221.55 204.819 221.73 204.413 221.73 203.916V202.806C221.432 202.952 220.91 203.116 220.166 203.297C219.557 203.431 219.129 203.588 218.881 203.77C218.633 203.952 218.508 204.213 218.508 204.553C218.508 205.244 218.943 205.589 219.812 205.589Z" fill="#272637"/>
<path d="M230.165 207.536C228.775 207.536 227.664 207.245 226.832 206.663C226.013 206.068 225.578 205.256 225.529 204.225H228.396C228.508 205.147 229.091 205.608 230.147 205.608C230.606 205.608 230.966 205.529 231.227 205.371C231.5 205.201 231.636 204.971 231.636 204.68C231.636 204.583 231.624 204.498 231.599 204.425C231.574 204.352 231.531 204.286 231.469 204.225C231.407 204.164 231.344 204.11 231.282 204.061C231.233 204.013 231.152 203.97 231.04 203.934C230.929 203.886 230.829 203.849 230.742 203.825C230.668 203.801 230.55 203.776 230.389 203.752C230.24 203.716 230.122 203.692 230.035 203.679C229.948 203.655 229.811 203.631 229.625 203.607C229.439 203.57 229.302 203.546 229.216 203.534C228.818 203.473 228.483 203.413 228.21 203.352C227.937 203.279 227.633 203.17 227.298 203.025C226.975 202.879 226.708 202.715 226.497 202.533C226.298 202.339 226.131 202.085 225.994 201.769C225.858 201.442 225.789 201.066 225.789 200.642C225.789 199.696 226.18 198.962 226.962 198.441C227.745 197.919 228.725 197.659 229.905 197.659C231.233 197.659 232.263 197.925 232.996 198.459C233.728 198.98 234.131 199.708 234.206 200.642H231.413C231.313 199.914 230.805 199.55 229.886 199.55C229.489 199.55 229.166 199.623 228.918 199.769C228.682 199.914 228.564 200.126 228.564 200.405C228.564 200.478 228.576 200.545 228.601 200.605C228.626 200.666 228.663 200.721 228.713 200.769C228.775 200.818 228.831 200.86 228.88 200.896C228.942 200.933 229.023 200.969 229.122 201.006C229.222 201.042 229.309 201.072 229.383 201.096C229.47 201.121 229.582 201.145 229.718 201.169C229.867 201.193 229.985 201.218 230.072 201.242C230.171 201.254 230.302 201.278 230.463 201.315C230.625 201.339 230.755 201.357 230.854 201.369C231.276 201.442 231.624 201.509 231.897 201.569C232.17 201.63 232.487 201.739 232.847 201.897C233.219 202.042 233.511 202.218 233.722 202.424C233.933 202.618 234.113 202.891 234.262 203.243C234.423 203.582 234.504 203.983 234.504 204.443C234.504 205.438 234.1 206.202 233.293 206.735C232.499 207.269 231.456 207.536 230.165 207.536Z" fill="#272637"/>
<path d="M240.235 207.518C238.696 207.518 237.461 207.057 236.529 206.135C235.611 205.201 235.152 204.013 235.152 202.57C235.152 201.163 235.605 199.993 236.511 199.059C237.43 198.125 238.609 197.659 240.049 197.659C241.352 197.659 242.438 198.047 243.307 198.823C244.449 199.841 245.008 201.351 244.983 203.352H238.131C238.23 203.995 238.46 204.498 238.82 204.862C239.18 205.213 239.664 205.389 240.272 205.389C241.054 205.389 241.582 205.08 241.855 204.462H244.816C244.592 205.359 244.058 206.093 243.214 206.663C242.383 207.233 241.389 207.518 240.235 207.518ZM238.15 201.588H241.911C241.861 201.03 241.669 200.587 241.334 200.26C241.011 199.932 240.601 199.769 240.105 199.769C239.025 199.769 238.373 200.375 238.15 201.588Z" fill="#272637"/>
<path d="M249.742 207.536C248.501 207.536 247.495 207.093 246.726 206.208C245.956 205.323 245.571 204.116 245.571 202.588C245.571 201.133 245.956 199.95 246.726 199.041C247.508 198.119 248.513 197.659 249.742 197.659C250.884 197.659 251.772 198.101 252.405 198.986H252.461V194.239H255.496V207.245H252.591V205.99H252.554C251.933 207.02 250.996 207.536 249.742 207.536ZM250.524 205.189C251.145 205.189 251.635 204.953 251.995 204.48C252.355 203.995 252.535 203.364 252.535 202.588C252.535 201.776 252.368 201.127 252.032 200.642C251.697 200.145 251.207 199.896 250.561 199.896C249.966 199.896 249.494 200.138 249.146 200.624C248.811 201.109 248.643 201.751 248.643 202.552C248.643 203.364 248.811 204.007 249.146 204.48C249.481 204.953 249.941 205.189 250.524 205.189Z" fill="#272637"/>
<path d="M256.816 207.245V204.189H260V207.245H256.816Z" fill="#272637"/>
<path d="M58.4008 229.477V224.675L53.8946 216.471H57.4884L59.2015 219.836L60.0766 221.819H60.1139C60.4242 221.091 60.7283 220.43 61.0263 219.836L62.7207 216.471H66.2028L61.6966 224.675V229.477H58.4008Z" fill="#272637"/>
<path d="M67.969 226.894C68.3166 227.403 68.8131 227.658 69.4586 227.658C70.1041 227.658 70.6007 227.403 70.9483 226.894C71.3083 226.385 71.4883 225.699 71.4883 224.838C71.4883 223.977 71.3083 223.292 70.9483 222.783C70.6007 222.261 70.1041 222.001 69.4586 222.001C68.8131 222.001 68.3166 222.255 67.969 222.765C67.6214 223.274 67.4476 223.965 67.4476 224.838C67.4476 225.699 67.6214 226.385 67.969 226.894ZM73.1455 228.367C72.2145 229.301 70.9917 229.768 69.4772 229.768C67.9628 229.768 66.7338 229.301 65.7904 228.367C64.8469 227.433 64.3752 226.257 64.3752 224.838C64.3752 223.42 64.8469 222.243 65.7904 221.31C66.7338 220.376 67.9628 219.909 69.4772 219.909C70.9917 219.909 72.2145 220.376 73.1455 221.31C74.0889 222.243 74.5606 223.42 74.5606 224.838C74.5606 226.257 74.0889 227.433 73.1455 228.367Z" fill="#272637"/>
<path d="M78.8639 229.75C77.7839 229.75 76.9522 229.44 76.3687 228.822C75.7977 228.191 75.5122 227.343 75.5122 226.275V220.164H78.5287V225.657C78.5287 226.712 79.0066 227.239 79.9625 227.239C80.4839 227.239 80.8935 227.07 81.1915 226.73C81.4894 226.378 81.6384 225.924 81.6384 225.366V220.164H84.6735V229.477H81.7687V228.331H81.7128C80.9928 229.277 80.0432 229.75 78.8639 229.75Z" fill="#272637"/>
<path d="M93.6613 229.768C92.1468 229.768 90.924 229.301 89.993 228.367C89.062 227.433 88.5965 226.257 88.5965 224.838C88.5965 223.42 89.0558 222.243 89.9744 221.31C90.893 220.376 92.0971 219.909 93.5868 219.909C94.853 219.909 95.8895 220.236 96.6964 220.891C97.5033 221.546 97.975 222.407 98.1116 223.474H95.1882C94.9771 222.553 94.4558 222.092 93.624 222.092C92.9785 222.092 92.4882 222.334 92.153 222.819C91.8303 223.304 91.6689 223.977 91.6689 224.838C91.6689 225.687 91.8365 226.354 92.1716 226.839C92.5068 227.312 92.9909 227.549 93.624 227.549C94.5923 227.549 95.1447 227.015 95.2813 225.948H98.1861C98.1488 227.051 97.7144 227.967 96.8826 228.695C96.0633 229.41 94.9895 229.768 93.6613 229.768Z" fill="#272637"/>
<path d="M102.147 229.713C101.166 229.713 100.378 229.465 99.7821 228.967C99.1862 228.47 98.8883 227.773 98.8883 226.876C98.8883 225.93 99.211 225.245 99.8565 224.82C100.502 224.384 101.396 224.093 102.538 223.947C103.469 223.838 104.102 223.717 104.437 223.583C104.785 223.438 104.959 223.213 104.959 222.91C104.959 222.243 104.524 221.91 103.655 221.91C102.724 221.91 102.209 222.31 102.11 223.11H99.3165C99.3538 222.189 99.7386 221.425 100.471 220.818C101.216 220.212 102.271 219.909 103.637 219.909C105.002 219.909 106.032 220.164 106.728 220.673C107.534 221.243 107.938 222.128 107.938 223.329V228.022C107.938 228.761 108.05 229.204 108.273 229.349V229.477H105.331C105.207 229.307 105.101 228.961 105.014 228.44H104.977C104.369 229.289 103.425 229.713 102.147 229.713ZM103.115 227.822C103.686 227.822 104.145 227.67 104.493 227.367C104.853 227.051 105.033 226.645 105.033 226.148V225.038C104.735 225.184 104.214 225.348 103.469 225.53C102.861 225.663 102.432 225.821 102.184 226.003C101.936 226.184 101.812 226.445 101.812 226.785C101.812 227.476 102.246 227.822 103.115 227.822Z" fill="#272637"/>
<path d="M109.409 229.477V220.164H112.333V221.437H112.388C113.121 220.406 114.102 219.891 115.331 219.891C116.361 219.891 117.168 220.218 117.751 220.873C118.347 221.516 118.645 222.365 118.645 223.42V229.477H115.61V224.02C115.61 223.511 115.479 223.11 115.219 222.819C114.971 222.516 114.604 222.365 114.12 222.365C113.624 222.365 113.22 222.546 112.91 222.91C112.6 223.274 112.444 223.747 112.444 224.329V229.477H109.409Z" fill="#272637"/>
<path d="M128.748 229.768C127.432 229.768 126.47 229.277 125.862 228.294H125.825V229.477H122.92V216.471H125.955V221.219H126.011C126.669 220.333 127.575 219.891 128.73 219.891C129.946 219.891 130.927 220.358 131.672 221.291C132.429 222.225 132.808 223.401 132.808 224.82C132.808 226.36 132.441 227.573 131.709 228.458C130.976 229.331 129.99 229.768 128.748 229.768ZM127.892 227.421C128.475 227.421 128.928 227.191 129.251 226.73C129.574 226.269 129.735 225.627 129.735 224.802C129.735 223.99 129.574 223.347 129.251 222.874C128.928 222.389 128.463 222.146 127.854 222.146C127.209 222.146 126.712 222.395 126.365 222.892C126.03 223.377 125.862 224.02 125.862 224.82C125.862 225.596 126.042 226.227 126.402 226.712C126.774 227.185 127.271 227.421 127.892 227.421Z" fill="#272637"/>
<path d="M137.108 229.75C136.028 229.75 135.196 229.44 134.613 228.822C134.042 228.191 133.756 227.343 133.756 226.275V220.164H136.773V225.657C136.773 226.712 137.25 227.239 138.206 227.239C138.728 227.239 139.137 227.07 139.435 226.73C139.733 226.378 139.882 225.924 139.882 225.366V220.164H142.917V229.477H140.013V228.331H139.957C139.237 229.277 138.287 229.75 137.108 229.75Z" fill="#272637"/>
<path d="M144.694 232.551V230.241H145.737C146.568 230.241 146.984 229.913 146.984 229.259C146.984 228.943 146.792 228.301 146.407 227.33L143.595 220.164H146.798L148.083 224.129L148.679 226.275H148.716C148.89 225.451 149.076 224.735 149.274 224.129L150.522 220.164H153.557L150.261 229.604C149.877 230.696 149.417 231.46 148.883 231.896C148.362 232.333 147.623 232.551 146.668 232.551H144.694Z" fill="#272637"/>
<path d="M157.124 229.477V220.164H160.16V229.477H157.124ZM157.124 218.872V216.471H160.16V218.872H157.124Z" fill="#272637"/>
<path d="M165.396 229.586C164.428 229.586 163.677 229.398 163.143 229.022C162.621 228.634 162.361 227.967 162.361 227.021V222.019H161.094V220.164H162.361V217.217H165.321V220.164H167.053V222.019H165.321V226.385C165.321 226.724 165.408 226.961 165.582 227.094C165.768 227.227 166.035 227.294 166.383 227.294C166.482 227.294 166.612 227.294 166.774 227.294C166.935 227.282 167.028 227.276 167.053 227.276V229.44C166.705 229.537 166.153 229.586 165.396 229.586Z" fill="#272637"/>
<path d="M171.035 229.477V220.164H173.94V221.619H173.996C174.641 220.552 175.51 220.018 176.603 220.018C176.888 220.018 177.087 220.042 177.199 220.091V222.637H177.124C176.181 222.504 175.436 222.668 174.89 223.129C174.343 223.577 174.07 224.299 174.07 225.293V229.477H171.035Z" fill="#272637"/>
<path d="M178.163 229.477V220.164H181.199V229.477H178.163ZM178.163 218.872V216.471H181.199V218.872H178.163Z" fill="#272637"/>
<path d="M187.087 232.696C185.758 232.696 184.685 232.436 183.865 231.914C183.058 231.405 182.58 230.665 182.431 229.695H185.374C185.585 230.301 186.143 230.605 187.049 230.605C188.266 230.605 188.874 230.01 188.874 228.822V227.894H188.8C188.154 228.61 187.341 228.967 186.36 228.967C185.218 228.967 184.244 228.573 183.437 227.785C182.63 226.997 182.227 225.918 182.227 224.547C182.227 223.177 182.599 222.061 183.344 221.2C184.089 220.327 185.051 219.891 186.23 219.891C187.409 219.891 188.303 220.315 188.911 221.164H188.949V220.164H191.853V228.567C191.853 229.889 191.431 230.92 190.587 231.66C189.793 232.351 188.626 232.696 187.087 232.696ZM187.068 226.767C187.701 226.767 188.179 226.554 188.502 226.13C188.837 225.693 189.005 225.129 189.005 224.438C189.005 223.783 188.831 223.238 188.483 222.801C188.148 222.352 187.676 222.128 187.068 222.128C186.497 222.128 186.038 222.34 185.69 222.765C185.355 223.189 185.187 223.753 185.187 224.456C185.187 225.16 185.355 225.724 185.69 226.148C186.038 226.56 186.497 226.767 187.068 226.767Z" fill="#272637"/>
<path d="M193.311 229.477V216.471H196.346V221.31H196.402C197.134 220.364 198.078 219.891 199.232 219.891C200.262 219.891 201.069 220.218 201.653 220.873C202.249 221.516 202.547 222.365 202.547 223.42V229.477H199.511V224.02C199.511 223.511 199.381 223.11 199.12 222.819C198.872 222.516 198.506 222.365 198.022 222.365C197.525 222.365 197.122 222.546 196.811 222.91C196.501 223.274 196.346 223.747 196.346 224.329V229.477H193.311Z" fill="#272637"/>
<path d="M207.528 229.586C206.56 229.586 205.809 229.398 205.275 229.022C204.754 228.634 204.493 227.967 204.493 227.021V222.019H203.227V220.164H204.493V217.217H207.454V220.164H209.186V222.019H207.454V226.385C207.454 226.724 207.541 226.961 207.715 227.094C207.901 227.227 208.168 227.294 208.515 227.294C208.615 227.294 208.745 227.294 208.906 227.294C209.068 227.282 209.161 227.276 209.186 227.276V229.44C208.838 229.537 208.286 229.586 207.528 229.586Z" fill="#272637"/>
<path d="M213.168 229.477V220.164H216.091V221.437H216.147C216.88 220.406 217.86 219.891 219.089 219.891C220.12 219.891 220.926 220.218 221.51 220.873C222.106 221.516 222.404 222.365 222.404 223.42V229.477H219.369V224.02C219.369 223.511 219.238 223.11 218.978 222.819C218.729 222.516 218.363 222.365 217.879 222.365C217.382 222.365 216.979 222.546 216.669 222.91C216.358 223.274 216.203 223.747 216.203 224.329V229.477H213.168Z" fill="#272637"/>
<path d="M226.953 226.894C227.301 227.403 227.797 227.658 228.443 227.658C229.088 227.658 229.585 227.403 229.932 226.894C230.292 226.385 230.472 225.699 230.472 224.838C230.472 223.977 230.292 223.292 229.932 222.783C229.585 222.261 229.088 222.001 228.443 222.001C227.797 222.001 227.301 222.255 226.953 222.765C226.605 223.274 226.432 223.965 226.432 224.838C226.432 225.699 226.605 226.385 226.953 226.894ZM232.129 228.367C231.198 229.301 229.976 229.768 228.461 229.768C226.947 229.768 225.718 229.301 224.774 228.367C223.831 227.433 223.359 226.257 223.359 224.838C223.359 223.42 223.831 222.243 224.774 221.31C225.718 220.376 226.947 219.909 228.461 219.909C229.976 219.909 231.198 220.376 232.129 221.31C233.073 222.243 233.545 223.42 233.545 224.838C233.545 226.257 233.073 227.433 232.129 228.367Z" fill="#272637"/>
<path d="M236.367 229.477L233.444 220.164H236.535L237.577 224.02L238.006 225.821H238.043C238.192 225.105 238.335 224.487 238.471 223.965L239.477 220.164H242.046L243.089 223.965L243.536 225.839H243.573C243.734 225.123 243.883 224.517 244.02 224.02L245.081 220.164H248.079L245.156 229.477H242.307L241.19 225.257L240.78 223.583H240.743C240.594 224.214 240.451 224.772 240.314 225.257L239.179 229.477H236.367Z" fill="#272637"/>
<path d="M247.642 229.477V226.421H250.826V229.477H247.642Z" fill="#272637"/>
<path d="M80.0789 251.709L84.8644 238.703H88.2533L93.0574 251.709H89.594L88.8119 249.362H84.1568L83.3933 251.709H80.0789ZM84.9202 247.052H88.0485L87.043 243.905L86.5216 242.068H86.4844C86.2733 242.844 86.0933 243.457 85.9444 243.905L84.9202 247.052Z" fill="#272637"/>
<path d="M95.2117 251.709L91.9159 242.396H95.0441L96.3476 246.598L96.869 248.471H96.9062C97.0676 247.841 97.2414 247.216 97.4276 246.598L98.7496 242.396H101.785L98.4889 251.709H95.2117Z" fill="#272637"/>
<path d="M104.911 251.945C103.93 251.945 103.142 251.697 102.546 251.2C101.95 250.702 101.652 250.005 101.652 249.108C101.652 248.162 101.975 247.477 102.621 247.052C103.266 246.616 104.16 246.325 105.302 246.179C106.233 246.07 106.866 245.949 107.201 245.815C107.549 245.67 107.723 245.446 107.723 245.142C107.723 244.475 107.288 244.142 106.419 244.142C105.488 244.142 104.973 244.542 104.874 245.342H102.081C102.118 244.421 102.503 243.657 103.235 243.051C103.98 242.444 105.035 242.141 106.401 242.141C107.766 242.141 108.796 242.396 109.492 242.905C110.298 243.475 110.702 244.36 110.702 245.561V250.254C110.702 250.993 110.814 251.436 111.037 251.582V251.709H108.095C107.971 251.539 107.865 251.194 107.778 250.672H107.741C107.133 251.521 106.189 251.945 104.911 251.945ZM105.879 250.054C106.45 250.054 106.909 249.902 107.257 249.599C107.617 249.284 107.797 248.877 107.797 248.38V247.271C107.499 247.416 106.978 247.58 106.233 247.762C105.625 247.895 105.196 248.053 104.948 248.235C104.7 248.417 104.576 248.677 104.576 249.017C104.576 249.708 105.01 250.054 105.879 250.054Z" fill="#272637"/>
<path d="M112.173 251.709V242.396H115.208V251.709H112.173ZM112.173 241.104V238.703H115.208V241.104H112.173Z" fill="#272637"/>
<path d="M116.683 251.709V238.703H119.756V251.709H116.683Z" fill="#272637"/>
<path d="M124.041 251.945C123.06 251.945 122.272 251.697 121.676 251.2C121.08 250.702 120.782 250.005 120.782 249.108C120.782 248.162 121.105 247.477 121.75 247.052C122.396 246.616 123.29 246.325 124.432 246.179C125.363 246.07 125.996 245.949 126.331 245.815C126.678 245.67 126.852 245.446 126.852 245.142C126.852 244.475 126.418 244.142 125.549 244.142C124.618 244.142 124.103 244.542 124.003 245.342H121.21C121.247 244.421 121.632 243.657 122.365 243.051C123.11 242.444 124.165 242.141 125.53 242.141C126.896 242.141 127.926 242.396 128.621 242.905C129.428 243.475 129.832 244.36 129.832 245.561V250.254C129.832 250.993 129.943 251.436 130.167 251.582V251.709H127.225C127.101 251.539 126.995 251.194 126.908 250.672H126.871C126.263 251.521 125.319 251.945 124.041 251.945ZM125.009 250.054C125.58 250.054 126.039 249.902 126.387 249.599C126.747 249.284 126.927 248.877 126.927 248.38V247.271C126.629 247.416 126.107 247.58 125.363 247.762C124.754 247.895 124.326 248.053 124.078 248.235C123.83 248.417 123.705 248.677 123.705 249.017C123.705 249.708 124.14 250.054 125.009 250.054Z" fill="#272637"/>
<path d="M137.131 252C135.815 252 134.853 251.509 134.245 250.527H134.208V251.709H131.303V238.703H134.338V243.451H134.394C135.052 242.565 135.958 242.123 137.113 242.123C138.329 242.123 139.31 242.59 140.055 243.523C140.812 244.457 141.19 245.634 141.19 247.052C141.19 248.592 140.824 249.805 140.092 250.69C139.359 251.563 138.372 252 137.131 252ZM136.275 249.654C136.858 249.654 137.311 249.423 137.634 248.962C137.957 248.501 138.118 247.859 138.118 247.034C138.118 246.222 137.957 245.579 137.634 245.106C137.311 244.621 136.846 244.378 136.237 244.378C135.592 244.378 135.095 244.627 134.748 245.124C134.413 245.609 134.245 246.252 134.245 247.052C134.245 247.828 134.425 248.459 134.785 248.944C135.157 249.417 135.654 249.654 136.275 249.654Z" fill="#272637"/>
<path d="M142.232 251.709V238.703H145.304V251.709H142.232Z" fill="#272637"/>
<path d="M151.433 251.982C149.893 251.982 148.658 251.521 147.727 250.599C146.809 249.666 146.349 248.477 146.349 247.034C146.349 245.627 146.802 244.457 147.709 243.523C148.627 242.59 149.807 242.123 151.247 242.123C152.55 242.123 153.636 242.511 154.505 243.287C155.647 244.306 156.206 245.815 156.181 247.816H149.329C149.428 248.459 149.658 248.962 150.018 249.326C150.378 249.678 150.862 249.854 151.47 249.854C152.252 249.854 152.78 249.544 153.053 248.926H156.013C155.79 249.823 155.256 250.557 154.412 251.127C153.58 251.697 152.587 251.982 151.433 251.982ZM149.347 246.052H153.109C153.059 245.494 152.867 245.051 152.531 244.724C152.209 244.397 151.799 244.233 151.302 244.233C150.222 244.233 149.571 244.839 149.347 246.052Z" fill="#272637"/>
<path d="M160.796 251.709V244.287H159.567V242.396H160.796V241.723C160.796 240.789 161.057 240.067 161.578 239.558C162.335 238.83 163.682 238.564 165.619 238.758V240.85C164.973 240.825 164.514 240.88 164.241 241.013C163.968 241.147 163.831 241.456 163.831 241.941V242.396H165.619V244.287H163.831V251.709H160.796Z" fill="#272637"/>
<path d="M169.473 249.126C169.82 249.635 170.317 249.89 170.963 249.89C171.608 249.89 172.105 249.635 172.452 249.126C172.812 248.617 172.992 247.932 172.992 247.071C172.992 246.21 172.812 245.524 172.452 245.015C172.105 244.494 171.608 244.233 170.963 244.233C170.317 244.233 169.82 244.488 169.473 244.997C169.125 245.506 168.951 246.197 168.951 247.071C168.951 247.932 169.125 248.617 169.473 249.126ZM174.649 250.599C173.718 251.533 172.496 252 170.981 252C169.467 252 168.238 251.533 167.294 250.599C166.351 249.666 165.879 248.489 165.879 247.071C165.879 245.652 166.351 244.475 167.294 243.542C168.238 242.608 169.467 242.141 170.981 242.141C172.496 242.141 173.718 242.608 174.649 243.542C175.593 244.475 176.065 245.652 176.065 247.071C176.065 248.489 175.593 249.666 174.649 250.599Z" fill="#272637"/>
<path d="M177.091 251.709V242.396H179.995V243.851H180.051C180.697 242.784 181.566 242.25 182.658 242.25C182.944 242.25 183.142 242.274 183.254 242.323V244.87H183.179C182.236 244.736 181.491 244.9 180.945 245.361C180.399 245.809 180.126 246.531 180.126 247.525V251.709H177.091Z" fill="#272637"/>
<path d="M191.169 252C189.779 252 188.668 251.709 187.836 251.127C187.017 250.533 186.582 249.72 186.533 248.689H189.4C189.512 249.611 190.096 250.072 191.151 250.072C191.61 250.072 191.97 249.993 192.231 249.835C192.504 249.666 192.64 249.435 192.64 249.144C192.64 249.047 192.628 248.962 192.603 248.89C192.578 248.817 192.535 248.75 192.473 248.689C192.411 248.629 192.349 248.574 192.287 248.526C192.237 248.477 192.156 248.435 192.044 248.398C191.933 248.35 191.833 248.313 191.747 248.289C191.672 248.265 191.554 248.241 191.393 248.216C191.244 248.18 191.126 248.156 191.039 248.144C190.952 248.119 190.816 248.095 190.629 248.071C190.443 248.035 190.307 248.01 190.22 247.998C189.822 247.938 189.487 247.877 189.214 247.816C188.941 247.744 188.637 247.634 188.302 247.489C187.979 247.343 187.712 247.18 187.501 246.998C187.302 246.804 187.135 246.549 186.998 246.234C186.862 245.906 186.793 245.53 186.793 245.106C186.793 244.16 187.185 243.426 187.967 242.905C188.749 242.384 189.729 242.123 190.909 242.123C192.237 242.123 193.267 242.39 194 242.923C194.732 243.445 195.135 244.172 195.21 245.106H192.417C192.318 244.378 191.809 244.015 190.89 244.015C190.493 244.015 190.17 244.087 189.922 244.233C189.686 244.378 189.568 244.591 189.568 244.87C189.568 244.942 189.58 245.009 189.605 245.07C189.63 245.13 189.667 245.185 189.717 245.233C189.779 245.282 189.835 245.324 189.884 245.361C189.947 245.397 190.027 245.433 190.127 245.47C190.226 245.506 190.313 245.537 190.387 245.561C190.474 245.585 190.586 245.609 190.722 245.634C190.871 245.658 190.989 245.682 191.076 245.706C191.176 245.718 191.306 245.743 191.467 245.779C191.629 245.803 191.759 245.821 191.858 245.834C192.28 245.906 192.628 245.973 192.901 246.034C193.174 246.094 193.491 246.203 193.851 246.361C194.223 246.507 194.515 246.682 194.726 246.889C194.937 247.083 195.117 247.356 195.266 247.707C195.427 248.047 195.508 248.447 195.508 248.908C195.508 249.902 195.104 250.666 194.298 251.2C193.503 251.733 192.46 252 191.169 252Z" fill="#272637"/>
<path d="M199.396 251.945C198.415 251.945 197.627 251.697 197.031 251.2C196.435 250.702 196.137 250.005 196.137 249.108C196.137 248.162 196.46 247.477 197.105 247.052C197.751 246.616 198.645 246.325 199.787 246.179C200.718 246.07 201.351 245.949 201.686 245.815C202.034 245.67 202.207 245.446 202.207 245.142C202.207 244.475 201.773 244.142 200.904 244.142C199.973 244.142 199.458 244.542 199.358 245.342H196.565C196.603 244.421 196.987 243.657 197.72 243.051C198.465 242.444 199.52 242.141 200.885 242.141C202.251 242.141 203.281 242.396 203.976 242.905C204.783 243.475 205.187 244.36 205.187 245.561V250.254C205.187 250.993 205.298 251.436 205.522 251.582V251.709H202.58C202.456 251.539 202.35 251.194 202.263 250.672H202.226C201.618 251.521 200.674 251.945 199.396 251.945ZM200.364 250.054C200.935 250.054 201.394 249.902 201.742 249.599C202.102 249.284 202.282 248.877 202.282 248.38V247.271C201.984 247.416 201.463 247.58 200.718 247.762C200.109 247.895 199.681 248.053 199.433 248.235C199.185 248.417 199.06 248.677 199.06 249.017C199.06 249.708 199.495 250.054 200.364 250.054Z" fill="#272637"/>
<path d="M206.677 251.709V238.703H209.749V251.709H206.677Z" fill="#272637"/>
<path d="M215.877 251.982C214.338 251.982 213.103 251.521 212.172 250.599C211.253 249.666 210.794 248.477 210.794 247.034C210.794 245.627 211.247 244.457 212.153 243.523C213.072 242.59 214.251 242.123 215.691 242.123C216.995 242.123 218.081 242.511 218.95 243.287C220.092 244.306 220.65 245.815 220.626 247.816H213.773C213.873 248.459 214.102 248.962 214.462 249.326C214.822 249.678 215.306 249.854 215.915 249.854C216.697 249.854 217.224 249.544 217.497 248.926H220.458C220.235 249.823 219.701 250.557 218.857 251.127C218.025 251.697 217.032 251.982 215.877 251.982ZM213.792 246.052H217.553C217.504 245.494 217.311 245.051 216.976 244.724C216.653 244.397 216.244 244.233 215.747 244.233C214.667 244.233 214.015 244.839 213.792 246.052Z" fill="#272637"/>
<path d="M221.42 251.709V248.653H224.605V251.709H221.42Z" fill="#272637"/>
<g filter="url(#filter0_d_678_37)">
<path d="M57.5023 119.698C56.1709 121.192 54.4134 121.939 52.2298 121.939C50.0462 121.939 48.2953 121.192 46.9772 119.698C45.6591 118.19 45 116.265 45 113.923C45 111.581 45.6591 109.656 46.9772 108.148C48.2953 106.64 50.0462 105.885 52.2298 105.885C54.4134 105.885 56.1709 106.64 57.5023 108.148C58.8338 109.656 59.4995 111.581 59.4995 113.923C59.4995 116.265 58.8338 118.19 57.5023 119.698ZM50.0129 117.112C50.5322 117.931 51.2778 118.34 52.2498 118.34C53.2217 118.34 53.9673 117.931 54.4866 117.112C55.0059 116.293 55.2655 115.23 55.2655 113.923C55.2655 112.616 55.0059 111.553 54.4866 110.734C53.9673 109.901 53.2217 109.484 52.2498 109.484C51.2778 109.484 50.5322 109.901 50.0129 110.734C49.4937 111.553 49.234 112.616 49.234 113.923C49.234 115.23 49.4937 116.293 50.0129 117.112Z" fill="#272637"/>
<path d="M60.6551 121.573V106.166H64.8292L69.5026 114.828H69.5425V106.166H73.5768V121.573H69.2629L64.7293 112.846H64.6894V121.573H60.6551Z" fill="#272637"/>
<path d="M75.3023 121.573V106.166H79.4764V117.715H85.5878V121.573H75.3023Z" fill="#272637"/>
<path d="M88.6975 121.573V116.164L83.8044 106.166H88.338L89.8558 109.592C90.0156 109.937 90.1754 110.317 90.3352 110.734C90.4949 111.15 90.6148 111.474 90.6947 111.704L90.8145 112.07H90.8544C91.1607 111.194 91.4869 110.368 91.833 109.592L93.3509 106.166H97.7846L92.8716 116.164V121.573H88.6975Z" fill="#272637"/>
<path d="M108.595 122C106.622 122 104.999 121.531 103.725 120.592C102.467 119.637 101.737 118.196 101.535 116.268H106.078C106.203 116.855 106.482 117.316 106.917 117.651C107.352 117.969 107.872 118.128 108.478 118.128C109.162 118.128 109.705 117.894 110.109 117.425C110.513 116.955 110.715 116.31 110.715 115.489C110.715 114.735 110.513 114.131 110.109 113.679C109.705 113.226 109.154 113 108.455 113C107.57 113 106.917 113.344 106.498 114.031H102.187L103.888 104.352H114.28V108.299H107.313L106.801 110.712H106.847C107.484 110.059 108.447 109.732 109.737 109.732C111.399 109.732 112.75 110.26 113.791 111.316C114.832 112.372 115.352 113.779 115.352 115.539C115.352 117.55 114.746 119.134 113.534 120.291C112.338 121.43 110.692 122 108.595 122Z" fill="#272637"/>
<path d="M123.04 122C120.927 122 119.25 121.514 118.007 120.542C116.78 119.553 116.166 118.279 116.166 116.721C116.166 114.894 117.044 113.536 118.799 112.648V112.573C117.463 111.802 116.795 110.62 116.795 109.028C116.795 107.57 117.355 106.372 118.473 105.433C119.607 104.478 121.129 104 123.04 104C124.997 104 126.527 104.453 127.63 105.358C128.749 106.246 129.308 107.436 129.308 108.927C129.308 110.385 128.655 111.542 127.351 112.397V112.472C129.106 113.26 129.983 114.651 129.983 116.645C129.983 118.254 129.354 119.553 128.096 120.542C126.853 121.514 125.168 122 123.04 122ZM121.362 117.877C121.813 118.279 122.388 118.48 123.087 118.48C123.786 118.48 124.353 118.279 124.788 117.877C125.222 117.475 125.44 116.947 125.44 116.293C125.44 115.64 125.222 115.112 124.788 114.709C124.353 114.291 123.786 114.081 123.087 114.081C122.388 114.081 121.813 114.291 121.362 114.709C120.912 115.112 120.687 115.64 120.687 116.293C120.687 116.947 120.912 117.475 121.362 117.877ZM121.525 110.561C121.898 110.913 122.403 111.089 123.04 111.089C123.677 111.089 124.182 110.913 124.555 110.561C124.943 110.193 125.137 109.732 125.137 109.179C125.137 108.609 124.943 108.148 124.555 107.796C124.182 107.427 123.677 107.243 123.04 107.243C122.403 107.243 121.898 107.427 121.525 107.796C121.153 108.148 120.966 108.609 120.966 109.179C120.966 109.749 121.153 110.209 121.525 110.561Z" fill="#272637"/>
<path d="M137.739 122C135.627 122 133.949 121.514 132.706 120.542C131.479 119.553 130.866 118.279 130.866 116.721C130.866 114.894 131.743 113.536 133.499 112.648V112.573C132.163 111.802 131.495 110.62 131.495 109.028C131.495 107.57 132.054 106.372 133.172 105.433C134.306 104.478 135.829 104 137.739 104C139.696 104 141.227 104.453 142.329 105.358C143.448 106.246 144.007 107.436 144.007 108.927C144.007 110.385 143.355 111.542 142.05 112.397V112.472C143.805 113.26 144.683 114.651 144.683 116.645C144.683 118.254 144.054 119.553 142.795 120.542C141.553 121.514 139.867 122 137.739 122ZM136.062 117.877C136.512 118.279 137.087 118.48 137.786 118.48C138.485 118.48 139.052 118.279 139.487 117.877C139.922 117.475 140.139 116.947 140.139 116.293C140.139 115.64 139.922 115.112 139.487 114.709C139.052 114.291 138.485 114.081 137.786 114.081C137.087 114.081 136.512 114.291 136.062 114.709C135.611 115.112 135.386 115.64 135.386 116.293C135.386 116.947 135.611 117.475 136.062 117.877ZM136.225 110.561C136.598 110.913 137.102 111.089 137.739 111.089C138.376 111.089 138.881 110.913 139.254 110.561C139.642 110.193 139.836 109.732 139.836 109.179C139.836 108.609 139.642 108.148 139.254 107.796C138.881 107.427 138.376 107.243 137.739 107.243C137.102 107.243 136.598 107.427 136.225 107.796C135.852 108.148 135.666 108.609 135.666 109.179C135.666 109.749 135.852 110.209 136.225 110.561Z" fill="#272637"/>
<path d="M152.234 121.975C150.479 121.975 149.019 121.539 147.854 120.668C146.689 119.796 145.974 118.623 145.71 117.148H150.091C150.417 118.087 151.1 118.556 152.141 118.556C152.933 118.556 153.562 118.254 154.028 117.651C154.494 117.031 154.759 116.109 154.821 114.885H154.774C153.826 115.874 152.677 116.369 151.326 116.369C149.679 116.369 148.273 115.807 147.108 114.684C145.959 113.545 145.384 112.061 145.384 110.235C145.384 108.358 146.021 106.849 147.295 105.709C148.568 104.57 150.215 104 152.234 104C154.114 104 155.691 104.561 156.964 105.684C158.595 107.109 159.411 109.539 159.411 112.975C159.411 115.874 158.789 118.103 157.547 119.662C156.304 121.204 154.533 121.975 152.234 121.975ZM150.487 112.12C150.953 112.623 151.551 112.874 152.281 112.874C153.011 112.874 153.601 112.623 154.052 112.12C154.518 111.617 154.751 110.989 154.751 110.235C154.751 109.48 154.518 108.852 154.052 108.349C153.601 107.846 153.011 107.595 152.281 107.595C151.551 107.595 150.953 107.846 150.487 108.349C150.036 108.852 149.811 109.48 149.811 110.235C149.811 110.989 150.036 111.617 150.487 112.12Z" fill="#272637"/>
<path d="M164.164 121.573V106.166H168.339V121.573H164.164Z" fill="#272637"/>
<path d="M170.055 121.573V106.166H174.229L178.902 114.828H178.942V106.166H182.976V121.573H178.662L174.129 112.846H174.089V121.573H170.055Z" fill="#272637"/>
<path d="M191.146 121.573V111.567H187.884V108.123C189.049 108.073 190.02 107.712 190.796 107.042C191.588 106.355 192.101 105.408 192.334 104.201H195.806V121.573H191.146Z" fill="#272637"/>
<path d="M204.938 121.975C202.794 121.975 201.015 121.154 199.602 119.511C198.204 117.869 197.505 115.698 197.505 113C197.505 110.302 198.196 108.131 199.579 106.489C200.977 104.83 202.763 104 204.938 104C207.175 104 208.976 104.821 210.343 106.464C211.726 108.106 212.417 110.285 212.417 113C212.417 115.698 211.718 117.869 210.32 119.511C208.922 121.154 207.128 121.975 204.938 121.975ZM202.281 113C202.281 116.503 203.175 118.254 204.961 118.254C206.747 118.254 207.641 116.503 207.641 113C207.641 111.358 207.423 110.059 206.988 109.103C206.553 108.148 205.878 107.67 204.961 107.67C204.045 107.67 203.369 108.148 202.934 109.103C202.499 110.059 202.281 111.358 202.281 113Z" fill="#272637"/>
<path d="M224.12 121.975C221.976 121.975 220.197 121.154 218.784 119.511C217.386 117.869 216.687 115.698 216.687 113C216.687 110.302 217.378 108.131 218.761 106.489C220.159 104.83 221.945 104 224.12 104C226.356 104 228.158 104.821 229.525 106.464C230.908 108.106 231.599 110.285 231.599 113C231.599 115.698 230.9 117.869 229.502 119.511C228.104 121.154 226.31 121.975 224.12 121.975ZM221.463 113C221.463 116.503 222.357 118.254 224.143 118.254C225.929 118.254 226.822 116.503 226.822 113C226.822 111.358 226.605 110.059 226.17 109.103C225.735 108.148 225.059 107.67 224.143 107.67C223.226 107.67 222.551 108.148 222.116 109.103C221.681 110.059 221.463 111.358 221.463 113Z" fill="#272637"/>
<path d="M239.82 121.975C237.676 121.975 235.898 121.154 234.484 119.511C233.086 117.869 232.387 115.698 232.387 113C232.387 110.302 233.079 108.131 234.461 106.489C235.859 104.83 237.645 104 239.82 104C242.057 104 243.859 104.821 245.226 106.464C246.608 108.106 247.3 110.285 247.3 113C247.3 115.698 246.601 117.869 245.202 119.511C243.804 121.154 242.01 121.975 239.82 121.975ZM237.164 113C237.164 116.503 238.057 118.254 239.843 118.254C241.63 118.254 242.523 116.503 242.523 113C242.523 111.358 242.305 110.059 241.871 109.103C241.436 108.148 240.76 107.67 239.843 107.67C238.927 107.67 238.251 108.148 237.816 109.103C237.381 110.059 237.164 111.358 237.164 113Z" fill="#272637"/>
<path d="M255.521 121.975C253.377 121.975 251.598 121.154 250.185 119.511C248.787 117.869 248.088 115.698 248.088 113C248.088 110.302 248.779 108.131 250.161 106.489C251.559 104.83 253.346 104 255.521 104C257.757 104 259.559 104.821 260.926 106.464C262.309 108.106 263 110.285 263 113C263 115.698 262.301 117.869 260.903 119.511C259.505 121.154 257.711 121.975 255.521 121.975ZM252.864 113C252.864 116.503 253.757 118.254 255.544 118.254C257.33 118.254 258.223 116.503 258.223 113C258.223 111.358 258.006 110.059 257.571 109.103C257.136 108.148 256.46 107.67 255.544 107.67C254.627 107.67 253.952 108.148 253.517 109.103C253.082 110.059 252.864 111.358 252.864 113Z" fill="#272637"/>
</g>
<path d="M14 13.2566H23.0735C23.2286 13.6923 23.6829 14.0657 24.4362 14.3769C25.1896 14.6673 26.1978 14.8955 27.4608 15.0615C28.7459 15.2067 30.2305 15.2793 31.9144 15.2793C33.5763 15.2793 34.8836 15.2378 35.8363 15.1548C36.8113 15.0511 37.4981 14.8851 37.897 14.6569C38.2958 14.408 38.4952 14.0761 38.4952 13.6611C38.4952 13.267 38.174 12.9661 37.5314 12.7587C36.8888 12.5305 35.7477 12.3749 34.108 12.2919C32.4684 12.2089 30.164 12.1674 27.1949 12.1674C24.9791 12.1674 23.0625 12.0741 21.445 11.8874C19.8496 11.6799 18.5312 11.3687 17.4898 10.9538C16.4706 10.5181 15.7172 9.97875 15.2297 9.33563C14.7423 8.67176 14.4985 7.88342 14.4985 6.9706C14.4985 5.39392 15.0636 4.0973 16.1936 3.08076C17.3458 2.04346 19.0741 1.27587 21.3785 0.777968C23.705 0.259323 26.6077 0 30.0864 0C35.1827 0 39.0713 0.694986 41.7524 2.08496C44.4556 3.45418 45.8073 5.43541 45.8073 8.02864H37.199C37.0882 7.34403 36.4014 6.82538 35.1384 6.4727C33.8754 6.09928 32.0806 5.91256 29.7541 5.91256C27.4497 5.91256 25.7325 6.03704 24.6024 6.28599C23.4945 6.53494 22.9406 6.96023 22.9406 7.56186C22.9406 7.87305 23.0957 8.122 23.4059 8.30871C23.7161 8.49542 24.2479 8.65102 25.0013 8.77549C25.7768 8.87922 26.8625 8.95183 28.2584 8.99332C29.6544 9.03481 31.427 9.05556 33.5763 9.05556C35.9471 9.05556 37.9635 9.16966 39.6253 9.39786C41.2871 9.60532 42.6276 9.92688 43.6469 10.3625C44.6883 10.7982 45.4417 11.3583 45.907 12.043C46.3723 12.7068 46.6049 13.4952 46.6049 14.408C46.6049 15.9847 46.0732 17.2709 45.0096 18.2667C43.946 19.2625 42.262 19.999 39.9576 20.4761C37.6533 20.9533 34.6398 21.1919 30.9173 21.1919C28.8124 21.1919 26.8736 21.0778 25.101 20.8496C23.3505 20.6214 21.7884 20.2894 20.4146 19.8538C19.0409 19.3974 17.8776 18.8476 16.9248 18.2045C15.972 17.5406 15.2408 16.8041 14.7312 15.995C14.2437 15.1652 14 14.2524 14 13.2566Z" fill="#272637"/>
<path d="M48.9203 0.653494H83.4862V6.56606H48.9203V0.653494ZM62.0487 6.16151H70.3578V20.5695H62.0487V6.16151Z" fill="#272637"/>
<path d="M87.9308 17.551V12.8832H110.664V17.551H87.9308ZM80.4858 20.5695L94.7443 0.653494H103.984L118.375 20.5695H109.235L96.9046 2.73845H101.857L89.6258 20.5695H80.4858Z" fill="#272637"/>
<path d="M154.376 14.4702L151.285 16.1195V0.653494H159.594V20.5695H151.285L126.258 7.00172L129.349 5.32131V20.5695H121.039V0.653494H129.349L154.376 14.4702Z" fill="#272637"/>
<path d="M188.171 0.653494C191.162 0.653494 193.632 0.92319 195.582 1.46258C197.532 2.00197 199.061 2.73845 200.169 3.67201C201.277 4.60558 202.052 5.67399 202.495 6.87724C202.961 8.05976 203.193 9.30451 203.193 10.6115C203.193 11.9185 202.939 13.1736 202.429 14.3769C201.919 15.5594 201.077 16.6174 199.903 17.551C198.751 18.4845 197.211 19.221 195.283 19.7604C193.378 20.2998 191.007 20.5695 188.171 20.5695H164.24V0.653494H188.171ZM172.549 14.3457H187.838C189.079 14.3457 190.131 14.2731 190.996 14.1279C191.86 13.962 192.547 13.7234 193.056 13.4122C193.588 13.101 193.965 12.7172 194.186 12.2608C194.43 11.7836 194.552 11.2339 194.552 10.6115C194.552 9.98912 194.43 9.44973 194.186 8.99332C193.965 8.51617 193.588 8.122 193.056 7.81081C192.547 7.49962 191.86 7.27142 190.996 7.1262C190.131 6.96023 189.079 6.87724 187.838 6.87724H172.549V14.3457Z" fill="#272637"/>
<path d="M210.977 17.551V12.8832H233.711V17.551H210.977ZM203.532 20.5695L217.79 0.653494H227.03L241.422 20.5695H232.281L219.951 2.73845H224.903L212.672 20.5695H203.532Z" fill="#272637"/>
<path d="M244.086 20.5695V0.653494H269.777C271.794 0.653494 273.6 0.871325 275.195 1.30699C276.812 1.7219 278.086 2.42726 279.017 3.42306C279.97 4.41886 280.446 5.77772 280.446 7.49962C280.446 8.64064 280.225 9.58458 279.782 10.3314C279.338 11.0783 278.729 11.6592 277.954 12.0741C277.178 12.489 276.292 12.7898 275.295 12.9765C274.298 13.1632 273.256 13.2773 272.17 13.3188L269.744 12.8832C272.381 12.9039 274.408 13.0076 275.826 13.1944C277.267 13.3811 278.264 13.7234 278.818 14.2213C279.394 14.6984 279.682 15.3934 279.682 16.3062V20.5695H271.373V17.2398C271.373 16.6174 271.24 16.1506 270.974 15.8394C270.73 15.5075 270.176 15.2793 269.312 15.1548C268.47 15.0304 267.163 14.9681 265.39 14.9681H252.395V20.5695H244.086ZM252.395 9.77129H269.777C270.442 9.77129 270.996 9.66756 271.439 9.4601C271.905 9.25264 272.137 8.85847 272.137 8.27759C272.137 7.7382 271.905 7.37514 271.439 7.18843C270.996 6.98097 270.442 6.87724 269.777 6.87724H252.395V9.77129Z" fill="#272637"/>
<path d="M308.977 0.653494C311.968 0.653494 314.439 0.92319 316.389 1.46258C318.339 2.00197 319.868 2.73845 320.975 3.67201C322.083 4.60558 322.859 5.67399 323.302 6.87724C323.767 8.05976 324 9.30451 324 10.6115C324 11.9185 323.745 13.1736 323.236 14.3769C322.726 15.5594 321.884 16.6174 320.71 17.551C319.557 18.4845 318.017 19.221 316.09 19.7604C314.184 20.2998 311.813 20.5695 308.977 20.5695H285.047V0.653494H308.977ZM293.356 14.3457H308.645C309.886 14.3457 310.938 14.2731 311.802 14.1279C312.666 13.962 313.353 13.7234 313.863 13.4122C314.395 13.101 314.771 12.7172 314.993 12.2608C315.237 11.7836 315.359 11.2339 315.359 10.6115C315.359 9.98912 315.237 9.44973 314.993 8.99332C314.771 8.51617 314.395 8.122 313.863 7.81081C313.353 7.49962 312.666 7.27142 311.802 7.1262C310.938 6.96023 309.886 6.87724 308.645 6.87724H293.356V14.3457Z" fill="#272637"/>
<path d="M48.8934 48C45.3416 48 42.4823 47.7102 40.3154 47.1305C38.1485 46.5356 36.5682 45.6661 35.5744 44.522C34.5968 43.3627 34.108 41.9288 34.108 40.2203C34.108 38.5118 34.5968 37.0856 35.5744 35.9415C36.5682 34.7822 38.1485 33.9127 40.3154 33.333C42.4823 32.7381 45.3416 32.4406 48.8934 32.4406C52.4451 32.4406 55.3044 32.7381 57.4713 33.333C59.6382 33.9127 61.2104 34.7822 62.1879 35.9415C63.1818 37.0856 63.6787 38.5118 63.6787 40.2203C63.6787 41.9288 63.1818 43.3627 62.1879 44.522C61.2104 45.6661 59.6382 46.5356 57.4713 47.1305C55.3044 47.7102 52.4451 48 48.8934 48ZM48.8934 43.6525C50.5715 43.6525 52.0215 43.561 53.2434 43.378C54.4653 43.1796 55.4103 42.8364 56.0783 42.3483C56.7463 41.8449 57.0803 41.1356 57.0803 40.2203C57.0803 39.3051 56.7463 38.6034 56.0783 38.1152C55.4103 37.6118 54.4653 37.2686 53.2434 37.0856C52.0215 36.8873 50.5715 36.7881 48.8934 36.7881C47.2152 36.7881 45.7408 36.8873 44.47 37.0856C43.2155 37.2686 42.2298 37.6118 41.5129 38.1152C40.8123 38.6034 40.4621 39.3051 40.4621 40.2203C40.4621 41.1356 40.8123 41.8449 41.5129 42.3483C42.2298 42.8364 43.2155 43.1796 44.47 43.378C45.7408 43.561 47.2152 43.6525 48.8934 43.6525Z" fill="#272637"/>
<path d="M72.9289 47.5424L64.1799 32.8983H71.0715L78.452 46.5127L76.1303 46.5585L83.0464 32.8983H90.4269L97.343 46.5585L95.0213 46.5127L102.402 32.8983H109.196L100.544 47.5424H92.2842L85.5392 35.2093H87.9341L81.1891 47.5424H72.9289Z" fill="#272637"/>
<path d="M135.903 43.0576L133.63 44.2703V32.8983H139.74V47.5424H133.63L115.228 37.5661L117.501 36.3305V47.5424H111.391V32.8983H117.501L135.903 43.0576Z" fill="#272637"/>
<path d="M149.266 41.3644V43.1949H167.839V47.5424H143.156V32.8983H167.79V37.2457H149.266V39.0762H164.418V41.3644H149.266Z" fill="#272637"/>
<path d="M171.008 47.5424V32.8983H189.899C191.381 32.8983 192.709 33.0584 193.882 33.3788C195.072 33.6838 196.008 34.2025 196.693 34.9347C197.393 35.6669 197.744 36.6661 197.744 37.9322C197.744 38.7712 197.581 39.4652 197.255 40.0144C196.929 40.5635 196.481 40.9907 195.911 41.2957C195.34 41.6008 194.689 41.822 193.956 41.9593C193.222 42.0966 192.457 42.1805 191.658 42.211L189.874 41.8907C191.813 41.9059 193.304 41.9822 194.347 42.1195C195.406 42.2568 196.139 42.5085 196.546 42.8746C196.97 43.2254 197.181 43.7364 197.181 44.4076V47.5424H191.072V45.0941C191.072 44.6364 190.974 44.2932 190.779 44.0644C190.599 43.8203 190.192 43.6525 189.557 43.561C188.938 43.4695 187.976 43.4237 186.673 43.4237H177.117V47.5424H171.008ZM177.117 39.6025H189.899C190.388 39.6025 190.795 39.5262 191.121 39.3737C191.463 39.2212 191.634 38.9313 191.634 38.5042C191.634 38.1076 191.463 37.8406 191.121 37.7034C190.795 37.5508 190.388 37.4745 189.899 37.4745H177.117V39.6025Z" fill="#272637"/>
<path d="M200.271 42.1652H206.943C207.057 42.4856 207.391 42.7602 207.945 42.989C208.499 43.2025 209.24 43.3703 210.169 43.4924C211.114 43.5991 212.205 43.6525 213.443 43.6525C214.665 43.6525 215.627 43.622 216.327 43.561C217.044 43.4847 217.549 43.3627 217.842 43.1949C218.136 43.0118 218.282 42.7678 218.282 42.4627C218.282 42.1729 218.046 41.9517 217.574 41.7991C217.101 41.6313 216.262 41.5169 215.056 41.4559C213.851 41.3949 212.156 41.3644 209.973 41.3644C208.344 41.3644 206.935 41.2957 205.745 41.1585C204.572 41.0059 203.603 40.7771 202.837 40.472C202.088 40.1517 201.534 39.7551 201.175 39.2822C200.817 38.794 200.638 38.2144 200.638 37.5432C200.638 36.3839 201.053 35.4305 201.884 34.683C202.731 33.9203 204.002 33.3559 205.696 32.9898C207.407 32.6084 209.541 32.4177 212.099 32.4177C215.847 32.4177 218.706 32.9288 220.677 33.9508C222.665 34.9576 223.659 36.4144 223.659 38.3212H217.329C217.248 37.8178 216.743 37.4364 215.814 37.1771C214.885 36.9025 213.566 36.7652 211.855 36.7652C210.161 36.7652 208.898 36.8567 208.067 37.0398C207.252 37.2228 206.845 37.5356 206.845 37.9779C206.845 38.2067 206.959 38.3898 207.187 38.5271C207.415 38.6644 207.806 38.7788 208.36 38.8703C208.93 38.9466 209.729 39 210.755 39.0305C211.782 39.061 213.085 39.0762 214.665 39.0762C216.409 39.0762 217.891 39.1601 219.113 39.3279C220.335 39.4805 221.321 39.7169 222.07 40.0373C222.836 40.3576 223.39 40.7695 223.732 41.2729C224.074 41.761 224.245 42.3407 224.245 43.0119C224.245 44.1712 223.854 45.1169 223.072 45.8492C222.29 46.5814 221.052 47.1229 219.358 47.4737C217.663 47.8246 215.447 48 212.71 48C211.163 48 209.737 47.9161 208.434 47.7483C207.146 47.5805 205.998 47.3364 204.988 47.0161C203.978 46.6805 203.122 46.2763 202.422 45.8034C201.721 45.3152 201.183 44.7737 200.809 44.1788C200.45 43.5686 200.271 42.8974 200.271 42.1652Z" fill="#272637"/>
<path d="M232.155 37.9551H249.36V42.3025H232.155V37.9551ZM248.676 32.8983H254.785V47.5424H248.676V32.8983ZM226.925 32.8983H233.035V47.5424H226.925V32.8983Z" fill="#272637"/>
<path d="M258.58 32.8983H264.69V47.5424H258.58V32.8983Z" fill="#272637"/>
<path d="M274.145 43.7669V39.7627H286.34C286.829 39.7627 287.236 39.694 287.562 39.5568C287.904 39.4042 288.075 39.0915 288.075 38.6186C288.075 38.1305 287.904 37.8178 287.562 37.6805C287.236 37.5432 286.829 37.4745 286.34 37.4745H274.536V47.5424H268.427V32.8983H285.387C286.609 32.8983 287.749 32.9822 288.808 33.15C289.884 33.3025 290.821 33.5847 291.619 33.9966C292.417 34.4084 293.044 34.9881 293.501 35.7356C293.957 36.483 294.185 37.444 294.185 38.6186C294.185 39.7932 293.957 40.7237 293.501 41.4102C293.044 42.0966 292.417 42.6076 291.619 42.9432C290.821 43.2788 289.884 43.5 288.808 43.6068C287.749 43.7135 286.609 43.7669 285.387 43.7669H274.145Z" fill="#272637"/>
<path d="M0 74.5C0 72.567 1.91881 71 4.28579 71H334.714C337.081 71 339 72.567 339 74.5C339 76.433 337.081 78 334.714 78H4.28581C1.91883 78 0 76.433 0 74.5Z" fill="url(#paint0_linear_678_37)"/>
<defs>
<filter id="filter0_d_678_37" x="41" y="104" width="226" height="26" filterUnits="userSpaceOnUse" color-interpolation-filters="sRGB">
<feFlood flood-opacity="0" result="BackgroundImageFix"/>
<feColorMatrix in="SourceAlpha" type="matrix" values="0 0 0 0 0 0 0 0 0 0 0 0 0 0 0 0 0 0 127 0" result="hardAlpha"/>
<feOffset dy="4"/>
<feGaussianBlur stdDeviation="2"/>
<feComposite in2="hardAlpha" operator="out"/>
<feColorMatrix type="matrix" values="0 0 0 0 0 0 0 0 0 0 0 0 0 0 0 0 0 0 0.25 0"/>
<feBlend mode="normal" in2="BackgroundImageFix" result="effect1_dropShadow_678_37"/>
<feBlend mode="normal" in="SourceGraphic" in2="effect1_dropShadow_678_37" result="shape"/>
</filter>
<linearGradient id="paint0_linear_678_37" x1="237.288" y1="-58.4867" x2="402.912" y2="-58.4867" gradientUnits="userSpaceOnUse">
<stop stop-color="#F2DA00"/>
<stop offset="1" stop-color="#FFE600"/>
</linearGradient>
</defs>
</svg>
