<svg width="339" height="303" viewBox="0 0 339 303" fill="none" xmlns="http://www.w3.org/2000/svg">
<path d="M65.7344 64C62.6753 64 60.2126 63.7396 58.3463 63.2188C56.48 62.6843 55.1189 61.9031 54.2629 60.8752C53.421 59.8336 53 58.5453 53 57.0103C53 55.4753 53.421 54.1938 54.2629 53.1659C55.1189 52.1243 56.48 51.3431 58.3463 50.8223C60.2126 50.2878 62.6753 50.0206 65.7344 50.0206C68.7934 50.0206 71.2561 50.2878 73.1224 50.8223C74.9887 51.3431 76.3428 52.1243 77.1848 53.1659C78.0407 54.1938 78.4687 55.4753 78.4687 57.0103C78.4687 58.5453 78.0407 59.8336 77.1848 60.8752C76.3428 61.9031 74.9887 62.6843 73.1224 63.2188C71.2561 63.7396 68.7934 64 65.7344 64ZM65.7344 60.094C67.1797 60.094 68.4286 60.0117 69.481 59.8473C70.5334 59.6691 71.3473 59.3607 71.9226 58.9222C72.4979 58.4699 72.7856 57.8326 72.7856 57.0103C72.7856 56.188 72.4979 55.5575 71.9226 55.1189C71.3473 54.6667 70.5334 54.3583 69.481 54.1938C68.4286 54.0157 67.1797 53.9266 65.7344 53.9266C64.289 53.9266 63.0191 54.0157 61.9246 54.1938C60.8441 54.3583 59.9951 54.6667 59.3777 55.1189C58.7743 55.5575 58.4726 56.188 58.4726 57.0103C58.4726 57.8326 58.7743 58.4699 59.3777 58.9222C59.9951 59.3607 60.8441 59.6691 61.9246 59.8473C63.0191 60.0117 64.289 60.094 65.7344 60.094Z" fill="#272637"/>
<path d="M86.4357 63.5888L78.9004 50.4317H84.8361L91.1927 62.6637L89.1931 62.7048L95.1498 50.4317H101.506L107.463 62.7048L105.464 62.6637L111.82 50.4317H117.672L110.221 63.5888H103.106L97.2968 52.5081H99.3595L93.5501 63.5888H86.4357Z" fill="#272637"/>
<path d="M140.674 59.5595L138.717 60.649V50.4317H143.979V63.5888H138.717L122.867 54.6256L124.825 53.5154V63.5888H119.563V50.4317H124.825L140.674 59.5595Z" fill="#272637"/>
<path d="M152.184 58.0382V59.6828H168.181V63.5888H146.922V50.4317H168.139V54.3377H152.184V55.9824H165.234V58.0382H152.184Z" fill="#272637"/>
<path d="M170.91 63.5888V50.4317H187.18C188.457 50.4317 189.601 50.5756 190.611 50.8634C191.635 51.1375 192.442 51.6035 193.032 52.2614C193.635 52.9192 193.937 53.8169 193.937 54.9545C193.937 55.7083 193.796 56.3319 193.516 56.8253C193.235 57.3186 192.849 57.7024 192.358 57.9765C191.867 58.2506 191.306 58.4493 190.674 58.5727C190.043 58.696 189.383 58.7714 188.696 58.7988L187.159 58.511C188.829 58.5247 190.113 58.5932 191.011 58.7166C191.923 58.8399 192.554 59.0661 192.905 59.395C193.27 59.7102 193.452 60.1694 193.452 60.7724V63.5888H188.19V61.3891C188.19 60.978 188.106 60.6696 187.938 60.464C187.783 60.2447 187.433 60.094 186.885 60.0117C186.352 59.9295 185.524 59.8884 184.402 59.8884H176.172V63.5888H170.91ZM176.172 56.4552H187.18C187.601 56.4552 187.952 56.3867 188.232 56.2496C188.527 56.1126 188.674 55.8522 188.674 55.4684C188.674 55.1121 188.527 54.8722 188.232 54.7489C187.952 54.6118 187.601 54.5433 187.18 54.5433H176.172V56.4552Z" fill="#272637"/>
<path d="M196.113 58.7577H201.86C201.958 59.0455 202.246 59.2922 202.723 59.4978C203.2 59.6897 203.838 59.8404 204.638 59.9501C205.452 60.046 206.392 60.094 207.459 60.094C208.511 60.094 209.339 60.0666 209.942 60.0117C210.56 59.9432 210.995 59.8336 211.247 59.6828C211.5 59.5184 211.626 59.2991 211.626 59.025C211.626 58.7646 211.423 58.5658 211.016 58.4288C210.609 58.278 209.886 58.1752 208.848 58.1204C207.809 58.0656 206.35 58.0382 204.47 58.0382C203.067 58.0382 201.853 57.9765 200.828 57.8532C199.818 57.7161 198.983 57.5105 198.324 57.2364C197.678 56.9486 197.201 56.5923 196.892 56.1674C196.584 55.7288 196.429 55.208 196.429 54.605C196.429 53.5634 196.787 52.7068 197.503 52.0352C198.232 51.35 199.327 50.8429 200.786 50.5139C202.26 50.1713 204.098 50 206.301 50C209.528 50 211.991 50.4591 213.689 51.3774C215.401 52.2819 216.257 53.5908 216.257 55.304H210.805C210.735 54.8517 210.3 54.5091 209.5 54.2761C208.7 54.0294 207.564 53.906 206.09 53.906C204.631 53.906 203.544 53.9883 202.828 54.1527C202.126 54.3172 201.776 54.5981 201.776 54.9956C201.776 55.2012 201.874 55.3656 202.07 55.489C202.267 55.6123 202.603 55.7151 203.081 55.7974C203.572 55.8659 204.259 55.9139 205.143 55.9413C206.027 55.9687 207.15 55.9824 208.511 55.9824C210.013 55.9824 211.289 56.0578 212.342 56.2085C213.394 56.3456 214.243 56.558 214.889 56.8458C215.548 57.1336 216.025 57.5037 216.32 57.9559C216.615 58.3945 216.762 58.9153 216.762 59.5184C216.762 60.56 216.425 61.4097 215.752 62.0675C215.078 62.7254 214.012 63.2119 212.552 63.5272C211.093 63.8424 209.185 64 206.827 64C205.494 64 204.266 63.9246 203.144 63.7739C202.035 63.6231 201.046 63.4038 200.176 63.116C199.306 62.8145 198.569 62.4513 197.966 62.0264C197.362 61.5879 196.899 61.1013 196.577 60.5668C196.268 60.0186 196.113 59.4156 196.113 58.7577Z" fill="#272637"/>
<path d="M223.575 54.975H238.393V58.8811H223.575V54.975ZM237.804 50.4317H243.066V63.5888H237.804V50.4317ZM219.07 50.4317H224.332V63.5888H219.07V50.4317Z" fill="#272637"/>
<path d="M246.334 50.4317H251.596V63.5888H246.334V50.4317Z" fill="#272637"/>
<path d="M259.74 60.1968V56.5991H270.243C270.664 56.5991 271.015 56.5374 271.296 56.4141C271.591 56.277 271.738 55.9961 271.738 55.5712C271.738 55.1326 271.591 54.8517 271.296 54.7283C271.015 54.605 270.664 54.5433 270.243 54.5433H260.077V63.5888H254.815V50.4317H269.423C270.475 50.4317 271.457 50.5071 272.369 50.6579C273.295 50.7949 274.102 51.0485 274.79 51.4185C275.477 51.7885 276.018 52.3093 276.411 52.9809C276.804 53.6525 277 54.5159 277 55.5712C277 56.6265 276.804 57.4626 276.411 58.0793C276.018 58.696 275.477 59.1552 274.79 59.4567C274.102 59.7582 273.295 59.9569 272.369 60.0529C271.457 60.1488 270.475 60.1968 269.423 60.1968H259.74Z" fill="#272637"/>
<path fill-rule="evenodd" clip-rule="evenodd" d="M0.0724734 100.255C0.0724734 88.9368 0.0723422 100.255 0.0734151 85L339 85.4921C339 99.1405 339 85.4921 339 99.1405H304.031C302.624 99.1405 301.483 100.181 301.483 101.464C301.483 102.747 302.624 103.787 304.031 103.787H339C339 110.176 339 103.787 339 110.176H298.438C297.031 110.176 295.89 111.216 295.89 112.499C295.89 113.782 297.031 114.822 298.438 114.822L339 115.018C339 118.463 339 118.436 339 120.146V121.499L288.284 121.211L274.012 98.3746C273.288 97.2164 271.82 96.7003 270.478 97.0387L270.472 97.0387H16.8619C15.9443 96.6021 14.809 96.5936 13.8443 97.1081C12.3408 97.9101 11.821 99.6787 12.6834 101.059L26.5917 123.313L13.9409 143.555C13.9007 143.619 13.8635 143.684 13.8293 143.75C12.9567 144.268 12.3798 145.165 12.3798 146.185C12.3798 147.789 13.8059 149.089 15.5651 149.089H272.622C272.85 149.089 273.073 149.067 273.288 149.026C274.526 149.199 275.804 148.676 276.465 147.62L289.23 127.194C289.266 127.136 289.3 127.078 289.331 127.019L339 127.307V242.63C339 250.47 336.907 256.536 328.308 256.536H323.642C312.328 256.536 303.156 264.898 303.156 275.213V284.323C303.156 294.638 293.984 303 282.67 303H20.606C9.2917 303 0.119703 294.638 0.119703 284.323V163.41C0.119703 153.095 0.119703 163.41 0.119703 138.147C0.11921 91.6393 -0.114462 146.762 0.0724734 100.255ZM21.3714 143.281H271.916L283.382 124.936C283.301 124.837 283.226 124.733 283.157 124.624L269.185 102.268H20.6991L32.7182 121.499C33.3429 122.499 33.2423 123.702 32.568 124.595C32.5689 125.084 32.4348 125.579 32.1515 126.032L21.3714 143.281Z" fill="#C4C4C4"/>
<path d="M28 181.136C28 167.806 38.9611 157 52.4824 157H252.518C266.039 157 277 167.806 277 181.136V261.864C277 275.194 266.039 286 252.518 286H52.4824C38.9612 286 28 275.194 28 261.864V181.136Z" fill="white"/>
<path d="M66.4492 38L40 0H59.2234L81.787 36.5156H74.8339L97.3975 0H116.348L90.1717 38H66.4492Z" fill="#272637"/>
<path d="M157.6 0H174.643V38H157.6V0Z" fill="#272637"/>
<path d="M235.102 28.2031V17.8125H269.118C270.481 17.8125 271.618 17.6344 272.526 17.2781C273.481 16.8823 273.958 16.0708 273.958 14.8438C273.958 13.5771 273.481 12.7656 272.526 12.4094C271.618 12.0531 270.481 11.875 269.118 11.875H236.193V38H219.151V0H266.46C269.868 0 273.049 0.217709 276.003 0.653127C279.002 1.04896 281.616 1.78125 283.842 2.85C286.069 3.91875 287.819 5.42292 289.091 7.3625C290.364 9.30208 291 11.7958 291 14.8438C291 17.8917 290.364 20.3063 289.091 22.0875C287.819 23.8688 286.069 25.1948 283.842 26.0656C281.616 26.9365 279.002 27.5104 276.003 27.7875C273.049 28.0646 269.868 28.2031 266.46 28.2031H235.102Z" fill="#272637"/>
<path d="M0 83C0 80.7909 1.91881 79 4.28579 79H334.714C337.081 79 339 80.7909 339 83C339 85.2091 337.081 87 334.714 87H4.28581C1.91883 87 0 85.2091 0 83Z" fill="#7C8AFF"/>
<path d="M47.9397 200.544V191.422H44.3862V189H54.5512V191.422H50.9636V200.544H47.9397Z" fill="#272637"/>
<path d="M55.5063 200.544V189H58.2911V193.295H58.3423C59.0143 192.455 59.8799 192.035 60.9391 192.035C61.8844 192.035 62.6247 192.326 63.16 192.907C63.7067 193.478 63.9801 194.231 63.9801 195.167V200.544H61.1954V195.7C61.1954 195.248 61.0758 194.893 60.8366 194.635C60.6088 194.365 60.2728 194.231 59.8286 194.231C59.3731 194.231 59.0029 194.392 58.7182 194.715C58.4334 195.038 58.2911 195.458 58.2911 195.975V200.544H55.5063Z" fill="#272637"/>
<path d="M69.5207 200.786C68.1084 200.786 66.9751 200.377 66.1209 199.559C65.2781 198.73 64.8567 197.675 64.8567 196.394C64.8567 195.146 65.2724 194.107 66.1039 193.278C66.9467 192.45 68.0287 192.035 69.3498 192.035C70.5457 192.035 71.5423 192.38 72.3396 193.069C73.3874 193.973 73.8999 195.313 73.8771 197.089H67.5902C67.6813 197.659 67.892 198.106 68.2223 198.429C68.5526 198.741 68.9968 198.897 69.5549 198.897C70.2724 198.897 70.7564 198.622 71.007 198.073H73.7234C73.5184 198.87 73.0286 199.521 72.2542 200.027C71.4911 200.533 70.5799 200.786 69.5207 200.786ZM67.6073 195.523H71.0583C71.0127 195.027 70.8362 194.635 70.5287 194.344C70.2325 194.053 69.8567 193.908 69.4011 193.908C68.4102 193.908 67.8123 194.446 67.6073 195.523Z" fill="#272637"/>
<path d="M74.8094 200.544V192.277H77.4746V193.569H77.5258C78.1181 192.622 78.9153 192.148 79.9176 192.148C80.1795 192.148 80.3618 192.17 80.4643 192.213V194.473H80.396C79.5304 194.355 78.847 194.5 78.3458 194.909C77.8447 195.307 77.5941 195.948 77.5941 196.83V200.544H74.8094Z" fill="#272637"/>
<path d="M85.4537 200.786C84.0414 200.786 82.9081 200.377 82.0539 199.559C81.2111 198.73 80.7897 197.675 80.7897 196.394C80.7897 195.146 81.2054 194.107 82.0368 193.278C82.8796 192.45 83.9616 192.035 85.2828 192.035C86.4787 192.035 87.4753 192.38 88.2725 193.069C89.3204 193.973 89.8329 195.313 89.8101 197.089H83.5231C83.6143 197.659 83.825 198.106 84.1553 198.429C84.4855 198.741 84.9297 198.897 85.4878 198.897C86.2054 198.897 86.6894 198.622 86.94 198.073H89.6563C89.4513 198.87 88.9616 199.521 88.1871 200.027C87.424 200.533 86.5129 200.786 85.4537 200.786ZM83.5402 195.523H86.9912C86.9457 195.027 86.7691 194.635 86.4616 194.344C86.1655 194.053 85.7896 193.908 85.3341 193.908C84.3432 193.908 83.7452 194.446 83.5402 195.523Z" fill="#272637"/>
<path d="M95.3769 200.544L92.6947 192.277H95.5306L96.4873 195.7L96.8803 197.298H96.9144C97.0511 196.663 97.1821 196.115 97.3074 195.652L98.2299 192.277H100.588L101.544 195.652L101.954 197.315H101.988C102.136 196.68 102.273 196.141 102.398 195.7L103.372 192.277H106.123L103.441 200.544H100.827L99.8017 196.798L99.4258 195.313H99.3916C99.255 195.872 99.124 196.367 98.9987 196.798L97.9566 200.544H95.3769Z" fill="#272637"/>
<path d="M106.775 200.544V192.277H109.56V200.544H106.775ZM106.775 191.131V189H109.56V191.131H106.775Z" fill="#272637"/>
<path d="M110.913 200.544V189H113.732V200.544H110.913Z" fill="#272637"/>
<path d="M115.101 200.544V189H117.92V200.544H115.101Z" fill="#272637"/>
<path d="M127.272 200.802C126.064 200.802 125.182 200.366 124.624 199.494H124.589V200.544H121.924V189H124.709V193.214H124.76C125.364 192.428 126.195 192.035 127.255 192.035C128.371 192.035 129.27 192.45 129.954 193.278C130.649 194.107 130.996 195.151 130.996 196.411C130.996 197.777 130.66 198.854 129.988 199.64C129.316 200.414 128.411 200.802 127.272 200.802ZM126.486 198.719C127.021 198.719 127.437 198.515 127.733 198.106C128.029 197.697 128.177 197.126 128.177 196.394C128.177 195.673 128.029 195.103 127.733 194.683C127.437 194.252 127.01 194.037 126.452 194.037C125.859 194.037 125.404 194.258 125.085 194.699C124.777 195.13 124.624 195.7 124.624 196.411C124.624 197.099 124.789 197.659 125.119 198.09C125.461 198.509 125.916 198.719 126.486 198.719Z" fill="#272637"/>
<path d="M136.206 200.786C134.793 200.786 133.66 200.377 132.806 199.559C131.963 198.73 131.542 197.675 131.542 196.394C131.542 195.146 131.957 194.107 132.789 193.278C133.632 192.45 134.714 192.035 136.035 192.035C137.231 192.035 138.227 192.38 139.024 193.069C140.072 193.973 140.585 195.313 140.562 197.089H134.275C134.366 197.659 134.577 198.106 134.907 198.429C135.237 198.741 135.682 198.897 136.24 198.897C136.957 198.897 137.441 198.622 137.692 198.073H140.408C140.203 198.87 139.714 199.521 138.939 200.027C138.176 200.533 137.265 200.786 136.206 200.786ZM134.292 195.523H137.743C137.698 195.027 137.521 194.635 137.214 194.344C136.917 194.053 136.542 193.908 136.086 193.908C135.095 193.908 134.497 194.446 134.292 195.523Z" fill="#272637"/>
<path d="M146.436 200.544V193.472H143.925V191.632C144.745 191.61 145.434 191.411 145.992 191.034C146.55 190.658 146.898 190.109 147.034 189.387H149.324V200.544H146.436Z" fill="#272637"/>
<path d="M156.008 198.671C157.477 198.671 158.212 197.455 158.212 195.022C158.212 193.892 158.029 192.999 157.665 192.342C157.312 191.685 156.759 191.357 156.008 191.357C155.256 191.357 154.698 191.685 154.333 192.342C153.969 192.988 153.787 193.881 153.787 195.022C153.787 196.163 153.969 197.056 154.333 197.702C154.698 198.348 155.256 198.671 156.008 198.671ZM155.991 200.802C154.453 200.802 153.206 200.275 152.249 199.22C151.304 198.165 150.831 196.766 150.831 195.022C150.831 193.268 151.304 191.868 152.249 190.824C153.206 189.77 154.459 189.242 156.008 189.242C157.579 189.242 158.832 189.77 159.766 190.824C160.712 191.868 161.184 193.268 161.184 195.022C161.184 196.776 160.706 198.181 159.749 199.236C158.804 200.28 157.551 200.802 155.991 200.802Z" fill="#272637"/>
<path d="M167.169 198.671C168.638 198.671 169.373 197.455 169.373 195.022C169.373 193.892 169.191 192.999 168.826 192.342C168.473 191.685 167.921 191.357 167.169 191.357C166.417 191.357 165.859 191.685 165.495 192.342C165.13 192.988 164.948 193.881 164.948 195.022C164.948 196.163 165.13 197.056 165.495 197.702C165.859 198.348 166.417 198.671 167.169 198.671ZM167.152 200.802C165.614 200.802 164.367 200.275 163.411 199.22C162.465 198.165 161.993 196.766 161.993 195.022C161.993 193.268 162.465 191.868 163.411 190.824C164.367 189.77 165.62 189.242 167.169 189.242C168.741 189.242 169.994 189.77 170.928 190.824C171.873 191.868 172.346 193.268 172.346 195.022C172.346 196.776 171.867 198.181 170.911 199.236C169.965 200.28 168.712 200.802 167.152 200.802Z" fill="#272637"/>
<path d="M178.331 198.671C179.8 198.671 180.534 197.455 180.534 195.022C180.534 193.892 180.352 192.999 179.988 192.342C179.635 191.685 179.082 191.357 178.331 191.357C177.579 191.357 177.021 191.685 176.656 192.342C176.292 192.988 176.11 193.881 176.11 195.022C176.11 196.163 176.292 197.056 176.656 197.702C177.021 198.348 177.579 198.671 178.331 198.671ZM178.313 200.802C176.776 200.802 175.529 200.275 174.572 199.22C173.627 198.165 173.154 196.766 173.154 195.022C173.154 193.268 173.627 191.868 174.572 190.824C175.529 189.77 176.782 189.242 178.331 189.242C179.902 189.242 181.155 189.77 182.089 190.824C183.034 191.868 183.507 193.268 183.507 195.022C183.507 196.776 183.029 198.181 182.072 199.236C181.127 200.28 179.874 200.802 178.313 200.802Z" fill="#272637"/>
<path d="M190.949 200.802C189.673 200.802 188.654 200.544 187.891 200.027C187.139 199.5 186.74 198.778 186.695 197.864H189.326C189.428 198.682 189.964 199.091 190.932 199.091C191.353 199.091 191.683 199.021 191.923 198.881C192.173 198.73 192.298 198.526 192.298 198.267C192.298 198.181 192.287 198.106 192.264 198.041C192.241 197.977 192.202 197.917 192.145 197.864C192.088 197.81 192.031 197.761 191.974 197.718C191.928 197.675 191.854 197.638 191.752 197.605C191.649 197.562 191.558 197.53 191.478 197.508C191.41 197.487 191.302 197.465 191.154 197.444C191.017 197.412 190.909 197.39 190.829 197.379C190.749 197.358 190.624 197.336 190.453 197.315C190.283 197.282 190.157 197.261 190.077 197.25C189.713 197.196 189.406 197.142 189.155 197.089C188.904 197.024 188.625 196.927 188.318 196.798C188.022 196.669 187.777 196.524 187.583 196.362C187.401 196.19 187.247 195.964 187.122 195.684C186.997 195.393 186.934 195.06 186.934 194.683C186.934 193.843 187.293 193.192 188.01 192.729C188.728 192.267 189.628 192.035 190.71 192.035C191.928 192.035 192.874 192.272 193.546 192.746C194.218 193.208 194.588 193.854 194.656 194.683H192.093C192.002 194.037 191.535 193.714 190.693 193.714C190.328 193.714 190.032 193.779 189.804 193.908C189.588 194.037 189.48 194.226 189.48 194.473C189.48 194.538 189.491 194.597 189.514 194.651C189.536 194.705 189.571 194.753 189.616 194.796C189.673 194.839 189.724 194.877 189.77 194.909C189.827 194.941 189.901 194.974 189.992 195.006C190.083 195.038 190.163 195.065 190.231 195.087C190.311 195.108 190.413 195.13 190.539 195.151C190.675 195.173 190.784 195.194 190.863 195.216C190.954 195.227 191.074 195.248 191.222 195.28C191.37 195.302 191.49 195.318 191.581 195.329C191.968 195.393 192.287 195.453 192.538 195.506C192.788 195.56 193.079 195.657 193.409 195.797C193.751 195.926 194.018 196.082 194.212 196.265C194.405 196.437 194.571 196.68 194.707 196.992C194.855 197.293 194.929 197.648 194.929 198.057C194.929 198.94 194.559 199.618 193.819 200.092C193.09 200.565 192.133 200.802 190.949 200.802Z" fill="#272637"/>
<path d="M198.84 200.786C197.849 200.786 197.086 200.511 196.551 199.962C196.027 199.403 195.765 198.649 195.765 197.702V192.277H198.533V197.153C198.533 198.09 198.971 198.558 199.848 198.558C200.326 198.558 200.702 198.407 200.976 198.106C201.249 197.794 201.386 197.39 201.386 196.895V192.277H204.17V200.544H201.505V199.526H201.454C200.793 200.366 199.922 200.786 198.84 200.786Z" fill="#272637"/>
<path d="M209.764 200.802C208.374 200.802 207.252 200.388 206.398 199.559C205.544 198.73 205.117 197.686 205.117 196.427C205.117 195.167 205.538 194.123 206.381 193.295C207.224 192.466 208.329 192.051 209.695 192.051C210.857 192.051 211.808 192.342 212.548 192.923C213.289 193.504 213.722 194.269 213.847 195.216H211.165C210.971 194.398 210.493 193.989 209.73 193.989C209.137 193.989 208.687 194.204 208.38 194.635C208.084 195.065 207.936 195.662 207.936 196.427C207.936 197.18 208.09 197.772 208.397 198.203C208.705 198.622 209.149 198.832 209.73 198.832C210.618 198.832 211.125 198.359 211.25 197.412H213.915C213.881 198.391 213.482 199.204 212.719 199.849C211.968 200.484 210.982 200.802 209.764 200.802Z" fill="#272637"/>
<path d="M214.803 200.544V189H217.587V193.295H217.639C218.311 192.455 219.176 192.035 220.235 192.035C221.181 192.035 221.921 192.326 222.456 192.907C223.003 193.478 223.276 194.231 223.276 195.167V200.544H220.492V195.7C220.492 195.248 220.372 194.893 220.133 194.635C219.905 194.365 219.569 194.231 219.125 194.231C218.669 194.231 218.299 194.392 218.014 194.715C217.73 195.038 217.587 195.458 217.587 195.975V200.544H214.803Z" fill="#272637"/>
<path d="M227.37 200.544V189H230.41L234.032 194.796L234.869 196.265H234.904C234.881 195.34 234.869 194.742 234.869 194.473V189H237.825V200.544H234.784L231.196 194.828L230.325 193.278H230.291C230.314 194.269 230.325 194.898 230.325 195.167V200.544H227.37Z" fill="#272637"/>
<path d="M239.499 200.544V189H248.587V191.406H242.522V193.747H247.596V196.055H242.522V200.544H239.499Z" fill="#272637"/>
<path d="M252.949 200.544V191.422H249.396V189H259.561V191.422H255.973V200.544H252.949Z" fill="#272637"/>
<path d="M47.5127 220.373C46.6243 220.373 45.9353 220.206 45.4455 219.873C44.9672 219.528 44.728 218.936 44.728 218.097V213.657H43.5663V212.01H44.728V209.395H47.4444V212.01H49.0332V213.657H47.4444V217.532C47.4444 217.833 47.5241 218.043 47.6835 218.161C47.8544 218.28 48.0993 218.339 48.4182 218.339C48.5093 218.339 48.6289 218.339 48.7769 218.339C48.925 218.328 49.0104 218.323 49.0332 218.323V220.244C48.7143 220.33 48.2075 220.373 47.5127 220.373Z" fill="#272637"/>
<path d="M52.855 217.984C53.1739 218.436 53.6295 218.662 54.2217 218.662C54.814 218.662 55.2695 218.436 55.5884 217.984C55.9187 217.532 56.0839 216.924 56.0839 216.159C56.0839 215.395 55.9187 214.787 55.5884 214.335C55.2695 213.872 54.814 213.641 54.2217 213.641C53.6295 213.641 53.1739 213.867 52.855 214.319C52.5361 214.771 52.3766 215.384 52.3766 216.159C52.3766 216.924 52.5361 217.532 52.855 217.984ZM57.6044 219.291C56.7502 220.12 55.6283 220.535 54.2388 220.535C52.8493 220.535 51.7217 220.12 50.8561 219.291C49.9905 218.463 49.5577 217.419 49.5577 216.159C49.5577 214.9 49.9905 213.856 50.8561 213.027C51.7217 212.198 52.8493 211.784 54.2388 211.784C55.6283 211.784 56.7502 212.198 57.6044 213.027C58.47 213.856 58.9028 214.9 58.9028 216.159C58.9028 217.419 58.47 218.463 57.6044 219.291Z" fill="#272637"/>
<path d="M59.8441 220.276V208.733H62.5947V214.803L65.1915 212.01H68.4033L65.3281 215.11L68.762 220.276H65.5331L63.4318 216.902L62.5947 217.742V220.276H59.8441Z" fill="#272637"/>
<path d="M72.9909 220.518C71.5786 220.518 70.4454 220.109 69.5912 219.291C68.7483 218.463 68.3269 217.408 68.3269 216.127C68.3269 214.879 68.7426 213.84 69.5741 213.011C70.4169 212.182 71.4989 211.768 72.8201 211.768C74.016 211.768 75.0125 212.112 75.8098 212.801C76.8576 213.705 77.3701 215.045 77.3474 216.821H71.0604C71.1515 217.392 71.3622 217.838 71.6925 218.161C72.0228 218.473 72.467 218.63 73.0251 218.63C73.7426 218.63 74.2267 218.355 74.4772 217.806H77.1936C76.9886 218.603 76.4988 219.254 75.7244 219.76C74.9613 220.266 74.0501 220.518 72.9909 220.518ZM71.0775 215.255H74.5285C74.4829 214.76 74.3064 214.367 73.9989 214.077C73.7027 213.786 73.3269 213.641 72.8713 213.641C71.8804 213.641 71.2825 214.179 71.0775 215.255Z" fill="#272637"/>
<path d="M78.2796 220.276V212.01H80.9619V213.14H81.0131C81.6851 212.225 82.5849 211.768 83.7124 211.768C84.6577 211.768 85.398 212.059 85.9333 212.64C86.48 213.21 86.7534 213.964 86.7534 214.9V220.276H83.9687V215.433C83.9687 214.981 83.8491 214.626 83.6099 214.367C83.3821 214.098 83.0461 213.964 82.6019 213.964C82.1464 213.964 81.7762 214.125 81.4915 214.448C81.2067 214.771 81.0644 215.191 81.0644 215.707V220.276H78.2796Z" fill="#272637"/>
<path d="M91.7473 220.535C90.4717 220.535 89.4523 220.276 88.6892 219.76C87.9375 219.232 87.5389 218.511 87.4933 217.596H90.1243C90.2268 218.414 90.7621 218.823 91.7302 218.823C92.1516 218.823 92.4819 218.753 92.7211 218.613C92.9717 218.463 93.0969 218.258 93.0969 218C93.0969 217.914 93.0855 217.838 93.0628 217.774C93.04 217.709 93.0001 217.65 92.9432 217.596C92.8862 217.542 92.8293 217.494 92.7723 217.451C92.7268 217.408 92.6527 217.37 92.5502 217.338C92.4477 217.295 92.3566 217.263 92.2769 217.241C92.2086 217.22 92.1004 217.198 91.9523 217.176C91.8156 217.144 91.7074 217.123 91.6277 217.112C91.548 217.09 91.4227 217.069 91.2519 217.047C91.081 217.015 90.9557 216.994 90.876 216.983C90.5115 216.929 90.204 216.875 89.9535 216.821C89.7029 216.757 89.4238 216.66 89.1163 216.531C88.8202 216.402 88.5753 216.256 88.3817 216.095C88.1995 215.923 88.0457 215.697 87.9204 215.417C87.7952 215.126 87.7325 214.792 87.7325 214.416C87.7325 213.576 88.0913 212.925 88.8088 212.462C89.5263 211.999 90.4261 211.768 91.5081 211.768C92.7268 211.768 93.6721 212.005 94.3441 212.478C95.0161 212.941 95.3862 213.587 95.4545 214.416H92.8919C92.8008 213.77 92.3338 213.447 91.491 213.447C91.1266 213.447 90.8304 213.512 90.6026 213.641C90.3862 213.77 90.2781 213.958 90.2781 214.206C90.2781 214.27 90.2894 214.33 90.3122 214.383C90.335 214.437 90.3692 214.486 90.4147 214.529C90.4717 214.572 90.5229 214.609 90.5685 214.642C90.6254 214.674 90.6995 214.706 90.7906 214.739C90.8817 214.771 90.9614 214.798 91.0298 214.819C91.1095 214.841 91.212 214.862 91.3373 214.884C91.4739 214.905 91.5821 214.927 91.6619 214.948C91.753 214.959 91.8726 214.981 92.0206 215.013C92.1687 215.035 92.2883 215.051 92.3794 215.061C92.7666 215.126 93.0855 215.185 93.3361 215.239C93.5867 215.293 93.8771 215.39 94.2074 215.53C94.5491 215.659 94.8167 215.815 95.0104 215.998C95.204 216.17 95.3691 216.412 95.5058 216.724C95.6539 217.026 95.7279 217.381 95.7279 217.79C95.7279 218.673 95.3577 219.351 94.6174 219.824C93.8885 220.298 92.9318 220.535 91.7473 220.535Z" fill="#272637"/>
<path d="M99.2845 220.276V212.01H102.069V220.276H99.2845ZM99.2845 210.864V208.733H102.069V210.864H99.2845Z" fill="#272637"/>
<path d="M103.405 220.276V212.01H106.088V213.14H106.139C106.811 212.225 107.711 211.768 108.838 211.768C109.783 211.768 110.524 212.059 111.059 212.64C111.606 213.21 111.879 213.964 111.879 214.9V220.276H109.094V215.433C109.094 214.981 108.975 214.626 108.736 214.367C108.508 214.098 108.172 213.964 107.728 213.964C107.272 213.964 106.902 214.125 106.617 214.448C106.332 214.771 106.19 215.191 106.19 215.707V220.276H103.405Z" fill="#272637"/>
<path d="M119.269 220.373C118.381 220.373 117.692 220.206 117.202 219.873C116.724 219.528 116.485 218.936 116.485 218.097V213.657H115.323V212.01H116.485V209.395H119.201V212.01H120.79V213.657H119.201V217.532C119.201 217.833 119.281 218.043 119.44 218.161C119.611 218.28 119.856 218.339 120.175 218.339C120.266 218.339 120.386 218.339 120.534 218.339C120.682 218.328 120.767 218.323 120.79 218.323V220.244C120.471 220.33 119.964 220.373 119.269 220.373Z" fill="#272637"/>
<path d="M124.612 217.984C124.931 218.436 125.386 218.662 125.978 218.662C126.571 218.662 127.026 218.436 127.345 217.984C127.675 217.532 127.841 216.924 127.841 216.159C127.841 215.395 127.675 214.787 127.345 214.335C127.026 213.872 126.571 213.641 125.978 213.641C125.386 213.641 124.931 213.867 124.612 214.319C124.293 214.771 124.133 215.384 124.133 216.159C124.133 216.924 124.293 217.532 124.612 217.984ZM129.361 219.291C128.507 220.12 127.385 220.535 125.996 220.535C124.606 220.535 123.478 220.12 122.613 219.291C121.747 218.463 121.314 217.419 121.314 216.159C121.314 214.9 121.747 213.856 122.613 213.027C123.478 212.198 124.606 211.784 125.996 211.784C127.385 211.784 128.507 212.198 129.361 213.027C130.227 213.856 130.66 214.9 130.66 216.159C130.66 217.419 130.227 218.463 129.361 219.291Z" fill="#272637"/>
<path d="M134.902 220.373C134.014 220.373 133.325 220.206 132.835 219.873C132.357 219.528 132.117 218.936 132.117 218.097V213.657H130.956V212.01H132.117V209.395H134.834V212.01H136.423V213.657H134.834V217.532C134.834 217.833 134.913 218.043 135.073 218.161C135.244 218.28 135.489 218.339 135.808 218.339C135.899 218.339 136.018 218.339 136.166 218.339C136.314 218.328 136.4 218.323 136.423 218.323V220.244C136.104 220.33 135.597 220.373 134.902 220.373Z" fill="#272637"/>
<path d="M140.17 220.486C139.27 220.486 138.547 220.266 138 219.824C137.454 219.383 137.18 218.764 137.18 217.968C137.18 217.128 137.476 216.52 138.069 216.143C138.661 215.756 139.481 215.497 140.529 215.368C141.383 215.271 141.964 215.164 142.271 215.045C142.59 214.916 142.75 214.717 142.75 214.448C142.75 213.856 142.351 213.56 141.554 213.56C140.7 213.56 140.227 213.915 140.136 214.626H137.573C137.607 213.808 137.96 213.129 138.632 212.591C139.316 212.053 140.284 211.784 141.537 211.784C142.79 211.784 143.735 212.01 144.373 212.462C145.113 212.968 145.483 213.754 145.483 214.819V218.985C145.483 219.641 145.586 220.034 145.791 220.163V220.276H143.091C142.978 220.126 142.881 219.819 142.801 219.356H142.767C142.209 220.109 141.343 220.486 140.17 220.486ZM141.058 218.807C141.582 218.807 142.004 218.673 142.323 218.403C142.653 218.124 142.818 217.763 142.818 217.322V216.337C142.545 216.466 142.066 216.611 141.383 216.773C140.825 216.891 140.432 217.031 140.204 217.193C139.976 217.354 139.863 217.585 139.863 217.887C139.863 218.5 140.261 218.807 141.058 218.807Z" fill="#272637"/>
<path d="M146.85 220.276V208.733H149.669V220.276H146.85Z" fill="#272637"/>
<path d="M150.901 220.276V217.564H153.823V220.276H150.901Z" fill="#272637"/>
<path d="M160.872 220.276V211.154H157.318V208.733H167.483V211.154H163.896V220.276H160.872Z" fill="#272637"/>
<path d="M168.439 220.276V208.733H171.223V213.027H171.275C171.947 212.188 172.812 211.768 173.871 211.768C174.817 211.768 175.557 212.059 176.092 212.64C176.639 213.21 176.912 213.964 176.912 214.9V220.276H174.128V215.433C174.128 214.981 174.008 214.626 173.769 214.367C173.541 214.098 173.205 213.964 172.761 213.964C172.305 213.964 171.935 214.125 171.65 214.448C171.366 214.771 171.223 215.191 171.223 215.707V220.276H168.439Z" fill="#272637"/>
<path d="M182.453 220.518C181.041 220.518 179.907 220.109 179.053 219.291C178.21 218.463 177.789 217.408 177.789 216.127C177.789 214.879 178.205 213.84 179.036 213.011C179.879 212.182 180.961 211.768 182.282 211.768C183.478 211.768 184.475 212.112 185.272 212.801C186.32 213.705 186.832 215.045 186.809 216.821H180.522C180.613 217.392 180.824 217.838 181.154 218.161C181.485 218.473 181.929 218.63 182.487 218.63C183.205 218.63 183.689 218.355 183.939 217.806H186.656C186.451 218.603 185.961 219.254 185.186 219.76C184.423 220.266 183.512 220.518 182.453 220.518ZM180.539 215.255H183.99C183.945 214.76 183.768 214.367 183.461 214.077C183.165 213.786 182.789 213.641 182.333 213.641C181.342 213.641 180.744 214.179 180.539 215.255Z" fill="#272637"/>
<path d="M191.466 220.535C190.19 220.535 189.171 220.276 188.408 219.76C187.656 219.232 187.258 218.511 187.212 217.596H189.843C189.945 218.414 190.481 218.823 191.449 218.823C191.87 218.823 192.201 218.753 192.44 218.613C192.69 218.463 192.816 218.258 192.816 218C192.816 217.914 192.804 217.838 192.781 217.774C192.759 217.709 192.719 217.65 192.662 217.596C192.605 217.542 192.548 217.494 192.491 217.451C192.445 217.408 192.371 217.37 192.269 217.338C192.166 217.295 192.075 217.263 191.996 217.241C191.927 217.22 191.819 217.198 191.671 217.176C191.534 217.144 191.426 217.123 191.346 217.112C191.267 217.09 191.141 217.069 190.971 217.047C190.8 217.015 190.674 216.994 190.595 216.983C190.23 216.929 189.923 216.875 189.672 216.821C189.422 216.757 189.143 216.66 188.835 216.531C188.539 216.402 188.294 216.256 188.1 216.095C187.918 215.923 187.764 215.697 187.639 215.417C187.514 215.126 187.451 214.792 187.451 214.416C187.451 213.576 187.81 212.925 188.527 212.462C189.245 211.999 190.145 211.768 191.227 211.768C192.445 211.768 193.391 212.005 194.063 212.478C194.735 212.941 195.105 213.587 195.173 214.416H192.611C192.52 213.77 192.053 213.447 191.21 213.447C190.845 213.447 190.549 213.512 190.321 213.641C190.105 213.77 189.997 213.958 189.997 214.206C189.997 214.27 190.008 214.33 190.031 214.383C190.054 214.437 190.088 214.486 190.133 214.529C190.19 214.572 190.242 214.609 190.287 214.642C190.344 214.674 190.418 214.706 190.509 214.739C190.6 214.771 190.68 214.798 190.748 214.819C190.828 214.841 190.931 214.862 191.056 214.884C191.193 214.905 191.301 214.927 191.381 214.948C191.472 214.959 191.591 214.981 191.739 215.013C191.887 215.035 192.007 215.051 192.098 215.061C192.485 215.126 192.804 215.185 193.055 215.239C193.305 215.293 193.596 215.39 193.926 215.53C194.268 215.659 194.535 215.815 194.729 215.998C194.923 216.17 195.088 216.412 195.224 216.724C195.373 217.026 195.447 217.381 195.447 217.79C195.447 218.673 195.076 219.351 194.336 219.824C193.607 220.298 192.65 220.535 191.466 220.535Z" fill="#272637"/>
<path d="M200.705 220.518C199.293 220.518 198.159 220.109 197.305 219.291C196.462 218.463 196.041 217.408 196.041 216.127C196.041 214.879 196.457 213.84 197.288 213.011C198.131 212.182 199.213 211.768 200.534 211.768C201.73 211.768 202.727 212.112 203.524 212.801C204.572 213.705 205.084 215.045 205.061 216.821H198.774C198.865 217.392 199.076 217.838 199.406 218.161C199.737 218.473 200.181 218.63 200.739 218.63C201.457 218.63 201.941 218.355 202.191 217.806H204.908C204.703 218.603 204.213 219.254 203.438 219.76C202.675 220.266 201.764 220.518 200.705 220.518ZM198.791 215.255H202.242C202.197 214.76 202.02 214.367 201.713 214.077C201.417 213.786 201.041 213.641 200.585 213.641C199.594 213.641 198.996 214.179 198.791 215.255Z" fill="#272637"/>
<path d="M212.114 220.373C211.226 220.373 210.537 220.206 210.047 219.873C209.569 219.528 209.33 218.936 209.33 218.097V213.657H208.168V212.01H209.33V209.395H212.046V212.01H213.635V213.657H212.046V217.532C212.046 217.833 212.126 218.043 212.285 218.161C212.456 218.28 212.701 218.339 213.02 218.339C213.111 218.339 213.231 218.339 213.379 218.339C213.527 218.328 213.612 218.323 213.635 218.323V220.244C213.316 220.33 212.809 220.373 212.114 220.373Z" fill="#272637"/>
<path d="M217.457 217.984C217.776 218.436 218.231 218.662 218.823 218.662C219.416 218.662 219.871 218.436 220.19 217.984C220.52 217.532 220.686 216.924 220.686 216.159C220.686 215.395 220.52 214.787 220.19 214.335C219.871 213.872 219.416 213.641 218.823 213.641C218.231 213.641 217.776 213.867 217.457 214.319C217.138 214.771 216.978 215.384 216.978 216.159C216.978 216.924 217.138 217.532 217.457 217.984ZM222.206 219.291C221.352 220.12 220.23 220.535 218.84 220.535C217.451 220.535 216.323 220.12 215.458 219.291C214.592 218.463 214.159 217.419 214.159 216.159C214.159 214.9 214.592 213.856 215.458 213.027C216.323 212.198 217.451 211.784 218.84 211.784C220.23 211.784 221.352 212.198 222.206 213.027C223.072 213.856 223.504 214.9 223.504 216.159C223.504 217.419 223.072 218.463 222.206 219.291Z" fill="#272637"/>
<path d="M224.446 220.276V208.733H227.196V214.803L229.793 212.01H233.005L229.93 215.11L233.364 220.276H230.135L228.034 216.902L227.196 217.742V220.276H224.446Z" fill="#272637"/>
<path d="M237.593 220.518C236.18 220.518 235.047 220.109 234.193 219.291C233.35 218.463 232.929 217.408 232.929 216.127C232.929 214.879 233.344 213.84 234.176 213.011C235.019 212.182 236.101 211.768 237.422 211.768C238.618 211.768 239.614 212.112 240.411 212.801C241.459 213.705 241.972 215.045 241.949 216.821H235.662C235.753 217.392 235.964 217.838 236.294 218.161C236.625 218.473 237.069 218.63 237.627 218.63C238.344 218.63 238.828 218.355 239.079 217.806H241.795C241.59 218.603 241.101 219.254 240.326 219.76C239.563 220.266 238.652 220.518 237.593 220.518ZM235.679 215.255H239.13C239.085 214.76 238.908 214.367 238.601 214.077C238.304 213.786 237.929 213.641 237.473 213.641C236.482 213.641 235.884 214.179 235.679 215.255Z" fill="#272637"/>
<path d="M242.881 220.276V212.01H245.564V213.14H245.615C246.287 212.225 247.187 211.768 248.314 211.768C249.259 211.768 250 212.059 250.535 212.64C251.082 213.21 251.355 213.964 251.355 214.9V220.276H248.57V215.433C248.57 214.981 248.451 214.626 248.212 214.367C247.984 214.098 247.648 213.964 247.204 213.964C246.748 213.964 246.378 214.125 246.093 214.448C245.808 214.771 245.666 215.191 245.666 215.707V220.276H242.881Z" fill="#272637"/>
<path d="M256.349 220.535C255.073 220.535 254.054 220.276 253.291 219.76C252.539 219.232 252.141 218.511 252.095 217.596H254.726C254.829 218.414 255.364 218.823 256.332 218.823C256.753 218.823 257.084 218.753 257.323 218.613C257.573 218.463 257.699 218.258 257.699 218C257.699 217.914 257.687 217.838 257.664 217.774C257.642 217.709 257.602 217.65 257.545 217.596C257.488 217.542 257.431 217.494 257.374 217.451C257.328 217.408 257.254 217.37 257.152 217.338C257.049 217.295 256.958 217.263 256.879 217.241C256.81 217.22 256.702 217.198 256.554 217.176C256.417 217.144 256.309 217.123 256.229 217.112C256.15 217.09 256.024 217.069 255.854 217.047C255.683 217.015 255.557 216.994 255.478 216.983C255.113 216.929 254.806 216.875 254.555 216.821C254.305 216.757 254.026 216.66 253.718 216.531C253.422 216.402 253.177 216.256 252.983 216.095C252.801 215.923 252.647 215.697 252.522 215.417C252.397 215.126 252.334 214.792 252.334 214.416C252.334 213.576 252.693 212.925 253.411 212.462C254.128 211.999 255.028 211.768 256.11 211.768C257.328 211.768 258.274 212.005 258.946 212.478C259.618 212.941 259.988 213.587 260.056 214.416H257.494C257.403 213.77 256.936 213.447 256.093 213.447C255.728 213.447 255.432 213.512 255.204 213.641C254.988 213.77 254.88 213.958 254.88 214.206C254.88 214.27 254.891 214.33 254.914 214.383C254.937 214.437 254.971 214.486 255.016 214.529C255.073 214.572 255.125 214.609 255.17 214.642C255.227 214.674 255.301 214.706 255.392 214.739C255.483 214.771 255.563 214.798 255.631 214.819C255.711 214.841 255.814 214.862 255.939 214.884C256.076 214.905 256.184 214.927 256.264 214.948C256.355 214.959 256.474 214.981 256.622 215.013C256.77 215.035 256.89 215.051 256.981 215.061C257.368 215.126 257.687 215.185 257.938 215.239C258.188 215.293 258.479 215.39 258.809 215.53C259.151 215.659 259.418 215.815 259.612 215.998C259.806 216.17 259.971 216.412 260.108 216.724C260.256 217.026 260.33 217.381 260.33 217.79C260.33 218.673 259.959 219.351 259.219 219.824C258.49 220.298 257.534 220.535 256.349 220.535Z" fill="#272637"/>
<path d="M46.459 242.867C45.2403 242.867 44.2551 242.635 43.5034 242.172C42.7631 241.72 42.3246 241.064 42.1879 240.203H44.8872C45.0808 240.741 45.5934 241.01 46.4248 241.01C47.541 241.01 48.099 240.483 48.099 239.428V238.604H48.0307C47.4385 239.239 46.6924 239.557 45.7927 239.557C44.7449 239.557 43.8508 239.207 43.1105 238.508C42.3702 237.808 42 236.85 42 235.634C42 234.417 42.3417 233.427 43.025 232.663C43.7084 231.888 44.5911 231.501 45.6731 231.501C46.7551 231.501 47.5751 231.877 48.1332 232.631H48.1674V231.743H50.8325V239.202C50.8325 240.375 50.4453 241.29 49.6708 241.946C48.9419 242.56 47.8713 242.867 46.459 242.867ZM46.4419 237.603C47.0227 237.603 47.4612 237.415 47.7574 237.038C48.0649 236.651 48.2186 236.15 48.2186 235.537C48.2186 234.956 48.0592 234.471 47.7403 234.084C47.4328 233.686 47 233.486 46.4419 233.486C45.918 233.486 45.4966 233.675 45.1777 234.052C44.8701 234.428 44.7164 234.929 44.7164 235.553C44.7164 236.177 44.8701 236.678 45.1777 237.054C45.4966 237.42 45.918 237.603 46.4419 237.603Z" fill="#272637"/>
<path d="M52.1696 240.009V231.743H54.9543V240.009H52.1696ZM52.1696 230.597V228.465H54.9543V230.597H52.1696Z" fill="#272637"/>
<path d="M58.5968 240.009L55.573 231.743H58.4431L59.639 235.472L60.1173 237.135H60.1515C60.2996 236.576 60.459 236.021 60.6299 235.472L61.8428 231.743H64.6275L61.6037 240.009H58.5968Z" fill="#272637"/>
<path d="M69.187 240.251C67.7747 240.251 66.6415 239.842 65.7873 239.024C64.9444 238.195 64.523 237.141 64.523 235.86C64.523 234.611 64.9388 233.573 65.7702 232.744C66.613 231.915 67.695 231.501 69.0162 231.501C70.2121 231.501 71.2086 231.845 72.0059 232.534C73.0537 233.438 73.5662 234.778 73.5435 236.554H67.2565C67.3476 237.124 67.5583 237.571 67.8886 237.894C68.2189 238.206 68.6631 238.362 69.2212 238.362C69.9387 238.362 70.4228 238.088 70.6733 237.539H73.3897C73.1847 238.335 72.695 238.986 71.9205 239.492C71.1574 239.998 70.2462 240.251 69.187 240.251ZM67.2736 234.988H70.7246C70.679 234.493 70.5025 234.1 70.195 233.809C69.8988 233.519 69.523 233.373 69.0674 233.373C68.0765 233.373 67.4786 233.912 67.2736 234.988Z" fill="#272637"/>
<path d="M80.5965 240.106C79.7082 240.106 79.0191 239.939 78.5294 239.605C78.051 239.261 77.8118 238.669 77.8118 237.829V233.39H76.6501V231.743H77.8118V229.127H80.5282V231.743H82.117V233.39H80.5282V237.264C80.5282 237.566 80.6079 237.776 80.7674 237.894C80.9382 238.012 81.1831 238.072 81.502 238.072C81.5931 238.072 81.7127 238.072 81.8608 238.072C82.0088 238.061 82.0943 238.055 82.117 238.055V239.977C81.7981 240.063 81.2913 240.106 80.5965 240.106Z" fill="#272637"/>
<path d="M83.1179 240.009V228.465H85.9026V232.76H85.9539C86.6259 231.92 87.4915 231.501 88.5507 231.501C89.496 231.501 90.2363 231.791 90.7716 232.372C91.3183 232.943 91.5917 233.696 91.5917 234.633V240.009H88.8069V235.166C88.8069 234.713 88.6874 234.358 88.4482 234.1C88.2204 233.831 87.8844 233.696 87.4402 233.696C86.9846 233.696 86.6145 233.858 86.3297 234.181C86.045 234.504 85.9026 234.923 85.9026 235.44V240.009H83.1179Z" fill="#272637"/>
<path d="M97.1323 240.251C95.72 240.251 94.5867 239.842 93.7325 239.024C92.8897 238.195 92.4683 237.141 92.4683 235.86C92.4683 234.611 92.884 233.573 93.7154 232.744C94.5583 231.915 95.6403 231.501 96.9614 231.501C98.1573 231.501 99.1539 231.845 99.9511 232.534C100.999 233.438 101.511 234.778 101.489 236.554H95.2018C95.2929 237.124 95.5036 237.571 95.8339 237.894C96.1642 238.206 96.6083 238.362 97.1664 238.362C97.884 238.362 98.368 238.088 98.6186 237.539H101.335C101.13 238.335 100.64 238.986 99.8657 239.492C99.1026 239.998 98.1915 240.251 97.1323 240.251ZM95.2188 234.988H98.6698C98.6243 234.493 98.4477 234.1 98.1402 233.809C97.8441 233.519 97.4683 233.373 97.0127 233.373C96.0218 233.373 95.4238 233.912 95.2188 234.988Z" fill="#272637"/>
<path d="M107.978 237.716C108.297 238.168 108.753 238.395 109.345 238.395C109.937 238.395 110.393 238.168 110.711 237.716C111.042 237.264 111.207 236.656 111.207 235.892C111.207 235.128 111.042 234.52 110.711 234.068C110.393 233.605 109.937 233.373 109.345 233.373C108.753 233.373 108.297 233.599 107.978 234.052C107.659 234.504 107.5 235.117 107.5 235.892C107.5 236.656 107.659 237.264 107.978 237.716ZM112.727 239.024C111.873 239.853 110.751 240.267 109.362 240.267C107.972 240.267 106.845 239.853 105.979 239.024C105.114 238.195 104.681 237.151 104.681 235.892C104.681 234.633 105.114 233.589 105.979 232.76C106.845 231.931 107.972 231.517 109.362 231.517C110.751 231.517 111.873 231.931 112.727 232.76C113.593 233.589 114.026 234.633 114.026 235.892C114.026 237.151 113.593 238.195 112.727 239.024Z" fill="#272637"/>
<path d="M116.615 240.009L113.933 231.743H116.769L117.726 235.166L118.119 236.764H118.153C118.29 236.129 118.42 235.58 118.546 235.117L119.468 231.743H121.826L122.783 235.117L123.193 236.78H123.227C123.375 236.145 123.512 235.607 123.637 235.166L124.611 231.743H127.361L124.679 240.009H122.065L121.04 236.263L120.664 234.778H120.63C120.493 235.338 120.362 235.833 120.237 236.263L119.195 240.009H116.615Z" fill="#272637"/>
<path d="M128.014 240.009V231.743H130.696V232.873H130.747C131.419 231.958 132.319 231.501 133.447 231.501C134.392 231.501 135.132 231.791 135.668 232.372C136.214 232.943 136.488 233.696 136.488 234.633V240.009H133.703V235.166C133.703 234.713 133.583 234.358 133.344 234.1C133.116 233.831 132.78 233.696 132.336 233.696C131.881 233.696 131.51 233.858 131.226 234.181C130.941 234.504 130.799 234.923 130.799 235.44V240.009H128.014Z" fill="#272637"/>
<path d="M142.028 240.251C140.616 240.251 139.483 239.842 138.628 239.024C137.786 238.195 137.364 237.141 137.364 235.86C137.364 234.611 137.78 233.573 138.611 232.744C139.454 231.915 140.536 231.501 141.857 231.501C143.053 231.501 144.05 231.845 144.847 232.534C145.895 233.438 146.407 234.778 146.385 236.554H140.098C140.189 237.124 140.399 237.571 140.73 237.894C141.06 238.206 141.504 238.362 142.062 238.362C142.78 238.362 143.264 238.088 143.515 237.539H146.231C146.026 238.335 145.536 238.986 144.762 239.492C143.999 239.998 143.087 240.251 142.028 240.251ZM140.115 234.988H143.566C143.52 234.493 143.344 234.1 143.036 233.809C142.74 233.519 142.364 233.373 141.909 233.373C140.918 233.373 140.32 233.912 140.115 234.988Z" fill="#272637"/>
<path d="M147.317 240.009V231.743H149.982V233.034H150.033C150.626 232.087 151.423 231.614 152.425 231.614C152.687 231.614 152.869 231.635 152.972 231.678V233.938H152.903C152.038 233.82 151.354 233.965 150.853 234.374C150.352 234.773 150.102 235.413 150.102 236.296V240.009H147.317Z" fill="#272637"/>
<path d="M159.978 240.106C159.089 240.106 158.4 239.939 157.911 239.605C157.432 239.261 157.193 238.669 157.193 237.829V233.39H156.031V231.743H157.193V229.127H159.909V231.743H161.498V233.39H159.909V237.264C159.909 237.566 159.989 237.776 160.149 237.894C160.319 238.012 160.564 238.072 160.883 238.072C160.974 238.072 161.094 238.072 161.242 238.072C161.39 238.061 161.475 238.055 161.498 238.055V239.977C161.179 240.063 160.673 240.106 159.978 240.106Z" fill="#272637"/>
<path d="M162.499 240.009V228.465H165.284V232.76H165.335C166.007 231.92 166.873 231.501 167.932 231.501C168.877 231.501 169.618 231.791 170.153 232.372C170.7 232.943 170.973 233.696 170.973 234.633V240.009H168.188V235.166C168.188 234.713 168.069 234.358 167.829 234.1C167.602 233.831 167.266 233.696 166.821 233.696C166.366 233.696 165.996 233.858 165.711 234.181C165.426 234.504 165.284 234.923 165.284 235.44V240.009H162.499Z" fill="#272637"/>
<path d="M176.513 240.251C175.101 240.251 173.968 239.842 173.114 239.024C172.271 238.195 171.85 237.141 171.85 235.86C171.85 234.611 172.265 233.573 173.097 232.744C173.939 231.915 175.021 231.501 176.343 231.501C177.539 231.501 178.535 231.845 179.332 232.534C180.38 233.438 180.893 234.778 180.87 236.554H174.583C174.674 237.124 174.885 237.571 175.215 237.894C175.545 238.206 175.99 238.362 176.548 238.362C177.265 238.362 177.749 238.088 178 237.539H180.716C180.511 238.335 180.021 238.986 179.247 239.492C178.484 239.998 177.573 240.251 176.513 240.251ZM174.6 234.988H178.051C178.005 234.493 177.829 234.1 177.521 233.809C177.225 233.519 176.849 233.373 176.394 233.373C175.403 233.373 174.805 233.912 174.6 234.988Z" fill="#272637"/>
<path d="M187.786 240.009L183.754 228.465H186.898L188.811 234.52L189.375 236.554H189.409C189.614 235.768 189.802 235.09 189.973 234.52L191.869 228.465H194.928L190.913 240.009H187.786Z" fill="#272637"/>
<path d="M195.771 240.009V228.465H198.795V240.009H195.771Z" fill="#272637"/>
<path d="M200.475 240.009V228.465H205.976C207.411 228.465 208.522 228.821 209.308 229.531C210.128 230.252 210.538 231.199 210.538 232.372C210.538 233.492 210.156 234.401 209.393 235.101C208.642 235.801 207.645 236.15 206.404 236.15H203.55V240.009H200.475ZM203.55 233.89H205.788C206.324 233.89 206.74 233.75 207.036 233.47C207.343 233.19 207.497 232.819 207.497 232.356C207.497 231.893 207.343 231.533 207.036 231.275C206.74 231.006 206.324 230.871 205.788 230.871H203.55V233.89Z" fill="#272637"/>
<path d="M217.006 237.716C217.325 238.168 217.781 238.395 218.373 238.395C218.965 238.395 219.421 238.168 219.74 237.716C220.07 237.264 220.235 236.656 220.235 235.892C220.235 235.128 220.07 234.52 219.74 234.068C219.421 233.605 218.965 233.373 218.373 233.373C217.781 233.373 217.325 233.599 217.006 234.052C216.687 234.504 216.528 235.117 216.528 235.892C216.528 236.656 216.687 237.264 217.006 237.716ZM221.756 239.024C220.901 239.853 219.78 240.267 218.39 240.267C217.001 240.267 215.873 239.853 215.007 239.024C214.142 238.195 213.709 237.151 213.709 235.892C213.709 234.633 214.142 233.589 215.007 232.76C215.873 231.931 217.001 231.517 218.39 231.517C219.78 231.517 220.901 231.931 221.756 232.76C222.621 233.589 223.054 234.633 223.054 235.892C223.054 237.151 222.621 238.195 221.756 239.024Z" fill="#272637"/>
<path d="M225.643 240.009L222.961 231.743H225.797L226.754 235.166L227.147 236.764H227.181C227.318 236.129 227.449 235.58 227.574 235.117L228.497 231.743H230.854L231.811 235.117L232.221 236.78H232.255C232.403 236.145 232.54 235.607 232.665 235.166L233.639 231.743H236.389L233.707 240.009H231.093L230.068 236.263L229.692 234.778H229.658C229.522 235.338 229.391 235.833 229.265 236.263L228.223 240.009H225.643Z" fill="#272637"/>
<path d="M237.042 240.009V231.743H239.724V232.873H239.776C240.448 231.958 241.347 231.501 242.475 231.501C243.42 231.501 244.16 231.791 244.696 232.372C245.242 232.943 245.516 233.696 245.516 234.633V240.009H242.731V235.166C242.731 234.713 242.611 234.358 242.372 234.1C242.145 233.831 241.809 233.696 241.364 233.696C240.909 233.696 240.539 233.858 240.254 234.181C239.969 234.504 239.827 234.923 239.827 235.44V240.009H237.042Z" fill="#272637"/>
<path d="M251.056 240.251C249.644 240.251 248.511 239.842 247.657 239.024C246.814 238.195 246.392 237.141 246.392 235.86C246.392 234.611 246.808 233.573 247.64 232.744C248.482 231.915 249.564 231.501 250.886 231.501C252.081 231.501 253.078 231.845 253.875 232.534C254.923 233.438 255.436 234.778 255.413 236.554H249.126C249.217 237.124 249.428 237.571 249.758 237.894C250.088 238.206 250.532 238.362 251.091 238.362C251.808 238.362 252.292 238.088 252.543 237.539H255.259C255.054 238.335 254.564 238.986 253.79 239.492C253.027 239.998 252.116 240.251 251.056 240.251ZM249.143 234.988H252.594C252.548 234.493 252.372 234.1 252.064 233.809C251.768 233.519 251.392 233.373 250.937 233.373C249.946 233.373 249.348 233.912 249.143 234.988Z" fill="#272637"/>
<path d="M256.345 240.009V231.743H259.01V233.034H259.062C259.654 232.087 260.451 231.614 261.453 231.614C261.715 231.614 261.897 231.635 262 231.678V233.938H261.932C261.066 233.82 260.383 233.965 259.882 234.374C259.38 234.773 259.13 235.413 259.13 236.296V240.009H256.345Z" fill="#272637"/>
<path d="M130.378 260C129.103 260 128.084 259.742 127.32 259.225C126.569 258.698 126.17 257.977 126.125 257.062H128.755C128.858 257.88 129.393 258.289 130.361 258.289C130.783 258.289 131.113 258.219 131.352 258.079C131.603 257.928 131.728 257.724 131.728 257.465C131.728 257.379 131.717 257.304 131.694 257.239C131.671 257.175 131.631 257.115 131.574 257.062C131.517 257.008 131.46 256.959 131.404 256.916C131.358 256.873 131.284 256.836 131.181 256.803C131.079 256.76 130.988 256.728 130.908 256.706C130.84 256.685 130.732 256.663 130.583 256.642C130.447 256.61 130.339 256.588 130.259 256.577C130.179 256.556 130.054 256.534 129.883 256.513C129.712 256.48 129.587 256.459 129.507 256.448C129.143 256.394 128.835 256.34 128.585 256.287C128.334 256.222 128.055 256.125 127.748 255.996C127.451 255.867 127.207 255.722 127.013 255.56C126.831 255.388 126.677 255.162 126.552 254.882C126.426 254.591 126.364 254.258 126.364 253.881C126.364 253.042 126.722 252.39 127.44 251.928C128.158 251.465 129.057 251.233 130.139 251.233C131.358 251.233 132.303 251.47 132.975 251.944C133.647 252.407 134.017 253.052 134.086 253.881H131.523C131.432 253.235 130.965 252.912 130.122 252.912C129.758 252.912 129.462 252.977 129.234 253.106C129.017 253.235 128.909 253.424 128.909 253.671C128.909 253.736 128.921 253.795 128.943 253.849C128.966 253.903 129 253.951 129.046 253.994C129.103 254.037 129.154 254.075 129.2 254.107C129.257 254.139 129.331 254.172 129.422 254.204C129.513 254.236 129.593 254.263 129.661 254.285C129.741 254.306 129.843 254.328 129.968 254.349C130.105 254.371 130.213 254.392 130.293 254.414C130.384 254.425 130.504 254.446 130.652 254.478C130.8 254.5 130.919 254.516 131.011 254.527C131.398 254.591 131.717 254.651 131.967 254.704C132.218 254.758 132.508 254.855 132.839 254.995C133.18 255.124 133.448 255.28 133.642 255.463C133.835 255.635 134 255.878 134.137 256.19C134.285 256.491 134.359 256.846 134.359 257.255C134.359 258.138 133.989 258.816 133.249 259.29C132.52 259.763 131.563 260 130.378 260Z" fill="#272637"/>
<path d="M138.481 259.839C137.592 259.839 136.903 259.672 136.414 259.338C135.935 258.994 135.696 258.402 135.696 257.562V253.122H134.534V251.475H135.696V248.86H138.412V251.475H140.001V253.122H138.412V256.997C138.412 257.298 138.492 257.508 138.652 257.627C138.822 257.745 139.067 257.804 139.386 257.804C139.477 257.804 139.597 257.804 139.745 257.804C139.893 257.794 139.978 257.788 140.001 257.788V259.709C139.682 259.795 139.176 259.839 138.481 259.839Z" fill="#272637"/>
<path d="M143.749 259.952C142.849 259.952 142.126 259.731 141.579 259.29C141.032 258.848 140.759 258.229 140.759 257.433C140.759 256.593 141.055 255.985 141.647 255.609C142.24 255.221 143.06 254.963 144.107 254.834C144.962 254.737 145.543 254.629 145.85 254.511C146.169 254.382 146.328 254.182 146.328 253.913C146.328 253.321 145.93 253.025 145.132 253.025C144.278 253.025 143.806 253.381 143.715 254.091H141.152C141.186 253.273 141.539 252.595 142.211 252.057C142.894 251.519 143.863 251.249 145.115 251.249C146.368 251.249 147.314 251.475 147.951 251.928C148.692 252.433 149.062 253.219 149.062 254.285V258.45C149.062 259.107 149.164 259.5 149.369 259.629V259.742H146.67C146.556 259.591 146.459 259.284 146.38 258.821H146.345C145.787 259.575 144.922 259.952 143.749 259.952ZM144.637 258.272C145.161 258.272 145.582 258.138 145.901 257.869C146.232 257.589 146.397 257.228 146.397 256.787V255.802C146.123 255.931 145.645 256.077 144.962 256.238C144.404 256.357 144.011 256.497 143.783 256.658C143.555 256.819 143.441 257.051 143.441 257.352C143.441 257.966 143.84 258.272 144.637 258.272Z" fill="#272637"/>
<path d="M153.713 259.839C152.825 259.839 152.136 259.672 151.646 259.338C151.167 258.994 150.928 258.402 150.928 257.562V253.122H149.767V251.475H150.928V248.86H153.645V251.475H155.234V253.122H153.645V256.997C153.645 257.298 153.724 257.508 153.884 257.627C154.055 257.745 154.3 257.804 154.618 257.804C154.71 257.804 154.829 257.804 154.977 257.804C155.125 257.794 155.211 257.788 155.234 257.788V259.709C154.915 259.795 154.408 259.839 153.713 259.839Z" fill="#272637"/>
<path d="M159.241 259.984C158.25 259.984 157.487 259.709 156.952 259.16C156.428 258.601 156.166 257.847 156.166 256.9V251.475H158.934V256.351C158.934 257.288 159.372 257.756 160.249 257.756C160.728 257.756 161.103 257.605 161.377 257.304C161.65 256.992 161.787 256.588 161.787 256.093V251.475H164.571V259.742H161.906V258.725H161.855C161.194 259.564 160.323 259.984 159.241 259.984Z" fill="#272637"/>
<path d="M169.635 260C168.36 260 167.34 259.742 166.577 259.225C165.826 258.698 165.427 257.977 165.381 257.062H168.012C168.115 257.88 168.65 258.289 169.618 258.289C170.04 258.289 170.37 258.219 170.609 258.079C170.86 257.928 170.985 257.724 170.985 257.465C170.985 257.379 170.974 257.304 170.951 257.239C170.928 257.175 170.888 257.115 170.831 257.062C170.774 257.008 170.717 256.959 170.66 256.916C170.615 256.873 170.541 256.836 170.438 256.803C170.336 256.76 170.245 256.728 170.165 256.706C170.097 256.685 169.988 256.663 169.84 256.642C169.704 256.61 169.595 256.588 169.516 256.577C169.436 256.556 169.311 256.534 169.14 256.513C168.969 256.48 168.844 256.459 168.764 256.448C168.4 256.394 168.092 256.34 167.841 256.287C167.591 256.222 167.312 256.125 167.004 255.996C166.708 255.867 166.463 255.722 166.27 255.56C166.088 255.388 165.934 255.162 165.808 254.882C165.683 254.591 165.621 254.258 165.621 253.881C165.621 253.042 165.979 252.39 166.697 251.928C167.414 251.465 168.314 251.233 169.396 251.233C170.615 251.233 171.56 251.47 172.232 251.944C172.904 252.407 173.274 253.052 173.343 253.881H170.78C170.689 253.235 170.222 252.912 169.379 252.912C169.015 252.912 168.718 252.977 168.491 253.106C168.274 253.235 168.166 253.424 168.166 253.671C168.166 253.736 168.177 253.795 168.2 253.849C168.223 253.903 168.257 253.951 168.303 253.994C168.36 254.037 168.411 254.075 168.457 254.107C168.513 254.139 168.587 254.172 168.679 254.204C168.77 254.236 168.849 254.263 168.918 254.285C168.997 254.306 169.1 254.328 169.225 254.349C169.362 254.371 169.47 254.392 169.55 254.414C169.641 254.425 169.761 254.446 169.909 254.478C170.057 254.5 170.176 254.516 170.267 254.527C170.655 254.591 170.974 254.651 171.224 254.704C171.475 254.758 171.765 254.855 172.095 254.995C172.437 255.124 172.705 255.28 172.898 255.463C173.092 255.635 173.257 255.878 173.394 256.19C173.542 256.491 173.616 256.846 173.616 257.255C173.616 258.138 173.246 258.816 172.505 259.29C171.777 259.763 170.82 260 169.635 260Z" fill="#272637"/>
<path d="M174.484 259.742V257.029H177.405V259.742H174.484Z" fill="#272637"/>
<g filter="url(#filter0_d_678_35)">
<path d="M53.468 127.72C52.0337 129.216 50.1405 129.964 47.7882 129.964C45.436 129.964 43.5499 129.216 42.1299 127.72C40.71 126.209 40 124.282 40 121.937C40 119.592 40.71 117.664 42.1299 116.154C43.5499 114.643 45.436 113.888 47.7882 113.888C50.1405 113.888 52.0337 114.643 53.468 116.154C54.9023 117.664 55.6195 119.592 55.6195 121.937C55.6195 124.282 54.9023 126.209 53.468 127.72ZM45.4001 125.13C45.9595 125.95 46.7627 126.36 47.8097 126.36C48.8568 126.36 49.66 125.95 50.2193 125.13C50.7787 124.31 51.0584 123.246 51.0584 121.937C51.0584 120.628 50.7787 119.563 50.2193 118.743C49.66 117.909 48.8568 117.492 47.8097 117.492C46.7627 117.492 45.9595 117.909 45.4001 118.743C44.8407 119.563 44.5611 120.628 44.5611 121.937C44.5611 123.246 44.8407 124.31 45.4001 125.13Z" fill="#272637"/>
<path d="M56.8643 129.597V114.169H61.3608L66.3952 122.843H66.4382V114.169H70.7841V129.597H66.137L61.2532 120.858H61.2102V129.597H56.8643Z" fill="#272637"/>
<path d="M72.6429 129.597V114.169H77.1394V125.735H83.7228V129.597H72.6429Z" fill="#272637"/>
<path d="M87.0727 129.597V124.181L81.8017 114.169H86.6854L88.3205 117.6C88.4926 117.945 88.6648 118.326 88.8369 118.743C89.009 119.16 89.1381 119.484 89.2241 119.714L89.3532 120.081H89.3962C89.7261 119.204 90.0775 118.376 90.4504 117.6L92.0855 114.169H96.8617L91.5692 124.181V129.597H87.0727Z" fill="#272637"/>
<path d="M104.692 129.597V119.578H101.178V116.129C102.433 116.078 103.478 115.717 104.315 115.046C105.169 114.358 105.721 113.41 105.972 112.201H109.712V129.597H104.692Z" fill="#272637"/>
<path d="M119.549 130C117.24 130 115.324 129.178 113.801 127.533C112.295 125.888 111.542 123.715 111.542 121.013C111.542 118.31 112.287 116.137 113.776 114.492C115.282 112.831 117.206 112 119.549 112C121.959 112 123.9 112.822 125.372 114.467C126.862 116.112 127.606 118.294 127.606 121.013C127.606 123.715 126.853 125.888 125.347 127.533C123.841 129.178 121.908 130 119.549 130ZM116.688 121.013C116.688 124.52 117.65 126.274 119.574 126.274C121.498 126.274 122.461 124.52 122.461 121.013C122.461 119.368 122.226 118.067 121.758 117.11C121.289 116.154 120.561 115.676 119.574 115.676C118.587 115.676 117.859 116.154 117.39 117.11C116.922 118.067 116.688 119.368 116.688 121.013Z" fill="#272637"/>
<path d="M136.462 130C134.153 130 132.237 129.178 130.714 127.533C129.208 125.888 128.455 123.715 128.455 121.013C128.455 118.31 129.2 116.137 130.689 114.492C132.195 112.831 134.119 112 136.462 112C138.872 112 140.813 112.822 142.285 114.467C143.775 116.112 144.519 118.294 144.519 121.013C144.519 123.715 143.766 125.888 142.26 127.533C140.754 129.178 138.822 130 136.462 130ZM133.601 121.013C133.601 124.52 134.563 126.274 136.487 126.274C138.412 126.274 139.374 124.52 139.374 121.013C139.374 119.368 139.14 118.067 138.671 117.11C138.202 116.154 137.475 115.676 136.487 115.676C135.5 115.676 134.772 116.154 134.304 117.11C133.835 118.067 133.601 119.368 133.601 121.013Z" fill="#272637"/>
<path d="M153.375 130C151.066 130 149.15 129.178 147.627 127.533C146.121 125.888 145.368 123.715 145.368 121.013C145.368 118.31 146.113 116.137 147.602 114.492C149.108 112.831 151.033 112 153.375 112C155.785 112 157.726 112.822 159.199 114.467C160.688 116.112 161.433 118.294 161.433 121.013C161.433 123.715 160.68 125.888 159.174 127.533C157.667 129.178 155.735 130 153.375 130ZM150.514 121.013C150.514 124.52 151.476 126.274 153.4 126.274C155.325 126.274 156.287 124.52 156.287 121.013C156.287 119.368 156.053 118.067 155.584 117.11C155.116 116.154 154.388 115.676 153.4 115.676C152.413 115.676 151.685 116.154 151.217 117.11C150.748 118.067 150.514 119.368 150.514 121.013Z" fill="#272637"/>
<path d="M166.53 129.597V114.169H171.027V129.597H166.53Z" fill="#272637"/>
<path d="M172.875 129.597V114.169H177.372L182.406 122.843H182.449V114.169H186.795V129.597H182.148L177.264 120.858H177.221V129.597H172.875Z" fill="#272637"/>
<path d="M195.596 129.597V119.578H192.082V116.129C193.337 116.078 194.382 115.717 195.219 115.046C196.073 114.358 196.625 113.41 196.876 112.201H200.616V129.597H195.596Z" fill="#272637"/>
<path d="M210.453 130C208.144 130 206.228 129.178 204.705 127.533C203.199 125.888 202.446 123.715 202.446 121.013C202.446 118.31 203.191 116.137 204.68 114.492C206.186 112.831 208.11 112 210.453 112C212.863 112 214.804 112.822 216.276 114.467C217.765 116.112 218.51 118.294 218.51 121.013C218.51 123.715 217.757 125.888 216.251 127.533C214.745 129.178 212.812 130 210.453 130ZM207.592 121.013C207.592 124.52 208.554 126.274 210.478 126.274C212.402 126.274 213.365 124.52 213.365 121.013C213.365 119.368 213.13 118.067 212.662 117.11C212.193 116.154 211.465 115.676 210.478 115.676C209.491 115.676 208.763 116.154 208.294 117.11C207.826 118.067 207.592 119.368 207.592 121.013Z" fill="#272637"/>
<path d="M231.116 130C228.807 130 226.891 129.178 225.369 127.533C223.863 125.888 223.11 123.715 223.11 121.013C223.11 118.31 223.854 116.137 225.343 114.492C226.849 112.831 228.774 112 231.116 112C233.526 112 235.467 112.822 236.94 114.467C238.429 116.112 239.174 118.294 239.174 121.013C239.174 123.715 238.421 125.888 236.915 127.533C235.409 129.178 233.476 130 231.116 130ZM228.255 121.013C228.255 124.52 229.217 126.274 231.142 126.274C233.066 126.274 234.028 124.52 234.028 121.013C234.028 119.368 233.794 118.067 233.325 117.11C232.857 116.154 232.129 115.676 231.142 115.676C230.154 115.676 229.426 116.154 228.958 117.11C228.489 118.067 228.255 119.368 228.255 121.013Z" fill="#272637"/>
<path d="M248.03 130C245.72 130 243.804 129.178 242.282 127.533C240.776 125.888 240.023 123.715 240.023 121.013C240.023 118.31 240.767 116.137 242.257 114.492C243.763 112.831 245.687 112 248.03 112C250.439 112 252.38 112.822 253.853 114.467C255.342 116.112 256.087 118.294 256.087 121.013C256.087 123.715 255.334 125.888 253.828 127.533C252.322 129.178 250.389 130 248.03 130ZM245.168 121.013C245.168 124.52 246.13 126.274 248.055 126.274C249.979 126.274 250.941 124.52 250.941 121.013C250.941 119.368 250.707 118.067 250.238 117.11C249.77 116.154 249.042 115.676 248.055 115.676C247.067 115.676 246.34 116.154 245.871 117.11C245.403 118.067 245.168 119.368 245.168 121.013Z" fill="#272637"/>
<path d="M264.943 130C262.634 130 260.718 129.178 259.195 127.533C257.689 125.888 256.936 123.715 256.936 121.013C256.936 118.31 257.681 116.137 259.17 114.492C260.676 112.831 262.6 112 264.943 112C267.352 112 269.294 112.822 270.766 114.467C272.255 116.112 273 118.294 273 121.013C273 123.715 272.247 125.888 270.741 127.533C269.235 129.178 267.302 130 264.943 130ZM262.081 121.013C262.081 124.52 263.044 126.274 264.968 126.274C266.892 126.274 267.854 124.52 267.854 121.013C267.854 119.368 267.62 118.067 267.152 117.11C266.683 116.154 265.955 115.676 264.968 115.676C263.981 115.676 263.253 116.154 262.784 117.11C262.316 118.067 262.081 119.368 262.081 121.013Z" fill="#272637"/>
</g>
<defs>
<filter id="filter0_d_678_35" x="36" y="112" width="241" height="26" filterUnits="userSpaceOnUse" color-interpolation-filters="sRGB">
<feFlood flood-opacity="0" result="BackgroundImageFix"/>
<feColorMatrix in="SourceAlpha" type="matrix" values="0 0 0 0 0 0 0 0 0 0 0 0 0 0 0 0 0 0 127 0" result="hardAlpha"/>
<feOffset dy="4"/>
<feGaussianBlur stdDeviation="2"/>
<feComposite in2="hardAlpha" operator="out"/>
<feColorMatrix type="matrix" values="0 0 0 0 0 0 0 0 0 0 0 0 0 0 0 0 0 0 0.25 0"/>
<feBlend mode="normal" in2="BackgroundImageFix" result="effect1_dropShadow_678_35"/>
<feBlend mode="normal" in="SourceGraphic" in2="effect1_dropShadow_678_35" result="shape"/>
</filter>
</defs>
</svg>
