<?xml version="1.0" standalone="no"?>
<!DOCTYPE svg PUBLIC "-//W3C//DTD SVG 20010904//EN"
 "http://www.w3.org/TR/2001/REC-SVG-20010904/DTD/svg10.dtd">
<svg version="1.0" xmlns="http://www.w3.org/2000/svg"
 width="576.000000pt" height="576.000000pt" viewBox="0 0 576.000000 576.000000"
 preserveAspectRatio="xMidYMid meet">
<metadata>
Created by potrace 1.14, written by Peter Selinger 2001-2017
</metadata>
<g transform="translate(0.000000,576.000000) scale(0.100000,-0.100000)"
fill="#000000" stroke="none">
<path d="M2717 4014 c-1 -1 -58 -5 -127 -8 -69 -4 -143 -9 -165 -11 -76 -6
-150 -14 -185 -20 -19 -2 -55 -7 -80 -10 -25 -2 -56 -6 -70 -9 -46 -9 -105
-18 -125 -20 -11 -1 -26 -5 -32 -9 -7 -5 -13 -6 -13 -2 0 3 -9 1 -20 -5 -14
-8 -20 -8 -20 0 0 7 -6 8 -17 1 -16 -8 -84 -24 -159 -37 -16 -3 -38 -8 -49
-11 -11 -4 -24 -8 -30 -9 -5 -1 -30 -7 -55 -13 -25 -7 -56 -14 -70 -17 -35 -6
-129 -34 -165 -47 -16 -7 -32 -12 -35 -13 -34 -6 -139 -97 -140 -121 0 -6 -4
-13 -9 -15 -15 -5 -128 -248 -148 -318 -12 -40 -19 -95 -18 -142 0 -43 -2 -78
-5 -78 -3 0 -6 -60 -6 -133 -1 -72 -4 -217 -8 -322 -4 -104 -8 -232 -10 -284
l-3 -95 47 -45 c26 -25 53 -50 61 -56 55 -38 178 -99 192 -96 15 3 48 -20 42
-30 -4 -5 -2 -9 3 -9 5 0 9 -7 9 -15 0 -10 -6 -13 -18 -10 -9 3 -20 2 -23 -3
-3 -5 9 -8 27 -7 18 2 39 -1 47 -5 11 -6 16 -3 16 9 0 10 -6 18 -13 18 -7 0
-10 -4 -7 -9 3 -4 -3 -5 -12 -1 -12 4 -14 8 -6 11 10 3 10 7 2 17 -9 10 -7 13
7 10 10 -2 20 -4 23 -5 3 -1 8 -2 12 -1 4 0 5 -8 3 -19 -6 -30 18 -43 37 -20
9 10 13 22 10 26 -4 4 4 0 17 -9 13 -8 30 -13 37 -10 8 3 14 1 14 -5 0 -10
-42 -11 -50 -1 -3 4 -14 -5 -25 -20 -17 -24 -18 -25 0 -11 21 17 57 20 67 5 5
-6 8 -6 8 2 0 6 9 10 19 8 15 -3 19 1 16 16 -2 11 0 17 6 14 5 -4 7 -11 4 -16
-9 -13 9 -11 24 4 11 10 13 10 7 0 -5 -9 3 -13 28 -13 19 0 42 -3 52 -7 11 -4
15 -3 10 5 -3 6 -2 14 4 17 6 4 9 1 8 -7 -2 -7 3 -12 10 -10 17 3 54 -17 48
-27 -3 -4 1 -8 8 -8 7 0 13 6 13 13 0 7 -4 11 -9 8 -15 -9 -8 3 9 17 9 8 14 9
10 3 -4 -7 3 -14 18 -18 14 -4 24 -10 21 -15 -3 -4 1 -8 9 -8 12 0 12 4 -2 20
-17 19 -17 20 2 10 11 -5 34 -9 52 -8 21 1 30 -2 27 -9 -3 -6 4 0 15 13 12 13
21 18 21 12 0 -7 5 -9 10 -6 6 3 10 1 10 -5 0 -7 -7 -9 -16 -6 -10 4 -13 2 -8
-6 5 -7 3 -8 -6 -3 -9 5 -11 4 -6 -3 8 -14 41 0 50 20 3 7 3 3 0 -9 -5 -22 -5
-22 28 -5 40 20 58 23 58 11 0 -6 5 -7 10 -4 6 3 13 -1 16 -9 3 -9 10 -16 15
-16 6 0 6 7 0 18 -7 14 -6 19 4 19 8 0 14 -3 13 -6 -2 -19 3 -31 13 -31 6 0 9
6 6 13 -5 14 30 16 52 3 11 -7 11 -10 0 -17 -8 -5 -9 -9 -3 -9 6 0 23 11 38
25 23 21 26 22 21 6 -10 -32 23 -34 52 -3 18 19 23 21 15 6 -9 -16 -7 -22 10
-33 11 -7 17 -8 13 -2 -3 6 -2 11 4 11 5 0 8 9 6 20 -4 18 -2 19 19 5 12 -8
26 -12 29 -8 4 3 7 1 7 -5 0 -15 -5 -15 -33 -1 -21 10 -21 10 -3 -5 26 -21 33
-20 46 4 6 11 16 20 23 20 7 0 8 -3 2 -8 -21 -15 -12 -28 19 -27 22 0 32 4 29
12 -4 9 -10 10 -24 2 -10 -5 -19 -7 -19 -5 0 3 9 10 19 16 15 7 23 6 35 -6 9
-9 14 -20 11 -25 -4 -5 -2 -9 3 -9 6 0 13 7 16 16 3 8 2 13 -2 10 -5 -3 -9 1
-9 9 0 10 4 12 12 5 7 -5 16 -6 20 -2 5 4 5 1 1 -5 -4 -8 -1 -13 9 -13 9 0 14
4 10 9 -3 5 0 13 6 17 8 4 9 3 5 -4 -8 -13 28 -12 40 1 4 4 12 7 18 7 7 0 7
-3 -1 -8 -8 -5 -8 -12 3 -26 8 -11 14 -14 14 -7 0 7 5 9 12 5 7 -4 8 -3 4 5
-4 6 -13 8 -19 5 -7 -4 -9 -3 -5 1 13 14 76 14 82 -1 3 -8 15 -11 31 -8 19 3
24 1 19 -7 -5 -8 -3 -9 5 -4 9 5 10 10 2 18 -6 6 -11 16 -11 21 0 6 9 -2 20
-19 11 -16 20 -24 20 -17 0 6 5 12 11 12 5 0 7 -6 3 -12 -6 -10 -4 -10 7 0 16
15 33 16 23 0 -5 -7 -3 -8 5 -3 9 5 10 10 2 18 -6 6 -11 16 -11 21 0 6 9 -2
20 -19 11 -16 20 -24 20 -17 0 6 7 12 15 12 8 0 15 -5 15 -11 0 -6 7 -3 16 5
8 9 12 22 9 28 -4 7 1 4 10 -7 9 -11 23 -19 31 -17 8 2 14 -3 14 -9 0 -7 3 -9
7 -6 3 4 13 1 21 -6 13 -10 14 -9 7 3 -5 8 -10 23 -10 33 -2 18 -1 18 14 -1
10 -12 24 -18 39 -16 16 3 21 0 16 -8 -5 -7 -3 -8 5 -3 9 5 10 10 2 18 -6 6
-11 16 -11 21 0 6 9 -2 20 -19 11 -16 20 -24 20 -17 0 7 5 10 10 7 6 -3 10 -1
10 5 0 7 -6 10 -13 7 -8 -3 -14 1 -14 9 0 19 1 19 44 -18 21 -18 32 -26 26
-17 -7 9 -9 20 -5 24 4 5 1 5 -7 0 -10 -5 -12 -4 -7 4 4 6 11 9 16 6 4 -3 10
0 12 7 3 7 7 5 11 -6 5 -12 3 -15 -6 -10 -7 5 -7 1 2 -10 20 -24 39 -4 21 21
-12 15 -12 16 0 6 11 -10 18 -9 34 5 16 13 18 13 8 1 -6 -9 -8 -20 -4 -24 4
-5 2 -5 -4 -2 -6 3 -11 0 -11 -7 0 -8 6 -12 14 -9 7 3 13 11 13 18 0 8 4 16 9
19 4 3 7 -6 5 -19 -1 -14 2 -23 7 -19 5 3 7 10 3 15 -3 6 5 7 23 3 26 -7 27
-6 13 11 -9 11 -10 16 -3 11 7 -4 21 -9 30 -11 10 -2 26 -6 36 -10 10 -4 17
-3 17 4 0 6 -4 11 -10 11 -5 0 -10 5 -10 11 0 8 5 7 15 -1 9 -7 14 -19 11 -27
-3 -7 -1 -13 4 -13 6 0 10 9 10 19 0 25 12 33 30 19 13 -8 12 -9 -1 -5 -12 4
-16 -1 -16 -20 0 -21 1 -23 9 -9 7 12 14 14 28 6 24 -13 30 -13 30 1 0 5 -4 8
-9 4 -5 -3 -12 -1 -15 4 -4 5 -2 12 4 16 6 4 7 12 4 18 -4 7 -3 8 2 4 5 -5 9
-13 9 -18 0 -5 3 -9 8 -9 4 0 21 -7 38 -16 17 -8 28 -11 25 -5 -9 14 0 14 24
1 16 -8 18 -7 15 10 -2 11 1 23 7 26 6 4 8 3 5 -2 -3 -6 -2 -16 4 -24 6 -10 9
-11 9 -2 0 6 4 12 10 12 5 0 7 -8 4 -17 -5 -14 -4 -15 4 -4 8 11 12 10 22 -5
8 -14 10 -14 7 -3 -7 22 33 41 56 27 10 -5 14 -14 10 -21 -4 -7 1 -5 12 3 10
8 21 15 24 15 3 0 5 6 3 13 -2 8 2 12 10 10 7 -3 12 -15 10 -26 -2 -12 2 -22
7 -22 6 0 10 3 10 8 -4 22 3 31 18 25 10 -4 14 -2 9 5 -3 6 -2 14 4 17 6 4 10
3 9 -2 -1 -4 -1 -17 0 -28 2 -18 3 -18 12 4 6 14 15 21 23 18 8 -3 16 -1 19 6
2 6 6 4 10 -5 4 -13 1 -16 -19 -12 -18 3 -24 0 -24 -13 0 -10 4 -14 8 -8 10
14 32 17 32 5 0 -6 6 -5 14 2 8 7 12 16 10 20 -2 4 1 10 7 14 8 4 9 3 5 -5 -4
-6 0 -14 11 -18 10 -4 21 -11 25 -17 5 -7 8 -7 8 2 0 7 5 10 10 7 6 -3 10 -1
10 5 0 7 -7 9 -16 6 -9 -3 -12 -2 -9 5 4 5 12 8 18 6 7 -2 24 0 40 4 16 5 25
4 22 -2 -4 -5 -4 -13 0 -19 7 -11 35 -2 35 12 0 6 -8 4 -17 -3 -16 -13 -17
-12 -4 4 10 13 17 15 27 6 8 -6 11 -16 7 -22 -3 -6 -1 -7 6 -3 7 4 9 17 6 29
-5 16 -4 18 3 8 6 -7 15 -10 22 -6 7 4 4 -5 -5 -21 -10 -17 -11 -22 -2 -11 16
19 32 24 21 5 -4 -6 -3 -8 4 -5 5 4 8 17 6 30 -2 12 -1 16 2 9 4 -9 10 -10 19
-2 9 7 16 6 25 -4 10 -13 8 -15 -9 -11 -12 2 -21 0 -21 -6 0 -10 28 -8 48 4
11 8 17 -4 13 -26 -1 -5 3 -6 8 -2 6 3 7 13 4 23 -6 15 -5 16 13 2 18 -14 18
-14 5 2 -7 10 -17 15 -22 12 -5 -3 -9 0 -9 6 0 7 8 9 21 5 14 -5 19 -4 15 4
-5 7 -1 9 8 5 9 -3 16 -10 16 -16 0 -5 -4 -6 -10 -3 -6 4 -7 -1 -3 -11 6 -15
7 -15 15 1 9 15 11 15 31 -2 18 -15 19 -15 8 -1 -7 9 -9 23 -5 29 5 9 2 10
-12 5 -10 -4 -15 -3 -10 1 10 11 66 12 60 1 -3 -4 4 -8 15 -8 13 0 19 -5 15
-14 -7 -18 12 -30 22 -15 5 8 3 9 -6 4 -10 -6 -12 -4 -7 10 5 11 1 22 -10 31
-17 13 -17 14 0 8 9 -3 17 -1 17 4 0 6 9 9 20 7 11 -2 20 1 20 7 0 5 7 7 15 4
9 -3 18 1 21 8 6 14 33 14 57 0 8 -5 8 -2 -2 9 -12 15 -11 17 7 17 11 0 22 3
24 8 2 4 19 15 38 26 58 31 158 110 168 131 5 11 7 54 6 95 -1 41 -5 149 -8
240 -3 91 -8 244 -11 340 -8 235 -12 331 -18 355 -3 11 -8 34 -12 50 -4 17
-11 35 -15 40 -4 6 -16 33 -26 60 -27 73 -103 207 -147 260 -38 45 -119 95
-155 95 -10 0 -22 3 -26 7 -3 4 -12 8 -19 10 -7 1 -84 20 -172 42 -88 22 -171
42 -185 45 -14 2 -50 10 -80 16 -30 7 -64 13 -75 15 -11 2 -51 9 -90 15 -83
14 -106 18 -160 24 -22 3 -53 7 -70 10 -47 8 -192 21 -345 32 -79 5 -468 12
-473 8z m-1323 -2009 c-4 -8 -11 -12 -17 -8 -8 5 -7 8 1 11 7 2 9 9 6 14 -4 7
-2 8 4 4 6 -4 9 -13 6 -21z m788 -37 c-7 -7 -12 -8 -12 -2 0 6 3 14 7 17 3 4
9 5 12 2 2 -3 -1 -11 -7 -17z m625 4 c-1 -19 -34 -25 -34 -6 0 7 6 10 14 7 7
-3 13 0 13 6 0 6 2 11 4 11 3 0 4 -8 3 -18z m761 5 c8 -10 6 -13 -7 -13 -11 0
-17 6 -14 13 3 7 6 13 8 13 1 0 7 -6 13 -13z m94 -9 c-7 -7 -12 -8 -12 -2 0
14 12 26 19 19 2 -3 -1 -11 -7 -17z m101 9 c3 -8 -1 -14 -8 -14 -7 0 -11 6 -8
14 3 7 6 13 8 13 2 0 5 -6 8 -13z m-1513 -12 c-7 -9 -15 -13 -19 -10 -3 3 1
10 9 15 21 14 24 12 10 -5z m650 -4 c0 -3 -10 -6 -23 -6 -13 0 -24 5 -24 11 0
6 11 9 24 6 13 -2 23 -7 23 -11z m85 -1 c3 -5 2 -10 -4 -10 -5 0 -13 5 -16 10
-3 6 -2 10 4 10 5 0 13 -4 16 -10z"/>
<path d="M1175 2070 c-3 -6 0 -13 8 -16 9 -3 13 -17 12 -40 -2 -26 0 -32 10
-24 6 5 15 7 18 3 4 -3 7 -1 7 6 0 8 -6 11 -16 7 -10 -4 -14 -1 -12 6 3 7 15
14 27 14 17 1 20 -3 16 -20 l-6 -21 13 21 c7 12 20 19 28 16 9 -2 7 2 -5 12
l-20 16 20 -6 c19 -5 19 -5 1 6 -10 7 -21 8 -25 3 -11 -15 -75 2 -66 18 4 5 4
9 1 9 -3 0 -8 -5 -11 -10z"/>
<path d="M1084 2038 c-13 -16 -14 -19 -2 -10 13 10 17 10 21 0 3 -7 4 -3 4 10
-1 12 -2 22 -3 22 0 0 -9 -10 -20 -22z"/>
<path d="M4504 2051 c-3 -3 -10 -7 -15 -7 -5 -1 -11 -3 -14 -4 -7 -4 -23 -7
-37 -9 -10 -1 -10 -3 0 -10 8 -4 13 -11 12 -15 0 -3 4 -14 9 -24 6 -9 11 -12
11 -6 0 5 -6 16 -12 23 -11 11 -10 13 4 8 13 -4 15 -2 11 10 -4 10 -2 14 4 10
6 -4 18 -1 25 7 13 12 16 11 26 -5 7 -10 18 -19 25 -19 7 0 3 7 -7 15 -11 8
-17 18 -13 21 4 4 13 1 22 -6 10 -8 15 -9 15 -1 0 6 -3 12 -7 12 -31 5 -53 5
-59 0z"/>
<path d="M4588 2053 c10 -4 9 -9 -4 -24 -22 -25 -10 -25 15 0 17 17 17 20 4
25 -8 3 -18 6 -21 5 -4 0 -1 -3 6 -6z"/>
<path d="M4652 2050 c4 -14 55 -23 63 -10 2 4 -8 6 -23 5 -15 -1 -31 3 -35 9
-6 7 -7 6 -5 -4z"/>
<path d="M1150 2040 c-11 -7 -11 -10 -2 -10 7 0 10 -4 7 -10 -4 -6 1 -7 11 -3
11 4 13 8 6 11 -7 2 -10 8 -6 13 7 11 3 11 -16 -1z"/>
<path d="M4630 2023 c0 -5 5 -15 10 -23 7 -12 9 -10 7 8 -1 19 -17 33 -17 15z"/>
<path d="M4356 2012 c-3 -6 -1 -14 5 -17 14 -9 20 -2 10 14 -6 8 -11 9 -15 3z"/>
<path d="M4500 2010 c-12 -7 -10 -9 7 -7 12 0 19 5 17 9 -6 10 -6 10 -24 -2z"/>
<path d="M1153 1985 c0 -8 4 -12 9 -9 5 3 6 10 3 15 -9 13 -12 11 -12 -6z"/>
<path d="M1535 1979 c-6 -8 -4 -10 5 -4 10 6 12 4 6 -11 -6 -15 -5 -17 5 -6 9
9 10 15 2 23 -8 8 -13 7 -18 -2z"/>
<path d="M1578 1962 c2 -7 8 -9 11 -4 3 5 13 12 21 15 8 3 3 5 -11 4 -18 -1
-25 -6 -21 -15z"/>
<path d="M1640 1970 c-9 -6 -10 -10 -3 -10 6 0 15 5 18 10 8 12 4 12 -15 0z"/>
<path d="M1675 1969 c-4 -5 -4 -13 -1 -16 3 -4 6 0 6 8 0 11 2 11 10 -1 6 -9
10 -10 10 -3 0 17 -17 25 -25 12z"/>
<path d="M1996 1973 c-12 -12 -6 -25 8 -20 8 3 17 1 20 -6 2 -7 5 -5 5 4 1 17
-22 32 -33 22z"/>
<path d="M4025 1969 c-4 -6 -4 -13 -1 -16 3 -4 6 -1 6 7 0 10 3 10 15 0 13
-11 14 -10 9 4 -7 18 -20 21 -29 5z"/>
<path d="M1430 1966 c0 -2 7 -7 16 -10 8 -3 12 -2 9 4 -6 10 -25 14 -25 6z"/>
<path d="M1750 1960 c0 -5 5 -10 11 -10 5 0 7 5 4 10 -3 6 -8 10 -11 10 -2 0
-4 -4 -4 -10z"/>
<path d="M1830 1956 c7 -7 13 -7 20 0 6 6 3 10 -10 10 -13 0 -16 -4 -10 -10z"/>
<path d="M2130 1960 c-9 -6 -10 -10 -3 -10 6 0 15 5 18 10 8 12 4 12 -15 0z"/>
<path d="M3699 1968 c0 -2 -2 -11 -4 -21 -3 -15 -1 -16 11 -6 7 6 11 15 8 20
-5 9 -13 12 -15 7z"/>
<path d="M3934 1959 c-3 -6 -3 -13 0 -16 3 -4 6 -1 6 5 0 6 7 9 15 6 8 -4 15
-4 15 -1 0 11 -30 16 -36 6z"/>
<path d="M2546 1944 c-11 -8 -16 -14 -10 -14 13 0 39 18 34 24 -3 2 -14 -2
-24 -10z"/>
<path d="M2583 1945 c0 -8 4 -12 9 -9 5 3 6 10 3 15 -9 13 -12 11 -12 -6z"/>
<path d="M2663 1953 c-20 -8 -15 -19 10 -20 12 0 16 1 9 4 -6 3 -10 9 -6 14 6
10 5 10 -13 2z"/>
<path d="M3335 1949 c-4 -6 -4 -13 -1 -16 3 -4 6 -1 6 6 0 7 5 9 12 5 7 -4 8
-3 4 4 -9 15 -13 15 -21 1z"/>
<path d="M1868 1943 c7 -3 16 -2 19 1 4 3 -2 6 -13 5 -11 0 -14 -3 -6 -6z"/>
</g>
</svg>
