<?xml version="1.0" standalone="no"?>
<!DOCTYPE svg PUBLIC "-//W3C//DTD SVG 20010904//EN"
 "http://www.w3.org/TR/2001/REC-SVG-20010904/DTD/svg10.dtd">
<svg version="1.0" xmlns="http://www.w3.org/2000/svg"
 width="814.000000pt" height="814.000000pt" viewBox="0 0 814.000000 814.000000"
 preserveAspectRatio="xMidYMid meet">
<metadata>
Created by potrace 1.14, written by Peter Selinger 2001-2017
</metadata>
<g transform="translate(0.000000,814.000000) scale(0.100000,-0.100000)"
fill="#000000" stroke="none">
<path d="M4440 6366 c-3 -2 -32 -7 -65 -10 -54 -6 -146 -18 -230 -31 -16 -3
-61 -11 -100 -19 -38 -8 -88 -17 -110 -20 -111 -18 -273 -76 -402 -146 -189
-102 -473 -312 -661 -490 -23 -22 -23 -22 -29 -2 -7 27 -44 38 -115 37 -47 -1
-65 -6 -99 -30 -49 -35 -97 -118 -81 -138 6 -7 9 -22 6 -34 -4 -15 3 -25 30
-41 20 -12 36 -26 36 -31 0 -17 -19 -26 -80 -36 -14 -2 -59 -11 -100 -20 -41
-9 -86 -19 -100 -21 -57 -11 -299 -66 -355 -80 -33 -9 -67 -17 -76 -19 -73
-14 -359 -95 -500 -140 -366 -118 -426 -142 -546 -222 -56 -36 -217 -190 -277
-263 -76 -94 -77 -98 -83 -242 -3 -73 -8 -135 -12 -138 -11 -8 -67 -84 -79
-106 -15 -29 -21 -64 -27 -164 -3 -47 -9 -107 -12 -135 -9 -74 -6 -154 7 -169
29 -36 66 -124 59 -142 -21 -53 -3 -140 38 -184 24 -26 29 -40 14 -40 -5 0
-19 -24 -31 -52 -19 -43 -24 -72 -24 -151 -1 -53 2 -97 5 -97 8 0 33 -53 30
-65 -2 -5 0 -7 4 -3 4 4 16 -2 28 -13 20 -19 47 -23 134 -19 22 1 59 -4 80
-10 35 -11 39 -16 40 -45 1 -25 -3 -32 -13 -28 -8 3 -11 10 -7 16 3 6 1 7 -6
3 -13 -9 -7 -22 17 -35 14 -8 18 -5 19 12 1 12 7 23 13 25 5 2 10 8 10 14 0 6
-7 4 -17 -3 -15 -12 -16 -12 -10 4 4 10 7 20 7 22 0 3 19 -3 80 -23 8 -3 25
-7 36 -9 31 -5 104 -74 101 -95 -4 -26 -14 -31 -34 -18 -17 10 -17 11 2 5 15
-4 21 0 22 14 1 15 -3 18 -15 14 -30 -11 -39 -23 -37 -46 1 -13 0 -15 -2 -4
-4 15 -7 16 -19 6 -12 -10 -11 -14 7 -30 12 -11 27 -19 32 -19 6 0 7 -3 4 -6
-7 -8 -77 37 -77 49 0 4 -5 7 -11 7 -5 0 -7 -4 -4 -10 3 -6 1 -10 -5 -10 -7 0
-10 6 -7 14 6 16 -19 30 -28 16 -4 -6 -1 -10 5 -10 7 0 9 -8 5 -20 -5 -15 -2
-18 15 -15 25 5 50 -3 50 -17 0 -5 -5 -6 -10 -3 -6 3 -10 2 -10 -3 0 -16 13
-22 27 -11 9 9 13 8 13 0 0 -6 -5 -11 -11 -11 -5 0 -7 -4 -4 -10 3 -5 1 -10
-5 -10 -6 0 -3 -11 7 -26 l16 -26 14 26 c8 15 19 24 25 20 6 -4 8 2 4 17 -6
20 -5 21 4 6 13 -20 4 -41 -12 -31 -8 5 -9 1 -4 -12 4 -10 4 -16 1 -12 -6 6
-45 -26 -45 -37 0 -3 9 -5 21 -5 11 0 18 4 14 9 -6 11 34 36 43 27 3 -4 7 -17
9 -29 2 -17 1 -19 -6 -7 -5 8 -7 18 -5 22 3 4 2 8 -3 8 -15 0 -28 -15 -31 -34
-3 -18 -2 -18 14 -5 10 7 15 10 12 4 -3 -5 0 -16 8 -23 8 -7 14 -9 14 -4 0 15
48 33 56 20 4 -6 3 -8 -3 -5 -12 7 -53 -20 -53 -35 0 -7 5 -6 14 1 11 10 16 8
21 -9 4 -12 9 -19 12 -16 3 3 15 0 27 -7 32 -18 58 -17 52 2 -3 9 2 6 10 -6
17 -23 41 -33 28 -11 -4 7 -3 8 5 4 6 -4 9 -12 6 -17 -4 -5 -2 -9 3 -9 15 0
22 13 12 24 -5 7 -5 17 2 26 8 13 9 12 5 -1 -3 -10 6 -28 25 -45 23 -21 29
-24 25 -11 -4 10 -7 23 -7 28 0 6 -5 7 -12 3 -7 -4 -8 -3 -4 4 4 7 9 12 12 12
5 0 24 -45 29 -70 2 -8 4 -16 4 -18 1 -2 8 4 17 12 15 16 39 17 62 2 22 -13
27 3 6 19 -15 12 -15 14 -2 9 19 -6 54 -54 40 -54 -5 0 -9 -12 -8 -27 0 -14
-4 -28 -10 -30 -7 -2 -11 6 -10 19 0 14 -4 22 -11 21 -7 -2 -13 2 -13 8 0 8
-4 9 -13 0 -19 -15 -28 -2 -16 21 9 16 8 19 -3 16 -7 -3 -12 -15 -12 -26 1
-12 -3 -22 -8 -22 -6 0 -7 8 -4 18 4 10 -2 7 -14 -8 -12 -15 -18 -18 -14 -7 3
9 2 17 -4 17 -5 0 -8 -10 -7 -23 4 -33 5 -34 16 -14 8 14 14 16 25 6 8 -6 14
-16 14 -21 0 -6 -7 -5 -15 2 -8 7 -15 8 -15 4 0 -5 9 -15 19 -21 18 -11 19
-10 16 18 l-4 30 29 -21 c17 -12 30 -25 30 -29 0 -4 11 -14 25 -21 13 -7 22
-17 19 -21 -3 -5 3 -6 13 -2 17 6 17 5 1 -13 -16 -19 -16 -20 1 -20 27 0 19
36 -12 53 -15 7 -27 18 -27 23 0 9 56 -16 65 -29 2 -5 17 -6 32 -4 16 2 36 4
46 4 9 0 17 4 17 10 0 5 10 9 23 8 21 0 21 -1 2 -9 -17 -7 -17 -9 -2 -9 20 -1
22 -12 5 -30 -10 -11 -10 -13 0 -7 7 4 12 2 12 -5 0 -7 6 -4 14 6 14 19 14 19
36 0 18 -16 20 -16 14 -2 -3 9 -2 17 4 17 5 0 12 -10 15 -22 4 -12 9 -19 12
-16 4 3 0 19 -9 36 -8 16 -12 32 -9 36 4 3 1 6 -6 6 -8 0 -11 -7 -7 -17 5 -15
4 -15 -9 1 -8 11 -15 15 -15 10 0 -6 6 -16 12 -22 10 -10 7 -12 -12 -10 -27 3
-42 17 -33 31 3 5 9 4 13 -3 5 -8 9 -8 13 3 4 11 0 15 -13 12 -11 -2 -22 0
-25 6 -4 5 -14 5 -26 -1 -10 -6 -19 -9 -20 -8 0 2 -2 20 -3 40 l-3 37 29 -24
c25 -22 66 -25 53 -5 -3 5 3 7 12 6 9 -2 19 -9 21 -17 3 -12 2 -12 -6 0 -5 7
-12 9 -15 4 -3 -5 -3 -13 1 -18 9 -12 46 -19 39 -8 -3 5 -1 15 5 23 8 13 9 12
5 -2 -9 -26 19 -44 40 -27 11 10 14 10 9 2 -4 -8 -1 -13 8 -13 8 0 14 6 12 13
-1 6 -1 9 1 4 3 -4 10 -4 16 0 7 4 7 1 -1 -9 -7 -9 -9 -19 -4 -22 4 -3 15 4
22 15 8 10 19 19 24 19 5 0 1 -9 -9 -20 -20 -23 -14 -26 15 -8 10 7 22 10 25
7 9 -10 -6 -39 -17 -33 -6 4 -5 10 3 16 11 8 11 9 -1 5 -8 -2 -14 -9 -13 -15
1 -5 -4 -13 -13 -16 -8 -3 -12 -2 -9 3 3 5 1 12 -5 16 -6 3 -10 -4 -10 -16 0
-26 -10 -20 -14 8 -2 10 -9 18 -17 18 -8 0 -17 5 -21 10 -5 6 -8 6 -8 -2 0 -6
-9 -10 -20 -8 -19 4 -18 1 6 -31 15 -19 31 -34 38 -33 7 0 6 2 -2 6 -6 2 -10
9 -7 13 3 5 12 7 20 4 8 -4 12 -11 9 -16 -4 -6 5 -2 20 7 14 10 26 13 26 9 0
-5 5 -2 10 6 6 9 10 11 10 3 0 -7 -12 -19 -26 -26 -17 -9 -23 -17 -15 -21 6
-4 11 -3 11 3 0 5 9 13 20 16 11 3 20 12 20 20 0 13 50 55 66 55 4 0 -1 -6
-12 -14 -10 -8 -16 -17 -13 -20 3 -3 15 3 27 14 23 21 37 27 27 10 -3 -5 0
-10 9 -10 8 0 16 3 19 8 2 4 2 1 0 -6 -1 -8 3 -12 9 -9 7 2 12 10 10 16 -1 7
2 10 8 6 8 -5 7 -11 -1 -21 -9 -11 -9 -18 -1 -26 9 -9 12 -8 12 4 0 8 7 21 15
28 8 7 12 17 8 24 -4 7 -2 7 7 -1 10 -9 10 -15 -4 -28 -25 -26 -19 -41 7 -17
13 12 30 22 38 22 9 -1 7 -5 -6 -12 -28 -16 -39 -30 -43 -51 -3 -17 -2 -17 16
0 10 10 17 21 15 25 -2 4 4 5 13 1 12 -4 15 -3 10 5 -4 7 -3 12 2 12 6 0 12
-7 16 -15 3 -8 11 -15 17 -15 8 0 7 5 -2 18 -7 9 -10 14 -5 10 5 -4 15 0 24 8
20 21 41 2 22 -21 -7 -8 -10 -18 -6 -22 9 -9 36 29 29 41 -4 5 -1 6 5 2 6 -4
9 -13 5 -21 -3 -8 0 -15 6 -15 6 0 11 5 11 11 0 8 6 7 17 -2 15 -12 16 -12 10
4 -3 9 -2 17 3 17 6 0 11 -7 11 -15 1 -8 3 -19 4 -25 1 -5 3 -13 4 -17 0 -4
16 10 35 30 18 20 38 37 42 37 5 0 2 -5 -6 -10 -13 -8 -12 -11 5 -24 11 -9 15
-16 9 -16 -5 0 -15 5 -22 12 -13 13 -16 0 -4 -17 10 -15 31 -12 42 5 8 12 10
12 10 1 0 -8 3 -11 7 -8 3 4 12 2 20 -4 9 -8 13 -8 13 -1 0 6 -8 16 -18 21 -9
6 -12 11 -6 11 19 0 34 -25 29 -51 -3 -17 3 -29 23 -43 l27 -20 -20 24 c-14
16 -16 22 -5 18 8 -2 19 -14 25 -26 11 -25 28 -30 18 -6 -5 14 -3 15 14 6 11
-6 24 -8 28 -4 5 4 5 -2 1 -12 -5 -16 -4 -17 9 -6 8 7 15 9 15 5 0 -4 7 -2 16
6 13 10 17 10 24 -1 7 -11 11 -11 24 -1 9 7 13 17 10 22 -3 5 -1 9 5 9 19 0
20 -18 1 -35 -17 -16 -25 -59 -8 -49 4 3 4 12 1 21 -5 12 -3 14 8 8 8 -4 11
-5 7 0 -4 4 0 14 8 22 8 8 12 19 9 24 -10 14 9 10 31 -7 13 -11 14 -14 3 -11
-8 3 -21 -4 -27 -14 -8 -12 -8 -19 -2 -19 5 0 10 4 10 9 0 18 39 18 56 0 9
-10 22 -19 28 -19 6 0 0 7 -12 16 -12 8 -20 20 -16 25 3 6 12 3 20 -8 7 -10
14 -13 14 -8 0 6 5 3 11 -5 8 -11 9 -9 3 10 -6 21 -5 23 8 13 11 -10 17 -10
27 0 11 10 12 7 6 -12 -5 -16 -4 -21 4 -17 6 4 11 13 11 21 0 7 9 16 19 20 11
3 18 11 16 18 -3 7 0 19 5 27 8 13 12 12 25 -7 23 -33 39 -28 18 4 -10 15 -13
24 -6 20 6 -4 14 -3 18 3 3 5 12 10 18 10 7 0 4 -5 -5 -11 -19 -10 -13 -43 6
-33 6 4 3 -1 -6 -11 -9 -10 -29 -19 -45 -20 -17 -1 -27 -7 -25 -15 2 -8 -3
-10 -14 -6 -14 5 -15 4 -4 -9 11 -13 15 -13 31 6 11 12 20 18 20 13 1 -5 2
-15 3 -23 0 -8 8 -16 16 -18 13 -4 13 -3 0 6 -8 5 -11 13 -8 17 4 3 21 -4 39
-17 18 -13 30 -18 26 -12 -11 17 21 39 35 25 14 -14 48 -16 48 -2 0 5 -8 6
-17 3 -16 -6 -16 -5 -4 11 12 15 17 15 25 4 13 -15 66 -21 66 -6 0 5 -4 6 -10
3 -5 -3 -10 3 -10 15 0 12 -5 18 -10 15 -6 -4 -8 -10 -5 -15 3 -5 0 -12 -6
-16 -8 -5 -9 -3 -4 6 6 9 4 11 -6 5 -12 -8 -12 -6 0 8 9 11 10 17 2 17 -6 0
-11 -4 -11 -8 0 -5 -6 -9 -14 -9 -8 0 -12 6 -9 13 2 6 19 11 38 9 26 -1 36 3
41 17 5 16 8 17 26 4 11 -8 27 -12 36 -9 11 5 10 1 -4 -14 -20 -21 -31 -23
-51 -10 -7 5 -13 4 -13 -2 0 -12 36 -24 49 -16 5 3 12 1 15 -4 7 -11 -22 -23
-35 -15 -5 3 -9 0 -9 -5 0 -16 36 -13 50 4 7 8 9 15 4 15 -5 0 -2 5 6 11 12 9
11 10 -5 4 -20 -6 -20 -6 0 13 16 15 22 17 28 6 4 -8 13 -14 19 -14 7 0 6 5
-2 15 -6 8 -9 19 -6 24 4 5 -2 14 -11 20 -10 6 -13 10 -8 11 15 0 36 -16 34
-26 -3 -20 2 -35 11 -29 5 3 7 13 4 23 -4 10 -2 13 3 7 4 -5 17 -17 27 -25 18
-14 18 -13 12 10 -4 14 -4 21 1 15 12 -15 33 -17 48 -5 9 8 14 6 18 -5 4 -8
13 -12 22 -9 18 7 20 -7 3 -25 -11 -11 -10 -12 1 -6 10 6 12 4 7 -4 -4 -6 -2
-18 4 -26 9 -11 15 -12 25 -2 9 9 10 14 1 20 -7 5 -3 7 9 5 13 -3 19 -11 18
-23 -1 -11 0 -14 3 -7 3 6 9 10 13 8 4 -3 8 4 8 16 1 13 -3 18 -12 14 -10 -3
-12 0 -8 12 6 15 5 15 -11 3 -13 -11 -20 -11 -28 -3 -14 14 -5 24 23 26 12 0
24 7 27 14 2 8 -3 10 -15 6 -15 -5 -15 -4 -3 5 21 15 45 -16 29 -36 -14 -16 2
-18 18 -2 6 6 9 17 6 25 -2 7 0 21 6 31 9 15 10 13 5 -12 -5 -28 -4 -29 10
-11 12 15 18 17 30 7 12 -10 17 -9 27 7 12 19 13 19 37 -10 13 -16 27 -26 30
-23 3 3 -5 17 -19 32 -13 14 -19 23 -12 20 6 -4 13 -4 16 0 2 5 2 3 1 -4 -2
-6 3 -17 11 -23 18 -15 51 2 60 31 4 11 9 18 12 16 2 -3 0 -14 -6 -26 -6 -11
-7 -22 -2 -25 8 -6 25 30 22 47 -1 5 3 6 9 2 7 -4 7 -13 -1 -26 -14 -27 -4
-37 12 -11 12 19 12 19 32 -1 16 -16 21 -17 28 -6 5 8 6 22 3 32 -3 9 0 17 6
17 6 0 9 -4 6 -9 -3 -5 1 -12 10 -15 24 -9 26 -8 14 13 -14 28 5 37 35 17 22
-15 25 -14 34 2 6 9 11 12 11 5 0 -6 -7 -18 -15 -27 -19 -19 -19 -21 5 -23 11
-1 18 2 15 6 -2 5 5 19 17 32 14 16 19 18 15 7 -3 -10 -2 -20 3 -23 10 -6 13
5 11 35 0 10 1 11 5 2 8 -18 24 -4 18 16 -5 14 -4 14 4 3 6 -8 7 -21 4 -30 -5
-13 -3 -14 9 -4 12 10 18 10 27 1 9 -9 12 -9 12 -1 0 7 -9 18 -20 26 -18 13
-19 15 -5 21 9 3 14 2 12 -2 -3 -4 1 -13 9 -20 14 -13 15 -12 18 8 0 6 5 10 9
11 16 1 17 -8 2 -21 -8 -7 -15 -17 -15 -23 0 -5 9 -2 19 7 11 10 25 15 30 11
6 -3 11 -2 11 4 0 5 -6 12 -12 14 -10 4 -10 6 -1 6 18 1 27 -19 14 -32 -16
-16 -14 -32 2 -18 8 6 18 7 22 3 5 -4 5 1 2 10 -4 12 -2 15 9 11 8 -3 14 -2
13 3 -4 21 2 34 14 31 6 -1 11 5 9 13 -3 11 3 9 20 -6 23 -21 62 -26 87 -10 8
5 16 4 22 -5 5 -8 9 -10 9 -5 0 5 6 3 13 -3 8 -6 17 -7 22 -3 4 4 4 -3 1 -15
-6 -18 -3 -23 12 -23 11 0 25 7 32 15 7 8 17 12 22 9 6 -4 4 -10 -6 -16 -9 -5
-16 -13 -16 -18 0 -6 9 -2 20 7 14 13 17 20 8 30 -7 9 -7 13 0 13 6 0 16 -8
21 -17 6 -11 11 -13 12 -5 1 6 3 17 4 22 1 6 3 13 4 17 0 3 9 -4 20 -15 20
-24 41 -31 22 -8 -8 10 -9 16 -1 21 5 3 10 1 10 -5 0 -6 5 -8 10 -5 6 3 10 -1
10 -9 0 -9 5 -16 10 -16 7 0 7 6 0 20 -6 11 -15 20 -21 20 -6 0 -7 5 -4 10 10
16 21 11 33 -15 6 -14 17 -25 24 -25 9 0 8 3 -2 10 -13 8 -12 11 5 24 18 13
22 13 36 -5 15 -20 16 -20 30 -2 13 16 13 17 -3 4 -13 -10 -18 -10 -18 -1 0 6
9 14 20 17 11 3 20 9 20 15 0 5 -9 4 -20 -2 -11 -6 -20 -7 -20 -2 0 13 39 22
46 11 3 -5 10 -9 15 -9 6 0 7 5 3 11 -4 8 0 8 15 0 11 -7 21 -17 21 -23 0 -6
3 -8 6 -5 4 4 2 13 -4 20 -7 8 -9 17 -5 21 4 4 12 -3 18 -15 11 -19 13 -19 18
-5 5 12 3 15 -6 10 -6 -4 -8 -3 -4 1 7 8 44 14 120 18 15 1 27 5 27 9 0 11 23
5 32 -7 4 -6 8 -2 8 8 0 22 19 22 36 0 12 -16 12 -15 8 7 -4 18 -3 21 4 11 6
-8 11 -9 13 -3 2 6 18 12 34 14 17 2 32 5 35 8 14 15 85 29 96 19 10 -8 12 -6
9 9 -3 17 1 20 22 16 20 -4 24 -1 20 10 -4 9 -1 18 5 22 7 4 8 3 4 -4 -4 -7
-2 -12 4 -12 6 0 8 -6 4 -12 -4 -7 2 -5 13 5 11 9 23 14 27 10 10 -10 37 -13
31 -3 -3 4 9 13 25 20 16 7 27 16 24 21 -3 5 2 9 10 9 8 0 18 9 21 20 4 12 11
17 18 13 7 -4 6 1 -2 10 -8 10 -9 17 -3 17 6 0 17 -8 24 -18 7 -10 24 -19 38
-19 18 -2 21 0 10 7 -8 5 -17 7 -21 4 -4 -2 -13 4 -20 13 -12 14 -11 15 8 9
17 -5 22 -3 22 11 0 10 2 29 4 43 2 14 -1 31 -6 38 -12 15 5 16 20 1 6 -6 9
-18 6 -27 -4 -10 -2 -13 5 -8 7 4 12 1 12 -8 0 -9 -5 -15 -12 -13 -6 1 -13 -7
-15 -18 -3 -18 -2 -18 5 -2 4 10 11 18 15 18 24 -3 26 2 12 29 -9 18 -11 30
-5 30 6 0 16 -11 22 -25 6 -14 16 -25 21 -25 5 0 4 6 -2 14 -6 7 -9 21 -5 29
4 11 0 16 -13 16 -44 1 -54 5 -48 18 3 8 5 18 5 21 0 4 5 0 10 -8 5 -8 24 -15
42 -16 30 -1 31 -1 11 9 -28 13 -29 22 -3 24 11 1 18 -2 15 -7 -4 -6 2 -7 11
-3 11 4 15 2 11 -4 -4 -6 -1 -15 6 -21 18 -16 50 -8 53 12 1 10 10 26 20 37
13 14 20 16 31 8 7 -6 13 -7 13 -3 0 14 -39 36 -51 28 -6 -3 -8 -11 -6 -17 5
-14 -30 -67 -43 -67 -5 0 -7 6 -4 13 3 8 -6 18 -21 25 -14 6 -25 16 -25 22 0
6 6 8 13 4 9 -6 8 -3 -1 9 -12 14 -11 16 7 14 14 -1 19 -6 16 -17 -3 -9 4 -21
16 -28 12 -8 18 -9 15 -4 -3 6 -3 12 1 15 5 2 3 2 -4 1 -7 -2 -15 1 -18 6 -4
6 -1 10 4 10 20 0 26 3 37 19 7 8 9 22 6 31 -3 8 -2 12 3 8 4 -4 16 -3 27 3
14 7 23 7 33 -1 10 -8 19 -8 34 0 22 11 28 30 10 30 -5 0 -8 -4 -5 -9 5 -7
-14 -21 -28 -21 -1 0 -2 9 -3 20 -1 11 1 19 5 19 26 -4 33 3 26 24 -3 12 -3
19 1 15 4 -4 16 -3 26 2 12 7 20 7 24 0 4 -6 15 -8 25 -5 10 3 21 1 25 -5 3
-6 11 -8 16 -5 5 4 10 -4 10 -17 1 -18 2 -19 6 -5 5 19 -14 50 -26 43 -4 -3
-12 4 -19 15 -7 10 -10 19 -8 19 13 0 56 -24 56 -32 0 -4 5 -8 11 -8 8 0 8 4
0 14 -7 9 -8 17 -2 20 5 3 12 1 14 -4 3 -6 4 -5 3 2 -2 7 -9 12 -15 11 -6 -2
-11 2 -11 8 0 5 -5 7 -11 3 -8 -4 -7 -9 2 -16 10 -7 8 -8 -6 -3 -33 12 -50 11
-48 -2 2 -7 -2 -13 -7 -13 -10 0 -14 15 -11 34 1 5 -5 6 -14 2 -9 -3 -19 -6
-21 -6 -2 0 -4 -5 -4 -11 0 -5 4 -8 9 -5 5 3 14 -1 21 -9 10 -12 8 -13 -9 -10
-12 2 -21 -1 -21 -8 0 -7 -5 -4 -11 6 -8 13 -7 22 1 33 9 10 9 14 1 14 -6 0
-11 5 -11 11 0 8 5 8 15 -1 12 -10 18 -10 30 0 8 7 12 17 8 24 -4 6 1 5 10 -3
11 -8 17 -9 17 -3 0 6 9 16 20 22 14 7 20 7 20 0 0 -5 -7 -10 -17 -10 -15 0
-10 -15 5 -15 4 0 12 -4 18 -7 7 -5 12 1 12 17 0 14 -4 28 -9 31 -5 3 -9 9 -9
15 0 5 9 0 20 -11 11 -11 24 -20 30 -20 15 0 7 -24 -12 -35 -15 -9 -14 -11 8
-22 21 -10 26 -8 35 8 11 22 26 17 39 -15 7 -16 9 -17 9 -4 1 9 -6 23 -14 31
-13 13 -13 16 1 21 20 8 24 8 23 -1 -4 -25 3 -33 25 -29 14 2 27 0 30 -5 2 -5
3 -4 2 3 -2 7 -9 12 -15 11 -17 -4 -13 12 8 31 15 14 24 15 40 7 17 -9 22 -8
31 9 7 13 7 20 0 20 -5 0 -10 -7 -10 -15 0 -9 -6 -12 -15 -8 -20 7 -15 38 5
39 8 0 23 -4 33 -9 16 -7 16 -11 5 -25 -11 -15 -11 -15 3 -5 9 7 20 9 24 5 5
-4 5 -1 1 6 -4 6 -2 12 3 12 6 0 11 5 11 11 0 8 -5 8 -15 -1 -32 -27 -12 7 26
45 26 25 37 32 30 18 -6 -12 -16 -25 -21 -28 -6 -3 -10 -14 -10 -23 0 -12 4
-9 13 8 9 17 20 24 35 23 12 -2 22 2 22 8 0 5 -4 8 -9 4 -5 -3 -12 -1 -15 4
-11 17 24 20 36 3 12 -17 14 -17 31 0 9 10 13 18 9 18 -4 0 -13 -5 -20 -12 -7
-7 -12 -8 -12 -2 0 16 21 33 35 28 7 -3 16 0 20 6 5 8 11 8 21 -1 8 -6 14 -8
14 -3 0 4 7 -1 16 -12 9 -11 7 -3 -5 18 -11 21 -16 40 -11 43 5 3 11 -4 15
-15 4 -11 11 -17 17 -14 6 4 5 10 -3 15 -8 5 -11 9 -6 10 26 5 34 4 51 -10 13
-11 17 -12 11 -2 -6 10 -2 12 16 6 13 -4 21 -4 16 0 -4 5 -17 9 -29 10 -12 1
-24 7 -26 13 -2 7 3 10 12 6 9 -4 18 0 22 9 3 8 13 14 22 12 9 -2 17 -4 17 -5
0 -1 13 -4 29 -6 29 -3 29 -3 7 12 -12 9 -18 20 -15 26 4 7 2 8 -4 4 -7 -4
-12 -1 -12 7 0 7 7 14 15 14 8 0 15 -5 15 -10 0 -6 3 -7 6 -4 4 3 16 2 26 -4
15 -8 23 -8 32 1 6 6 7 11 1 10 -23 -5 -45 1 -45 11 0 6 8 8 19 4 12 -3 21 0
25 10 4 13 9 13 25 3 11 -7 17 -16 15 -20 -3 -4 0 -8 5 -8 14 0 14 13 -1 28
-9 9 -9 12 0 12 6 0 16 -8 21 -17 8 -15 11 -15 12 -3 1 8 1 21 0 28 -1 6 3 12
9 12 5 0 10 -4 10 -10 0 -5 5 -10 11 -10 8 0 8 4 2 13 -17 20 -11 46 9 44 18
-1 26 -17 8 -17 -5 0 -10 -5 -10 -11 0 -8 4 -8 14 0 11 10 17 8 26 -6 9 -15
11 -15 6 -1 -3 9 2 19 11 22 11 5 14 2 9 -11 -6 -14 -4 -15 5 -6 18 18 2 35
-22 23 -12 -7 -19 -7 -19 -1 0 16 38 33 45 21 8 -13 25 -13 25 1 0 5 -5 7 -11
3 -7 -4 -10 -2 -8 5 3 7 7 11 9 10 3 -1 15 3 27 9 13 7 24 8 28 3 3 -5 -4 -13
-16 -16 -11 -4 -18 -9 -16 -12 3 -2 15 1 27 7 17 9 19 14 9 26 -7 9 -8 14 -1
14 6 0 14 -4 17 -10 3 -5 19 5 36 23 24 26 29 28 27 12 -2 -13 4 -20 17 -22
19 -3 19 -3 1 5 -24 11 -6 25 21 16 16 -5 16 -4 2 5 -14 9 -27 13 -69 20 -3 1
2 5 10 11 8 5 11 12 7 17 -12 11 -27 -19 -17 -33 6 -6 7 -14 3 -17 -9 -9 -23
-9 -22 1 3 19 -2 29 -16 29 -16 0 -28 -23 -19 -40 3 -7 -1 -4 -9 6 -12 14 -16
15 -20 4 -3 -8 0 -20 6 -27 9 -10 9 -11 -3 -8 -8 3 -14 12 -14 21 1 9 -4 13
-12 10 -7 -2 -11 -13 -9 -24 3 -12 0 -17 -7 -13 -7 5 -8 2 -3 -6 5 -9 4 -11
-3 -6 -7 4 -12 3 -12 -1 0 -5 -10 -14 -21 -22 -19 -11 -21 -11 -16 3 3 8 1 18
-5 22 -7 4 -8 3 -4 -4 6 -11 -6 -16 -26 -13 -5 0 -8 -5 -8 -12 0 -8 -4 -7 -11
3 -9 13 -10 12 -5 -2 3 -10 0 -20 -6 -24 -6 -4 -8 -3 -5 3 3 5 0 10 -8 10 -8
0 -11 -5 -8 -10 3 -6 1 -7 -5 -3 -8 5 -10 1 -5 -9 4 -12 8 -13 13 -5 4 7 10 8
13 3 9 -14 -6 -28 -32 -31 -20 -2 -22 0 -11 13 7 9 10 18 6 22 -3 3 -6 0 -6
-8 0 -12 -2 -11 -11 1 -9 13 -10 12 -5 -3 3 -10 2 -15 -3 -12 -5 3 -12 1 -16
-4 -3 -6 -13 -7 -23 -4 -14 5 -13 2 3 -11 11 -10 14 -15 8 -11 -7 3 -22 8 -34
10 -17 3 -19 1 -9 -10 9 -11 7 -13 -7 -11 -10 2 -17 6 -15 9 1 4 2 12 2 18 0
6 7 8 16 5 12 -4 15 -2 10 9 -3 9 4 25 16 37 15 15 19 16 15 5 -3 -8 1 -21 9
-28 13 -11 15 -10 13 2 -2 7 0 27 5 43 6 23 9 27 17 15 5 -7 9 -18 9 -24 0 -5
-5 -3 -10 5 -8 13 -10 13 -10 -2 0 -23 19 -33 26 -13 4 9 12 14 19 11 8 -3 16
2 19 10 5 12 1 14 -17 9 -19 -5 -19 -4 -5 5 10 6 15 18 12 28 -3 9 2 6 10 -8
8 -14 15 -21 16 -16 0 5 7 3 15 -4 10 -8 15 -9 15 -1 0 6 -9 16 -20 23 -11 7
-20 17 -20 22 0 4 7 3 15 -4 11 -9 19 -10 28 -1 10 8 17 7 27 -2 10 -10 12 -8
6 8 -4 11 -4 16 0 12 4 -4 13 2 21 13 8 11 23 20 35 20 18 0 19 2 7 16 -15 19
-21 47 -8 38 5 -3 7 -9 4 -14 -3 -5 2 -13 11 -18 21 -12 9 -32 -19 -32 -15 0
-18 -3 -10 -11 9 -9 21 -6 48 11 29 18 33 25 24 36 -8 10 -8 14 0 14 6 0 11
-6 11 -12 0 -7 12 0 27 17 22 25 25 26 19 7 -5 -13 -3 -22 3 -22 6 0 11 5 11
12 0 6 3 8 7 5 3 -4 12 -2 20 4 10 9 13 8 13 0 0 -26 16 -1 18 29 2 22 -1 29
-9 24 -7 -4 -9 -3 -6 3 3 5 16 9 29 8 13 -1 30 3 38 9 8 6 4 -4 -9 -21 -12
-18 -19 -38 -15 -44 5 -8 3 -9 -6 -4 -9 6 -11 4 -5 -5 6 -9 4 -11 -5 -5 -9 6
-11 4 -5 -5 6 -9 4 -11 -5 -5 -9 6 -11 4 -5 -6 7 -12 6 -12 -9 0 -15 13 -19
13 -27 0 -10 -17 -7 -31 9 -37 7 -2 12 3 12 11 0 7 7 14 15 14 8 0 15 -4 15
-9 0 -4 5 -8 11 -8 5 0 7 5 4 10 -3 6 -1 10 4 10 6 0 11 -6 11 -12 1 -7 6 -3
13 10 7 12 16 20 20 16 4 -4 2 -13 -5 -21 -8 -10 -8 -17 -1 -24 8 -8 13 -7 18
2 5 8 4 10 -3 5 -22 -13 -12 13 11 29 19 14 19 16 3 13 -10 -2 -21 2 -23 8 -5
13 28 15 44 2 17 -13 44 -2 38 15 -6 14 31 17 53 4 6 -5 12 -5 12 0 0 4 5 1
11 -7 9 -13 10 -13 6 0 -2 8 -9 14 -15 13 -6 -2 -16 6 -22 17 -9 16 -8 20 5
20 9 0 13 -4 10 -10 -3 -5 0 -7 8 -4 8 3 18 -5 25 -18 6 -13 11 -17 11 -10 1
17 -49 63 -60 56 -5 -3 -9 0 -9 5 0 10 14 15 33 12 4 -1 16 3 26 8 12 7 22 6
31 -2 10 -10 11 -7 6 13 -6 24 -6 24 6 5 12 -19 24 -23 46 -15 12 5 26 8 45 9
12 1 16 5 11 14 -6 9 -4 9 8 -1 11 -9 18 -9 21 -2 3 6 5 6 3 -1 -1 -7 -10 -13
-20 -15 -24 -3 -26 -7 -16 -24 8 -13 10 -12 10 3 0 10 4 16 9 12 5 -3 12 -1
16 5 4 7 12 7 25 0 15 -8 17 -6 13 13 -4 18 -3 19 6 7 7 -10 11 -11 11 -2 0 6
5 12 11 12 5 0 8 -4 5 -8 -3 -5 1 -9 8 -9 8 0 12 7 8 15 -3 10 -1 13 6 8 6 -3
14 -2 17 4 4 6 16 8 27 4 11 -3 18 -2 15 3 -3 5 11 18 31 29 39 20 63 44 56
55 -2 4 6 5 18 2 16 -3 19 -2 10 4 -14 10 -6 43 10 43 5 0 6 5 3 10 -3 6 -1
10 4 10 6 0 10 3 9 8 -4 14 15 57 31 70 13 11 13 12 1 7 -8 -4 -6 1 4 9 11 9
14 16 8 16 -7 0 -12 5 -12 11 0 6 6 9 13 6 8 -3 14 1 14 9 0 7 -4 11 -9 8 -4
-3 -8 0 -8 5 0 6 5 11 11 11 5 0 8 4 5 9 -4 5 -2 20 3 33 5 14 12 40 15 59 3
19 9 55 14 82 5 26 8 47 6 47 -2 0 4 8 15 19 31 31 62 142 65 233 2 46 9 96
15 113 7 16 18 70 25 118 12 76 12 98 -1 151 -14 60 -13 99 6 256 15 122 6
247 -24 345 -31 99 -65 173 -103 223 -18 23 -40 37 -81 48 -31 9 -64 23 -73
31 -15 13 -286 63 -341 63 -10 0 -60 29 -110 64 -111 77 -255 165 -346 210
-139 71 -179 83 -541 171 -58 15 -225 45 -275 50 -33 4 -71 8 -85 11 -14 2
-81 7 -150 10 -69 3 -161 7 -205 10 -108 6 -1150 16 -1155 10z m-553 -341 c0
-8 -4 -12 -9 -9 -5 3 -6 10 -3 15 9 13 12 11 12 -6z m338 -13 c-3 -3 -11 0
-18 7 -9 10 -8 11 6 5 10 -3 15 -9 12 -12z m-335 -72 c0 -5 -5 -10 -11 -10 -5
0 -7 5 -4 10 3 6 8 10 11 10 2 0 4 -4 4 -10z m275 -9 c3 -5 2 -12 -3 -15 -5
-3 -9 1 -9 9 0 17 3 19 12 6z m-601 -149 c3 -5 -1 -9 -9 -9 -8 0 -12 4 -9 9 3
4 7 8 9 8 2 0 6 -4 9 -8z m421 -10 c-3 -3 -11 0 -18 7 -9 10 -8 11 6 5 10 -3
15 -9 12 -12z m-190 -72 c-3 -5 -12 -10 -18 -10 -7 0 -6 4 3 10 19 12 23 12
15 0z m115 6 c0 -2 -7 -7 -16 -10 -8 -3 -12 -2 -9 4 6 10 25 14 25 6z m94 -32
c3 -8 2 -12 -4 -9 -6 3 -10 10 -10 16 0 14 7 11 14 -7z m-749 -134 c-3 -5 -12
-10 -18 -10 -7 0 -6 4 3 10 19 12 23 12 15 0z m-2731 -1232 c-5 -8 -1 -9 12
-4 14 5 16 4 7 -5 -13 -13 -37 -3 -28 12 4 5 8 9 11 9 3 0 2 -5 -2 -12z m6461
-648 c3 -5 1 -10 -4 -10 -6 0 -11 5 -11 10 0 6 2 10 4 10 3 0 8 -4 11 -10z
m-115 -14 c0 -3 -4 -8 -10 -11 -5 -3 -10 -1 -10 4 0 6 5 11 10 11 6 0 10 -2
10 -4z m204 -40 c-3 -7 1 -13 8 -13 7 0 22 -4 33 -8 17 -6 17 -4 -4 14 -13 12
-19 22 -15 22 34 6 74 6 75 1 0 -4 2 -15 4 -24 5 -26 -14 -33 -31 -12 -9 11
-12 13 -9 6 4 -8 -1 -20 -11 -28 -11 -9 -14 -13 -7 -10 6 4 14 2 18 -4 3 -5
-1 -10 -9 -10 -8 0 -22 12 -31 28 -11 20 -15 22 -13 7 2 -11 -3 -20 -10 -20
-8 0 -19 -9 -25 -20 -7 -11 -20 -21 -30 -21 -17 -2 -17 0 -3 15 9 10 13 21 10
24 -4 4 1 9 10 13 9 3 14 10 11 14 -3 4 2 13 10 20 12 10 13 16 3 29 -11 14
-11 14 4 3 9 -8 15 -19 12 -26z m-144 20 c0 -3 -4 -8 -10 -11 -5 -3 -10 -1
-10 4 0 6 5 11 10 11 6 0 10 -2 10 -4z m40 -5 c0 -6 -4 -12 -8 -15 -5 -3 -9 1
-9 9 0 8 4 15 9 15 4 0 8 -4 8 -9z m-246 -47 c3 -8 2 -12 -4 -9 -6 3 -10 10
-10 16 0 14 7 11 14 -7z m126 6 c0 -5 -5 -10 -11 -10 -5 0 -7 5 -4 10 3 6 8
10 11 10 2 0 4 -4 4 -10z m97 4 c-2 -3 -17 -7 -33 -10 -17 -2 -24 -1 -17 4 13
8 58 14 50 6z m13 -24 c-24 -15 -37 -11 -16 5 11 8 22 12 25 9 3 -3 -1 -9 -9
-14z m-70 -10 c0 -5 -8 -10 -17 -10 -15 0 -16 2 -3 10 19 12 20 12 20 0z
m-285 -29 c-9 -8 -36 -10 -30 -2 2 4 11 8 20 8 8 0 13 -3 10 -6z m358 -16 c-3
-9 -8 -14 -10 -11 -3 3 -2 9 2 15 9 16 15 13 8 -4z m-319 -17 c1 -7 5 -20 10
-28 7 -12 6 -13 -4 -3 -8 7 -15 23 -17 35 -2 12 -1 19 3 16 3 -3 6 -12 8 -20z
m136 12 c-8 -5 -19 -10 -25 -10 -5 0 -3 5 5 10 8 5 20 10 25 10 6 0 3 -5 -5
-10z m-89 -28 c-7 -2 -18 1 -23 6 -8 8 -4 9 13 5 13 -4 18 -8 10 -11z m55 6
c4 -7 4 -10 -1 -6 -4 4 -14 1 -22 -7 -8 -8 -19 -15 -25 -15 -6 0 0 9 13 20 29
23 26 23 35 8z m-257 -11 c8 -10 7 -14 -2 -14 -8 0 -14 6 -14 14 0 7 1 13 2
13 2 0 8 -6 14 -13z m95 -5 c3 -5 -1 -9 -9 -9 -8 0 -12 4 -9 9 3 4 7 8 9 8 2
0 6 -4 9 -8z m303 -14 c1 -10 -2 -18 -8 -18 -5 0 -9 2 -9 4 0 2 -2 11 -5 19
-3 7 0 14 8 14 7 0 14 -9 14 -19z m-301 -30 c-1 -12 -8 -22 -19 -24 -10 -1
-14 2 -10 9 4 7 0 8 -13 3 -15 -6 -16 -5 -7 5 10 10 16 9 29 -2 16 -12 17 -12
12 3 -4 9 -4 19 -1 22 10 9 10 8 9 -16z m48 7 c3 -8 1 -15 -4 -15 -6 0 -10 7
-10 15 0 8 2 15 4 15 2 0 6 -7 10 -15z m-244 -25 c0 -5 -5 -10 -11 -10 -5 0
-7 5 -4 10 3 6 8 10 11 10 2 0 4 -4 4 -10z m55 -29 c-1 -8 -7 -16 -14 -17 -7
-2 -7 0 -1 3 7 3 8 9 1 17 -8 9 -7 13 3 13 8 0 13 -7 11 -16z m85 4 c0 -8 -2
-15 -4 -15 -2 0 -6 7 -10 15 -3 8 -1 15 4 15 6 0 10 -7 10 -15z m-33 -20 c-12
-8 -13 -15 -6 -22 15 -15 1 -36 -18 -29 -11 5 -13 2 -9 -10 4 -9 2 -22 -4 -29
-7 -8 -5 -12 5 -12 8 0 16 10 16 21 1 20 1 20 6 1 3 -11 12 -28 21 -37 9 -11
10 -18 4 -18 -6 0 -16 8 -21 18 -6 10 -11 12 -11 4 0 -7 -5 -10 -10 -7 -6 3
-13 -1 -16 -10 -4 -9 -13 -14 -21 -11 -7 3 -16 -1 -19 -8 -3 -8 -16 -13 -30
-11 -27 3 -52 -19 -34 -30 5 -3 10 -12 10 -18 0 -7 -9 -1 -19 12 -10 13 -23
21 -29 17 -7 -4 -10 1 -7 13 3 15 -2 18 -21 17 -13 0 -22 -5 -20 -11 2 -5 9
-9 15 -7 15 3 14 -15 -1 -22 -7 -3 2 -3 20 0 25 3 33 1 29 -8 -2 -7 -10 -12
-17 -10 -7 2 -20 -4 -29 -12 -10 -9 -28 -14 -41 -11 -19 4 -35 -5 -66 -36 -32
-31 -46 -39 -67 -35 -15 2 -29 0 -33 -5 -3 -5 -10 -6 -16 -3 -7 5 -9 1 -5 -9
3 -9 0 -20 -7 -24 -6 -5 -20 -19 -29 -33 -9 -13 -17 -21 -17 -17 0 4 1 9 3 10
1 2 -4 11 -11 20 -13 15 -16 14 -40 -8 -15 -14 -30 -25 -35 -25 -4 0 -5 -5 -1
-12 5 -7 3 -8 -6 -3 -10 6 -9 11 5 22 14 9 15 13 4 13 -10 0 -11 2 -2 8 8 5 3
14 -17 27 -26 18 -45 45 -21 30 6 -3 14 3 20 12 6 10 11 13 11 8 0 -6 -5 -16
-11 -22 -6 -6 -7 -13 -1 -17 5 -3 15 6 22 19 7 14 18 25 23 25 5 0 4 -7 -3
-15 -19 -23 4 -18 25 5 18 19 17 20 -6 21 -13 0 -18 3 -11 6 7 3 20 2 28 -1
13 -5 14 -9 4 -21 -7 -8 -8 -15 -2 -15 5 0 15 7 23 16 10 13 10 17 -2 25 -9 5
-10 9 -2 9 19 0 26 -20 13 -35 -16 -19 -1 -19 24 0 11 8 14 15 8 15 -7 0 -12
10 -11 23 l0 22 9 -22 c5 -13 14 -23 20 -23 6 0 9 4 5 9 -3 5 -1 12 5 16 5 3
10 11 10 17 0 7 -6 6 -15 -2 -10 -9 -15 -9 -15 -1 0 6 4 11 10 11 5 0 7 8 4
18 -3 9 7 -2 21 -25 33 -52 56 -58 26 -7 -12 19 -21 38 -21 42 0 4 5 -1 11
-11 6 -9 14 -15 20 -12 5 4 12 -1 15 -9 3 -9 10 -14 15 -11 4 3 6 12 2 20 -3
9 1 15 11 15 9 0 16 -5 16 -11 0 -5 -6 -7 -12 -3 -7 4 -9 3 -5 -1 13 -15 36
-14 30 1 -5 14 7 18 36 14 12 -1 13 1 2 14 -10 12 -18 13 -33 5 -11 -6 -22 -8
-26 -5 -3 3 0 6 7 6 8 0 11 6 7 16 -5 14 -4 15 8 5 11 -9 15 -8 19 4 4 8 13
12 21 9 8 -3 17 -1 21 5 3 6 0 11 -8 11 -8 0 -18 7 -21 16 -4 11 2 10 25 -6
16 -12 33 -19 37 -16 3 4 0 11 -8 16 -8 5 -11 12 -7 16 3 4 15 -4 26 -17 11
-13 23 -20 27 -16 5 4 2 12 -5 16 -10 7 -8 11 10 17 13 4 27 7 32 6 4 -1 7 3
7 8 0 6 -4 10 -10 10 -5 0 -10 5 -10 11 0 8 5 7 15 -1 9 -7 14 -19 11 -26 -7
-17 29 -13 47 5 10 11 8 12 -10 6 -13 -3 -23 -2 -23 3 0 5 7 9 15 10 8 1 21 3
29 4 8 1 17 10 19 20 4 13 -1 18 -16 19 -18 1 -19 2 -4 6 10 3 25 -1 33 -8 8
-6 18 -9 21 -5 4 4 1 11 -7 17 -13 8 -13 11 2 23 10 7 14 17 10 21 -4 5 -1 5
7 0 12 -7 11 -10 -2 -20z m-192 6 c3 -5 2 -12 -3 -15 -5 -3 -9 1 -9 9 0 17 3
19 12 6z m105 -26 c0 -1 -6 -8 -14 -14 -11 -9 -16 -9 -22 0 -5 8 -3 9 6 4 10
-6 12 -4 7 8 -4 11 -2 14 9 10 7 -3 14 -6 14 -8z m-84 -10 c-1 -8 -5 -17 -8
-21 -5 -4 -4 16 1 34 3 9 9 -1 7 -13z m-96 -5 c0 -5 -5 -10 -11 -10 -5 0 -7 5
-4 10 3 6 8 10 11 10 2 0 4 -4 4 -10z m60 0 c0 -5 -2 -10 -4 -10 -3 0 -8 5
-11 10 -3 6 -1 10 4 10 6 0 11 -4 11 -10z m95 -28 c-3 -3 -11 0 -18 7 -9 10
-8 11 6 5 10 -3 15 -9 12 -12z m40 8 c-3 -5 -11 -10 -16 -10 -6 0 -7 5 -4 10
3 6 11 10 16 10 6 0 7 -4 4 -10z m-147 -35 c-3 -3 -9 2 -12 12 -6 14 -5 15 5
6 7 -7 10 -15 7 -18z m-68 -6 c0 -5 -4 -9 -8 -9 -5 0 -9 7 -9 15 0 8 4 12 9 9
4 -3 8 -9 8 -15z m44 5 c3 -8 2 -12 -4 -9 -6 3 -10 10 -10 16 0 14 7 11 14 -7z
m61 -12 c-3 -3 -11 0 -18 7 -9 10 -8 11 6 5 10 -3 15 -9 12 -12z m-290 -1 c3
-5 2 -12 -3 -15 -5 -3 -9 1 -9 9 0 17 3 19 12 6z m110 -11 c3 -6 -1 -7 -9 -4
-18 7 -21 14 -7 14 6 0 13 -4 16 -10z m55 -20 c0 -5 -2 -10 -4 -10 -3 0 -8 5
-11 10 -3 6 -1 10 4 10 6 0 11 -4 11 -10z m-57 -25 c-3 -10 -1 -15 7 -13 7 2
15 -4 17 -12 4 -13 3 -13 -6 0 -6 8 -11 11 -11 6 0 -6 -5 -5 -11 1 -6 6 -8 16
-5 22 10 16 16 13 9 -4z m37 5 c0 -5 -2 -10 -4 -10 -3 0 -8 5 -11 10 -3 6 -1
10 4 10 6 0 11 -4 11 -10z m-65 -9 c3 -5 2 -12 -3 -15 -5 -3 -9 1 -9 9 0 17 3
19 12 6z m35 -37 c0 -2 -7 -4 -15 -4 -8 0 -15 4 -15 10 0 5 7 7 15 4 8 -4 15
-8 15 -10z m-110 -15 c0 -4 -13 -6 -29 -5 -16 0 -28 3 -26 6 5 8 55 7 55 -1z
m-324 -64 c-1 -8 -5 -17 -8 -21 -5 -4 -4 16 1 34 3 9 9 -1 7 -13z m121 -8 c0
-7 -11 -13 -23 -13 -12 0 -20 4 -18 8 3 5 9 6 14 3 5 -3 11 -1 15 5 8 13 12
13 12 -3z m-57 -7 c0 -5 -2 -10 -4 -10 -3 0 -8 5 -11 10 -3 6 -1 10 4 10 6 0
11 -4 11 -10z m-100 -20 c0 -5 -5 -10 -11 -10 -5 0 -7 5 -4 10 3 6 8 10 11 10
2 0 4 -4 4 -10z m157 -22 c-3 -8 -6 -5 -6 6 -1 11 2 17 5 13 3 -3 4 -12 1 -19z
m-144 -31 c4 3 7 1 7 -5 0 -6 -8 -10 -18 -9 -10 0 -19 7 -19 14 0 9 4 10 12 3
7 -5 15 -7 18 -3z m82 -16 c-6 -5 -25 10 -25 20 0 5 6 4 14 -3 8 -7 12 -15 11
-17z m-141 3 c3 -8 2 -12 -4 -9 -6 3 -10 10 -10 16 0 14 7 11 14 -7z m93 -36
c-4 -12 -1 -28 5 -35 8 -9 7 -13 -2 -13 -10 0 -10 -3 0 -15 12 -15 12 -16 -12
-19 -7 -1 -12 -9 -12 -17 1 -11 -6 -15 -22 -13 -13 1 -24 -2 -24 -7 0 -5 -6
-8 -12 -6 -7 1 -13 -6 -13 -16 0 -28 -31 -42 -44 -20 -6 11 -11 13 -11 5 0 -7
-5 -10 -11 -6 -8 4 -7 9 2 15 8 5 12 9 9 10 -3 0 -13 2 -22 4 -13 2 -16 -3
-14 -23 5 -36 -8 -70 -19 -53 -4 8 -2 16 5 21 8 5 7 9 -5 13 -10 5 -14 3 -9
-5 5 -7 3 -8 -5 -3 -10 6 -11 3 -2 -14 9 -16 9 -21 0 -21 -8 0 -8 -4 1 -15 9
-10 9 -15 1 -15 -11 0 -14 9 -14 42 0 10 -4 15 -8 12 -5 -3 -7 -10 -4 -15 4
-5 -1 -12 -9 -15 -9 -3 -14 -10 -11 -14 3 -5 -2 -13 -12 -18 -15 -9 -15 -12
-3 -28 9 -11 10 -15 3 -10 -7 4 -13 3 -13 -3 0 -5 5 -13 10 -16 7 -4 7 -12 0
-24 -5 -10 -6 -22 -2 -26 4 -5 2 -5 -4 -2 -6 4 -10 18 -8 32 2 20 -1 24 -10
16 -7 -6 -17 -7 -21 -3 -5 4 -5 1 0 -7 5 -9 4 -12 -2 -8 -5 3 -10 1 -11 -6 -3
-51 -18 -78 -39 -70 -9 4 -14 2 -10 -3 8 -13 -2 -26 -35 -46 -19 -13 -28 -14
-31 -5 -3 9 -8 9 -20 -2 -11 -9 -17 -10 -17 -2 0 6 5 11 11 11 5 0 7 4 4 10
-3 6 1 7 10 4 12 -5 14 -2 8 12 -7 18 -6 18 12 0 12 -12 20 -15 23 -7 2 6 8 9
12 6 5 -3 11 -1 14 4 4 5 -5 8 -18 7 -17 -2 -23 1 -19 10 3 8 9 11 14 8 5 -3
9 2 9 10 0 9 5 16 11 16 5 0 7 5 4 10 -4 6 -1 9 7 8 7 -2 12 3 10 10 -1 6 4
11 10 10 7 -2 12 3 10 10 -1 6 3 11 10 10 7 -2 12 3 13 10 0 7 6 16 13 21 8 5
13 12 11 17 -1 5 7 14 18 19 11 6 18 16 15 23 -2 6 1 12 7 12 6 0 11 6 11 14
0 8 7 17 16 20 8 3 13 10 10 15 -3 5 1 14 9 21 8 7 12 16 9 21 -3 5 3 6 12 2
13 -5 16 -2 12 9 -5 11 1 14 23 13 21 -1 28 2 25 11 -6 15 25 7 35 -9 4 -5 9
-5 13 2 4 6 -3 15 -16 20 -18 8 -19 10 -5 10 10 1 15 6 12 11 -4 6 -11 8 -16
5 -5 -4 -9 -1 -9 5 0 6 -5 8 -12 4 -7 -4 -8 -3 -4 5 8 12 19 8 48 -17 10 -8
15 -19 12 -23 -3 -5 0 -9 5 -9 14 0 14 23 1 36 -7 7 -4 16 10 29 11 10 20 14
20 9 0 -5 4 -2 10 6 6 10 8 5 7 -19 -1 -19 3 -36 9 -38 7 -2 11 8 11 24 0 44
3 63 9 63 4 0 4 -10 1 -22z m-87 0 c0 -4 -4 -8 -9 -8 -6 0 -12 4 -15 8 -3 5 1
9 9 9 8 0 15 -4 15 -9z m-60 -22 c0 -2 -8 -10 -17 -17 -16 -13 -17 -12 -4 4
13 16 21 21 21 13z m245 -16 c-3 -5 -12 -10 -18 -10 -7 0 -6 4 3 10 19 12 23
12 15 0z m-254 -37 c-12 -8 -25 -12 -28 -9 -4 3 -1 6 6 6 7 0 10 4 7 8 -2 4 5
9 16 9 21 2 21 2 -1 -14z m-4581 -64 c0 -5 6 -7 13 -5 6 1 8 1 4 -2 -5 -2 -1
-12 8 -22 13 -15 14 -22 5 -37 -10 -16 -10 -16 -5 3 4 17 -3 29 -31 52 -28 23
-32 30 -16 25 12 -3 22 -9 22 -14z m54 -14 c3 -8 1 -15 -4 -15 -6 0 -10 7 -10
15 0 8 2 15 4 15 2 0 6 -7 10 -15z m56 -25 c0 -5 -4 -10 -10 -10 -5 0 -10 5
-10 10 0 6 5 10 10 10 6 0 10 -4 10 -10z m4570 -4 c0 -3 -4 -8 -10 -11 -5 -3
-10 -1 -10 4 0 6 5 11 10 11 6 0 10 -2 10 -4z m-4608 -43 c-6 -2 -10 -9 -6
-14 3 -5 0 -9 -5 -9 -12 0 -14 13 -4 23 3 4 11 7 17 6 6 0 5 -3 -2 -6z m-94
-24 c9 -12 9 -16 -1 -16 -7 0 -14 9 -14 20 -1 11 -1 18 0 16 2 -2 8 -11 15
-20z m37 11 c-3 -5 -12 -10 -18 -10 -7 0 -6 4 3 10 19 12 23 12 15 0z m132 4
c-8 -8 -48 -13 -43 -6 2 4 14 8 26 9 12 1 20 0 17 -3z m59 -6 c4 -7 4 -10 -1
-6 -4 4 -15 2 -24 -5 -14 -11 -14 -10 -2 6 16 20 18 21 27 5z m204 2 c0 -5 -5
-10 -11 -10 -5 0 -7 5 -4 10 3 6 8 10 11 10 2 0 4 -4 4 -10z m-84 -22 c3 -4
-1 -5 -10 -4 -8 1 -18 5 -22 8 -3 4 1 5 10 4 8 -1 18 -5 22 -8z m-296 -2 c0
-3 -4 -8 -10 -11 -5 -3 -10 -1 -10 4 0 6 5 11 10 11 6 0 10 -2 10 -4z m333
-21 c4 -8 3 -16 -1 -19 -4 -3 -9 4 -9 15 -2 23 3 25 10 4z m-258 -15 c-3 -4 2
-13 10 -20 8 -7 15 -17 15 -23 0 -14 -34 33 -36 50 -1 7 2 11 7 7 5 -3 7 -9 4
-14z m-30 0 c3 -6 -1 -7 -9 -4 -18 7 -21 14 -7 14 6 0 13 -4 16 -10z m75 -2
c0 -4 -4 -8 -9 -8 -6 0 -12 4 -15 8 -3 5 1 9 9 9 8 0 15 -4 15 -9z m-210 -35
c-11 -17 -11 -17 -6 0 3 10 6 24 7 30 0 9 2 9 5 0 3 -7 0 -20 -6 -30z m111 22
c5 4 6 -2 2 -11 -4 -11 -8 -13 -11 -6 -2 7 -8 10 -12 7 -5 -3 -12 0 -16 6 -4
8 -3 9 4 5 7 -4 12 -1 13 6 0 10 2 10 6 0 2 -6 9 -10 14 -7z m160 -2 c13 -16
12 -17 -3 -4 -10 7 -18 15 -18 17 0 8 8 3 21 -13z m-110 -30 c13 -16 12 -17
-3 -4 -10 7 -18 15 -18 17 0 8 8 3 21 -13z m189 7 c0 -5 -2 -10 -4 -10 -3 0
-8 5 -11 10 -3 6 -1 10 4 10 6 0 11 -4 11 -10z m4144 -14 c-3 -9 -10 -13 -16
-10 -5 3 -4 12 3 20 15 18 22 13 13 -10z m-4413 -13 c13 -17 13 -17 -6 -3 -11
8 -22 16 -24 17 -2 2 0 3 6 3 6 0 17 -8 24 -17z m49 5 c0 -4 -4 -8 -9 -8 -6 0
-12 4 -15 8 -3 5 1 9 9 9 8 0 15 -4 15 -9z m325 2 c3 -6 -1 -7 -9 -4 -18 7
-21 14 -7 14 6 0 13 -4 16 -10z m-282 -27 c-3 -7 -6 -13 -8 -13 -2 0 -5 6 -8
13 -3 8 1 14 8 14 7 0 11 -6 8 -14z m35 -2 c-7 -9 -13 -18 -15 -20 -1 -2 -1 5
0 16 0 11 7 20 14 20 10 0 10 -4 1 -16z m-104 -6 c-4 -8 -11 -12 -16 -9 -6 4
-5 10 3 15 19 12 19 11 13 -6z m46 -5 c0 -5 -5 -10 -11 -10 -5 0 -7 5 -4 10 3
6 8 10 11 10 2 0 4 -4 4 -10z m100 -15 c14 -19 14 -19 -2 -6 -10 7 -18 18 -18
24 0 6 1 8 3 6 1 -2 9 -13 17 -24z m40 19 c0 -8 -19 -13 -24 -6 -3 5 1 9 9 9
8 0 15 -2 15 -3z m51 -17 c-10 -9 -11 -8 -5 6 3 10 9 15 12 12 3 -3 0 -11 -7
-18z m-109 -21 c7 4 8 2 4 -5 -9 -13 -26 -5 -25 12 0 9 2 8 6 -1 2 -6 10 -9
15 -6z m68 -1 c-7 -8 -17 -15 -23 -15 -6 0 -2 7 9 15 25 19 30 19 14 0z m306
-11 c1 -9 0 -13 -4 -10 -3 4 -7 14 -8 22 -1 9 0 13 4 10 3 -4 7 -14 8 -22z
m-426 6 c0 -5 -8 -10 -17 -10 -15 0 -16 2 -3 10 19 12 20 12 20 0z m186 -26
c1 -9 -1 -13 -4 -9 -4 4 -7 10 -7 13 0 4 -4 14 -9 22 -7 12 -6 13 4 3 8 -7 15
-20 16 -29z m88 28 c3 -5 -1 -9 -9 -9 -8 0 -12 4 -9 9 3 4 7 8 9 8 2 0 6 -4 9
-8z m670 -8 c3 -8 2 -12 -4 -9 -6 3 -10 10 -10 16 0 14 7 11 14 -7z m-977 -20
c-7 -7 -37 7 -37 17 0 6 9 5 21 -1 11 -7 19 -14 16 -16z m182 13 c8 -10 7 -14
-2 -14 -8 0 -14 6 -14 14 0 7 1 13 2 13 2 0 8 -6 14 -13z m-119 -7 c0 -5 -4
-10 -10 -10 -5 0 -10 5 -10 10 0 6 5 10 10 10 6 0 10 -4 10 -10z m40 -10 c-11
-21 -30 -27 -30 -9 0 5 4 8 9 5 5 -3 11 1 15 9 3 8 8 15 11 15 3 0 1 -9 -5
-20z m-70 -10 c0 -5 -4 -10 -10 -10 -5 0 -10 5 -10 10 0 6 5 10 10 10 6 0 10
-4 10 -10z m490 0 c0 -5 -2 -10 -4 -10 -3 0 -8 5 -11 10 -3 6 -1 10 4 10 6 0
11 -4 11 -10z m-266 -27 c-7 -38 -16 -45 -10 -8 5 36 5 35 10 35 3 0 2 -12 0
-27z m56 11 c0 -8 -19 -13 -24 -6 -3 5 1 9 9 9 8 0 15 -2 15 -3z m245 -4 c3
-5 1 -10 -4 -10 -6 0 -11 5 -11 10 0 6 2 10 4 10 3 0 8 -4 11 -10z m55 4 c0
-8 -19 -13 -24 -6 -3 5 1 9 9 9 8 0 15 -2 15 -3z m-210 -8 c0 -2 -8 -10 -17
-17 -16 -13 -17 -12 -4 4 13 16 21 21 21 13z m54 -25 c-2 -3 -12 3 -22 13 -16
17 -16 18 5 5 12 -7 20 -15 17 -18z m-118 2 c-3 -20 -22 -28 -31 -14 -3 7 0 8
10 5 11 -5 14 -2 9 10 -3 9 -2 16 4 16 6 0 9 -8 8 -17z m497 2 c4 -8 3 -16 -1
-19 -4 -3 -9 4 -9 15 -2 23 3 25 10 4z m64 0 c0 -8 -4 -12 -9 -9 -5 3 -6 10
-3 15 9 13 12 11 12 -6z m-679 -12 c-12 -15 -22 -18 -14 -4 4 5 0 11 -6 14 -7
3 -3 4 9 4 17 -1 19 -4 11 -14z m200 4 c8 -10 6 -13 -11 -14 -12 0 -16 1 -9 4
6 3 10 9 6 14 -8 14 2 11 14 -4z m52 -11 c0 -2 -7 -7 -16 -10 -8 -3 -12 -2 -9
4 6 10 25 14 25 6z m2531 -13 c13 -16 12 -17 -3 -4 -17 13 -22 21 -14 21 2 0
10 -8 17 -17z m-2651 -3 c-8 -5 -19 -10 -25 -10 -5 0 -3 5 5 10 8 5 20 10 25
10 6 0 3 -5 -5 -10z m2865 1 c3 -5 2 -12 -3 -15 -5 -3 -9 1 -9 9 0 17 3 19 12
6z m-2848 -15 c-10 -8 -14 -17 -9 -20 5 -3 15 1 22 9 16 19 33 9 25 -16 -4
-10 -2 -19 4 -19 5 0 12 8 15 18 4 14 5 14 4 -3 0 -11 0 -23 1 -27 0 -5 1 -11
2 -15 0 -5 6 -15 12 -23 6 -8 8 -12 3 -8 -5 4 -17 3 -27 -3 -14 -7 -19 -6 -19
2 0 9 -3 9 -14 0 -11 -9 -18 -6 -36 16 -12 15 -18 22 -14 14 4 -9 2 -12 -6 -9
-23 7 -19 37 10 68 15 16 32 30 37 30 4 0 0 -7 -10 -14z m2788 5 c3 -5 2 -12
-3 -15 -5 -3 -9 1 -9 9 0 17 3 19 12 6z m-2652 -18 c-4 -11 -3 -14 5 -9 8 5
10 1 5 -10 -4 -11 -8 -13 -11 -6 -2 7 -8 9 -14 6 -6 -4 -5 2 1 15 14 25 23 28
14 4z m40 2 c-3 -9 -8 -14 -10 -11 -3 3 -2 9 2 15 9 16 15 13 8 -4z m195 -5
c-7 -10 -14 -17 -17 -15 -4 4 18 35 25 35 2 0 -1 -9 -8 -20z m222 16 c0 -3 -4
-8 -10 -11 -5 -3 -10 -1 -10 4 0 6 5 11 10 11 6 0 10 -2 10 -4z m96 -8 c3 -4
-1 -5 -10 -4 -8 1 -18 5 -22 8 -3 4 1 5 10 4 8 -1 18 -5 22 -8z m118 -4 c3 -8
2 -12 -4 -9 -6 3 -10 10 -10 16 0 14 7 11 14 -7z m-355 -7 c8 -10 7 -14 -2
-14 -8 0 -14 6 -14 14 0 7 1 13 2 13 2 0 8 -6 14 -13z m-244 -7 c3 -5 1 -10
-4 -10 -6 0 -11 5 -11 10 0 6 2 10 4 10 3 0 8 -4 11 -10z m95 0 c-8 -5 -19
-10 -25 -10 -5 0 -3 5 5 10 8 5 20 10 25 10 6 0 3 -5 -5 -10z m880 6 c0 -2 -8
-10 -17 -17 -16 -13 -17 -12 -4 4 13 16 21 21 21 13z m1221 -19 c-10 -9 -11
-8 -5 6 3 10 9 15 12 12 3 -3 0 -11 -7 -18z m189 13 c0 -5 -5 -10 -11 -10 -5
0 -7 5 -4 10 3 6 8 10 11 10 2 0 4 -4 4 -10z m576 -2 c5 4 6 3 2 -2 -4 -5 -2
-16 4 -25 10 -13 10 -14 -2 -4 -10 9 -17 10 -27 2 -7 -7 -13 -8 -13 -3 0 5 -4
4 -8 -3 -6 -9 -11 -7 -19 6 -10 16 -8 18 10 17 14 -1 21 4 19 13 -2 11 0 12
11 3 8 -7 18 -8 23 -4z m-2636 -2 c0 -2 -8 -10 -17 -17 -16 -13 -17 -12 -4 4
13 16 21 21 21 13z m2438 -8 c-2 -7 -7 -16 -13 -20 -5 -4 -6 -11 -1 -15 4 -4
15 1 25 12 17 20 47 34 37 16 -3 -5 1 -11 9 -15 18 -6 30 10 13 18 -10 4 12 2
41 -3 2 -1 -4 -10 -14 -21 -13 -14 -22 -17 -30 -10 -13 11 -39 -10 -30 -24 3
-3 -2 0 -11 8 -14 12 -19 10 -39 -10 -27 -27 -56 -34 -35 -9 12 14 9 16 -15
15 -8 -1 -35 27 -35 35 0 3 10 -1 22 -9 31 -22 35 -20 53 14 16 31 27 39 23
18z m-3061 -15 c0 -10 -4 -10 -16 -1 -9 7 -18 13 -20 15 -2 1 5 1 16 0 11 0
20 -7 20 -14z m343 7 c0 -5 -4 -10 -10 -10 -5 0 -10 5 -10 10 0 6 5 10 10 10
6 0 10 -4 10 -10z m1934 2 c3 -5 -1 -9 -9 -9 -8 0 -12 4 -9 9 3 4 7 8 9 8 2 0
6 -4 9 -8z m81 -2 c3 -5 1 -10 -4 -10 -6 0 -11 5 -11 10 0 6 2 10 4 10 3 0 8
-4 11 -10z m49 2 c3 -5 -1 -9 -9 -9 -8 0 -12 4 -9 9 3 4 7 8 9 8 2 0 6 -4 9
-8z m441 -2 c3 -6 -1 -7 -9 -4 -18 7 -21 14 -7 14 6 0 13 -4 16 -10z m-2370
-22 c-9 -6 -19 -7 -22 -4 -4 3 -1 6 6 6 7 0 9 4 6 10 -4 6 1 7 11 3 15 -6 15
-7 -1 -15z m95 8 c-7 -7 -13 -7 -20 0 -6 6 -3 10 10 10 13 0 16 -4 10 -10z
m2310 -7 c0 -5 -4 -9 -8 -9 -5 0 -9 7 -9 15 0 8 4 12 9 9 4 -3 8 -9 8 -15z
m63 14 c-7 -2 -19 -2 -25 0 -7 3 -2 5 12 5 14 0 19 -2 13 -5z m70 -6 c4 3 7 1
7 -5 0 -17 -16 -15 -31 6 -12 15 -12 16 2 5 9 -7 19 -10 22 -6z m-2590 -4 c-7
-2 -19 -2 -25 0 -7 3 -2 5 12 5 14 0 19 -2 13 -5z m192 -12 c-3 -6 -11 -11
-16 -11 -5 0 -4 6 3 14 14 16 24 13 13 -3z m99 3 c3 -8 2 -12 -4 -9 -6 3 -10
10 -10 16 0 14 7 11 14 -7z m37 -7 c-10 -9 -11 -8 -5 6 3 10 9 15 12 12 3 -3
0 -11 -7 -18z m224 14 c-9 -8 -36 -10 -30 -2 2 4 11 8 20 8 8 0 13 -3 10 -6z
m836 -14 c-10 -9 -11 -8 -5 6 3 10 9 15 12 12 3 -3 0 -11 -7 -18z m700 6 c13
-16 12 -17 -3 -4 -17 13 -22 21 -14 21 2 0 10 -8 17 -17z m271 -1 c-7 -2 -9
-9 -5 -15 3 -7 2 -8 -2 -4 -16 14 -14 36 3 29 10 -4 12 -7 4 -10z m133 0 c-3
-3 -11 0 -18 7 -9 10 -8 11 6 5 10 -3 15 -9 12 -12z m-616 -5 c8 -10 7 -14 -2
-14 -8 0 -14 6 -14 14 0 7 1 13 2 13 2 0 8 -6 14 -13z m162 -4 c13 -16 12 -17
-3 -4 -17 13 -22 21 -14 21 2 0 10 -8 17 -17z m-1961 -3 c0 -5 -4 -10 -10 -10
-5 0 -10 5 -10 10 0 6 5 10 10 10 6 0 10 -4 10 -10z m325 1 c-9 -8 -36 -10
-30 -2 2 4 11 8 20 8 8 0 13 -3 10 -6z m45 4 c0 -2 -6 -8 -13 -14 -10 -8 -14
-7 -14 2 0 8 6 14 14 14 7 0 13 -1 13 -2z m185 -5 c3 -5 1 -10 -4 -10 -6 0
-11 5 -11 10 0 6 2 10 4 10 3 0 8 -4 11 -10z m395 4 c0 -8 -19 -13 -24 -6 -3
5 1 9 9 9 8 0 15 -2 15 -3z m70 -4 c0 -5 -5 -10 -11 -10 -5 0 -7 5 -4 10 3 6
8 10 11 10 2 0 4 -4 4 -10z m35 1 c3 -5 2 -12 -3 -15 -5 -3 -9 1 -9 9 0 17 3
19 12 6z m42 -13 c2 -17 0 -19 -7 -8 -5 8 -6 18 -4 22 8 12 10 10 11 -14z
m163 12 c0 -5 -2 -10 -4 -10 -3 0 -8 5 -11 10 -3 6 -1 10 4 10 6 0 11 -4 11
-10z m640 6 c0 -2 -7 -7 -16 -10 -8 -3 -12 -2 -9 4 6 10 25 14 25 6z m-1703
-12 c-3 -3 -12 -4 -19 -1 -8 3 -5 6 6 6 11 1 17 -2 13 -5z m213 -9 c-7 -8 -20
-15 -29 -15 -11 0 -8 5 9 14 33 19 35 19 20 1z m87 2 c0 -8 -6 -14 -14 -14 -9
0 -10 4 -2 14 6 7 12 13 14 13 1 0 2 -6 2 -13z m1068 -7 c10 -11 16 -20 13
-20 -3 0 -13 9 -23 20 -10 11 -16 20 -13 20 3 0 13 -9 23 -20z m192 -12 c4
-28 -6 -18 -12 12 -2 12 -1 20 2 16 4 -4 8 -16 10 -28z m78 12 c-3 -4 0 -11 5
-13 6 -3 5 -4 -1 -3 -7 1 -13 10 -15 19 -1 9 2 15 7 11 5 -3 7 -9 4 -14z m124
-7 c2 -2 -3 -3 -11 -3 -9 0 -19 7 -22 16 -6 15 -4 15 11 3 10 -7 20 -15 22
-16z m74 7 c-3 -12 -8 -19 -11 -16 -5 6 5 36 12 36 2 0 2 -9 -1 -20z m-1793
-1 c0 -5 -4 -7 -10 -4 -5 3 -10 1 -10 -6 0 -7 -3 -10 -6 -6 -8 7 4 27 17 27 5
0 9 -5 9 -11z m511 -6 c13 -16 12 -17 -3 -4 -10 7 -18 15 -18 17 0 8 8 3 21
-13z m564 -17 c0 -19 -5 -39 -9 -43 -5 -5 -6 -2 -1 6 6 11 4 13 -11 8 -16 -6
-17 -5 -4 5 9 7 15 20 15 28 -1 15 3 30 9 30 1 0 2 -15 1 -34z m389 22 c-4 -5
-9 -7 -12 -4 -3 3 -12 0 -21 -7 -14 -10 -14 -10 -4 4 13 16 46 23 37 7z m216
-23 c0 -5 -5 -3 -10 5 -5 8 -10 20 -10 25 0 6 5 3 10 -5 5 -8 10 -19 10 -25z
m164 27 c-5 -4 -12 -11 -15 -15 -3 -5 -9 -2 -12 5 -3 9 3 14 15 15 11 1 16 -1
12 -5z m-1749 -11 c3 -5 0 -13 -6 -17 -7 -4 -9 -3 -5 4 3 5 0 13 -6 15 -9 4
-10 6 -1 6 6 1 14 -3 18 -8z m382 -6 c0 -8 -4 -15 -9 -15 -10 0 -11 14 -1 23
9 10 10 9 10 -8z m160 2 c0 -8 -6 -14 -14 -14 -9 0 -10 4 -2 14 6 7 12 13 14
13 1 0 2 -6 2 -13z m-1000 -13 c0 -7 -5 -10 -10 -7 -5 3 -12 1 -16 -5 -4 -7
-10 -5 -17 6 -10 15 -7 17 16 18 16 1 27 -4 27 -12z m538 6 c-3 -5 -12 -10
-18 -10 -7 0 -6 4 3 10 19 12 23 12 15 0z m270 0 c3 -6 -1 -7 -9 -4 -18 7 -21
14 -7 14 6 0 13 -4 16 -10z m135 6 c0 -2 -7 -7 -16 -10 -8 -3 -12 -2 -9 4 6
10 25 14 25 6z m537 -11 c0 -8 -4 -12 -9 -9 -4 3 -8 9 -8 15 0 5 4 9 8 9 5 0
9 -7 9 -15z m160 -7 c1 -10 -3 -18 -9 -18 -6 0 -8 3 -5 7 4 3 2 11 -3 18 -7 8
-6 12 3 12 7 0 14 -9 14 -19z m126 5 c-3 -7 -6 -13 -8 -13 -2 0 -5 6 -8 13 -3
8 1 14 8 14 7 0 11 -6 8 -14z m173 5 c5 -7 3 -8 -6 -3 -10 6 -12 4 -7 -8 3
-10 2 -17 -3 -17 -11 0 -13 23 -3 33 9 9 11 9 19 -5z m90 -17 c9 -12 13 -25
10 -28 -3 -3 -11 6 -17 20 -7 15 -15 24 -20 22 -4 -3 -10 -1 -13 4 -13 20 25
3 40 -18z m-1424 12 c-6 -2 -10 -9 -6 -14 3 -5 0 -9 -5 -9 -12 0 -14 13 -4 23
3 4 11 7 17 6 6 0 5 -3 -2 -6z m119 -3 c9 13 10 13 6 0 -2 -8 -10 -15 -17 -15
-7 0 -15 7 -17 15 -4 13 -3 13 6 0 10 -13 12 -13 22 0z m55 -18 c-2 -9 -9 -17
-17 -17 -8 0 -20 -4 -26 -8 -8 -5 -13 -4 -13 2 0 11 13 15 37 12 7 -1 10 7 8
19 -2 11 0 18 5 15 4 -3 7 -13 6 -23z m442 3 c-3 -3 -9 2 -12 12 -6 14 -5 15
5 6 7 -7 10 -15 7 -18z m120 0 c-3 -3 -9 2 -12 12 -6 14 -5 15 5 6 7 -7 10
-15 7 -18z m242 4 c0 -5 -4 -9 -8 -9 -5 0 -9 7 -9 15 0 8 4 12 9 9 4 -3 8 -9
8 -15z m237 1 c2 -23 -13 -35 -23 -19 -5 8 -3 9 6 4 10 -6 12 -4 7 7 -3 9 -3
19 0 22 9 8 9 8 10 -14z m-1157 0 c0 -5 -4 -10 -10 -10 -5 0 -10 5 -10 10 0 6
5 10 10 10 6 0 10 -4 10 -10z m217 -4 c0 -8 -6 -12 -15 -9 -11 5 -11 7 0 14 7
5 13 9 14 9 0 0 1 -6 1 -14z m74 -13 c-12 -20 -14 -14 -5 12 4 9 9 14 11 11 3
-2 0 -13 -6 -23z m309 21 c0 -8 -19 -13 -24 -6 -3 5 1 9 9 9 8 0 15 -2 15 -3z
m436 -12 c-2 -8 -12 -20 -25 -26 -12 -7 -18 -15 -15 -19 4 -4 2 -7 -4 -7 -21
0 -13 20 13 32 17 8 22 15 15 23 -7 8 -5 12 4 12 8 0 13 -7 12 -15z m36 -14
c-6 -6 -12 -6 -17 3 -5 8 -4 10 3 5 7 -4 12 0 13 11 0 12 2 13 6 5 3 -8 1 -18
-5 -24z m-1212 18 c0 -3 -4 -8 -10 -11 -5 -3 -10 -1 -10 4 0 6 5 11 10 11 6 0
10 -2 10 -4z m640 -6 c0 -5 -2 -10 -4 -10 -3 0 -8 5 -11 10 -3 6 -1 10 4 10 6
0 11 -4 11 -10z m155 0 c-3 -5 -1 -10 6 -10 7 0 10 -3 6 -6 -9 -9 -28 6 -22
17 4 5 8 9 11 9 3 0 2 -4 -1 -10z m202 -5 c0 -8 -4 -15 -9 -15 -10 0 -11 14
-1 23 9 10 10 9 10 -8z m-815 -43 c-5 -15 -4 -15 11 -3 9 7 17 10 17 5 0 -5 5
-2 10 6 9 13 10 13 11 0 1 -8 1 -18 1 -21 -1 -4 8 -15 20 -25 12 -11 18 -14
15 -7 -4 6 -2 15 5 20 18 11 16 36 -2 45 -12 5 -12 7 2 7 10 1 22 -8 28 -19
l11 -21 26 21 c14 11 31 20 37 20 6 -1 0 -7 -13 -14 -19 -10 -20 -14 -8 -19 9
-3 18 -1 20 6 2 7 7 9 11 6 3 -3 -4 -14 -16 -25 -12 -10 -18 -14 -15 -7 5 8 0
11 -13 10 -12 -1 -20 -8 -19 -17 3 -30 -1 -33 -20 -16 -17 15 -19 15 -25 1 -3
-9 -10 -13 -16 -10 -9 5 -26 10 -66 19 -7 1 -19 8 -28 15 -8 7 -20 10 -27 6
-8 -5 -8 -2 -1 11 5 11 7 26 5 34 -4 13 -3 13 6 0 5 -8 7 -18 5 -22 -3 -4 2
-5 11 -2 12 5 13 10 6 17 -6 6 -11 16 -11 22 0 5 7 2 15 -8 7 -11 11 -26 7
-35z m135 26 c2 -18 0 -20 -7 -8 -12 18 -13 30 -2 30 4 0 9 -10 9 -22z m173
18 c0 -2 -7 -6 -15 -10 -8 -3 -15 -1 -15 4 0 6 7 10 15 10 8 0 15 -2 15 -4z
m63 -16 c9 -11 13 -20 7 -20 -5 0 -14 9 -20 20 -6 11 -9 20 -8 20 2 0 11 -9
21 -20z m201 4 c3 -8 2 -12 -4 -9 -6 3 -10 10 -10 16 0 14 7 11 14 -7z m646 0
c0 -2 -7 -4 -15 -4 -8 0 -15 4 -15 10 0 5 7 7 15 4 8 -4 15 -8 15 -10z m-946
-9 c3 -8 1 -15 -4 -15 -6 0 -10 7 -10 15 0 8 2 15 4 15 2 0 6 -7 10 -15z m146
11 c0 -3 -4 -8 -10 -11 -5 -3 -10 -1 -10 4 0 6 5 11 10 11 6 0 10 -2 10 -4z
m97 -28 c-3 -7 -5 -2 -5 12 0 14 2 19 5 13 2 -7 2 -19 0 -25z m48 -36 c-3 -3
-5 0 -5 6 0 7 -4 12 -8 12 -14 0 -10 -29 5 -34 21 -8 5 -28 -17 -21 -10 3 -24
0 -31 -8 -12 -11 -18 -11 -42 3 l-27 17 25 11 c14 6 25 17 25 23 0 6 6 9 13 6
23 -8 45 12 41 35 -3 13 2 9 11 -11 8 -19 13 -36 10 -39z m115 63 c0 -2 -9 -9
-20 -15 -12 -6 -20 -7 -20 -1 0 5 8 12 18 14 9 3 18 5 20 6 1 0 2 -1 2 -4z
m221 -5 c10 -6 19 -16 19 -23 0 -8 -3 -9 -8 -1 -4 6 -16 16 -27 22 -25 14 -11
16 16 2z m-669 -22 c-2 -11 5 -14 24 -12 14 1 28 5 31 8 3 3 14 -5 24 -17 23
-27 25 -15 3 18 -9 14 -12 25 -6 25 5 0 12 -10 15 -22 5 -19 8 -20 23 -7 15
12 17 12 9 0 -6 -11 -4 -13 7 -8 9 3 15 1 14 -6 -3 -20 -17 -38 -26 -32 -5 3
-12 1 -15 -5 -5 -8 -11 -7 -21 1 -11 9 -15 8 -20 -6 -6 -16 -8 -16 -16 -1 -7
12 -13 14 -21 7 -8 -6 -19 -4 -33 8 -19 15 -20 19 -8 36 11 15 11 21 1 28 -9
6 -8 7 3 4 8 -2 14 -11 12 -19z m403 -16 c-3 -3 -16 5 -28 17 l-22 23 28 -17
c15 -10 25 -20 22 -23z m72 16 c-3 -8 -6 -5 -6 6 -1 11 2 17 5 13 3 -3 4 -12
1 -19z m163 12 c18 -12 2 -12 -25 0 -13 6 -15 9 -5 9 8 0 22 -4 30 -9z m-784
-28 c-4 -24 -19 -21 -21 5 -1 13 3 19 11 16 7 -2 11 -12 10 -21z m411 12 c-3
-3 -12 -4 -19 -1 -8 3 -5 6 6 6 11 1 17 -2 13 -5z m98 -4 c3 -5 2 -10 -4 -10
-5 0 -13 5 -16 10 -3 6 -2 10 4 10 5 0 13 -4 16 -10z m152 4 c-3 -3 -12 -4
-19 -1 -8 3 -5 6 6 6 11 1 17 -2 13 -5z m209 -59 c1 -8 -2 -15 -6 -15 -5 0 -8
9 -7 20 1 21 10 18 13 -5z"/>
<path d="M7113 3614 c4 -5 20 -10 35 -12 15 -2 23 0 19 4 -4 5 -20 10 -35 12
-15 2 -23 0 -19 -4z"/>
<path d="M7055 3581 c3 -6 -3 -14 -12 -20 -10 -6 -13 -11 -6 -11 6 0 15 5 18
10 4 6 11 8 16 5 5 -3 6 1 3 9 -3 9 -10 16 -16 16 -5 0 -7 -4 -3 -9z"/>
<path d="M6435 3270 c5 -8 -32 -45 -44 -45 -3 0 -5 -3 -3 -7 1 -5 -2 -8 -7 -8
-5 0 -11 9 -14 20 -3 13 -11 18 -20 14 -9 -3 -13 -12 -10 -20 3 -7 -3 -17 -12
-20 -13 -5 -14 -9 -4 -15 8 -4 19 -3 27 3 8 7 23 13 34 13 11 1 25 9 30 18 5
10 14 17 19 17 6 0 7 -5 3 -12 -5 -7 -3 -8 5 -4 7 5 10 14 7 21 -2 7 0 17 5
22 6 6 4 10 -5 10 -8 0 -13 -3 -11 -7z m-89 -68 c-17 -16 -18 -16 -5 5 7 12
15 20 18 17 3 -2 -3 -12 -13 -22z"/>
<path d="M6223 3187 c2 -6 9 -11 15 -10 11 3 11 -15 0 -33 -4 -6 -1 -11 7 -11
8 0 11 5 8 10 -4 7 1 8 12 3 14 -5 15 -3 7 6 -6 7 -10 17 -10 23 0 5 -10 13
-22 17 -16 6 -20 4 -17 -5z"/>
<path d="M6120 3123 c0 -6 6 -18 14 -26 12 -11 12 -17 3 -28 -7 -8 3 -1 21 15
17 17 32 31 32 32 0 4 -25 -2 -37 -9 -7 -4 -16 0 -22 10 -6 10 -11 13 -11 6z"/>
<path d="M6075 3101 c-3 -6 0 -11 7 -11 7 -1 -4 -10 -25 -21 -21 -11 -35 -24
-32 -29 4 -6 2 -10 -4 -10 -5 0 -12 4 -15 8 -10 16 -51 6 -50 -12 2 -16 1 -16
-16 -1 -16 14 -18 14 -24 0 -3 -9 -2 -13 4 -10 10 6 15 -9 10 -30 -1 -5 8 -1
19 9 11 10 18 24 14 30 -3 6 5 1 19 -12 l26 -23 14 20 c8 12 19 18 24 13 4 -4
2 1 -5 11 -13 17 -6 23 22 18 4 0 7 4 7 9 0 6 12 8 26 6 26 -5 26 -5 8 17 -10
12 -20 23 -20 25 -1 2 -5 -1 -9 -7z m-61 -93 c-3 -5 -12 -4 -20 3 -7 6 -11 15
-8 21 3 5 12 4 20 -3 7 -6 11 -15 8 -21z"/>
<path d="M5651 2906 c-10 -11 -8 -16 5 -24 16 -9 15 -12 -11 -36 -20 -19 -31
-23 -41 -16 -8 7 -14 8 -18 1 -4 -6 -13 -8 -20 -5 -8 3 -17 0 -21 -6 -3 -6 -3
-9 2 -8 15 4 54 -23 47 -34 -4 -7 -3 -8 5 -4 6 4 9 11 6 16 -6 10 44 52 55 45
14 -9 34 25 22 37 -6 6 -8 16 -6 23 8 19 -12 27 -25 11z m20 -59 c-10 -9 -11
-8 -5 6 3 10 9 15 12 12 3 -3 0 -11 -7 -18z m-67 -38 c-3 -5 -10 -7 -15 -3 -5
3 -7 10 -3 15 3 5 10 7 15 3 5 -3 7 -10 3 -15z"/>
<path d="M5502 2787 c-8 -10 -6 -13 9 -14 19 -2 26 11 10 21 -5 3 -14 0 -19
-7z"/>
<path d="M5414 2662 c3 -6 -2 -15 -11 -21 -10 -6 -13 -11 -7 -11 20 0 37 27
23 36 -7 4 -9 3 -5 -4z"/>
<path d="M5341 2565 c-17 -20 -31 -39 -31 -43 0 -4 6 1 14 10 10 14 15 15 26
5 10 -9 11 -9 6 1 -4 7 -2 12 6 12 9 0 9 3 -2 10 -8 5 -10 10 -4 10 7 0 14 7
18 15 8 23 1 18 -33 -20z"/>
<path d="M1447 2342 c-13 -13 -20 -14 -25 -5 -6 9 -11 7 -20 -7 -10 -16 -10
-20 1 -20 6 0 17 -8 24 -19 13 -21 59 -25 67 -5 6 15 -27 38 -38 27 -3 -3 -6
-2 -6 3 0 6 5 15 12 22 6 6 9 14 7 17 -3 2 -13 -3 -22 -13z m16 -35 c4 3 7 1
7 -6 0 -7 5 -9 12 -5 6 4 8 3 5 -3 -10 -16 -50 -8 -53 11 -2 13 1 14 10 7 7
-6 16 -8 19 -4z"/>
<path d="M4489 2303 c-13 -16 -12 -17 4 -4 16 13 21 21 13 21 -2 0 -10 -8 -17
-17z"/>
<path d="M4425 2301 c-6 -11 9 -23 19 -14 9 9 7 23 -3 23 -6 0 -12 -4 -16 -9z"/>
<path d="M4376 2281 c-4 -5 -2 -12 3 -15 5 -4 12 -2 15 3 4 5 2 12 -3 15 -5 4
-12 2 -15 -3z"/>
<path d="M2419 2147 c8 -9 16 -15 19 -13 2 3 12 1 21 -4 13 -6 17 -4 17 10 0
17 -18 21 -32 7 -4 -4 -14 -1 -23 6 -14 11 -14 10 -2 -6z"/>
<path d="M2544 2145 c1 -8 8 -21 16 -28 12 -10 12 -9 2 4 -6 9 -9 18 -6 21 3
3 1 9 -4 12 -6 3 -9 -1 -8 -9z"/>
<path d="M2920 2125 c-5 -6 -5 -17 0 -25 6 -9 10 -10 10 -3 0 6 11 10 25 8 19
-2 23 1 15 10 -5 6 -8 14 -5 16 2 3 -5 5 -16 5 -11 0 -24 -5 -29 -11z m24 -3
c3 -5 -1 -9 -9 -9 -8 0 -12 4 -9 9 3 4 7 8 9 8 2 0 6 -4 9 -8z"/>
<path d="M2650 2144 c0 -6 8 -18 17 -25 11 -10 14 -10 9 -1 -4 7 -2 12 8 12 8
0 18 -5 21 -10 5 -8 11 -8 20 0 10 8 15 8 20 0 5 -8 11 -8 19 -1 7 6 15 8 18
5 3 -3 9 0 14 7 4 8 3 10 -4 5 -7 -4 -12 -1 -12 6 0 8 -5 6 -11 -5 -10 -16
-13 -17 -27 -4 -20 17 -72 20 -72 3 0 -6 -5 -4 -10 4 -5 8 -10 10 -10 4z m80
-10 c0 -8 -19 -13 -24 -6 -3 5 1 9 9 9 8 0 15 -2 15 -3z"/>
<path d="M7810 4000 c0 -5 5 -10 11 -10 5 0 7 5 4 10 -3 6 -8 10 -11 10 -2 0
-4 -4 -4 -10z"/>
<path d="M7796 3955 c-3 -9 -10 -13 -16 -10 -5 3 -10 1 -10 -4 0 -6 4 -11 9
-11 12 0 35 29 29 36 -3 3 -8 -2 -12 -11z"/>
<path d="M7836 3938 c3 -5 10 -6 15 -3 13 9 11 12 -6 12 -8 0 -12 -4 -9 -9z"/>
<path d="M7745 3903 c-16 -12 -16 -14 -3 -10 14 5 17 1 15 -16 -1 -13 4 -22
13 -22 19 -1 40 14 40 29 0 6 -4 5 -9 -3 -5 -8 -16 -16 -25 -17 -11 -1 -14 5
-11 27 2 16 3 29 2 29 -1 0 -11 -8 -22 -17z"/>
<path d="M7934 3876 c1 -8 5 -18 8 -22 4 -3 5 1 4 10 -1 8 -5 18 -8 22 -4 3
-5 -1 -4 -10z"/>
<path d="M7721 3864 c0 -11 3 -14 6 -6 3 7 2 16 -1 19 -3 4 -6 -2 -5 -13z"/>
<path d="M7833 3855 c0 -8 4 -12 9 -9 5 3 6 10 3 15 -9 13 -12 11 -12 -6z"/>
<path d="M7860 3866 c0 -2 8 -10 18 -17 15 -13 16 -12 3 4 -13 16 -21 21 -21
13z"/>
<path d="M8039 3853 c-13 -16 -12 -17 4 -4 9 7 17 15 17 17 0 8 -8 3 -21 -13z"/>
<path d="M8110 3860 c0 -5 5 -10 11 -10 5 0 7 5 4 10 -3 6 -8 10 -11 10 -2 0
-4 -4 -4 -10z"/>
<path d="M7734 3835 c-4 -8 -10 -12 -15 -9 -5 3 -9 3 -9 0 0 -3 9 -10 19 -15
16 -9 18 -8 13 11 -4 16 -2 19 8 13 9 -5 11 -4 6 3 -10 16 -15 15 -22 -3z"/>
<path d="M7990 3840 c0 -5 5 -10 11 -10 5 0 7 5 4 10 -3 6 -8 10 -11 10 -2 0
-4 -4 -4 -10z"/>
<path d="M7794 3826 c1 -8 5 -18 8 -22 4 -3 5 1 4 10 -1 8 -5 18 -8 22 -4 3
-5 -1 -4 -10z"/>
<path d="M7685 3800 c-3 -5 -2 -10 4 -10 5 0 13 5 16 10 3 6 2 10 -4 10 -5 0
-13 -4 -16 -10z"/>
<path d="M7870 3805 c0 -7 30 -13 34 -7 3 4 -4 9 -15 9 -10 1 -19 0 -19 -2z"/>
<path d="M7709 3783 c-13 -16 -12 -17 4 -4 9 7 17 15 17 17 0 8 -8 3 -21 -13z"/>
<path d="M7874 3762 c4 -3 14 -7 22 -8 9 -1 13 0 10 4 -4 3 -14 7 -22 8 -9 1
-13 0 -10 -4z"/>
<path d="M7659 3758 c-5 -18 -6 -38 -1 -34 7 8 12 36 6 36 -2 0 -4 -1 -5 -2z"/>
<path d="M7713 3745 c0 -8 4 -12 9 -9 5 3 6 10 3 15 -9 13 -12 11 -12 -6z"/>
<path d="M8066 3738 c3 -5 10 -6 15 -3 13 9 11 12 -6 12 -8 0 -12 -4 -9 -9z"/>
<path d="M7676 3713 c-6 -14 -5 -15 5 -6 7 7 10 15 7 18 -3 3 -9 -2 -12 -12z"/>
<path d="M7613 3703 c1 -17 4 -19 14 -11 15 12 18 22 4 14 -5 -4 -11 0 -14 6
-3 7 -4 3 -4 -9z"/>
<path d="M7713 3693 c0 -9 4 -10 14 -2 7 6 13 12 13 14 0 1 -6 2 -13 2 -8 0
-14 -6 -14 -14z"/>
<path d="M7760 3700 c-9 -6 -10 -10 -3 -10 6 0 15 5 18 10 8 12 4 12 -15 0z"/>
<path d="M7640 3675 c-7 -9 -11 -17 -9 -20 3 -2 10 5 17 15 14 24 10 26 -8 5z"/>
<path d="M7531 3654 c0 -11 3 -14 6 -6 3 7 2 16 -1 19 -3 4 -6 -2 -5 -13z"/>
<path d="M7550 3661 c0 -6 4 -13 10 -16 6 -3 7 1 4 9 -7 18 -14 21 -14 7z"/>
<path d="M7593 3652 c-8 -14 -8 -19 1 -19 7 0 13 9 13 19 1 10 1 18 0 18 -1 0
-7 -8 -14 -18z"/>
<path d="M7237 3629 c-9 -6 -22 -7 -29 -3 -7 4 -8 3 -4 -4 4 -7 13 -12 21 -12
8 0 20 -8 27 -18 13 -18 53 -27 42 -10 -3 5 -8 6 -12 4 -10 -5 -32 20 -25 28
4 3 17 -1 31 -10 13 -9 21 -11 18 -5 -4 6 -4 11 1 12 4 0 18 2 31 3 25 3 26 2
11 -27 -9 -20 -9 -20 4 -5 8 10 18 14 22 10 4 -4 3 3 -4 15 -7 15 -17 20 -28
16 -12 -5 -14 -3 -8 8 8 12 6 12 -8 0 -9 -7 -17 -10 -17 -5 0 5 -5 2 -10 -6
-8 -12 -10 -12 -10 -1 0 8 -3 11 -7 8 -3 -4 -11 -3 -17 2 -7 6 -18 6 -29 0z"/>
<path d="M7470 3634 c0 -1 6 -7 14 -13 10 -9 15 -8 19 2 3 8 -3 13 -14 13 -11
0 -19 -1 -19 -2z"/>
<path d="M7415 3620 c-3 -6 1 -7 9 -4 18 7 21 14 7 14 -6 0 -13 -4 -16 -10z"/>
<path d="M7590 3617 c0 -2 6 -10 14 -16 11 -9 16 -9 22 1 4 7 4 10 -1 6 -4 -4
-14 -3 -22 3 -7 6 -13 9 -13 6z"/>
<path d="M7436 3598 c3 -5 10 -6 15 -3 13 9 11 12 -6 12 -8 0 -12 -4 -9 -9z"/>
<path d="M7674 3602 c4 -3 14 -7 22 -8 9 -1 13 0 10 4 -4 3 -14 7 -22 8 -9 1
-13 0 -10 -4z"/>
<path d="M7736 3602 c-3 -5 1 -9 9 -9 8 0 12 4 9 9 -3 4 -7 8 -9 8 -2 0 -6 -4
-9 -8z"/>
<path d="M7007 3593 c-4 -3 -7 -11 -7 -17 0 -6 5 -5 12 2 6 6 9 14 7 17 -3 3
-9 2 -12 -2z"/>
<path d="M7536 3587 c3 -10 9 -15 12 -12 3 3 0 11 -7 18 -10 9 -11 8 -5 -6z"/>
<path d="M7435 3571 c-3 -5 -2 -12 3 -15 5 -3 9 1 9 9 0 17 -3 19 -12 6z"/>
<path d="M7360 3560 c-9 -6 -10 -10 -3 -10 6 0 15 5 18 10 8 12 4 12 -15 0z"/>
<path d="M7395 3562 c3 -3 -1 -12 -7 -21 -8 -10 -4 -9 10 3 26 23 26 23 7 23
-8 0 -13 -3 -10 -5z"/>
<path d="M7160 3535 c-19 -22 -8 -25 13 -3 9 10 13 18 8 18 -5 0 -14 -7 -21
-15z"/>
<path d="M7264 3530 c0 -13 4 -16 10 -10 7 7 7 13 0 20 -6 6 -10 3 -10 -10z"/>
<path d="M7311 3547 c2 -1 13 -9 24 -17 19 -14 19 -14 6 3 -7 9 -18 17 -24 17
-6 0 -8 -1 -6 -3z"/>
<path d="M7675 3529 c-4 -6 -5 -12 -2 -15 2 -3 7 2 10 11 7 17 1 20 -8 4z"/>
<path d="M7570 3520 c0 -5 5 -10 11 -10 5 0 7 5 4 10 -3 6 -8 10 -11 10 -2 0
-4 -4 -4 -10z"/>
<path d="M6881 3507 c-8 -10 -7 -14 4 -14 8 0 16 6 19 14 3 7 2 13 -3 13 -5 0
-14 -6 -20 -13z"/>
<path d="M7108 3497 c-3 -19 -2 -25 4 -19 6 6 8 18 6 28 -3 14 -5 12 -10 -9z"/>
<path d="M7324 3502 c4 -3 14 -7 22 -8 9 -1 13 0 10 4 -4 3 -14 7 -22 8 -9 1
-13 0 -10 -4z"/>
<path d="M6980 3482 c0 -15 39 -22 47 -9 3 7 3 9 -2 5 -4 -4 -16 -3 -26 3 -11
5 -19 6 -19 1z"/>
<path d="M7235 3482 c3 -3 -1 -12 -7 -21 -8 -10 -4 -9 10 3 26 23 26 23 7 23
-8 0 -13 -3 -10 -5z"/>
<path d="M7455 3480 c3 -5 8 -10 11 -10 2 0 4 5 4 10 0 6 -5 10 -11 10 -5 0
-7 -4 -4 -10z"/>
<path d="M7495 3480 c3 -5 8 -10 11 -10 2 0 4 5 4 10 0 6 -5 10 -11 10 -5 0
-7 -4 -4 -10z"/>
<path d="M7393 3465 c0 -8 4 -12 9 -9 5 3 6 10 3 15 -9 13 -12 11 -12 -6z"/>
<path d="M6769 3458 c-1 -7 -1 -16 -1 -20 2 -11 -27 -18 -33 -7 -8 11 -25 2
-25 -13 0 -6 3 -8 6 -5 4 3 14 2 24 -3 13 -7 22 -4 35 10 14 15 15 20 4 20
-12 0 -12 2 0 9 9 6 10 11 2 15 -6 4 -12 1 -12 -6z"/>
<path d="M7036 3462 c-3 -5 1 -9 9 -9 8 0 12 4 9 9 -3 4 -7 8 -9 8 -2 0 -6 -4
-9 -8z"/>
<path d="M7160 3460 c8 -5 20 -10 25 -10 6 0 3 5 -5 10 -8 5 -19 10 -25 10 -5
0 -3 -5 5 -10z"/>
<path d="M7356 3458 c3 -5 10 -6 15 -3 13 9 11 12 -6 12 -8 0 -12 -4 -9 -9z"/>
<path d="M7073 3433 c0 -9 4 -10 14 -2 7 6 13 12 13 14 0 1 -6 2 -13 2 -8 0
-14 -6 -14 -14z"/>
<path d="M7455 3439 c-3 -4 2 -6 10 -5 21 3 28 13 10 13 -9 0 -18 -4 -20 -8z"/>
<path d="M6986 3423 c-6 -14 -5 -15 5 -6 7 7 10 15 7 18 -3 3 -9 -2 -12 -12z"/>
<path d="M6914 3421 c4 -5 1 -12 -4 -14 -6 -3 -5 -4 2 -3 15 3 23 26 8 26 -6
0 -9 -4 -6 -9z"/>
<path d="M7095 3421 c-3 -5 -2 -12 3 -15 5 -3 9 1 9 9 0 17 -3 19 -12 6z"/>
<path d="M6960 3409 c0 -5 -4 -7 -10 -4 -6 4 -7 -1 -3 -11 5 -13 3 -15 -7 -9
-9 6 -11 4 -5 -5 6 -10 11 -10 20 3 7 9 15 14 19 10 4 -4 4 0 0 10 -7 19 -14
22 -14 6z"/>
<path d="M7034 3385 c0 -19 3 -32 5 -29 8 7 9 54 2 59 -4 2 -7 -12 -7 -30z"/>
<path d="M7060 3406 c0 -2 8 -10 18 -17 15 -13 16 -12 3 4 -13 16 -21 21 -21
13z"/>
<path d="M7149 3397 c6 -8 7 -18 3 -22 -4 -5 -1 -5 6 -1 10 6 10 11 1 22 -6 8
-14 14 -16 14 -3 0 0 -6 6 -13z"/>
<path d="M6860 3380 c-9 -6 -10 -10 -3 -10 6 0 15 5 18 10 8 12 4 12 -15 0z"/>
<path d="M6895 3380 c3 -5 8 -10 11 -10 2 0 4 5 4 10 0 6 -5 10 -11 10 -5 0
-7 -4 -4 -10z"/>
<path d="M6990 3376 c0 -2 8 -10 18 -17 15 -13 16 -12 3 4 -13 16 -21 21 -21
13z"/>
<path d="M6813 3355 c-3 -9 -3 -18 -1 -21 3 -3 8 4 11 16 6 23 -1 27 -10 5z"/>
<path d="M6875 3361 c-9 -15 15 -25 28 -12 9 9 7 10 -7 5 -13 -5 -17 -4 -12 4
4 7 5 12 2 12 -3 0 -7 -4 -11 -9z"/>
<path d="M7107 3359 c7 -7 15 -10 18 -7 3 3 -2 9 -12 12 -14 6 -15 5 -6 -5z"/>
<path d="M6546 3341 c-3 -5 3 -11 15 -14 16 -4 18 -3 8 9 -13 16 -16 17 -23 5z"/>
<path d="M6916 3342 c-3 -5 1 -9 9 -9 8 0 12 4 9 9 -3 4 -7 8 -9 8 -2 0 -6 -4
-9 -8z"/>
<path d="M7053 3334 c0 -9 4 -11 12 -4 7 5 14 9 16 7 2 -1 3 0 1 2 -7 11 -29
7 -29 -5z"/>
<path d="M6986 3322 c-3 -5 1 -9 9 -9 8 0 15 4 15 9 0 4 -4 8 -9 8 -6 0 -12
-4 -15 -8z"/>
<path d="M6811 3313 c-1 -17 16 -25 25 -12 4 7 3 9 -4 5 -5 -3 -13 0 -15 6 -4
9 -6 10 -6 1z"/>
<path d="M6942 3304 c10 -10 20 -16 22 -13 3 3 -5 11 -17 18 -21 13 -21 12 -5
-5z"/>
<path d="M7115 3309 c-4 -6 -5 -12 -2 -15 2 -3 7 2 10 11 7 17 1 20 -8 4z"/>
<path d="M7153 3305 c0 -8 4 -12 9 -9 5 3 6 10 3 15 -9 13 -12 11 -12 -6z"/>
<path d="M6715 3300 c-17 -8 -16 -8 8 -7 15 1 27 5 27 9 0 10 -9 9 -35 -2z"/>
<path d="M7076 3293 c-6 -14 -5 -15 5 -6 7 7 10 15 7 18 -3 3 -9 -2 -12 -12z"/>
<path d="M7370 3306 c0 -2 7 -7 16 -10 8 -3 12 -2 9 4 -6 10 -25 14 -25 6z"/>
<path d="M6610 3270 c6 -11 13 -20 16 -20 2 0 0 9 -6 20 -6 11 -13 20 -16 20
-2 0 0 -9 6 -20z"/>
<path d="M7516 3282 c-3 -5 1 -9 9 -9 8 0 12 4 9 9 -3 4 -7 8 -9 8 -2 0 -6 -4
-9 -8z"/>
<path d="M6753 3265 c0 -8 4 -15 9 -15 4 0 8 4 8 9 0 6 -4 12 -8 15 -5 3 -9
-1 -9 -9z"/>
<path d="M6854 3260 c0 -13 4 -16 10 -10 7 7 7 13 0 20 -6 6 -10 3 -10 -10z"/>
<path d="M6680 3256 c0 -8 4 -17 9 -20 5 -4 7 3 4 14 -6 23 -13 26 -13 6z"/>
<path d="M6800 3266 c0 -2 8 -10 18 -17 15 -13 16 -12 3 4 -13 16 -21 21 -21
13z"/>
<path d="M6886 3258 c3 -5 9 -7 12 -4 3 3 12 0 21 -6 13 -10 14 -10 4 2 -15
16 -46 23 -37 8z"/>
<path d="M6713 3245 c0 -8 4 -12 9 -9 5 3 6 10 3 15 -9 13 -12 11 -12 -6z"/>
<path d="M6535 3240 c3 -5 14 -10 23 -10 15 0 15 2 2 10 -20 13 -33 13 -25 0z"/>
<path d="M6590 3240 c-11 -7 -11 -10 -2 -10 8 0 10 -5 6 -12 -4 -7 -3 -9 1 -5
7 6 17 37 12 37 -1 0 -9 -5 -17 -10z"/>
<path d="M7010 3239 c0 -5 5 -7 10 -4 6 3 10 8 10 11 0 2 -4 4 -10 4 -5 0 -10
-5 -10 -11z"/>
<path d="M7134 3236 c1 -8 5 -18 8 -22 4 -3 5 1 4 10 -1 8 -5 18 -8 22 -4 3
-5 -1 -4 -10z"/>
<path d="M6636 3213 c-6 -14 -5 -15 5 -6 7 7 10 15 7 18 -3 3 -9 -2 -12 -12z"/>
<path d="M6470 3200 c0 -5 5 -10 10 -10 6 0 10 5 10 10 0 6 -4 10 -10 10 -5 0
-10 -4 -10 -10z"/>
<path d="M6709 3197 c6 -8 7 -18 3 -22 -4 -5 -1 -5 6 -1 10 6 10 11 1 22 -6 8
-14 14 -16 14 -3 0 0 -6 6 -13z"/>
<path d="M7010 3200 c0 -5 5 -10 11 -10 5 0 7 5 4 10 -3 6 -8 10 -11 10 -2 0
-4 -4 -4 -10z"/>
<path d="M7096 3201 c-3 -5 2 -15 12 -22 15 -12 16 -12 5 2 -7 9 -10 19 -6 22
3 4 4 7 0 7 -3 0 -8 -4 -11 -9z"/>
<path d="M6512 3191 c-11 -7 -11 -9 0 -14 9 -3 15 1 15 9 0 8 -1 14 -1 14 -1
0 -7 -4 -14 -9z"/>
<path d="M6795 3190 c-4 -6 -10 -8 -15 -5 -4 3 -14 -3 -21 -13 -12 -15 -12
-16 2 -5 9 7 18 11 21 8 3 -3 11 1 18 10 7 8 10 15 7 15 -3 0 -9 -5 -12 -10z"/>
<path d="M6566 3178 c3 -5 10 -6 15 -3 13 9 11 12 -6 12 -8 0 -12 -4 -9 -9z"/>
<path d="M6619 3173 c-13 -16 -12 -17 4 -4 9 7 17 15 17 17 0 8 -8 3 -21 -13z"/>
<path d="M6839 3173 c-13 -16 -12 -17 4 -4 9 7 17 15 17 17 0 8 -8 3 -21 -13z"/>
<path d="M6413 3163 c4 -3 -1 -12 -11 -20 -15 -13 -15 -13 6 -3 19 9 23 30 5
30 -4 0 -3 -3 0 -7z"/>
<path d="M6639 3153 c-13 -16 -12 -17 4 -4 16 13 21 21 13 21 -2 0 -10 -8 -17
-17z"/>
<path d="M6540 3149 c0 -5 -4 -7 -10 -4 -14 9 -12 -1 3 -13 10 -8 13 -6 14 9
1 10 0 19 -3 19 -2 0 -4 -5 -4 -11z"/>
<path d="M6573 3145 c0 -8 3 -13 5 -10 3 3 12 -1 21 -7 10 -8 9 -4 -3 10 -23
26 -23 26 -23 7z"/>
<path d="M6480 3140 c-12 -7 -10 -9 8 -7 12 0 22 5 22 9 0 11 -12 10 -30 -2z"/>
<path d="M6673 3135 c0 -8 4 -12 9 -9 5 3 6 10 3 15 -9 13 -12 11 -12 -6z"/>
<path d="M6776 3133 c-6 -14 -5 -15 5 -6 7 7 10 15 7 18 -3 3 -9 -2 -12 -12z"/>
<path d="M6893 3131 c0 -11 5 -18 9 -15 4 3 5 11 1 19 -7 21 -12 19 -10 -4z"/>
<path d="M6933 3135 c0 -8 4 -12 9 -9 5 3 6 10 3 15 -9 13 -12 11 -12 -6z"/>
<path d="M6332 3125 c4 -4 1 -13 -7 -19 -11 -8 -12 -15 -4 -26 9 -13 10 -13 6
0 -2 8 3 20 11 26 13 9 13 12 1 19 -8 5 -11 5 -7 0z"/>
<path d="M6497 3113 c-10 -9 -9 -23 1 -23 5 0 9 7 9 15 0 17 -1 18 -10 8z"/>
<path d="M6574 3100 c0 -13 4 -16 10 -10 7 7 7 13 0 20 -6 6 -10 3 -10 -10z"/>
<path d="M6360 3096 c0 -8 4 -17 9 -20 5 -4 7 3 4 14 -6 23 -13 26 -13 6z"/>
<path d="M6404 3103 c4 -4 16 -8 28 -10 28 -4 18 6 -12 12 -12 2 -20 1 -16 -2z"/>
<path d="M6294 3082 c3 -5 0 -13 -6 -15 -9 -4 -10 -6 -1 -6 17 -1 25 16 12 25
-7 4 -9 3 -5 -4z"/>
<path d="M6449 3063 c-13 -16 -12 -17 4 -4 9 7 17 15 17 17 0 8 -8 3 -21 -13z"/>
<path d="M6210 3055 c0 -8 2 -15 4 -15 2 0 6 7 10 15 3 8 1 15 -4 15 -6 0 -10
-7 -10 -15z"/>
<path d="M6510 3058 c0 -6 3 -8 7 -5 3 4 13 1 22 -6 14 -11 14 -10 2 6 -15 20
-31 22 -31 5z"/>
<path d="M6586 3058 c3 -5 10 -6 15 -3 13 9 11 12 -6 12 -8 0 -12 -4 -9 -9z"/>
<path d="M6870 3065 c0 -5 5 -17 10 -25 5 -8 10 -10 10 -5 0 6 -5 17 -10 25
-5 8 -10 11 -10 5z"/>
<path d="M6930 3059 c0 -5 5 -7 10 -4 6 3 10 8 10 11 0 2 -4 4 -10 4 -5 0 -10
-5 -10 -11z"/>
<path d="M6390 3056 c0 -2 8 -10 18 -17 15 -13 16 -12 3 4 -13 16 -21 21 -21
13z"/>
<path d="M6230 3039 c0 -5 5 -7 10 -4 6 3 10 8 10 11 0 2 -4 4 -10 4 -5 0 -10
-5 -10 -11z"/>
<path d="M6361 3036 c-9 -11 -9 -16 1 -22 7 -4 10 -4 6 1 -4 4 -3 14 3 22 6 7
9 13 6 13 -2 0 -10 -6 -16 -14z"/>
<path d="M6830 3039 c0 -5 5 -7 10 -4 6 3 10 8 10 11 0 2 -4 4 -10 4 -5 0 -10
-5 -10 -11z"/>
<path d="M6330 3026 c0 -8 4 -17 9 -20 5 -4 7 3 4 14 -6 23 -13 26 -13 6z"/>
<path d="M6188 3012 c4 -10 7 -12 10 -4 2 7 9 9 15 5 7 -3 8 -2 4 2 -14 16
-36 14 -29 -3z"/>
<path d="M6253 3015 c0 -8 4 -12 9 -9 4 3 8 9 8 15 0 5 -4 9 -8 9 -5 0 -9 -7
-9 -15z"/>
<path d="M6277 3007 c-3 -8 1 -14 8 -14 7 0 11 6 8 14 -3 7 -6 13 -8 13 -2 0
-5 -6 -8 -13z"/>
<path d="M6615 3000 c3 -5 8 -10 11 -10 2 0 4 5 4 10 0 6 -5 10 -11 10 -5 0
-7 -4 -4 -10z"/>
<path d="M6655 3000 c3 -5 8 -10 11 -10 2 0 4 5 4 10 0 6 -5 10 -11 10 -5 0
-7 -4 -4 -10z"/>
<path d="M5875 2991 c-3 -5 -1 -12 5 -16 5 -3 10 1 10 9 0 18 -6 21 -15 7z"/>
<path d="M6314 2985 c1 -8 8 -21 16 -28 12 -10 12 -9 2 4 -6 9 -9 18 -6 21 3
3 1 9 -4 12 -6 3 -9 -1 -8 -9z"/>
<path d="M6050 2980 c0 -5 5 -10 10 -10 6 0 10 5 10 10 0 6 -4 10 -10 10 -5 0
-10 -4 -10 -10z"/>
<path d="M6110 2986 c0 -2 7 -7 16 -10 8 -3 12 -2 9 4 -6 10 -25 14 -25 6z"/>
<path d="M6155 2980 c-3 -5 -3 -10 2 -10 4 0 2 -4 -5 -9 -11 -7 -11 -9 0 -14
10 -3 14 3 14 19 0 26 -2 29 -11 14z"/>
<path d="M6233 2970 c1 -11 5 -20 9 -20 3 0 6 9 5 20 -1 11 -5 20 -9 20 -3 0
-6 -9 -5 -20z"/>
<path d="M6073 2958 c-9 -19 -8 -25 2 -25 8 0 11 7 7 15 -3 10 -1 13 6 8 6 -3
14 -1 18 5 4 7 3 9 -4 5 -5 -3 -12 -1 -14 5 -2 6 -9 0 -15 -13z"/>
<path d="M6355 2971 c-3 -5 -2 -12 3 -15 5 -3 9 1 9 9 0 17 -3 19 -12 6z"/>
<path d="M6613 2965 c0 -8 4 -12 9 -9 5 3 6 10 3 15 -9 13 -12 11 -12 -6z"/>
<path d="M5793 2949 c1 -10 6 -15 12 -11 5 4 18 7 27 7 30 0 20 20 -11 21 -23
1 -29 -3 -28 -17z"/>
<path d="M6188 2963 c7 -3 16 -2 19 1 4 3 -2 6 -13 5 -11 0 -14 -3 -6 -6z"/>
<path d="M6655 2961 c-3 -5 -2 -12 3 -15 5 -3 9 1 9 9 0 17 -3 19 -12 6z"/>
<path d="M6109 2943 c-13 -16 -12 -17 4 -4 16 13 21 21 13 21 -2 0 -10 -8 -17
-17z"/>
<path d="M5936 2934 c-4 -9 -4 -19 -1 -22 2 -3 7 3 11 12 4 9 4 19 1 22 -2 3
-7 -3 -11 -12z"/>
<path d="M6179 2933 c-13 -16 -12 -17 4 -4 16 13 21 21 13 21 -2 0 -10 -8 -17
-17z"/>
<path d="M6285 2940 c-3 -6 1 -7 9 -4 18 7 21 14 7 14 -6 0 -13 -4 -16 -10z"/>
<path d="M5990 2920 c0 -5 5 -10 10 -10 6 0 10 5 10 10 0 6 -4 10 -10 10 -5 0
-10 -4 -10 -10z"/>
<path d="M6119 2928 c-5 -13 -4 -60 1 -63 4 -2 6 8 5 23 -1 15 3 30 9 34 7 5
7 8 -1 8 -7 0 -13 -1 -14 -2z"/>
<path d="M6199 2913 c-13 -16 -12 -17 4 -4 9 7 17 15 17 17 0 8 -8 3 -21 -13z"/>
<path d="M6455 2920 c-3 -5 -1 -10 4 -10 6 0 11 5 11 10 0 6 -2 10 -4 10 -3 0
-8 -4 -11 -10z"/>
<path d="M6490 2919 c0 -5 5 -7 10 -4 6 3 10 8 10 11 0 2 -4 4 -10 4 -5 0 -10
-5 -10 -11z"/>
<path d="M6676 2915 c-9 -26 -7 -32 5 -12 6 10 9 21 6 23 -2 3 -7 -2 -11 -11z"/>
<path d="M5910 2911 c0 -6 4 -13 10 -16 6 -3 7 1 4 9 -7 18 -14 21 -14 7z"/>
<path d="M6250 2916 c0 -2 8 -10 18 -17 15 -13 16 -12 3 4 -13 16 -21 21 -21
13z"/>
<path d="M5970 2900 c0 -5 5 -10 11 -10 5 0 7 5 4 10 -3 6 -8 10 -11 10 -2 0
-4 -4 -4 -10z"/>
<path d="M6036 2891 c-3 -5 1 -11 9 -14 9 -4 12 -1 8 9 -6 16 -10 17 -17 5z"/>
<path d="M6073 2887 c0 -8 6 -14 14 -14 9 0 10 4 2 14 -6 7 -12 13 -14 13 -1
0 -2 -6 -2 -13z"/>
<path d="M6453 2885 c0 -8 4 -12 9 -9 5 3 6 10 3 15 -9 13 -12 11 -12 -6z"/>
<path d="M6495 2891 c-3 -5 -2 -12 3 -15 5 -3 9 1 9 9 0 17 -3 19 -12 6z"/>
<path d="M5888 2865 c-8 -17 -7 -18 4 -5 7 9 20 14 30 12 9 -2 18 1 21 5 3 4
-6 8 -20 8 -15 0 -29 -8 -35 -20z"/>
<path d="M6150 2876 c7 -7 13 -7 20 0 6 6 3 10 -10 10 -13 0 -16 -4 -10 -10z"/>
<path d="M6280 2880 c-9 -6 -10 -10 -3 -10 6 0 15 5 18 10 8 12 4 12 -15 0z"/>
<path d="M693 2865 c0 -8 4 -12 9 -9 5 3 6 10 3 15 -9 13 -12 11 -12 -6z"/>
<path d="M5759 2870 c-7 -5 -10 -12 -6 -17 5 -4 12 -1 17 7 7 10 10 11 10 3 0
-7 5 -13 10 -13 6 0 10 4 10 9 0 14 -25 20 -41 11z"/>
<path d="M5955 2870 c-3 -6 1 -7 9 -4 18 7 21 14 7 14 -6 0 -13 -4 -16 -10z"/>
<path d="M5814 2853 c3 -19 36 -32 36 -14 0 6 -7 8 -15 5 -11 -5 -13 -2 -9 10
3 9 2 16 -4 16 -6 0 -9 -8 -8 -17z"/>
<path d="M6179 2853 c-12 -16 -12 -17 2 -6 9 7 20 9 24 5 5 -4 5 -1 1 6 -9 16
-11 15 -27 -5z"/>
<path d="M6220 2866 c0 -2 8 -10 18 -17 15 -13 16 -12 3 4 -13 16 -21 21 -21
13z"/>
<path d="M715 2850 c-3 -6 1 -7 9 -4 18 7 21 14 7 14 -6 0 -13 -4 -16 -10z"/>
<path d="M6027 2833 c3 -7 6 -13 8 -13 1 0 7 6 13 13 8 10 6 13 -7 13 -11 0
-17 -6 -14 -13z"/>
<path d="M6493 2835 c0 -8 4 -12 9 -9 5 3 6 10 3 15 -9 13 -12 11 -12 -6z"/>
<path d="M794 2819 c-9 -10 -13 -23 -9 -28 13 -22 -27 -23 -55 -2 -20 14 -31
17 -36 9 -4 -7 -3 -8 4 -4 7 4 12 3 12 -2 0 -5 13 -15 30 -22 16 -7 27 -16 24
-21 -3 -5 -19 -2 -35 7 -17 8 -33 13 -36 10 -3 -3 5 -10 18 -15 14 -6 18 -10
9 -11 -9 -1 -6 -5 7 -10 15 -6 21 -15 17 -25 -3 -8 -10 -12 -15 -9 -5 3 -7 10
-4 15 11 17 -4 9 -29 -16 -20 -20 -22 -25 -9 -25 14 0 15 -2 4 -12 -10 -11
-15 -9 -27 6 -8 11 -14 15 -14 10 0 -6 3 -14 8 -18 4 -4 7 -18 7 -29 0 -15 6
-22 18 -21 10 1 16 -3 14 -9 -2 -7 -12 -12 -23 -12 -19 0 -28 -24 -9 -26 10 0
29 -38 27 -51 -1 -4 6 -4 15 -1 12 5 14 3 8 -8 -6 -11 -5 -12 6 -1 18 16 34
15 20 -2 -9 -10 -6 -17 13 -30 14 -9 29 -16 33 -16 4 0 0 5 -10 11 -17 10 -17
12 0 40 9 16 21 29 26 29 5 0 2 -12 -8 -26 -13 -21 -14 -28 -4 -34 6 -5 18 -6
26 -3 7 3 13 2 13 -2 0 -11 -27 -34 -34 -28 -3 4 -6 2 -6 -4 0 -23 15 -21 35
7 12 16 25 27 28 23 4 -3 -1 -15 -10 -25 -12 -13 -13 -18 -4 -16 7 2 15 -2 18
-9 3 -7 -4 -10 -19 -7 -21 4 -21 4 -3 -5 25 -11 42 3 27 22 -7 8 -9 17 -6 20
7 7 34 -15 29 -23 -2 -3 6 -7 18 -7 20 -2 20 -1 5 8 -10 6 -18 15 -18 21 0 7
4 7 13 0 8 -7 17 -6 30 3 12 8 14 15 8 20 -6 3 -11 1 -11 -6 0 -9 -3 -9 -14 0
-10 8 -16 9 -21 1 -3 -5 -11 -10 -17 -10 -6 0 -5 7 3 17 10 11 10 14 2 9 -7
-4 -13 -2 -13 3 0 6 10 10 23 8 14 -1 21 3 19 11 -1 8 2 11 8 7 8 -5 8 -11 0
-20 -9 -11 -7 -14 9 -12 24 2 26 7 8 31 -13 17 -52 13 -41 -5 3 -5 -6 -4 -20
2 -14 7 -23 15 -21 20 3 4 0 11 -6 15 -8 5 -9 3 -4 -7 6 -11 5 -12 -5 -2 -19
18 -4 29 17 12 15 -12 16 -12 11 2 -8 20 6 46 16 30 4 -6 4 -11 -1 -11 -4 0
-9 -11 -9 -25 -1 -15 3 -24 8 -23 17 6 18 57 2 73 -9 8 -12 20 -9 25 4 6 1 17
-5 25 -6 8 -9 18 -6 23 3 5 -7 9 -22 9 -15 0 -33 2 -41 4 -7 2 -15 -1 -18 -7
-2 -7 4 -11 14 -10 10 0 17 -5 15 -12 -1 -8 3 -12 10 -9 7 2 12 11 10 18 -1 9
3 7 12 -4 14 -18 17 -86 2 -77 -4 3 -13 -6 -20 -19 -11 -20 -14 -21 -19 -7 -5
12 -3 15 6 11 6 -4 3 1 -7 9 -15 12 -16 16 -5 16 12 0 12 2 -1 10 -8 5 -15 15
-15 22 -1 7 -6 12 -11 11 -6 -1 -10 13 -9 33 2 18 -1 34 -6 34 -5 0 -9 5 -9
11 0 8 4 9 13 0 8 -6 18 -7 22 -3 5 4 5 2 2 -5 -6 -10 -1 -11 32 -4 2 1 -2 7
-8 15 -8 10 -8 16 2 24 10 8 21 7 43 -7 29 -18 29 -18 59 11 17 15 36 28 43
28 7 0 11 4 7 10 -3 5 -13 6 -22 3 -10 -4 -14 -2 -10 4 9 15 -21 38 -50 38
-13 1 -27 5 -31 11 -11 17 -40 13 -58 -7z m20 -13 c-6 -16 -24 -23 -24 -8 0
10 22 33 27 28 2 -2 1 -11 -3 -20z m64 1 c6 3 12 0 12 -6 0 -6 3 -10 8 -10 19
3 30 -2 28 -13 -3 -18 -25 -55 -26 -42 0 5 6 16 12 22 10 10 7 12 -12 8 -14
-2 -27 -5 -30 -5 -3 -1 2 -6 10 -12 12 -8 10 -9 -9 -4 -17 5 -21 4 -16 -5 6
-9 3 -9 -13 -1 -27 14 -59 -17 -39 -39 10 -12 9 -12 -4 -2 -9 6 -18 10 -21 7
-3 -3 -13 4 -24 16 -10 11 -13 19 -7 17 6 -2 22 10 37 25 14 15 31 25 37 22 6
-4 10 -1 8 6 -4 36 0 43 19 27 9 -9 23 -13 30 -11z m-148 -128 c0 -6 -6 -7
-12 -3 -9 5 -9 2 1 -9 15 -19 31 -22 31 -6 0 5 -4 7 -10 4 -6 -3 -7 1 -4 10 9
23 18 10 19 -28 1 -19 6 -31 13 -29 7 1 11 -1 11 -5 -1 -5 0 -10 1 -13 1 -3 3
-12 5 -20 1 -8 4 -19 6 -25 5 -13 -32 -75 -44 -75 -5 0 -4 7 3 15 7 8 9 16 4
17 -5 0 -13 2 -19 3 -5 2 -16 3 -23 4 -7 0 -17 13 -22 27 -6 14 -14 22 -20 19
-5 -3 -10 -1 -10 5 0 7 7 10 15 7 8 -4 17 -2 20 3 4 6 11 10 17 10 7 0 7 -4 1
-12 -19 -24 -11 -46 14 -43 13 1 27 -4 32 -12 7 -13 9 -13 14 1 4 9 2 15 -5
13 -6 -1 -13 4 -15 11 -3 7 0 11 5 10 6 -2 10 2 10 7 0 6 -4 9 -10 7 -5 -1 -7
2 -4 7 4 5 2 12 -4 16 -6 4 -7 11 -4 17 4 6 0 6 -13 -1 -20 -10 -33 -6 -33 10
0 4 9 6 20 4 11 -2 23 2 26 8 4 7 4 9 -1 5 -4 -4 -14 -3 -21 3 -9 7 -16 4 -28
-12 -8 -13 -19 -19 -23 -15 -5 4 2 16 15 27 13 10 21 23 17 29 -3 5 -3 15 0
20 7 12 25 4 25 -11z m17 -104 c0 -8 -5 -11 -10 -8 -6 4 -8 0 -4 -10 3 -10 2
-17 -3 -17 -15 0 -22 20 -11 34 6 7 8 16 4 20 -4 4 0 4 8 1 9 -3 16 -12 16
-20z m115 -80 c2 2 4 -5 4 -15 0 -26 -2 -25 -21 8 -11 19 -14 21 -10 6 4 -17
1 -20 -17 -18 -13 1 -24 3 -26 3 -1 1 5 13 15 27 l17 26 17 -20 c9 -12 18 -19
21 -17z"/>
<path d="M839 2801 c11 -7 11 -10 0 -17 -8 -5 -20 -9 -27 -10 -18 -3 -29 -14
-13 -14 7 0 9 -5 6 -10 -4 -6 -10 -8 -15 -5 -4 3 -13 -2 -19 -9 -21 -25 5 -26
29 -1 12 13 28 21 36 18 8 -3 14 0 14 7 0 6 4 9 9 5 5 -3 12 -1 16 5 4 6 10 8
15 5 5 -3 12 0 16 6 4 7 3 9 -4 5 -6 -3 -13 -2 -17 4 -4 6 -10 8 -15 5 -5 -3
-11 -1 -15 5 -3 5 -12 10 -18 10 -8 0 -8 -3 2 -9z m35 -23 c-4 -5 -9 -7 -12
-4 -3 3 -12 0 -21 -7 -14 -10 -14 -10 -4 4 13 16 46 23 37 7z"/>
<path d="M750 2606 c0 -2 8 -10 18 -17 15 -13 16 -12 3 4 -13 16 -21 21 -21
13z"/>
<path d="M5774 2816 c1 -14 9 -20 28 -20 14 -1 24 2 21 7 -3 5 -14 7 -24 4
-11 -3 -19 1 -22 12 -3 11 -4 10 -3 -3z"/>
<path d="M653 2813 c0 -9 4 -10 12 -3 7 5 15 7 18 3 4 -3 7 -1 7 5 0 6 -8 10
-18 9 -10 0 -19 -7 -19 -14z"/>
<path d="M5856 2822 c-3 -5 1 -9 9 -9 8 0 12 4 9 9 -3 4 -7 8 -9 8 -2 0 -6 -4
-9 -8z"/>
<path d="M6000 2826 c0 -2 8 -10 18 -17 15 -13 16 -12 3 4 -13 16 -21 21 -21
13z"/>
<path d="M6059 2813 c-12 -16 -12 -17 2 -6 9 7 19 10 22 6 4 -3 7 -1 7 5 0 17
-16 15 -31 -5z"/>
<path d="M6180 2825 c0 -2 6 -8 13 -14 10 -8 14 -7 14 2 0 8 -6 14 -14 14 -7
0 -13 -1 -13 -2z"/>
<path d="M5750 2805 c0 -5 5 -17 10 -25 5 -8 10 -10 10 -5 0 6 -5 17 -10 25
-5 8 -10 11 -10 5z"/>
<path d="M6290 2800 c0 -5 5 -10 11 -10 5 0 7 5 4 10 -3 6 -8 10 -11 10 -2 0
-4 -4 -4 -10z"/>
<path d="M6334 2802 c4 -3 14 -7 22 -8 9 -1 13 0 10 4 -4 3 -14 7 -22 8 -9 1
-13 0 -10 -4z"/>
<path d="M5655 2790 c-4 -6 1 -7 11 -3 13 5 15 3 9 -7 -5 -9 -4 -11 3 -6 7 4
12 11 12 17 0 12 -27 12 -35 -1z"/>
<path d="M5970 2797 c0 -2 6 -10 14 -16 11 -9 16 -9 22 1 4 7 4 10 -1 6 -4 -4
-14 -3 -22 3 -7 6 -13 9 -13 6z"/>
<path d="M656 2778 c3 -4 9 -8 15 -8 5 0 9 4 9 8 0 5 -7 9 -15 9 -8 0 -12 -4
-9 -9z"/>
<path d="M5697 2775 c-7 -17 3 -25 29 -21 21 3 26 28 6 32 -7 1 -8 0 -2 -3 16
-8 12 -19 -9 -20 -14 -1 -18 3 -14 13 3 8 3 14 0 14 -3 0 -7 -7 -10 -15z"/>
<path d="M5807 2779 c7 -7 15 -10 18 -7 3 3 -2 9 -12 12 -14 6 -15 5 -6 -5z"/>
<path d="M5880 2780 c-12 -7 -10 -9 8 -7 12 0 22 5 22 9 0 11 -12 10 -30 -2z"/>
<path d="M6056 2782 c-3 -5 1 -9 9 -9 8 0 12 4 9 9 -3 4 -7 8 -9 8 -2 0 -6 -4
-9 -8z"/>
<path d="M6090 2779 c0 -5 5 -7 10 -4 6 3 10 8 10 11 0 2 -4 4 -10 4 -5 0 -10
-5 -10 -11z"/>
<path d="M5775 2761 c-3 -6 3 -14 13 -20 14 -7 19 -6 19 4 0 7 -7 11 -15 7
-10 -3 -13 -1 -8 6 4 7 5 12 2 12 -3 0 -7 -4 -11 -9z"/>
<path d="M5835 2760 c-16 -7 -17 -9 -3 -9 9 -1 20 4 23 9 7 11 7 11 -20 0z"/>
<path d="M6170 2759 c0 -5 5 -7 10 -4 6 3 10 8 10 11 0 2 -4 4 -10 4 -5 0 -10
-5 -10 -11z"/>
<path d="M520 2740 c-9 -6 -10 -10 -3 -10 6 0 15 5 18 10 8 12 4 12 -15 0z"/>
<path d="M633 2730 c1 -11 5 -20 9 -20 3 0 6 9 5 20 -1 11 -5 20 -9 20 -3 0
-6 -9 -5 -20z"/>
<path d="M673 2742 c-9 -6 -7 -11 7 -20 12 -7 20 -8 20 -2 0 5 -5 10 -11 10
-5 0 -7 5 -4 10 7 12 4 12 -12 2z"/>
<path d="M5745 2739 c-4 -6 -5 -12 -2 -15 2 -3 7 2 10 11 7 17 1 20 -8 4z"/>
<path d="M5852 2741 c-11 -7 -11 -9 0 -14 9 -3 15 1 15 9 0 8 -1 14 -1 14 -1
0 -7 -4 -14 -9z"/>
<path d="M5924 2742 c4 -3 14 -7 22 -8 9 -1 13 0 10 4 -4 3 -14 7 -22 8 -9 1
-13 0 -10 -4z"/>
<path d="M5712 2731 c-11 -7 -11 -9 0 -14 9 -3 15 1 15 9 0 8 -1 14 -1 14 -1
0 -7 -4 -14 -9z"/>
<path d="M6175 2731 c-3 -5 -2 -12 3 -15 5 -3 9 1 9 9 0 17 -3 19 -12 6z"/>
<path d="M553 2715 c0 -8 4 -12 9 -9 5 3 6 10 3 15 -9 13 -12 11 -12 -6z"/>
<path d="M580 2727 c0 -2 11 -13 25 -25 14 -12 25 -18 25 -13 0 5 -11 16 -25
25 -14 9 -25 15 -25 13z"/>
<path d="M5650 2708 c-10 -21 -10 -21 3 -6 8 10 18 14 22 10 5 -4 5 -1 1 6
-10 17 -14 15 -26 -10z"/>
<path d="M5759 2723 c-5 -31 -5 -54 0 -57 3 -2 6 11 7 30 1 30 -4 47 -7 27z"/>
<path d="M5820 2726 c0 -2 8 -10 18 -17 15 -13 16 -12 3 4 -13 16 -21 21 -21
13z"/>
<path d="M6090 2719 c0 -5 5 -7 10 -4 6 3 10 8 10 11 0 2 -4 4 -10 4 -5 0 -10
-5 -10 -11z"/>
<path d="M6135 2720 c3 -5 8 -10 11 -10 2 0 4 5 4 10 0 6 -5 10 -11 10 -5 0
-7 -4 -4 -10z"/>
<path d="M500 2705 c0 -2 6 -8 13 -14 10 -8 14 -7 14 2 0 8 -6 14 -14 14 -7 0
-13 -1 -13 -2z"/>
<path d="M660 2700 c0 -5 5 -10 10 -10 6 0 10 5 10 10 0 6 -4 10 -10 10 -5 0
-10 -4 -10 -10z"/>
<path d="M5690 2700 c0 -5 5 -10 10 -10 6 0 10 5 10 10 0 6 -4 10 -10 10 -5 0
-10 -4 -10 -10z"/>
<path d="M5810 2701 c0 -6 4 -13 10 -16 6 -3 7 1 4 9 -7 18 -14 21 -14 7z"/>
<path d="M5867 2699 c7 -7 15 -10 18 -7 3 3 -2 9 -12 12 -14 6 -15 5 -6 -5z"/>
<path d="M5913 2685 c0 -8 4 -12 9 -9 5 3 6 10 3 15 -9 13 -12 11 -12 -6z"/>
<path d="M433 2675 c0 -8 4 -12 9 -9 5 3 6 10 3 15 -9 13 -12 11 -12 -6z"/>
<path d="M596 2673 c-6 -14 -5 -15 5 -6 7 7 10 15 7 18 -3 3 -9 -2 -12 -12z"/>
<path d="M5654 2675 c-4 -8 -11 -12 -16 -9 -6 4 -5 -3 1 -15 14 -25 23 -28 14
-4 -4 11 -3 14 5 9 8 -5 10 -2 6 9 -5 11 -2 14 10 9 9 -3 16 -4 16 -1 0 13
-31 15 -36 2z"/>
<path d="M5780 2686 c0 -2 8 -10 18 -17 15 -13 16 -12 3 4 -13 16 -21 21 -21
13z"/>
<path d="M5970 2679 c0 -5 5 -7 10 -4 6 3 10 8 10 11 0 2 -4 4 -10 4 -5 0 -10
-5 -10 -11z"/>
<path d="M6099 2688 c-5 -18 -6 -38 -1 -34 7 8 12 36 6 36 -2 0 -4 -1 -5 -2z"/>
<path d="M466 2662 c-3 -5 1 -9 9 -9 8 0 12 4 9 9 -3 4 -7 8 -9 8 -2 0 -6 -4
-9 -8z"/>
<path d="M510 2661 c0 -6 4 -12 8 -15 5 -3 9 1 9 9 0 8 -4 15 -9 15 -4 0 -8
-4 -8 -9z"/>
<path d="M624 2656 c-3 -8 -12 -12 -20 -9 -8 3 -14 3 -14 0 0 -16 31 -13 40 3
6 11 8 20 5 20 -3 0 -8 -6 -11 -14z"/>
<path d="M5569 2656 c39 -18 41 -19 41 -8 0 5 -6 9 -12 10 -7 0 -24 3 -38 7
-17 4 -14 1 9 -9z"/>
<path d="M545 2639 c-3 -4 2 -6 10 -5 21 3 28 13 10 13 -9 0 -18 -4 -20 -8z"/>
<path d="M636 2634 c-3 -9 -2 -22 2 -31 6 -10 9 -5 9 16 0 35 -2 38 -11 15z"/>
<path d="M785 2630 c8 -9 12 -20 8 -25 -5 -4 -2 -5 5 -1 11 6 17 -5 13 -26 0
-5 4 -8 9 -8 6 0 10 6 10 13 0 9 2 9 8 -1 6 -8 9 -2 9 18 0 31 -10 39 -23 18
-5 -7 -3 -8 6 -3 9 6 11 4 6 -4 -6 -9 -12 -8 -26 6 -11 12 -14 20 -6 25 6 4 1
6 -11 5 -20 -1 -21 -3 -8 -17z"/>
<path d="M5535 2640 c3 -5 8 -10 11 -10 2 0 4 5 4 10 0 6 -5 10 -11 10 -5 0
-7 -4 -4 -10z"/>
<path d="M5787 2639 c7 -7 15 -10 18 -7 3 3 -2 9 -12 12 -14 6 -15 5 -6 -5z"/>
<path d="M5826 2638 c3 -5 10 -6 15 -3 13 9 11 12 -6 12 -8 0 -12 -4 -9 -9z"/>
<path d="M5970 2639 c0 -5 5 -7 10 -4 6 3 10 8 10 11 0 2 -4 4 -10 4 -5 0 -10
-5 -10 -11z"/>
<path d="M5561 2633 c-1 -6 -4 -20 -7 -30 -5 -17 -5 -17 6 0 6 10 9 23 6 30
-3 9 -5 9 -5 0z"/>
<path d="M5735 2630 c-4 -6 -10 -8 -15 -5 -10 6 -7 -21 4 -32 4 -4 6 -1 4 7
-1 8 2 14 8 13 6 -1 11 5 11 13 0 17 -4 18 -12 4z"/>
<path d="M5610 2622 c0 -4 10 -9 22 -9 18 -2 20 0 8 7 -18 12 -30 13 -30 2z"/>
<path d="M5665 2620 c-3 -6 1 -7 9 -4 18 7 21 14 7 14 -6 0 -13 -4 -16 -10z"/>
<path d="M620 2590 c6 -11 13 -20 16 -20 2 0 0 9 -6 20 -6 11 -13 20 -16 20
-2 0 0 -9 6 -20z"/>
<path d="M5573 2594 c-3 -8 -2 -19 3 -24 5 -5 9 1 9 16 0 28 -3 30 -12 8z"/>
<path d="M5976 2602 c-3 -5 1 -9 9 -9 8 0 12 4 9 9 -3 4 -7 8 -9 8 -2 0 -6 -4
-9 -8z"/>
<path d="M5595 2591 c-3 -5 -2 -12 3 -15 5 -3 9 1 9 9 0 17 -3 19 -12 6z"/>
<path d="M5649 2583 c-13 -16 -12 -17 4 -4 9 7 17 15 17 17 0 8 -8 3 -21 -13z"/>
<path d="M5750 2596 c0 -2 8 -10 18 -17 15 -13 16 -12 3 4 -13 16 -21 21 -21
13z"/>
<path d="M450 2580 c0 -5 5 -10 11 -10 5 0 7 5 4 10 -3 6 -8 10 -11 10 -2 0
-4 -4 -4 -10z"/>
<path d="M5508 2583 c6 -2 18 -2 25 0 6 3 1 5 -13 5 -14 0 -19 -2 -12 -5z"/>
<path d="M5472 2564 c-11 -12 -9 -13 7 -11 11 2 24 7 28 12 5 4 3 5 -4 2 -6
-4 -13 -3 -15 2 -1 5 -9 3 -16 -5z"/>
<path d="M595 2553 c11 -12 18 -14 26 -6 8 8 7 13 -2 18 -8 5 -10 4 -5 -3 9
-15 -6 -16 -22 -2 -7 5 -5 2 3 -7z"/>
<path d="M5670 2560 c0 -5 5 -10 11 -10 5 0 7 5 4 10 -3 6 -8 10 -11 10 -2 0
-4 -4 -4 -10z"/>
<path d="M567 2539 c7 -7 15 -10 18 -7 3 3 -2 9 -12 12 -14 6 -15 5 -6 -5z"/>
<path d="M635 2540 c-3 -5 -1 -10 4 -10 6 0 11 5 11 10 0 6 -2 10 -4 10 -3 0
-8 -4 -11 -10z"/>
<path d="M5513 2533 c0 -8 5 -9 11 -4 6 4 21 7 34 6 13 -1 25 1 27 5 2 3 -13
6 -34 6 -24 0 -38 -5 -38 -13z"/>
<path d="M5990 2540 c0 -5 5 -10 11 -10 5 0 7 5 4 10 -3 6 -8 10 -11 10 -2 0
-4 -4 -4 -10z"/>
<path d="M535 2520 c3 -5 8 -10 11 -10 2 0 4 5 4 10 0 6 -5 10 -11 10 -5 0 -7
-4 -4 -10z"/>
<path d="M655 2521 c-6 -11 13 -26 22 -17 4 3 1 6 -6 6 -7 0 -9 5 -6 10 3 6 4
10 1 10 -3 0 -7 -4 -11 -9z"/>
<path d="M5380 2508 c-10 -21 -10 -21 3 -6 8 10 17 15 20 11 4 -3 7 -1 7 5 0
20 -19 13 -30 -10z"/>
<path d="M5479 2528 c-7 -23 -4 -35 7 -35 10 0 11 4 3 13 -7 8 -6 14 3 17 10
4 10 6 1 6 -7 1 -13 0 -14 -1z"/>
<path d="M615 2510 c-4 -6 -11 -8 -16 -5 -5 4 -9 1 -9 -5 0 -7 6 -10 14 -7 8
3 17 1 19 -6 3 -7 4 -2 4 11 -1 25 -3 26 -12 12z"/>
<path d="M950 2503 c0 -5 5 -14 12 -21 9 -9 9 -12 -1 -12 -7 0 -10 -4 -7 -9 3
-5 -1 -14 -9 -21 -9 -7 -13 -21 -10 -31 5 -15 2 -18 -12 -13 -15 5 -15 4 -3
-5 9 -6 18 -7 24 -1 16 16 30 11 16 -5 -21 -25 -4 -17 30 15 25 24 36 28 46
19 10 -8 14 -8 14 0 0 6 5 11 11 11 8 0 8 -5 -1 -15 -7 -8 -16 -12 -21 -9 -5
3 -9 0 -9 -6 0 -6 -4 -9 -9 -6 -4 3 -17 -1 -27 -9 -10 -8 -14 -15 -8 -15 6 0
14 3 18 7 11 11 48 14 41 3 -3 -5 8 -16 26 -25 20 -11 28 -12 23 -4 -5 8 -2
11 8 6 9 -3 21 0 27 6 8 8 11 8 11 -1 0 -7 -7 -15 -15 -18 -8 -4 -15 -10 -15
-16 0 -5 5 -6 10 -3 6 3 10 1 10 -4 0 -6 5 -11 11 -11 8 0 9 4 0 13 -11 14 -5
27 11 27 5 0 6 -6 2 -12 -5 -9 -2 -9 9 1 19 15 22 8 7 -19 -7 -13 -7 -21 0
-25 6 -4 10 -3 9 2 -2 16 14 53 23 53 6 0 8 -6 5 -13 -3 -7 1 -24 9 -38 7 -13
13 -19 13 -14 1 6 -3 17 -8 24 -13 21 6 54 26 47 12 -5 13 -4 5 7 -7 8 -10 17
-7 20 3 4 2 5 -2 2 -3 -3 -17 5 -29 16 -21 20 -24 20 -30 6 -5 -15 -9 -15 -37
5 -17 12 -27 17 -23 10 4 -7 3 -12 -3 -12 -5 0 -12 6 -14 13 -4 9 -6 9 -6 -1
-1 -10 -9 -7 -27 7 -15 11 -30 18 -35 15 -5 -3 -12 2 -15 10 -3 9 -11 16 -16
16 -6 0 -5 -7 2 -15 11 -13 10 -14 -3 -9 -9 3 -19 14 -22 24 -6 20 -35 47 -35
33z m53 -67 c4 4 7 3 7 -3 0 -19 -53 -33 -68 -18 -2 2 4 15 15 28 17 24 18 24
29 6 5 -11 13 -16 17 -13z m99 -31 c9 10 30 -24 22 -36 -5 -8 -13 -4 -25 12
-18 24 -18 24 -12 2 3 -15 1 -23 -7 -23 -7 0 -10 7 -7 15 4 8 1 17 -5 21 -6 4
-8 3 -4 -4 3 -6 2 -13 -3 -16 -11 -7 -9 13 3 32 5 9 11 10 20 3 7 -6 15 -9 18
-6z m82 -19 c12 15 32 7 38 -15 2 -9 -8 -14 -30 -16 -35 -2 -58 17 -46 36 6
10 10 9 18 -3 8 -14 12 -14 20 -2z"/>
<path d="M959 2433 c-8 -9 -9 -14 -2 -10 6 4 13 2 15 -5 3 -9 6 -9 12 0 4 7 2
12 -4 12 -6 0 -8 5 -5 10 10 16 -1 11 -16 -7z"/>
<path d="M1106 2387 c3 -10 9 -15 12 -12 3 3 0 11 -7 18 -10 9 -11 8 -5 -6z"/>
<path d="M1150 2381 c0 -6 4 -13 10 -16 6 -3 7 1 4 9 -7 18 -14 21 -14 7z"/>
<path d="M1187 2377 c-3 -7 3 -13 14 -13 13 0 15 3 7 13 -6 7 -12 13 -13 13
-2 0 -5 -6 -8 -13z"/>
<path d="M5510 2506 c0 -2 7 -7 16 -10 8 -3 12 -2 9 4 -6 10 -25 14 -25 6z"/>
<path d="M535 2491 c-3 -5 -2 -12 3 -15 5 -3 9 1 9 9 0 17 -3 19 -12 6z"/>
<path d="M5391 2487 c-8 -10 -7 -14 2 -14 8 0 14 6 14 14 0 7 -1 13 -2 13 -2
0 -8 -6 -14 -13z"/>
<path d="M688 2483 c10 -4 10 -8 0 -21 -12 -15 -11 -16 4 -3 19 14 15 32 -5
30 -8 0 -8 -2 1 -6z"/>
<path d="M5426 2482 c-3 -5 1 -9 9 -9 8 0 15 4 15 9 0 4 -4 8 -9 8 -6 0 -12
-4 -15 -8z"/>
<path d="M5354 2456 c1 -14 4 -28 7 -31 3 -3 5 6 5 19 -1 14 -4 28 -7 31 -3 3
-5 -6 -5 -19z"/>
<path d="M716 2462 c-3 -4 4 -9 15 -9 23 -2 25 3 4 10 -8 4 -16 3 -19 -1z"/>
<path d="M5316 2461 c-3 -5 2 -15 12 -22 15 -12 16 -12 5 2 -7 9 -10 19 -6 22
3 4 4 7 0 7 -3 0 -8 -4 -11 -9z"/>
<path d="M708 2433 c7 -3 16 -2 19 1 4 3 -2 6 -13 5 -11 0 -14 -3 -6 -6z"/>
<path d="M756 2425 c4 -8 8 -15 10 -15 2 0 4 7 4 15 0 8 -4 15 -10 15 -5 0 -7
-7 -4 -15z"/>
<path d="M5293 2427 c0 -8 6 -14 14 -14 9 0 10 4 2 14 -6 7 -12 13 -14 13 -1
0 -2 -6 -2 -13z"/>
<path d="M667 2419 c7 -7 15 -10 18 -7 3 3 -2 9 -12 12 -14 6 -15 5 -6 -5z"/>
<path d="M5206 2422 c-3 -5 1 -9 9 -9 8 0 15 4 15 9 0 4 -4 8 -9 8 -6 0 -12
-4 -15 -8z"/>
<path d="M5555 2421 c-3 -5 -2 -12 3 -15 5 -3 9 1 9 9 0 17 -3 19 -12 6z"/>
<path d="M5610 2426 c0 -2 7 -7 16 -10 8 -3 12 -2 9 4 -6 10 -25 14 -25 6z"/>
<path d="M5115 2400 c6 -10 4 -12 -11 -6 -15 6 -17 5 -6 -5 9 -9 15 -10 23 -2
8 8 7 13 -2 18 -8 6 -10 4 -4 -5z"/>
<path d="M5474 2402 c4 -3 14 -7 22 -8 9 -1 13 0 10 4 -4 3 -14 7 -22 8 -9 1
-13 0 -10 -4z"/>
<path d="M729 2383 c-13 -16 -12 -17 4 -4 9 7 17 15 17 17 0 8 -8 3 -21 -13z"/>
<path d="M891 2384 c0 -11 3 -14 6 -6 3 7 2 16 -1 19 -3 4 -6 -2 -5 -13z"/>
<path d="M5155 2389 c-4 -6 -5 -12 -2 -15 2 -3 7 2 10 11 7 17 1 20 -8 4z"/>
<path d="M5209 2383 c-13 -16 -12 -17 4 -4 16 13 21 21 13 21 -2 0 -10 -8 -17
-17z"/>
<path d="M5390 2396 c0 -2 8 -10 18 -17 15 -13 16 -12 3 4 -13 16 -21 21 -21
13z"/>
<path d="M5059 2373 c-13 -17 -13 -17 5 -3 18 14 19 13 12 -5 -6 -16 -5 -18 5
-7 9 8 10 15 3 22 -8 8 -15 5 -25 -7z"/>
<path d="M835 2371 c-3 -5 -2 -12 3 -15 5 -3 9 1 9 9 0 17 -3 19 -12 6z"/>
<path d="M906 2363 c-6 -14 -5 -15 5 -6 7 7 10 15 7 18 -3 3 -9 -2 -12 -12z"/>
<path d="M1309 2358 c-11 -20 -10 -21 3 -11 11 10 18 10 34 -1 18 -13 20 -12
21 5 1 11 -3 17 -8 13 -5 -3 -16 -1 -24 6 -11 9 -16 6 -26 -12z"/>
<path d="M5233 2365 c0 -8 4 -12 9 -9 5 3 6 10 3 15 -9 13 -12 11 -12 -6z"/>
<path d="M867 2359 c7 -7 15 -10 18 -7 3 3 -2 9 -12 12 -14 6 -15 5 -6 -5z"/>
<path d="M933 2363 c4 -6 2 -13 -4 -15 -7 -2 -6 -8 3 -16 12 -9 14 -8 13 8 -1
11 -5 23 -10 27 -4 5 -5 3 -2 -4z"/>
<path d="M1024 2355 c11 -8 24 -15 30 -15 5 0 1 7 -10 15 -10 8 -23 14 -29 14
-5 0 -1 -6 9 -14z"/>
<path d="M966 2343 c-6 -14 -5 -15 5 -6 7 7 10 15 7 18 -3 3 -9 -2 -12 -12z"/>
<path d="M996 2347 c3 -10 9 -15 12 -12 3 3 0 11 -7 18 -10 9 -11 8 -5 -6z"/>
<path d="M5008 2353 c-22 -5 -24 -20 -3 -20 8 0 16 6 19 14 3 7 4 12 3 12 -1
-1 -10 -3 -19 -6z"/>
<path d="M4842 2338 c-7 -7 -12 -17 -12 -22 0 -6 5 -3 11 7 6 9 14 15 20 12 5
-4 9 -1 9 4 0 14 -13 14 -28 -1z"/>
<path d="M4895 2341 c-3 -5 -2 -12 3 -15 5 -3 9 1 9 9 0 17 -3 19 -12 6z"/>
<path d="M855 2320 c3 -5 8 -10 11 -10 2 0 4 5 4 10 0 6 -5 10 -11 10 -5 0 -7
-4 -4 -10z"/>
<path d="M1524 2306 c0 -14 6 -22 14 -19 15 6 15 11 -2 28 -12 12 -14 11 -12
-9z"/>
<path d="M4777 2309 c4 -13 8 -18 11 -10 2 7 -1 18 -6 23 -8 8 -9 4 -5 -13z"/>
<path d="M4870 2310 c0 -5 5 -10 11 -10 5 0 7 5 4 10 -3 6 -8 10 -11 10 -2 0
-4 -4 -4 -10z"/>
<path d="M5015 2309 c-4 -6 -5 -12 -2 -15 2 -3 7 2 10 11 7 17 1 20 -8 4z"/>
<path d="M1090 2298 c0 -6 3 -8 7 -5 3 4 13 1 22 -6 14 -11 14 -10 2 6 -15 20
-31 22 -31 5z"/>
<path d="M4690 2300 c0 -5 5 -10 10 -10 6 0 10 5 10 10 0 6 -4 10 -10 10 -5 0
-10 -4 -10 -10z"/>
<path d="M5075 2299 c-3 -4 2 -6 10 -5 21 3 28 13 10 13 -9 0 -18 -4 -20 -8z"/>
<path d="M1033 2285 c0 -8 4 -12 9 -9 5 3 6 10 3 15 -9 13 -12 11 -12 -6z"/>
<path d="M1313 2282 c0 -10 7 -19 13 -19 9 0 10 5 3 19 -5 10 -12 18 -14 18
-2 0 -3 -8 -2 -18z"/>
<path d="M1566 2291 c9 -9 34 -9 34 -1 0 5 -9 8 -20 7 -10 -1 -17 -3 -14 -6z"/>
<path d="M4830 2296 c0 -2 8 -10 18 -17 15 -13 16 -12 3 4 -13 16 -21 21 -21
13z"/>
<path d="M1196 2278 c5 -7 2 -9 -8 -6 -8 4 -15 0 -15 -7 0 -10 5 -11 19 -4 20
11 24 29 7 29 -5 0 -7 -5 -3 -12z"/>
<path d="M1236 2274 c-8 -21 -8 -34 2 -34 4 0 8 11 8 25 2 29 -1 32 -10 9z"/>
<path d="M4167 2275 c-10 -7 -14 -15 -10 -16 4 -2 -5 -17 -20 -33 -19 -20 -25
-23 -20 -10 7 18 6 18 -11 2 -9 -10 -21 -18 -26 -18 -11 0 -7 33 5 42 6 5 6 8
-2 8 -6 0 -19 -10 -27 -22 -11 -15 -16 -18 -16 -8 0 13 -1 13 -10 0 -5 -9 -5
-19 0 -26 6 -6 7 -14 3 -17 -9 -9 -23 -9 -22 1 3 20 -2 32 -12 26 -8 -5 -7 -9
1 -14 8 -5 3 -7 -14 -7 -24 2 -25 3 -9 15 10 7 12 12 4 12 -7 0 -9 5 -6 10 3
6 2 10 -3 10 -6 0 -13 -7 -16 -16 -5 -13 -9 -14 -20 -5 -9 8 -16 8 -20 2 -4
-5 2 -12 12 -15 10 -4 19 -13 19 -21 0 -9 -5 -14 -11 -12 -6 3 -10 10 -8 16 3
15 -11 14 -26 -1 -9 -9 -12 -9 -12 0 0 7 -6 11 -12 9 -7 -1 -13 6 -13 16 0 10
-7 22 -15 27 -22 14 -30 12 -24 -5 4 -8 11 -12 18 -8 6 3 2 -3 -8 -16 -14 -15
-22 -18 -27 -10 -4 8 -11 4 -19 -10 -11 -21 -13 -21 -35 -7 -22 15 -24 14 -22
-4 1 -11 5 -20 11 -20 5 0 1 -9 -9 -20 -19 -21 -32 -20 -19 2 13 20 13 38 2
38 -6 0 -7 -8 -4 -17 5 -15 4 -15 -9 1 -8 11 -15 14 -15 8 0 -7 -5 -12 -11
-12 -5 0 -8 4 -4 9 11 19 -14 20 -37 1 -25 -19 -25 -19 -48 5 -18 19 -26 22
-37 14 -7 -6 -13 -17 -13 -23 0 -6 6 -5 13 4 10 13 15 12 36 -9 13 -13 17 -21
8 -18 -8 3 -19 1 -24 -4 -14 -14 -55 -20 -47 -7 5 7 2 8 -6 3 -9 -5 -11 -4 -6
4 4 6 12 9 17 6 5 -4 9 -1 9 4 0 6 -7 11 -15 11 -8 0 -15 -5 -15 -11 0 -5 -5
-7 -11 -3 -8 4 -4 11 11 19 12 7 18 15 13 18 -13 8 -60 -43 -58 -63 1 -8 3
-21 3 -28 1 -7 7 -10 14 -6 7 5 9 2 6 -8 -4 -8 0 -15 7 -15 10 0 11 5 4 19 -5
10 -14 18 -19 18 -6 0 -10 5 -10 11 0 5 5 7 10 4 6 -3 10 -2 10 4 0 5 -6 12
-12 15 -7 3 -4 4 7 3 13 -2 19 -9 17 -20 -3 -20 9 -22 26 -5 9 9 12 9 12 0 0
-6 -8 -16 -17 -22 -17 -11 -17 -11 0 -6 10 3 21 6 23 6 2 0 4 7 4 16 0 8 5 12
11 9 6 -4 8 -13 5 -20 -3 -8 2 -12 12 -11 9 2 25 -7 35 -18 18 -21 18 -20 1 6
-9 15 -20 26 -24 23 -4 -3 -11 2 -14 11 -9 25 -7 27 11 13 9 -8 14 -9 10 -3
-4 7 0 15 9 18 24 9 29 7 16 -6 -7 -7 -12 -15 -12 -19 0 -11 43 -7 59 5 11 9
13 6 7 -14 -6 -23 -5 -24 5 -4 6 13 21 22 35 22 13 0 21 -4 18 -9 -3 -5 0 -9
6 -9 6 0 9 8 6 18 -4 13 -1 18 14 18 11 0 19 -5 16 -12 -2 -6 0 -17 5 -25 7
-11 9 -11 9 -1 0 8 5 10 13 6 8 -5 7 -2 -2 9 -8 10 -11 21 -7 24 4 4 11 1 16
-7 5 -7 16 -15 24 -16 9 -1 14 2 10 7 -3 5 -10 7 -15 4 -13 -9 -11 8 4 29 13
17 14 17 28 0 13 -16 12 -17 -5 -11 -16 6 -17 5 -6 -8 18 -21 30 -19 25 5 -3
15 1 20 13 18 9 -2 16 3 15 10 -3 14 13 16 22 3 3 -5 -5 -17 -17 -25 -12 -9
-19 -18 -17 -21 3 -2 15 4 27 15 12 12 22 16 22 10 0 -5 4 -10 10 -10 5 0 6 7
3 17 -4 10 -2 14 5 9 6 -3 13 -2 17 4 8 13 35 13 35 -1 0 -5 -4 -8 -9 -4 -6 3
-15 -4 -21 -15 -6 -11 -9 -20 -8 -21 29 -8 39 -6 29 4 -16 16 -13 32 4 17 11
-9 19 -8 37 4 12 9 17 16 11 16 -7 0 -15 -4 -18 -10 -3 -5 -11 -10 -17 -10 -6
0 -4 8 5 18 10 10 24 19 32 19 21 0 27 -25 7 -36 -9 -6 -12 -10 -7 -11 26 0
37 17 26 39 -15 27 -7 27 19 1 12 -12 25 -18 30 -15 4 3 11 -2 13 -10 4 -11 4
-10 3 2 -1 10 -7 19 -14 19 -6 1 -16 2 -22 3 -5 0 -10 5 -10 11 0 11 28 9 47
-3 9 -6 11 -3 6 10 -3 10 -3 15 2 11 4 -4 17 -2 29 4 28 16 46 18 46 7 0 -5 5
-9 11 -9 8 0 8 5 -1 15 -8 9 -9 15 -2 15 6 0 18 -10 26 -22 l16 -22 16 22 c8
12 19 20 23 17 5 -2 8 4 7 15 0 11 -5 21 -11 21 -5 0 -15 5 -22 10 -8 7 -14 5
-21 -7 -6 -11 -11 -13 -16 -5 -11 18 -29 13 -22 -6 6 -14 3 -14 -16 3 -13 10
-25 22 -28 26 -3 3 -13 0 -23 -7z m33 -20 c4 3 13 -2 20 -10 7 -8 10 -16 6
-16 -3 -1 -9 -2 -13 -3 -5 -1 -18 -7 -30 -14 -13 -7 -23 -10 -23 -7 0 3 -10 1
-21 -6 -20 -10 -21 -10 -8 8 24 32 54 59 57 51 2 -5 7 -6 12 -3z m115 3 c5 4
2 -4 -7 -18 -8 -14 -21 -25 -28 -25 -7 0 -20 11 -28 25 -10 15 -11 20 -3 13
16 -14 44 -6 34 11 -4 7 -1 7 9 -1 8 -7 19 -9 23 -5z m-248 -48 c-5 -29 -12
-33 -28 -13 -9 11 -10 14 -1 9 7 -4 15 -1 18 8 9 22 14 20 11 -4z m-167 -55
c0 -5 -37 2 -47 8 -7 4 -18 -2 -27 -15 -9 -12 -16 -17 -16 -10 0 8 -5 10 -12
5 -7 -4 -22 -8 -33 -10 -11 -1 -14 1 -6 4 11 5 11 7 0 15 -11 8 -10 9 3 5 9
-3 22 1 28 8 7 8 16 13 20 10 4 -3 13 2 20 10 10 12 16 11 41 -7 16 -12 29
-22 29 -23z m80 19 c0 -8 -19 -13 -24 -6 -3 5 1 9 9 9 8 0 15 -2 15 -3z m-337
-31 c-5 -12 -3 -14 8 -8 34 21 72 8 44 -15 -8 -7 -15 -9 -15 -5 0 4 -6 3 -12
-2 -19 -15 -50 -13 -38 2 5 7 7 15 4 18 -3 3 -3 10 1 16 10 17 15 13 8 -6z"/>
<path d="M4166 2235 c-11 -8 -13 -15 -7 -20 6 -3 11 -1 11 5 0 6 4 9 9 5 5 -3
12 -1 16 5 4 6 12 7 18 4 7 -4 8 -3 4 1 -12 14 -32 14 -51 0z"/>
<path d="M4279 2233 c-13 -16 -12 -17 4 -4 9 7 17 15 17 17 0 8 -8 3 -21 -13z"/>
<path d="M3830 2175 c-7 -8 -16 -13 -20 -10 -4 3 -14 -3 -21 -13 -13 -15 -12
-16 4 -3 9 7 17 10 17 6 0 -5 8 -1 18 8 15 13 21 14 32 4 12 -10 12 -9 1 6
-16 21 -16 21 -31 2z"/>
<path d="M3650 2125 c-11 -13 -10 -14 4 -9 9 3 16 10 16 15 0 13 -6 11 -20 -6z"/>
<path d="M4590 2285 c0 -5 5 -17 10 -25 5 -8 10 -10 10 -5 0 6 -5 17 -10 25
-5 8 -10 11 -10 5z"/>
<path d="M4655 2280 c-3 -6 1 -7 9 -4 18 7 21 14 7 14 -6 0 -13 -4 -16 -10z"/>
<path d="M4876 2278 c3 -5 10 -6 15 -3 13 9 11 12 -6 12 -8 0 -12 -4 -9 -9z"/>
<path d="M5116 2273 c-6 -14 -5 -15 5 -6 7 7 10 15 7 18 -3 3 -9 -2 -12 -12z"/>
<path d="M1135 2269 c-4 -6 -5 -12 -2 -15 2 -3 7 2 10 11 7 17 1 20 -8 4z"/>
<path d="M4701 2257 c-13 -21 -12 -21 5 -5 10 10 16 20 13 22 -3 3 -11 -5 -18
-17z"/>
<path d="M4775 2270 c-4 -6 -12 -7 -18 -4 -7 4 -8 3 -4 -1 13 -15 34 -14 34 1
0 17 -4 18 -12 4z"/>
<path d="M4813 2267 c0 -8 6 -14 14 -14 9 0 10 4 2 14 -6 7 -12 13 -14 13 -1
0 -2 -6 -2 -13z"/>
<path d="M4470 2251 c0 -6 4 -13 10 -16 6 -3 7 1 4 9 -7 18 -14 21 -14 7z"/>
<path d="M4627 2246 c-4 -10 -1 -13 8 -9 8 3 12 9 9 14 -7 12 -11 11 -17 -5z"/>
<path d="M1266 2241 c-4 -5 3 -7 14 -4 23 6 26 13 6 13 -8 0 -17 -4 -20 -9z"/>
<path d="M1333 2235 c0 -8 4 -12 9 -9 5 3 6 10 3 15 -9 13 -12 11 -12 -6z"/>
<path d="M1872 2234 c-14 -9 -23 -11 -27 -4 -11 17 -22 2 -19 -26 3 -35 11
-40 19 -14 5 16 10 19 20 10 17 -14 36 -4 29 15 -4 9 1 13 14 12 12 0 18 -5
16 -9 -3 -5 -9 -6 -13 -4 -4 3 -6 -5 -5 -17 1 -12 3 -26 3 -31 1 -4 8 -5 17
-2 9 4 24 1 32 -6 10 -8 13 -9 9 -1 -4 6 -3 13 2 15 14 5 18 22 6 26 -5 2 -19
11 -30 21 -30 27 -50 31 -73 15z m3 -14 c-3 -5 -1 -10 6 -10 7 0 10 -3 6 -6
-9 -9 -28 6 -22 17 4 5 8 9 11 9 3 0 2 -4 -1 -10z m100 -23 c5 5 3 0 -4 -10
-11 -13 -17 -15 -27 -6 -11 9 -14 8 -14 0 0 -7 -5 -9 -11 -5 -8 4 -7 9 2 15 8
5 10 9 6 9 -5 0 -5 5 -2 11 5 7 13 5 24 -5 10 -9 22 -13 26 -9z"/>
<path d="M1930 2206 c0 -2 8 -10 18 -17 15 -13 16 -12 3 4 -13 16 -21 21 -21
13z"/>
<path d="M1496 2225 c4 -8 8 -15 10 -15 2 0 4 7 4 15 0 8 -4 15 -10 15 -5 0
-7 -7 -4 -15z"/>
<path d="M1525 2230 c-3 -6 1 -7 9 -4 18 7 21 14 7 14 -6 0 -13 -4 -16 -10z"/>
<path d="M2100 2225 c-8 -9 -8 -15 -2 -15 12 0 26 19 19 26 -2 2 -10 -2 -17
-11z"/>
<path d="M3996 2233 c-11 -11 -7 -20 9 -20 8 0 15 4 15 8 0 11 -16 20 -24 12z"/>
<path d="M4508 2233 c7 -3 16 -2 19 1 4 3 -2 6 -13 5 -11 0 -14 -3 -6 -6z"/>
<path d="M1456 2214 c-3 -9 -2 -12 5 -9 5 4 18 1 27 -6 13 -11 12 -8 -2 9 -23
26 -22 26 -30 6z"/>
<path d="M4430 2218 c0 -11 12 -10 30 2 12 7 10 9 -8 7 -12 0 -22 -5 -22 -9z"/>
<path d="M4559 2213 c-12 -16 -12 -17 2 -6 9 7 19 10 22 6 4 -3 7 -1 7 5 0 17
-16 15 -31 -5z"/>
<path d="M4694 2216 c1 -8 5 -18 8 -22 4 -3 5 1 4 10 -1 8 -5 18 -8 22 -4 3
-5 -1 -4 -10z"/>
<path d="M4729 2217 c6 -8 7 -18 3 -22 -4 -5 -1 -5 6 -1 10 6 10 11 1 22 -6 8
-14 14 -16 14 -3 0 0 -6 6 -13z"/>
<path d="M4350 2216 c0 -3 9 -10 20 -16 11 -6 20 -8 20 -6 0 3 -9 10 -20 16
-11 6 -20 8 -20 6z"/>
<path d="M1533 2203 c4 -3 1 -13 -6 -22 -11 -14 -10 -14 5 -2 16 12 16 31 1
31 -4 0 -3 -3 0 -7z"/>
<path d="M1590 2202 c0 -5 7 -9 15 -9 8 0 12 4 9 9 -3 4 -9 8 -15 8 -5 0 -9
-4 -9 -8z"/>
<path d="M2038 2199 c-10 -6 -23 -19 -29 -31 -8 -15 -8 -19 0 -14 6 4 23 10
38 12 22 4 24 3 14 -10 -14 -17 1 -31 24 -22 8 3 15 0 15 -7 0 -8 3 -7 9 2 5
8 7 20 4 28 -3 7 -1 13 5 13 18 0 20 -24 4 -50 l-14 -25 21 25 c11 14 21 28
21 33 0 4 6 6 13 5 7 -2 11 5 9 17 -2 17 -1 17 7 4 13 -21 3 -59 -14 -53 -7 3
-15 1 -19 -4 -3 -5 5 -8 17 -7 13 1 24 10 26 20 3 17 5 16 22 -6 10 -13 19
-19 19 -12 0 6 -4 15 -10 18 -5 3 -10 11 -10 17 0 7 4 7 13 -1 8 -6 18 -7 22
-3 5 4 5 -1 2 -10 -3 -10 -1 -20 5 -24 6 -4 8 -3 5 2 -3 6 -2 16 4 24 7 13 9
12 9 -2 0 -10 4 -18 10 -18 5 0 7 8 4 18 -3 10 5 4 21 -13 18 -21 24 -24 19
-10 -6 18 -4 17 21 -5 16 -14 25 -19 20 -11 -6 11 -4 13 9 8 11 -4 15 -3 11 4
-4 6 -14 8 -22 5 -10 -4 -13 -2 -10 8 4 10 1 13 -7 10 -7 -3 -13 2 -13 11 0
11 6 13 21 9 18 -6 19 -5 8 9 -7 8 -21 14 -30 12 -9 -2 -17 -4 -17 -5 0 -1 -8
-3 -17 -5 -10 -2 -22 4 -27 13 -9 15 -11 15 -29 -1 -16 -15 -21 -15 -30 -4 -7
8 -10 16 -7 19 8 8 -59 3 -73 -6 -7 -4 -19 -3 -26 3 -7 6 -16 8 -19 4 -4 -3
-12 -1 -19 5 -9 7 -19 7 -30 1z m52 -17 c7 2 13 -6 14 -17 2 -16 -4 -21 -23
-23 -23 -1 -24 0 -9 11 15 12 15 14 -3 25 -10 7 -19 8 -19 4 0 -5 -7 -9 -16
-9 -15 0 -14 2 1 13 13 10 22 11 31 3 6 -5 17 -8 24 -7z m69 -6 c11 -14 6 -15
-27 -7 -4 1 8 21 12 21 2 0 9 -6 15 -14z m109 -9 c9 -10 6 -13 -13 -13 -19 0
-22 3 -13 13 6 7 12 13 13 13 1 0 7 -6 13 -13z m58 -12 c-3 -24 -12 -27 -27
-8 -8 9 -9 14 -2 10 6 -4 14 -3 18 3 9 14 14 12 11 -5z"/>
<path d="M4323 2203 c9 -2 14 -9 11 -15 -4 -7 -2 -8 5 -4 15 10 4 26 -17 25
-15 -1 -15 -2 1 -6z"/>
<path d="M4468 2203 c6 -3 10 -9 7 -13 -3 -5 0 -12 7 -16 7 -4 10 -4 6 1 -4 4
-4 13 2 19 6 8 2 12 -13 13 -12 0 -16 -1 -9 -4z"/>
<path d="M4515 2202 c3 -3 -1 -12 -7 -21 -8 -10 -4 -9 10 3 26 23 26 23 7 23
-8 0 -13 -3 -10 -5z"/>
<path d="M4766 2202 c-3 -5 1 -9 9 -9 8 0 12 4 9 9 -3 4 -7 8 -9 8 -2 0 -6 -4
-9 -8z"/>
<path d="M4188 2189 c-10 -5 -18 -15 -18 -22 0 -8 3 -9 8 -1 4 6 16 16 27 22
11 6 16 11 10 11 -5 0 -18 -4 -27 -10z"/>
<path d="M1620 2180 c-8 -5 -10 -10 -5 -10 6 0 17 5 25 10 8 5 11 10 5 10 -5
0 -17 -5 -25 -10z"/>
<path d="M1675 2180 c-3 -5 -1 -10 4 -10 6 0 11 5 11 10 0 6 -2 10 -4 10 -3 0
-8 -4 -11 -10z"/>
<path d="M1792 2182 c-9 -6 -5 -12 15 -20 24 -11 26 -10 11 1 -10 8 -15 17
-11 20 9 9 1 8 -15 -1z"/>
<path d="M1850 2180 c0 -5 5 -10 11 -10 5 0 7 5 4 10 -3 6 -8 10 -11 10 -2 0
-4 -4 -4 -10z"/>
<path d="M4230 2181 c0 -6 5 -13 12 -17 6 -4 8 -3 4 4 -3 5 0 13 6 15 8 3 6 6
-4 6 -10 1 -18 -3 -18 -8z"/>
<path d="M4295 2180 c-3 -6 1 -7 9 -4 18 7 21 14 7 14 -6 0 -13 -4 -16 -10z"/>
<path d="M4355 2180 c-3 -5 -1 -10 4 -10 6 0 11 5 11 10 0 6 -2 10 -4 10 -3 0
-8 -4 -11 -10z"/>
<path d="M4570 2179 c0 -5 5 -7 10 -4 6 3 10 8 10 11 0 2 -4 4 -10 4 -5 0 -10
-5 -10 -11z"/>
<path d="M1720 2176 c0 -2 7 -7 16 -10 8 -3 12 -2 9 4 -6 10 -25 14 -25 6z"/>
<path d="M1876 2163 c-6 -14 -5 -15 5 -6 7 7 10 15 7 18 -3 3 -9 -2 -12 -12z"/>
<path d="M4389 2163 c-13 -16 -12 -17 4 -4 9 7 17 15 17 17 0 8 -8 3 -21 -13z"/>
<path d="M4190 2160 c0 -5 7 -7 15 -4 8 4 15 8 15 10 0 2 -7 4 -15 4 -8 0 -15
-4 -15 -10z"/>
<path d="M4305 2159 c-3 -4 2 -6 10 -5 21 3 28 13 10 13 -9 0 -18 -4 -20 -8z"/>
<path d="M1716 2147 c3 -10 9 -15 12 -12 3 3 0 11 -7 18 -10 9 -11 8 -5 -6z"/>
<path d="M1981 2144 c0 -11 3 -14 6 -6 3 7 2 16 -1 19 -3 4 -6 -2 -5 -13z"/>
<path d="M3550 2139 c-11 -19 -10 -20 10 -9 11 6 18 15 15 21 -9 13 -13 11
-25 -12z"/>
<path d="M4355 2149 c-4 -6 -5 -12 -2 -15 2 -3 7 2 10 11 7 17 1 20 -8 4z"/>
<path d="M4515 2149 c-4 -6 -5 -12 -2 -15 2 -3 7 2 10 11 7 17 1 20 -8 4z"/>
<path d="M1440 2140 c-9 -6 -10 -10 -3 -10 6 0 15 5 18 10 8 12 4 12 -15 0z"/>
<path d="M1945 2137 c10 -8 15 -19 11 -25 -3 -6 -3 -13 2 -16 12 -7 11 26 -1
42 -5 6 -14 12 -20 12 -6 0 -3 -6 8 -13z"/>
<path d="M2010 2140 c-8 -5 -10 -10 -5 -10 6 0 17 5 25 10 8 5 11 10 5 10 -5
0 -17 -5 -25 -10z"/>
<path d="M2832 2138 c2 -6 12 -12 22 -14 14 -2 15 0 5 12 -14 17 -32 19 -27 2z"/>
<path d="M3090 2142 c0 -15 11 -21 27 -15 12 5 12 7 1 14 -17 11 -28 11 -28 1z"/>
<path d="M3277 2136 c-6 -15 -10 -16 -22 -6 -13 10 -19 9 -35 -5 -15 -13 -23
-15 -33 -7 -10 8 -13 6 -14 -9 -2 -16 3 -19 20 -14 15 4 18 4 8 -3 -9 -7 -10
-12 -2 -16 10 -6 15 6 12 27 0 4 3 7 7 7 18 0 20 -13 6 -35 -12 -18 -12 -25
-3 -31 7 -4 9 -3 6 3 -4 6 0 19 7 29 10 13 11 23 4 31 -12 15 0 17 20 4 17
-10 15 -23 -4 -34 -8 -4 -14 -13 -14 -18 0 -6 7 -3 17 6 15 16 17 15 29 -7 7
-12 13 -18 14 -13 0 6 -7 20 -15 32 -9 12 -11 24 -6 27 5 4 13 -3 16 -15 6
-19 7 -20 20 -2 7 10 10 20 7 23 -8 6 -14 30 -7 30 2 0 9 -9 15 -21 9 -16 8
-26 -6 -47 -17 -27 -17 -27 3 -10 15 14 22 15 32 5 7 -7 6 0 -3 17 -12 23 -13
33 -3 45 6 9 7 13 3 9 -5 -4 -15 -3 -23 3 -9 9 -17 8 -27 0 -11 -9 -15 -9 -18
1 -3 8 -7 5 -11 -6z m30 -30 c2 -19 1 -19 -8 -3 -6 9 -15 14 -21 11 -6 -4 -8
-3 -5 3 11 17 33 10 34 -11z"/>
<path d="M3395 2140 c-3 -5 -1 -10 4 -10 6 0 11 5 11 10 0 6 -2 10 -4 10 -3 0
-8 -4 -11 -10z"/>
<path d="M4206 2142 c-3 -5 1 -9 9 -9 8 0 15 4 15 9 0 4 -4 8 -9 8 -6 0 -12
-4 -15 -8z"/>
<path d="M1900 2125 c0 -7 30 -13 34 -7 3 4 -4 9 -15 9 -10 1 -19 0 -19 -2z"/>
<path d="M2033 2110 c-1 -11 1 -22 5 -24 4 -2 8 7 8 20 1 13 -1 24 -5 24 -4 0
-7 -9 -8 -20z"/>
<path d="M4127 2119 c7 -7 15 -10 18 -7 3 3 -2 9 -12 12 -14 6 -15 5 -6 -5z"/>
<path d="M4430 2121 c0 -6 4 -13 10 -16 6 -3 7 1 4 9 -7 18 -14 21 -14 7z"/>
<path d="M1790 2116 c0 -2 8 -10 18 -17 15 -13 16 -12 3 4 -13 16 -21 21 -21
13z"/>
<path d="M3930 2109 c0 -5 -4 -8 -9 -4 -5 3 -12 1 -15 -4 -4 -5 2 -8 11 -7 15
3 33 26 19 26 -3 0 -6 -5 -6 -11z"/>
<path d="M4027 2107 c-3 -8 0 -14 7 -14 7 0 13 6 13 14 0 7 -4 13 -8 13 -4 0
-9 -6 -12 -13z"/>
<path d="M1636 2093 c-6 -14 -5 -15 5 -6 7 7 10 15 7 18 -3 3 -9 -2 -12 -12z"/>
<path d="M2180 2100 c-8 -5 -10 -10 -5 -10 6 0 17 5 25 10 8 5 11 10 5 10 -5
0 -17 -5 -25 -10z"/>
<path d="M2266 2101 c-4 -5 3 -7 14 -4 23 6 26 13 6 13 -8 0 -17 -4 -20 -9z"/>
<path d="M3995 2091 c-3 -5 -2 -12 3 -15 5 -3 9 1 9 9 0 17 -3 19 -12 6z"/>
<path d="M2090 2079 c0 -5 5 -7 10 -4 6 3 10 8 10 11 0 2 -4 4 -10 4 -5 0 -10
-5 -10 -11z"/>
<path d="M2280 2080 c-9 -6 -10 -10 -3 -10 6 0 15 5 18 10 8 12 4 12 -15 0z"/>
<path d="M2314 2065 c0 -28 8 -24 13 5 2 11 -1 20 -5 20 -4 0 -8 -11 -8 -25z"/>
<path d="M2375 2080 c-3 -6 1 -7 9 -4 18 7 21 14 7 14 -6 0 -13 -4 -16 -10z"/>
<path d="M2414 2076 c1 -8 5 -18 8 -22 4 -3 5 1 4 10 -1 8 -5 18 -8 22 -4 3
-5 -1 -4 -10z"/>
<path d="M2456 2082 c-2 -4 -1 -14 4 -22 7 -11 9 -9 7 8 -1 24 -3 26 -11 14z"/>
<path d="M2535 2080 c6 -9 4 -12 -7 -8 -8 4 -15 1 -15 -6 0 -17 25 -16 31 0 3
8 0 16 -6 20 -7 5 -8 2 -3 -6z"/>
<path d="M3693 2075 c-3 -9 -3 -18 -1 -21 3 -3 8 4 11 16 6 23 -1 27 -10 5z"/>
<path d="M3759 2088 c-6 -22 -5 -39 3 -45 6 -3 8 -1 4 5 -3 5 0 13 6 15 10 4
10 6 0 6 -7 1 -10 6 -7 11 3 6 4 10 1 10 -3 0 -6 -1 -7 -2z"/>
<path d="M3836 2078 c3 -5 10 -6 15 -3 13 9 11 12 -6 12 -8 0 -12 -4 -9 -9z"/>
<path d="M3950 2076 c7 -7 13 -7 20 0 6 6 3 10 -10 10 -13 0 -16 -4 -10 -10z"/>
<path d="M4115 2080 c3 -5 8 -10 11 -10 2 0 4 5 4 10 0 6 -5 10 -11 10 -5 0
-7 -4 -4 -10z"/>
<path d="M2156 2067 c3 -10 9 -15 12 -12 3 3 0 11 -7 18 -10 9 -11 8 -5 -6z"/>
<path d="M2660 2073 c0 -6 8 -17 18 -24 16 -13 16 -13 2 6 -8 11 -16 22 -17
24 -2 2 -3 0 -3 -6z"/>
<path d="M2742 2064 c-7 -8 -8 -14 -3 -14 10 0 25 19 20 25 -2 1 -10 -3 -17
-11z"/>
<path d="M2841 2064 c0 -11 3 -14 6 -6 3 7 2 16 -1 19 -3 4 -6 -2 -5 -13z"/>
<path d="M3155 2070 c-4 -6 -4 -14 -1 -17 3 -4 6 -1 6 5 0 7 5 12 11 12 5 0 7
-4 4 -10 -3 -5 -1 -10 5 -10 14 0 8 22 -7 27 -6 2 -14 -1 -18 -7z"/>
<path d="M3397 2065 c-4 -8 -3 -16 1 -19 4 -3 9 4 9 15 2 23 -3 25 -10 4z"/>
<path d="M3824 2063 c16 -19 17 -25 5 -40 -12 -17 -12 -17 6 0 19 17 19 17 -5
40 l-24 22 18 -22z"/>
<path d="M2030 2060 c0 -5 5 -10 11 -10 5 0 7 5 4 10 -3 6 -8 10 -11 10 -2 0
-4 -4 -4 -10z"/>
<path d="M2793 2050 c5 -29 13 -33 13 -5 0 14 -4 25 -8 25 -4 0 -7 -9 -5 -20z"/>
<path d="M2950 2060 c0 -5 5 -10 10 -10 6 0 10 5 10 10 0 6 -4 10 -10 10 -5 0
-10 -4 -10 -10z"/>
<path d="M3050 2060 c0 -5 5 -10 10 -10 6 0 10 5 10 10 0 6 -4 10 -10 10 -5 0
-10 -4 -10 -10z"/>
<path d="M3440 2059 c0 -5 5 -7 10 -4 6 3 10 8 10 11 0 2 -4 4 -10 4 -5 0 -10
-5 -10 -11z"/>
<path d="M3335 2049 c-4 -6 -5 -12 -2 -15 2 -3 7 2 10 11 7 17 1 20 -8 4z"/>
<path d="M2270 2046 c0 -2 7 -7 16 -10 8 -3 12 -2 9 4 -6 10 -25 14 -25 6z"/>
<path d="M2700 2046 c0 -2 8 -10 18 -17 15 -13 16 -12 3 4 -13 16 -21 21 -21
13z"/>
<path d="M2827 2039 c7 -7 15 -10 18 -7 3 3 -2 9 -12 12 -14 6 -15 5 -6 -5z"/>
<path d="M2866 2041 c-4 -5 3 -7 14 -4 23 6 26 13 6 13 -8 0 -17 -4 -20 -9z"/>
<path d="M2980 2044 c0 -1 8 -8 17 -15 9 -8 14 -9 10 -2 -4 6 -1 13 5 16 7 3
3 4 -9 4 -13 -1 -23 -2 -23 -3z"/>
<path d="M3120 2040 c-12 -7 -10 -9 7 -7 12 0 19 5 17 9 -6 10 -6 10 -24 -2z"/>
<path d="M3360 2040 c-9 -6 -10 -10 -3 -10 6 0 15 5 18 10 8 12 4 12 -15 0z"/>
<path d="M3194 2032 c4 -7 2 -21 -5 -30 -12 -15 -11 -15 6 0 16 15 17 20 6 30
-11 11 -13 10 -7 0z"/>
<path d="M3435 2031 c-3 -5 -2 -12 3 -15 5 -3 9 1 9 9 0 17 -3 19 -12 6z"/>
<path d="M3230 2025 c0 -5 5 -17 10 -25 5 -8 10 -10 10 -5 0 6 -5 17 -10 25
-5 8 -10 11 -10 5z"/>
<path d="M3279 2013 c-13 -16 -12 -17 4 -4 9 7 17 15 17 17 0 8 -8 3 -21 -13z"/>
<path d="M2936 2002 c-3 -5 1 -9 9 -9 8 0 12 4 9 9 -3 4 -7 8 -9 8 -2 0 -6 -4
-9 -8z"/>
<path d="M2636 1978 c3 -5 10 -6 15 -3 13 9 11 12 -6 12 -8 0 -12 -4 -9 -9z"/>
<path d="M3350 1986 c0 -2 7 -7 16 -10 8 -3 12 -2 9 4 -6 10 -25 14 -25 6z"/>
</g>
</svg>
