<?xml version="1.0" standalone="no"?>
<!DOCTYPE svg PUBLIC "-//W3C//DTD SVG 20010904//EN"
 "http://www.w3.org/TR/2001/REC-SVG-20010904/DTD/svg10.dtd">
<svg version="1.0" xmlns="http://www.w3.org/2000/svg"
 width="960.000000pt" height="960.000000pt" viewBox="0 0 960.000000 960.000000"
 preserveAspectRatio="xMidYMid meet">
<metadata>
Created by potrace 1.14, written by Peter Selinger 2001-2017
</metadata>
<g transform="translate(0.000000,960.000000) scale(0.100000,-0.100000)"
fill="#000000" stroke="none">
<path d="M557 8702 c-9 -2 -17 -5 -17 -7 0 -5 59 -139 70 -157 5 -10 10 -22
10 -28 0 -5 16 -42 35 -82 20 -40 36 -75 37 -78 1 -9 20 -54 43 -105 12 -27
55 -126 95 -220 40 -93 81 -188 90 -210 10 -22 36 -83 58 -135 22 -52 51 -117
63 -145 13 -27 24 -53 25 -57 1 -5 3 -10 4 -13 1 -3 3 -8 5 -12 3 -13 55 -127
65 -145 6 -10 10 -25 10 -33 0 -8 4 -15 10 -15 5 0 9 -3 8 -7 -1 -5 3 -19 9
-33 19 -45 165 -384 183 -425 10 -22 45 -105 80 -185 34 -80 68 -158 76 -174
8 -16 14 -35 14 -43 0 -7 5 -13 10 -13 6 0 9 -3 8 -7 -2 -7 38 -107 92 -228
24 -53 106 -244 140 -325 43 -101 82 -190 129 -294 17 -37 31 -74 31 -81 0 -7
7 -18 15 -25 8 -7 13 -15 10 -19 -2 -4 2 -18 9 -32 6 -13 19 -42 28 -64 9 -22
27 -62 39 -90 13 -27 24 -52 24 -55 1 -3 10 -23 19 -45 56 -125 169 -388 171
-395 0 -3 8 -21 17 -40 9 -19 37 -84 63 -145 26 -60 53 -123 61 -139 8 -16 14
-35 14 -43 0 -7 5 -13 10 -13 6 0 10 -7 10 -16 0 -9 9 -35 19 -58 57 -120 81
-178 81 -191 0 -8 5 -15 10 -15 6 0 10 -7 10 -15 0 -8 11 -38 24 -67 14 -29
39 -87 56 -128 18 -41 40 -93 50 -115 10 -22 32 -74 50 -115 18 -41 38 -88 46
-105 23 -52 115 -267 141 -330 14 -33 34 -80 45 -105 11 -25 26 -58 33 -75 7
-16 25 -57 40 -90 15 -33 28 -64 29 -70 1 -5 9 -26 18 -45 19 -40 51 -112 52
-120 1 -3 9 -21 18 -40 57 -126 68 -151 68 -156 0 -3 12 -31 26 -62 14 -31 29
-66 34 -77 4 -11 17 -40 28 -65 11 -25 39 -90 62 -145 24 -55 51 -118 61 -140
38 -84 101 -232 117 -275 10 -25 22 -52 27 -60 5 -8 10 -17 11 -20 1 -5 13
-35 37 -90 6 -14 11 -27 12 -30 3 -9 36 -84 54 -125 10 -22 38 -85 61 -140 23
-55 53 -122 65 -150 13 -27 40 -90 60 -139 20 -49 40 -96 45 -105 4 -9 12 -27
18 -41 6 -14 19 -45 30 -70 11 -25 26 -60 33 -77 l14 -33 927 0 c511 0 927 3
926 8 -2 9 7 31 38 100 13 29 24 55 24 58 0 3 16 39 35 80 19 40 35 76 35 78
0 3 12 31 26 63 37 84 48 109 84 193 30 72 55 129 85 195 7 17 20 46 28 65 22
53 107 250 127 295 10 22 30 69 45 105 15 36 37 88 50 115 65 144 135 312 135
323 0 7 5 12 10 12 6 0 10 6 10 14 0 8 14 45 31 83 87 192 109 245 109 258 0
8 5 15 10 17 6 2 12 12 14 23 2 11 11 34 20 50 9 17 16 34 16 39 0 4 14 38 31
75 17 36 34 75 39 86 15 38 42 100 60 140 23 54 42 96 80 185 18 41 40 93 50
115 10 22 67 155 128 295 145 336 142 331 158 361 7 14 11 29 7 33 -3 3 -1 6
6 6 7 0 10 4 6 9 -3 5 -1 12 5 16 6 4 8 10 5 15 -3 4 2 13 10 20 8 7 15 18 15
24 1 6 9 29 20 51 11 22 19 43 20 47 0 4 14 37 31 75 34 75 37 82 103 236 65
150 69 161 68 170 -1 4 2 7 7 7 5 0 12 12 15 26 4 14 22 59 41 101 19 41 35
77 35 79 0 3 10 26 21 52 36 79 62 137 64 142 5 16 28 69 40 95 19 41 28 69
27 78 -1 4 2 7 6 7 5 0 15 19 22 43 8 23 19 49 27 58 7 8 14 24 16 35 2 10 14
42 26 69 12 28 43 97 68 155 25 58 56 128 69 157 13 28 24 54 24 57 0 3 13 34
29 68 16 35 61 137 99 228 39 91 81 188 93 215 12 28 22 52 21 55 0 3 4 11 10
18 6 6 7 12 2 12 -5 0 -4 4 2 8 6 4 25 43 44 87 18 44 46 108 61 143 16 34 29
64 29 66 0 2 9 24 20 50 12 25 21 49 21 53 0 5 6 14 12 22 6 7 12 18 13 25 2
9 62 150 129 301 7 17 28 64 45 105 18 41 41 93 51 115 9 22 32 74 49 115 18
41 43 99 56 128 13 29 24 59 24 67 0 8 5 15 10 15 6 0 10 5 10 11 0 9 51 134
107 259 13 30 31 71 39 90 9 19 22 49 29 65 21 46 48 108 110 255 31 74 63
147 70 162 9 19 10 28 1 30 -6 2 -422 4 -923 3 -894 -1 -913 -1 -928 -20 -8
-11 -15 -25 -15 -32 0 -7 -13 -40 -29 -75 -16 -35 -41 -92 -56 -128 -15 -36
-36 -84 -46 -107 -11 -23 -19 -47 -19 -52 0 -6 -5 -11 -12 -11 -6 0 -8 -3 -5
-6 4 -4 -2 -23 -12 -43 -18 -35 -55 -120 -57 -131 0 -3 -10 -25 -21 -50 -11
-25 -64 -146 -118 -270 -53 -124 -104 -241 -112 -260 -9 -19 -17 -37 -18 -40
-4 -12 -26 -63 -44 -103 -10 -23 -38 -87 -61 -142 -24 -55 -51 -118 -61 -140
-9 -22 -32 -74 -49 -115 -36 -84 -47 -109 -84 -193 -14 -32 -26 -60 -26 -63 0
-2 -16 -38 -35 -78 -19 -41 -35 -76 -35 -79 0 -2 -10 -26 -22 -53 -12 -27 -23
-51 -23 -54 -3 -9 -25 -61 -51 -118 -14 -31 -43 -97 -64 -147 -21 -49 -97
-227 -170 -395 -73 -168 -149 -346 -170 -395 -21 -50 -52 -121 -69 -158 -17
-37 -31 -70 -31 -72 0 -2 -12 -30 -26 -62 -14 -32 -30 -67 -34 -78 -4 -11 -24
-55 -44 -97 -20 -43 -36 -80 -36 -83 0 -4 -10 -27 -22 -53 -11 -26 -21 -53
-21 -59 0 -7 -3 -13 -7 -13 -3 0 -12 -17 -20 -37 -7 -21 -26 -66 -42 -100 -15
-34 -28 -64 -28 -66 0 -5 -24 -59 -70 -162 -11 -24 -194 -447 -257 -595 -43
-101 -57 -133 -101 -230 -11 -25 -24 -58 -27 -73 -4 -15 -11 -27 -16 -27 -5 0
-9 -7 -9 -15 0 -8 -12 -40 -26 -72 -15 -32 -32 -71 -39 -88 -7 -16 -41 -95
-76 -174 -62 -141 -63 -143 -76 -115 -6 16 -26 60 -43 97 -16 38 -30 72 -30
76 0 4 -13 35 -30 69 -16 34 -30 65 -30 68 0 3 -9 24 -19 47 -10 23 -45 103
-76 177 -32 74 -64 151 -73 170 -9 19 -17 40 -18 45 -2 9 -29 71 -80 182 -8
18 -21 50 -28 70 -8 21 -24 61 -37 88 -13 28 -24 52 -24 55 -2 5 -16 38 -38
90 -6 14 -11 27 -12 30 -1 3 -10 23 -20 45 -21 48 -38 88 -40 95 0 3 -11 27
-23 54 -12 27 -22 50 -22 52 0 2 -9 24 -20 49 -11 25 -29 65 -40 90 -11 25
-20 47 -20 51 0 3 -12 31 -26 62 -15 31 -30 66 -35 77 -4 11 -22 51 -38 88
-17 38 -31 71 -31 73 0 3 -11 30 -25 60 -14 30 -25 57 -25 59 0 2 -11 28 -25
57 -13 29 -33 76 -44 103 -11 28 -27 68 -37 90 -10 22 -18 42 -19 45 -1 3 -13
31 -28 64 -15 32 -27 65 -27 72 0 8 -4 14 -10 14 -5 0 -10 8 -10 18 0 10 -7
28 -16 40 -8 12 -13 22 -10 22 3 0 -9 30 -25 68 -47 104 -52 117 -124 287 -37
88 -73 174 -80 190 -71 162 -97 222 -99 233 -1 7 -8 18 -14 24 -7 7 -12 17
-12 24 0 11 -133 328 -180 431 -11 24 -20 45 -20 48 0 3 -10 27 -21 53 -22 49
-28 61 -78 182 -18 41 -36 84 -41 95 -5 11 -20 46 -34 78 -14 32 -26 60 -26
62 0 3 -9 24 -19 48 -54 117 -79 177 -76 177 3 0 -4 17 -14 38 -11 20 -33 71
-51 112 -17 41 -42 99 -56 128 -13 29 -24 56 -24 61 0 5 -9 26 -19 48 -10 21
-31 67 -46 103 -47 113 -52 124 -74 172 -11 26 -21 50 -21 52 0 2 -10 25 -22
52 -12 27 -23 51 -23 54 -1 3 -8 21 -17 40 -8 19 -28 64 -43 100 -15 36 -33
79 -41 95 l-14 30 -988 0 c-544 0 -996 -1 -1005 -3z"/>
</g>
</svg>
